G04 (created by PCBNEW (2013-07-07 BZR 4022)-stable) date 28/02/2015 20:38:53*
%MOIN*%
G04 Gerber Fmt 3.4, Leading zero omitted, Abs format*
%FSLAX34Y34*%
G01*
G70*
G90*
G04 APERTURE LIST*
%ADD10C,0.00590551*%
%ADD11C,0.0147638*%
%ADD12C,0.000393701*%
%ADD13C,0.005*%
%ADD14C,0.008*%
%ADD15C,0.003*%
%ADD16C,0.01*%
%ADD17C,0.006*%
%ADD18C,0.0045*%
%ADD19C,0.0035*%
G04 APERTURE END LIST*
G54D10*
G54D11*
X45447Y-41991D02*
X45447Y-41400D01*
X45643Y-41822D01*
X45840Y-41400D01*
X45840Y-41991D01*
X46206Y-41991D02*
X46150Y-41962D01*
X46122Y-41934D01*
X46093Y-41878D01*
X46093Y-41709D01*
X46122Y-41653D01*
X46150Y-41625D01*
X46206Y-41597D01*
X46290Y-41597D01*
X46347Y-41625D01*
X46375Y-41653D01*
X46403Y-41709D01*
X46403Y-41878D01*
X46375Y-41934D01*
X46347Y-41962D01*
X46290Y-41991D01*
X46206Y-41991D01*
X46740Y-41991D02*
X46684Y-41962D01*
X46656Y-41934D01*
X46628Y-41878D01*
X46628Y-41709D01*
X46656Y-41653D01*
X46684Y-41625D01*
X46740Y-41597D01*
X46825Y-41597D01*
X46881Y-41625D01*
X46909Y-41653D01*
X46937Y-41709D01*
X46937Y-41878D01*
X46909Y-41934D01*
X46881Y-41962D01*
X46825Y-41991D01*
X46740Y-41991D01*
X47275Y-41991D02*
X47218Y-41962D01*
X47190Y-41906D01*
X47190Y-41400D01*
X47415Y-41597D02*
X47640Y-41597D01*
X47500Y-41400D02*
X47500Y-41906D01*
X47528Y-41962D01*
X47584Y-41991D01*
X47640Y-41991D01*
X47837Y-41991D02*
X47837Y-41597D01*
X47837Y-41400D02*
X47809Y-41428D01*
X47837Y-41456D01*
X47865Y-41428D01*
X47837Y-41400D01*
X47837Y-41456D01*
X48118Y-41597D02*
X48118Y-42187D01*
X48118Y-41625D02*
X48174Y-41597D01*
X48287Y-41597D01*
X48343Y-41625D01*
X48371Y-41653D01*
X48399Y-41709D01*
X48399Y-41878D01*
X48371Y-41934D01*
X48343Y-41962D01*
X48287Y-41991D01*
X48174Y-41991D01*
X48118Y-41962D01*
X48906Y-41991D02*
X48906Y-41681D01*
X48877Y-41625D01*
X48821Y-41597D01*
X48709Y-41597D01*
X48652Y-41625D01*
X48906Y-41962D02*
X48849Y-41991D01*
X48709Y-41991D01*
X48652Y-41962D01*
X48624Y-41906D01*
X48624Y-41850D01*
X48652Y-41794D01*
X48709Y-41766D01*
X48849Y-41766D01*
X48906Y-41737D01*
X49159Y-41962D02*
X49215Y-41991D01*
X49327Y-41991D01*
X49384Y-41962D01*
X49412Y-41906D01*
X49412Y-41878D01*
X49384Y-41822D01*
X49327Y-41794D01*
X49243Y-41794D01*
X49187Y-41766D01*
X49159Y-41709D01*
X49159Y-41681D01*
X49187Y-41625D01*
X49243Y-41597D01*
X49327Y-41597D01*
X49384Y-41625D01*
X49637Y-41962D02*
X49693Y-41991D01*
X49805Y-41991D01*
X49862Y-41962D01*
X49890Y-41906D01*
X49890Y-41878D01*
X49862Y-41822D01*
X49805Y-41794D01*
X49721Y-41794D01*
X49665Y-41766D01*
X49637Y-41709D01*
X49637Y-41681D01*
X49665Y-41625D01*
X49721Y-41597D01*
X49805Y-41597D01*
X49862Y-41625D01*
X50593Y-41991D02*
X50593Y-41400D01*
X50593Y-41625D02*
X50649Y-41597D01*
X50762Y-41597D01*
X50818Y-41625D01*
X50846Y-41653D01*
X50874Y-41709D01*
X50874Y-41878D01*
X50846Y-41934D01*
X50818Y-41962D01*
X50762Y-41991D01*
X50649Y-41991D01*
X50593Y-41962D01*
X51071Y-41597D02*
X51212Y-41991D01*
X51352Y-41597D02*
X51212Y-41991D01*
X51155Y-42131D01*
X51127Y-42159D01*
X51071Y-42187D01*
X52027Y-41991D02*
X52027Y-41400D01*
X52224Y-41822D01*
X52421Y-41400D01*
X52421Y-41991D01*
X52702Y-41934D02*
X52730Y-41962D01*
X52702Y-41991D01*
X52674Y-41962D01*
X52702Y-41934D01*
X52702Y-41991D01*
X52955Y-41962D02*
X53039Y-41991D01*
X53180Y-41991D01*
X53236Y-41962D01*
X53264Y-41934D01*
X53293Y-41878D01*
X53293Y-41822D01*
X53264Y-41766D01*
X53236Y-41737D01*
X53180Y-41709D01*
X53068Y-41681D01*
X53011Y-41653D01*
X52983Y-41625D01*
X52955Y-41569D01*
X52955Y-41512D01*
X52983Y-41456D01*
X53011Y-41428D01*
X53068Y-41400D01*
X53208Y-41400D01*
X53293Y-41428D01*
X53461Y-41597D02*
X53686Y-41597D01*
X53546Y-41400D02*
X53546Y-41906D01*
X53574Y-41962D01*
X53630Y-41991D01*
X53686Y-41991D01*
X54108Y-41962D02*
X54052Y-41991D01*
X53939Y-41991D01*
X53883Y-41962D01*
X53855Y-41906D01*
X53855Y-41681D01*
X53883Y-41625D01*
X53939Y-41597D01*
X54052Y-41597D01*
X54108Y-41625D01*
X54136Y-41681D01*
X54136Y-41737D01*
X53855Y-41794D01*
X54389Y-41597D02*
X54389Y-42187D01*
X54389Y-41625D02*
X54446Y-41597D01*
X54558Y-41597D01*
X54614Y-41625D01*
X54642Y-41653D01*
X54670Y-41709D01*
X54670Y-41878D01*
X54642Y-41934D01*
X54614Y-41962D01*
X54558Y-41991D01*
X54446Y-41991D01*
X54389Y-41962D01*
X54924Y-41991D02*
X54924Y-41400D01*
X55177Y-41991D02*
X55177Y-41681D01*
X55149Y-41625D01*
X55092Y-41597D01*
X55008Y-41597D01*
X54952Y-41625D01*
X54924Y-41653D01*
X55711Y-41991D02*
X55711Y-41681D01*
X55683Y-41625D01*
X55627Y-41597D01*
X55514Y-41597D01*
X55458Y-41625D01*
X55711Y-41962D02*
X55655Y-41991D01*
X55514Y-41991D01*
X55458Y-41962D01*
X55430Y-41906D01*
X55430Y-41850D01*
X55458Y-41794D01*
X55514Y-41766D01*
X55655Y-41766D01*
X55711Y-41737D01*
X55992Y-41597D02*
X55992Y-41991D01*
X55992Y-41653D02*
X56020Y-41625D01*
X56077Y-41597D01*
X56161Y-41597D01*
X56217Y-41625D01*
X56245Y-41681D01*
X56245Y-41991D01*
X44237Y-42965D02*
X43956Y-42965D01*
X43956Y-42374D01*
X44434Y-42965D02*
X44434Y-42571D01*
X44434Y-42374D02*
X44406Y-42402D01*
X44434Y-42431D01*
X44462Y-42402D01*
X44434Y-42374D01*
X44434Y-42431D01*
X44969Y-42937D02*
X44912Y-42965D01*
X44800Y-42965D01*
X44744Y-42937D01*
X44715Y-42909D01*
X44687Y-42852D01*
X44687Y-42684D01*
X44715Y-42627D01*
X44744Y-42599D01*
X44800Y-42571D01*
X44912Y-42571D01*
X44969Y-42599D01*
X45447Y-42937D02*
X45390Y-42965D01*
X45278Y-42965D01*
X45222Y-42937D01*
X45194Y-42881D01*
X45194Y-42656D01*
X45222Y-42599D01*
X45278Y-42571D01*
X45390Y-42571D01*
X45447Y-42599D01*
X45475Y-42656D01*
X45475Y-42712D01*
X45194Y-42768D01*
X45728Y-42571D02*
X45728Y-42965D01*
X45728Y-42627D02*
X45756Y-42599D01*
X45812Y-42571D01*
X45897Y-42571D01*
X45953Y-42599D01*
X45981Y-42656D01*
X45981Y-42965D01*
X46234Y-42937D02*
X46290Y-42965D01*
X46403Y-42965D01*
X46459Y-42937D01*
X46487Y-42881D01*
X46487Y-42852D01*
X46459Y-42796D01*
X46403Y-42768D01*
X46318Y-42768D01*
X46262Y-42740D01*
X46234Y-42684D01*
X46234Y-42656D01*
X46262Y-42599D01*
X46318Y-42571D01*
X46403Y-42571D01*
X46459Y-42599D01*
X46965Y-42937D02*
X46909Y-42965D01*
X46796Y-42965D01*
X46740Y-42937D01*
X46712Y-42881D01*
X46712Y-42656D01*
X46740Y-42599D01*
X46796Y-42571D01*
X46909Y-42571D01*
X46965Y-42599D01*
X46993Y-42656D01*
X46993Y-42712D01*
X46712Y-42768D01*
X47500Y-42965D02*
X47500Y-42374D01*
X47500Y-42937D02*
X47443Y-42965D01*
X47331Y-42965D01*
X47275Y-42937D01*
X47246Y-42909D01*
X47218Y-42852D01*
X47218Y-42684D01*
X47246Y-42627D01*
X47275Y-42599D01*
X47331Y-42571D01*
X47443Y-42571D01*
X47500Y-42599D01*
X48484Y-42571D02*
X48484Y-42965D01*
X48231Y-42571D02*
X48231Y-42881D01*
X48259Y-42937D01*
X48315Y-42965D01*
X48399Y-42965D01*
X48456Y-42937D01*
X48484Y-42909D01*
X48765Y-42571D02*
X48765Y-42965D01*
X48765Y-42627D02*
X48793Y-42599D01*
X48849Y-42571D01*
X48934Y-42571D01*
X48990Y-42599D01*
X49018Y-42656D01*
X49018Y-42965D01*
X49552Y-42965D02*
X49552Y-42374D01*
X49552Y-42937D02*
X49496Y-42965D01*
X49384Y-42965D01*
X49327Y-42937D01*
X49299Y-42909D01*
X49271Y-42852D01*
X49271Y-42684D01*
X49299Y-42627D01*
X49327Y-42599D01*
X49384Y-42571D01*
X49496Y-42571D01*
X49552Y-42599D01*
X50059Y-42937D02*
X50002Y-42965D01*
X49890Y-42965D01*
X49834Y-42937D01*
X49805Y-42881D01*
X49805Y-42656D01*
X49834Y-42599D01*
X49890Y-42571D01*
X50002Y-42571D01*
X50059Y-42599D01*
X50087Y-42656D01*
X50087Y-42712D01*
X49805Y-42768D01*
X50340Y-42965D02*
X50340Y-42571D01*
X50340Y-42684D02*
X50368Y-42627D01*
X50396Y-42599D01*
X50452Y-42571D01*
X50508Y-42571D01*
X51493Y-42909D02*
X51465Y-42937D01*
X51380Y-42965D01*
X51324Y-42965D01*
X51240Y-42937D01*
X51183Y-42881D01*
X51155Y-42824D01*
X51127Y-42712D01*
X51127Y-42627D01*
X51155Y-42515D01*
X51183Y-42459D01*
X51240Y-42402D01*
X51324Y-42374D01*
X51380Y-42374D01*
X51465Y-42402D01*
X51493Y-42431D01*
X51746Y-42656D02*
X51943Y-42656D01*
X52027Y-42965D02*
X51746Y-42965D01*
X51746Y-42374D01*
X52027Y-42374D01*
X52618Y-42965D02*
X52421Y-42684D01*
X52280Y-42965D02*
X52280Y-42374D01*
X52505Y-42374D01*
X52561Y-42402D01*
X52589Y-42431D01*
X52618Y-42487D01*
X52618Y-42571D01*
X52589Y-42627D01*
X52561Y-42656D01*
X52505Y-42684D01*
X52280Y-42684D01*
X52871Y-42965D02*
X52871Y-42374D01*
X53208Y-42965D01*
X53208Y-42374D01*
X54052Y-42374D02*
X54164Y-42374D01*
X54221Y-42402D01*
X54277Y-42459D01*
X54305Y-42571D01*
X54305Y-42768D01*
X54277Y-42881D01*
X54221Y-42937D01*
X54164Y-42965D01*
X54052Y-42965D01*
X53996Y-42937D01*
X53939Y-42881D01*
X53911Y-42768D01*
X53911Y-42571D01*
X53939Y-42459D01*
X53996Y-42402D01*
X54052Y-42374D01*
X54558Y-42965D02*
X54558Y-42374D01*
X54558Y-42656D02*
X54895Y-42656D01*
X54895Y-42965D02*
X54895Y-42374D01*
X55458Y-42965D02*
X55177Y-42965D01*
X55177Y-42374D01*
X56020Y-42374D02*
X56217Y-42965D01*
X56414Y-42374D01*
X56920Y-42965D02*
X56583Y-42965D01*
X56751Y-42965D02*
X56751Y-42374D01*
X56695Y-42459D01*
X56639Y-42515D01*
X56583Y-42543D01*
X57173Y-42909D02*
X57201Y-42937D01*
X57173Y-42965D01*
X57145Y-42937D01*
X57173Y-42909D01*
X57173Y-42965D01*
X57426Y-42431D02*
X57455Y-42402D01*
X57511Y-42374D01*
X57651Y-42374D01*
X57708Y-42402D01*
X57736Y-42431D01*
X57764Y-42487D01*
X57764Y-42543D01*
X57736Y-42627D01*
X57398Y-42965D01*
X57764Y-42965D01*
G54D12*
X42173Y-51606D02*
X42173Y-49370D01*
X42173Y-49370D02*
X37401Y-49370D01*
X37401Y-49370D02*
X37401Y-42952D01*
X37401Y-42952D02*
X42173Y-42952D01*
X42173Y-42952D02*
X42173Y-36259D01*
X42173Y-36259D02*
X37401Y-36259D01*
X37401Y-36259D02*
X37401Y-29822D01*
X37401Y-29822D02*
X42173Y-29822D01*
X42173Y-29822D02*
X42173Y-27590D01*
X42173Y-27590D02*
G75*
G02X42685Y-27078I511J0D01*
G74*
G01*
X45716Y-52511D02*
X45716Y-53574D01*
X42685Y-52118D02*
X45322Y-52118D01*
X67645Y-27078D02*
X42685Y-27078D01*
X68157Y-34677D02*
X68157Y-27590D01*
X59889Y-35188D02*
X67645Y-35188D01*
X59496Y-49913D02*
X59496Y-35582D01*
X64102Y-50307D02*
X59889Y-50307D01*
X64614Y-53574D02*
X64614Y-50818D01*
X46228Y-54086D02*
X64102Y-54086D01*
X45322Y-52118D02*
G75*
G02X45716Y-52511I0J-393D01*
G74*
G01*
X42685Y-52118D02*
G75*
G02X42173Y-51606I0J511D01*
G74*
G01*
X67645Y-27078D02*
G75*
G02X68157Y-27590I0J-511D01*
G74*
G01*
X68157Y-34678D02*
G75*
G02X67645Y-35188I-511J0D01*
G74*
G01*
X59496Y-35581D02*
G75*
G02X59889Y-35188I393J0D01*
G74*
G01*
X59889Y-50307D02*
G75*
G02X59496Y-49913I0J393D01*
G74*
G01*
X64103Y-50307D02*
G75*
G02X64614Y-50818I0J-511D01*
G74*
G01*
X64614Y-53575D02*
G75*
G02X64102Y-54086I-511J0D01*
G74*
G01*
X46227Y-54086D02*
G75*
G02X45716Y-53574I0J511D01*
G74*
G01*
G54D10*
X44338Y-50937D02*
G75*
G03X44338Y-50937I-984J0D01*
G74*
G01*
X64417Y-52393D02*
G75*
G03X64417Y-52393I-984J0D01*
G74*
G01*
X44338Y-28259D02*
G75*
G03X44338Y-28259I-984J0D01*
G74*
G01*
X67960Y-33377D02*
G75*
G03X67960Y-33377I-984J0D01*
G74*
G01*
G54D13*
X43405Y-44290D02*
X43683Y-44290D01*
X43683Y-44290D02*
X43683Y-43740D01*
X43683Y-43740D02*
X43405Y-43740D01*
X42733Y-44290D02*
X43011Y-44290D01*
X42733Y-44290D02*
X42733Y-43740D01*
X42733Y-43740D02*
X43011Y-43740D01*
X42952Y-47992D02*
X42674Y-47992D01*
X42674Y-47992D02*
X42674Y-48542D01*
X42674Y-48542D02*
X42952Y-48542D01*
X43624Y-47992D02*
X43346Y-47992D01*
X43624Y-47992D02*
X43624Y-48542D01*
X43624Y-48542D02*
X43346Y-48542D01*
G54D14*
X39387Y-48875D02*
X40887Y-48875D01*
G54D15*
X40844Y-47855D02*
G75*
G03X40844Y-47855I-707J0D01*
G74*
G01*
G54D16*
X40888Y-48855D02*
G75*
G03X39387Y-48855I-750J999D01*
G74*
G01*
G54D17*
X40587Y-47855D02*
G75*
G03X40137Y-47405I-450J0D01*
G74*
G01*
X39687Y-47855D02*
G75*
G03X40137Y-48305I450J0D01*
G74*
G01*
X40787Y-47855D02*
G75*
G03X40137Y-47205I-650J0D01*
G74*
G01*
X39487Y-47855D02*
G75*
G03X40137Y-48505I650J0D01*
G74*
G01*
X40987Y-47855D02*
G75*
G03X40137Y-47005I-850J0D01*
G74*
G01*
X39287Y-47855D02*
G75*
G03X40137Y-48705I850J0D01*
G74*
G01*
G54D14*
X39387Y-45686D02*
X40887Y-45686D01*
G54D15*
X40844Y-44666D02*
G75*
G03X40844Y-44666I-707J0D01*
G74*
G01*
G54D16*
X40888Y-45666D02*
G75*
G03X39387Y-45666I-750J999D01*
G74*
G01*
G54D17*
X40587Y-44666D02*
G75*
G03X40137Y-44216I-450J0D01*
G74*
G01*
X39687Y-44666D02*
G75*
G03X40137Y-45116I450J0D01*
G74*
G01*
X40787Y-44666D02*
G75*
G03X40137Y-44016I-650J0D01*
G74*
G01*
X39487Y-44666D02*
G75*
G03X40137Y-45316I650J0D01*
G74*
G01*
X40987Y-44666D02*
G75*
G03X40137Y-43816I-850J0D01*
G74*
G01*
X39287Y-44666D02*
G75*
G03X40137Y-45516I850J0D01*
G74*
G01*
G54D13*
X42640Y-34907D02*
X43540Y-34907D01*
X43540Y-34907D02*
X43540Y-35407D01*
X43540Y-35407D02*
X42640Y-35407D01*
X42640Y-35407D02*
X42640Y-34907D01*
G54D14*
X41196Y-31472D02*
X41196Y-34472D01*
X39196Y-34472D02*
X39196Y-31472D01*
X39196Y-31472D02*
X41196Y-31472D01*
X41196Y-34472D02*
X39196Y-34472D01*
G54D10*
X67519Y-29055D02*
G75*
G03X67519Y-29055I-1377J0D01*
G74*
G01*
X48228Y-28858D02*
G75*
G03X48228Y-28858I-1377J0D01*
G74*
G01*
X56456Y-45472D02*
G75*
G03X56456Y-45472I-1377J0D01*
G74*
G01*
X47322Y-49921D02*
G75*
G03X47322Y-49921I-1377J0D01*
G74*
G01*
X43063Y-52710D02*
X43063Y-52316D01*
X43213Y-52316D01*
X43251Y-52335D01*
X43269Y-52354D01*
X43288Y-52391D01*
X43288Y-52448D01*
X43269Y-52485D01*
X43251Y-52504D01*
X43213Y-52523D01*
X43063Y-52523D01*
X43513Y-52485D02*
X43476Y-52466D01*
X43457Y-52448D01*
X43438Y-52410D01*
X43438Y-52391D01*
X43457Y-52354D01*
X43476Y-52335D01*
X43513Y-52316D01*
X43588Y-52316D01*
X43626Y-52335D01*
X43644Y-52354D01*
X43663Y-52391D01*
X43663Y-52410D01*
X43644Y-52448D01*
X43626Y-52466D01*
X43588Y-52485D01*
X43513Y-52485D01*
X43476Y-52504D01*
X43457Y-52523D01*
X43438Y-52560D01*
X43438Y-52635D01*
X43457Y-52673D01*
X43476Y-52691D01*
X43513Y-52710D01*
X43588Y-52710D01*
X43626Y-52691D01*
X43644Y-52673D01*
X43663Y-52635D01*
X43663Y-52560D01*
X43644Y-52523D01*
X43626Y-52504D01*
X43588Y-52485D01*
X63142Y-54167D02*
X63142Y-53773D01*
X63292Y-53773D01*
X63329Y-53792D01*
X63348Y-53811D01*
X63367Y-53848D01*
X63367Y-53904D01*
X63348Y-53942D01*
X63329Y-53961D01*
X63292Y-53979D01*
X63142Y-53979D01*
X63498Y-53773D02*
X63761Y-53773D01*
X63592Y-54167D01*
X43063Y-30033D02*
X43063Y-29639D01*
X43213Y-29639D01*
X43251Y-29658D01*
X43269Y-29677D01*
X43288Y-29714D01*
X43288Y-29770D01*
X43269Y-29808D01*
X43251Y-29827D01*
X43213Y-29845D01*
X43063Y-29845D01*
X43626Y-29639D02*
X43551Y-29639D01*
X43513Y-29658D01*
X43494Y-29677D01*
X43457Y-29733D01*
X43438Y-29808D01*
X43438Y-29958D01*
X43457Y-29995D01*
X43476Y-30014D01*
X43513Y-30033D01*
X43588Y-30033D01*
X43626Y-30014D01*
X43644Y-29995D01*
X43663Y-29958D01*
X43663Y-29864D01*
X43644Y-29827D01*
X43626Y-29808D01*
X43588Y-29789D01*
X43513Y-29789D01*
X43476Y-29808D01*
X43457Y-29827D01*
X43438Y-29864D01*
X66685Y-35151D02*
X66685Y-34757D01*
X66835Y-34757D01*
X66873Y-34776D01*
X66892Y-34795D01*
X66910Y-34832D01*
X66910Y-34889D01*
X66892Y-34926D01*
X66873Y-34945D01*
X66835Y-34964D01*
X66685Y-34964D01*
X67266Y-34757D02*
X67079Y-34757D01*
X67060Y-34945D01*
X67079Y-34926D01*
X67116Y-34907D01*
X67210Y-34907D01*
X67248Y-34926D01*
X67266Y-34945D01*
X67285Y-34982D01*
X67285Y-35076D01*
X67266Y-35113D01*
X67248Y-35132D01*
X67210Y-35151D01*
X67116Y-35151D01*
X67079Y-35132D01*
X67060Y-35113D01*
G54D18*
X43263Y-44070D02*
X43169Y-44130D01*
X43263Y-44173D02*
X43066Y-44173D01*
X43066Y-44105D01*
X43075Y-44087D01*
X43085Y-44079D01*
X43103Y-44070D01*
X43132Y-44070D01*
X43150Y-44079D01*
X43160Y-44087D01*
X43169Y-44105D01*
X43169Y-44173D01*
X43263Y-43899D02*
X43263Y-44002D01*
X43263Y-43950D02*
X43066Y-43950D01*
X43094Y-43967D01*
X43113Y-43985D01*
X43122Y-44002D01*
X43254Y-48272D02*
X43160Y-48332D01*
X43254Y-48375D02*
X43057Y-48375D01*
X43057Y-48307D01*
X43066Y-48289D01*
X43076Y-48281D01*
X43094Y-48272D01*
X43123Y-48272D01*
X43141Y-48281D01*
X43151Y-48289D01*
X43160Y-48307D01*
X43160Y-48375D01*
X43076Y-48204D02*
X43066Y-48195D01*
X43057Y-48178D01*
X43057Y-48135D01*
X43066Y-48118D01*
X43076Y-48109D01*
X43094Y-48101D01*
X43113Y-48101D01*
X43141Y-48109D01*
X43254Y-48212D01*
X43254Y-48101D01*
G54D19*
X41759Y-47977D02*
X41459Y-47977D01*
X41459Y-47905D01*
X41473Y-47863D01*
X41502Y-47834D01*
X41530Y-47820D01*
X41587Y-47805D01*
X41630Y-47805D01*
X41687Y-47820D01*
X41716Y-47834D01*
X41744Y-47863D01*
X41759Y-47905D01*
X41759Y-47977D01*
X41487Y-47691D02*
X41473Y-47677D01*
X41459Y-47648D01*
X41459Y-47577D01*
X41473Y-47548D01*
X41487Y-47534D01*
X41516Y-47520D01*
X41544Y-47520D01*
X41587Y-47534D01*
X41759Y-47705D01*
X41759Y-47520D01*
X41759Y-44788D02*
X41459Y-44788D01*
X41459Y-44716D01*
X41473Y-44674D01*
X41502Y-44645D01*
X41530Y-44631D01*
X41587Y-44616D01*
X41630Y-44616D01*
X41687Y-44631D01*
X41716Y-44645D01*
X41744Y-44674D01*
X41759Y-44716D01*
X41759Y-44788D01*
X41759Y-44331D02*
X41759Y-44502D01*
X41759Y-44416D02*
X41459Y-44416D01*
X41502Y-44445D01*
X41530Y-44474D01*
X41544Y-44502D01*
G54D18*
X43060Y-35219D02*
X43051Y-35228D01*
X43026Y-35238D01*
X43009Y-35238D01*
X42983Y-35228D01*
X42966Y-35209D01*
X42957Y-35190D01*
X42949Y-35152D01*
X42949Y-35124D01*
X42957Y-35086D01*
X42966Y-35067D01*
X42983Y-35047D01*
X43009Y-35038D01*
X43026Y-35038D01*
X43051Y-35047D01*
X43060Y-35057D01*
X43231Y-35238D02*
X43129Y-35238D01*
X43180Y-35238D02*
X43180Y-35038D01*
X43163Y-35067D01*
X43146Y-35086D01*
X43129Y-35095D01*
G54D14*
X38820Y-33458D02*
X38839Y-33477D01*
X38858Y-33534D01*
X38858Y-33572D01*
X38839Y-33629D01*
X38801Y-33667D01*
X38763Y-33686D01*
X38687Y-33705D01*
X38630Y-33705D01*
X38553Y-33686D01*
X38515Y-33667D01*
X38477Y-33629D01*
X38458Y-33572D01*
X38458Y-33534D01*
X38477Y-33477D01*
X38496Y-33458D01*
X38458Y-33210D02*
X38458Y-33134D01*
X38477Y-33096D01*
X38515Y-33058D01*
X38592Y-33039D01*
X38725Y-33039D01*
X38801Y-33058D01*
X38839Y-33096D01*
X38858Y-33134D01*
X38858Y-33210D01*
X38839Y-33248D01*
X38801Y-33286D01*
X38725Y-33305D01*
X38592Y-33305D01*
X38515Y-33286D01*
X38477Y-33248D01*
X38458Y-33210D01*
X38858Y-32867D02*
X38458Y-32867D01*
X38858Y-32639D01*
X38458Y-32639D01*
X38858Y-32239D02*
X38858Y-32467D01*
X38858Y-32353D02*
X38458Y-32353D01*
X38515Y-32391D01*
X38553Y-32429D01*
X38573Y-32467D01*
G54D10*
X66638Y-31182D02*
X66638Y-30789D01*
X66788Y-30789D01*
X66826Y-30808D01*
X66844Y-30826D01*
X66863Y-30864D01*
X66863Y-30920D01*
X66844Y-30958D01*
X66826Y-30976D01*
X66788Y-30995D01*
X66638Y-30995D01*
X67050Y-31182D02*
X67125Y-31182D01*
X67163Y-31164D01*
X67182Y-31145D01*
X67219Y-31089D01*
X67238Y-31014D01*
X67238Y-30864D01*
X67219Y-30826D01*
X67200Y-30808D01*
X67163Y-30789D01*
X67088Y-30789D01*
X67050Y-30808D01*
X67032Y-30826D01*
X67013Y-30864D01*
X67013Y-30958D01*
X67032Y-30995D01*
X67050Y-31014D01*
X67088Y-31032D01*
X67163Y-31032D01*
X67200Y-31014D01*
X67219Y-30995D01*
X67238Y-30958D01*
X47159Y-30986D02*
X47159Y-30592D01*
X47309Y-30592D01*
X47347Y-30611D01*
X47365Y-30629D01*
X47384Y-30667D01*
X47384Y-30723D01*
X47365Y-30761D01*
X47347Y-30779D01*
X47309Y-30798D01*
X47159Y-30798D01*
X47759Y-30986D02*
X47534Y-30986D01*
X47647Y-30986D02*
X47647Y-30592D01*
X47609Y-30648D01*
X47572Y-30686D01*
X47534Y-30704D01*
X48003Y-30592D02*
X48040Y-30592D01*
X48078Y-30611D01*
X48097Y-30629D01*
X48115Y-30667D01*
X48134Y-30742D01*
X48134Y-30836D01*
X48115Y-30911D01*
X48097Y-30948D01*
X48078Y-30967D01*
X48040Y-30986D01*
X48003Y-30986D01*
X47965Y-30967D01*
X47947Y-30948D01*
X47928Y-30911D01*
X47909Y-30836D01*
X47909Y-30742D01*
X47928Y-30667D01*
X47947Y-30629D01*
X47965Y-30611D01*
X48003Y-30592D01*
X55388Y-47600D02*
X55388Y-47206D01*
X55538Y-47206D01*
X55575Y-47225D01*
X55594Y-47244D01*
X55613Y-47281D01*
X55613Y-47337D01*
X55594Y-47375D01*
X55575Y-47394D01*
X55538Y-47412D01*
X55388Y-47412D01*
X55988Y-47600D02*
X55763Y-47600D01*
X55875Y-47600D02*
X55875Y-47206D01*
X55838Y-47262D01*
X55800Y-47300D01*
X55763Y-47319D01*
X56362Y-47600D02*
X56137Y-47600D01*
X56250Y-47600D02*
X56250Y-47206D01*
X56212Y-47262D01*
X56175Y-47300D01*
X56137Y-47319D01*
X46254Y-52049D02*
X46254Y-51655D01*
X46404Y-51655D01*
X46441Y-51674D01*
X46460Y-51692D01*
X46479Y-51730D01*
X46479Y-51786D01*
X46460Y-51824D01*
X46441Y-51842D01*
X46404Y-51861D01*
X46254Y-51861D01*
X46854Y-52049D02*
X46629Y-52049D01*
X46741Y-52049D02*
X46741Y-51655D01*
X46704Y-51711D01*
X46666Y-51749D01*
X46629Y-51767D01*
X47004Y-51692D02*
X47022Y-51674D01*
X47060Y-51655D01*
X47154Y-51655D01*
X47191Y-51674D01*
X47210Y-51692D01*
X47229Y-51730D01*
X47229Y-51767D01*
X47210Y-51824D01*
X46985Y-52049D01*
X47229Y-52049D01*
M02*
