G04 (created by PCBNEW (2013-07-07 BZR 4022)-stable) date 28/02/2015 20:38:53*
%MOIN*%
G04 Gerber Fmt 3.4, Leading zero omitted, Abs format*
%FSLAX34Y34*%
G01*
G70*
G90*
G04 APERTURE LIST*
%ADD10C,0.00590551*%
%ADD11C,0.000393701*%
G04 APERTURE END LIST*
G54D10*
G54D11*
X42173Y-51606D02*
X42173Y-49370D01*
X42173Y-49370D02*
X37401Y-49370D01*
X37401Y-49370D02*
X37401Y-42952D01*
X37401Y-42952D02*
X42173Y-42952D01*
X42173Y-42952D02*
X42173Y-36259D01*
X42173Y-36259D02*
X37401Y-36259D01*
X37401Y-36259D02*
X37401Y-29822D01*
X37401Y-29822D02*
X42173Y-29822D01*
X42173Y-29822D02*
X42173Y-27590D01*
X42173Y-27590D02*
G75*
G02X42685Y-27078I511J0D01*
G74*
G01*
X45716Y-52511D02*
X45716Y-53574D01*
X42685Y-52118D02*
X45322Y-52118D01*
X67645Y-27078D02*
X42685Y-27078D01*
X68157Y-34677D02*
X68157Y-27590D01*
X59889Y-35188D02*
X67645Y-35188D01*
X59496Y-49913D02*
X59496Y-35582D01*
X64102Y-50307D02*
X59889Y-50307D01*
X64614Y-53574D02*
X64614Y-50818D01*
X46228Y-54086D02*
X64102Y-54086D01*
X45322Y-52118D02*
G75*
G02X45716Y-52511I0J-393D01*
G74*
G01*
X42685Y-52118D02*
G75*
G02X42173Y-51606I0J511D01*
G74*
G01*
X67645Y-27078D02*
G75*
G02X68157Y-27590I0J-511D01*
G74*
G01*
X68157Y-34678D02*
G75*
G02X67645Y-35188I-511J0D01*
G74*
G01*
X59496Y-35581D02*
G75*
G02X59889Y-35188I393J0D01*
G74*
G01*
X59889Y-50307D02*
G75*
G02X59496Y-49913I0J393D01*
G74*
G01*
X64103Y-50307D02*
G75*
G02X64614Y-50818I0J-511D01*
G74*
G01*
X64614Y-53575D02*
G75*
G02X64102Y-54086I-511J0D01*
G74*
G01*
X46227Y-54086D02*
G75*
G02X45716Y-53574I0J511D01*
G74*
G01*
G54D10*
X62236Y-51877D02*
X53968Y-51877D01*
X53968Y-51877D02*
X53968Y-52862D01*
X53968Y-52862D02*
X62236Y-52862D01*
X62236Y-52862D02*
X62236Y-51877D01*
X65820Y-32877D02*
X55584Y-32877D01*
X55584Y-32877D02*
X55584Y-33862D01*
X55584Y-33862D02*
X65820Y-33862D01*
X65820Y-33862D02*
X65820Y-32877D01*
X53251Y-51877D02*
X46952Y-51877D01*
X46952Y-51877D02*
X46952Y-52862D01*
X46952Y-52862D02*
X53251Y-52862D01*
X53251Y-52862D02*
X53251Y-51877D01*
X55236Y-32877D02*
X46968Y-32877D01*
X46968Y-32877D02*
X46968Y-33862D01*
X46968Y-33862D02*
X55236Y-33862D01*
X55236Y-33862D02*
X55236Y-32877D01*
X58334Y-54170D02*
X58334Y-53855D01*
X58214Y-53855D01*
X58184Y-53870D01*
X58169Y-53885D01*
X58154Y-53915D01*
X58154Y-53960D01*
X58169Y-53990D01*
X58184Y-54005D01*
X58214Y-54020D01*
X58334Y-54020D01*
X57854Y-54170D02*
X58034Y-54170D01*
X57944Y-54170D02*
X57944Y-53855D01*
X57974Y-53900D01*
X58004Y-53930D01*
X58034Y-53945D01*
X60934Y-35170D02*
X60934Y-34855D01*
X60814Y-34855D01*
X60784Y-34870D01*
X60769Y-34885D01*
X60754Y-34915D01*
X60754Y-34960D01*
X60769Y-34990D01*
X60784Y-35005D01*
X60814Y-35020D01*
X60934Y-35020D01*
X60649Y-34855D02*
X60454Y-34855D01*
X60559Y-34975D01*
X60514Y-34975D01*
X60484Y-34990D01*
X60469Y-35005D01*
X60454Y-35035D01*
X60454Y-35110D01*
X60469Y-35140D01*
X60484Y-35155D01*
X60514Y-35170D01*
X60604Y-35170D01*
X60634Y-35155D01*
X60649Y-35140D01*
X50334Y-54170D02*
X50334Y-53855D01*
X50214Y-53855D01*
X50184Y-53870D01*
X50169Y-53885D01*
X50154Y-53915D01*
X50154Y-53960D01*
X50169Y-53990D01*
X50184Y-54005D01*
X50214Y-54020D01*
X50334Y-54020D01*
X50034Y-53885D02*
X50019Y-53870D01*
X49989Y-53855D01*
X49914Y-53855D01*
X49884Y-53870D01*
X49869Y-53885D01*
X49854Y-53915D01*
X49854Y-53945D01*
X49869Y-53990D01*
X50049Y-54170D01*
X49854Y-54170D01*
X51334Y-35170D02*
X51334Y-34855D01*
X51214Y-34855D01*
X51184Y-34870D01*
X51169Y-34885D01*
X51154Y-34915D01*
X51154Y-34960D01*
X51169Y-34990D01*
X51184Y-35005D01*
X51214Y-35020D01*
X51334Y-35020D01*
X50884Y-34960D02*
X50884Y-35170D01*
X50959Y-34840D02*
X51034Y-35065D01*
X50839Y-35065D01*
M02*
