<?xml version="1.0" encoding="UTF-8" standalone="no"?>
<!-- Created with Inkscape (http://www.inkscape.org/) -->

<svg
   xmlns:dc="http://purl.org/dc/elements/1.1/"
   xmlns:cc="http://creativecommons.org/ns#"
   xmlns:rdf="http://www.w3.org/1999/02/22-rdf-syntax-ns#"
   xmlns:svg="http://www.w3.org/2000/svg"
   xmlns="http://www.w3.org/2000/svg"
   xmlns:sodipodi="http://sodipodi.sourceforge.net/DTD/sodipodi-0.dtd"
   xmlns:inkscape="http://www.inkscape.org/namespaces/inkscape"
   width="372.04724"
   height="524.40942"
   id="svg4414"
   version="1.1"
   inkscape:version="0.48.1 "
   sodipodi:docname="New document 5">
  <defs
     id="defs3" />
  <sodipodi:namedview
     inkscape:document-units="mm"
     id="base"
     pagecolor="#ffffff"
     bordercolor="#666666"
     borderopacity="1.0"
     inkscape:pageopacity="0.0"
     inkscape:pageshadow="2"
     inkscape:zoom="1.11888"
     inkscape:cx="309.03689"
     inkscape:cy="270.20045"
     inkscape:current-layer="layer1"
     showgrid="false"
     units="mm"
     inkscape:window-width="1280"
     inkscape:window-height="977"
     inkscape:window-x="-4"
     inkscape:window-y="-4"
     inkscape:window-maximized="1" />
  <metadata
     id="metadata4">
    <rdf:RDF>
      <cc:Work
         rdf:about="">
        <dc:format>image/svg+xml</dc:format>
        <dc:type
           rdf:resource="http://purl.org/dc/dcmitype/StillImage" />
        <dc:title></dc:title>
      </cc:Work>
    </rdf:RDF>
  </metadata>
  <g
     inkscape:label="Layer 1"
     inkscape:groupmode="layer"
     id="layer1"
     transform="translate(0,-527.95272)">
    <rect
       y="645.75964"
       x="63.105839"
       height="42.554008"
       width="47.836582"
       id="rect4295"
       style="opacity:0.5;color:#000000;fill:none;stroke:#000000;stroke-width:0.35433072;stroke-linecap:butt;stroke-linejoin:miter;stroke-miterlimit:4;stroke-opacity:1;stroke-dasharray:4.2519685, 4.2519685;stroke-dashoffset:0;marker:none;visibility:visible;display:inline;overflow:visible;enable-background:accumulate" />
    <rect
       ry="8.8582678"
       rx="8.8582678"
       y="579.1405"
       x="32.987797"
       height="191.33858"
       width="304.7244"
       id="rect3449"
       style="color:#000000;fill:none;stroke:#000000;stroke-width:0.35433072;stroke-miterlimit:4;stroke-opacity:1;stroke-dasharray:4.2519685, 4.2519685;stroke-dashoffset:0;marker:none;visibility:visible;display:inline;overflow:visible;enable-background:accumulate" />
    <g
       transform="matrix(1.25,0,0,-1.25,597.53906,992.32133)"
       id="g3451">
      <path
         inkscape:connector-curvature="0"
         style="color:#000000;fill:#000000;fill-opacity:1;stroke:none;stroke-width:0.99921262;marker:none;visibility:visible;display:inline;overflow:visible;enable-background:accumulate"
         clip-path="none"
         d="m -284.98691,141.70833 c 1.3732,-1.47948 2.92172,-2.80641 4.675,-3.975 2.13096,-1.42032 4.39839,-2.49731 6.725,-3.225 l 7.925,-31 c 8.50053,4.25572 17.8388,6.30412 27.075,5.925 l -8.175,32.05 c 0.069,0.0726 0.13173,0.15149 0.2,0.225 l -38.425,0 z"
         id="path3453" />
      <path
         style="font-size:medium;font-style:normal;font-variant:normal;font-weight:normal;font-stretch:normal;text-indent:0;text-align:start;text-decoration:none;line-height:normal;letter-spacing:normal;word-spacing:normal;text-transform:none;direction:ltr;block-progression:tb;writing-mode:lr-tb;text-anchor:start;baseline-shift:baseline;color:#000000;fill:#000000;fill-opacity:1;stroke:none;stroke-width:1.80817604;marker:none;visibility:visible;display:inline;overflow:visible;enable-background:accumulate;font-family:Sans;-inkscape-font-specification:Sans"
         d="m -366.21191,141.08333 c -35.65939,0 -66.9808,-18.69079 -84.7,-46.800002 l 0,-7.925 c 16.17706,30.193552 48.03128,50.725002 84.7,50.725002 41.22597,0 60.96361,-17.27734 81.58514,-46.733592 1.47946,2.24659 6.12869,6.65422 9.62109,8.32812 -29.85895,34.882202 -59.09116,42.405472 -91.20623,42.405472 z m 85.65,-143.4750018 c -1.57276,-3.0968 -3.31284,-6.08325 -5.2,-8.9750002 l 4.725,0 c 1.47262,2.3866002 2.85276,4.8360502 4.125,7.3500002 -1.23902,0.5042 -2.4528,1.04971 -3.65,1.625 z m -170.35,-1.85 0,-0.05 c 0,-2.67881 1.46791,-4.99476 3.65,-6.2000002 -1.29121,2.0270202 -2.51053,4.1232302 -3.65,6.2500002 z"
         id="path3455"
         inkscape:connector-curvature="0"
         sodipodi:nodetypes="sccsccsccccccscc" />
      <path
         style="font-size:medium;font-style:normal;font-variant:normal;font-weight:normal;font-stretch:normal;text-indent:0;text-align:start;text-decoration:none;line-height:normal;letter-spacing:normal;word-spacing:normal;text-transform:none;direction:ltr;block-progression:tb;writing-mode:lr-tb;text-anchor:start;baseline-shift:baseline;color:#000000;fill:#000000;fill-opacity:1;stroke:none;stroke-width:4.87288141;marker:none;visibility:visible;display:inline;overflow:visible;enable-background:accumulate;font-family:Sans;-inkscape-font-specification:Sans"
         d="m -366.21191,79.433328 c -21.16966,0 -38.375,-17.20534 -38.375,-38.374999 0,-21.169661 17.20534,-38.3750008 38.375,-38.3750008 13.3086,0 25.0646,6.78993 31.95,17.0999998 -4.40976,-5.059 -12.89164,-8.36683 -19.13085,-8.41367 -6.74853,-2.4149798 -13.14179,-2.4352798 -20.1211,-1.30783 -10.15053,1.63975 -25.65625,11.9886 -25.65625,30.996501 0,19.007899 13.95031,34.374999 32.9582,34.374999 4.08301,0 7.99427,-0.72318 11.625,-2.025 0.13332,0.002 0.26627,0 0.4,0 4.2615,0 8.3158,-0.87231 12,-2.45 -6.58006,5.29637 -14.93494,8.475 -24.025,8.475 z"
         id="path3457"
         inkscape:connector-curvature="0"
         sodipodi:nodetypes="sssccssscscs" />
      <g
         style="fill:#000000"
         id="g3459"
         transform="matrix(0.49511083,-0.33000135,0.33000135,0.49511083,-296.94979,37.368579)">
        <path
           inkscape:connector-curvature="0"
           d="M 0,0 C -11.423,10.583 -20.307,24.179 -25.558,39.621 L -57.866,10.542 -26.86,-24.176 z"
           style="fill:#000000;fill-opacity:1;fill-rule:nonzero;stroke:none"
           id="path3461"
           sodipodi:nodetypes="ccccc" />
      </g>
      <path
         inkscape:connector-curvature="0"
         style="fill:#000000;fill-opacity:1;fill-rule:nonzero;stroke:none"
         mask="none"
         clip-path="none"
         d="m -211.58691,10.358328 c -7.59568,-6.1209098 -16.41153,-10.14394984 -25.55,-11.8249998 l 2.525,-9.9000002 20.4,0 c 3.28164,0 6.03674,2.2072802 6.85,5.2250002 l -4.225,16.4999998 z"
         id="path3463" />
      <path
         inkscape:connector-curvature="0"
         style="fill:#000000;fill-opacity:1;fill-rule:nonzero;stroke:none"
         mask="none"
         clip-path="none"
         d="m -240.51191,105.23333 c -16.96268,0.24938 -34.10532,-8.329502 -44.65,-24.150002 -9.8875,-14.83451 -11.66379,-32.56588 -6.275,-47.549999 -1.49721,-0.68535 -2.81957,-1.77903 -3.8,-3.25 -2.81096,-4.21736 -1.69335,-9.913391 2.525,-12.725001 3.31576,-2.21002 7.55129,-1.97427 10.575,0.275 0.7795,-0.87423 1.59904,-1.73041 2.45,-2.55 -0.53434,-3.42583 0.90036,-7.0006898 3.975,-9.0499998 3.07464,-2.04931 6.91907,-1.98679 9.875,-0.175 1.08344,-0.46972 2.19364,-0.89225 3.3,-1.275 -0.91206,-3.65673 0.48374,-7.66466 3.8,-9.875 4.21784,-2.81129 9.91404,-1.66735 12.725,2.55 0.98044,1.47097 1.46823,3.12885996 1.525,4.775 13.83448,0.68933 27.51559,7.18229 37.35,18.6249998 l 0,69.925 c -2.32738,2.42974 -4.94704,4.64011 -7.85,6.575 -7.80052,5.199202 -16.63979,7.744372 -25.525,7.875002 z m -23.8,-27.800002 c 2.81964,0.0176 5.67717,-0.76848 8.2,-2.45 6.72757,-4.48406 7.62209,-12.48847 4.85,-15.8 -1.05027,-1.25496 -2.05712,-2.44148 -3.725,-2.825 -1.46936,-0.33779 -3.03669,-0.1417 -4.5,0.125 -1.71003,0.31173 -3.37504,0.84421 -5.075,1.2 -2.30811,0.48297 -4.93187,0.62608 -7.225,-0.025 -0.62115,-0.17664 -1.24076,-0.42484 -1.8,-0.75 -0.47855,-0.27811 -0.9444,-0.59606 -1.35,-0.975 -0.35494,-0.33191 -0.68366,-0.72173 -1.15,-0.9 -1.40548,-0.53697 -2.32248,1.38767 -2.6,2.425 -0.61512,2.29561 -0.68848,4.84133 -0.275,7.175 0.1143,0.64674 0.28297,1.27288 0.475,1.9 0.46836,1.52769 1.18796,3.06914 2.075,4.4 2.80253,4.20473 7.4006,6.47073 12.1,6.5 z m 36.875,-24.175 c 2.44677,-0.0567 5.10216,-0.79347 7.625,-2.475 6.72856,-4.48471 8.55905,-13.572429 4.075,-20.299999 -0.88704,-1.33086 -2.02116,-2.57919 -3.25,-3.6 -0.50544,-0.41823 -1.04803,-0.81997 -1.6,-1.175 -1.99537,-1.27931 -4.34446,-2.184401 -6.7,-2.500001 -1.06424,-0.14303 -3.2048,-0.0539 -3.25,1.450001 -0.0159,0.4997 0.22974,0.97001 0.4,1.425 0.19319,0.52051 0.27744,1.05129 0.35,1.6 0.0849,0.6413 0.1002,1.33405 0.025,1.975 -0.28145,2.3671 -1.44008,4.72981 -2.775,6.675 -0.98255,1.43216 -2.07925,2.7666 -3.025,4.225 -0.81024,1.24866 -1.59636,2.6138 -1.85,4.099999 -0.2888,1.68769 0.42082,3.07269 1.175,4.525 1.24395,2.39537 4.72204,4.16948 8.8,4.075 z m -27.425,-13.949999 c 0.38583,0.009 0.721,-0.089 1,-0.275 2.23196,-1.48765 -0.15872,-8.99927 -4.125,-14.95 -3.96662,-5.951231 0.20696,4.23735 -2.025,5.725 -2.23196,1.48764 -10.01662,-6.301231 -6.05,-0.35 3.47051,5.20689 8.49919,9.7884 11.2,9.85 z"
         id="path3465" />
      <path
         inkscape:connector-curvature="0"
         style="color:#000000;fill:#000000;fill-opacity:1;stroke:none;stroke-width:0.99921262;marker:none;visibility:visible;display:inline;overflow:visible;enable-background:accumulate"
         d="m -367.98691,132.43333 -1.025,-0.8 3.125,-3.875 2.9,-0.325 10.25,-1.125 2.925,-0.325 3.875,3.1 -0.8,1 -5.525,0.6 -10.225,1.15 -5.5,0.6 z m -1.9,-1.525 -1,-0.8 -2.3,-20.9 2.15,-0.225 2.475,1.975 1.75,16.1 -3.075,3.85 z m 57.75,-18 0.025,-4.975 2.1,-2.075 7.275,-7.275002 2.1,-2.075 4.95,0.025 0,1.3 -3.925,3.900002 -7.325,7.25 -3.925,3.925 -1.275,0 z m -111.92501,-0.15 -3.9,-3.925 -7.27499,-7.3 -3.925,-3.925002 0,-1.275 4.95,0 2.09999,2.075 7.275,7.300002 2.075,2.075 0,4.975 -1.3,0 z m 56.27501,-2.525 -2.475,-1.975 1.975,-2.425 16.05,-1.775 2.45,1.95 -1.95,2.45 -16.05,1.775 z m -5.55,-2.225 -2.3,-20.900002 0.8,-1 3.85,3.1 1.775,16.100002 -1.95,2.45 -2.175,0.25 z m 24.3,-2.7 -2.45,-1.95 -1.775,-16.100002 3.1,-3.875 1,0.8 2.325,20.900002 -2.2,0.225 z m -55.55,-8.250002 -1.55,-1.55 0,-3.15 11.475,-11.45 4.95,0.025 0,1.275 -14.875,14.85 z m 108.925,-1.675 -4.95,-0.025 -11.425,-11.475 0.025,-3.15 1.525,-1.55 14.825,14.925 0,1.275 z m -114.625,-0.05 -11.40001,-11.45 0,-3.1 3.125,0 11.40001,11.425 0,3.125 -3.125,0 z m -28.875,-0.15 0,-1.3 14.89999,-14.85 1.525,1.55 0,3.175 -11.44999,11.425 -4.975,0 z m 68.925,-6.9 -3.875,-3.075 0.8,-1 5.5,-0.625 10.25,-1.125 5.475,-0.6 1.025,0.8 -3.1,3.875 -2.95,0.325 -10.225,1.1 -2.9,0.325 z m 54.2,-8.425 -11.4,-11.5 0,-4.95 1.275,0 14.825,14.925 -1.55,1.525 -3.15,0 z m -78.625,-0.1 -2.075,-2.075 -7.275,-7.3 -2.075,-2.1 0,-4.95 1.275,0 3.925,3.925 7.275,7.3 3.9,3.925 0,1.275 -4.95,0 z m -17.65,-25.45 -21.025,-0.025 0,-2.175 2.22499,-2.225 16.2,0.025 3.50001,3.5 -0.9,0.9 z m -22.25,-0.025 -16.35,-0.025 0,-4.4 14.125,0.025 2.225,2.225 0,2.175 z m 0.625,-3.025 -2.225,-2.2 0.025,-16.174999 2.225,-2.2 2.19999,2.225 -0.025,16.149999 -2.19999,2.2 z m -2.825,-19.199999 -14.15,-0.025 0,-4.425 16.375,0.025 0,2.2 -2.225,2.225 z m 26.2,-9.475001 -16.22501,-13.3749998 1.4,-1.675 3.125,-0.325 12.50001,10.3249998 0.475,4.925 -1.275,0.12496 z m 2.425,-0.225 -0.475,-4.925 1.875,-2.275 6.55,-7.9499998 1.875,-2.275 4.95,-0.475 0.125,1.275 -3.525,4.2749998 -6.575,7.95 -3.525,4.275 -1.275,0.125 z m -19.57501,-13.9250398 -16.22499,-13.375 -0.125,-1.3 4.925,-0.45 12.49999,10.3 0.3,3.15 -1.375,1.675 z m 95.72501,-0.25 -4.825,-1.125 0.275,-1.225 17.825,-11.15 1.175,1.85 0,0.025 -0.725,3.04999996 -13.725,8.57504004 z m -93.32501,-1.7 -0.3,-3.1 10.25,-12.475 3.12501,-0.275 0.3,3.075 -10.30001,12.475 -3.075,0.3 z m 63.10001,-7.825 -10.3,-0.025 -5.55,0 -0.9,-0.9 3.5,-3.5 2.95,0 10.3,0 2.95,0 3.5,3.525 -0.925,0.9 -5.525,0 z m 7.25,-1.725 -3.5,-3.5 0,-4.8000002 4.425,0 0,7.4000002 -0.925,0.9 z m 41.525,-0.325 -3.075,-0.725 -1.15,-1.85 8.675,-5.4000002 8.325,0 -12.775,7.9750002 z m -130.725,-4 -0.125,-1.25 2.225,-2.7250002 5.725,0 -1.025,1.25 -1.85,2.2750002 -4.95,0.45 z"
         id="path3467" />
      <g
         transform="matrix(-0.49511083,0.33000135,-0.33000135,-0.49511083,-378.12152,53.488558)"
         id="g3469"
         style="fill:#000000">
        <path
           id="path3471"
           style="fill:#000000;fill-opacity:1;fill-rule:nonzero;stroke:none"
           d="M 0,0 -28.336,-25.503 -59.023,9.5 -31.264,34.484 c -3.838,1.092 -7.884,1.689 -12.072,1.689 -24.332,0 -44.055,-19.724 -44.055,-44.054 0,-2.578 0.235,-5.1 0.659,-7.557 l -42.584,-38.329 c 13.045,-8.383 23.925,-20.183 31.543,-34.234 l 42.046,37.845 c 3.932,-1.152 8.086,-1.78 12.391,-1.78 24.33,0 44.053,19.724 44.053,44.055 C 0.717,-5.189 0.463,-2.559 0,0"
           inkscape:connector-curvature="0" />
      </g>
      <path
         sodipodi:type="arc"
         style="color:#000000;fill:#000000;fill-opacity:1;stroke:none;stroke-width:0.99921262;marker:none;visibility:visible;display:inline;overflow:visible;enable-background:accumulate"
         id="path3473"
         sodipodi:cx="220.78683"
         sodipodi:cy="863.94202"
         sodipodi:rx="44.311493"
         sodipodi:ry="44.311493"
         d="m 265.09833,863.94202 c 0,24.47256 -19.83893,44.31149 -44.3115,44.31149 -24.47256,0 -44.31149,-19.83893 -44.31149,-44.31149 0,-24.47257 19.83893,-44.3115 44.31149,-44.3115 24.47257,0 44.3115,19.83893 44.3115,44.3115 z"
         transform="matrix(0.25043474,0,0,-0.25043474,-421.50243,257.41108)"
         inkscape:transform-center-x="-1.7914777"
         inkscape:transform-center-y="-1.0527573" />
    </g>
    <path
       inkscape:connector-curvature="0"
       style="color:#000000;fill:#000000;fill-opacity:1;stroke:none;stroke-width:0.99921262;marker:none;visibility:visible;display:inline;overflow:visible;enable-background:accumulate"
       clip-path="none"
       d="m 241.3054,579.75985 c 1.7165,1.84935 3.6522,3.50801 5.8438,4.96875 2.6637,1.7754 5.4979,3.12164 8.4062,4.03125 l 9.9063,38.75 c 10.6256,-5.31965 22.29846,-7.88015 33.84371,-7.40625 l -10.21875,-40.0625 c 0.0862,-0.0907 0.16467,-0.18936 0.25,-0.28125 l -48.03126,0 z"
       id="path3475" />
    <path
       inkscape:connector-curvature="0"
       style="fill:#000000;fill-opacity:1;fill-rule:nonzero;stroke:none"
       mask="none"
       clip-path="none"
       d="m 333.05541,743.94735 c -9.4946,7.65114 -20.51441,12.67994 -31.9375,14.78125 l 3.15625,12.375 25.5,0 c 4.10205,0 7.54593,-2.7591 8.5625,-6.53125 l -5.28125,-20.625 z"
       id="path3477" />
    <path
       inkscape:connector-curvature="0"
       style="fill:#000000;fill-opacity:1;fill-rule:nonzero;stroke:none"
       mask="none"
       clip-path="none"
       d="m 296.89916,625.3536 c -21.20336,-0.31173 -42.63166,10.41187 -55.81246,30.1875 -12.3594,18.54314 -14.5798,40.70735 -7.8438,59.4375 -1.8715,0.85669 -3.5245,2.22379 -4.75,4.0625 -3.5137,5.2717 -2.1167,12.39174 3.1563,15.90625 4.1447,2.76253 9.4391,2.46784 13.2187,-0.34375 0.9744,1.09279 1.9988,2.16302 3.0625,3.1875 -0.6679,4.28229 1.1255,8.75087 4.9688,11.3125 3.8433,2.56164 8.6488,2.48349 12.3437,0.21875 1.3543,0.58715 2.7421,1.11532 4.125,1.59375 -1.1401,4.57092 0.6047,9.58083 4.75,12.34375 5.2723,3.51412 12.39256,2.08419 15.90626,-3.1875 1.22555,-1.83871 1.83529,-3.91107 1.90625,-5.96875 17.2931,-0.86166 34.39449,-8.97786 46.6875,-23.28125 l 0,-87.40625 c -2.90922,-3.03718 -6.1838,-5.80014 -9.8125,-8.21875 -9.75065,-6.499 -20.79973,-9.68046 -31.90625,-9.84375 z m -29.74996,34.75 c 3.5245,-0.022 7.0964,0.9606 10.25,3.0625 8.40943,5.60508 9.52758,15.61059 6.06246,19.75 -1.31283,1.5687 -2.5714,3.05185 -4.65626,3.53125 -1.8367,0.42224 -3.7959,0.17713 -5.625,-0.15625 -2.1375,-0.38966 -4.2188,-1.05526 -6.3437,-1.5 -2.8852,-0.60371 -6.1649,-0.7826 -9.0313,0.0312 -0.7764,0.2208 -1.5509,0.53105 -2.25,0.9375 -0.5982,0.34764 -1.1805,0.74508 -1.6875,1.21875 -0.4437,0.41489 -0.8546,0.90217 -1.4375,1.125 -1.7568,0.67122 -2.9031,-1.73458 -3.25,-3.03125 -0.7689,-2.86951 -0.8606,-6.05166 -0.3437,-8.96875 0.1428,-0.80842 0.3537,-1.5911 0.5937,-2.375 0.5855,-1.90961 1.485,-3.83642 2.5938,-5.5 3.5031,-5.25591 9.2507,-8.08841 15.125,-8.125 z m 46.09371,30.21875 c 3.05847,0.0709 6.3777,0.99184 9.53125,3.09375 8.4107,5.60589 10.69882,16.96554 5.09375,25.375 -1.1088,1.66358 -2.52645,3.22399 -4.0625,4.5 -0.6318,0.52279 -1.31003,1.02497 -2,1.46875 -2.49421,1.59914 -5.43057,2.7305 -8.375,3.125 -1.3303,0.17879 -4.006,0.0674 -4.0625,-1.8125 -0.0199,-0.62462 0.28718,-1.21251 0.5,-1.78125 0.24149,-0.65063 0.3468,-1.31411 0.4375,-2 0.10613,-0.80162 0.12525,-1.66756 0.0312,-2.46875 -0.35181,-2.95887 -1.8001,-5.91226 -3.46875,-8.34375 -1.22818,-1.7902 -2.59906,-3.45825 -3.78125,-5.28125 -1.0128,-1.56082 -1.99545,-3.26725 -2.3125,-5.125 -0.361,-2.10961 0.52603,-3.84086 1.46875,-5.65625 1.55494,-2.99421 5.90255,-5.21185 11,-5.09375 z m -34.28121,17.4375 c 0.4822,-0.0113 0.9012,0.11125 1.24996,0.34375 2.78995,1.85957 -0.1984,11.24909 -5.15626,18.6875 -4.9583,7.43904 0.2587,-5.29668 -2.5312,-7.15625 -2.79,-1.85955 -12.5208,7.87654 -7.5625,0.4375 4.3381,-6.50861 10.6239,-12.2355 14,-12.3125 z"
       id="path3479" />
    <g
       transform="matrix(-0.61888854,-0.41250169,-0.41250169,0.61888854,121.7984,691.88782)"
       id="g3481"
       style="fill:#000000">
      <path
         sodipodi:nodetypes="ccccssccccssc"
         id="path3483"
         style="fill:#000000;fill-opacity:1;fill-rule:nonzero;stroke:none"
         d="m 8.3407024,8.0514574 -28.3360004,-25.5030004 -30.687,35.003 27.759,24.984 c -3.838,1.092 -7.884,1.689 -12.072,1.689 -24.332,0 -44.055,-19.724 -44.055,-44.05399961 0,-2.57799999 0.235,-5.09999999 0.659,-7.55699999 L -129.316,-53.767 c 13.045,-8.383 23.925,-20.183 31.543,-34.234 l 50.386702,45.896457 c 3.932,-1.152 8.086,-1.78 12.391,-1.78 24.33,0 44.0530004,19.724 44.0530004,44.05500039 0,2.69200001 -0.254,5.32200001 -0.717,7.88100001"
         inkscape:connector-curvature="0" />
    </g>
    <path
       style="color:#000000;fill:#000000;fill-opacity:1;stroke:none;stroke-width:0.99921262;marker:none;visibility:visible;display:inline;overflow:visible;enable-background:accumulate"
       d="m 62.741099,605.1506 -17.0903,2.42439 -2.3925,3.15381 12.2648,9.30405 9.0897,-1.24776 31.7263,-4.43349 9.089601,-1.24778 9.304,-12.26482 -3.1538,-2.39248 -17.100901,2.34749 -31.7369,4.3566 z"
       id="path3485"
       inkscape:connector-curvature="0" />
    <path
       id="path3487"
       d="m 149.76,602.8712 -4.528,3.94084 -1.3286,19.60137 2.5355,2.88061 2.6314,0.18245 1.7333,-25.43882 -1.0436,-1.16645 z m -3.4238,27.90487 -2.8785,2.50524 -1.3588,19.59929 3.971,4.53009 1.1644,-1.01337 1.7333,-25.43882 -2.6313,-0.18243 z"
       style="color:#000000;fill:#000000;fill-opacity:1;stroke:none;stroke-width:0.99921262;marker:none;visibility:visible;display:inline;overflow:visible;enable-background:accumulate"
       inkscape:connector-curvature="0"
       inkscape:transform-center-x="-3.2838797"
       inkscape:transform-center-y="-16.39313" />
    <path
       style="color:#000000;fill:#ffffff;fill-opacity:1;stroke:none;stroke-width:0.99921262;marker:none;visibility:visible;display:inline;overflow:visible;enable-background:accumulate"
       d="m 143.4749,755.18557 -16.9997,-12.99148 -9.3682,-69.03534 8.1764,-10.90435 9.2809,-1.27401 12.2091,89.73089 -3.2985,4.47429 z"
       id="path3489"
       inkscape:connector-curvature="0" />
    <path
       inkscape:connector-curvature="0"
       id="path3491"
       d="m 139.8767,740.49197 -11.6967,-8.9388 -6.4458,-47.49984 5.6258,-7.50275 6.3857,-0.87659 8.4005,61.73944 -2.2695,3.07854 z"
       style="color:#000000;fill:#000000;fill-opacity:1;stroke:none;stroke-width:0.99921262;marker:none;visibility:visible;display:inline;overflow:visible;enable-background:accumulate" />
    <path
       inkscape:connector-curvature="0"
       id="path3493"
       d="m 38.597799,616.24411 11.6966,8.93878 6.4458,47.49985 -5.6257,7.50275 -6.3857,0.87658 -8.4005,-61.73943 2.2695,-3.07853 z"
       style="color:#000000;fill:#000000;fill-opacity:1;stroke:none;stroke-width:0.99921262;marker:none;visibility:visible;display:inline;overflow:visible;enable-background:accumulate" />
    <path
       style="color:#000000;fill:#000000;fill-opacity:1;stroke:none;stroke-width:0.99921262;marker:none;visibility:visible;display:inline;overflow:visible;enable-background:accumulate"
       d="m 57.211399,751.83964 8.8552,-11.75999 -6.5923,-47.47972 -7.4393,-5.70926 -6.3858,0.87658 8.547,61.71932 3.0152,2.35307 z"
       id="path3495"
       inkscape:connector-curvature="0" />
    <path
       inkscape:connector-curvature="0"
       id="path3497"
       d="m 83.828999,755.64392 -17.1115,2.27058 -3.1538,-2.39246 9.304,-12.26485 9.0896,-1.24777 31.747401,-4.2797 9.0897,-1.24777 12.2648,9.30403 -2.3925,3.15381 -17.1009,2.3475 -31.736801,4.3566 z"
       style="color:#000000;fill:#000000;fill-opacity:1;stroke:none;stroke-width:0.99921262;marker:none;visibility:visible;display:inline;overflow:visible;enable-background:accumulate" />
    <path
       style="color:#000000;fill:#000000;fill-opacity:1;stroke:none;stroke-width:0.99921262;marker:none;visibility:visible;display:inline;overflow:visible;enable-background:accumulate"
       d="m 120.725,604.97027 -8.8552,11.76 6.5923,47.47975 7.4394,5.70925 6.3857,-0.87659 -8.547,-61.71933 -3.0152,-2.35308 z"
       id="path3499"
       inkscape:connector-curvature="0" />
    <path
       inkscape:connector-curvature="0"
       style="color:#000000;fill:#000000;fill-opacity:1;stroke:none;stroke-width:0.99921262;marker:none;visibility:visible;display:inline;overflow:visible;enable-background:accumulate"
       d="m 223.4781,603.63115 -3.1709,-0.75675 -0.6387,0.3886 1.5113,2.48376 1.6836,0.40979 5.8819,1.41662 1.6836,0.40982 2.4838,-1.51132 -0.3886,-0.63866 -3.1676,-0.77097 -5.8784,-1.43087 z m 9.7943,3.41175 -2.4873,1.52555 -2.2327,9.23485 0.9573,1.59321 1.2413,0.30216 2.9065,-12.00285 -0.3851,-0.65295 z m -14.1751,-3.42016 -0.6529,0.38515 -2.9066,12.00282 1.2556,0.30566 1.5824,-0.97502 2.2328,-9.23484 -1.5113,-2.48374 z m 10.2457,16.45866 -1.5825,0.975 -2.2327,9.23484 1.5113,2.48375 0.6386,-0.38863 2.9066,-12.00282 -1.2413,-0.30217 z m -13.9719,-3.38584 -2.9065,12.00281 0.3994,0.65643 2.4872,-1.52555 2.2328,-9.23486 -0.9573,-1.59322 -1.2555,-0.30566 z m 7.8876,13.54209 -5.8819,-1.41664 -1.6836,-0.4098 -2.4837,1.51129 0.3994,0.65644 3.1567,0.75325 5.8784,1.43088 3.1675,0.77098 0.6421,-0.40289 -1.5113,-2.48372 -1.6836,-0.4098 z"
       id="path3501" />
    <path
       inkscape:connector-curvature="0"
       style="color:#000000;fill:#000000;fill-opacity:1;stroke:none;stroke-width:0.99921262;marker:none;visibility:visible;display:inline;overflow:visible;enable-background:accumulate"
       d="m 205.9706,740.8897 -2.1345,0.58138 -0.2539,0.43929 1.7084,0.98715 1.1359,-0.30389 3.9636,-1.0708 1.136,-0.30388 0.9872,-1.70833 -0.4393,-0.25383 -2.1372,0.57176 -3.9662,1.06118 z m 6.9427,-1.15606 -0.9845,1.71796 1.676,6.22589 1.0886,0.63718 0.8375,-0.22405 -2.1757,-8.09348 -0.4419,-0.26349 z m -9.5541,2.57688 -0.2635,0.44185 2.1757,8.09348 0.8472,-0.22667 0.625,-1.09563 -1.6761,-6.2259 -1.7083,-0.98715 z m 11.4579,6.46623 -0.625,1.09563 1.676,6.22591 1.7084,0.98714 0.2538,-0.43929 -2.1757,-8.09347 -0.8376,0.22405 z m -9.422,2.53118 2.1757,8.09346 0.4515,0.26089 0.9846,-1.71795 -1.6761,-6.2259 -1.0886,-0.63718 -0.8471,0.22668 z m 9.1044,5.49694 -3.9636,1.0708 -1.136,0.30388 -0.9871,1.70833 0.4515,0.2609 2.1249,-0.57885 3.9662,-1.06116 2.1371,-0.57179 0.2513,-0.4489 -1.7083,-0.98715 -1.136,0.30389 z"
       id="path3503" />
    <path
       inkscape:connector-curvature="0"
       style="color:#000000;fill:#000000;fill-opacity:1;stroke:none;stroke-width:0.99921262;marker:none;visibility:visible;display:inline;overflow:visible;enable-background:accumulate"
       d="m 176.2618,620.69314 -4.9445,-1.79652 -1.0955,0.50558 1.9662,4.25997 2.6238,0.96677 9.1694,3.35305 2.6239,0.96677 4.2599,-1.96611 -0.5055,-1.0954 -4.9364,-1.81869 -9.1613,-3.37525 z m 15.0749,7.27131 -4.2682,1.98834 -5.2782,14.3949 1.2417,2.73037 1.9345,0.7128 6.8676,-18.70871 -0.4974,-1.11768 z m -22.0968,-8.09059 -1.1176,0.49739 -6.8676,18.70869 1.9568,0.72095 2.7163,-1.27212 5.2782,-14.39491 -1.9661,-4.25999 z m 13.3989,28.27155 -2.7164,1.2721 -5.2783,14.39491 1.9662,4.25998 1.0954,-0.50556 6.8676,-18.70872 -1.9345,-0.71268 z m -21.7773,-7.99815 -6.8676,18.70868 0.5196,1.12585 4.2682,-1.98835 5.2783,-14.39492 -1.2417,-2.73035 -1.9568,-0.72095 z m 10.1547,23.16189 -9.1694,-3.35309 -2.6238,-0.96675 -4.26,1.96613 0.5196,1.12586 4.9223,1.78825 9.1613,3.37528 4.9364,1.81869 1.1036,-0.5278 -1.9661,-4.25999 -2.6238,-0.96675 z"
       id="path3505" />
    <path
       inkscape:connector-curvature="0"
       style="color:#000000;fill:#000000;fill-opacity:1;stroke:none;stroke-width:0.99921262;marker:none;visibility:visible;display:inline;overflow:visible;enable-background:accumulate"
       d="m 182.3653,736.1217 -1.2959,-2.70333 -0.6475,-0.23115 -0.8989,2.518 0.6823,1.43997 2.3945,5.02195 0.6823,1.43998 2.518,0.8989 0.2312,-0.64748 -1.2837,-2.70911 -2.3824,-5.0277 z m 3.2352,8.97204 -2.5302,-0.89312 -7.8897,3.75343 -0.5836,1.60652 0.503,1.0617 10.2571,-4.87523 0.2434,-0.65327 z m -5.7664,-12.10617 -0.6533,-0.24335 -10.257,4.87523 0.5088,1.07387 1.613,0.56566 7.8896,-3.75345 0.8989,-2.51798 z m -5.8228,16.85057 -1.613,-0.56567 -7.8896,3.75345 -0.8989,2.51798 0.6475,0.23115 10.257,-4.87525 -0.5031,-1.06163 z m -5.6733,-11.94111 -10.257,4.87522 -0.2376,0.66547 2.5302,0.89311 7.8897,-3.75344 0.5836,-1.60649 -0.5089,-1.07388 z m -5.1052,13.47705 -2.3945,-5.02194 -0.6823,-1.43999 -2.518,-0.8989 -0.2376,0.66547 1.2902,2.69111 2.3824,5.0277 1.2836,2.70912 0.6597,0.22537 0.8989,-2.51799 -0.6823,-1.43999 z"
       id="path3507" />
    <path
       inkscape:transform-center-y="-28.142456"
       inkscape:transform-center-x="-9.4397069"
       inkscape:connector-curvature="0"
       style="color:#000000;fill:#000000;fill-opacity:1;stroke:none;stroke-width:0.99921262;marker:none;visibility:visible;display:inline;overflow:visible;enable-background:accumulate"
       d="m 205.4324,613.58505 -3.3339,2.40622 -2.1263,13.28745 1.5502,2.12268 1.7835,0.2882 2.7657,-17.244 -0.6392,-0.86059 z m -4.0723,18.82087 -2.1194,1.52967 -2.1467,13.28415 2.4267,3.33715 0.8573,-0.61875 2.7657,-17.24399 -1.7835,-0.28821 z"
       id="path3509" />
    <path
       inkscape:transform-center-y="-5.5939175"
       inkscape:transform-center-x="-4.4582478"
       inkscape:connector-curvature="0"
       style="color:#000000;fill:#000000;fill-opacity:1;stroke:none;stroke-width:0.99921262;marker:none;visibility:visible;display:inline;overflow:visible;enable-background:accumulate"
       d="m 199.0513,738.55309 -2.4665,0.75065 -3.9595,7.45146 0.4887,1.57412 0.9996,0.53315 5.1422,-9.66898 -0.2045,-0.64039 z m -6.2376,10.33923 -1.5679,0.47718 -3.971,7.44535 0.7621,2.47263 0.6343,-0.19303 5.1422,-9.66898 -0.9996,-0.53317 z"
       id="path3511" />
    <g
       style="fill:#000000"
       id="g3513"
       transform="matrix(0.61888854,0.41250169,0.41250169,-0.61888854,225.1163,712.03779)">
      <path
         inkscape:connector-curvature="0"
         d="M 0,0 C -11.423,10.583 -20.307,24.179 -25.558,39.621 L -57.866,10.542 -26.86,-24.176 z"
         style="fill:#000000;fill-opacity:1;fill-rule:nonzero;stroke:none"
         id="path3515"
         sodipodi:nodetypes="ccccc" />
    </g>
    <text
       xml:space="preserve"
       style="font-size:14px;font-style:normal;font-variant:normal;font-weight:normal;font-stretch:normal;line-height:125%;letter-spacing:0px;word-spacing:0px;fill:#000000;fill-opacity:1;stroke:none;font-family:Arial;-inkscape-font-specification:Arial"
       x="42.140018"
       y="808.64001"
       id="text4285"
       sodipodi:linespacing="125%"><tspan
         sodipodi:role="line"
         id="tspan4287"
         x="42.140018"
         y="808.64001">Front</tspan></text>
    <rect
       style="color:#000000;fill:none;stroke:#000000;stroke-width:0.35433072;stroke-miterlimit:4;stroke-dasharray:4.25196862, 4.25196862;stroke-dashoffset:0;marker:none;visibility:visible;display:inline;overflow:visible;enable-background:accumulate"
       id="rect4289"
       width="304.7244"
       height="191.33858"
       x="33.716427"
       y="815.01398"
       rx="8.8582678"
       ry="8.8582678" />
    <text
       sodipodi:linespacing="125%"
       id="text4291"
       y="571.77686"
       x="42.140018"
       style="font-size:14px;font-style:normal;font-variant:normal;font-weight:normal;font-stretch:normal;line-height:125%;letter-spacing:0px;word-spacing:0px;fill:#000000;fill-opacity:1;stroke:none;font-family:Arial;-inkscape-font-specification:Arial"
       xml:space="preserve"><tspan
         y="571.77686"
         x="42.140018"
         id="tspan4293"
         sodipodi:role="line">Back</tspan></text>
  </g>
</svg>
