M48
;DRILL file {KiCad 4.0.2-stable} date 19/05/2016 18:53:44
;FORMAT={-:-/ absolute / metric / decimal}
FMAT,2
METRIC,TZ
T1C0.400
T2C0.500
T3C0.550
T4C1.100
T5C2.200
%
G90
G05
M71
T1
X105.2Y-88.6
X105.2Y-89.6
X105.4Y-81.5
X106.65Y-74.45
X107.1Y-83.9
X107.8Y-89.1
X108.1Y-81.6
X109.9Y-80.9
X110.3Y-76.6
X110.7Y-89.7
X111.55Y-86.
X111.7Y-82.3
X111.9Y-89.7
X112.Y-79.3
X112.9Y-86.5
X113.25Y-74.05
X113.3Y-88.1
X114.3Y-81.
X114.3Y-85.2
X114.5Y-77.2
X115.4Y-76.9
X115.9Y-91.2
X116.4Y-83.1
X117.7Y-69.5
X118.5Y-81.
X118.5Y-85.2
X119.Y-88.1
X119.8Y-69.4
X119.9Y-73.15
X120.2Y-97.9
X120.4Y-79.3
X121.Y-75.85
X121.7Y-68.5
X121.7Y-87.3
X122.1Y-85.6
X122.25Y-80.8
X122.4Y-69.6
X122.5Y-73.2
X123.1Y-85.6
X123.5Y-69.7
X123.6Y-93.5
X124.Y-85.6
X124.15Y-87.25
X124.15Y-88.2
X124.4Y-69.7
X124.5Y-73.2
X124.6Y-93.45
X125.6Y-86.6
X126.Y-71.7
X126.5Y-75.75
X126.9Y-94.6
X127.25Y-76.4
X127.5Y-79.6
X127.5Y-81.1
X128.Y-71.7
X129.4Y-80.5
X129.4Y-85.1
X130.2Y-80.
X130.2Y-84.3
X130.5Y-71.7
X130.7Y-96.2
X131.Y-80.5
X131.Y-83.5
X131.05Y-74.9
X131.8Y-80.
X131.8Y-82.7
X131.9Y-86.7
X132.4Y-85.9
X132.4Y-87.5
X132.5Y-74.9
X132.5Y-76.35
X132.9Y-81.1
X132.95Y-71.7
X133.2Y-92.4
X133.4Y-76.35
X133.4Y-77.3
X134.25Y-71.7
X134.5Y-94.6
X135.3Y-81.1
X136.35Y-76.55
X136.5Y-82.3
X136.5Y-83.9
X136.5Y-85.9
X136.55Y-81.1
X137.15Y-87.5
X137.4Y-76.6
X137.4Y-81.85
X137.4Y-85.5
X138.4Y-85.5
X139.7Y-68.4
X139.7Y-69.3
X140.6Y-70.6
X140.6Y-72.3
X141.5Y-76.55
X142.2Y-69.7
X142.55Y-88.35
X142.9Y-82.35
X143.2Y-69.7
X143.4Y-73.4
X143.55Y-75.
X144.5Y-69.7
X144.9Y-75.
X144.95Y-78.65
X145.45Y-80.45
X145.5Y-69.7
X151.Y-76.55
X151.Y-79.65
X151.05Y-68.5
X151.75Y-82.45
X151.9Y-85.95
X152.8Y-85.05
X153.5Y-77.9
X154.5Y-74.05
X154.65Y-86.
X154.7Y-68.7
X154.7Y-70.
X154.7Y-81.
X157.7Y-87.25
X160.5Y-83.75
X161.3Y-78.8
T4
X163.7Y-78.55
X163.7Y-88.05
T5
X105.25Y-91.97
X149.7Y-71.65
T2
X173.7Y-83.25G85X173.7Y-84.25
G05
T3
X101.675Y-80.2G85X101.025Y-80.2
G05
X101.025Y-87.3G85X101.675Y-87.3
G05
X104.05Y-81.4G85X104.05Y-81.1
G05
X104.05Y-86.4G85X104.05Y-86.1
G05
T0
M30
