G04 #@! TF.FileFunction,Legend,Bot*
%FSLAX46Y46*%
G04 Gerber Fmt 4.6, Leading zero omitted, Abs format (unit mm)*
G04 Created by KiCad (PCBNEW 4.0.4-stable) date 10/29/16 22:21:33*
%MOMM*%
%LPD*%
G01*
G04 APERTURE LIST*
%ADD10C,0.100000*%
%ADD11C,0.200000*%
%ADD12C,0.300000*%
%ADD13C,0.150000*%
%ADD14C,0.127000*%
G04 APERTURE END LIST*
D10*
D11*
X105850000Y-81500000D02*
G75*
G03X105850000Y-81500000I-450000J0D01*
G01*
D12*
X168309520Y-93338095D02*
X168309520Y-92038095D01*
X167876187Y-92966667D01*
X167442854Y-92038095D01*
X167442854Y-93338095D01*
X166638092Y-93338095D02*
X166761901Y-93276190D01*
X166823806Y-93214286D01*
X166885711Y-93090476D01*
X166885711Y-92719048D01*
X166823806Y-92595238D01*
X166761901Y-92533333D01*
X166638092Y-92471429D01*
X166452378Y-92471429D01*
X166328568Y-92533333D01*
X166266663Y-92595238D01*
X166204759Y-92719048D01*
X166204759Y-93090476D01*
X166266663Y-93214286D01*
X166328568Y-93276190D01*
X166452378Y-93338095D01*
X166638092Y-93338095D01*
X165461902Y-93338095D02*
X165585711Y-93276190D01*
X165647616Y-93214286D01*
X165709521Y-93090476D01*
X165709521Y-92719048D01*
X165647616Y-92595238D01*
X165585711Y-92533333D01*
X165461902Y-92471429D01*
X165276188Y-92471429D01*
X165152378Y-92533333D01*
X165090473Y-92595238D01*
X165028569Y-92719048D01*
X165028569Y-93090476D01*
X165090473Y-93214286D01*
X165152378Y-93276190D01*
X165276188Y-93338095D01*
X165461902Y-93338095D01*
X164285712Y-93338095D02*
X164409521Y-93276190D01*
X164471426Y-93152381D01*
X164471426Y-92038095D01*
X163976188Y-92471429D02*
X163480950Y-92471429D01*
X163790474Y-92038095D02*
X163790474Y-93152381D01*
X163728569Y-93276190D01*
X163604760Y-93338095D01*
X163480950Y-93338095D01*
X163047617Y-93338095D02*
X163047617Y-92471429D01*
X163047617Y-92038095D02*
X163109522Y-92100000D01*
X163047617Y-92161905D01*
X162985712Y-92100000D01*
X163047617Y-92038095D01*
X163047617Y-92161905D01*
X162428569Y-92471429D02*
X162428569Y-93771429D01*
X162428569Y-92533333D02*
X162304760Y-92471429D01*
X162057141Y-92471429D01*
X161933331Y-92533333D01*
X161871426Y-92595238D01*
X161809522Y-92719048D01*
X161809522Y-93090476D01*
X161871426Y-93214286D01*
X161933331Y-93276190D01*
X162057141Y-93338095D01*
X162304760Y-93338095D01*
X162428569Y-93276190D01*
X160695236Y-93338095D02*
X160695236Y-92657143D01*
X160757141Y-92533333D01*
X160880951Y-92471429D01*
X161128570Y-92471429D01*
X161252379Y-92533333D01*
X160695236Y-93276190D02*
X160819046Y-93338095D01*
X161128570Y-93338095D01*
X161252379Y-93276190D01*
X161314284Y-93152381D01*
X161314284Y-93028571D01*
X161252379Y-92904762D01*
X161128570Y-92842857D01*
X160819046Y-92842857D01*
X160695236Y-92780952D01*
X160138094Y-93276190D02*
X160014284Y-93338095D01*
X159766665Y-93338095D01*
X159642856Y-93276190D01*
X159580951Y-93152381D01*
X159580951Y-93090476D01*
X159642856Y-92966667D01*
X159766665Y-92904762D01*
X159952380Y-92904762D01*
X160076189Y-92842857D01*
X160138094Y-92719048D01*
X160138094Y-92657143D01*
X160076189Y-92533333D01*
X159952380Y-92471429D01*
X159766665Y-92471429D01*
X159642856Y-92533333D01*
X159085713Y-93276190D02*
X158961903Y-93338095D01*
X158714284Y-93338095D01*
X158590475Y-93276190D01*
X158528570Y-93152381D01*
X158528570Y-93090476D01*
X158590475Y-92966667D01*
X158714284Y-92904762D01*
X158899999Y-92904762D01*
X159023808Y-92842857D01*
X159085713Y-92719048D01*
X159085713Y-92657143D01*
X159023808Y-92533333D01*
X158899999Y-92471429D01*
X158714284Y-92471429D01*
X158590475Y-92533333D01*
X156980951Y-93338095D02*
X156980951Y-92038095D01*
X156547618Y-92966667D01*
X156114285Y-92038095D01*
X156114285Y-93338095D01*
X155495237Y-93338095D02*
X155495237Y-92471429D01*
X155495237Y-92038095D02*
X155557142Y-92100000D01*
X155495237Y-92161905D01*
X155433332Y-92100000D01*
X155495237Y-92038095D01*
X155495237Y-92161905D01*
X154876189Y-92471429D02*
X154876189Y-93338095D01*
X154876189Y-92595238D02*
X154814284Y-92533333D01*
X154690475Y-92471429D01*
X154504761Y-92471429D01*
X154380951Y-92533333D01*
X154319046Y-92657143D01*
X154319046Y-93338095D01*
X153699999Y-93338095D02*
X153699999Y-92471429D01*
X153699999Y-92038095D02*
X153761904Y-92100000D01*
X153699999Y-92161905D01*
X153638094Y-92100000D01*
X153699999Y-92038095D01*
X153699999Y-92161905D01*
X152090475Y-93338095D02*
X152090475Y-92038095D01*
X152090475Y-92533333D02*
X151966666Y-92471429D01*
X151719047Y-92471429D01*
X151595237Y-92533333D01*
X151533332Y-92595238D01*
X151471428Y-92719048D01*
X151471428Y-93090476D01*
X151533332Y-93214286D01*
X151595237Y-93276190D01*
X151719047Y-93338095D01*
X151966666Y-93338095D01*
X152090475Y-93276190D01*
X151038095Y-92471429D02*
X150728571Y-93338095D01*
X150419047Y-92471429D02*
X150728571Y-93338095D01*
X150852380Y-93647619D01*
X150914285Y-93709524D01*
X151038095Y-93771429D01*
X148995238Y-93276190D02*
X148809524Y-93338095D01*
X148500000Y-93338095D01*
X148376190Y-93276190D01*
X148314286Y-93214286D01*
X148252381Y-93090476D01*
X148252381Y-92966667D01*
X148314286Y-92842857D01*
X148376190Y-92780952D01*
X148500000Y-92719048D01*
X148747619Y-92657143D01*
X148871428Y-92595238D01*
X148933333Y-92533333D01*
X148995238Y-92409524D01*
X148995238Y-92285714D01*
X148933333Y-92161905D01*
X148871428Y-92100000D01*
X148747619Y-92038095D01*
X148438095Y-92038095D01*
X148252381Y-92100000D01*
X147880952Y-92471429D02*
X147385714Y-92471429D01*
X147695238Y-92038095D02*
X147695238Y-93152381D01*
X147633333Y-93276190D01*
X147509524Y-93338095D01*
X147385714Y-93338095D01*
X146457143Y-93276190D02*
X146580953Y-93338095D01*
X146828572Y-93338095D01*
X146952381Y-93276190D01*
X147014286Y-93152381D01*
X147014286Y-92657143D01*
X146952381Y-92533333D01*
X146828572Y-92471429D01*
X146580953Y-92471429D01*
X146457143Y-92533333D01*
X146395238Y-92657143D01*
X146395238Y-92780952D01*
X147014286Y-92904762D01*
X145838095Y-92471429D02*
X145838095Y-93771429D01*
X145838095Y-92533333D02*
X145714286Y-92471429D01*
X145466667Y-92471429D01*
X145342857Y-92533333D01*
X145280952Y-92595238D01*
X145219048Y-92719048D01*
X145219048Y-93090476D01*
X145280952Y-93214286D01*
X145342857Y-93276190D01*
X145466667Y-93338095D01*
X145714286Y-93338095D01*
X145838095Y-93276190D01*
X144661905Y-93338095D02*
X144661905Y-92038095D01*
X144104762Y-93338095D02*
X144104762Y-92657143D01*
X144166667Y-92533333D01*
X144290477Y-92471429D01*
X144476191Y-92471429D01*
X144600000Y-92533333D01*
X144661905Y-92595238D01*
X142928572Y-93338095D02*
X142928572Y-92657143D01*
X142990477Y-92533333D01*
X143114287Y-92471429D01*
X143361906Y-92471429D01*
X143485715Y-92533333D01*
X142928572Y-93276190D02*
X143052382Y-93338095D01*
X143361906Y-93338095D01*
X143485715Y-93276190D01*
X143547620Y-93152381D01*
X143547620Y-93028571D01*
X143485715Y-92904762D01*
X143361906Y-92842857D01*
X143052382Y-92842857D01*
X142928572Y-92780952D01*
X142309525Y-92471429D02*
X142309525Y-93338095D01*
X142309525Y-92595238D02*
X142247620Y-92533333D01*
X142123811Y-92471429D01*
X141938097Y-92471429D01*
X141814287Y-92533333D01*
X141752382Y-92657143D01*
X141752382Y-93338095D01*
X140142859Y-92657143D02*
X139709526Y-92657143D01*
X139523812Y-93338095D02*
X140142859Y-93338095D01*
X140142859Y-92038095D01*
X139523812Y-92038095D01*
X138780955Y-93338095D02*
X138904764Y-93276190D01*
X138966669Y-93152381D01*
X138966669Y-92038095D01*
X137790479Y-93276190D02*
X137914289Y-93338095D01*
X138161908Y-93338095D01*
X138285717Y-93276190D01*
X138347622Y-93152381D01*
X138347622Y-92657143D01*
X138285717Y-92533333D01*
X138161908Y-92471429D01*
X137914289Y-92471429D01*
X137790479Y-92533333D01*
X137728574Y-92657143D01*
X137728574Y-92780952D01*
X138347622Y-92904762D01*
X136614288Y-93276190D02*
X136738098Y-93338095D01*
X136985717Y-93338095D01*
X137109526Y-93276190D01*
X137171431Y-93214286D01*
X137233336Y-93090476D01*
X137233336Y-92719048D01*
X137171431Y-92595238D01*
X137109526Y-92533333D01*
X136985717Y-92471429D01*
X136738098Y-92471429D01*
X136614288Y-92533333D01*
X136242859Y-92471429D02*
X135747621Y-92471429D01*
X136057145Y-92038095D02*
X136057145Y-93152381D01*
X135995240Y-93276190D01*
X135871431Y-93338095D01*
X135747621Y-93338095D01*
X135314288Y-93338095D02*
X135314288Y-92471429D01*
X135314288Y-92719048D02*
X135252383Y-92595238D01*
X135190479Y-92533333D01*
X135066669Y-92471429D01*
X134942860Y-92471429D01*
X134323812Y-93338095D02*
X134447621Y-93276190D01*
X134509526Y-93214286D01*
X134571431Y-93090476D01*
X134571431Y-92719048D01*
X134509526Y-92595238D01*
X134447621Y-92533333D01*
X134323812Y-92471429D01*
X134138098Y-92471429D01*
X134014288Y-92533333D01*
X133952383Y-92595238D01*
X133890479Y-92719048D01*
X133890479Y-93090476D01*
X133952383Y-93214286D01*
X134014288Y-93276190D01*
X134138098Y-93338095D01*
X134323812Y-93338095D01*
X133333336Y-92471429D02*
X133333336Y-93338095D01*
X133333336Y-92595238D02*
X133271431Y-92533333D01*
X133147622Y-92471429D01*
X132961908Y-92471429D01*
X132838098Y-92533333D01*
X132776193Y-92657143D01*
X132776193Y-93338095D01*
X132157146Y-93338095D02*
X132157146Y-92471429D01*
X132157146Y-92038095D02*
X132219051Y-92100000D01*
X132157146Y-92161905D01*
X132095241Y-92100000D01*
X132157146Y-92038095D01*
X132157146Y-92161905D01*
X130980955Y-93276190D02*
X131104765Y-93338095D01*
X131352384Y-93338095D01*
X131476193Y-93276190D01*
X131538098Y-93214286D01*
X131600003Y-93090476D01*
X131600003Y-92719048D01*
X131538098Y-92595238D01*
X131476193Y-92533333D01*
X131352384Y-92471429D01*
X131104765Y-92471429D01*
X130980955Y-92533333D01*
X130485717Y-93276190D02*
X130361907Y-93338095D01*
X130114288Y-93338095D01*
X129990479Y-93276190D01*
X129928574Y-93152381D01*
X129928574Y-93090476D01*
X129990479Y-92966667D01*
X130114288Y-92904762D01*
X130300003Y-92904762D01*
X130423812Y-92842857D01*
X130485717Y-92719048D01*
X130485717Y-92657143D01*
X130423812Y-92533333D01*
X130300003Y-92471429D01*
X130114288Y-92471429D01*
X129990479Y-92533333D01*
X163697619Y-95588095D02*
X164316666Y-95588095D01*
X164316666Y-94288095D01*
X163264285Y-95588095D02*
X163264285Y-94721429D01*
X163264285Y-94288095D02*
X163326190Y-94350000D01*
X163264285Y-94411905D01*
X163202380Y-94350000D01*
X163264285Y-94288095D01*
X163264285Y-94411905D01*
X162088094Y-95526190D02*
X162211904Y-95588095D01*
X162459523Y-95588095D01*
X162583332Y-95526190D01*
X162645237Y-95464286D01*
X162707142Y-95340476D01*
X162707142Y-94969048D01*
X162645237Y-94845238D01*
X162583332Y-94783333D01*
X162459523Y-94721429D01*
X162211904Y-94721429D01*
X162088094Y-94783333D01*
X161035713Y-95526190D02*
X161159523Y-95588095D01*
X161407142Y-95588095D01*
X161530951Y-95526190D01*
X161592856Y-95402381D01*
X161592856Y-94907143D01*
X161530951Y-94783333D01*
X161407142Y-94721429D01*
X161159523Y-94721429D01*
X161035713Y-94783333D01*
X160973808Y-94907143D01*
X160973808Y-95030952D01*
X161592856Y-95154762D01*
X160416665Y-94721429D02*
X160416665Y-95588095D01*
X160416665Y-94845238D02*
X160354760Y-94783333D01*
X160230951Y-94721429D01*
X160045237Y-94721429D01*
X159921427Y-94783333D01*
X159859522Y-94907143D01*
X159859522Y-95588095D01*
X159302380Y-95526190D02*
X159178570Y-95588095D01*
X158930951Y-95588095D01*
X158807142Y-95526190D01*
X158745237Y-95402381D01*
X158745237Y-95340476D01*
X158807142Y-95216667D01*
X158930951Y-95154762D01*
X159116666Y-95154762D01*
X159240475Y-95092857D01*
X159302380Y-94969048D01*
X159302380Y-94907143D01*
X159240475Y-94783333D01*
X159116666Y-94721429D01*
X158930951Y-94721429D01*
X158807142Y-94783333D01*
X157692856Y-95526190D02*
X157816666Y-95588095D01*
X158064285Y-95588095D01*
X158188094Y-95526190D01*
X158249999Y-95402381D01*
X158249999Y-94907143D01*
X158188094Y-94783333D01*
X158064285Y-94721429D01*
X157816666Y-94721429D01*
X157692856Y-94783333D01*
X157630951Y-94907143D01*
X157630951Y-95030952D01*
X158249999Y-95154762D01*
X156516665Y-95588095D02*
X156516665Y-94288095D01*
X156516665Y-95526190D02*
X156640475Y-95588095D01*
X156888094Y-95588095D01*
X157011903Y-95526190D01*
X157073808Y-95464286D01*
X157135713Y-95340476D01*
X157135713Y-94969048D01*
X157073808Y-94845238D01*
X157011903Y-94783333D01*
X156888094Y-94721429D01*
X156640475Y-94721429D01*
X156516665Y-94783333D01*
X154349999Y-94721429D02*
X154349999Y-95588095D01*
X154907142Y-94721429D02*
X154907142Y-95402381D01*
X154845237Y-95526190D01*
X154721428Y-95588095D01*
X154535714Y-95588095D01*
X154411904Y-95526190D01*
X154349999Y-95464286D01*
X153730952Y-94721429D02*
X153730952Y-95588095D01*
X153730952Y-94845238D02*
X153669047Y-94783333D01*
X153545238Y-94721429D01*
X153359524Y-94721429D01*
X153235714Y-94783333D01*
X153173809Y-94907143D01*
X153173809Y-95588095D01*
X151997619Y-95588095D02*
X151997619Y-94288095D01*
X151997619Y-95526190D02*
X152121429Y-95588095D01*
X152369048Y-95588095D01*
X152492857Y-95526190D01*
X152554762Y-95464286D01*
X152616667Y-95340476D01*
X152616667Y-94969048D01*
X152554762Y-94845238D01*
X152492857Y-94783333D01*
X152369048Y-94721429D01*
X152121429Y-94721429D01*
X151997619Y-94783333D01*
X150883334Y-95526190D02*
X151007144Y-95588095D01*
X151254763Y-95588095D01*
X151378572Y-95526190D01*
X151440477Y-95402381D01*
X151440477Y-94907143D01*
X151378572Y-94783333D01*
X151254763Y-94721429D01*
X151007144Y-94721429D01*
X150883334Y-94783333D01*
X150821429Y-94907143D01*
X150821429Y-95030952D01*
X151440477Y-95154762D01*
X150264286Y-95588095D02*
X150264286Y-94721429D01*
X150264286Y-94969048D02*
X150202381Y-94845238D01*
X150140477Y-94783333D01*
X150016667Y-94721429D01*
X149892858Y-94721429D01*
X147726191Y-95464286D02*
X147788096Y-95526190D01*
X147973810Y-95588095D01*
X148097620Y-95588095D01*
X148283334Y-95526190D01*
X148407143Y-95402381D01*
X148469048Y-95278571D01*
X148530953Y-95030952D01*
X148530953Y-94845238D01*
X148469048Y-94597619D01*
X148407143Y-94473810D01*
X148283334Y-94350000D01*
X148097620Y-94288095D01*
X147973810Y-94288095D01*
X147788096Y-94350000D01*
X147726191Y-94411905D01*
X147169048Y-94907143D02*
X146735715Y-94907143D01*
X146550001Y-95588095D02*
X147169048Y-95588095D01*
X147169048Y-94288095D01*
X146550001Y-94288095D01*
X145250001Y-95588095D02*
X145683334Y-94969048D01*
X145992858Y-95588095D02*
X145992858Y-94288095D01*
X145497620Y-94288095D01*
X145373811Y-94350000D01*
X145311906Y-94411905D01*
X145250001Y-94535714D01*
X145250001Y-94721429D01*
X145311906Y-94845238D01*
X145373811Y-94907143D01*
X145497620Y-94969048D01*
X145992858Y-94969048D01*
X144692858Y-95588095D02*
X144692858Y-94288095D01*
X143950001Y-95588095D01*
X143950001Y-94288095D01*
X142092858Y-94288095D02*
X141845239Y-94288095D01*
X141721430Y-94350000D01*
X141597620Y-94473810D01*
X141535715Y-94721429D01*
X141535715Y-95154762D01*
X141597620Y-95402381D01*
X141721430Y-95526190D01*
X141845239Y-95588095D01*
X142092858Y-95588095D01*
X142216668Y-95526190D01*
X142340477Y-95402381D01*
X142402382Y-95154762D01*
X142402382Y-94721429D01*
X142340477Y-94473810D01*
X142216668Y-94350000D01*
X142092858Y-94288095D01*
X140978572Y-95588095D02*
X140978572Y-94288095D01*
X140978572Y-94907143D02*
X140235715Y-94907143D01*
X140235715Y-95588095D02*
X140235715Y-94288095D01*
X138997620Y-95588095D02*
X139616667Y-95588095D01*
X139616667Y-94288095D01*
X137759524Y-94288095D02*
X137326191Y-95588095D01*
X136892858Y-94288095D01*
X135778572Y-95588095D02*
X136521429Y-95588095D01*
X136150000Y-95588095D02*
X136150000Y-94288095D01*
X136273810Y-94473810D01*
X136397619Y-94597619D01*
X136521429Y-94659524D01*
X135221429Y-95464286D02*
X135159524Y-95526190D01*
X135221429Y-95588095D01*
X135283334Y-95526190D01*
X135221429Y-95464286D01*
X135221429Y-95588095D01*
X134664286Y-94411905D02*
X134602381Y-94350000D01*
X134478572Y-94288095D01*
X134169048Y-94288095D01*
X134045238Y-94350000D01*
X133983334Y-94411905D01*
X133921429Y-94535714D01*
X133921429Y-94659524D01*
X133983334Y-94845238D01*
X134726191Y-95588095D01*
X133921429Y-95588095D01*
X150078571Y-96971429D02*
X149769047Y-97838095D01*
X149459523Y-96971429D01*
X148407142Y-96971429D02*
X148407142Y-97838095D01*
X148716666Y-96476190D02*
X149026190Y-97404762D01*
X148221428Y-97404762D01*
D13*
X128300000Y-81500000D02*
X128300000Y-87900000D01*
X128300000Y-87900000D02*
X126700000Y-87900000D01*
X126700000Y-87900000D02*
X126700000Y-81500000D01*
X126700000Y-81500000D02*
X128300000Y-81500000D01*
X123050000Y-74700000D02*
X122250000Y-74700000D01*
X122250000Y-74700000D02*
X122250000Y-73300000D01*
X122250000Y-73300000D02*
X123050000Y-73300000D01*
X138950000Y-74700000D02*
X139750000Y-74700000D01*
X139750000Y-74700000D02*
X139750000Y-73300000D01*
X139750000Y-73300000D02*
X138950000Y-73300000D01*
X138950000Y-70500000D02*
X138950000Y-74700000D01*
X138950000Y-74700000D02*
X123050000Y-74700000D01*
X123050000Y-74700000D02*
X123050000Y-70500000D01*
X123050000Y-70500000D02*
X138950000Y-70500000D01*
X151400000Y-71600000D02*
X151400000Y-72300000D01*
X152600000Y-72300000D02*
X152600000Y-71600000D01*
X123050000Y-69250000D02*
X123750000Y-69250000D01*
X123750000Y-68050000D02*
X123050000Y-68050000D01*
X150650000Y-82000000D02*
X151350000Y-82000000D01*
X151350000Y-80800000D02*
X150650000Y-80800000D01*
X152450000Y-74650000D02*
X153150000Y-74650000D01*
X153150000Y-73450000D02*
X152450000Y-73450000D01*
X152600000Y-69650000D02*
X152600000Y-68950000D01*
X151400000Y-68950000D02*
X151400000Y-69650000D01*
X162000000Y-69600000D02*
X162000000Y-68900000D01*
X160800000Y-68900000D02*
X160800000Y-69600000D01*
X160800000Y-71600000D02*
X160800000Y-72300000D01*
X162000000Y-72300000D02*
X162000000Y-71600000D01*
X106550000Y-86700000D02*
X105850000Y-86700000D01*
X105850000Y-87900000D02*
X106550000Y-87900000D01*
X110100000Y-87650000D02*
X110100000Y-88350000D01*
X111300000Y-88350000D02*
X111300000Y-87650000D01*
X110250000Y-81200000D02*
X109550000Y-81200000D01*
X109550000Y-82400000D02*
X110250000Y-82400000D01*
X111300000Y-87650000D02*
X111300000Y-88350000D01*
X112500000Y-88350000D02*
X112500000Y-87650000D01*
X112350000Y-76000000D02*
X111650000Y-76000000D01*
X111650000Y-77200000D02*
X112350000Y-77200000D01*
X121900000Y-80400000D02*
X121900000Y-79700000D01*
X120700000Y-79700000D02*
X120700000Y-80400000D01*
X120550000Y-88700000D02*
X121250000Y-88700000D01*
X121250000Y-87500000D02*
X120550000Y-87500000D01*
X146025000Y-69100000D02*
X146025000Y-71100000D01*
X143975000Y-71100000D02*
X143975000Y-69100000D01*
X143725000Y-69100000D02*
X143725000Y-71100000D01*
X141675000Y-71100000D02*
X141675000Y-69100000D01*
X141350000Y-74000000D02*
X142050000Y-74000000D01*
X142050000Y-72800000D02*
X141350000Y-72800000D01*
X140300000Y-69925000D02*
X138300000Y-69925000D01*
X138300000Y-67875000D02*
X140300000Y-67875000D01*
X139600000Y-83450000D02*
X139600000Y-82750000D01*
X138400000Y-82750000D02*
X138400000Y-83450000D01*
X121550000Y-94100000D02*
X122250000Y-94100000D01*
X122250000Y-92900000D02*
X121550000Y-92900000D01*
X122250000Y-97300000D02*
X121550000Y-97300000D01*
X121550000Y-98500000D02*
X122250000Y-98500000D01*
X113700000Y-74350000D02*
X113700000Y-75050000D01*
X114900000Y-75050000D02*
X114900000Y-74350000D01*
X120500000Y-75200000D02*
X120500000Y-74500000D01*
X119300000Y-74500000D02*
X119300000Y-75200000D01*
X110250000Y-82300000D02*
X109550000Y-82300000D01*
X109550000Y-83500000D02*
X110250000Y-83500000D01*
X99200000Y-87750000D02*
X98200000Y-87750000D01*
X98200000Y-87750000D02*
X98200000Y-79750000D01*
X98200000Y-79750000D02*
X99200000Y-79750000D01*
X99200000Y-87750000D02*
X99200000Y-79750000D01*
X99200000Y-79750000D02*
X104250000Y-79750000D01*
X104250000Y-79750000D02*
X104250000Y-87750000D01*
X104250000Y-87750000D02*
X99200000Y-87750000D01*
X109300000Y-86625000D02*
X108300000Y-86625000D01*
X108300000Y-87975000D02*
X109300000Y-87975000D01*
X111500000Y-76075000D02*
X112500000Y-76075000D01*
X112500000Y-74725000D02*
X111500000Y-74725000D01*
X133900000Y-69275000D02*
X134900000Y-69275000D01*
X134900000Y-67925000D02*
X133900000Y-67925000D01*
X135300000Y-81500000D02*
X135300000Y-87900000D01*
X135300000Y-87900000D02*
X133700000Y-87900000D01*
X133700000Y-87900000D02*
X133700000Y-81500000D01*
X133700000Y-81500000D02*
X135300000Y-81500000D01*
X111500000Y-78475000D02*
X112500000Y-78475000D01*
X112500000Y-77125000D02*
X111500000Y-77125000D01*
X110300000Y-83425000D02*
X109300000Y-83425000D01*
X109300000Y-84775000D02*
X110300000Y-84775000D01*
X110300000Y-84725000D02*
X109300000Y-84725000D01*
X109300000Y-86075000D02*
X110300000Y-86075000D01*
X105499800Y-83749480D02*
X105990020Y-83749480D01*
X105499800Y-84450520D02*
X105499800Y-83749480D01*
X108700200Y-84450520D02*
X108700200Y-83749480D01*
X154414000Y-68060000D02*
X154414000Y-73140000D01*
X154414000Y-73140000D02*
X158986000Y-73140000D01*
X158986000Y-73140000D02*
X158986000Y-68060000D01*
X158986000Y-68060000D02*
X154414000Y-68060000D01*
X155938000Y-68060000D02*
X155938000Y-68568000D01*
X155938000Y-68568000D02*
X157208000Y-68568000D01*
X157208000Y-68568000D02*
X157208000Y-68060000D01*
D14*
X145978000Y-80333000D02*
X146105000Y-80333000D01*
X146105000Y-80333000D02*
X146105000Y-85667000D01*
X142295000Y-85667000D02*
X142295000Y-80333000D01*
X142295000Y-80333000D02*
X145978000Y-80333000D01*
X143692000Y-80333000D02*
X143692000Y-80841000D01*
X143692000Y-80841000D02*
X144708000Y-80841000D01*
X144708000Y-80841000D02*
X144708000Y-80333000D01*
X142295000Y-85667000D02*
X146105000Y-85667000D01*
D13*
X113423607Y-86300000D02*
G75*
G03X113423607Y-86300000I-223607J0D01*
G01*
X112900000Y-86600000D02*
X119900000Y-86600000D01*
X119900000Y-86600000D02*
X119900000Y-79600000D01*
X119900000Y-79600000D02*
X112900000Y-79600000D01*
X112900000Y-79600000D02*
X112900000Y-86600000D01*
X115500000Y-75950000D02*
X118700000Y-75950000D01*
X118700000Y-75950000D02*
X118700000Y-73450000D01*
X118700000Y-73450000D02*
X115500000Y-73450000D01*
X115500000Y-73450000D02*
X115500000Y-75950000D01*
X118999760Y-70799160D02*
X118999760Y-70750900D01*
X119700800Y-68000180D02*
X118999760Y-68000180D01*
X118999760Y-68000180D02*
X118999760Y-68249100D01*
X118999760Y-70799160D02*
X118999760Y-70999820D01*
X118999760Y-70999820D02*
X119700800Y-70999820D01*
X152300000Y-85300000D02*
X152300000Y-82300000D01*
X152300000Y-82300000D02*
X150700000Y-82300000D01*
X150700000Y-82300000D02*
X150700000Y-85300000D01*
X150700000Y-85300000D02*
X152300000Y-85300000D01*
X109700000Y-76900000D02*
X109700000Y-73900000D01*
X109700000Y-73900000D02*
X108100000Y-73900000D01*
X108100000Y-73900000D02*
X108100000Y-76900000D01*
X108100000Y-76900000D02*
X109700000Y-76900000D01*
X122700000Y-97200000D02*
X122700000Y-94200000D01*
X122700000Y-94200000D02*
X121100000Y-94200000D01*
X121100000Y-94200000D02*
X121100000Y-97200000D01*
X121100000Y-97200000D02*
X122700000Y-97200000D01*
X119575000Y-97100000D02*
X119575000Y-96100000D01*
X118225000Y-96100000D02*
X118225000Y-97100000D01*
X156700000Y-80350000D02*
X156700000Y-77350000D01*
X156700000Y-77350000D02*
X155100000Y-77350000D01*
X155100000Y-77350000D02*
X155100000Y-80350000D01*
X155100000Y-80350000D02*
X156700000Y-80350000D01*
X114875000Y-89500000D02*
X114875000Y-88500000D01*
X113525000Y-88500000D02*
X113525000Y-89500000D01*
X146500000Y-86525000D02*
X145500000Y-86525000D01*
X145500000Y-87875000D02*
X146500000Y-87875000D01*
X155075000Y-87000000D02*
X155075000Y-88000000D01*
X156425000Y-88000000D02*
X156425000Y-87000000D01*
X147300000Y-77225000D02*
X146300000Y-77225000D01*
X146300000Y-78575000D02*
X147300000Y-78575000D01*
X112500000Y-91700000D02*
X111550000Y-92700000D01*
X113000000Y-91900000D02*
X113000000Y-92950000D01*
X113500000Y-91700000D02*
X114450000Y-92700000D01*
X113000000Y-91900000D02*
G75*
G02X112250000Y-91150000I0J750000D01*
G01*
X113750000Y-91150000D02*
G75*
G02X113000000Y-91900000I-750000J0D01*
G01*
X113700000Y-91150000D02*
X112300000Y-91150000D01*
X112300000Y-91150000D02*
X112300000Y-90650000D01*
X112300000Y-90650000D02*
X113700000Y-90650000D01*
X113700000Y-90650000D02*
X113700000Y-91150000D01*
X149400000Y-88000000D02*
X148450000Y-89000000D01*
X149900000Y-88200000D02*
X149900000Y-89250000D01*
X150400000Y-88000000D02*
X151350000Y-89000000D01*
X149900000Y-88200000D02*
G75*
G02X149150000Y-87450000I0J750000D01*
G01*
X150650000Y-87450000D02*
G75*
G02X149900000Y-88200000I-750000J0D01*
G01*
X150600000Y-87450000D02*
X149200000Y-87450000D01*
X149200000Y-87450000D02*
X149200000Y-86950000D01*
X149200000Y-86950000D02*
X150600000Y-86950000D01*
X150600000Y-86950000D02*
X150600000Y-87450000D01*
X156550000Y-84250000D02*
X157550000Y-85200000D01*
X156750000Y-83750000D02*
X157800000Y-83750000D01*
X156550000Y-83250000D02*
X157550000Y-82300000D01*
X156750000Y-83750000D02*
G75*
G02X156000000Y-84500000I-750000J0D01*
G01*
X156000000Y-83000000D02*
G75*
G02X156750000Y-83750000I0J-750000D01*
G01*
X156000000Y-83050000D02*
X156000000Y-84450000D01*
X156000000Y-84450000D02*
X155500000Y-84450000D01*
X155500000Y-84450000D02*
X155500000Y-83050000D01*
X155500000Y-83050000D02*
X156000000Y-83050000D01*
X150400000Y-77100000D02*
X151350000Y-76100000D01*
X149900000Y-76900000D02*
X149900000Y-75850000D01*
X149400000Y-77100000D02*
X148450000Y-76100000D01*
X149900000Y-76900000D02*
G75*
G02X150650000Y-77650000I0J-750000D01*
G01*
X149150000Y-77650000D02*
G75*
G02X149900000Y-76900000I750000J0D01*
G01*
X149200000Y-77650000D02*
X150600000Y-77650000D01*
X150600000Y-77650000D02*
X150600000Y-78150000D01*
X150600000Y-78150000D02*
X149200000Y-78150000D01*
X149200000Y-78150000D02*
X149200000Y-77650000D01*
X141350000Y-87675000D02*
X140350000Y-87675000D01*
X140350000Y-89025000D02*
X141350000Y-89025000D01*
X145500000Y-77050000D02*
X145500000Y-76350000D01*
X144300000Y-76350000D02*
X144300000Y-77050000D01*
X144150000Y-77050000D02*
X144150000Y-76350000D01*
X142950000Y-76350000D02*
X142950000Y-77050000D01*
X118225000Y-93750000D02*
X118225000Y-94750000D01*
X119575000Y-94750000D02*
X119575000Y-93750000D01*
X140500000Y-77800000D02*
G75*
G03X140500000Y-77800000I-250000J0D01*
G01*
X140500000Y-77550000D02*
X142500000Y-77550000D01*
X142500000Y-77550000D02*
X142500000Y-75550000D01*
X142500000Y-75550000D02*
X140500000Y-75550000D01*
X140500000Y-75550000D02*
X140500000Y-77550000D01*
X165400000Y-95300000D02*
X165400000Y-98300000D01*
X165400000Y-98300000D02*
X167400000Y-98300000D01*
X167400000Y-98300000D02*
X167400000Y-95300000D01*
X167400000Y-95300000D02*
X165400000Y-95300000D01*
X164900000Y-71200000D02*
X164900000Y-74200000D01*
X164900000Y-74200000D02*
X166900000Y-74200000D01*
X166900000Y-74200000D02*
X166900000Y-71200000D01*
X166900000Y-71200000D02*
X164900000Y-71200000D01*
X109050000Y-88100000D02*
X108350000Y-88100000D01*
X108350000Y-89300000D02*
X109050000Y-89300000D01*
X127616666Y-80966667D02*
X127850000Y-80633333D01*
X128016666Y-80966667D02*
X128016666Y-80266667D01*
X127750000Y-80266667D01*
X127683333Y-80300000D01*
X127650000Y-80333333D01*
X127616666Y-80400000D01*
X127616666Y-80500000D01*
X127650000Y-80566667D01*
X127683333Y-80600000D01*
X127750000Y-80633333D01*
X128016666Y-80633333D01*
X127383333Y-80266667D02*
X126950000Y-80266667D01*
X127183333Y-80533333D01*
X127083333Y-80533333D01*
X127016666Y-80566667D01*
X126983333Y-80600000D01*
X126950000Y-80666667D01*
X126950000Y-80833333D01*
X126983333Y-80900000D01*
X127016666Y-80933333D01*
X127083333Y-80966667D01*
X127283333Y-80966667D01*
X127350000Y-80933333D01*
X127383333Y-80900000D01*
X131283333Y-72516667D02*
X131283333Y-73083333D01*
X131250000Y-73150000D01*
X131216667Y-73183333D01*
X131150000Y-73216667D01*
X131016667Y-73216667D01*
X130950000Y-73183333D01*
X130916667Y-73150000D01*
X130883333Y-73083333D01*
X130883333Y-72516667D01*
X130616667Y-72516667D02*
X130183334Y-72516667D01*
X130416667Y-72783333D01*
X130316667Y-72783333D01*
X130250000Y-72816667D01*
X130216667Y-72850000D01*
X130183334Y-72916667D01*
X130183334Y-73083333D01*
X130216667Y-73150000D01*
X130250000Y-73183333D01*
X130316667Y-73216667D01*
X130516667Y-73216667D01*
X130583334Y-73183333D01*
X130616667Y-73150000D01*
X151150000Y-73483334D02*
X151183333Y-73450000D01*
X151216667Y-73350000D01*
X151216667Y-73283334D01*
X151183333Y-73183334D01*
X151116667Y-73116667D01*
X151050000Y-73083334D01*
X150916667Y-73050000D01*
X150816667Y-73050000D01*
X150683333Y-73083334D01*
X150616667Y-73116667D01*
X150550000Y-73183334D01*
X150516667Y-73283334D01*
X150516667Y-73350000D01*
X150550000Y-73450000D01*
X150583333Y-73483334D01*
X151216667Y-74150000D02*
X151216667Y-73750000D01*
X151216667Y-73950000D02*
X150516667Y-73950000D01*
X150616667Y-73883334D01*
X150683333Y-73816667D01*
X150716667Y-73750000D01*
X125516666Y-68950000D02*
X125550000Y-68983333D01*
X125650000Y-69016667D01*
X125716666Y-69016667D01*
X125816666Y-68983333D01*
X125883333Y-68916667D01*
X125916666Y-68850000D01*
X125950000Y-68716667D01*
X125950000Y-68616667D01*
X125916666Y-68483333D01*
X125883333Y-68416667D01*
X125816666Y-68350000D01*
X125716666Y-68316667D01*
X125650000Y-68316667D01*
X125550000Y-68350000D01*
X125516666Y-68383333D01*
X125250000Y-68383333D02*
X125216666Y-68350000D01*
X125150000Y-68316667D01*
X124983333Y-68316667D01*
X124916666Y-68350000D01*
X124883333Y-68383333D01*
X124850000Y-68450000D01*
X124850000Y-68516667D01*
X124883333Y-68616667D01*
X125283333Y-69016667D01*
X124850000Y-69016667D01*
X153216666Y-81650000D02*
X153250000Y-81683333D01*
X153350000Y-81716667D01*
X153416666Y-81716667D01*
X153516666Y-81683333D01*
X153583333Y-81616667D01*
X153616666Y-81550000D01*
X153650000Y-81416667D01*
X153650000Y-81316667D01*
X153616666Y-81183333D01*
X153583333Y-81116667D01*
X153516666Y-81050000D01*
X153416666Y-81016667D01*
X153350000Y-81016667D01*
X153250000Y-81050000D01*
X153216666Y-81083333D01*
X152983333Y-81016667D02*
X152550000Y-81016667D01*
X152783333Y-81283333D01*
X152683333Y-81283333D01*
X152616666Y-81316667D01*
X152583333Y-81350000D01*
X152550000Y-81416667D01*
X152550000Y-81583333D01*
X152583333Y-81650000D01*
X152616666Y-81683333D01*
X152683333Y-81716667D01*
X152883333Y-81716667D01*
X152950000Y-81683333D01*
X152983333Y-81650000D01*
X152916666Y-75650000D02*
X152950000Y-75683333D01*
X153050000Y-75716667D01*
X153116666Y-75716667D01*
X153216666Y-75683333D01*
X153283333Y-75616667D01*
X153316666Y-75550000D01*
X153350000Y-75416667D01*
X153350000Y-75316667D01*
X153316666Y-75183333D01*
X153283333Y-75116667D01*
X153216666Y-75050000D01*
X153116666Y-75016667D01*
X153050000Y-75016667D01*
X152950000Y-75050000D01*
X152916666Y-75083333D01*
X152316666Y-75250000D02*
X152316666Y-75716667D01*
X152483333Y-74983333D02*
X152650000Y-75483333D01*
X152216666Y-75483333D01*
X150950000Y-69183334D02*
X150983333Y-69150000D01*
X151016667Y-69050000D01*
X151016667Y-68983334D01*
X150983333Y-68883334D01*
X150916667Y-68816667D01*
X150850000Y-68783334D01*
X150716667Y-68750000D01*
X150616667Y-68750000D01*
X150483333Y-68783334D01*
X150416667Y-68816667D01*
X150350000Y-68883334D01*
X150316667Y-68983334D01*
X150316667Y-69050000D01*
X150350000Y-69150000D01*
X150383333Y-69183334D01*
X150316667Y-69816667D02*
X150316667Y-69483334D01*
X150650000Y-69450000D01*
X150616667Y-69483334D01*
X150583333Y-69550000D01*
X150583333Y-69716667D01*
X150616667Y-69783334D01*
X150650000Y-69816667D01*
X150716667Y-69850000D01*
X150883333Y-69850000D01*
X150950000Y-69816667D01*
X150983333Y-69783334D01*
X151016667Y-69716667D01*
X151016667Y-69550000D01*
X150983333Y-69483334D01*
X150950000Y-69450000D01*
X163050000Y-69183334D02*
X163083333Y-69150000D01*
X163116667Y-69050000D01*
X163116667Y-68983334D01*
X163083333Y-68883334D01*
X163016667Y-68816667D01*
X162950000Y-68783334D01*
X162816667Y-68750000D01*
X162716667Y-68750000D01*
X162583333Y-68783334D01*
X162516667Y-68816667D01*
X162450000Y-68883334D01*
X162416667Y-68983334D01*
X162416667Y-69050000D01*
X162450000Y-69150000D01*
X162483333Y-69183334D01*
X162416667Y-69783334D02*
X162416667Y-69650000D01*
X162450000Y-69583334D01*
X162483333Y-69550000D01*
X162583333Y-69483334D01*
X162716667Y-69450000D01*
X162983333Y-69450000D01*
X163050000Y-69483334D01*
X163083333Y-69516667D01*
X163116667Y-69583334D01*
X163116667Y-69716667D01*
X163083333Y-69783334D01*
X163050000Y-69816667D01*
X162983333Y-69850000D01*
X162816667Y-69850000D01*
X162750000Y-69816667D01*
X162716667Y-69783334D01*
X162683333Y-69716667D01*
X162683333Y-69583334D01*
X162716667Y-69516667D01*
X162750000Y-69483334D01*
X162816667Y-69450000D01*
X163050000Y-71783334D02*
X163083333Y-71750000D01*
X163116667Y-71650000D01*
X163116667Y-71583334D01*
X163083333Y-71483334D01*
X163016667Y-71416667D01*
X162950000Y-71383334D01*
X162816667Y-71350000D01*
X162716667Y-71350000D01*
X162583333Y-71383334D01*
X162516667Y-71416667D01*
X162450000Y-71483334D01*
X162416667Y-71583334D01*
X162416667Y-71650000D01*
X162450000Y-71750000D01*
X162483333Y-71783334D01*
X162416667Y-72016667D02*
X162416667Y-72483334D01*
X163116667Y-72183334D01*
X104916666Y-88750000D02*
X104950000Y-88783333D01*
X105050000Y-88816667D01*
X105116666Y-88816667D01*
X105216666Y-88783333D01*
X105283333Y-88716667D01*
X105316666Y-88650000D01*
X105350000Y-88516667D01*
X105350000Y-88416667D01*
X105316666Y-88283333D01*
X105283333Y-88216667D01*
X105216666Y-88150000D01*
X105116666Y-88116667D01*
X105050000Y-88116667D01*
X104950000Y-88150000D01*
X104916666Y-88183333D01*
X104516666Y-88416667D02*
X104583333Y-88383333D01*
X104616666Y-88350000D01*
X104650000Y-88283333D01*
X104650000Y-88250000D01*
X104616666Y-88183333D01*
X104583333Y-88150000D01*
X104516666Y-88116667D01*
X104383333Y-88116667D01*
X104316666Y-88150000D01*
X104283333Y-88183333D01*
X104250000Y-88250000D01*
X104250000Y-88283333D01*
X104283333Y-88350000D01*
X104316666Y-88383333D01*
X104383333Y-88416667D01*
X104516666Y-88416667D01*
X104583333Y-88450000D01*
X104616666Y-88483333D01*
X104650000Y-88550000D01*
X104650000Y-88683333D01*
X104616666Y-88750000D01*
X104583333Y-88783333D01*
X104516666Y-88816667D01*
X104383333Y-88816667D01*
X104316666Y-88783333D01*
X104283333Y-88750000D01*
X104250000Y-88683333D01*
X104250000Y-88550000D01*
X104283333Y-88483333D01*
X104316666Y-88450000D01*
X104383333Y-88416667D01*
X110850000Y-89950000D02*
X110883333Y-89916666D01*
X110916667Y-89816666D01*
X110916667Y-89750000D01*
X110883333Y-89650000D01*
X110816667Y-89583333D01*
X110750000Y-89550000D01*
X110616667Y-89516666D01*
X110516667Y-89516666D01*
X110383333Y-89550000D01*
X110316667Y-89583333D01*
X110250000Y-89650000D01*
X110216667Y-89750000D01*
X110216667Y-89816666D01*
X110250000Y-89916666D01*
X110283333Y-89950000D01*
X110916667Y-90616666D02*
X110916667Y-90216666D01*
X110916667Y-90416666D02*
X110216667Y-90416666D01*
X110316667Y-90350000D01*
X110383333Y-90283333D01*
X110416667Y-90216666D01*
X110216667Y-91050000D02*
X110216667Y-91116667D01*
X110250000Y-91183333D01*
X110283333Y-91216667D01*
X110350000Y-91250000D01*
X110483333Y-91283333D01*
X110650000Y-91283333D01*
X110783333Y-91250000D01*
X110850000Y-91216667D01*
X110883333Y-91183333D01*
X110916667Y-91116667D01*
X110916667Y-91050000D01*
X110883333Y-90983333D01*
X110850000Y-90950000D01*
X110783333Y-90916667D01*
X110650000Y-90883333D01*
X110483333Y-90883333D01*
X110350000Y-90916667D01*
X110283333Y-90950000D01*
X110250000Y-90983333D01*
X110216667Y-91050000D01*
X110450000Y-80850000D02*
X110483334Y-80883333D01*
X110583334Y-80916667D01*
X110650000Y-80916667D01*
X110750000Y-80883333D01*
X110816667Y-80816667D01*
X110850000Y-80750000D01*
X110883334Y-80616667D01*
X110883334Y-80516667D01*
X110850000Y-80383333D01*
X110816667Y-80316667D01*
X110750000Y-80250000D01*
X110650000Y-80216667D01*
X110583334Y-80216667D01*
X110483334Y-80250000D01*
X110450000Y-80283333D01*
X109783334Y-80916667D02*
X110183334Y-80916667D01*
X109983334Y-80916667D02*
X109983334Y-80216667D01*
X110050000Y-80316667D01*
X110116667Y-80383333D01*
X110183334Y-80416667D01*
X109116667Y-80916667D02*
X109516667Y-80916667D01*
X109316667Y-80916667D02*
X109316667Y-80216667D01*
X109383333Y-80316667D01*
X109450000Y-80383333D01*
X109516667Y-80416667D01*
X113250000Y-87550000D02*
X113283333Y-87516666D01*
X113316667Y-87416666D01*
X113316667Y-87350000D01*
X113283333Y-87250000D01*
X113216667Y-87183333D01*
X113150000Y-87150000D01*
X113016667Y-87116666D01*
X112916667Y-87116666D01*
X112783333Y-87150000D01*
X112716667Y-87183333D01*
X112650000Y-87250000D01*
X112616667Y-87350000D01*
X112616667Y-87416666D01*
X112650000Y-87516666D01*
X112683333Y-87550000D01*
X113316667Y-88216666D02*
X113316667Y-87816666D01*
X113316667Y-88016666D02*
X112616667Y-88016666D01*
X112716667Y-87950000D01*
X112783333Y-87883333D01*
X112816667Y-87816666D01*
X112683333Y-88483333D02*
X112650000Y-88516667D01*
X112616667Y-88583333D01*
X112616667Y-88750000D01*
X112650000Y-88816667D01*
X112683333Y-88850000D01*
X112750000Y-88883333D01*
X112816667Y-88883333D01*
X112916667Y-88850000D01*
X113316667Y-88450000D01*
X113316667Y-88883333D01*
X114650000Y-76950000D02*
X114683334Y-76983333D01*
X114783334Y-77016667D01*
X114850000Y-77016667D01*
X114950000Y-76983333D01*
X115016667Y-76916667D01*
X115050000Y-76850000D01*
X115083334Y-76716667D01*
X115083334Y-76616667D01*
X115050000Y-76483333D01*
X115016667Y-76416667D01*
X114950000Y-76350000D01*
X114850000Y-76316667D01*
X114783334Y-76316667D01*
X114683334Y-76350000D01*
X114650000Y-76383333D01*
X113983334Y-77016667D02*
X114383334Y-77016667D01*
X114183334Y-77016667D02*
X114183334Y-76316667D01*
X114250000Y-76416667D01*
X114316667Y-76483333D01*
X114383334Y-76516667D01*
X113750000Y-76316667D02*
X113316667Y-76316667D01*
X113550000Y-76583333D01*
X113450000Y-76583333D01*
X113383333Y-76616667D01*
X113350000Y-76650000D01*
X113316667Y-76716667D01*
X113316667Y-76883333D01*
X113350000Y-76950000D01*
X113383333Y-76983333D01*
X113450000Y-77016667D01*
X113650000Y-77016667D01*
X113716667Y-76983333D01*
X113750000Y-76950000D01*
X122950000Y-79650000D02*
X122983333Y-79616666D01*
X123016667Y-79516666D01*
X123016667Y-79450000D01*
X122983333Y-79350000D01*
X122916667Y-79283333D01*
X122850000Y-79250000D01*
X122716667Y-79216666D01*
X122616667Y-79216666D01*
X122483333Y-79250000D01*
X122416667Y-79283333D01*
X122350000Y-79350000D01*
X122316667Y-79450000D01*
X122316667Y-79516666D01*
X122350000Y-79616666D01*
X122383333Y-79650000D01*
X123016667Y-80316666D02*
X123016667Y-79916666D01*
X123016667Y-80116666D02*
X122316667Y-80116666D01*
X122416667Y-80050000D01*
X122483333Y-79983333D01*
X122516667Y-79916666D01*
X122550000Y-80916667D02*
X123016667Y-80916667D01*
X122283333Y-80750000D02*
X122783333Y-80583333D01*
X122783333Y-81016667D01*
X121350000Y-89550000D02*
X121383334Y-89583333D01*
X121483334Y-89616667D01*
X121550000Y-89616667D01*
X121650000Y-89583333D01*
X121716667Y-89516667D01*
X121750000Y-89450000D01*
X121783334Y-89316667D01*
X121783334Y-89216667D01*
X121750000Y-89083333D01*
X121716667Y-89016667D01*
X121650000Y-88950000D01*
X121550000Y-88916667D01*
X121483334Y-88916667D01*
X121383334Y-88950000D01*
X121350000Y-88983333D01*
X120683334Y-89616667D02*
X121083334Y-89616667D01*
X120883334Y-89616667D02*
X120883334Y-88916667D01*
X120950000Y-89016667D01*
X121016667Y-89083333D01*
X121083334Y-89116667D01*
X120050000Y-88916667D02*
X120383333Y-88916667D01*
X120416667Y-89250000D01*
X120383333Y-89216667D01*
X120316667Y-89183333D01*
X120150000Y-89183333D01*
X120083333Y-89216667D01*
X120050000Y-89250000D01*
X120016667Y-89316667D01*
X120016667Y-89483333D01*
X120050000Y-89550000D01*
X120083333Y-89583333D01*
X120150000Y-89616667D01*
X120316667Y-89616667D01*
X120383333Y-89583333D01*
X120416667Y-89550000D01*
X145450000Y-70350000D02*
X145483334Y-70383333D01*
X145583334Y-70416667D01*
X145650000Y-70416667D01*
X145750000Y-70383333D01*
X145816667Y-70316667D01*
X145850000Y-70250000D01*
X145883334Y-70116667D01*
X145883334Y-70016667D01*
X145850000Y-69883333D01*
X145816667Y-69816667D01*
X145750000Y-69750000D01*
X145650000Y-69716667D01*
X145583334Y-69716667D01*
X145483334Y-69750000D01*
X145450000Y-69783333D01*
X144783334Y-70416667D02*
X145183334Y-70416667D01*
X144983334Y-70416667D02*
X144983334Y-69716667D01*
X145050000Y-69816667D01*
X145116667Y-69883333D01*
X145183334Y-69916667D01*
X144183333Y-69716667D02*
X144316667Y-69716667D01*
X144383333Y-69750000D01*
X144416667Y-69783333D01*
X144483333Y-69883333D01*
X144516667Y-70016667D01*
X144516667Y-70283333D01*
X144483333Y-70350000D01*
X144450000Y-70383333D01*
X144383333Y-70416667D01*
X144250000Y-70416667D01*
X144183333Y-70383333D01*
X144150000Y-70350000D01*
X144116667Y-70283333D01*
X144116667Y-70116667D01*
X144150000Y-70050000D01*
X144183333Y-70016667D01*
X144250000Y-69983333D01*
X144383333Y-69983333D01*
X144450000Y-70016667D01*
X144483333Y-70050000D01*
X144516667Y-70116667D01*
X143150000Y-70450000D02*
X143183334Y-70483333D01*
X143283334Y-70516667D01*
X143350000Y-70516667D01*
X143450000Y-70483333D01*
X143516667Y-70416667D01*
X143550000Y-70350000D01*
X143583334Y-70216667D01*
X143583334Y-70116667D01*
X143550000Y-69983333D01*
X143516667Y-69916667D01*
X143450000Y-69850000D01*
X143350000Y-69816667D01*
X143283334Y-69816667D01*
X143183334Y-69850000D01*
X143150000Y-69883333D01*
X142483334Y-70516667D02*
X142883334Y-70516667D01*
X142683334Y-70516667D02*
X142683334Y-69816667D01*
X142750000Y-69916667D01*
X142816667Y-69983333D01*
X142883334Y-70016667D01*
X142250000Y-69816667D02*
X141783333Y-69816667D01*
X142083333Y-70516667D01*
X144550000Y-73650000D02*
X144583334Y-73683333D01*
X144683334Y-73716667D01*
X144750000Y-73716667D01*
X144850000Y-73683333D01*
X144916667Y-73616667D01*
X144950000Y-73550000D01*
X144983334Y-73416667D01*
X144983334Y-73316667D01*
X144950000Y-73183333D01*
X144916667Y-73116667D01*
X144850000Y-73050000D01*
X144750000Y-73016667D01*
X144683334Y-73016667D01*
X144583334Y-73050000D01*
X144550000Y-73083333D01*
X143883334Y-73716667D02*
X144283334Y-73716667D01*
X144083334Y-73716667D02*
X144083334Y-73016667D01*
X144150000Y-73116667D01*
X144216667Y-73183333D01*
X144283334Y-73216667D01*
X143483333Y-73316667D02*
X143550000Y-73283333D01*
X143583333Y-73250000D01*
X143616667Y-73183333D01*
X143616667Y-73150000D01*
X143583333Y-73083333D01*
X143550000Y-73050000D01*
X143483333Y-73016667D01*
X143350000Y-73016667D01*
X143283333Y-73050000D01*
X143250000Y-73083333D01*
X143216667Y-73150000D01*
X143216667Y-73183333D01*
X143250000Y-73250000D01*
X143283333Y-73283333D01*
X143350000Y-73316667D01*
X143483333Y-73316667D01*
X143550000Y-73350000D01*
X143583333Y-73383333D01*
X143616667Y-73450000D01*
X143616667Y-73583333D01*
X143583333Y-73650000D01*
X143550000Y-73683333D01*
X143483333Y-73716667D01*
X143350000Y-73716667D01*
X143283333Y-73683333D01*
X143250000Y-73650000D01*
X143216667Y-73583333D01*
X143216667Y-73450000D01*
X143250000Y-73383333D01*
X143283333Y-73350000D01*
X143350000Y-73316667D01*
X139750000Y-69250000D02*
X139783334Y-69283333D01*
X139883334Y-69316667D01*
X139950000Y-69316667D01*
X140050000Y-69283333D01*
X140116667Y-69216667D01*
X140150000Y-69150000D01*
X140183334Y-69016667D01*
X140183334Y-68916667D01*
X140150000Y-68783333D01*
X140116667Y-68716667D01*
X140050000Y-68650000D01*
X139950000Y-68616667D01*
X139883334Y-68616667D01*
X139783334Y-68650000D01*
X139750000Y-68683333D01*
X139083334Y-69316667D02*
X139483334Y-69316667D01*
X139283334Y-69316667D02*
X139283334Y-68616667D01*
X139350000Y-68716667D01*
X139416667Y-68783333D01*
X139483334Y-68816667D01*
X138750000Y-69316667D02*
X138616667Y-69316667D01*
X138550000Y-69283333D01*
X138516667Y-69250000D01*
X138450000Y-69150000D01*
X138416667Y-69016667D01*
X138416667Y-68750000D01*
X138450000Y-68683333D01*
X138483333Y-68650000D01*
X138550000Y-68616667D01*
X138683333Y-68616667D01*
X138750000Y-68650000D01*
X138783333Y-68683333D01*
X138816667Y-68750000D01*
X138816667Y-68916667D01*
X138783333Y-68983333D01*
X138750000Y-69016667D01*
X138683333Y-69050000D01*
X138550000Y-69050000D01*
X138483333Y-69016667D01*
X138450000Y-68983333D01*
X138416667Y-68916667D01*
X137800000Y-82650000D02*
X137833333Y-82616666D01*
X137866667Y-82516666D01*
X137866667Y-82450000D01*
X137833333Y-82350000D01*
X137766667Y-82283333D01*
X137700000Y-82250000D01*
X137566667Y-82216666D01*
X137466667Y-82216666D01*
X137333333Y-82250000D01*
X137266667Y-82283333D01*
X137200000Y-82350000D01*
X137166667Y-82450000D01*
X137166667Y-82516666D01*
X137200000Y-82616666D01*
X137233333Y-82650000D01*
X137233333Y-82916666D02*
X137200000Y-82950000D01*
X137166667Y-83016666D01*
X137166667Y-83183333D01*
X137200000Y-83250000D01*
X137233333Y-83283333D01*
X137300000Y-83316666D01*
X137366667Y-83316666D01*
X137466667Y-83283333D01*
X137866667Y-82883333D01*
X137866667Y-83316666D01*
X137166667Y-83750000D02*
X137166667Y-83816667D01*
X137200000Y-83883333D01*
X137233333Y-83916667D01*
X137300000Y-83950000D01*
X137433333Y-83983333D01*
X137600000Y-83983333D01*
X137733333Y-83950000D01*
X137800000Y-83916667D01*
X137833333Y-83883333D01*
X137866667Y-83816667D01*
X137866667Y-83750000D01*
X137833333Y-83683333D01*
X137800000Y-83650000D01*
X137733333Y-83616667D01*
X137600000Y-83583333D01*
X137433333Y-83583333D01*
X137300000Y-83616667D01*
X137233333Y-83650000D01*
X137200000Y-83683333D01*
X137166667Y-83750000D01*
X122250000Y-92550000D02*
X122283334Y-92583333D01*
X122383334Y-92616667D01*
X122450000Y-92616667D01*
X122550000Y-92583333D01*
X122616667Y-92516667D01*
X122650000Y-92450000D01*
X122683334Y-92316667D01*
X122683334Y-92216667D01*
X122650000Y-92083333D01*
X122616667Y-92016667D01*
X122550000Y-91950000D01*
X122450000Y-91916667D01*
X122383334Y-91916667D01*
X122283334Y-91950000D01*
X122250000Y-91983333D01*
X121983334Y-91983333D02*
X121950000Y-91950000D01*
X121883334Y-91916667D01*
X121716667Y-91916667D01*
X121650000Y-91950000D01*
X121616667Y-91983333D01*
X121583334Y-92050000D01*
X121583334Y-92116667D01*
X121616667Y-92216667D01*
X122016667Y-92616667D01*
X121583334Y-92616667D01*
X120916667Y-92616667D02*
X121316667Y-92616667D01*
X121116667Y-92616667D02*
X121116667Y-91916667D01*
X121183333Y-92016667D01*
X121250000Y-92083333D01*
X121316667Y-92116667D01*
X122350000Y-99350000D02*
X122383334Y-99383333D01*
X122483334Y-99416667D01*
X122550000Y-99416667D01*
X122650000Y-99383333D01*
X122716667Y-99316667D01*
X122750000Y-99250000D01*
X122783334Y-99116667D01*
X122783334Y-99016667D01*
X122750000Y-98883333D01*
X122716667Y-98816667D01*
X122650000Y-98750000D01*
X122550000Y-98716667D01*
X122483334Y-98716667D01*
X122383334Y-98750000D01*
X122350000Y-98783333D01*
X122083334Y-98783333D02*
X122050000Y-98750000D01*
X121983334Y-98716667D01*
X121816667Y-98716667D01*
X121750000Y-98750000D01*
X121716667Y-98783333D01*
X121683334Y-98850000D01*
X121683334Y-98916667D01*
X121716667Y-99016667D01*
X122116667Y-99416667D01*
X121683334Y-99416667D01*
X121416667Y-98783333D02*
X121383333Y-98750000D01*
X121316667Y-98716667D01*
X121150000Y-98716667D01*
X121083333Y-98750000D01*
X121050000Y-98783333D01*
X121016667Y-98850000D01*
X121016667Y-98916667D01*
X121050000Y-99016667D01*
X121450000Y-99416667D01*
X121016667Y-99416667D01*
X114550000Y-71850000D02*
X114583333Y-71816666D01*
X114616667Y-71716666D01*
X114616667Y-71650000D01*
X114583333Y-71550000D01*
X114516667Y-71483333D01*
X114450000Y-71450000D01*
X114316667Y-71416666D01*
X114216667Y-71416666D01*
X114083333Y-71450000D01*
X114016667Y-71483333D01*
X113950000Y-71550000D01*
X113916667Y-71650000D01*
X113916667Y-71716666D01*
X113950000Y-71816666D01*
X113983333Y-71850000D01*
X113983333Y-72116666D02*
X113950000Y-72150000D01*
X113916667Y-72216666D01*
X113916667Y-72383333D01*
X113950000Y-72450000D01*
X113983333Y-72483333D01*
X114050000Y-72516666D01*
X114116667Y-72516666D01*
X114216667Y-72483333D01*
X114616667Y-72083333D01*
X114616667Y-72516666D01*
X113916667Y-72750000D02*
X113916667Y-73183333D01*
X114183333Y-72950000D01*
X114183333Y-73050000D01*
X114216667Y-73116667D01*
X114250000Y-73150000D01*
X114316667Y-73183333D01*
X114483333Y-73183333D01*
X114550000Y-73150000D01*
X114583333Y-73116667D01*
X114616667Y-73050000D01*
X114616667Y-72850000D01*
X114583333Y-72783333D01*
X114550000Y-72750000D01*
X121350000Y-74350000D02*
X121383333Y-74316666D01*
X121416667Y-74216666D01*
X121416667Y-74150000D01*
X121383333Y-74050000D01*
X121316667Y-73983333D01*
X121250000Y-73950000D01*
X121116667Y-73916666D01*
X121016667Y-73916666D01*
X120883333Y-73950000D01*
X120816667Y-73983333D01*
X120750000Y-74050000D01*
X120716667Y-74150000D01*
X120716667Y-74216666D01*
X120750000Y-74316666D01*
X120783333Y-74350000D01*
X120783333Y-74616666D02*
X120750000Y-74650000D01*
X120716667Y-74716666D01*
X120716667Y-74883333D01*
X120750000Y-74950000D01*
X120783333Y-74983333D01*
X120850000Y-75016666D01*
X120916667Y-75016666D01*
X121016667Y-74983333D01*
X121416667Y-74583333D01*
X121416667Y-75016666D01*
X120950000Y-75616667D02*
X121416667Y-75616667D01*
X120683333Y-75450000D02*
X121183333Y-75283333D01*
X121183333Y-75716667D01*
X111850000Y-82150000D02*
X111883333Y-82116666D01*
X111916667Y-82016666D01*
X111916667Y-81950000D01*
X111883333Y-81850000D01*
X111816667Y-81783333D01*
X111750000Y-81750000D01*
X111616667Y-81716666D01*
X111516667Y-81716666D01*
X111383333Y-81750000D01*
X111316667Y-81783333D01*
X111250000Y-81850000D01*
X111216667Y-81950000D01*
X111216667Y-82016666D01*
X111250000Y-82116666D01*
X111283333Y-82150000D01*
X111283333Y-82416666D02*
X111250000Y-82450000D01*
X111216667Y-82516666D01*
X111216667Y-82683333D01*
X111250000Y-82750000D01*
X111283333Y-82783333D01*
X111350000Y-82816666D01*
X111416667Y-82816666D01*
X111516667Y-82783333D01*
X111916667Y-82383333D01*
X111916667Y-82816666D01*
X111216667Y-83450000D02*
X111216667Y-83116667D01*
X111550000Y-83083333D01*
X111516667Y-83116667D01*
X111483333Y-83183333D01*
X111483333Y-83350000D01*
X111516667Y-83416667D01*
X111550000Y-83450000D01*
X111616667Y-83483333D01*
X111783333Y-83483333D01*
X111850000Y-83450000D01*
X111883333Y-83416667D01*
X111916667Y-83350000D01*
X111916667Y-83183333D01*
X111883333Y-83116667D01*
X111850000Y-83083333D01*
X103050000Y-82900001D02*
X103083333Y-82866667D01*
X103116667Y-82766667D01*
X103116667Y-82700001D01*
X103083333Y-82600001D01*
X103016667Y-82533334D01*
X102950000Y-82500001D01*
X102816667Y-82466667D01*
X102716667Y-82466667D01*
X102583333Y-82500001D01*
X102516667Y-82533334D01*
X102450000Y-82600001D01*
X102416667Y-82700001D01*
X102416667Y-82766667D01*
X102450000Y-82866667D01*
X102483333Y-82900001D01*
X102416667Y-83333334D02*
X102416667Y-83466667D01*
X102450000Y-83533334D01*
X102516667Y-83600001D01*
X102650000Y-83633334D01*
X102883333Y-83633334D01*
X103016667Y-83600001D01*
X103083333Y-83533334D01*
X103116667Y-83466667D01*
X103116667Y-83333334D01*
X103083333Y-83266667D01*
X103016667Y-83200001D01*
X102883333Y-83166667D01*
X102650000Y-83166667D01*
X102516667Y-83200001D01*
X102450000Y-83266667D01*
X102416667Y-83333334D01*
X103116667Y-83933334D02*
X102416667Y-83933334D01*
X103116667Y-84333334D01*
X102416667Y-84333334D01*
X103116667Y-85033333D02*
X103116667Y-84633333D01*
X103116667Y-84833333D02*
X102416667Y-84833333D01*
X102516667Y-84766667D01*
X102583333Y-84700000D01*
X102616667Y-84633333D01*
X109883333Y-86350000D02*
X110116666Y-86350000D01*
X110116666Y-86716667D02*
X110116666Y-86016667D01*
X109783333Y-86016667D01*
X109283333Y-86350000D02*
X109183333Y-86383333D01*
X109150000Y-86416667D01*
X109116666Y-86483333D01*
X109116666Y-86583333D01*
X109150000Y-86650000D01*
X109183333Y-86683333D01*
X109250000Y-86716667D01*
X109516666Y-86716667D01*
X109516666Y-86016667D01*
X109283333Y-86016667D01*
X109216666Y-86050000D01*
X109183333Y-86083333D01*
X109150000Y-86150000D01*
X109150000Y-86216667D01*
X109183333Y-86283333D01*
X109216666Y-86316667D01*
X109283333Y-86350000D01*
X109516666Y-86350000D01*
X108450000Y-86716667D02*
X108850000Y-86716667D01*
X108650000Y-86716667D02*
X108650000Y-86016667D01*
X108716666Y-86116667D01*
X108783333Y-86183333D01*
X108850000Y-86216667D01*
X112116666Y-74516667D02*
X112350000Y-74183333D01*
X112516666Y-74516667D02*
X112516666Y-73816667D01*
X112250000Y-73816667D01*
X112183333Y-73850000D01*
X112150000Y-73883333D01*
X112116666Y-73950000D01*
X112116666Y-74050000D01*
X112150000Y-74116667D01*
X112183333Y-74150000D01*
X112250000Y-74183333D01*
X112516666Y-74183333D01*
X111450000Y-74516667D02*
X111850000Y-74516667D01*
X111650000Y-74516667D02*
X111650000Y-73816667D01*
X111716666Y-73916667D01*
X111783333Y-73983333D01*
X111850000Y-74016667D01*
X132616666Y-69016667D02*
X132850000Y-68683333D01*
X133016666Y-69016667D02*
X133016666Y-68316667D01*
X132750000Y-68316667D01*
X132683333Y-68350000D01*
X132650000Y-68383333D01*
X132616666Y-68450000D01*
X132616666Y-68550000D01*
X132650000Y-68616667D01*
X132683333Y-68650000D01*
X132750000Y-68683333D01*
X133016666Y-68683333D01*
X132350000Y-68383333D02*
X132316666Y-68350000D01*
X132250000Y-68316667D01*
X132083333Y-68316667D01*
X132016666Y-68350000D01*
X131983333Y-68383333D01*
X131950000Y-68450000D01*
X131950000Y-68516667D01*
X131983333Y-68616667D01*
X132383333Y-69016667D01*
X131950000Y-69016667D01*
X134866666Y-81116667D02*
X135100000Y-80783333D01*
X135266666Y-81116667D02*
X135266666Y-80416667D01*
X135000000Y-80416667D01*
X134933333Y-80450000D01*
X134900000Y-80483333D01*
X134866666Y-80550000D01*
X134866666Y-80650000D01*
X134900000Y-80716667D01*
X134933333Y-80750000D01*
X135000000Y-80783333D01*
X135266666Y-80783333D01*
X134266666Y-80650000D02*
X134266666Y-81116667D01*
X134433333Y-80383333D02*
X134600000Y-80883333D01*
X134166666Y-80883333D01*
X114116666Y-78216667D02*
X114350000Y-77883333D01*
X114516666Y-78216667D02*
X114516666Y-77516667D01*
X114250000Y-77516667D01*
X114183333Y-77550000D01*
X114150000Y-77583333D01*
X114116666Y-77650000D01*
X114116666Y-77750000D01*
X114150000Y-77816667D01*
X114183333Y-77850000D01*
X114250000Y-77883333D01*
X114516666Y-77883333D01*
X113483333Y-77516667D02*
X113816666Y-77516667D01*
X113850000Y-77850000D01*
X113816666Y-77816667D01*
X113750000Y-77783333D01*
X113583333Y-77783333D01*
X113516666Y-77816667D01*
X113483333Y-77850000D01*
X113450000Y-77916667D01*
X113450000Y-78083333D01*
X113483333Y-78150000D01*
X113516666Y-78183333D01*
X113583333Y-78216667D01*
X113750000Y-78216667D01*
X113816666Y-78183333D01*
X113850000Y-78150000D01*
X111616666Y-84516667D02*
X111850000Y-84183333D01*
X112016666Y-84516667D02*
X112016666Y-83816667D01*
X111750000Y-83816667D01*
X111683333Y-83850000D01*
X111650000Y-83883333D01*
X111616666Y-83950000D01*
X111616666Y-84050000D01*
X111650000Y-84116667D01*
X111683333Y-84150000D01*
X111750000Y-84183333D01*
X112016666Y-84183333D01*
X111383333Y-83816667D02*
X110916666Y-83816667D01*
X111216666Y-84516667D01*
X111716666Y-85716667D02*
X111950000Y-85383333D01*
X112116666Y-85716667D02*
X112116666Y-85016667D01*
X111850000Y-85016667D01*
X111783333Y-85050000D01*
X111750000Y-85083333D01*
X111716666Y-85150000D01*
X111716666Y-85250000D01*
X111750000Y-85316667D01*
X111783333Y-85350000D01*
X111850000Y-85383333D01*
X112116666Y-85383333D01*
X111316666Y-85316667D02*
X111383333Y-85283333D01*
X111416666Y-85250000D01*
X111450000Y-85183333D01*
X111450000Y-85150000D01*
X111416666Y-85083333D01*
X111383333Y-85050000D01*
X111316666Y-85016667D01*
X111183333Y-85016667D01*
X111116666Y-85050000D01*
X111083333Y-85083333D01*
X111050000Y-85150000D01*
X111050000Y-85183333D01*
X111083333Y-85250000D01*
X111116666Y-85283333D01*
X111183333Y-85316667D01*
X111316666Y-85316667D01*
X111383333Y-85350000D01*
X111416666Y-85383333D01*
X111450000Y-85450000D01*
X111450000Y-85583333D01*
X111416666Y-85650000D01*
X111383333Y-85683333D01*
X111316666Y-85716667D01*
X111183333Y-85716667D01*
X111116666Y-85683333D01*
X111083333Y-85650000D01*
X111050000Y-85583333D01*
X111050000Y-85450000D01*
X111083333Y-85383333D01*
X111116666Y-85350000D01*
X111183333Y-85316667D01*
X107683333Y-83766667D02*
X107683333Y-84333333D01*
X107650000Y-84400000D01*
X107616667Y-84433333D01*
X107550000Y-84466667D01*
X107416667Y-84466667D01*
X107350000Y-84433333D01*
X107316667Y-84400000D01*
X107283333Y-84333333D01*
X107283333Y-83766667D01*
X106583334Y-84466667D02*
X106983334Y-84466667D01*
X106783334Y-84466667D02*
X106783334Y-83766667D01*
X106850000Y-83866667D01*
X106916667Y-83933333D01*
X106983334Y-83966667D01*
X157233333Y-70366667D02*
X157233333Y-70933333D01*
X157200000Y-71000000D01*
X157166667Y-71033333D01*
X157100000Y-71066667D01*
X156966667Y-71066667D01*
X156900000Y-71033333D01*
X156866667Y-71000000D01*
X156833333Y-70933333D01*
X156833333Y-70366667D01*
X156533334Y-70433333D02*
X156500000Y-70400000D01*
X156433334Y-70366667D01*
X156266667Y-70366667D01*
X156200000Y-70400000D01*
X156166667Y-70433333D01*
X156133334Y-70500000D01*
X156133334Y-70566667D01*
X156166667Y-70666667D01*
X156566667Y-71066667D01*
X156133334Y-71066667D01*
X144883333Y-82766667D02*
X144883333Y-83333333D01*
X144850000Y-83400000D01*
X144816667Y-83433333D01*
X144750000Y-83466667D01*
X144616667Y-83466667D01*
X144550000Y-83433333D01*
X144516667Y-83400000D01*
X144483333Y-83333333D01*
X144483333Y-82766667D01*
X143816667Y-82766667D02*
X144150000Y-82766667D01*
X144183334Y-83100000D01*
X144150000Y-83066667D01*
X144083334Y-83033333D01*
X143916667Y-83033333D01*
X143850000Y-83066667D01*
X143816667Y-83100000D01*
X143783334Y-83166667D01*
X143783334Y-83333333D01*
X143816667Y-83400000D01*
X143850000Y-83433333D01*
X143916667Y-83466667D01*
X144083334Y-83466667D01*
X144150000Y-83433333D01*
X144183334Y-83400000D01*
X116883333Y-82766667D02*
X116883333Y-83333333D01*
X116850000Y-83400000D01*
X116816667Y-83433333D01*
X116750000Y-83466667D01*
X116616667Y-83466667D01*
X116550000Y-83433333D01*
X116516667Y-83400000D01*
X116483333Y-83333333D01*
X116483333Y-82766667D01*
X115850000Y-82766667D02*
X115983334Y-82766667D01*
X116050000Y-82800000D01*
X116083334Y-82833333D01*
X116150000Y-82933333D01*
X116183334Y-83066667D01*
X116183334Y-83333333D01*
X116150000Y-83400000D01*
X116116667Y-83433333D01*
X116050000Y-83466667D01*
X115916667Y-83466667D01*
X115850000Y-83433333D01*
X115816667Y-83400000D01*
X115783334Y-83333333D01*
X115783334Y-83166667D01*
X115816667Y-83100000D01*
X115850000Y-83066667D01*
X115916667Y-83033333D01*
X116050000Y-83033333D01*
X116116667Y-83066667D01*
X116150000Y-83100000D01*
X116183334Y-83166667D01*
X117666667Y-72016667D02*
X117200000Y-72716667D01*
X117200000Y-72016667D02*
X117666667Y-72716667D01*
X116566667Y-72716667D02*
X116966667Y-72716667D01*
X116766667Y-72716667D02*
X116766667Y-72016667D01*
X116833333Y-72116667D01*
X116900000Y-72183333D01*
X116966667Y-72216667D01*
X120016667Y-68983334D02*
X119316667Y-68983334D01*
X119316667Y-69150000D01*
X119350000Y-69250000D01*
X119416667Y-69316667D01*
X119483333Y-69350000D01*
X119616667Y-69383334D01*
X119716667Y-69383334D01*
X119850000Y-69350000D01*
X119916667Y-69316667D01*
X119983333Y-69250000D01*
X120016667Y-69150000D01*
X120016667Y-68983334D01*
X120016667Y-70050000D02*
X120016667Y-69650000D01*
X120016667Y-69850000D02*
X119316667Y-69850000D01*
X119416667Y-69783334D01*
X119483333Y-69716667D01*
X119516667Y-69650000D01*
X151883333Y-83733333D02*
X151850000Y-83666667D01*
X151783333Y-83600000D01*
X151683333Y-83500000D01*
X151650000Y-83433333D01*
X151650000Y-83366667D01*
X151816667Y-83400000D02*
X151783333Y-83333333D01*
X151716667Y-83266667D01*
X151583333Y-83233333D01*
X151350000Y-83233333D01*
X151216667Y-83266667D01*
X151150000Y-83333333D01*
X151116667Y-83400000D01*
X151116667Y-83533333D01*
X151150000Y-83600000D01*
X151216667Y-83666667D01*
X151350000Y-83700000D01*
X151583333Y-83700000D01*
X151716667Y-83666667D01*
X151783333Y-83600000D01*
X151816667Y-83533333D01*
X151816667Y-83400000D01*
X151816667Y-84366666D02*
X151816667Y-83966666D01*
X151816667Y-84166666D02*
X151116667Y-84166666D01*
X151216667Y-84100000D01*
X151283333Y-84033333D01*
X151316667Y-83966666D01*
X109283333Y-75333333D02*
X109250000Y-75266667D01*
X109183333Y-75200000D01*
X109083333Y-75100000D01*
X109050000Y-75033333D01*
X109050000Y-74966667D01*
X109216667Y-75000000D02*
X109183333Y-74933333D01*
X109116667Y-74866667D01*
X108983333Y-74833333D01*
X108750000Y-74833333D01*
X108616667Y-74866667D01*
X108550000Y-74933333D01*
X108516667Y-75000000D01*
X108516667Y-75133333D01*
X108550000Y-75200000D01*
X108616667Y-75266667D01*
X108750000Y-75300000D01*
X108983333Y-75300000D01*
X109116667Y-75266667D01*
X109183333Y-75200000D01*
X109216667Y-75133333D01*
X109216667Y-75000000D01*
X108583333Y-75566666D02*
X108550000Y-75600000D01*
X108516667Y-75666666D01*
X108516667Y-75833333D01*
X108550000Y-75900000D01*
X108583333Y-75933333D01*
X108650000Y-75966666D01*
X108716667Y-75966666D01*
X108816667Y-75933333D01*
X109216667Y-75533333D01*
X109216667Y-75966666D01*
X122283333Y-95583333D02*
X122250000Y-95516667D01*
X122183333Y-95450000D01*
X122083333Y-95350000D01*
X122050000Y-95283333D01*
X122050000Y-95216667D01*
X122216667Y-95250000D02*
X122183333Y-95183333D01*
X122116667Y-95116667D01*
X121983333Y-95083333D01*
X121750000Y-95083333D01*
X121616667Y-95116667D01*
X121550000Y-95183333D01*
X121516667Y-95250000D01*
X121516667Y-95383333D01*
X121550000Y-95450000D01*
X121616667Y-95516667D01*
X121750000Y-95550000D01*
X121983333Y-95550000D01*
X122116667Y-95516667D01*
X122183333Y-95450000D01*
X122216667Y-95383333D01*
X122216667Y-95250000D01*
X121516667Y-95783333D02*
X121516667Y-96216666D01*
X121783333Y-95983333D01*
X121783333Y-96083333D01*
X121816667Y-96150000D01*
X121850000Y-96183333D01*
X121916667Y-96216666D01*
X122083333Y-96216666D01*
X122150000Y-96183333D01*
X122183333Y-96150000D01*
X122216667Y-96083333D01*
X122216667Y-95883333D01*
X122183333Y-95816666D01*
X122150000Y-95783333D01*
X117916667Y-96383334D02*
X117583333Y-96150000D01*
X117916667Y-95983334D02*
X117216667Y-95983334D01*
X117216667Y-96250000D01*
X117250000Y-96316667D01*
X117283333Y-96350000D01*
X117350000Y-96383334D01*
X117450000Y-96383334D01*
X117516667Y-96350000D01*
X117550000Y-96316667D01*
X117583333Y-96250000D01*
X117583333Y-95983334D01*
X117216667Y-96983334D02*
X117216667Y-96850000D01*
X117250000Y-96783334D01*
X117283333Y-96750000D01*
X117383333Y-96683334D01*
X117516667Y-96650000D01*
X117783333Y-96650000D01*
X117850000Y-96683334D01*
X117883333Y-96716667D01*
X117916667Y-96783334D01*
X117916667Y-96916667D01*
X117883333Y-96983334D01*
X117850000Y-97016667D01*
X117783333Y-97050000D01*
X117616667Y-97050000D01*
X117550000Y-97016667D01*
X117516667Y-96983334D01*
X117483333Y-96916667D01*
X117483333Y-96783334D01*
X117516667Y-96716667D01*
X117550000Y-96683334D01*
X117616667Y-96650000D01*
X156283333Y-78733333D02*
X156250000Y-78666667D01*
X156183333Y-78600000D01*
X156083333Y-78500000D01*
X156050000Y-78433333D01*
X156050000Y-78366667D01*
X156216667Y-78400000D02*
X156183333Y-78333333D01*
X156116667Y-78266667D01*
X155983333Y-78233333D01*
X155750000Y-78233333D01*
X155616667Y-78266667D01*
X155550000Y-78333333D01*
X155516667Y-78400000D01*
X155516667Y-78533333D01*
X155550000Y-78600000D01*
X155616667Y-78666667D01*
X155750000Y-78700000D01*
X155983333Y-78700000D01*
X156116667Y-78666667D01*
X156183333Y-78600000D01*
X156216667Y-78533333D01*
X156216667Y-78400000D01*
X155750000Y-79300000D02*
X156216667Y-79300000D01*
X155483333Y-79133333D02*
X155983333Y-78966666D01*
X155983333Y-79400000D01*
X115916667Y-88883334D02*
X115583333Y-88650000D01*
X115916667Y-88483334D02*
X115216667Y-88483334D01*
X115216667Y-88750000D01*
X115250000Y-88816667D01*
X115283333Y-88850000D01*
X115350000Y-88883334D01*
X115450000Y-88883334D01*
X115516667Y-88850000D01*
X115550000Y-88816667D01*
X115583333Y-88750000D01*
X115583333Y-88483334D01*
X115916667Y-89216667D02*
X115916667Y-89350000D01*
X115883333Y-89416667D01*
X115850000Y-89450000D01*
X115750000Y-89516667D01*
X115616667Y-89550000D01*
X115350000Y-89550000D01*
X115283333Y-89516667D01*
X115250000Y-89483334D01*
X115216667Y-89416667D01*
X115216667Y-89283334D01*
X115250000Y-89216667D01*
X115283333Y-89183334D01*
X115350000Y-89150000D01*
X115516667Y-89150000D01*
X115583333Y-89183334D01*
X115616667Y-89216667D01*
X115650000Y-89283334D01*
X115650000Y-89416667D01*
X115616667Y-89483334D01*
X115583333Y-89516667D01*
X115516667Y-89550000D01*
X146450000Y-88816667D02*
X146683334Y-88483333D01*
X146850000Y-88816667D02*
X146850000Y-88116667D01*
X146583334Y-88116667D01*
X146516667Y-88150000D01*
X146483334Y-88183333D01*
X146450000Y-88250000D01*
X146450000Y-88350000D01*
X146483334Y-88416667D01*
X146516667Y-88450000D01*
X146583334Y-88483333D01*
X146850000Y-88483333D01*
X145783334Y-88816667D02*
X146183334Y-88816667D01*
X145983334Y-88816667D02*
X145983334Y-88116667D01*
X146050000Y-88216667D01*
X146116667Y-88283333D01*
X146183334Y-88316667D01*
X145350000Y-88116667D02*
X145283333Y-88116667D01*
X145216667Y-88150000D01*
X145183333Y-88183333D01*
X145150000Y-88250000D01*
X145116667Y-88383333D01*
X145116667Y-88550000D01*
X145150000Y-88683333D01*
X145183333Y-88750000D01*
X145216667Y-88783333D01*
X145283333Y-88816667D01*
X145350000Y-88816667D01*
X145416667Y-88783333D01*
X145450000Y-88750000D01*
X145483333Y-88683333D01*
X145516667Y-88550000D01*
X145516667Y-88383333D01*
X145483333Y-88250000D01*
X145450000Y-88183333D01*
X145416667Y-88150000D01*
X145350000Y-88116667D01*
X157416667Y-87050000D02*
X157083333Y-86816666D01*
X157416667Y-86650000D02*
X156716667Y-86650000D01*
X156716667Y-86916666D01*
X156750000Y-86983333D01*
X156783333Y-87016666D01*
X156850000Y-87050000D01*
X156950000Y-87050000D01*
X157016667Y-87016666D01*
X157050000Y-86983333D01*
X157083333Y-86916666D01*
X157083333Y-86650000D01*
X157416667Y-87716666D02*
X157416667Y-87316666D01*
X157416667Y-87516666D02*
X156716667Y-87516666D01*
X156816667Y-87450000D01*
X156883333Y-87383333D01*
X156916667Y-87316666D01*
X157416667Y-88383333D02*
X157416667Y-87983333D01*
X157416667Y-88183333D02*
X156716667Y-88183333D01*
X156816667Y-88116667D01*
X156883333Y-88050000D01*
X156916667Y-87983333D01*
X147200000Y-79666667D02*
X147433334Y-79333333D01*
X147600000Y-79666667D02*
X147600000Y-78966667D01*
X147333334Y-78966667D01*
X147266667Y-79000000D01*
X147233334Y-79033333D01*
X147200000Y-79100000D01*
X147200000Y-79200000D01*
X147233334Y-79266667D01*
X147266667Y-79300000D01*
X147333334Y-79333333D01*
X147600000Y-79333333D01*
X146533334Y-79666667D02*
X146933334Y-79666667D01*
X146733334Y-79666667D02*
X146733334Y-78966667D01*
X146800000Y-79066667D01*
X146866667Y-79133333D01*
X146933334Y-79166667D01*
X146266667Y-79033333D02*
X146233333Y-79000000D01*
X146166667Y-78966667D01*
X146000000Y-78966667D01*
X145933333Y-79000000D01*
X145900000Y-79033333D01*
X145866667Y-79100000D01*
X145866667Y-79166667D01*
X145900000Y-79266667D01*
X146300000Y-79666667D01*
X145866667Y-79666667D01*
X113566666Y-93216667D02*
X113566666Y-92516667D01*
X113400000Y-92516667D01*
X113300000Y-92550000D01*
X113233333Y-92616667D01*
X113200000Y-92683333D01*
X113166666Y-92816667D01*
X113166666Y-92916667D01*
X113200000Y-93050000D01*
X113233333Y-93116667D01*
X113300000Y-93183333D01*
X113400000Y-93216667D01*
X113566666Y-93216667D01*
X112900000Y-92583333D02*
X112866666Y-92550000D01*
X112800000Y-92516667D01*
X112633333Y-92516667D01*
X112566666Y-92550000D01*
X112533333Y-92583333D01*
X112500000Y-92650000D01*
X112500000Y-92716667D01*
X112533333Y-92816667D01*
X112933333Y-93216667D01*
X112500000Y-93216667D01*
X150266666Y-90416667D02*
X150266666Y-89716667D01*
X150100000Y-89716667D01*
X150000000Y-89750000D01*
X149933333Y-89816667D01*
X149900000Y-89883333D01*
X149866666Y-90016667D01*
X149866666Y-90116667D01*
X149900000Y-90250000D01*
X149933333Y-90316667D01*
X150000000Y-90383333D01*
X150100000Y-90416667D01*
X150266666Y-90416667D01*
X149633333Y-89716667D02*
X149200000Y-89716667D01*
X149433333Y-89983333D01*
X149333333Y-89983333D01*
X149266666Y-90016667D01*
X149233333Y-90050000D01*
X149200000Y-90116667D01*
X149200000Y-90283333D01*
X149233333Y-90350000D01*
X149266666Y-90383333D01*
X149333333Y-90416667D01*
X149533333Y-90416667D01*
X149600000Y-90383333D01*
X149633333Y-90350000D01*
X159216667Y-83283334D02*
X158516667Y-83283334D01*
X158516667Y-83450000D01*
X158550000Y-83550000D01*
X158616667Y-83616667D01*
X158683333Y-83650000D01*
X158816667Y-83683334D01*
X158916667Y-83683334D01*
X159050000Y-83650000D01*
X159116667Y-83616667D01*
X159183333Y-83550000D01*
X159216667Y-83450000D01*
X159216667Y-83283334D01*
X158750000Y-84283334D02*
X159216667Y-84283334D01*
X158483333Y-84116667D02*
X158983333Y-83950000D01*
X158983333Y-84383334D01*
X150416666Y-79716667D02*
X150416666Y-79016667D01*
X150250000Y-79016667D01*
X150150000Y-79050000D01*
X150083333Y-79116667D01*
X150050000Y-79183333D01*
X150016666Y-79316667D01*
X150016666Y-79416667D01*
X150050000Y-79550000D01*
X150083333Y-79616667D01*
X150150000Y-79683333D01*
X150250000Y-79716667D01*
X150416666Y-79716667D01*
X149383333Y-79016667D02*
X149716666Y-79016667D01*
X149750000Y-79350000D01*
X149716666Y-79316667D01*
X149650000Y-79283333D01*
X149483333Y-79283333D01*
X149416666Y-79316667D01*
X149383333Y-79350000D01*
X149350000Y-79416667D01*
X149350000Y-79583333D01*
X149383333Y-79650000D01*
X149416666Y-79683333D01*
X149483333Y-79716667D01*
X149650000Y-79716667D01*
X149716666Y-79683333D01*
X149750000Y-79650000D01*
X141350000Y-90016667D02*
X141583334Y-89683333D01*
X141750000Y-90016667D02*
X141750000Y-89316667D01*
X141483334Y-89316667D01*
X141416667Y-89350000D01*
X141383334Y-89383333D01*
X141350000Y-89450000D01*
X141350000Y-89550000D01*
X141383334Y-89616667D01*
X141416667Y-89650000D01*
X141483334Y-89683333D01*
X141750000Y-89683333D01*
X140683334Y-90016667D02*
X141083334Y-90016667D01*
X140883334Y-90016667D02*
X140883334Y-89316667D01*
X140950000Y-89416667D01*
X141016667Y-89483333D01*
X141083334Y-89516667D01*
X140450000Y-89316667D02*
X140016667Y-89316667D01*
X140250000Y-89583333D01*
X140150000Y-89583333D01*
X140083333Y-89616667D01*
X140050000Y-89650000D01*
X140016667Y-89716667D01*
X140016667Y-89883333D01*
X140050000Y-89950000D01*
X140083333Y-89983333D01*
X140150000Y-90016667D01*
X140350000Y-90016667D01*
X140416667Y-89983333D01*
X140450000Y-89950000D01*
X145150000Y-78550000D02*
X145183333Y-78516666D01*
X145216667Y-78416666D01*
X145216667Y-78350000D01*
X145183333Y-78250000D01*
X145116667Y-78183333D01*
X145050000Y-78150000D01*
X144916667Y-78116666D01*
X144816667Y-78116666D01*
X144683333Y-78150000D01*
X144616667Y-78183333D01*
X144550000Y-78250000D01*
X144516667Y-78350000D01*
X144516667Y-78416666D01*
X144550000Y-78516666D01*
X144583333Y-78550000D01*
X144583333Y-78816666D02*
X144550000Y-78850000D01*
X144516667Y-78916666D01*
X144516667Y-79083333D01*
X144550000Y-79150000D01*
X144583333Y-79183333D01*
X144650000Y-79216666D01*
X144716667Y-79216666D01*
X144816667Y-79183333D01*
X145216667Y-78783333D01*
X145216667Y-79216666D01*
X144516667Y-79816667D02*
X144516667Y-79683333D01*
X144550000Y-79616667D01*
X144583333Y-79583333D01*
X144683333Y-79516667D01*
X144816667Y-79483333D01*
X145083333Y-79483333D01*
X145150000Y-79516667D01*
X145183333Y-79550000D01*
X145216667Y-79616667D01*
X145216667Y-79750000D01*
X145183333Y-79816667D01*
X145150000Y-79850000D01*
X145083333Y-79883333D01*
X144916667Y-79883333D01*
X144850000Y-79850000D01*
X144816667Y-79816667D01*
X144783333Y-79750000D01*
X144783333Y-79616667D01*
X144816667Y-79550000D01*
X144850000Y-79516667D01*
X144916667Y-79483333D01*
X143850000Y-78550000D02*
X143883333Y-78516666D01*
X143916667Y-78416666D01*
X143916667Y-78350000D01*
X143883333Y-78250000D01*
X143816667Y-78183333D01*
X143750000Y-78150000D01*
X143616667Y-78116666D01*
X143516667Y-78116666D01*
X143383333Y-78150000D01*
X143316667Y-78183333D01*
X143250000Y-78250000D01*
X143216667Y-78350000D01*
X143216667Y-78416666D01*
X143250000Y-78516666D01*
X143283333Y-78550000D01*
X143283333Y-78816666D02*
X143250000Y-78850000D01*
X143216667Y-78916666D01*
X143216667Y-79083333D01*
X143250000Y-79150000D01*
X143283333Y-79183333D01*
X143350000Y-79216666D01*
X143416667Y-79216666D01*
X143516667Y-79183333D01*
X143916667Y-78783333D01*
X143916667Y-79216666D01*
X143216667Y-79450000D02*
X143216667Y-79916667D01*
X143916667Y-79616667D01*
X117916667Y-93750000D02*
X117583333Y-93516666D01*
X117916667Y-93350000D02*
X117216667Y-93350000D01*
X117216667Y-93616666D01*
X117250000Y-93683333D01*
X117283333Y-93716666D01*
X117350000Y-93750000D01*
X117450000Y-93750000D01*
X117516667Y-93716666D01*
X117550000Y-93683333D01*
X117583333Y-93616666D01*
X117583333Y-93350000D01*
X117916667Y-94416666D02*
X117916667Y-94016666D01*
X117916667Y-94216666D02*
X117216667Y-94216666D01*
X117316667Y-94150000D01*
X117383333Y-94083333D01*
X117416667Y-94016666D01*
X117450000Y-95016667D02*
X117916667Y-95016667D01*
X117183333Y-94850000D02*
X117683333Y-94683333D01*
X117683333Y-95116667D01*
X142033333Y-77916667D02*
X142033333Y-78483333D01*
X142000000Y-78550000D01*
X141966667Y-78583333D01*
X141900000Y-78616667D01*
X141766667Y-78616667D01*
X141700000Y-78583333D01*
X141666667Y-78550000D01*
X141633333Y-78483333D01*
X141633333Y-77916667D01*
X141366667Y-77916667D02*
X140900000Y-77916667D01*
X141200000Y-78616667D01*
X168816667Y-96283334D02*
X168116667Y-96283334D01*
X168116667Y-96550000D01*
X168150000Y-96616667D01*
X168183333Y-96650000D01*
X168250000Y-96683334D01*
X168350000Y-96683334D01*
X168416667Y-96650000D01*
X168450000Y-96616667D01*
X168483333Y-96550000D01*
X168483333Y-96283334D01*
X168816667Y-97350000D02*
X168816667Y-96950000D01*
X168816667Y-97150000D02*
X168116667Y-97150000D01*
X168216667Y-97083334D01*
X168283333Y-97016667D01*
X168316667Y-96950000D01*
X168316667Y-72183334D02*
X167616667Y-72183334D01*
X167616667Y-72450000D01*
X167650000Y-72516667D01*
X167683333Y-72550000D01*
X167750000Y-72583334D01*
X167850000Y-72583334D01*
X167916667Y-72550000D01*
X167950000Y-72516667D01*
X167983333Y-72450000D01*
X167983333Y-72183334D01*
X167683333Y-72850000D02*
X167650000Y-72883334D01*
X167616667Y-72950000D01*
X167616667Y-73116667D01*
X167650000Y-73183334D01*
X167683333Y-73216667D01*
X167750000Y-73250000D01*
X167816667Y-73250000D01*
X167916667Y-73216667D01*
X168316667Y-72816667D01*
X168316667Y-73250000D01*
X108866666Y-87157143D02*
X108914285Y-87204762D01*
X109057142Y-87252381D01*
X109152380Y-87252381D01*
X109295238Y-87204762D01*
X109390476Y-87109524D01*
X109438095Y-87014286D01*
X109485714Y-86823810D01*
X109485714Y-86680952D01*
X109438095Y-86490476D01*
X109390476Y-86395238D01*
X109295238Y-86300000D01*
X109152380Y-86252381D01*
X109057142Y-86252381D01*
X108914285Y-86300000D01*
X108866666Y-86347619D01*
X108390476Y-87252381D02*
X108200000Y-87252381D01*
X108104761Y-87204762D01*
X108057142Y-87157143D01*
X107961904Y-87014286D01*
X107914285Y-86823810D01*
X107914285Y-86442857D01*
X107961904Y-86347619D01*
X108009523Y-86300000D01*
X108104761Y-86252381D01*
X108295238Y-86252381D01*
X108390476Y-86300000D01*
X108438095Y-86347619D01*
X108485714Y-86442857D01*
X108485714Y-86680952D01*
X108438095Y-86776190D01*
X108390476Y-86823810D01*
X108295238Y-86871429D01*
X108104761Y-86871429D01*
X108009523Y-86823810D01*
X107961904Y-86776190D01*
X107914285Y-86680952D01*
M02*
