G04 #@! TF.FileFunction,Legend,Bot*
%FSLAX46Y46*%
G04 Gerber Fmt 4.6, Leading zero omitted, Abs format (unit mm)*
G04 Created by KiCad (PCBNEW 4.0.2-stable) date 19/05/2016 18:52:09*
%MOMM*%
G01*
G04 APERTURE LIST*
%ADD10C,0.100000*%
%ADD11C,0.200000*%
%ADD12C,0.300000*%
%ADD13C,0.150000*%
%ADD14C,0.127000*%
%ADD15C,0.250000*%
G04 APERTURE END LIST*
D10*
D11*
X105850000Y-81500000D02*
G75*
G03X105850000Y-81500000I-450000J0D01*
G01*
D12*
X168309520Y-93468095D02*
X168309520Y-92168095D01*
X167876187Y-93096667D01*
X167442854Y-92168095D01*
X167442854Y-93468095D01*
X166638092Y-93468095D02*
X166761901Y-93406190D01*
X166823806Y-93344286D01*
X166885711Y-93220476D01*
X166885711Y-92849048D01*
X166823806Y-92725238D01*
X166761901Y-92663333D01*
X166638092Y-92601429D01*
X166452378Y-92601429D01*
X166328568Y-92663333D01*
X166266663Y-92725238D01*
X166204759Y-92849048D01*
X166204759Y-93220476D01*
X166266663Y-93344286D01*
X166328568Y-93406190D01*
X166452378Y-93468095D01*
X166638092Y-93468095D01*
X165461902Y-93468095D02*
X165585711Y-93406190D01*
X165647616Y-93344286D01*
X165709521Y-93220476D01*
X165709521Y-92849048D01*
X165647616Y-92725238D01*
X165585711Y-92663333D01*
X165461902Y-92601429D01*
X165276188Y-92601429D01*
X165152378Y-92663333D01*
X165090473Y-92725238D01*
X165028569Y-92849048D01*
X165028569Y-93220476D01*
X165090473Y-93344286D01*
X165152378Y-93406190D01*
X165276188Y-93468095D01*
X165461902Y-93468095D01*
X164285712Y-93468095D02*
X164409521Y-93406190D01*
X164471426Y-93282381D01*
X164471426Y-92168095D01*
X163976188Y-92601429D02*
X163480950Y-92601429D01*
X163790474Y-92168095D02*
X163790474Y-93282381D01*
X163728569Y-93406190D01*
X163604760Y-93468095D01*
X163480950Y-93468095D01*
X163047617Y-93468095D02*
X163047617Y-92601429D01*
X163047617Y-92168095D02*
X163109522Y-92230000D01*
X163047617Y-92291905D01*
X162985712Y-92230000D01*
X163047617Y-92168095D01*
X163047617Y-92291905D01*
X162428569Y-92601429D02*
X162428569Y-93901429D01*
X162428569Y-92663333D02*
X162304760Y-92601429D01*
X162057141Y-92601429D01*
X161933331Y-92663333D01*
X161871426Y-92725238D01*
X161809522Y-92849048D01*
X161809522Y-93220476D01*
X161871426Y-93344286D01*
X161933331Y-93406190D01*
X162057141Y-93468095D01*
X162304760Y-93468095D01*
X162428569Y-93406190D01*
X160695236Y-93468095D02*
X160695236Y-92787143D01*
X160757141Y-92663333D01*
X160880951Y-92601429D01*
X161128570Y-92601429D01*
X161252379Y-92663333D01*
X160695236Y-93406190D02*
X160819046Y-93468095D01*
X161128570Y-93468095D01*
X161252379Y-93406190D01*
X161314284Y-93282381D01*
X161314284Y-93158571D01*
X161252379Y-93034762D01*
X161128570Y-92972857D01*
X160819046Y-92972857D01*
X160695236Y-92910952D01*
X160138094Y-93406190D02*
X160014284Y-93468095D01*
X159766665Y-93468095D01*
X159642856Y-93406190D01*
X159580951Y-93282381D01*
X159580951Y-93220476D01*
X159642856Y-93096667D01*
X159766665Y-93034762D01*
X159952380Y-93034762D01*
X160076189Y-92972857D01*
X160138094Y-92849048D01*
X160138094Y-92787143D01*
X160076189Y-92663333D01*
X159952380Y-92601429D01*
X159766665Y-92601429D01*
X159642856Y-92663333D01*
X159085713Y-93406190D02*
X158961903Y-93468095D01*
X158714284Y-93468095D01*
X158590475Y-93406190D01*
X158528570Y-93282381D01*
X158528570Y-93220476D01*
X158590475Y-93096667D01*
X158714284Y-93034762D01*
X158899999Y-93034762D01*
X159023808Y-92972857D01*
X159085713Y-92849048D01*
X159085713Y-92787143D01*
X159023808Y-92663333D01*
X158899999Y-92601429D01*
X158714284Y-92601429D01*
X158590475Y-92663333D01*
X156980951Y-93468095D02*
X156980951Y-92168095D01*
X156547618Y-93096667D01*
X156114285Y-92168095D01*
X156114285Y-93468095D01*
X155495237Y-93468095D02*
X155495237Y-92601429D01*
X155495237Y-92168095D02*
X155557142Y-92230000D01*
X155495237Y-92291905D01*
X155433332Y-92230000D01*
X155495237Y-92168095D01*
X155495237Y-92291905D01*
X154876189Y-92601429D02*
X154876189Y-93468095D01*
X154876189Y-92725238D02*
X154814284Y-92663333D01*
X154690475Y-92601429D01*
X154504761Y-92601429D01*
X154380951Y-92663333D01*
X154319046Y-92787143D01*
X154319046Y-93468095D01*
X153699999Y-93468095D02*
X153699999Y-92601429D01*
X153699999Y-92168095D02*
X153761904Y-92230000D01*
X153699999Y-92291905D01*
X153638094Y-92230000D01*
X153699999Y-92168095D01*
X153699999Y-92291905D01*
X152090475Y-93468095D02*
X152090475Y-92168095D01*
X152090475Y-92663333D02*
X151966666Y-92601429D01*
X151719047Y-92601429D01*
X151595237Y-92663333D01*
X151533332Y-92725238D01*
X151471428Y-92849048D01*
X151471428Y-93220476D01*
X151533332Y-93344286D01*
X151595237Y-93406190D01*
X151719047Y-93468095D01*
X151966666Y-93468095D01*
X152090475Y-93406190D01*
X151038095Y-92601429D02*
X150728571Y-93468095D01*
X150419047Y-92601429D02*
X150728571Y-93468095D01*
X150852380Y-93777619D01*
X150914285Y-93839524D01*
X151038095Y-93901429D01*
X148995238Y-93406190D02*
X148809524Y-93468095D01*
X148500000Y-93468095D01*
X148376190Y-93406190D01*
X148314286Y-93344286D01*
X148252381Y-93220476D01*
X148252381Y-93096667D01*
X148314286Y-92972857D01*
X148376190Y-92910952D01*
X148500000Y-92849048D01*
X148747619Y-92787143D01*
X148871428Y-92725238D01*
X148933333Y-92663333D01*
X148995238Y-92539524D01*
X148995238Y-92415714D01*
X148933333Y-92291905D01*
X148871428Y-92230000D01*
X148747619Y-92168095D01*
X148438095Y-92168095D01*
X148252381Y-92230000D01*
X147880952Y-92601429D02*
X147385714Y-92601429D01*
X147695238Y-92168095D02*
X147695238Y-93282381D01*
X147633333Y-93406190D01*
X147509524Y-93468095D01*
X147385714Y-93468095D01*
X146457143Y-93406190D02*
X146580953Y-93468095D01*
X146828572Y-93468095D01*
X146952381Y-93406190D01*
X147014286Y-93282381D01*
X147014286Y-92787143D01*
X146952381Y-92663333D01*
X146828572Y-92601429D01*
X146580953Y-92601429D01*
X146457143Y-92663333D01*
X146395238Y-92787143D01*
X146395238Y-92910952D01*
X147014286Y-93034762D01*
X145838095Y-92601429D02*
X145838095Y-93901429D01*
X145838095Y-92663333D02*
X145714286Y-92601429D01*
X145466667Y-92601429D01*
X145342857Y-92663333D01*
X145280952Y-92725238D01*
X145219048Y-92849048D01*
X145219048Y-93220476D01*
X145280952Y-93344286D01*
X145342857Y-93406190D01*
X145466667Y-93468095D01*
X145714286Y-93468095D01*
X145838095Y-93406190D01*
X144661905Y-93468095D02*
X144661905Y-92168095D01*
X144104762Y-93468095D02*
X144104762Y-92787143D01*
X144166667Y-92663333D01*
X144290477Y-92601429D01*
X144476191Y-92601429D01*
X144600000Y-92663333D01*
X144661905Y-92725238D01*
X142928572Y-93468095D02*
X142928572Y-92787143D01*
X142990477Y-92663333D01*
X143114287Y-92601429D01*
X143361906Y-92601429D01*
X143485715Y-92663333D01*
X142928572Y-93406190D02*
X143052382Y-93468095D01*
X143361906Y-93468095D01*
X143485715Y-93406190D01*
X143547620Y-93282381D01*
X143547620Y-93158571D01*
X143485715Y-93034762D01*
X143361906Y-92972857D01*
X143052382Y-92972857D01*
X142928572Y-92910952D01*
X142309525Y-92601429D02*
X142309525Y-93468095D01*
X142309525Y-92725238D02*
X142247620Y-92663333D01*
X142123811Y-92601429D01*
X141938097Y-92601429D01*
X141814287Y-92663333D01*
X141752382Y-92787143D01*
X141752382Y-93468095D01*
X140142859Y-92787143D02*
X139709526Y-92787143D01*
X139523812Y-93468095D02*
X140142859Y-93468095D01*
X140142859Y-92168095D01*
X139523812Y-92168095D01*
X138780955Y-93468095D02*
X138904764Y-93406190D01*
X138966669Y-93282381D01*
X138966669Y-92168095D01*
X137790479Y-93406190D02*
X137914289Y-93468095D01*
X138161908Y-93468095D01*
X138285717Y-93406190D01*
X138347622Y-93282381D01*
X138347622Y-92787143D01*
X138285717Y-92663333D01*
X138161908Y-92601429D01*
X137914289Y-92601429D01*
X137790479Y-92663333D01*
X137728574Y-92787143D01*
X137728574Y-92910952D01*
X138347622Y-93034762D01*
X136614288Y-93406190D02*
X136738098Y-93468095D01*
X136985717Y-93468095D01*
X137109526Y-93406190D01*
X137171431Y-93344286D01*
X137233336Y-93220476D01*
X137233336Y-92849048D01*
X137171431Y-92725238D01*
X137109526Y-92663333D01*
X136985717Y-92601429D01*
X136738098Y-92601429D01*
X136614288Y-92663333D01*
X136242859Y-92601429D02*
X135747621Y-92601429D01*
X136057145Y-92168095D02*
X136057145Y-93282381D01*
X135995240Y-93406190D01*
X135871431Y-93468095D01*
X135747621Y-93468095D01*
X135314288Y-93468095D02*
X135314288Y-92601429D01*
X135314288Y-92849048D02*
X135252383Y-92725238D01*
X135190479Y-92663333D01*
X135066669Y-92601429D01*
X134942860Y-92601429D01*
X134323812Y-93468095D02*
X134447621Y-93406190D01*
X134509526Y-93344286D01*
X134571431Y-93220476D01*
X134571431Y-92849048D01*
X134509526Y-92725238D01*
X134447621Y-92663333D01*
X134323812Y-92601429D01*
X134138098Y-92601429D01*
X134014288Y-92663333D01*
X133952383Y-92725238D01*
X133890479Y-92849048D01*
X133890479Y-93220476D01*
X133952383Y-93344286D01*
X134014288Y-93406190D01*
X134138098Y-93468095D01*
X134323812Y-93468095D01*
X133333336Y-92601429D02*
X133333336Y-93468095D01*
X133333336Y-92725238D02*
X133271431Y-92663333D01*
X133147622Y-92601429D01*
X132961908Y-92601429D01*
X132838098Y-92663333D01*
X132776193Y-92787143D01*
X132776193Y-93468095D01*
X132157146Y-93468095D02*
X132157146Y-92601429D01*
X132157146Y-92168095D02*
X132219051Y-92230000D01*
X132157146Y-92291905D01*
X132095241Y-92230000D01*
X132157146Y-92168095D01*
X132157146Y-92291905D01*
X130980955Y-93406190D02*
X131104765Y-93468095D01*
X131352384Y-93468095D01*
X131476193Y-93406190D01*
X131538098Y-93344286D01*
X131600003Y-93220476D01*
X131600003Y-92849048D01*
X131538098Y-92725238D01*
X131476193Y-92663333D01*
X131352384Y-92601429D01*
X131104765Y-92601429D01*
X130980955Y-92663333D01*
X130485717Y-93406190D02*
X130361907Y-93468095D01*
X130114288Y-93468095D01*
X129990479Y-93406190D01*
X129928574Y-93282381D01*
X129928574Y-93220476D01*
X129990479Y-93096667D01*
X130114288Y-93034762D01*
X130300003Y-93034762D01*
X130423812Y-92972857D01*
X130485717Y-92849048D01*
X130485717Y-92787143D01*
X130423812Y-92663333D01*
X130300003Y-92601429D01*
X130114288Y-92601429D01*
X129990479Y-92663333D01*
X163697619Y-95588095D02*
X164316666Y-95588095D01*
X164316666Y-94288095D01*
X163264285Y-95588095D02*
X163264285Y-94721429D01*
X163264285Y-94288095D02*
X163326190Y-94350000D01*
X163264285Y-94411905D01*
X163202380Y-94350000D01*
X163264285Y-94288095D01*
X163264285Y-94411905D01*
X162088094Y-95526190D02*
X162211904Y-95588095D01*
X162459523Y-95588095D01*
X162583332Y-95526190D01*
X162645237Y-95464286D01*
X162707142Y-95340476D01*
X162707142Y-94969048D01*
X162645237Y-94845238D01*
X162583332Y-94783333D01*
X162459523Y-94721429D01*
X162211904Y-94721429D01*
X162088094Y-94783333D01*
X161035713Y-95526190D02*
X161159523Y-95588095D01*
X161407142Y-95588095D01*
X161530951Y-95526190D01*
X161592856Y-95402381D01*
X161592856Y-94907143D01*
X161530951Y-94783333D01*
X161407142Y-94721429D01*
X161159523Y-94721429D01*
X161035713Y-94783333D01*
X160973808Y-94907143D01*
X160973808Y-95030952D01*
X161592856Y-95154762D01*
X160416665Y-94721429D02*
X160416665Y-95588095D01*
X160416665Y-94845238D02*
X160354760Y-94783333D01*
X160230951Y-94721429D01*
X160045237Y-94721429D01*
X159921427Y-94783333D01*
X159859522Y-94907143D01*
X159859522Y-95588095D01*
X159302380Y-95526190D02*
X159178570Y-95588095D01*
X158930951Y-95588095D01*
X158807142Y-95526190D01*
X158745237Y-95402381D01*
X158745237Y-95340476D01*
X158807142Y-95216667D01*
X158930951Y-95154762D01*
X159116666Y-95154762D01*
X159240475Y-95092857D01*
X159302380Y-94969048D01*
X159302380Y-94907143D01*
X159240475Y-94783333D01*
X159116666Y-94721429D01*
X158930951Y-94721429D01*
X158807142Y-94783333D01*
X157692856Y-95526190D02*
X157816666Y-95588095D01*
X158064285Y-95588095D01*
X158188094Y-95526190D01*
X158249999Y-95402381D01*
X158249999Y-94907143D01*
X158188094Y-94783333D01*
X158064285Y-94721429D01*
X157816666Y-94721429D01*
X157692856Y-94783333D01*
X157630951Y-94907143D01*
X157630951Y-95030952D01*
X158249999Y-95154762D01*
X156516665Y-95588095D02*
X156516665Y-94288095D01*
X156516665Y-95526190D02*
X156640475Y-95588095D01*
X156888094Y-95588095D01*
X157011903Y-95526190D01*
X157073808Y-95464286D01*
X157135713Y-95340476D01*
X157135713Y-94969048D01*
X157073808Y-94845238D01*
X157011903Y-94783333D01*
X156888094Y-94721429D01*
X156640475Y-94721429D01*
X156516665Y-94783333D01*
X154349999Y-94721429D02*
X154349999Y-95588095D01*
X154907142Y-94721429D02*
X154907142Y-95402381D01*
X154845237Y-95526190D01*
X154721428Y-95588095D01*
X154535714Y-95588095D01*
X154411904Y-95526190D01*
X154349999Y-95464286D01*
X153730952Y-94721429D02*
X153730952Y-95588095D01*
X153730952Y-94845238D02*
X153669047Y-94783333D01*
X153545238Y-94721429D01*
X153359524Y-94721429D01*
X153235714Y-94783333D01*
X153173809Y-94907143D01*
X153173809Y-95588095D01*
X151997619Y-95588095D02*
X151997619Y-94288095D01*
X151997619Y-95526190D02*
X152121429Y-95588095D01*
X152369048Y-95588095D01*
X152492857Y-95526190D01*
X152554762Y-95464286D01*
X152616667Y-95340476D01*
X152616667Y-94969048D01*
X152554762Y-94845238D01*
X152492857Y-94783333D01*
X152369048Y-94721429D01*
X152121429Y-94721429D01*
X151997619Y-94783333D01*
X150883334Y-95526190D02*
X151007144Y-95588095D01*
X151254763Y-95588095D01*
X151378572Y-95526190D01*
X151440477Y-95402381D01*
X151440477Y-94907143D01*
X151378572Y-94783333D01*
X151254763Y-94721429D01*
X151007144Y-94721429D01*
X150883334Y-94783333D01*
X150821429Y-94907143D01*
X150821429Y-95030952D01*
X151440477Y-95154762D01*
X150264286Y-95588095D02*
X150264286Y-94721429D01*
X150264286Y-94969048D02*
X150202381Y-94845238D01*
X150140477Y-94783333D01*
X150016667Y-94721429D01*
X149892858Y-94721429D01*
X147726191Y-95464286D02*
X147788096Y-95526190D01*
X147973810Y-95588095D01*
X148097620Y-95588095D01*
X148283334Y-95526190D01*
X148407143Y-95402381D01*
X148469048Y-95278571D01*
X148530953Y-95030952D01*
X148530953Y-94845238D01*
X148469048Y-94597619D01*
X148407143Y-94473810D01*
X148283334Y-94350000D01*
X148097620Y-94288095D01*
X147973810Y-94288095D01*
X147788096Y-94350000D01*
X147726191Y-94411905D01*
X147169048Y-94907143D02*
X146735715Y-94907143D01*
X146550001Y-95588095D02*
X147169048Y-95588095D01*
X147169048Y-94288095D01*
X146550001Y-94288095D01*
X145250001Y-95588095D02*
X145683334Y-94969048D01*
X145992858Y-95588095D02*
X145992858Y-94288095D01*
X145497620Y-94288095D01*
X145373811Y-94350000D01*
X145311906Y-94411905D01*
X145250001Y-94535714D01*
X145250001Y-94721429D01*
X145311906Y-94845238D01*
X145373811Y-94907143D01*
X145497620Y-94969048D01*
X145992858Y-94969048D01*
X144692858Y-95588095D02*
X144692858Y-94288095D01*
X143950001Y-95588095D01*
X143950001Y-94288095D01*
X142092858Y-94288095D02*
X141845239Y-94288095D01*
X141721430Y-94350000D01*
X141597620Y-94473810D01*
X141535715Y-94721429D01*
X141535715Y-95154762D01*
X141597620Y-95402381D01*
X141721430Y-95526190D01*
X141845239Y-95588095D01*
X142092858Y-95588095D01*
X142216668Y-95526190D01*
X142340477Y-95402381D01*
X142402382Y-95154762D01*
X142402382Y-94721429D01*
X142340477Y-94473810D01*
X142216668Y-94350000D01*
X142092858Y-94288095D01*
X140978572Y-95588095D02*
X140978572Y-94288095D01*
X140978572Y-94907143D02*
X140235715Y-94907143D01*
X140235715Y-95588095D02*
X140235715Y-94288095D01*
X138997620Y-95588095D02*
X139616667Y-95588095D01*
X139616667Y-94288095D01*
X137759524Y-94288095D02*
X137326191Y-95588095D01*
X136892858Y-94288095D01*
X135778572Y-95588095D02*
X136521429Y-95588095D01*
X136150000Y-95588095D02*
X136150000Y-94288095D01*
X136273810Y-94473810D01*
X136397619Y-94597619D01*
X136521429Y-94659524D01*
X135221429Y-95464286D02*
X135159524Y-95526190D01*
X135221429Y-95588095D01*
X135283334Y-95526190D01*
X135221429Y-95464286D01*
X135221429Y-95588095D01*
X134664286Y-94411905D02*
X134602381Y-94350000D01*
X134478572Y-94288095D01*
X134169048Y-94288095D01*
X134045238Y-94350000D01*
X133983334Y-94411905D01*
X133921429Y-94535714D01*
X133921429Y-94659524D01*
X133983334Y-94845238D01*
X134726191Y-95588095D01*
X133921429Y-95588095D01*
X150078571Y-96841429D02*
X149769047Y-97708095D01*
X149459523Y-96841429D01*
X149088095Y-96408095D02*
X148283333Y-96408095D01*
X148716666Y-96903333D01*
X148530952Y-96903333D01*
X148407142Y-96965238D01*
X148345238Y-97027143D01*
X148283333Y-97150952D01*
X148283333Y-97460476D01*
X148345238Y-97584286D01*
X148407142Y-97646190D01*
X148530952Y-97708095D01*
X148902380Y-97708095D01*
X149026190Y-97646190D01*
X149088095Y-97584286D01*
D13*
X128300000Y-81500000D02*
X128300000Y-87900000D01*
X128300000Y-87900000D02*
X126700000Y-87900000D01*
X126700000Y-87900000D02*
X126700000Y-81500000D01*
X126700000Y-81500000D02*
X128300000Y-81500000D01*
X123050000Y-74700000D02*
X122250000Y-74700000D01*
X122250000Y-74700000D02*
X122250000Y-73300000D01*
X122250000Y-73300000D02*
X123050000Y-73300000D01*
X138950000Y-74700000D02*
X139750000Y-74700000D01*
X139750000Y-74700000D02*
X139750000Y-73300000D01*
X139750000Y-73300000D02*
X138950000Y-73300000D01*
X138950000Y-70500000D02*
X138950000Y-74700000D01*
X138950000Y-74700000D02*
X123050000Y-74700000D01*
X123050000Y-74700000D02*
X123050000Y-70500000D01*
X123050000Y-70500000D02*
X138950000Y-70500000D01*
X151400000Y-71600000D02*
X151400000Y-72300000D01*
X152600000Y-72300000D02*
X152600000Y-71600000D01*
X123050000Y-69250000D02*
X123750000Y-69250000D01*
X123750000Y-68050000D02*
X123050000Y-68050000D01*
X150650000Y-82000000D02*
X151350000Y-82000000D01*
X151350000Y-80800000D02*
X150650000Y-80800000D01*
X152450000Y-74650000D02*
X153150000Y-74650000D01*
X153150000Y-73450000D02*
X152450000Y-73450000D01*
X152600000Y-69650000D02*
X152600000Y-68950000D01*
X151400000Y-68950000D02*
X151400000Y-69650000D01*
X162000000Y-69600000D02*
X162000000Y-68900000D01*
X160800000Y-68900000D02*
X160800000Y-69600000D01*
X160800000Y-71600000D02*
X160800000Y-72300000D01*
X162000000Y-72300000D02*
X162000000Y-71600000D01*
X106550000Y-86700000D02*
X105850000Y-86700000D01*
X105850000Y-87900000D02*
X106550000Y-87900000D01*
X106800000Y-88075000D02*
X108800000Y-88075000D01*
X108800000Y-90125000D02*
X106800000Y-90125000D01*
X110100000Y-87650000D02*
X110100000Y-88350000D01*
X111300000Y-88350000D02*
X111300000Y-87650000D01*
X110250000Y-81200000D02*
X109550000Y-81200000D01*
X109550000Y-82400000D02*
X110250000Y-82400000D01*
X111300000Y-87650000D02*
X111300000Y-88350000D01*
X112500000Y-88350000D02*
X112500000Y-87650000D01*
X112350000Y-76000000D02*
X111650000Y-76000000D01*
X111650000Y-77200000D02*
X112350000Y-77200000D01*
X121900000Y-80400000D02*
X121900000Y-79700000D01*
X120700000Y-79700000D02*
X120700000Y-80400000D01*
X120550000Y-88700000D02*
X121250000Y-88700000D01*
X121250000Y-87500000D02*
X120550000Y-87500000D01*
X146025000Y-69100000D02*
X146025000Y-71100000D01*
X143975000Y-71100000D02*
X143975000Y-69100000D01*
X143725000Y-69100000D02*
X143725000Y-71100000D01*
X141675000Y-71100000D02*
X141675000Y-69100000D01*
X141350000Y-74000000D02*
X142050000Y-74000000D01*
X142050000Y-72800000D02*
X141350000Y-72800000D01*
X140300000Y-69925000D02*
X138300000Y-69925000D01*
X138300000Y-67875000D02*
X140300000Y-67875000D01*
X139600000Y-83450000D02*
X139600000Y-82750000D01*
X138400000Y-82750000D02*
X138400000Y-83450000D01*
X121550000Y-94100000D02*
X122250000Y-94100000D01*
X122250000Y-92900000D02*
X121550000Y-92900000D01*
X122250000Y-97300000D02*
X121550000Y-97300000D01*
X121550000Y-98500000D02*
X122250000Y-98500000D01*
X113700000Y-74350000D02*
X113700000Y-75050000D01*
X114900000Y-75050000D02*
X114900000Y-74350000D01*
X120500000Y-75200000D02*
X120500000Y-74500000D01*
X119300000Y-74500000D02*
X119300000Y-75200000D01*
X110250000Y-82300000D02*
X109550000Y-82300000D01*
X109550000Y-83500000D02*
X110250000Y-83500000D01*
X99200000Y-87750000D02*
X98200000Y-87750000D01*
X98200000Y-87750000D02*
X98200000Y-79750000D01*
X98200000Y-79750000D02*
X99200000Y-79750000D01*
X99200000Y-87750000D02*
X99200000Y-79750000D01*
X99200000Y-79750000D02*
X104250000Y-79750000D01*
X104250000Y-79750000D02*
X104250000Y-87750000D01*
X104250000Y-87750000D02*
X99200000Y-87750000D01*
X109300000Y-86625000D02*
X108300000Y-86625000D01*
X108300000Y-87975000D02*
X109300000Y-87975000D01*
X111500000Y-76075000D02*
X112500000Y-76075000D01*
X112500000Y-74725000D02*
X111500000Y-74725000D01*
X133900000Y-69275000D02*
X134900000Y-69275000D01*
X134900000Y-67925000D02*
X133900000Y-67925000D01*
X135300000Y-81500000D02*
X135300000Y-87900000D01*
X135300000Y-87900000D02*
X133700000Y-87900000D01*
X133700000Y-87900000D02*
X133700000Y-81500000D01*
X133700000Y-81500000D02*
X135300000Y-81500000D01*
X111500000Y-78475000D02*
X112500000Y-78475000D01*
X112500000Y-77125000D02*
X111500000Y-77125000D01*
X110300000Y-83425000D02*
X109300000Y-83425000D01*
X109300000Y-84775000D02*
X110300000Y-84775000D01*
X110300000Y-84725000D02*
X109300000Y-84725000D01*
X109300000Y-86075000D02*
X110300000Y-86075000D01*
X105499800Y-83749480D02*
X105990020Y-83749480D01*
X105499800Y-84450520D02*
X105499800Y-83749480D01*
X108700200Y-84450520D02*
X108700200Y-83749480D01*
X154414000Y-68060000D02*
X154414000Y-73140000D01*
X154414000Y-73140000D02*
X158986000Y-73140000D01*
X158986000Y-73140000D02*
X158986000Y-68060000D01*
X158986000Y-68060000D02*
X154414000Y-68060000D01*
X155938000Y-68060000D02*
X155938000Y-68568000D01*
X155938000Y-68568000D02*
X157208000Y-68568000D01*
X157208000Y-68568000D02*
X157208000Y-68060000D01*
D14*
X145978000Y-80333000D02*
X146105000Y-80333000D01*
X146105000Y-80333000D02*
X146105000Y-85667000D01*
X142295000Y-85667000D02*
X142295000Y-80333000D01*
X142295000Y-80333000D02*
X145978000Y-80333000D01*
X143692000Y-80333000D02*
X143692000Y-80841000D01*
X143692000Y-80841000D02*
X144708000Y-80841000D01*
X144708000Y-80841000D02*
X144708000Y-80333000D01*
X142295000Y-85667000D02*
X146105000Y-85667000D01*
D13*
X113423607Y-86300000D02*
G75*
G03X113423607Y-86300000I-223607J0D01*
G01*
X112900000Y-86600000D02*
X119900000Y-86600000D01*
X119900000Y-86600000D02*
X119900000Y-79600000D01*
X119900000Y-79600000D02*
X112900000Y-79600000D01*
X112900000Y-79600000D02*
X112900000Y-86600000D01*
X115500000Y-75950000D02*
X118700000Y-75950000D01*
X118700000Y-75950000D02*
X118700000Y-73450000D01*
X118700000Y-73450000D02*
X115500000Y-73450000D01*
X115500000Y-73450000D02*
X115500000Y-75950000D01*
X118999760Y-70799160D02*
X118999760Y-70750900D01*
X119700800Y-68000180D02*
X118999760Y-68000180D01*
X118999760Y-68000180D02*
X118999760Y-68249100D01*
X118999760Y-70799160D02*
X118999760Y-70999820D01*
X118999760Y-70999820D02*
X119700800Y-70999820D01*
X152300000Y-85300000D02*
X152300000Y-82300000D01*
X152300000Y-82300000D02*
X150700000Y-82300000D01*
X150700000Y-82300000D02*
X150700000Y-85300000D01*
X150700000Y-85300000D02*
X152300000Y-85300000D01*
X109700000Y-76900000D02*
X109700000Y-73900000D01*
X109700000Y-73900000D02*
X108100000Y-73900000D01*
X108100000Y-73900000D02*
X108100000Y-76900000D01*
X108100000Y-76900000D02*
X109700000Y-76900000D01*
X122700000Y-97200000D02*
X122700000Y-94200000D01*
X122700000Y-94200000D02*
X121100000Y-94200000D01*
X121100000Y-94200000D02*
X121100000Y-97200000D01*
X121100000Y-97200000D02*
X122700000Y-97200000D01*
X119575000Y-97100000D02*
X119575000Y-96100000D01*
X118225000Y-96100000D02*
X118225000Y-97100000D01*
X156700000Y-80350000D02*
X156700000Y-77350000D01*
X156700000Y-77350000D02*
X155100000Y-77350000D01*
X155100000Y-77350000D02*
X155100000Y-80350000D01*
X155100000Y-80350000D02*
X156700000Y-80350000D01*
X114875000Y-89500000D02*
X114875000Y-88500000D01*
X113525000Y-88500000D02*
X113525000Y-89500000D01*
X146500000Y-86525000D02*
X145500000Y-86525000D01*
X145500000Y-87875000D02*
X146500000Y-87875000D01*
X155075000Y-87000000D02*
X155075000Y-88000000D01*
X156425000Y-88000000D02*
X156425000Y-87000000D01*
X147300000Y-77225000D02*
X146300000Y-77225000D01*
X146300000Y-78575000D02*
X147300000Y-78575000D01*
X112500000Y-91700000D02*
X111550000Y-92700000D01*
X113000000Y-91900000D02*
X113000000Y-92950000D01*
X113500000Y-91700000D02*
X114450000Y-92700000D01*
X113000000Y-91900000D02*
G75*
G02X112250000Y-91150000I0J750000D01*
G01*
X113750000Y-91150000D02*
G75*
G02X113000000Y-91900000I-750000J0D01*
G01*
X113700000Y-91150000D02*
X112300000Y-91150000D01*
X112300000Y-91150000D02*
X112300000Y-90650000D01*
X112300000Y-90650000D02*
X113700000Y-90650000D01*
X113700000Y-90650000D02*
X113700000Y-91150000D01*
X149400000Y-88000000D02*
X148450000Y-89000000D01*
X149900000Y-88200000D02*
X149900000Y-89250000D01*
X150400000Y-88000000D02*
X151350000Y-89000000D01*
X149900000Y-88200000D02*
G75*
G02X149150000Y-87450000I0J750000D01*
G01*
X150650000Y-87450000D02*
G75*
G02X149900000Y-88200000I-750000J0D01*
G01*
X150600000Y-87450000D02*
X149200000Y-87450000D01*
X149200000Y-87450000D02*
X149200000Y-86950000D01*
X149200000Y-86950000D02*
X150600000Y-86950000D01*
X150600000Y-86950000D02*
X150600000Y-87450000D01*
X156550000Y-84250000D02*
X157550000Y-85200000D01*
X156750000Y-83750000D02*
X157800000Y-83750000D01*
X156550000Y-83250000D02*
X157550000Y-82300000D01*
X156750000Y-83750000D02*
G75*
G02X156000000Y-84500000I-750000J0D01*
G01*
X156000000Y-83000000D02*
G75*
G02X156750000Y-83750000I0J-750000D01*
G01*
X156000000Y-83050000D02*
X156000000Y-84450000D01*
X156000000Y-84450000D02*
X155500000Y-84450000D01*
X155500000Y-84450000D02*
X155500000Y-83050000D01*
X155500000Y-83050000D02*
X156000000Y-83050000D01*
X150400000Y-77100000D02*
X151350000Y-76100000D01*
X149900000Y-76900000D02*
X149900000Y-75850000D01*
X149400000Y-77100000D02*
X148450000Y-76100000D01*
X149900000Y-76900000D02*
G75*
G02X150650000Y-77650000I0J-750000D01*
G01*
X149150000Y-77650000D02*
G75*
G02X149900000Y-76900000I750000J0D01*
G01*
X149200000Y-77650000D02*
X150600000Y-77650000D01*
X150600000Y-77650000D02*
X150600000Y-78150000D01*
X150600000Y-78150000D02*
X149200000Y-78150000D01*
X149200000Y-78150000D02*
X149200000Y-77650000D01*
X141350000Y-87675000D02*
X140350000Y-87675000D01*
X140350000Y-89025000D02*
X141350000Y-89025000D01*
X145500000Y-77050000D02*
X145500000Y-76350000D01*
X144300000Y-76350000D02*
X144300000Y-77050000D01*
X144150000Y-77050000D02*
X144150000Y-76350000D01*
X142950000Y-76350000D02*
X142950000Y-77050000D01*
X118225000Y-93750000D02*
X118225000Y-94750000D01*
X119575000Y-94750000D02*
X119575000Y-93750000D01*
X140500000Y-77800000D02*
G75*
G03X140500000Y-77800000I-250000J0D01*
G01*
X140500000Y-77550000D02*
X142500000Y-77550000D01*
X142500000Y-77550000D02*
X142500000Y-75550000D01*
X142500000Y-75550000D02*
X140500000Y-75550000D01*
X140500000Y-75550000D02*
X140500000Y-77550000D01*
D15*
X128666667Y-80147619D02*
X128619048Y-80100000D01*
X128523810Y-80052381D01*
X128285714Y-80052381D01*
X128190476Y-80100000D01*
X128142857Y-80147619D01*
X128095238Y-80242857D01*
X128095238Y-80338095D01*
X128142857Y-80480952D01*
X128714286Y-81052381D01*
X128095238Y-81052381D01*
X127666667Y-81052381D02*
X127666667Y-80052381D01*
X127571429Y-80671429D02*
X127285714Y-81052381D01*
X127285714Y-80385714D02*
X127666667Y-80766667D01*
X126904762Y-80147619D02*
X126857143Y-80100000D01*
X126761905Y-80052381D01*
X126523809Y-80052381D01*
X126428571Y-80100000D01*
X126380952Y-80147619D01*
X126333333Y-80242857D01*
X126333333Y-80338095D01*
X126380952Y-80480952D01*
X126952381Y-81052381D01*
X126333333Y-81052381D01*
X139278571Y-76057143D02*
X139326190Y-76104762D01*
X139469047Y-76152381D01*
X139564285Y-76152381D01*
X139707143Y-76104762D01*
X139802381Y-76009524D01*
X139850000Y-75914286D01*
X139897619Y-75723810D01*
X139897619Y-75580952D01*
X139850000Y-75390476D01*
X139802381Y-75295238D01*
X139707143Y-75200000D01*
X139564285Y-75152381D01*
X139469047Y-75152381D01*
X139326190Y-75200000D01*
X139278571Y-75247619D01*
X138659524Y-75152381D02*
X138469047Y-75152381D01*
X138373809Y-75200000D01*
X138278571Y-75295238D01*
X138230952Y-75485714D01*
X138230952Y-75819048D01*
X138278571Y-76009524D01*
X138373809Y-76104762D01*
X138469047Y-76152381D01*
X138659524Y-76152381D01*
X138754762Y-76104762D01*
X138850000Y-76009524D01*
X138897619Y-75819048D01*
X138897619Y-75485714D01*
X138850000Y-75295238D01*
X138754762Y-75200000D01*
X138659524Y-75152381D01*
X137802381Y-76152381D02*
X137802381Y-75152381D01*
X137230952Y-76152381D01*
X137230952Y-75152381D01*
X136992857Y-76247619D02*
X136230952Y-76247619D01*
X135992857Y-75152381D02*
X135992857Y-75961905D01*
X135945238Y-76057143D01*
X135897619Y-76104762D01*
X135802381Y-76152381D01*
X135611904Y-76152381D01*
X135516666Y-76104762D01*
X135469047Y-76057143D01*
X135421428Y-75961905D01*
X135421428Y-75152381D01*
X134421428Y-75200000D02*
X134516666Y-75152381D01*
X134659523Y-75152381D01*
X134802381Y-75200000D01*
X134897619Y-75295238D01*
X134945238Y-75390476D01*
X134992857Y-75580952D01*
X134992857Y-75723810D01*
X134945238Y-75914286D01*
X134897619Y-76009524D01*
X134802381Y-76104762D01*
X134659523Y-76152381D01*
X134564285Y-76152381D01*
X134421428Y-76104762D01*
X134373809Y-76057143D01*
X134373809Y-75723810D01*
X134564285Y-75723810D01*
X133945238Y-76152381D02*
X133945238Y-75152381D01*
X133611904Y-75866667D01*
X133278571Y-75152381D01*
X133278571Y-76152381D01*
X132278571Y-76152381D02*
X132850000Y-76152381D01*
X132564286Y-76152381D02*
X132564286Y-75152381D01*
X132659524Y-75295238D01*
X132754762Y-75390476D01*
X132850000Y-75438095D01*
X131897619Y-75247619D02*
X131850000Y-75200000D01*
X131754762Y-75152381D01*
X131516666Y-75152381D01*
X131421428Y-75200000D01*
X131373809Y-75247619D01*
X131326190Y-75342857D01*
X131326190Y-75438095D01*
X131373809Y-75580952D01*
X131945238Y-76152381D01*
X131326190Y-76152381D01*
X130754762Y-75580952D02*
X130850000Y-75533333D01*
X130897619Y-75485714D01*
X130945238Y-75390476D01*
X130945238Y-75342857D01*
X130897619Y-75247619D01*
X130850000Y-75200000D01*
X130754762Y-75152381D01*
X130564285Y-75152381D01*
X130469047Y-75200000D01*
X130421428Y-75247619D01*
X130373809Y-75342857D01*
X130373809Y-75390476D01*
X130421428Y-75485714D01*
X130469047Y-75533333D01*
X130564285Y-75580952D01*
X130754762Y-75580952D01*
X130850000Y-75628571D01*
X130897619Y-75676190D01*
X130945238Y-75771429D01*
X130945238Y-75961905D01*
X130897619Y-76057143D01*
X130850000Y-76104762D01*
X130754762Y-76152381D01*
X130564285Y-76152381D01*
X130469047Y-76104762D01*
X130421428Y-76057143D01*
X130373809Y-75961905D01*
X130373809Y-75771429D01*
X130421428Y-75676190D01*
X130469047Y-75628571D01*
X130564285Y-75580952D01*
X129754762Y-75152381D02*
X129659523Y-75152381D01*
X129564285Y-75200000D01*
X129516666Y-75247619D01*
X129469047Y-75342857D01*
X129421428Y-75533333D01*
X129421428Y-75771429D01*
X129469047Y-75961905D01*
X129516666Y-76057143D01*
X129564285Y-76104762D01*
X129659523Y-76152381D01*
X129754762Y-76152381D01*
X129850000Y-76104762D01*
X129897619Y-76057143D01*
X129945238Y-75961905D01*
X129992857Y-75771429D01*
X129992857Y-75533333D01*
X129945238Y-75342857D01*
X129897619Y-75247619D01*
X129850000Y-75200000D01*
X129754762Y-75152381D01*
X129088095Y-75152381D02*
X128469047Y-75152381D01*
X128802381Y-75533333D01*
X128659523Y-75533333D01*
X128564285Y-75580952D01*
X128516666Y-75628571D01*
X128469047Y-75723810D01*
X128469047Y-75961905D01*
X128516666Y-76057143D01*
X128564285Y-76104762D01*
X128659523Y-76152381D01*
X128945238Y-76152381D01*
X129040476Y-76104762D01*
X129088095Y-76057143D01*
X128088095Y-75247619D02*
X128040476Y-75200000D01*
X127945238Y-75152381D01*
X127707142Y-75152381D01*
X127611904Y-75200000D01*
X127564285Y-75247619D01*
X127516666Y-75342857D01*
X127516666Y-75438095D01*
X127564285Y-75580952D01*
X128135714Y-76152381D01*
X127516666Y-76152381D01*
X127135714Y-75866667D02*
X126659523Y-75866667D01*
X127230952Y-76152381D02*
X126897619Y-75152381D01*
X126564285Y-76152381D01*
X125802380Y-75152381D02*
X125992857Y-75152381D01*
X126088095Y-75200000D01*
X126135714Y-75247619D01*
X126230952Y-75390476D01*
X126278571Y-75580952D01*
X126278571Y-75961905D01*
X126230952Y-76057143D01*
X126183333Y-76104762D01*
X126088095Y-76152381D01*
X125897618Y-76152381D01*
X125802380Y-76104762D01*
X125754761Y-76057143D01*
X125707142Y-75961905D01*
X125707142Y-75723810D01*
X125754761Y-75628571D01*
X125802380Y-75580952D01*
X125897618Y-75533333D01*
X126088095Y-75533333D01*
X126183333Y-75580952D01*
X126230952Y-75628571D01*
X126278571Y-75723810D01*
X124945237Y-75628571D02*
X124802380Y-75676190D01*
X124754761Y-75723810D01*
X124707142Y-75819048D01*
X124707142Y-75961905D01*
X124754761Y-76057143D01*
X124802380Y-76104762D01*
X124897618Y-76152381D01*
X125278571Y-76152381D01*
X125278571Y-75152381D01*
X124945237Y-75152381D01*
X124849999Y-75200000D01*
X124802380Y-75247619D01*
X124754761Y-75342857D01*
X124754761Y-75438095D01*
X124802380Y-75533333D01*
X124849999Y-75580952D01*
X124945237Y-75628571D01*
X125278571Y-75628571D01*
X124088095Y-75152381D02*
X123992856Y-75152381D01*
X123897618Y-75200000D01*
X123849999Y-75247619D01*
X123802380Y-75342857D01*
X123754761Y-75533333D01*
X123754761Y-75771429D01*
X123802380Y-75961905D01*
X123849999Y-76057143D01*
X123897618Y-76104762D01*
X123992856Y-76152381D01*
X124088095Y-76152381D01*
X124183333Y-76104762D01*
X124230952Y-76057143D01*
X124278571Y-75961905D01*
X124326190Y-75771429D01*
X124326190Y-75533333D01*
X124278571Y-75342857D01*
X124230952Y-75247619D01*
X124183333Y-75200000D01*
X124088095Y-75152381D01*
X122802380Y-76152381D02*
X123373809Y-76152381D01*
X123088095Y-76152381D02*
X123088095Y-75152381D01*
X123183333Y-75295238D01*
X123278571Y-75390476D01*
X123373809Y-75438095D01*
X152702381Y-75402381D02*
X152702381Y-74830952D01*
X152702381Y-75116666D02*
X151702381Y-75116666D01*
X151845238Y-75021428D01*
X151940476Y-74926190D01*
X151988095Y-74830952D01*
X151702381Y-76021428D02*
X151702381Y-76116667D01*
X151750000Y-76211905D01*
X151797619Y-76259524D01*
X151892857Y-76307143D01*
X152083333Y-76354762D01*
X152321429Y-76354762D01*
X152511905Y-76307143D01*
X152607143Y-76259524D01*
X152654762Y-76211905D01*
X152702381Y-76116667D01*
X152702381Y-76021428D01*
X152654762Y-75926190D01*
X152607143Y-75878571D01*
X152511905Y-75830952D01*
X152321429Y-75783333D01*
X152083333Y-75783333D01*
X151892857Y-75830952D01*
X151797619Y-75878571D01*
X151750000Y-75926190D01*
X151702381Y-76021428D01*
X151702381Y-76973809D02*
X151702381Y-77069048D01*
X151750000Y-77164286D01*
X151797619Y-77211905D01*
X151892857Y-77259524D01*
X152083333Y-77307143D01*
X152321429Y-77307143D01*
X152511905Y-77259524D01*
X152607143Y-77211905D01*
X152654762Y-77164286D01*
X152702381Y-77069048D01*
X152702381Y-76973809D01*
X152654762Y-76878571D01*
X152607143Y-76830952D01*
X152511905Y-76783333D01*
X152321429Y-76735714D01*
X152083333Y-76735714D01*
X151892857Y-76783333D01*
X151797619Y-76830952D01*
X151750000Y-76878571D01*
X151702381Y-76973809D01*
X152035714Y-77735714D02*
X152702381Y-77735714D01*
X152130952Y-77735714D02*
X152083333Y-77783333D01*
X152035714Y-77878571D01*
X152035714Y-78021429D01*
X152083333Y-78116667D01*
X152178571Y-78164286D01*
X152702381Y-78164286D01*
X152178571Y-78973810D02*
X152178571Y-78640476D01*
X152702381Y-78640476D02*
X151702381Y-78640476D01*
X151702381Y-79116667D01*
X128597619Y-69152381D02*
X129169048Y-69152381D01*
X128883334Y-69152381D02*
X128883334Y-68152381D01*
X128978572Y-68295238D01*
X129073810Y-68390476D01*
X129169048Y-68438095D01*
X127978572Y-68152381D02*
X127883333Y-68152381D01*
X127788095Y-68200000D01*
X127740476Y-68247619D01*
X127692857Y-68342857D01*
X127645238Y-68533333D01*
X127645238Y-68771429D01*
X127692857Y-68961905D01*
X127740476Y-69057143D01*
X127788095Y-69104762D01*
X127883333Y-69152381D01*
X127978572Y-69152381D01*
X128073810Y-69104762D01*
X128121429Y-69057143D01*
X128169048Y-68961905D01*
X128216667Y-68771429D01*
X128216667Y-68533333D01*
X128169048Y-68342857D01*
X128121429Y-68247619D01*
X128073810Y-68200000D01*
X127978572Y-68152381D01*
X127026191Y-68152381D02*
X126930952Y-68152381D01*
X126835714Y-68200000D01*
X126788095Y-68247619D01*
X126740476Y-68342857D01*
X126692857Y-68533333D01*
X126692857Y-68771429D01*
X126740476Y-68961905D01*
X126788095Y-69057143D01*
X126835714Y-69104762D01*
X126930952Y-69152381D01*
X127026191Y-69152381D01*
X127121429Y-69104762D01*
X127169048Y-69057143D01*
X127216667Y-68961905D01*
X127264286Y-68771429D01*
X127264286Y-68533333D01*
X127216667Y-68342857D01*
X127169048Y-68247619D01*
X127121429Y-68200000D01*
X127026191Y-68152381D01*
X126264286Y-68485714D02*
X126264286Y-69152381D01*
X126264286Y-68580952D02*
X126216667Y-68533333D01*
X126121429Y-68485714D01*
X125978571Y-68485714D01*
X125883333Y-68533333D01*
X125835714Y-68628571D01*
X125835714Y-69152381D01*
X125026190Y-68628571D02*
X125359524Y-68628571D01*
X125359524Y-69152381D02*
X125359524Y-68152381D01*
X124883333Y-68152381D01*
X152454761Y-79685714D02*
X152454761Y-80352381D01*
X152692857Y-79304762D02*
X152930952Y-80019048D01*
X152311904Y-80019048D01*
X151930952Y-80257143D02*
X151883333Y-80304762D01*
X151930952Y-80352381D01*
X151978571Y-80304762D01*
X151930952Y-80257143D01*
X151930952Y-80352381D01*
X151550000Y-79352381D02*
X150883333Y-79352381D01*
X151311905Y-80352381D01*
X150073809Y-79685714D02*
X150073809Y-80352381D01*
X150502381Y-79685714D02*
X150502381Y-80209524D01*
X150454762Y-80304762D01*
X150359524Y-80352381D01*
X150216666Y-80352381D01*
X150121428Y-80304762D01*
X150073809Y-80257143D01*
X149264285Y-79828571D02*
X149597619Y-79828571D01*
X149597619Y-80352381D02*
X149597619Y-79352381D01*
X149121428Y-79352381D01*
X156847619Y-75952381D02*
X157419048Y-75952381D01*
X157133334Y-75952381D02*
X157133334Y-74952381D01*
X157228572Y-75095238D01*
X157323810Y-75190476D01*
X157419048Y-75238095D01*
X156228572Y-74952381D02*
X156133333Y-74952381D01*
X156038095Y-75000000D01*
X155990476Y-75047619D01*
X155942857Y-75142857D01*
X155895238Y-75333333D01*
X155895238Y-75571429D01*
X155942857Y-75761905D01*
X155990476Y-75857143D01*
X156038095Y-75904762D01*
X156133333Y-75952381D01*
X156228572Y-75952381D01*
X156323810Y-75904762D01*
X156371429Y-75857143D01*
X156419048Y-75761905D01*
X156466667Y-75571429D01*
X156466667Y-75333333D01*
X156419048Y-75142857D01*
X156371429Y-75047619D01*
X156323810Y-75000000D01*
X156228572Y-74952381D01*
X155276191Y-74952381D02*
X155180952Y-74952381D01*
X155085714Y-75000000D01*
X155038095Y-75047619D01*
X154990476Y-75142857D01*
X154942857Y-75333333D01*
X154942857Y-75571429D01*
X154990476Y-75761905D01*
X155038095Y-75857143D01*
X155085714Y-75904762D01*
X155180952Y-75952381D01*
X155276191Y-75952381D01*
X155371429Y-75904762D01*
X155419048Y-75857143D01*
X155466667Y-75761905D01*
X155514286Y-75571429D01*
X155514286Y-75333333D01*
X155466667Y-75142857D01*
X155419048Y-75047619D01*
X155371429Y-75000000D01*
X155276191Y-74952381D01*
X154514286Y-75285714D02*
X154514286Y-75952381D01*
X154514286Y-75380952D02*
X154466667Y-75333333D01*
X154371429Y-75285714D01*
X154228571Y-75285714D01*
X154133333Y-75333333D01*
X154085714Y-75428571D01*
X154085714Y-75952381D01*
X153276190Y-75428571D02*
X153609524Y-75428571D01*
X153609524Y-75952381D02*
X153609524Y-74952381D01*
X153133333Y-74952381D01*
X155085714Y-68945239D02*
X155752381Y-68945239D01*
X154704762Y-68707143D02*
X155419048Y-68469048D01*
X155419048Y-69088096D01*
X155657143Y-69469048D02*
X155704762Y-69516667D01*
X155752381Y-69469048D01*
X155704762Y-69421429D01*
X155657143Y-69469048D01*
X155752381Y-69469048D01*
X154752381Y-69850000D02*
X154752381Y-70516667D01*
X155752381Y-70088095D01*
X155085714Y-71326191D02*
X155752381Y-71326191D01*
X155085714Y-70897619D02*
X155609524Y-70897619D01*
X155704762Y-70945238D01*
X155752381Y-71040476D01*
X155752381Y-71183334D01*
X155704762Y-71278572D01*
X155657143Y-71326191D01*
X155228571Y-72135715D02*
X155228571Y-71802381D01*
X155752381Y-71802381D02*
X154752381Y-71802381D01*
X154752381Y-72278572D01*
X163847619Y-67830952D02*
X163800000Y-67878571D01*
X163752381Y-67973809D01*
X163752381Y-68211905D01*
X163800000Y-68307143D01*
X163847619Y-68354762D01*
X163942857Y-68402381D01*
X164038095Y-68402381D01*
X164180952Y-68354762D01*
X164752381Y-67783333D01*
X164752381Y-68402381D01*
X163847619Y-68783333D02*
X163800000Y-68830952D01*
X163752381Y-68926190D01*
X163752381Y-69164286D01*
X163800000Y-69259524D01*
X163847619Y-69307143D01*
X163942857Y-69354762D01*
X164038095Y-69354762D01*
X164180952Y-69307143D01*
X164752381Y-68735714D01*
X164752381Y-69354762D01*
X163752381Y-69973809D02*
X163752381Y-70069048D01*
X163800000Y-70164286D01*
X163847619Y-70211905D01*
X163942857Y-70259524D01*
X164133333Y-70307143D01*
X164371429Y-70307143D01*
X164561905Y-70259524D01*
X164657143Y-70211905D01*
X164704762Y-70164286D01*
X164752381Y-70069048D01*
X164752381Y-69973809D01*
X164704762Y-69878571D01*
X164657143Y-69830952D01*
X164561905Y-69783333D01*
X164371429Y-69735714D01*
X164133333Y-69735714D01*
X163942857Y-69783333D01*
X163847619Y-69830952D01*
X163800000Y-69878571D01*
X163752381Y-69973809D01*
X164085714Y-70735714D02*
X164752381Y-70735714D01*
X164180952Y-70735714D02*
X164133333Y-70783333D01*
X164085714Y-70878571D01*
X164085714Y-71021429D01*
X164133333Y-71116667D01*
X164228571Y-71164286D01*
X164752381Y-71164286D01*
X164228571Y-71973810D02*
X164228571Y-71640476D01*
X164752381Y-71640476D02*
X163752381Y-71640476D01*
X163752381Y-72116667D01*
X163797619Y-72480952D02*
X163750000Y-72528571D01*
X163702381Y-72623809D01*
X163702381Y-72861905D01*
X163750000Y-72957143D01*
X163797619Y-73004762D01*
X163892857Y-73052381D01*
X163988095Y-73052381D01*
X164130952Y-73004762D01*
X164702381Y-72433333D01*
X164702381Y-73052381D01*
X163797619Y-73433333D02*
X163750000Y-73480952D01*
X163702381Y-73576190D01*
X163702381Y-73814286D01*
X163750000Y-73909524D01*
X163797619Y-73957143D01*
X163892857Y-74004762D01*
X163988095Y-74004762D01*
X164130952Y-73957143D01*
X164702381Y-73385714D01*
X164702381Y-74004762D01*
X163702381Y-74623809D02*
X163702381Y-74719048D01*
X163750000Y-74814286D01*
X163797619Y-74861905D01*
X163892857Y-74909524D01*
X164083333Y-74957143D01*
X164321429Y-74957143D01*
X164511905Y-74909524D01*
X164607143Y-74861905D01*
X164654762Y-74814286D01*
X164702381Y-74719048D01*
X164702381Y-74623809D01*
X164654762Y-74528571D01*
X164607143Y-74480952D01*
X164511905Y-74433333D01*
X164321429Y-74385714D01*
X164083333Y-74385714D01*
X163892857Y-74433333D01*
X163797619Y-74480952D01*
X163750000Y-74528571D01*
X163702381Y-74623809D01*
X164035714Y-75385714D02*
X164702381Y-75385714D01*
X164130952Y-75385714D02*
X164083333Y-75433333D01*
X164035714Y-75528571D01*
X164035714Y-75671429D01*
X164083333Y-75766667D01*
X164178571Y-75814286D01*
X164702381Y-75814286D01*
X164178571Y-76623810D02*
X164178571Y-76290476D01*
X164702381Y-76290476D02*
X163702381Y-76290476D01*
X163702381Y-76766667D01*
X104695238Y-89152381D02*
X105266667Y-89152381D01*
X104980953Y-89152381D02*
X104980953Y-88152381D01*
X105076191Y-88295238D01*
X105171429Y-88390476D01*
X105266667Y-88438095D01*
X103838095Y-88485714D02*
X103838095Y-89152381D01*
X104266667Y-88485714D02*
X104266667Y-89009524D01*
X104219048Y-89104762D01*
X104123810Y-89152381D01*
X103980952Y-89152381D01*
X103885714Y-89104762D01*
X103838095Y-89057143D01*
X103028571Y-88628571D02*
X103361905Y-88628571D01*
X103361905Y-89152381D02*
X103361905Y-88152381D01*
X102885714Y-88152381D01*
X109271428Y-91452381D02*
X109842857Y-91452381D01*
X109557143Y-91452381D02*
X109557143Y-90452381D01*
X109652381Y-90595238D01*
X109747619Y-90690476D01*
X109842857Y-90738095D01*
X108652381Y-90452381D02*
X108557142Y-90452381D01*
X108461904Y-90500000D01*
X108414285Y-90547619D01*
X108366666Y-90642857D01*
X108319047Y-90833333D01*
X108319047Y-91071429D01*
X108366666Y-91261905D01*
X108414285Y-91357143D01*
X108461904Y-91404762D01*
X108557142Y-91452381D01*
X108652381Y-91452381D01*
X108747619Y-91404762D01*
X108795238Y-91357143D01*
X108842857Y-91261905D01*
X108890476Y-91071429D01*
X108890476Y-90833333D01*
X108842857Y-90642857D01*
X108795238Y-90547619D01*
X108747619Y-90500000D01*
X108652381Y-90452381D01*
X107461904Y-90785714D02*
X107461904Y-91452381D01*
X107890476Y-90785714D02*
X107890476Y-91309524D01*
X107842857Y-91404762D01*
X107747619Y-91452381D01*
X107604761Y-91452381D01*
X107509523Y-91404762D01*
X107461904Y-91357143D01*
X106652380Y-90928571D02*
X106985714Y-90928571D01*
X106985714Y-91452381D02*
X106985714Y-90452381D01*
X106509523Y-90452381D01*
X111052381Y-92752381D02*
X111052381Y-92180952D01*
X111052381Y-92466666D02*
X110052381Y-92466666D01*
X110195238Y-92371428D01*
X110290476Y-92276190D01*
X110338095Y-92180952D01*
X110052381Y-93371428D02*
X110052381Y-93466667D01*
X110100000Y-93561905D01*
X110147619Y-93609524D01*
X110242857Y-93657143D01*
X110433333Y-93704762D01*
X110671429Y-93704762D01*
X110861905Y-93657143D01*
X110957143Y-93609524D01*
X111004762Y-93561905D01*
X111052381Y-93466667D01*
X111052381Y-93371428D01*
X111004762Y-93276190D01*
X110957143Y-93228571D01*
X110861905Y-93180952D01*
X110671429Y-93133333D01*
X110433333Y-93133333D01*
X110242857Y-93180952D01*
X110147619Y-93228571D01*
X110100000Y-93276190D01*
X110052381Y-93371428D01*
X110052381Y-94323809D02*
X110052381Y-94419048D01*
X110100000Y-94514286D01*
X110147619Y-94561905D01*
X110242857Y-94609524D01*
X110433333Y-94657143D01*
X110671429Y-94657143D01*
X110861905Y-94609524D01*
X110957143Y-94561905D01*
X111004762Y-94514286D01*
X111052381Y-94419048D01*
X111052381Y-94323809D01*
X111004762Y-94228571D01*
X110957143Y-94180952D01*
X110861905Y-94133333D01*
X110671429Y-94085714D01*
X110433333Y-94085714D01*
X110242857Y-94133333D01*
X110147619Y-94180952D01*
X110100000Y-94228571D01*
X110052381Y-94323809D01*
X110385714Y-95085714D02*
X111052381Y-95085714D01*
X110480952Y-95085714D02*
X110433333Y-95133333D01*
X110385714Y-95228571D01*
X110385714Y-95371429D01*
X110433333Y-95466667D01*
X110528571Y-95514286D01*
X111052381Y-95514286D01*
X110528571Y-96323810D02*
X110528571Y-95990476D01*
X111052381Y-95990476D02*
X110052381Y-95990476D01*
X110052381Y-96466667D01*
X110047619Y-79552381D02*
X110619048Y-79552381D01*
X110333334Y-79552381D02*
X110333334Y-78552381D01*
X110428572Y-78695238D01*
X110523810Y-78790476D01*
X110619048Y-78838095D01*
X109428572Y-78552381D02*
X109333333Y-78552381D01*
X109238095Y-78600000D01*
X109190476Y-78647619D01*
X109142857Y-78742857D01*
X109095238Y-78933333D01*
X109095238Y-79171429D01*
X109142857Y-79361905D01*
X109190476Y-79457143D01*
X109238095Y-79504762D01*
X109333333Y-79552381D01*
X109428572Y-79552381D01*
X109523810Y-79504762D01*
X109571429Y-79457143D01*
X109619048Y-79361905D01*
X109666667Y-79171429D01*
X109666667Y-78933333D01*
X109619048Y-78742857D01*
X109571429Y-78647619D01*
X109523810Y-78600000D01*
X109428572Y-78552381D01*
X108476191Y-78552381D02*
X108380952Y-78552381D01*
X108285714Y-78600000D01*
X108238095Y-78647619D01*
X108190476Y-78742857D01*
X108142857Y-78933333D01*
X108142857Y-79171429D01*
X108190476Y-79361905D01*
X108238095Y-79457143D01*
X108285714Y-79504762D01*
X108380952Y-79552381D01*
X108476191Y-79552381D01*
X108571429Y-79504762D01*
X108619048Y-79457143D01*
X108666667Y-79361905D01*
X108714286Y-79171429D01*
X108714286Y-78933333D01*
X108666667Y-78742857D01*
X108619048Y-78647619D01*
X108571429Y-78600000D01*
X108476191Y-78552381D01*
X107714286Y-78885714D02*
X107714286Y-79552381D01*
X107714286Y-78980952D02*
X107666667Y-78933333D01*
X107571429Y-78885714D01*
X107428571Y-78885714D01*
X107333333Y-78933333D01*
X107285714Y-79028571D01*
X107285714Y-79552381D01*
X106476190Y-79028571D02*
X106809524Y-79028571D01*
X106809524Y-79552381D02*
X106809524Y-78552381D01*
X106333333Y-78552381D01*
X112402381Y-92752381D02*
X112402381Y-92180952D01*
X112402381Y-92466666D02*
X111402381Y-92466666D01*
X111545238Y-92371428D01*
X111640476Y-92276190D01*
X111688095Y-92180952D01*
X111402381Y-93371428D02*
X111402381Y-93466667D01*
X111450000Y-93561905D01*
X111497619Y-93609524D01*
X111592857Y-93657143D01*
X111783333Y-93704762D01*
X112021429Y-93704762D01*
X112211905Y-93657143D01*
X112307143Y-93609524D01*
X112354762Y-93561905D01*
X112402381Y-93466667D01*
X112402381Y-93371428D01*
X112354762Y-93276190D01*
X112307143Y-93228571D01*
X112211905Y-93180952D01*
X112021429Y-93133333D01*
X111783333Y-93133333D01*
X111592857Y-93180952D01*
X111497619Y-93228571D01*
X111450000Y-93276190D01*
X111402381Y-93371428D01*
X111402381Y-94323809D02*
X111402381Y-94419048D01*
X111450000Y-94514286D01*
X111497619Y-94561905D01*
X111592857Y-94609524D01*
X111783333Y-94657143D01*
X112021429Y-94657143D01*
X112211905Y-94609524D01*
X112307143Y-94561905D01*
X112354762Y-94514286D01*
X112402381Y-94419048D01*
X112402381Y-94323809D01*
X112354762Y-94228571D01*
X112307143Y-94180952D01*
X112211905Y-94133333D01*
X112021429Y-94085714D01*
X111783333Y-94085714D01*
X111592857Y-94133333D01*
X111497619Y-94180952D01*
X111450000Y-94228571D01*
X111402381Y-94323809D01*
X111735714Y-95085714D02*
X112402381Y-95085714D01*
X111830952Y-95085714D02*
X111783333Y-95133333D01*
X111735714Y-95228571D01*
X111735714Y-95371429D01*
X111783333Y-95466667D01*
X111878571Y-95514286D01*
X112402381Y-95514286D01*
X111878571Y-96323810D02*
X111878571Y-95990476D01*
X112402381Y-95990476D02*
X111402381Y-95990476D01*
X111402381Y-96466667D01*
X117097619Y-77452381D02*
X117669048Y-77452381D01*
X117383334Y-77452381D02*
X117383334Y-76452381D01*
X117478572Y-76595238D01*
X117573810Y-76690476D01*
X117669048Y-76738095D01*
X116478572Y-76452381D02*
X116383333Y-76452381D01*
X116288095Y-76500000D01*
X116240476Y-76547619D01*
X116192857Y-76642857D01*
X116145238Y-76833333D01*
X116145238Y-77071429D01*
X116192857Y-77261905D01*
X116240476Y-77357143D01*
X116288095Y-77404762D01*
X116383333Y-77452381D01*
X116478572Y-77452381D01*
X116573810Y-77404762D01*
X116621429Y-77357143D01*
X116669048Y-77261905D01*
X116716667Y-77071429D01*
X116716667Y-76833333D01*
X116669048Y-76642857D01*
X116621429Y-76547619D01*
X116573810Y-76500000D01*
X116478572Y-76452381D01*
X115526191Y-76452381D02*
X115430952Y-76452381D01*
X115335714Y-76500000D01*
X115288095Y-76547619D01*
X115240476Y-76642857D01*
X115192857Y-76833333D01*
X115192857Y-77071429D01*
X115240476Y-77261905D01*
X115288095Y-77357143D01*
X115335714Y-77404762D01*
X115430952Y-77452381D01*
X115526191Y-77452381D01*
X115621429Y-77404762D01*
X115669048Y-77357143D01*
X115716667Y-77261905D01*
X115764286Y-77071429D01*
X115764286Y-76833333D01*
X115716667Y-76642857D01*
X115669048Y-76547619D01*
X115621429Y-76500000D01*
X115526191Y-76452381D01*
X114764286Y-76785714D02*
X114764286Y-77452381D01*
X114764286Y-76880952D02*
X114716667Y-76833333D01*
X114621429Y-76785714D01*
X114478571Y-76785714D01*
X114383333Y-76833333D01*
X114335714Y-76928571D01*
X114335714Y-77452381D01*
X113526190Y-76928571D02*
X113859524Y-76928571D01*
X113859524Y-77452381D02*
X113859524Y-76452381D01*
X113383333Y-76452381D01*
X123152381Y-78452381D02*
X123152381Y-77880952D01*
X123152381Y-78166666D02*
X122152381Y-78166666D01*
X122295238Y-78071428D01*
X122390476Y-77976190D01*
X122438095Y-77880952D01*
X122152381Y-79071428D02*
X122152381Y-79166667D01*
X122200000Y-79261905D01*
X122247619Y-79309524D01*
X122342857Y-79357143D01*
X122533333Y-79404762D01*
X122771429Y-79404762D01*
X122961905Y-79357143D01*
X123057143Y-79309524D01*
X123104762Y-79261905D01*
X123152381Y-79166667D01*
X123152381Y-79071428D01*
X123104762Y-78976190D01*
X123057143Y-78928571D01*
X122961905Y-78880952D01*
X122771429Y-78833333D01*
X122533333Y-78833333D01*
X122342857Y-78880952D01*
X122247619Y-78928571D01*
X122200000Y-78976190D01*
X122152381Y-79071428D01*
X122152381Y-80023809D02*
X122152381Y-80119048D01*
X122200000Y-80214286D01*
X122247619Y-80261905D01*
X122342857Y-80309524D01*
X122533333Y-80357143D01*
X122771429Y-80357143D01*
X122961905Y-80309524D01*
X123057143Y-80261905D01*
X123104762Y-80214286D01*
X123152381Y-80119048D01*
X123152381Y-80023809D01*
X123104762Y-79928571D01*
X123057143Y-79880952D01*
X122961905Y-79833333D01*
X122771429Y-79785714D01*
X122533333Y-79785714D01*
X122342857Y-79833333D01*
X122247619Y-79880952D01*
X122200000Y-79928571D01*
X122152381Y-80023809D01*
X122485714Y-80785714D02*
X123152381Y-80785714D01*
X122580952Y-80785714D02*
X122533333Y-80833333D01*
X122485714Y-80928571D01*
X122485714Y-81071429D01*
X122533333Y-81166667D01*
X122628571Y-81214286D01*
X123152381Y-81214286D01*
X122628571Y-82023810D02*
X122628571Y-81690476D01*
X123152381Y-81690476D02*
X122152381Y-81690476D01*
X122152381Y-82166667D01*
X124447619Y-87152381D02*
X125019048Y-87152381D01*
X124733334Y-87152381D02*
X124733334Y-86152381D01*
X124828572Y-86295238D01*
X124923810Y-86390476D01*
X125019048Y-86438095D01*
X123828572Y-86152381D02*
X123733333Y-86152381D01*
X123638095Y-86200000D01*
X123590476Y-86247619D01*
X123542857Y-86342857D01*
X123495238Y-86533333D01*
X123495238Y-86771429D01*
X123542857Y-86961905D01*
X123590476Y-87057143D01*
X123638095Y-87104762D01*
X123733333Y-87152381D01*
X123828572Y-87152381D01*
X123923810Y-87104762D01*
X123971429Y-87057143D01*
X124019048Y-86961905D01*
X124066667Y-86771429D01*
X124066667Y-86533333D01*
X124019048Y-86342857D01*
X123971429Y-86247619D01*
X123923810Y-86200000D01*
X123828572Y-86152381D01*
X122876191Y-86152381D02*
X122780952Y-86152381D01*
X122685714Y-86200000D01*
X122638095Y-86247619D01*
X122590476Y-86342857D01*
X122542857Y-86533333D01*
X122542857Y-86771429D01*
X122590476Y-86961905D01*
X122638095Y-87057143D01*
X122685714Y-87104762D01*
X122780952Y-87152381D01*
X122876191Y-87152381D01*
X122971429Y-87104762D01*
X123019048Y-87057143D01*
X123066667Y-86961905D01*
X123114286Y-86771429D01*
X123114286Y-86533333D01*
X123066667Y-86342857D01*
X123019048Y-86247619D01*
X122971429Y-86200000D01*
X122876191Y-86152381D01*
X122114286Y-86485714D02*
X122114286Y-87152381D01*
X122114286Y-86580952D02*
X122066667Y-86533333D01*
X121971429Y-86485714D01*
X121828571Y-86485714D01*
X121733333Y-86533333D01*
X121685714Y-86628571D01*
X121685714Y-87152381D01*
X120876190Y-86628571D02*
X121209524Y-86628571D01*
X121209524Y-87152381D02*
X121209524Y-86152381D01*
X120733333Y-86152381D01*
X146197619Y-68407143D02*
X146150000Y-68454762D01*
X146102381Y-68550000D01*
X146102381Y-68788096D01*
X146150000Y-68883334D01*
X146197619Y-68930953D01*
X146292857Y-68978572D01*
X146388095Y-68978572D01*
X146530952Y-68930953D01*
X147102381Y-68359524D01*
X147102381Y-68978572D01*
X146197619Y-69359524D02*
X146150000Y-69407143D01*
X146102381Y-69502381D01*
X146102381Y-69740477D01*
X146150000Y-69835715D01*
X146197619Y-69883334D01*
X146292857Y-69930953D01*
X146388095Y-69930953D01*
X146530952Y-69883334D01*
X147102381Y-69311905D01*
X147102381Y-69930953D01*
X146435714Y-70788096D02*
X147102381Y-70788096D01*
X146435714Y-70359524D02*
X146959524Y-70359524D01*
X147054762Y-70407143D01*
X147102381Y-70502381D01*
X147102381Y-70645239D01*
X147054762Y-70740477D01*
X147007143Y-70788096D01*
X146578571Y-71597620D02*
X146578571Y-71264286D01*
X147102381Y-71264286D02*
X146102381Y-71264286D01*
X146102381Y-71740477D01*
X147447619Y-68357143D02*
X147400000Y-68404762D01*
X147352381Y-68500000D01*
X147352381Y-68738096D01*
X147400000Y-68833334D01*
X147447619Y-68880953D01*
X147542857Y-68928572D01*
X147638095Y-68928572D01*
X147780952Y-68880953D01*
X148352381Y-68309524D01*
X148352381Y-68928572D01*
X147447619Y-69309524D02*
X147400000Y-69357143D01*
X147352381Y-69452381D01*
X147352381Y-69690477D01*
X147400000Y-69785715D01*
X147447619Y-69833334D01*
X147542857Y-69880953D01*
X147638095Y-69880953D01*
X147780952Y-69833334D01*
X148352381Y-69261905D01*
X148352381Y-69880953D01*
X147685714Y-70738096D02*
X148352381Y-70738096D01*
X147685714Y-70309524D02*
X148209524Y-70309524D01*
X148304762Y-70357143D01*
X148352381Y-70452381D01*
X148352381Y-70595239D01*
X148304762Y-70690477D01*
X148257143Y-70738096D01*
X147828571Y-71547620D02*
X147828571Y-71214286D01*
X148352381Y-71214286D02*
X147352381Y-71214286D01*
X147352381Y-71690477D01*
X138047619Y-74102381D02*
X138619048Y-74102381D01*
X138333334Y-74102381D02*
X138333334Y-73102381D01*
X138428572Y-73245238D01*
X138523810Y-73340476D01*
X138619048Y-73388095D01*
X137428572Y-73102381D02*
X137333333Y-73102381D01*
X137238095Y-73150000D01*
X137190476Y-73197619D01*
X137142857Y-73292857D01*
X137095238Y-73483333D01*
X137095238Y-73721429D01*
X137142857Y-73911905D01*
X137190476Y-74007143D01*
X137238095Y-74054762D01*
X137333333Y-74102381D01*
X137428572Y-74102381D01*
X137523810Y-74054762D01*
X137571429Y-74007143D01*
X137619048Y-73911905D01*
X137666667Y-73721429D01*
X137666667Y-73483333D01*
X137619048Y-73292857D01*
X137571429Y-73197619D01*
X137523810Y-73150000D01*
X137428572Y-73102381D01*
X136476191Y-73102381D02*
X136380952Y-73102381D01*
X136285714Y-73150000D01*
X136238095Y-73197619D01*
X136190476Y-73292857D01*
X136142857Y-73483333D01*
X136142857Y-73721429D01*
X136190476Y-73911905D01*
X136238095Y-74007143D01*
X136285714Y-74054762D01*
X136380952Y-74102381D01*
X136476191Y-74102381D01*
X136571429Y-74054762D01*
X136619048Y-74007143D01*
X136666667Y-73911905D01*
X136714286Y-73721429D01*
X136714286Y-73483333D01*
X136666667Y-73292857D01*
X136619048Y-73197619D01*
X136571429Y-73150000D01*
X136476191Y-73102381D01*
X135714286Y-73435714D02*
X135714286Y-74102381D01*
X135714286Y-73530952D02*
X135666667Y-73483333D01*
X135571429Y-73435714D01*
X135428571Y-73435714D01*
X135333333Y-73483333D01*
X135285714Y-73578571D01*
X135285714Y-74102381D01*
X134476190Y-73578571D02*
X134809524Y-73578571D01*
X134809524Y-74102381D02*
X134809524Y-73102381D01*
X134333333Y-73102381D01*
X145154761Y-69935714D02*
X145154761Y-70602381D01*
X145392857Y-69554762D02*
X145630952Y-70269048D01*
X145011904Y-70269048D01*
X144630952Y-70507143D02*
X144583333Y-70554762D01*
X144630952Y-70602381D01*
X144678571Y-70554762D01*
X144630952Y-70507143D01*
X144630952Y-70602381D01*
X144250000Y-69602381D02*
X143583333Y-69602381D01*
X144011905Y-70602381D01*
X142773809Y-69935714D02*
X142773809Y-70602381D01*
X143202381Y-69935714D02*
X143202381Y-70459524D01*
X143154762Y-70554762D01*
X143059524Y-70602381D01*
X142916666Y-70602381D01*
X142821428Y-70554762D01*
X142773809Y-70507143D01*
X141964285Y-70078571D02*
X142297619Y-70078571D01*
X142297619Y-70602381D02*
X142297619Y-69602381D01*
X141821428Y-69602381D01*
X138052381Y-81552381D02*
X138052381Y-80980952D01*
X138052381Y-81266666D02*
X137052381Y-81266666D01*
X137195238Y-81171428D01*
X137290476Y-81076190D01*
X137338095Y-80980952D01*
X137052381Y-82171428D02*
X137052381Y-82266667D01*
X137100000Y-82361905D01*
X137147619Y-82409524D01*
X137242857Y-82457143D01*
X137433333Y-82504762D01*
X137671429Y-82504762D01*
X137861905Y-82457143D01*
X137957143Y-82409524D01*
X138004762Y-82361905D01*
X138052381Y-82266667D01*
X138052381Y-82171428D01*
X138004762Y-82076190D01*
X137957143Y-82028571D01*
X137861905Y-81980952D01*
X137671429Y-81933333D01*
X137433333Y-81933333D01*
X137242857Y-81980952D01*
X137147619Y-82028571D01*
X137100000Y-82076190D01*
X137052381Y-82171428D01*
X137052381Y-83123809D02*
X137052381Y-83219048D01*
X137100000Y-83314286D01*
X137147619Y-83361905D01*
X137242857Y-83409524D01*
X137433333Y-83457143D01*
X137671429Y-83457143D01*
X137861905Y-83409524D01*
X137957143Y-83361905D01*
X138004762Y-83314286D01*
X138052381Y-83219048D01*
X138052381Y-83123809D01*
X138004762Y-83028571D01*
X137957143Y-82980952D01*
X137861905Y-82933333D01*
X137671429Y-82885714D01*
X137433333Y-82885714D01*
X137242857Y-82933333D01*
X137147619Y-82980952D01*
X137100000Y-83028571D01*
X137052381Y-83123809D01*
X137385714Y-83885714D02*
X138052381Y-83885714D01*
X137480952Y-83885714D02*
X137433333Y-83933333D01*
X137385714Y-84028571D01*
X137385714Y-84171429D01*
X137433333Y-84266667D01*
X137528571Y-84314286D01*
X138052381Y-84314286D01*
X137528571Y-85123810D02*
X137528571Y-84790476D01*
X138052381Y-84790476D02*
X137052381Y-84790476D01*
X137052381Y-85266667D01*
X123447619Y-92652381D02*
X124019048Y-92652381D01*
X123733334Y-92652381D02*
X123733334Y-91652381D01*
X123828572Y-91795238D01*
X123923810Y-91890476D01*
X124019048Y-91938095D01*
X122828572Y-91652381D02*
X122733333Y-91652381D01*
X122638095Y-91700000D01*
X122590476Y-91747619D01*
X122542857Y-91842857D01*
X122495238Y-92033333D01*
X122495238Y-92271429D01*
X122542857Y-92461905D01*
X122590476Y-92557143D01*
X122638095Y-92604762D01*
X122733333Y-92652381D01*
X122828572Y-92652381D01*
X122923810Y-92604762D01*
X122971429Y-92557143D01*
X123019048Y-92461905D01*
X123066667Y-92271429D01*
X123066667Y-92033333D01*
X123019048Y-91842857D01*
X122971429Y-91747619D01*
X122923810Y-91700000D01*
X122828572Y-91652381D01*
X121876191Y-91652381D02*
X121780952Y-91652381D01*
X121685714Y-91700000D01*
X121638095Y-91747619D01*
X121590476Y-91842857D01*
X121542857Y-92033333D01*
X121542857Y-92271429D01*
X121590476Y-92461905D01*
X121638095Y-92557143D01*
X121685714Y-92604762D01*
X121780952Y-92652381D01*
X121876191Y-92652381D01*
X121971429Y-92604762D01*
X122019048Y-92557143D01*
X122066667Y-92461905D01*
X122114286Y-92271429D01*
X122114286Y-92033333D01*
X122066667Y-91842857D01*
X122019048Y-91747619D01*
X121971429Y-91700000D01*
X121876191Y-91652381D01*
X121114286Y-91985714D02*
X121114286Y-92652381D01*
X121114286Y-92080952D02*
X121066667Y-92033333D01*
X120971429Y-91985714D01*
X120828571Y-91985714D01*
X120733333Y-92033333D01*
X120685714Y-92128571D01*
X120685714Y-92652381D01*
X119876190Y-92128571D02*
X120209524Y-92128571D01*
X120209524Y-92652381D02*
X120209524Y-91652381D01*
X119733333Y-91652381D01*
X122547619Y-99752381D02*
X123119048Y-99752381D01*
X122833334Y-99752381D02*
X122833334Y-98752381D01*
X122928572Y-98895238D01*
X123023810Y-98990476D01*
X123119048Y-99038095D01*
X121928572Y-98752381D02*
X121833333Y-98752381D01*
X121738095Y-98800000D01*
X121690476Y-98847619D01*
X121642857Y-98942857D01*
X121595238Y-99133333D01*
X121595238Y-99371429D01*
X121642857Y-99561905D01*
X121690476Y-99657143D01*
X121738095Y-99704762D01*
X121833333Y-99752381D01*
X121928572Y-99752381D01*
X122023810Y-99704762D01*
X122071429Y-99657143D01*
X122119048Y-99561905D01*
X122166667Y-99371429D01*
X122166667Y-99133333D01*
X122119048Y-98942857D01*
X122071429Y-98847619D01*
X122023810Y-98800000D01*
X121928572Y-98752381D01*
X120976191Y-98752381D02*
X120880952Y-98752381D01*
X120785714Y-98800000D01*
X120738095Y-98847619D01*
X120690476Y-98942857D01*
X120642857Y-99133333D01*
X120642857Y-99371429D01*
X120690476Y-99561905D01*
X120738095Y-99657143D01*
X120785714Y-99704762D01*
X120880952Y-99752381D01*
X120976191Y-99752381D01*
X121071429Y-99704762D01*
X121119048Y-99657143D01*
X121166667Y-99561905D01*
X121214286Y-99371429D01*
X121214286Y-99133333D01*
X121166667Y-98942857D01*
X121119048Y-98847619D01*
X121071429Y-98800000D01*
X120976191Y-98752381D01*
X120214286Y-99085714D02*
X120214286Y-99752381D01*
X120214286Y-99180952D02*
X120166667Y-99133333D01*
X120071429Y-99085714D01*
X119928571Y-99085714D01*
X119833333Y-99133333D01*
X119785714Y-99228571D01*
X119785714Y-99752381D01*
X118976190Y-99228571D02*
X119309524Y-99228571D01*
X119309524Y-99752381D02*
X119309524Y-98752381D01*
X118833333Y-98752381D01*
X114552381Y-70328572D02*
X114552381Y-69757143D01*
X114552381Y-70042857D02*
X113552381Y-70042857D01*
X113695238Y-69947619D01*
X113790476Y-69852381D01*
X113838095Y-69757143D01*
X113980952Y-70900000D02*
X113933333Y-70804762D01*
X113885714Y-70757143D01*
X113790476Y-70709524D01*
X113742857Y-70709524D01*
X113647619Y-70757143D01*
X113600000Y-70804762D01*
X113552381Y-70900000D01*
X113552381Y-71090477D01*
X113600000Y-71185715D01*
X113647619Y-71233334D01*
X113742857Y-71280953D01*
X113790476Y-71280953D01*
X113885714Y-71233334D01*
X113933333Y-71185715D01*
X113980952Y-71090477D01*
X113980952Y-70900000D01*
X114028571Y-70804762D01*
X114076190Y-70757143D01*
X114171429Y-70709524D01*
X114361905Y-70709524D01*
X114457143Y-70757143D01*
X114504762Y-70804762D01*
X114552381Y-70900000D01*
X114552381Y-71090477D01*
X114504762Y-71185715D01*
X114457143Y-71233334D01*
X114361905Y-71280953D01*
X114171429Y-71280953D01*
X114076190Y-71233334D01*
X114028571Y-71185715D01*
X113980952Y-71090477D01*
X113885714Y-71709524D02*
X114885714Y-71709524D01*
X113933333Y-71709524D02*
X113885714Y-71804762D01*
X113885714Y-71995239D01*
X113933333Y-72090477D01*
X113980952Y-72138096D01*
X114076190Y-72185715D01*
X114361905Y-72185715D01*
X114457143Y-72138096D01*
X114504762Y-72090477D01*
X114552381Y-71995239D01*
X114552381Y-71804762D01*
X114504762Y-71709524D01*
X114028571Y-72947620D02*
X114028571Y-72614286D01*
X114552381Y-72614286D02*
X113552381Y-72614286D01*
X113552381Y-73090477D01*
X121852381Y-73828572D02*
X121852381Y-73257143D01*
X121852381Y-73542857D02*
X120852381Y-73542857D01*
X120995238Y-73447619D01*
X121090476Y-73352381D01*
X121138095Y-73257143D01*
X121280952Y-74400000D02*
X121233333Y-74304762D01*
X121185714Y-74257143D01*
X121090476Y-74209524D01*
X121042857Y-74209524D01*
X120947619Y-74257143D01*
X120900000Y-74304762D01*
X120852381Y-74400000D01*
X120852381Y-74590477D01*
X120900000Y-74685715D01*
X120947619Y-74733334D01*
X121042857Y-74780953D01*
X121090476Y-74780953D01*
X121185714Y-74733334D01*
X121233333Y-74685715D01*
X121280952Y-74590477D01*
X121280952Y-74400000D01*
X121328571Y-74304762D01*
X121376190Y-74257143D01*
X121471429Y-74209524D01*
X121661905Y-74209524D01*
X121757143Y-74257143D01*
X121804762Y-74304762D01*
X121852381Y-74400000D01*
X121852381Y-74590477D01*
X121804762Y-74685715D01*
X121757143Y-74733334D01*
X121661905Y-74780953D01*
X121471429Y-74780953D01*
X121376190Y-74733334D01*
X121328571Y-74685715D01*
X121280952Y-74590477D01*
X121185714Y-75209524D02*
X122185714Y-75209524D01*
X121233333Y-75209524D02*
X121185714Y-75304762D01*
X121185714Y-75495239D01*
X121233333Y-75590477D01*
X121280952Y-75638096D01*
X121376190Y-75685715D01*
X121661905Y-75685715D01*
X121757143Y-75638096D01*
X121804762Y-75590477D01*
X121852381Y-75495239D01*
X121852381Y-75304762D01*
X121804762Y-75209524D01*
X121328571Y-76447620D02*
X121328571Y-76114286D01*
X121852381Y-76114286D02*
X120852381Y-76114286D01*
X120852381Y-76590477D01*
X109995238Y-80952381D02*
X110566667Y-80952381D01*
X110280953Y-80952381D02*
X110280953Y-79952381D01*
X110376191Y-80095238D01*
X110471429Y-80190476D01*
X110566667Y-80238095D01*
X109138095Y-80285714D02*
X109138095Y-80952381D01*
X109566667Y-80285714D02*
X109566667Y-80809524D01*
X109519048Y-80904762D01*
X109423810Y-80952381D01*
X109280952Y-80952381D01*
X109185714Y-80904762D01*
X109138095Y-80857143D01*
X108328571Y-80428571D02*
X108661905Y-80428571D01*
X108661905Y-80952381D02*
X108661905Y-79952381D01*
X108185714Y-79952381D01*
X97457143Y-75414286D02*
X97504762Y-75366667D01*
X97552381Y-75223810D01*
X97552381Y-75128572D01*
X97504762Y-74985714D01*
X97409524Y-74890476D01*
X97314286Y-74842857D01*
X97123810Y-74795238D01*
X96980952Y-74795238D01*
X96790476Y-74842857D01*
X96695238Y-74890476D01*
X96600000Y-74985714D01*
X96552381Y-75128572D01*
X96552381Y-75223810D01*
X96600000Y-75366667D01*
X96647619Y-75414286D01*
X96552381Y-76033333D02*
X96552381Y-76223810D01*
X96600000Y-76319048D01*
X96695238Y-76414286D01*
X96885714Y-76461905D01*
X97219048Y-76461905D01*
X97409524Y-76414286D01*
X97504762Y-76319048D01*
X97552381Y-76223810D01*
X97552381Y-76033333D01*
X97504762Y-75938095D01*
X97409524Y-75842857D01*
X97219048Y-75795238D01*
X96885714Y-75795238D01*
X96695238Y-75842857D01*
X96600000Y-75938095D01*
X96552381Y-76033333D01*
X97552381Y-76890476D02*
X96552381Y-76890476D01*
X97552381Y-77461905D01*
X96552381Y-77461905D01*
X97647619Y-77700000D02*
X97647619Y-78461905D01*
X97552381Y-79223810D02*
X97552381Y-78652381D01*
X97552381Y-78938095D02*
X96552381Y-78938095D01*
X96695238Y-78842857D01*
X96790476Y-78747619D01*
X96838095Y-78652381D01*
X96552381Y-79842857D02*
X96552381Y-79938096D01*
X96600000Y-80033334D01*
X96647619Y-80080953D01*
X96742857Y-80128572D01*
X96933333Y-80176191D01*
X97171429Y-80176191D01*
X97361905Y-80128572D01*
X97457143Y-80080953D01*
X97504762Y-80033334D01*
X97552381Y-79938096D01*
X97552381Y-79842857D01*
X97504762Y-79747619D01*
X97457143Y-79700000D01*
X97361905Y-79652381D01*
X97171429Y-79604762D01*
X96933333Y-79604762D01*
X96742857Y-79652381D01*
X96647619Y-79700000D01*
X96600000Y-79747619D01*
X96552381Y-79842857D01*
X97552381Y-81128572D02*
X97552381Y-80557143D01*
X97552381Y-80842857D02*
X96552381Y-80842857D01*
X96695238Y-80747619D01*
X96790476Y-80652381D01*
X96838095Y-80557143D01*
X97552381Y-82080953D02*
X97552381Y-81509524D01*
X97552381Y-81795238D02*
X96552381Y-81795238D01*
X96695238Y-81700000D01*
X96790476Y-81604762D01*
X96838095Y-81509524D01*
X96980952Y-82652381D02*
X96933333Y-82557143D01*
X96885714Y-82509524D01*
X96790476Y-82461905D01*
X96742857Y-82461905D01*
X96647619Y-82509524D01*
X96600000Y-82557143D01*
X96552381Y-82652381D01*
X96552381Y-82842858D01*
X96600000Y-82938096D01*
X96647619Y-82985715D01*
X96742857Y-83033334D01*
X96790476Y-83033334D01*
X96885714Y-82985715D01*
X96933333Y-82938096D01*
X96980952Y-82842858D01*
X96980952Y-82652381D01*
X97028571Y-82557143D01*
X97076190Y-82509524D01*
X97171429Y-82461905D01*
X97361905Y-82461905D01*
X97457143Y-82509524D01*
X97504762Y-82557143D01*
X97552381Y-82652381D01*
X97552381Y-82842858D01*
X97504762Y-82938096D01*
X97457143Y-82985715D01*
X97361905Y-83033334D01*
X97171429Y-83033334D01*
X97076190Y-82985715D01*
X97028571Y-82938096D01*
X96980952Y-82842858D01*
X97552381Y-83985715D02*
X97552381Y-83414286D01*
X97552381Y-83700000D02*
X96552381Y-83700000D01*
X96695238Y-83604762D01*
X96790476Y-83509524D01*
X96838095Y-83414286D01*
X97552381Y-84461905D02*
X97552381Y-84652381D01*
X97504762Y-84747620D01*
X97457143Y-84795239D01*
X97314286Y-84890477D01*
X97123810Y-84938096D01*
X96742857Y-84938096D01*
X96647619Y-84890477D01*
X96600000Y-84842858D01*
X96552381Y-84747620D01*
X96552381Y-84557143D01*
X96600000Y-84461905D01*
X96647619Y-84414286D01*
X96742857Y-84366667D01*
X96980952Y-84366667D01*
X97076190Y-84414286D01*
X97123810Y-84461905D01*
X97171429Y-84557143D01*
X97171429Y-84747620D01*
X97123810Y-84842858D01*
X97076190Y-84890477D01*
X96980952Y-84938096D01*
X96885714Y-85795239D02*
X97552381Y-85795239D01*
X96504762Y-85557143D02*
X97219048Y-85319048D01*
X97219048Y-85938096D01*
X97171429Y-86319048D02*
X97171429Y-87080953D01*
X96552381Y-87747619D02*
X96552381Y-87842858D01*
X96600000Y-87938096D01*
X96647619Y-87985715D01*
X96742857Y-88033334D01*
X96933333Y-88080953D01*
X97171429Y-88080953D01*
X97361905Y-88033334D01*
X97457143Y-87985715D01*
X97504762Y-87938096D01*
X97552381Y-87842858D01*
X97552381Y-87747619D01*
X97504762Y-87652381D01*
X97457143Y-87604762D01*
X97361905Y-87557143D01*
X97171429Y-87509524D01*
X96933333Y-87509524D01*
X96742857Y-87557143D01*
X96647619Y-87604762D01*
X96600000Y-87652381D01*
X96552381Y-87747619D01*
X96552381Y-88700000D02*
X96552381Y-88795239D01*
X96600000Y-88890477D01*
X96647619Y-88938096D01*
X96742857Y-88985715D01*
X96933333Y-89033334D01*
X97171429Y-89033334D01*
X97361905Y-88985715D01*
X97457143Y-88938096D01*
X97504762Y-88890477D01*
X97552381Y-88795239D01*
X97552381Y-88700000D01*
X97504762Y-88604762D01*
X97457143Y-88557143D01*
X97361905Y-88509524D01*
X97171429Y-88461905D01*
X96933333Y-88461905D01*
X96742857Y-88509524D01*
X96647619Y-88557143D01*
X96600000Y-88604762D01*
X96552381Y-88700000D01*
X96552381Y-89652381D02*
X96552381Y-89747620D01*
X96600000Y-89842858D01*
X96647619Y-89890477D01*
X96742857Y-89938096D01*
X96933333Y-89985715D01*
X97171429Y-89985715D01*
X97361905Y-89938096D01*
X97457143Y-89890477D01*
X97504762Y-89842858D01*
X97552381Y-89747620D01*
X97552381Y-89652381D01*
X97504762Y-89557143D01*
X97457143Y-89509524D01*
X97361905Y-89461905D01*
X97171429Y-89414286D01*
X96933333Y-89414286D01*
X96742857Y-89461905D01*
X96647619Y-89509524D01*
X96600000Y-89557143D01*
X96552381Y-89652381D01*
X97552381Y-90938096D02*
X97552381Y-90366667D01*
X97552381Y-90652381D02*
X96552381Y-90652381D01*
X96695238Y-90557143D01*
X96790476Y-90461905D01*
X96838095Y-90366667D01*
X97552381Y-91842858D02*
X97552381Y-91366667D01*
X96552381Y-91366667D01*
X97028571Y-92509525D02*
X97028571Y-92176191D01*
X97552381Y-92176191D02*
X96552381Y-92176191D01*
X96552381Y-92652382D01*
X108933333Y-94828571D02*
X109266667Y-94828571D01*
X109266667Y-95352381D02*
X109266667Y-94352381D01*
X108790476Y-94352381D01*
X108409524Y-95352381D02*
X108409524Y-94352381D01*
X107457143Y-95352381D02*
X107933334Y-95352381D01*
X107933334Y-94352381D01*
X107266667Y-94352381D02*
X106695238Y-94352381D01*
X106980953Y-95352381D02*
X106980953Y-94352381D01*
X106361905Y-94828571D02*
X106028571Y-94828571D01*
X105885714Y-95352381D02*
X106361905Y-95352381D01*
X106361905Y-94352381D01*
X105885714Y-94352381D01*
X104885714Y-95352381D02*
X105219048Y-94876190D01*
X105457143Y-95352381D02*
X105457143Y-94352381D01*
X105076190Y-94352381D01*
X104980952Y-94400000D01*
X104933333Y-94447619D01*
X104885714Y-94542857D01*
X104885714Y-94685714D01*
X104933333Y-94780952D01*
X104980952Y-94828571D01*
X105076190Y-94876190D01*
X105457143Y-94876190D01*
X112595238Y-74452381D02*
X113166667Y-74452381D01*
X112880953Y-74452381D02*
X112880953Y-73452381D01*
X112976191Y-73595238D01*
X113071429Y-73690476D01*
X113166667Y-73738095D01*
X111976191Y-73452381D02*
X111880952Y-73452381D01*
X111785714Y-73500000D01*
X111738095Y-73547619D01*
X111690476Y-73642857D01*
X111642857Y-73833333D01*
X111642857Y-74071429D01*
X111690476Y-74261905D01*
X111738095Y-74357143D01*
X111785714Y-74404762D01*
X111880952Y-74452381D01*
X111976191Y-74452381D01*
X112071429Y-74404762D01*
X112119048Y-74357143D01*
X112166667Y-74261905D01*
X112214286Y-74071429D01*
X112214286Y-73833333D01*
X112166667Y-73642857D01*
X112119048Y-73547619D01*
X112071429Y-73500000D01*
X111976191Y-73452381D01*
X111214286Y-74452381D02*
X111214286Y-73452381D01*
X111119048Y-74071429D02*
X110833333Y-74452381D01*
X110833333Y-73785714D02*
X111214286Y-74166667D01*
X132847619Y-69102381D02*
X132657143Y-69102381D01*
X132561904Y-69054762D01*
X132514285Y-69007143D01*
X132419047Y-68864286D01*
X132371428Y-68673810D01*
X132371428Y-68292857D01*
X132419047Y-68197619D01*
X132466666Y-68150000D01*
X132561904Y-68102381D01*
X132752381Y-68102381D01*
X132847619Y-68150000D01*
X132895238Y-68197619D01*
X132942857Y-68292857D01*
X132942857Y-68530952D01*
X132895238Y-68626190D01*
X132847619Y-68673810D01*
X132752381Y-68721429D01*
X132561904Y-68721429D01*
X132466666Y-68673810D01*
X132419047Y-68626190D01*
X132371428Y-68530952D01*
X131419047Y-69102381D02*
X131990476Y-69102381D01*
X131704762Y-69102381D02*
X131704762Y-68102381D01*
X131800000Y-68245238D01*
X131895238Y-68340476D01*
X131990476Y-68388095D01*
X130800000Y-68102381D02*
X130704761Y-68102381D01*
X130609523Y-68150000D01*
X130561904Y-68197619D01*
X130514285Y-68292857D01*
X130466666Y-68483333D01*
X130466666Y-68721429D01*
X130514285Y-68911905D01*
X130561904Y-69007143D01*
X130609523Y-69054762D01*
X130704761Y-69102381D01*
X130800000Y-69102381D01*
X130895238Y-69054762D01*
X130942857Y-69007143D01*
X130990476Y-68911905D01*
X131038095Y-68721429D01*
X131038095Y-68483333D01*
X130990476Y-68292857D01*
X130942857Y-68197619D01*
X130895238Y-68150000D01*
X130800000Y-68102381D01*
X130038095Y-69102381D02*
X130038095Y-68102381D01*
X129942857Y-68721429D02*
X129657142Y-69102381D01*
X129657142Y-68435714D02*
X130038095Y-68816667D01*
X135190476Y-80385714D02*
X135190476Y-81052381D01*
X135428572Y-80004762D02*
X135666667Y-80719048D01*
X135047619Y-80719048D01*
X134666667Y-81052381D02*
X134666667Y-80052381D01*
X134571429Y-80671429D02*
X134285714Y-81052381D01*
X134285714Y-80385714D02*
X134666667Y-80766667D01*
X133952381Y-80052381D02*
X133285714Y-80052381D01*
X133714286Y-81052381D01*
X115245238Y-78602381D02*
X115816667Y-78602381D01*
X115530953Y-78602381D02*
X115530953Y-77602381D01*
X115626191Y-77745238D01*
X115721429Y-77840476D01*
X115816667Y-77888095D01*
X114626191Y-77602381D02*
X114530952Y-77602381D01*
X114435714Y-77650000D01*
X114388095Y-77697619D01*
X114340476Y-77792857D01*
X114292857Y-77983333D01*
X114292857Y-78221429D01*
X114340476Y-78411905D01*
X114388095Y-78507143D01*
X114435714Y-78554762D01*
X114530952Y-78602381D01*
X114626191Y-78602381D01*
X114721429Y-78554762D01*
X114769048Y-78507143D01*
X114816667Y-78411905D01*
X114864286Y-78221429D01*
X114864286Y-77983333D01*
X114816667Y-77792857D01*
X114769048Y-77697619D01*
X114721429Y-77650000D01*
X114626191Y-77602381D01*
X113864286Y-78602381D02*
X113864286Y-77602381D01*
X113769048Y-78221429D02*
X113483333Y-78602381D01*
X113483333Y-77935714D02*
X113864286Y-78316667D01*
X111047619Y-83338095D02*
X111000000Y-83385714D01*
X110952381Y-83480952D01*
X110952381Y-83719048D01*
X111000000Y-83814286D01*
X111047619Y-83861905D01*
X111142857Y-83909524D01*
X111238095Y-83909524D01*
X111380952Y-83861905D01*
X111952381Y-83290476D01*
X111952381Y-83909524D01*
X111047619Y-84290476D02*
X111000000Y-84338095D01*
X110952381Y-84433333D01*
X110952381Y-84671429D01*
X111000000Y-84766667D01*
X111047619Y-84814286D01*
X111142857Y-84861905D01*
X111238095Y-84861905D01*
X111380952Y-84814286D01*
X111952381Y-84242857D01*
X111952381Y-84861905D01*
X111047619Y-85138095D02*
X111000000Y-85185714D01*
X110952381Y-85280952D01*
X110952381Y-85519048D01*
X111000000Y-85614286D01*
X111047619Y-85661905D01*
X111142857Y-85709524D01*
X111238095Y-85709524D01*
X111380952Y-85661905D01*
X111952381Y-85090476D01*
X111952381Y-85709524D01*
X111047619Y-86090476D02*
X111000000Y-86138095D01*
X110952381Y-86233333D01*
X110952381Y-86471429D01*
X111000000Y-86566667D01*
X111047619Y-86614286D01*
X111142857Y-86661905D01*
X111238095Y-86661905D01*
X111380952Y-86614286D01*
X111952381Y-86042857D01*
X111952381Y-86661905D01*
X105852381Y-68976191D02*
X104852381Y-68976191D01*
X105852381Y-69452381D02*
X104852381Y-69452381D01*
X104852381Y-69833334D01*
X104900000Y-69928572D01*
X104947619Y-69976191D01*
X105042857Y-70023810D01*
X105185714Y-70023810D01*
X105280952Y-69976191D01*
X105328571Y-69928572D01*
X105376190Y-69833334D01*
X105376190Y-69452381D01*
X105185714Y-70880953D02*
X105852381Y-70880953D01*
X104804762Y-70642857D02*
X105519048Y-70404762D01*
X105519048Y-71023810D01*
X104947619Y-71357143D02*
X104900000Y-71404762D01*
X104852381Y-71500000D01*
X104852381Y-71738096D01*
X104900000Y-71833334D01*
X104947619Y-71880953D01*
X105042857Y-71928572D01*
X105138095Y-71928572D01*
X105280952Y-71880953D01*
X105852381Y-71309524D01*
X105852381Y-71928572D01*
X104852381Y-72261905D02*
X104852381Y-72880953D01*
X105233333Y-72547619D01*
X105233333Y-72690477D01*
X105280952Y-72785715D01*
X105328571Y-72833334D01*
X105423810Y-72880953D01*
X105661905Y-72880953D01*
X105757143Y-72833334D01*
X105804762Y-72785715D01*
X105852381Y-72690477D01*
X105852381Y-72404762D01*
X105804762Y-72309524D01*
X105757143Y-72261905D01*
X105185714Y-73738096D02*
X105852381Y-73738096D01*
X104804762Y-73500000D02*
X105519048Y-73261905D01*
X105519048Y-73880953D01*
X105757143Y-74833334D02*
X105804762Y-74785715D01*
X105852381Y-74642858D01*
X105852381Y-74547620D01*
X105804762Y-74404762D01*
X105709524Y-74309524D01*
X105614286Y-74261905D01*
X105423810Y-74214286D01*
X105280952Y-74214286D01*
X105090476Y-74261905D01*
X104995238Y-74309524D01*
X104900000Y-74404762D01*
X104852381Y-74547620D01*
X104852381Y-74642858D01*
X104900000Y-74785715D01*
X104947619Y-74833334D01*
X104852381Y-75166667D02*
X104852381Y-75833334D01*
X105852381Y-75166667D01*
X105852381Y-75833334D01*
X104852381Y-76642858D02*
X104852381Y-76452381D01*
X104900000Y-76357143D01*
X104947619Y-76309524D01*
X105090476Y-76214286D01*
X105280952Y-76166667D01*
X105661905Y-76166667D01*
X105757143Y-76214286D01*
X105804762Y-76261905D01*
X105852381Y-76357143D01*
X105852381Y-76547620D01*
X105804762Y-76642858D01*
X105757143Y-76690477D01*
X105661905Y-76738096D01*
X105423810Y-76738096D01*
X105328571Y-76690477D01*
X105280952Y-76642858D01*
X105233333Y-76547620D01*
X105233333Y-76357143D01*
X105280952Y-76261905D01*
X105328571Y-76214286D01*
X105423810Y-76166667D01*
X105804762Y-77214286D02*
X105852381Y-77214286D01*
X105947619Y-77166667D01*
X105995238Y-77119048D01*
X105852381Y-78166667D02*
X105852381Y-77595238D01*
X105852381Y-77880952D02*
X104852381Y-77880952D01*
X104995238Y-77785714D01*
X105090476Y-77690476D01*
X105138095Y-77595238D01*
X104947619Y-78547619D02*
X104900000Y-78595238D01*
X104852381Y-78690476D01*
X104852381Y-78928572D01*
X104900000Y-79023810D01*
X104947619Y-79071429D01*
X105042857Y-79119048D01*
X105138095Y-79119048D01*
X105280952Y-79071429D01*
X105852381Y-78500000D01*
X105852381Y-79119048D01*
X104852381Y-80023810D02*
X104852381Y-79547619D01*
X105328571Y-79500000D01*
X105280952Y-79547619D01*
X105233333Y-79642857D01*
X105233333Y-79880953D01*
X105280952Y-79976191D01*
X105328571Y-80023810D01*
X105423810Y-80071429D01*
X105661905Y-80071429D01*
X105757143Y-80023810D01*
X105804762Y-79976191D01*
X105852381Y-79880953D01*
X105852381Y-79642857D01*
X105804762Y-79547619D01*
X105757143Y-79500000D01*
X162023810Y-74404762D02*
X161880953Y-74452381D01*
X161642857Y-74452381D01*
X161547619Y-74404762D01*
X161500000Y-74357143D01*
X161452381Y-74261905D01*
X161452381Y-74166667D01*
X161500000Y-74071429D01*
X161547619Y-74023810D01*
X161642857Y-73976190D01*
X161833334Y-73928571D01*
X161928572Y-73880952D01*
X161976191Y-73833333D01*
X162023810Y-73738095D01*
X162023810Y-73642857D01*
X161976191Y-73547619D01*
X161928572Y-73500000D01*
X161833334Y-73452381D01*
X161595238Y-73452381D01*
X161452381Y-73500000D01*
X161166667Y-73452381D02*
X160595238Y-73452381D01*
X160880953Y-74452381D02*
X160880953Y-73452381D01*
X159833333Y-73452381D02*
X160023810Y-73452381D01*
X160119048Y-73500000D01*
X160166667Y-73547619D01*
X160261905Y-73690476D01*
X160309524Y-73880952D01*
X160309524Y-74261905D01*
X160261905Y-74357143D01*
X160214286Y-74404762D01*
X160119048Y-74452381D01*
X159928571Y-74452381D01*
X159833333Y-74404762D01*
X159785714Y-74357143D01*
X159738095Y-74261905D01*
X159738095Y-74023810D01*
X159785714Y-73928571D01*
X159833333Y-73880952D01*
X159928571Y-73833333D01*
X160119048Y-73833333D01*
X160214286Y-73880952D01*
X160261905Y-73928571D01*
X160309524Y-74023810D01*
X158880952Y-73452381D02*
X159071429Y-73452381D01*
X159166667Y-73500000D01*
X159214286Y-73547619D01*
X159309524Y-73690476D01*
X159357143Y-73880952D01*
X159357143Y-74261905D01*
X159309524Y-74357143D01*
X159261905Y-74404762D01*
X159166667Y-74452381D01*
X158976190Y-74452381D01*
X158880952Y-74404762D01*
X158833333Y-74357143D01*
X158785714Y-74261905D01*
X158785714Y-74023810D01*
X158833333Y-73928571D01*
X158880952Y-73880952D01*
X158976190Y-73833333D01*
X159166667Y-73833333D01*
X159261905Y-73880952D01*
X159309524Y-73928571D01*
X159357143Y-74023810D01*
X158404762Y-73547619D02*
X158357143Y-73500000D01*
X158261905Y-73452381D01*
X158023809Y-73452381D01*
X157928571Y-73500000D01*
X157880952Y-73547619D01*
X157833333Y-73642857D01*
X157833333Y-73738095D01*
X157880952Y-73880952D01*
X158452381Y-74452381D01*
X157833333Y-74452381D01*
X157452381Y-74166667D02*
X156976190Y-74166667D01*
X157547619Y-74452381D02*
X157214286Y-73452381D01*
X156880952Y-74452381D01*
X155976190Y-74357143D02*
X156023809Y-74404762D01*
X156166666Y-74452381D01*
X156261904Y-74452381D01*
X156404762Y-74404762D01*
X156500000Y-74309524D01*
X156547619Y-74214286D01*
X156595238Y-74023810D01*
X156595238Y-73880952D01*
X156547619Y-73690476D01*
X156500000Y-73595238D01*
X156404762Y-73500000D01*
X156261904Y-73452381D01*
X156166666Y-73452381D01*
X156023809Y-73500000D01*
X155976190Y-73547619D01*
X155547619Y-74452381D02*
X155547619Y-73452381D01*
X155309524Y-73452381D01*
X155166666Y-73500000D01*
X155071428Y-73595238D01*
X155023809Y-73690476D01*
X154976190Y-73880952D01*
X154976190Y-74023810D01*
X155023809Y-74214286D01*
X155071428Y-74309524D01*
X155166666Y-74404762D01*
X155309524Y-74452381D01*
X155547619Y-74452381D01*
X148250000Y-79966667D02*
X147773809Y-79966667D01*
X148345238Y-80252381D02*
X148011905Y-79252381D01*
X147678571Y-80252381D01*
X147488095Y-79252381D02*
X146916666Y-79252381D01*
X147202381Y-80252381D02*
X147202381Y-79252381D01*
X146154761Y-79585714D02*
X146154761Y-80252381D01*
X146392857Y-79204762D02*
X146630952Y-79919048D01*
X146011904Y-79919048D01*
X145154761Y-79252381D02*
X145630952Y-79252381D01*
X145678571Y-79728571D01*
X145630952Y-79680952D01*
X145535714Y-79633333D01*
X145297618Y-79633333D01*
X145202380Y-79680952D01*
X145154761Y-79728571D01*
X145107142Y-79823810D01*
X145107142Y-80061905D01*
X145154761Y-80157143D01*
X145202380Y-80204762D01*
X145297618Y-80252381D01*
X145535714Y-80252381D01*
X145630952Y-80204762D01*
X145678571Y-80157143D01*
X144678571Y-80252381D02*
X144678571Y-79252381D01*
X144440476Y-79252381D01*
X144297618Y-79300000D01*
X144202380Y-79395238D01*
X144154761Y-79490476D01*
X144107142Y-79680952D01*
X144107142Y-79823810D01*
X144154761Y-80014286D01*
X144202380Y-80109524D01*
X144297618Y-80204762D01*
X144440476Y-80252381D01*
X144678571Y-80252381D01*
X143345237Y-79728571D02*
X143202380Y-79776190D01*
X143154761Y-79823810D01*
X143107142Y-79919048D01*
X143107142Y-80061905D01*
X143154761Y-80157143D01*
X143202380Y-80204762D01*
X143297618Y-80252381D01*
X143678571Y-80252381D01*
X143678571Y-79252381D01*
X143345237Y-79252381D01*
X143249999Y-79300000D01*
X143202380Y-79347619D01*
X143154761Y-79442857D01*
X143154761Y-79538095D01*
X143202380Y-79633333D01*
X143249999Y-79680952D01*
X143345237Y-79728571D01*
X143678571Y-79728571D01*
X142488095Y-79252381D02*
X142392856Y-79252381D01*
X142297618Y-79300000D01*
X142249999Y-79347619D01*
X142202380Y-79442857D01*
X142154761Y-79633333D01*
X142154761Y-79871429D01*
X142202380Y-80061905D01*
X142249999Y-80157143D01*
X142297618Y-80204762D01*
X142392856Y-80252381D01*
X142488095Y-80252381D01*
X142583333Y-80204762D01*
X142630952Y-80157143D01*
X142678571Y-80061905D01*
X142726190Y-79871429D01*
X142726190Y-79633333D01*
X142678571Y-79442857D01*
X142630952Y-79347619D01*
X142583333Y-79300000D01*
X142488095Y-79252381D01*
X141202380Y-80252381D02*
X141773809Y-80252381D01*
X141488095Y-80252381D02*
X141488095Y-79252381D01*
X141583333Y-79395238D01*
X141678571Y-79490476D01*
X141773809Y-79538095D01*
X140249999Y-80252381D02*
X140821428Y-80252381D01*
X140535714Y-80252381D02*
X140535714Y-79252381D01*
X140630952Y-79395238D01*
X140726190Y-79490476D01*
X140821428Y-79538095D01*
X139821428Y-80252381D02*
X139821428Y-79252381D01*
X139583333Y-79252381D01*
X139440475Y-79300000D01*
X139345237Y-79395238D01*
X139297618Y-79490476D01*
X139249999Y-79680952D01*
X139249999Y-79823810D01*
X139297618Y-80014286D01*
X139345237Y-80109524D01*
X139440475Y-80204762D01*
X139583333Y-80252381D01*
X139821428Y-80252381D01*
X129280953Y-90466667D02*
X128804762Y-90466667D01*
X129376191Y-90752381D02*
X129042858Y-89752381D01*
X128709524Y-90752381D01*
X128519048Y-89752381D02*
X127947619Y-89752381D01*
X128233334Y-90752381D02*
X128233334Y-89752381D01*
X127614286Y-90752381D02*
X127614286Y-89752381D01*
X127280952Y-90466667D01*
X126947619Y-89752381D01*
X126947619Y-90752381D01*
X126471429Y-90228571D02*
X126138095Y-90228571D01*
X125995238Y-90752381D02*
X126471429Y-90752381D01*
X126471429Y-89752381D01*
X125995238Y-89752381D01*
X125042857Y-89800000D02*
X125138095Y-89752381D01*
X125280952Y-89752381D01*
X125423810Y-89800000D01*
X125519048Y-89895238D01*
X125566667Y-89990476D01*
X125614286Y-90180952D01*
X125614286Y-90323810D01*
X125566667Y-90514286D01*
X125519048Y-90609524D01*
X125423810Y-90704762D01*
X125280952Y-90752381D01*
X125185714Y-90752381D01*
X125042857Y-90704762D01*
X124995238Y-90657143D01*
X124995238Y-90323810D01*
X125185714Y-90323810D01*
X124614286Y-90466667D02*
X124138095Y-90466667D01*
X124709524Y-90752381D02*
X124376191Y-89752381D01*
X124042857Y-90752381D01*
X123804762Y-89752381D02*
X123185714Y-89752381D01*
X123519048Y-90133333D01*
X123376190Y-90133333D01*
X123280952Y-90180952D01*
X123233333Y-90228571D01*
X123185714Y-90323810D01*
X123185714Y-90561905D01*
X123233333Y-90657143D01*
X123280952Y-90704762D01*
X123376190Y-90752381D01*
X123661905Y-90752381D01*
X123757143Y-90704762D01*
X123804762Y-90657143D01*
X122804762Y-89847619D02*
X122757143Y-89800000D01*
X122661905Y-89752381D01*
X122423809Y-89752381D01*
X122328571Y-89800000D01*
X122280952Y-89847619D01*
X122233333Y-89942857D01*
X122233333Y-90038095D01*
X122280952Y-90180952D01*
X122852381Y-90752381D01*
X122233333Y-90752381D01*
X121804762Y-89752381D02*
X121804762Y-90561905D01*
X121757143Y-90657143D01*
X121709524Y-90704762D01*
X121614286Y-90752381D01*
X121423809Y-90752381D01*
X121328571Y-90704762D01*
X121280952Y-90657143D01*
X121233333Y-90561905D01*
X121233333Y-89752381D01*
X120328571Y-90085714D02*
X120328571Y-90752381D01*
X120566667Y-89704762D02*
X120804762Y-90419048D01*
X120185714Y-90419048D01*
X120042857Y-90847619D02*
X119280952Y-90847619D01*
X118376190Y-90847619D02*
X118471428Y-90800000D01*
X118566666Y-90704762D01*
X118709523Y-90561905D01*
X118804762Y-90514286D01*
X118900000Y-90514286D01*
X118852381Y-90752381D02*
X118947619Y-90704762D01*
X119042857Y-90609524D01*
X119090476Y-90419048D01*
X119090476Y-90085714D01*
X119042857Y-89895238D01*
X118947619Y-89800000D01*
X118852381Y-89752381D01*
X118661904Y-89752381D01*
X118566666Y-89800000D01*
X118471428Y-89895238D01*
X118423809Y-90085714D01*
X118423809Y-90419048D01*
X118471428Y-90609524D01*
X118566666Y-90704762D01*
X118661904Y-90752381D01*
X118852381Y-90752381D01*
X117661904Y-90228571D02*
X117995238Y-90228571D01*
X117995238Y-90752381D02*
X117995238Y-89752381D01*
X117519047Y-89752381D01*
X117138095Y-90752381D02*
X117138095Y-89752381D01*
X116566666Y-90752381D01*
X116566666Y-89752381D01*
X119190476Y-72752381D02*
X119761905Y-72752381D01*
X119476191Y-72752381D02*
X119476191Y-71752381D01*
X119571429Y-71895238D01*
X119666667Y-71990476D01*
X119761905Y-72038095D01*
X118333333Y-71752381D02*
X118523810Y-71752381D01*
X118619048Y-71800000D01*
X118666667Y-71847619D01*
X118761905Y-71990476D01*
X118809524Y-72180952D01*
X118809524Y-72561905D01*
X118761905Y-72657143D01*
X118714286Y-72704762D01*
X118619048Y-72752381D01*
X118428571Y-72752381D01*
X118333333Y-72704762D01*
X118285714Y-72657143D01*
X118238095Y-72561905D01*
X118238095Y-72323810D01*
X118285714Y-72228571D01*
X118333333Y-72180952D01*
X118428571Y-72133333D01*
X118619048Y-72133333D01*
X118714286Y-72180952D01*
X118761905Y-72228571D01*
X118809524Y-72323810D01*
X117809524Y-72752381D02*
X117809524Y-71752381D01*
X117476190Y-72466667D01*
X117142857Y-71752381D01*
X117142857Y-72752381D01*
X116666667Y-72752381D02*
X116666667Y-71752381D01*
X116666667Y-72228571D02*
X116095238Y-72228571D01*
X116095238Y-72752381D02*
X116095238Y-71752381D01*
X115714286Y-72085714D02*
X115190476Y-72085714D01*
X115714286Y-72752381D01*
X115190476Y-72752381D01*
X116802381Y-68359524D02*
X116802381Y-68930953D01*
X117802381Y-68645238D02*
X116802381Y-68645238D01*
X116802381Y-69121429D02*
X117802381Y-69454762D01*
X116802381Y-69788096D01*
X117754762Y-70073810D02*
X117802381Y-70216667D01*
X117802381Y-70454763D01*
X117754762Y-70550001D01*
X117707143Y-70597620D01*
X117611905Y-70645239D01*
X117516667Y-70645239D01*
X117421429Y-70597620D01*
X117373810Y-70550001D01*
X117326190Y-70454763D01*
X117278571Y-70264286D01*
X117230952Y-70169048D01*
X117183333Y-70121429D01*
X117088095Y-70073810D01*
X116992857Y-70073810D01*
X116897619Y-70121429D01*
X116850000Y-70169048D01*
X116802381Y-70264286D01*
X116802381Y-70502382D01*
X116850000Y-70645239D01*
X154702381Y-81535714D02*
X153702381Y-81535714D01*
X154416667Y-81869048D01*
X153702381Y-82202381D01*
X154702381Y-82202381D01*
X153702381Y-82869047D02*
X153702381Y-83059524D01*
X153750000Y-83154762D01*
X153845238Y-83250000D01*
X154035714Y-83297619D01*
X154369048Y-83297619D01*
X154559524Y-83250000D01*
X154654762Y-83154762D01*
X154702381Y-83059524D01*
X154702381Y-82869047D01*
X154654762Y-82773809D01*
X154559524Y-82678571D01*
X154369048Y-82630952D01*
X154035714Y-82630952D01*
X153845238Y-82678571D01*
X153750000Y-82773809D01*
X153702381Y-82869047D01*
X154654762Y-83678571D02*
X154702381Y-83821428D01*
X154702381Y-84059524D01*
X154654762Y-84154762D01*
X154607143Y-84202381D01*
X154511905Y-84250000D01*
X154416667Y-84250000D01*
X154321429Y-84202381D01*
X154273810Y-84154762D01*
X154226190Y-84059524D01*
X154178571Y-83869047D01*
X154130952Y-83773809D01*
X154083333Y-83726190D01*
X153988095Y-83678571D01*
X153892857Y-83678571D01*
X153797619Y-83726190D01*
X153750000Y-83773809D01*
X153702381Y-83869047D01*
X153702381Y-84107143D01*
X153750000Y-84250000D01*
X154797619Y-84440476D02*
X154797619Y-85202381D01*
X154702381Y-85440476D02*
X153702381Y-85440476D01*
X153702381Y-85821429D01*
X153750000Y-85916667D01*
X153797619Y-85964286D01*
X153892857Y-86011905D01*
X154035714Y-86011905D01*
X154130952Y-85964286D01*
X154178571Y-85916667D01*
X154226190Y-85821429D01*
X154226190Y-85440476D01*
X111138095Y-73152381D02*
X111138095Y-72152381D01*
X110804761Y-72866667D01*
X110471428Y-72152381D01*
X110471428Y-73152381D01*
X109804762Y-72152381D02*
X109614285Y-72152381D01*
X109519047Y-72200000D01*
X109423809Y-72295238D01*
X109376190Y-72485714D01*
X109376190Y-72819048D01*
X109423809Y-73009524D01*
X109519047Y-73104762D01*
X109614285Y-73152381D01*
X109804762Y-73152381D01*
X109900000Y-73104762D01*
X109995238Y-73009524D01*
X110042857Y-72819048D01*
X110042857Y-72485714D01*
X109995238Y-72295238D01*
X109900000Y-72200000D01*
X109804762Y-72152381D01*
X108995238Y-73104762D02*
X108852381Y-73152381D01*
X108614285Y-73152381D01*
X108519047Y-73104762D01*
X108471428Y-73057143D01*
X108423809Y-72961905D01*
X108423809Y-72866667D01*
X108471428Y-72771429D01*
X108519047Y-72723810D01*
X108614285Y-72676190D01*
X108804762Y-72628571D01*
X108900000Y-72580952D01*
X108947619Y-72533333D01*
X108995238Y-72438095D01*
X108995238Y-72342857D01*
X108947619Y-72247619D01*
X108900000Y-72200000D01*
X108804762Y-72152381D01*
X108566666Y-72152381D01*
X108423809Y-72200000D01*
X108233333Y-73247619D02*
X107471428Y-73247619D01*
X107233333Y-73152381D02*
X107233333Y-72152381D01*
X106661904Y-73152381D01*
X106661904Y-72152381D01*
X125502381Y-93535714D02*
X124502381Y-93535714D01*
X125216667Y-93869048D01*
X124502381Y-94202381D01*
X125502381Y-94202381D01*
X124502381Y-94869047D02*
X124502381Y-95059524D01*
X124550000Y-95154762D01*
X124645238Y-95250000D01*
X124835714Y-95297619D01*
X125169048Y-95297619D01*
X125359524Y-95250000D01*
X125454762Y-95154762D01*
X125502381Y-95059524D01*
X125502381Y-94869047D01*
X125454762Y-94773809D01*
X125359524Y-94678571D01*
X125169048Y-94630952D01*
X124835714Y-94630952D01*
X124645238Y-94678571D01*
X124550000Y-94773809D01*
X124502381Y-94869047D01*
X125454762Y-95678571D02*
X125502381Y-95821428D01*
X125502381Y-96059524D01*
X125454762Y-96154762D01*
X125407143Y-96202381D01*
X125311905Y-96250000D01*
X125216667Y-96250000D01*
X125121429Y-96202381D01*
X125073810Y-96154762D01*
X125026190Y-96059524D01*
X124978571Y-95869047D01*
X124930952Y-95773809D01*
X124883333Y-95726190D01*
X124788095Y-95678571D01*
X124692857Y-95678571D01*
X124597619Y-95726190D01*
X124550000Y-95773809D01*
X124502381Y-95869047D01*
X124502381Y-96107143D01*
X124550000Y-96250000D01*
X125597619Y-96440476D02*
X125597619Y-97202381D01*
X125502381Y-97440476D02*
X124502381Y-97440476D01*
X124502381Y-97821429D01*
X124550000Y-97916667D01*
X124597619Y-97964286D01*
X124692857Y-98011905D01*
X124835714Y-98011905D01*
X124930952Y-97964286D01*
X124978571Y-97916667D01*
X125026190Y-97821429D01*
X125026190Y-97440476D01*
X117952381Y-96004762D02*
X117952381Y-95433333D01*
X117952381Y-95719047D02*
X116952381Y-95719047D01*
X117095238Y-95623809D01*
X117190476Y-95528571D01*
X117238095Y-95433333D01*
X116952381Y-96623809D02*
X116952381Y-96719048D01*
X117000000Y-96814286D01*
X117047619Y-96861905D01*
X117142857Y-96909524D01*
X117333333Y-96957143D01*
X117571429Y-96957143D01*
X117761905Y-96909524D01*
X117857143Y-96861905D01*
X117904762Y-96814286D01*
X117952381Y-96719048D01*
X117952381Y-96623809D01*
X117904762Y-96528571D01*
X117857143Y-96480952D01*
X117761905Y-96433333D01*
X117571429Y-96385714D01*
X117333333Y-96385714D01*
X117142857Y-96433333D01*
X117047619Y-96480952D01*
X117000000Y-96528571D01*
X116952381Y-96623809D01*
X117952381Y-97385714D02*
X116952381Y-97385714D01*
X117571429Y-97480952D02*
X117952381Y-97766667D01*
X117285714Y-97766667D02*
X117666667Y-97385714D01*
X159202381Y-76661905D02*
X158202381Y-76661905D01*
X158916667Y-76995239D01*
X158202381Y-77328572D01*
X159202381Y-77328572D01*
X158202381Y-77995238D02*
X158202381Y-78185715D01*
X158250000Y-78280953D01*
X158345238Y-78376191D01*
X158535714Y-78423810D01*
X158869048Y-78423810D01*
X159059524Y-78376191D01*
X159154762Y-78280953D01*
X159202381Y-78185715D01*
X159202381Y-77995238D01*
X159154762Y-77900000D01*
X159059524Y-77804762D01*
X158869048Y-77757143D01*
X158535714Y-77757143D01*
X158345238Y-77804762D01*
X158250000Y-77900000D01*
X158202381Y-77995238D01*
X159154762Y-78804762D02*
X159202381Y-78947619D01*
X159202381Y-79185715D01*
X159154762Y-79280953D01*
X159107143Y-79328572D01*
X159011905Y-79376191D01*
X158916667Y-79376191D01*
X158821429Y-79328572D01*
X158773810Y-79280953D01*
X158726190Y-79185715D01*
X158678571Y-78995238D01*
X158630952Y-78900000D01*
X158583333Y-78852381D01*
X158488095Y-78804762D01*
X158392857Y-78804762D01*
X158297619Y-78852381D01*
X158250000Y-78900000D01*
X158202381Y-78995238D01*
X158202381Y-79233334D01*
X158250000Y-79376191D01*
X159297619Y-79566667D02*
X159297619Y-80328572D01*
X159202381Y-80566667D02*
X158202381Y-80566667D01*
X159202381Y-81138096D01*
X158202381Y-81138096D01*
X116152381Y-88333333D02*
X116152381Y-88523809D01*
X116104762Y-88619048D01*
X116057143Y-88666667D01*
X115914286Y-88761905D01*
X115723810Y-88809524D01*
X115342857Y-88809524D01*
X115247619Y-88761905D01*
X115200000Y-88714286D01*
X115152381Y-88619048D01*
X115152381Y-88428571D01*
X115200000Y-88333333D01*
X115247619Y-88285714D01*
X115342857Y-88238095D01*
X115580952Y-88238095D01*
X115676190Y-88285714D01*
X115723810Y-88333333D01*
X115771429Y-88428571D01*
X115771429Y-88619048D01*
X115723810Y-88714286D01*
X115676190Y-88761905D01*
X115580952Y-88809524D01*
X116152381Y-89761905D02*
X116152381Y-89190476D01*
X116152381Y-89476190D02*
X115152381Y-89476190D01*
X115295238Y-89380952D01*
X115390476Y-89285714D01*
X115438095Y-89190476D01*
X146566667Y-89152381D02*
X146376191Y-89152381D01*
X146280952Y-89104762D01*
X146233333Y-89057143D01*
X146138095Y-88914286D01*
X146090476Y-88723810D01*
X146090476Y-88342857D01*
X146138095Y-88247619D01*
X146185714Y-88200000D01*
X146280952Y-88152381D01*
X146471429Y-88152381D01*
X146566667Y-88200000D01*
X146614286Y-88247619D01*
X146661905Y-88342857D01*
X146661905Y-88580952D01*
X146614286Y-88676190D01*
X146566667Y-88723810D01*
X146471429Y-88771429D01*
X146280952Y-88771429D01*
X146185714Y-88723810D01*
X146138095Y-88676190D01*
X146090476Y-88580952D01*
X145138095Y-89152381D02*
X145709524Y-89152381D01*
X145423810Y-89152381D02*
X145423810Y-88152381D01*
X145519048Y-88295238D01*
X145614286Y-88390476D01*
X145709524Y-88438095D01*
X157702381Y-86783333D02*
X157702381Y-86973809D01*
X157654762Y-87069048D01*
X157607143Y-87116667D01*
X157464286Y-87211905D01*
X157273810Y-87259524D01*
X156892857Y-87259524D01*
X156797619Y-87211905D01*
X156750000Y-87164286D01*
X156702381Y-87069048D01*
X156702381Y-86878571D01*
X156750000Y-86783333D01*
X156797619Y-86735714D01*
X156892857Y-86688095D01*
X157130952Y-86688095D01*
X157226190Y-86735714D01*
X157273810Y-86783333D01*
X157321429Y-86878571D01*
X157321429Y-87069048D01*
X157273810Y-87164286D01*
X157226190Y-87211905D01*
X157130952Y-87259524D01*
X157702381Y-88211905D02*
X157702381Y-87640476D01*
X157702381Y-87926190D02*
X156702381Y-87926190D01*
X156845238Y-87830952D01*
X156940476Y-87735714D01*
X156988095Y-87640476D01*
X147516667Y-76852381D02*
X147326191Y-76852381D01*
X147230952Y-76804762D01*
X147183333Y-76757143D01*
X147088095Y-76614286D01*
X147040476Y-76423810D01*
X147040476Y-76042857D01*
X147088095Y-75947619D01*
X147135714Y-75900000D01*
X147230952Y-75852381D01*
X147421429Y-75852381D01*
X147516667Y-75900000D01*
X147564286Y-75947619D01*
X147611905Y-76042857D01*
X147611905Y-76280952D01*
X147564286Y-76376190D01*
X147516667Y-76423810D01*
X147421429Y-76471429D01*
X147230952Y-76471429D01*
X147135714Y-76423810D01*
X147088095Y-76376190D01*
X147040476Y-76280952D01*
X146088095Y-76852381D02*
X146659524Y-76852381D01*
X146373810Y-76852381D02*
X146373810Y-75852381D01*
X146469048Y-75995238D01*
X146564286Y-76090476D01*
X146659524Y-76138095D01*
X116892857Y-92752381D02*
X117369048Y-92752381D01*
X117369048Y-91752381D01*
X116559524Y-92228571D02*
X116226190Y-92228571D01*
X116083333Y-92752381D02*
X116559524Y-92752381D01*
X116559524Y-91752381D01*
X116083333Y-91752381D01*
X115654762Y-92752381D02*
X115654762Y-91752381D01*
X115416667Y-91752381D01*
X115273809Y-91800000D01*
X115178571Y-91895238D01*
X115130952Y-91990476D01*
X115083333Y-92180952D01*
X115083333Y-92323810D01*
X115130952Y-92514286D01*
X115178571Y-92609524D01*
X115273809Y-92704762D01*
X115416667Y-92752381D01*
X115654762Y-92752381D01*
X150442857Y-90602381D02*
X150919048Y-90602381D01*
X150919048Y-89602381D01*
X150109524Y-90078571D02*
X149776190Y-90078571D01*
X149633333Y-90602381D02*
X150109524Y-90602381D01*
X150109524Y-89602381D01*
X149633333Y-89602381D01*
X149204762Y-90602381D02*
X149204762Y-89602381D01*
X148966667Y-89602381D01*
X148823809Y-89650000D01*
X148728571Y-89745238D01*
X148680952Y-89840476D01*
X148633333Y-90030952D01*
X148633333Y-90173810D01*
X148680952Y-90364286D01*
X148728571Y-90459524D01*
X148823809Y-90554762D01*
X148966667Y-90602381D01*
X149204762Y-90602381D01*
X159402381Y-83057143D02*
X159402381Y-82580952D01*
X158402381Y-82580952D01*
X158878571Y-83390476D02*
X158878571Y-83723810D01*
X159402381Y-83866667D02*
X159402381Y-83390476D01*
X158402381Y-83390476D01*
X158402381Y-83866667D01*
X159402381Y-84295238D02*
X158402381Y-84295238D01*
X158402381Y-84533333D01*
X158450000Y-84676191D01*
X158545238Y-84771429D01*
X158640476Y-84819048D01*
X158830952Y-84866667D01*
X158973810Y-84866667D01*
X159164286Y-84819048D01*
X159259524Y-84771429D01*
X159354762Y-84676191D01*
X159402381Y-84533333D01*
X159402381Y-84295238D01*
X150442857Y-75452381D02*
X150919048Y-75452381D01*
X150919048Y-74452381D01*
X150109524Y-74928571D02*
X149776190Y-74928571D01*
X149633333Y-75452381D02*
X150109524Y-75452381D01*
X150109524Y-74452381D01*
X149633333Y-74452381D01*
X149204762Y-75452381D02*
X149204762Y-74452381D01*
X148966667Y-74452381D01*
X148823809Y-74500000D01*
X148728571Y-74595238D01*
X148680952Y-74690476D01*
X148633333Y-74880952D01*
X148633333Y-75023810D01*
X148680952Y-75214286D01*
X148728571Y-75309524D01*
X148823809Y-75404762D01*
X148966667Y-75452381D01*
X149204762Y-75452381D01*
X141445238Y-90252381D02*
X142016667Y-90252381D01*
X141730953Y-90252381D02*
X141730953Y-89252381D01*
X141826191Y-89395238D01*
X141921429Y-89490476D01*
X142016667Y-89538095D01*
X140826191Y-89252381D02*
X140730952Y-89252381D01*
X140635714Y-89300000D01*
X140588095Y-89347619D01*
X140540476Y-89442857D01*
X140492857Y-89633333D01*
X140492857Y-89871429D01*
X140540476Y-90061905D01*
X140588095Y-90157143D01*
X140635714Y-90204762D01*
X140730952Y-90252381D01*
X140826191Y-90252381D01*
X140921429Y-90204762D01*
X140969048Y-90157143D01*
X141016667Y-90061905D01*
X141064286Y-89871429D01*
X141064286Y-89633333D01*
X141016667Y-89442857D01*
X140969048Y-89347619D01*
X140921429Y-89300000D01*
X140826191Y-89252381D01*
X140064286Y-90252381D02*
X140064286Y-89252381D01*
X139969048Y-89871429D02*
X139683333Y-90252381D01*
X139683333Y-89585714D02*
X140064286Y-89966667D01*
X144695238Y-79052381D02*
X145266667Y-79052381D01*
X144980953Y-79052381D02*
X144980953Y-78052381D01*
X145076191Y-78195238D01*
X145171429Y-78290476D01*
X145266667Y-78338095D01*
X143838095Y-78385714D02*
X143838095Y-79052381D01*
X144266667Y-78385714D02*
X144266667Y-78909524D01*
X144219048Y-79004762D01*
X144123810Y-79052381D01*
X143980952Y-79052381D01*
X143885714Y-79004762D01*
X143838095Y-78957143D01*
X143028571Y-78528571D02*
X143361905Y-78528571D01*
X143361905Y-79052381D02*
X143361905Y-78052381D01*
X142885714Y-78052381D01*
X142197619Y-78802381D02*
X142769048Y-78802381D01*
X142483334Y-78802381D02*
X142483334Y-77802381D01*
X142578572Y-77945238D01*
X142673810Y-78040476D01*
X142769048Y-78088095D01*
X141578572Y-77802381D02*
X141483333Y-77802381D01*
X141388095Y-77850000D01*
X141340476Y-77897619D01*
X141292857Y-77992857D01*
X141245238Y-78183333D01*
X141245238Y-78421429D01*
X141292857Y-78611905D01*
X141340476Y-78707143D01*
X141388095Y-78754762D01*
X141483333Y-78802381D01*
X141578572Y-78802381D01*
X141673810Y-78754762D01*
X141721429Y-78707143D01*
X141769048Y-78611905D01*
X141816667Y-78421429D01*
X141816667Y-78183333D01*
X141769048Y-77992857D01*
X141721429Y-77897619D01*
X141673810Y-77850000D01*
X141578572Y-77802381D01*
X140626191Y-77802381D02*
X140530952Y-77802381D01*
X140435714Y-77850000D01*
X140388095Y-77897619D01*
X140340476Y-77992857D01*
X140292857Y-78183333D01*
X140292857Y-78421429D01*
X140340476Y-78611905D01*
X140388095Y-78707143D01*
X140435714Y-78754762D01*
X140530952Y-78802381D01*
X140626191Y-78802381D01*
X140721429Y-78754762D01*
X140769048Y-78707143D01*
X140816667Y-78611905D01*
X140864286Y-78421429D01*
X140864286Y-78183333D01*
X140816667Y-77992857D01*
X140769048Y-77897619D01*
X140721429Y-77850000D01*
X140626191Y-77802381D01*
X139864286Y-78135714D02*
X139864286Y-78802381D01*
X139864286Y-78230952D02*
X139816667Y-78183333D01*
X139721429Y-78135714D01*
X139578571Y-78135714D01*
X139483333Y-78183333D01*
X139435714Y-78278571D01*
X139435714Y-78802381D01*
X138626190Y-78278571D02*
X138959524Y-78278571D01*
X138959524Y-78802381D02*
X138959524Y-77802381D01*
X138483333Y-77802381D01*
X118002381Y-93404762D02*
X118002381Y-92833333D01*
X118002381Y-93119047D02*
X117002381Y-93119047D01*
X117145238Y-93023809D01*
X117240476Y-92928571D01*
X117288095Y-92833333D01*
X117002381Y-94023809D02*
X117002381Y-94119048D01*
X117050000Y-94214286D01*
X117097619Y-94261905D01*
X117192857Y-94309524D01*
X117383333Y-94357143D01*
X117621429Y-94357143D01*
X117811905Y-94309524D01*
X117907143Y-94261905D01*
X117954762Y-94214286D01*
X118002381Y-94119048D01*
X118002381Y-94023809D01*
X117954762Y-93928571D01*
X117907143Y-93880952D01*
X117811905Y-93833333D01*
X117621429Y-93785714D01*
X117383333Y-93785714D01*
X117192857Y-93833333D01*
X117097619Y-93880952D01*
X117050000Y-93928571D01*
X117002381Y-94023809D01*
X118002381Y-94785714D02*
X117002381Y-94785714D01*
X117621429Y-94880952D02*
X118002381Y-95166667D01*
X117335714Y-95166667D02*
X117716667Y-94785714D01*
X146580952Y-75152381D02*
X147057143Y-75152381D01*
X147057143Y-74152381D01*
X146247619Y-75152381D02*
X146247619Y-74152381D01*
X145819048Y-75104762D02*
X145676191Y-75152381D01*
X145438095Y-75152381D01*
X145342857Y-75104762D01*
X145295238Y-75057143D01*
X145247619Y-74961905D01*
X145247619Y-74866667D01*
X145295238Y-74771429D01*
X145342857Y-74723810D01*
X145438095Y-74676190D01*
X145628572Y-74628571D01*
X145723810Y-74580952D01*
X145771429Y-74533333D01*
X145819048Y-74438095D01*
X145819048Y-74342857D01*
X145771429Y-74247619D01*
X145723810Y-74200000D01*
X145628572Y-74152381D01*
X145390476Y-74152381D01*
X145247619Y-74200000D01*
X144866667Y-74247619D02*
X144819048Y-74200000D01*
X144723810Y-74152381D01*
X144485714Y-74152381D01*
X144390476Y-74200000D01*
X144342857Y-74247619D01*
X144295238Y-74342857D01*
X144295238Y-74438095D01*
X144342857Y-74580952D01*
X144914286Y-75152381D01*
X144295238Y-75152381D01*
X143866667Y-75152381D02*
X143866667Y-74152381D01*
X143866667Y-74628571D02*
X143295238Y-74628571D01*
X143295238Y-75152381D02*
X143295238Y-74152381D01*
X142819048Y-75152381D02*
X142819048Y-74152381D01*
X142819048Y-74628571D02*
X142247619Y-74628571D01*
X142247619Y-75152381D02*
X142247619Y-74152381D01*
X141247619Y-75152381D02*
X141819048Y-75152381D01*
X141533334Y-75152381D02*
X141533334Y-74152381D01*
X141628572Y-74295238D01*
X141723810Y-74390476D01*
X141819048Y-74438095D01*
X140866667Y-74247619D02*
X140819048Y-74200000D01*
X140723810Y-74152381D01*
X140485714Y-74152381D01*
X140390476Y-74200000D01*
X140342857Y-74247619D01*
X140295238Y-74342857D01*
X140295238Y-74438095D01*
X140342857Y-74580952D01*
X140914286Y-75152381D01*
X140295238Y-75152381D01*
M02*
