G04 #@! TF.FileFunction,Copper,L1,Top,Signal*
%FSLAX46Y46*%
G04 Gerber Fmt 4.6, Leading zero omitted, Abs format (unit mm)*
G04 Created by KiCad (PCBNEW 4.0.2-stable) date 19/05/2016 18:52:09*
%MOMM*%
G01*
G04 APERTURE LIST*
%ADD10C,0.100000*%
%ADD11C,2.800000*%
%ADD12R,1.100000X1.900000*%
%ADD13R,1.100000X1.800000*%
%ADD14O,1.150000X1.400000*%
%ADD15R,1.700000X1.700000*%
%ADD16R,1.200000X1.000000*%
%ADD17R,2.200000X2.200000*%
%ADD18C,2.200000*%
%ADD19O,1.500000X2.500000*%
%ADD20C,0.700000*%
%ADD21C,0.500000*%
%ADD22C,0.300000*%
%ADD23C,0.200000*%
%ADD24C,0.700000*%
%ADD25C,0.190000*%
G04 APERTURE END LIST*
D10*
D11*
X149700000Y-71650000D03*
X105250000Y-91970000D03*
D12*
X135730000Y-94630000D03*
X133190000Y-94630000D03*
X130650000Y-94630000D03*
X128110000Y-94630000D03*
D13*
X135730000Y-68990000D03*
X133190000Y-68990000D03*
X130650000Y-68990000D03*
X128110000Y-68990000D03*
D12*
X123030000Y-87300000D03*
X120490000Y-87300000D03*
D14*
X104050000Y-86250000D03*
X104050000Y-81250000D03*
D15*
X101350000Y-86950000D03*
X101350000Y-80550000D03*
D16*
X159000000Y-83750000D03*
X159000000Y-85500000D03*
X159000000Y-87250000D03*
X159000000Y-82000000D03*
X159000000Y-80250000D03*
X159000000Y-78500000D03*
D17*
X161200000Y-76850000D03*
X161200000Y-89250000D03*
D18*
X163700000Y-88050000D03*
X163700000Y-78550000D03*
D19*
X173700000Y-83750000D03*
D20*
X151000000Y-79650000D03*
X151000000Y-76550000D03*
X113250000Y-74050000D03*
X121700000Y-68500000D03*
X123500000Y-69700000D03*
X144900000Y-75000000D03*
X143550000Y-75000000D03*
X141500000Y-76550000D03*
X136500000Y-85900000D03*
X121000000Y-75850000D03*
X110700000Y-89700000D03*
X142550000Y-88350000D03*
X151750000Y-82450000D03*
X153500000Y-77900000D03*
X106650000Y-74450000D03*
X124500000Y-73200000D03*
X122500000Y-73200000D03*
X126000000Y-71700000D03*
X128000000Y-71700000D03*
X130500000Y-71700000D03*
X132950000Y-71700000D03*
X124400000Y-69700000D03*
X117700000Y-69500000D03*
X108100000Y-81600000D03*
X115400000Y-76900000D03*
X143400000Y-73400000D03*
X154500000Y-74050000D03*
X154700000Y-70000000D03*
X154700000Y-68700000D03*
X151050000Y-68500000D03*
X134250000Y-71700000D03*
X145500000Y-69700000D03*
X144500000Y-69700000D03*
X143200000Y-69700000D03*
X142200000Y-69700000D03*
X140600000Y-72300000D03*
X140600000Y-70600000D03*
X139700000Y-69300000D03*
X139700000Y-68400000D03*
X120200000Y-97900000D03*
X123600000Y-93500000D03*
X121700000Y-87300000D03*
X114300000Y-85200000D03*
X118500000Y-85200000D03*
X114300000Y-81000000D03*
X116400000Y-83100000D03*
X118500000Y-81000000D03*
X110300000Y-76600000D03*
X142900000Y-82350000D03*
X119900000Y-73150000D03*
X120400000Y-79300000D03*
X136500000Y-83900000D03*
X136500000Y-82300000D03*
X105200000Y-89600000D03*
X105200000Y-88600000D03*
X111900000Y-89700000D03*
X107100000Y-83900000D03*
X145450000Y-80450000D03*
X144950000Y-78650000D03*
X132500000Y-76350000D03*
X127250000Y-76400000D03*
X109900000Y-80900000D03*
X137150000Y-87500000D03*
X132400000Y-87500000D03*
X133400000Y-77300000D03*
X115900000Y-91200000D03*
X122250000Y-80800000D03*
X119000000Y-88100000D03*
X111550000Y-86000000D03*
X111700000Y-82300000D03*
X114500000Y-77200000D03*
X112000000Y-79300000D03*
X134500000Y-94600000D03*
X126900000Y-94600000D03*
X119800000Y-69400000D03*
X124600000Y-93450000D03*
X125600000Y-86600000D03*
X131050000Y-74900000D03*
X132500000Y-74900000D03*
X131800000Y-80000000D03*
X131800000Y-82700000D03*
X105400000Y-81500000D03*
X107800000Y-89100000D03*
X130700000Y-96200000D03*
X136550000Y-81100000D03*
X136350000Y-76550000D03*
X135300000Y-81100000D03*
X132900000Y-81100000D03*
X129400000Y-80500000D03*
X129400000Y-85100000D03*
X130200000Y-80000000D03*
X130200000Y-84300000D03*
X131000000Y-80500000D03*
X131000000Y-83500000D03*
X138400000Y-85500000D03*
X132400000Y-85900000D03*
X133200000Y-92400000D03*
X122400000Y-69600000D03*
X122100000Y-85600000D03*
X160500000Y-83750000D03*
X154700000Y-81000000D03*
X123100000Y-85600000D03*
X124150000Y-88200000D03*
X152800000Y-85050000D03*
X151900000Y-85950000D03*
X154650000Y-86000000D03*
X113300000Y-88100000D03*
X112900000Y-86500000D03*
X124150000Y-87250000D03*
X124000000Y-85600000D03*
X157700000Y-87250000D03*
X161300000Y-78800000D03*
X137400000Y-81850000D03*
X137400000Y-76600000D03*
X131900000Y-86700000D03*
X137400000Y-85500000D03*
X133400000Y-76350000D03*
X126500000Y-75750000D03*
X127500000Y-79600000D03*
X127500000Y-81100000D03*
D21*
X151000000Y-79650000D02*
X151000000Y-76550000D01*
D22*
X121700000Y-68500000D02*
X121400000Y-68800000D01*
X123500000Y-70000000D02*
X123500000Y-69700000D01*
X123150000Y-70350000D02*
X123500000Y-70000000D01*
X121850000Y-70350000D02*
X123150000Y-70350000D01*
X121400000Y-69900000D02*
X121850000Y-70350000D01*
X121400000Y-68800000D02*
X121400000Y-69900000D01*
D23*
X114300000Y-85200000D02*
X113000000Y-85200000D01*
X110700000Y-87950000D02*
X110700000Y-89700000D01*
X112250000Y-86400000D02*
X110700000Y-87950000D01*
X112250000Y-85950000D02*
X112250000Y-86400000D01*
X113000000Y-85200000D02*
X112250000Y-85950000D01*
D22*
X115400000Y-76900000D02*
X115000000Y-76500000D01*
X108700000Y-82200000D02*
X108100000Y-81600000D01*
X110200000Y-82200000D02*
X108700000Y-82200000D01*
X110900000Y-81500000D02*
X110200000Y-82200000D01*
X110900000Y-79300000D02*
X110900000Y-81500000D01*
X113700000Y-76500000D02*
X110900000Y-79300000D01*
X115000000Y-76500000D02*
X113700000Y-76500000D01*
X121700000Y-87300000D02*
X120490000Y-87300000D01*
X116400000Y-83100000D02*
X114300000Y-85200000D01*
X116400000Y-83100000D02*
X118500000Y-85200000D01*
X116400000Y-83100000D02*
X114300000Y-81000000D01*
X116400000Y-83100000D02*
X118500000Y-81000000D01*
X145450000Y-79150000D02*
X144950000Y-78650000D01*
X145450000Y-80450000D02*
X145450000Y-79150000D01*
X132250000Y-76600000D02*
X132500000Y-76350000D01*
X127250000Y-76600000D02*
X132250000Y-76600000D01*
X127250000Y-76400000D02*
X127250000Y-76600000D01*
X127250000Y-76600000D02*
X116100000Y-76600000D01*
X115450000Y-75950000D02*
X113450000Y-75950000D01*
X113450000Y-75950000D02*
X109900000Y-79500000D01*
X109900000Y-79500000D02*
X109900000Y-80900000D01*
X116100000Y-76600000D02*
X115450000Y-75950000D01*
X137150000Y-87500000D02*
X132400000Y-87500000D01*
D24*
X122250000Y-77300000D02*
X133400000Y-77300000D01*
D21*
X119000000Y-88100000D02*
X115900000Y-91200000D01*
X122250000Y-77300000D02*
X122250000Y-80800000D01*
D24*
X114500000Y-77200000D02*
X114500000Y-77300000D01*
X116600000Y-77300000D02*
X122250000Y-77300000D01*
X116100000Y-77800000D02*
X116600000Y-77300000D01*
X115000000Y-77800000D02*
X116100000Y-77800000D01*
X114500000Y-77300000D02*
X115000000Y-77800000D01*
X114500000Y-77200000D02*
X114100000Y-77200000D01*
X114100000Y-77200000D02*
X112000000Y-79300000D01*
D21*
X111700000Y-82300000D02*
X111550000Y-82450000D01*
D24*
X111550000Y-82450000D02*
X111550000Y-86000000D01*
X112000000Y-79300000D02*
X112000000Y-82000000D01*
X112000000Y-82000000D02*
X111700000Y-82300000D01*
D21*
X134530000Y-94630000D02*
X135730000Y-94630000D01*
X134500000Y-94600000D02*
X134530000Y-94630000D01*
X126930000Y-94630000D02*
X128110000Y-94630000D01*
X126900000Y-94600000D02*
X126930000Y-94630000D01*
D22*
X119800000Y-69400000D02*
X121300000Y-70900000D01*
X128740000Y-70900000D02*
X130650000Y-68990000D01*
X121300000Y-70900000D02*
X128740000Y-70900000D01*
X130650000Y-68990000D02*
X130710000Y-68990000D01*
X125600000Y-87850000D02*
X125600000Y-86600000D01*
X124600000Y-88850000D02*
X125600000Y-87850000D01*
X124600000Y-93450000D02*
X124600000Y-88850000D01*
X131050000Y-74900000D02*
X132500000Y-74900000D01*
X131800000Y-80000000D02*
X131800000Y-82700000D01*
X105400000Y-81500000D02*
X105400000Y-86700000D01*
X105400000Y-86700000D02*
X107800000Y-89100000D01*
X130650000Y-96150000D02*
X130650000Y-94630000D01*
X130700000Y-96200000D02*
X130650000Y-96150000D01*
X136550000Y-76750000D02*
X136350000Y-76550000D01*
X136550000Y-76750000D02*
X136550000Y-81100000D01*
X132900000Y-81100000D02*
X135300000Y-81100000D01*
X129400000Y-80500000D02*
X129400000Y-85100000D01*
X130200000Y-80000000D02*
X130200000Y-84300000D01*
X131000000Y-80500000D02*
X131000000Y-83500000D01*
X135900000Y-84650000D02*
X134650000Y-85900000D01*
X137550000Y-84650000D02*
X135900000Y-84650000D01*
X138400000Y-85500000D02*
X137550000Y-84650000D01*
X132400000Y-85900000D02*
X134650000Y-85900000D01*
X133190000Y-92410000D02*
X133190000Y-94630000D01*
X133200000Y-92400000D02*
X133190000Y-92410000D01*
X128110000Y-68990000D02*
X123010000Y-68990000D01*
X123010000Y-68990000D02*
X122400000Y-69600000D01*
X128110000Y-68990000D02*
X128110000Y-68390000D01*
X122100000Y-85600000D02*
X122100000Y-85900000D01*
X122100000Y-85900000D02*
X123030000Y-86830000D01*
X123030000Y-86830000D02*
X123030000Y-87300000D01*
X123030000Y-86530000D02*
X123030000Y-87300000D01*
X159000000Y-85500000D02*
X160500000Y-84000000D01*
X160500000Y-84000000D02*
X160500000Y-83750000D01*
X160500000Y-83500000D02*
X159000000Y-82000000D01*
X160500000Y-83750000D02*
X160500000Y-83500000D01*
X152800000Y-82900000D02*
X152800000Y-85050000D01*
X154700000Y-81000000D02*
X152800000Y-82900000D01*
X123100000Y-85600000D02*
X123100000Y-85450000D01*
X123700000Y-84850000D02*
X124300000Y-84850000D01*
X123100000Y-85450000D02*
X123700000Y-84850000D01*
X124900000Y-85450000D02*
X124900000Y-87650000D01*
X124300000Y-84850000D02*
X124900000Y-85450000D01*
X124350000Y-88200000D02*
X124150000Y-88200000D01*
X124900000Y-87650000D02*
X124350000Y-88200000D01*
X151900000Y-85950000D02*
X151950000Y-86000000D01*
X151950000Y-86000000D02*
X154650000Y-86000000D01*
X112900000Y-87700000D02*
X113300000Y-88100000D01*
X112900000Y-86500000D02*
X112900000Y-87700000D01*
X124150000Y-85750000D02*
X124150000Y-87250000D01*
X124000000Y-85600000D02*
X124150000Y-85750000D01*
X157700000Y-87250000D02*
X159000000Y-87250000D01*
X161300000Y-78800000D02*
X159300000Y-78800000D01*
X159300000Y-78800000D02*
X159000000Y-78500000D01*
X137400000Y-76600000D02*
X137400000Y-81850000D01*
X131900000Y-86700000D02*
X134650000Y-86700000D01*
X136169998Y-85180002D02*
X137080002Y-85180002D01*
X134650000Y-86700000D02*
X136169998Y-85180002D01*
X137080002Y-85180002D02*
X137400000Y-85500000D01*
X132950000Y-75650000D02*
X133400000Y-76100000D01*
X133400000Y-76100000D02*
X133400000Y-76350000D01*
X126600000Y-75650000D02*
X132950000Y-75650000D01*
X126500000Y-75750000D02*
X126600000Y-75650000D01*
X127500000Y-81100000D02*
X127500000Y-79600000D01*
D25*
G36*
X125705000Y-68395000D02*
X123010000Y-68395000D01*
X122782303Y-68440292D01*
X122589271Y-68569271D01*
X122589269Y-68569274D01*
X122353584Y-68804959D01*
X122242558Y-68804862D01*
X121950257Y-68925639D01*
X121726425Y-69149081D01*
X121605138Y-69441171D01*
X121604862Y-69757442D01*
X121725639Y-70049743D01*
X121949081Y-70273575D01*
X122024760Y-70305000D01*
X121546457Y-70305000D01*
X120595041Y-69353583D01*
X120595138Y-69242558D01*
X120474361Y-68950257D01*
X120250919Y-68726425D01*
X119958829Y-68605138D01*
X119642558Y-68604862D01*
X119350257Y-68725639D01*
X119126425Y-68949081D01*
X119005138Y-69241171D01*
X119004862Y-69557442D01*
X119125639Y-69849743D01*
X119349081Y-70073575D01*
X119641171Y-70194862D01*
X119753502Y-70194960D01*
X120879269Y-71320726D01*
X120879271Y-71320729D01*
X121072303Y-71449708D01*
X121300000Y-71495000D01*
X128739995Y-71495000D01*
X128740000Y-71495001D01*
X128929919Y-71457223D01*
X128967697Y-71449708D01*
X129147898Y-71329302D01*
X147683096Y-71329302D01*
X147713898Y-72125550D01*
X147959349Y-72718122D01*
X148254818Y-72870322D01*
X149475140Y-71650000D01*
X149924860Y-71650000D01*
X151145182Y-72870322D01*
X151440651Y-72718122D01*
X151716904Y-71970698D01*
X151686102Y-71174450D01*
X151440651Y-70581878D01*
X151145182Y-70429678D01*
X149924860Y-71650000D01*
X149475140Y-71650000D01*
X148254818Y-70429678D01*
X147959349Y-70581878D01*
X147683096Y-71329302D01*
X129147898Y-71329302D01*
X129160729Y-71320729D01*
X129160730Y-71320728D01*
X130137739Y-70343718D01*
X131200000Y-70343718D01*
X131364907Y-70312689D01*
X131516364Y-70215229D01*
X131617971Y-70066522D01*
X131653718Y-69890000D01*
X131653718Y-68090000D01*
X131640547Y-68020000D01*
X132200458Y-68020000D01*
X132186282Y-68090000D01*
X132186282Y-69890000D01*
X132217311Y-70054907D01*
X132314771Y-70206364D01*
X132463478Y-70307971D01*
X132640000Y-70343718D01*
X133740000Y-70343718D01*
X133904907Y-70312689D01*
X134056364Y-70215229D01*
X134157971Y-70066522D01*
X134193718Y-69890000D01*
X134193718Y-69299750D01*
X134577000Y-69299750D01*
X134577000Y-70009944D01*
X134668801Y-70231572D01*
X134838428Y-70401199D01*
X135060056Y-70493000D01*
X135420250Y-70493000D01*
X135571000Y-70342250D01*
X135571000Y-69149000D01*
X135889000Y-69149000D01*
X135889000Y-70342250D01*
X136039750Y-70493000D01*
X136399944Y-70493000D01*
X136621572Y-70401199D01*
X136791199Y-70231572D01*
X136802280Y-70204818D01*
X148479678Y-70204818D01*
X149700000Y-71425140D01*
X150920322Y-70204818D01*
X150768122Y-69909349D01*
X150020698Y-69633096D01*
X149224450Y-69663898D01*
X148631878Y-69909349D01*
X148479678Y-70204818D01*
X136802280Y-70204818D01*
X136883000Y-70009944D01*
X136883000Y-69299750D01*
X136732250Y-69149000D01*
X135889000Y-69149000D01*
X135571000Y-69149000D01*
X134727750Y-69149000D01*
X134577000Y-69299750D01*
X134193718Y-69299750D01*
X134193718Y-68090000D01*
X134180547Y-68020000D01*
X134577000Y-68020000D01*
X134577000Y-68680250D01*
X134727750Y-68831000D01*
X135571000Y-68831000D01*
X135571000Y-68811000D01*
X135889000Y-68811000D01*
X135889000Y-68831000D01*
X136732250Y-68831000D01*
X136883000Y-68680250D01*
X136883000Y-68020000D01*
X169448787Y-68020000D01*
X169679789Y-68065949D01*
X169832209Y-68167793D01*
X169934051Y-68320211D01*
X169980000Y-68551213D01*
X169980000Y-78200000D01*
X169998439Y-78292700D01*
X170014361Y-78385892D01*
X170018185Y-78391965D01*
X170019583Y-78398995D01*
X170072095Y-78477586D01*
X170122467Y-78557587D01*
X170128318Y-78561730D01*
X170132304Y-78567696D01*
X170210910Y-78620218D01*
X170288047Y-78674843D01*
X172203204Y-79529700D01*
X173574310Y-80977288D01*
X173966301Y-82001359D01*
X173859000Y-82058310D01*
X173859000Y-83591000D01*
X173879000Y-83591000D01*
X173879000Y-83909000D01*
X173859000Y-83909000D01*
X173859000Y-85441690D01*
X173934487Y-85481755D01*
X173574310Y-86422712D01*
X172203204Y-87870300D01*
X170288047Y-88725157D01*
X170210910Y-88779782D01*
X170132304Y-88832304D01*
X170128318Y-88838270D01*
X170122467Y-88842413D01*
X170072095Y-88922414D01*
X170019583Y-89001005D01*
X170018185Y-89008035D01*
X170014361Y-89014108D01*
X169998439Y-89107300D01*
X169980000Y-89200000D01*
X169980000Y-98948787D01*
X169934051Y-99179789D01*
X169832209Y-99332207D01*
X169679789Y-99434051D01*
X169448787Y-99480000D01*
X139016022Y-99480000D01*
X138980417Y-99301005D01*
X138867696Y-99132304D01*
X138698995Y-99019583D01*
X138500000Y-98980000D01*
X123500000Y-98980000D01*
X123301005Y-99019583D01*
X123132304Y-99132304D01*
X123019583Y-99301005D01*
X122983978Y-99480000D01*
X101051213Y-99480000D01*
X100820211Y-99434051D01*
X100667793Y-99332209D01*
X100565949Y-99179789D01*
X100520000Y-98948787D01*
X100520000Y-94757442D01*
X126104862Y-94757442D01*
X126225639Y-95049743D01*
X126449081Y-95273575D01*
X126741171Y-95394862D01*
X127057442Y-95395138D01*
X127106282Y-95374958D01*
X127106282Y-95580000D01*
X127137311Y-95744907D01*
X127234771Y-95896364D01*
X127383478Y-95997971D01*
X127560000Y-96033718D01*
X128660000Y-96033718D01*
X128824907Y-96002689D01*
X128976364Y-95905229D01*
X129077971Y-95756522D01*
X129113718Y-95580000D01*
X129113718Y-93680000D01*
X129646282Y-93680000D01*
X129646282Y-95580000D01*
X129677311Y-95744907D01*
X129774771Y-95896364D01*
X129923165Y-95997757D01*
X129905138Y-96041171D01*
X129904862Y-96357442D01*
X130025639Y-96649743D01*
X130249081Y-96873575D01*
X130541171Y-96994862D01*
X130857442Y-96995138D01*
X131149743Y-96874361D01*
X131373575Y-96650919D01*
X131494862Y-96358829D01*
X131495138Y-96042558D01*
X131454771Y-95944863D01*
X131516364Y-95905229D01*
X131617971Y-95756522D01*
X131653718Y-95580000D01*
X131653718Y-93680000D01*
X132186282Y-93680000D01*
X132186282Y-95580000D01*
X132217311Y-95744907D01*
X132314771Y-95896364D01*
X132463478Y-95997971D01*
X132640000Y-96033718D01*
X133740000Y-96033718D01*
X133904907Y-96002689D01*
X134056364Y-95905229D01*
X134157971Y-95756522D01*
X134193718Y-95580000D01*
X134193718Y-95333634D01*
X134341171Y-95394862D01*
X134657442Y-95395138D01*
X134726282Y-95366694D01*
X134726282Y-95580000D01*
X134757311Y-95744907D01*
X134854771Y-95896364D01*
X135003478Y-95997971D01*
X135180000Y-96033718D01*
X136280000Y-96033718D01*
X136444907Y-96002689D01*
X136596364Y-95905229D01*
X136697971Y-95756522D01*
X136733718Y-95580000D01*
X136733718Y-93680000D01*
X136702689Y-93515093D01*
X136605229Y-93363636D01*
X136456522Y-93262029D01*
X136280000Y-93226282D01*
X135180000Y-93226282D01*
X135015093Y-93257311D01*
X134863636Y-93354771D01*
X134762029Y-93503478D01*
X134726282Y-93680000D01*
X134726282Y-93833147D01*
X134658829Y-93805138D01*
X134342558Y-93804862D01*
X134193718Y-93866362D01*
X134193718Y-93680000D01*
X134162689Y-93515093D01*
X134065229Y-93363636D01*
X133916522Y-93262029D01*
X133785000Y-93235395D01*
X133785000Y-92939340D01*
X133873575Y-92850919D01*
X133994862Y-92558829D01*
X133995138Y-92242558D01*
X133874361Y-91950257D01*
X133650919Y-91726425D01*
X133358829Y-91605138D01*
X133042558Y-91604862D01*
X132750257Y-91725639D01*
X132526425Y-91949081D01*
X132405138Y-92241171D01*
X132404862Y-92557442D01*
X132525639Y-92849743D01*
X132595000Y-92919225D01*
X132595000Y-93234749D01*
X132475093Y-93257311D01*
X132323636Y-93354771D01*
X132222029Y-93503478D01*
X132186282Y-93680000D01*
X131653718Y-93680000D01*
X131622689Y-93515093D01*
X131525229Y-93363636D01*
X131376522Y-93262029D01*
X131200000Y-93226282D01*
X130100000Y-93226282D01*
X129935093Y-93257311D01*
X129783636Y-93354771D01*
X129682029Y-93503478D01*
X129646282Y-93680000D01*
X129113718Y-93680000D01*
X129082689Y-93515093D01*
X128985229Y-93363636D01*
X128836522Y-93262029D01*
X128660000Y-93226282D01*
X127560000Y-93226282D01*
X127395093Y-93257311D01*
X127243636Y-93354771D01*
X127142029Y-93503478D01*
X127106282Y-93680000D01*
X127106282Y-93824842D01*
X127058829Y-93805138D01*
X126742558Y-93804862D01*
X126450257Y-93925639D01*
X126226425Y-94149081D01*
X126105138Y-94441171D01*
X126104862Y-94757442D01*
X100520000Y-94757442D01*
X100520000Y-93415182D01*
X104029678Y-93415182D01*
X104181878Y-93710651D01*
X104929302Y-93986904D01*
X105725550Y-93956102D01*
X106318122Y-93710651D01*
X106470322Y-93415182D01*
X105250000Y-92194860D01*
X104029678Y-93415182D01*
X100520000Y-93415182D01*
X100520000Y-91649302D01*
X103233096Y-91649302D01*
X103263898Y-92445550D01*
X103509349Y-93038122D01*
X103804818Y-93190322D01*
X105025140Y-91970000D01*
X105474860Y-91970000D01*
X106695182Y-93190322D01*
X106990651Y-93038122D01*
X107266904Y-92290698D01*
X107236102Y-91494450D01*
X107179352Y-91357442D01*
X115104862Y-91357442D01*
X115225639Y-91649743D01*
X115449081Y-91873575D01*
X115741171Y-91994862D01*
X116057442Y-91995138D01*
X116349743Y-91874361D01*
X116573575Y-91650919D01*
X116674136Y-91408742D01*
X119209074Y-88873804D01*
X119449743Y-88774361D01*
X119530737Y-88693508D01*
X119598428Y-88761199D01*
X119820056Y-88853000D01*
X120180250Y-88853000D01*
X120331000Y-88702250D01*
X120331000Y-87459000D01*
X120649000Y-87459000D01*
X120649000Y-88702250D01*
X120799750Y-88853000D01*
X121159944Y-88853000D01*
X121381572Y-88761199D01*
X121551199Y-88591572D01*
X121643000Y-88369944D01*
X121643000Y-87609750D01*
X121492250Y-87459000D01*
X120649000Y-87459000D01*
X120331000Y-87459000D01*
X119487750Y-87459000D01*
X119485592Y-87461158D01*
X119450919Y-87426425D01*
X119158829Y-87305138D01*
X118842558Y-87304862D01*
X118550257Y-87425639D01*
X118326425Y-87649081D01*
X118225864Y-87891258D01*
X115690926Y-90426196D01*
X115450257Y-90525639D01*
X115226425Y-90749081D01*
X115105138Y-91041171D01*
X115104862Y-91357442D01*
X107179352Y-91357442D01*
X106990651Y-90901878D01*
X106695182Y-90749678D01*
X105474860Y-91970000D01*
X105025140Y-91970000D01*
X103804818Y-90749678D01*
X103509349Y-90901878D01*
X103233096Y-91649302D01*
X100520000Y-91649302D01*
X100520000Y-90524818D01*
X104029678Y-90524818D01*
X105250000Y-91745140D01*
X106470322Y-90524818D01*
X106318122Y-90229349D01*
X105570698Y-89953096D01*
X104774450Y-89983898D01*
X104181878Y-90229349D01*
X104029678Y-90524818D01*
X100520000Y-90524818D01*
X100520000Y-88403000D01*
X101040250Y-88403000D01*
X101191000Y-88252250D01*
X101191000Y-87109000D01*
X101509000Y-87109000D01*
X101509000Y-88252250D01*
X101659750Y-88403000D01*
X102319944Y-88403000D01*
X102541572Y-88311199D01*
X102711199Y-88141572D01*
X102803000Y-87919944D01*
X102803000Y-87259750D01*
X102652250Y-87109000D01*
X101509000Y-87109000D01*
X101191000Y-87109000D01*
X101171000Y-87109000D01*
X101171000Y-86791000D01*
X101191000Y-86791000D01*
X101191000Y-85647750D01*
X101509000Y-85647750D01*
X101509000Y-86791000D01*
X102652250Y-86791000D01*
X102803000Y-86640250D01*
X102803000Y-86592502D01*
X102894088Y-86592502D01*
X103065311Y-87018294D01*
X103386444Y-87346150D01*
X103710364Y-87502977D01*
X103891000Y-87389870D01*
X103891000Y-86409000D01*
X103025044Y-86409000D01*
X102894088Y-86592502D01*
X102803000Y-86592502D01*
X102803000Y-85980056D01*
X102772946Y-85907498D01*
X102894088Y-85907498D01*
X103025044Y-86091000D01*
X103891000Y-86091000D01*
X103891000Y-85110130D01*
X103710364Y-84997023D01*
X103386444Y-85153850D01*
X103065311Y-85481706D01*
X102894088Y-85907498D01*
X102772946Y-85907498D01*
X102711199Y-85758428D01*
X102541572Y-85588801D01*
X102319944Y-85497000D01*
X101659750Y-85497000D01*
X101509000Y-85647750D01*
X101191000Y-85647750D01*
X101040250Y-85497000D01*
X100520000Y-85497000D01*
X100520000Y-82003000D01*
X101040250Y-82003000D01*
X101191000Y-81852250D01*
X101191000Y-80709000D01*
X101509000Y-80709000D01*
X101509000Y-81852250D01*
X101659750Y-82003000D01*
X102319944Y-82003000D01*
X102541572Y-81911199D01*
X102711199Y-81741572D01*
X102772945Y-81592502D01*
X102894088Y-81592502D01*
X103065311Y-82018294D01*
X103386444Y-82346150D01*
X103710364Y-82502977D01*
X103891000Y-82389870D01*
X103891000Y-81409000D01*
X103025044Y-81409000D01*
X102894088Y-81592502D01*
X102772945Y-81592502D01*
X102803000Y-81519944D01*
X102803000Y-80907498D01*
X102894088Y-80907498D01*
X103025044Y-81091000D01*
X103891000Y-81091000D01*
X103891000Y-80110130D01*
X104209000Y-80110130D01*
X104209000Y-81091000D01*
X104229000Y-81091000D01*
X104229000Y-81409000D01*
X104209000Y-81409000D01*
X104209000Y-82389870D01*
X104389636Y-82502977D01*
X104713556Y-82346150D01*
X104805000Y-82252792D01*
X104805000Y-85247208D01*
X104713556Y-85153850D01*
X104389636Y-84997023D01*
X104209000Y-85110130D01*
X104209000Y-86091000D01*
X104229000Y-86091000D01*
X104229000Y-86409000D01*
X104209000Y-86409000D01*
X104209000Y-87389870D01*
X104389636Y-87502977D01*
X104713556Y-87346150D01*
X104961056Y-87093468D01*
X104979271Y-87120729D01*
X107004959Y-89146416D01*
X107004862Y-89257442D01*
X107125639Y-89549743D01*
X107349081Y-89773575D01*
X107641171Y-89894862D01*
X107957442Y-89895138D01*
X108249743Y-89774361D01*
X108473575Y-89550919D01*
X108594862Y-89258829D01*
X108595138Y-88942558D01*
X108474361Y-88650257D01*
X108250919Y-88426425D01*
X107958829Y-88305138D01*
X107846497Y-88305040D01*
X105995000Y-86453542D01*
X105995000Y-82029357D01*
X106073575Y-81950919D01*
X106194862Y-81658829D01*
X106195138Y-81342558D01*
X106077330Y-81057442D01*
X109104862Y-81057442D01*
X109225639Y-81349743D01*
X109449081Y-81573575D01*
X109741171Y-81694862D01*
X110057442Y-81695138D01*
X110349743Y-81574361D01*
X110573575Y-81350919D01*
X110694862Y-81058829D01*
X110695138Y-80742558D01*
X110574361Y-80450257D01*
X110495000Y-80370757D01*
X110495000Y-79746458D01*
X111279593Y-78961865D01*
X111205138Y-79141171D01*
X111204862Y-79457442D01*
X111205000Y-79457776D01*
X111205000Y-81670700D01*
X111137850Y-81737850D01*
X111026425Y-81849081D01*
X111018957Y-81867065D01*
X110987850Y-81887850D01*
X110815516Y-82145767D01*
X110755000Y-82450000D01*
X110755000Y-85999307D01*
X110754862Y-86157442D01*
X110875639Y-86449743D01*
X111099081Y-86673575D01*
X111391171Y-86794862D01*
X111707442Y-86795138D01*
X111999743Y-86674361D01*
X112104939Y-86569348D01*
X112104862Y-86657442D01*
X112225639Y-86949743D01*
X112305000Y-87029243D01*
X112305000Y-87699995D01*
X112304999Y-87700000D01*
X112340346Y-87877696D01*
X112350292Y-87927697D01*
X112450518Y-88077697D01*
X112479271Y-88120729D01*
X112504959Y-88146417D01*
X112504862Y-88257442D01*
X112625639Y-88549743D01*
X112849081Y-88773575D01*
X113141171Y-88894862D01*
X113457442Y-88895138D01*
X113749743Y-88774361D01*
X113973575Y-88550919D01*
X114094862Y-88258829D01*
X114095138Y-87942558D01*
X113974361Y-87650257D01*
X113750919Y-87426425D01*
X113495000Y-87320158D01*
X113495000Y-87029357D01*
X113573575Y-86950919D01*
X113694862Y-86658829D01*
X113695138Y-86342558D01*
X113648653Y-86230056D01*
X119337000Y-86230056D01*
X119337000Y-86990250D01*
X119487750Y-87141000D01*
X120331000Y-87141000D01*
X120331000Y-85897750D01*
X120649000Y-85897750D01*
X120649000Y-87141000D01*
X121492250Y-87141000D01*
X121643000Y-86990250D01*
X121643000Y-86267483D01*
X121645098Y-86269585D01*
X121646914Y-86272303D01*
X121679271Y-86320729D01*
X122026282Y-86667740D01*
X122026282Y-88250000D01*
X122057311Y-88414907D01*
X122154771Y-88566364D01*
X122303478Y-88667971D01*
X122480000Y-88703718D01*
X123529520Y-88703718D01*
X123699081Y-88873575D01*
X123991171Y-88994862D01*
X124005000Y-88994874D01*
X124005000Y-92920643D01*
X123926425Y-92999081D01*
X123805138Y-93291171D01*
X123804862Y-93607442D01*
X123925639Y-93899743D01*
X124149081Y-94123575D01*
X124441171Y-94244862D01*
X124757442Y-94245138D01*
X125049743Y-94124361D01*
X125273575Y-93900919D01*
X125394862Y-93608829D01*
X125395138Y-93292558D01*
X125274361Y-93000257D01*
X125195000Y-92920757D01*
X125195000Y-89096458D01*
X126020726Y-88270731D01*
X126020729Y-88270729D01*
X126149708Y-88077697D01*
X126149709Y-88077696D01*
X126195001Y-87850000D01*
X126195000Y-87849995D01*
X126195000Y-87129357D01*
X126273575Y-87050919D01*
X126353914Y-86857442D01*
X131104862Y-86857442D01*
X131225639Y-87149743D01*
X131449081Y-87373575D01*
X131605053Y-87438341D01*
X131604862Y-87657442D01*
X131725639Y-87949743D01*
X131949081Y-88173575D01*
X132241171Y-88294862D01*
X132557442Y-88295138D01*
X132849743Y-88174361D01*
X132929243Y-88095000D01*
X136620643Y-88095000D01*
X136699081Y-88173575D01*
X136991171Y-88294862D01*
X137307442Y-88295138D01*
X137599743Y-88174361D01*
X137823575Y-87950919D01*
X137944862Y-87658829D01*
X137945081Y-87407442D01*
X156904862Y-87407442D01*
X157025639Y-87699743D01*
X157249081Y-87923575D01*
X157541171Y-88044862D01*
X157857442Y-88045138D01*
X158018334Y-87978658D01*
X158074771Y-88066364D01*
X158223478Y-88167971D01*
X158400000Y-88203718D01*
X159600000Y-88203718D01*
X159646282Y-88195010D01*
X159646282Y-90350000D01*
X159677311Y-90514907D01*
X159774771Y-90666364D01*
X159923478Y-90767971D01*
X160100000Y-90803718D01*
X162300000Y-90803718D01*
X162464907Y-90772689D01*
X162616364Y-90675229D01*
X162717971Y-90526522D01*
X162753718Y-90350000D01*
X162753718Y-89408126D01*
X162812312Y-89542304D01*
X163450963Y-89768412D01*
X164127527Y-89732908D01*
X164587688Y-89542304D01*
X164703117Y-89277977D01*
X163700000Y-88274860D01*
X163685858Y-88289003D01*
X163460998Y-88064143D01*
X163475140Y-88050000D01*
X163924860Y-88050000D01*
X164927977Y-89053117D01*
X165192304Y-88937688D01*
X165418412Y-88299037D01*
X165382908Y-87622473D01*
X165192304Y-87162312D01*
X164927977Y-87046883D01*
X163924860Y-88050000D01*
X163475140Y-88050000D01*
X162472023Y-87046883D01*
X162207696Y-87162312D01*
X162018649Y-87696282D01*
X160100000Y-87696282D01*
X160053718Y-87704990D01*
X160053718Y-86822023D01*
X162696883Y-86822023D01*
X163700000Y-87825140D01*
X164703117Y-86822023D01*
X164587688Y-86557696D01*
X163949037Y-86331588D01*
X163272473Y-86367092D01*
X162812312Y-86557696D01*
X162696883Y-86822023D01*
X160053718Y-86822023D01*
X160053718Y-86750000D01*
X160022689Y-86585093D01*
X159925229Y-86433636D01*
X159839221Y-86374869D01*
X159916364Y-86325229D01*
X160017971Y-86176522D01*
X160053718Y-86000000D01*
X160053718Y-85287740D01*
X160894108Y-84447349D01*
X160949743Y-84424361D01*
X161173575Y-84200919D01*
X161294790Y-83909000D01*
X172347000Y-83909000D01*
X172347000Y-84409000D01*
X172510838Y-84914668D01*
X172855715Y-85319146D01*
X173332768Y-85552210D01*
X173541000Y-85441690D01*
X173541000Y-83909000D01*
X172347000Y-83909000D01*
X161294790Y-83909000D01*
X161294862Y-83908829D01*
X161295138Y-83592558D01*
X161174361Y-83300257D01*
X160965469Y-83091000D01*
X172347000Y-83091000D01*
X172347000Y-83591000D01*
X173541000Y-83591000D01*
X173541000Y-82058310D01*
X173332768Y-81947790D01*
X172855715Y-82180854D01*
X172510838Y-82585332D01*
X172347000Y-83091000D01*
X160965469Y-83091000D01*
X160950919Y-83076425D01*
X160894422Y-83052965D01*
X160053718Y-82212260D01*
X160053718Y-81500000D01*
X160022689Y-81335093D01*
X159961997Y-81240774D01*
X160111199Y-81091572D01*
X160203000Y-80869944D01*
X160203000Y-80559750D01*
X160052250Y-80409000D01*
X159159000Y-80409000D01*
X159159000Y-80429000D01*
X158841000Y-80429000D01*
X158841000Y-80409000D01*
X157947750Y-80409000D01*
X157797000Y-80559750D01*
X157797000Y-80869944D01*
X157888801Y-81091572D01*
X158038321Y-81241092D01*
X157982029Y-81323478D01*
X157946282Y-81500000D01*
X157946282Y-82500000D01*
X157977311Y-82664907D01*
X158038003Y-82759226D01*
X157888801Y-82908428D01*
X157797000Y-83130056D01*
X157797000Y-83440250D01*
X157947750Y-83591000D01*
X158841000Y-83591000D01*
X158841000Y-83571000D01*
X159159000Y-83571000D01*
X159159000Y-83591000D01*
X159179000Y-83591000D01*
X159179000Y-83909000D01*
X159159000Y-83909000D01*
X159159000Y-83929000D01*
X158841000Y-83929000D01*
X158841000Y-83909000D01*
X157947750Y-83909000D01*
X157797000Y-84059750D01*
X157797000Y-84369944D01*
X157888801Y-84591572D01*
X158038321Y-84741092D01*
X157982029Y-84823478D01*
X157946282Y-85000000D01*
X157946282Y-86000000D01*
X157977311Y-86164907D01*
X158074771Y-86316364D01*
X158160779Y-86375131D01*
X158083636Y-86424771D01*
X158017787Y-86521144D01*
X157858829Y-86455138D01*
X157542558Y-86454862D01*
X157250257Y-86575639D01*
X157026425Y-86799081D01*
X156905138Y-87091171D01*
X156904862Y-87407442D01*
X137945081Y-87407442D01*
X137945138Y-87342558D01*
X137824361Y-87050257D01*
X137600919Y-86826425D01*
X137308829Y-86705138D01*
X136992558Y-86704862D01*
X136700257Y-86825639D01*
X136620757Y-86905000D01*
X135286458Y-86905000D01*
X136416455Y-85775002D01*
X136653437Y-85775002D01*
X136725639Y-85949743D01*
X136949081Y-86173575D01*
X137241171Y-86294862D01*
X137557442Y-86295138D01*
X137849743Y-86174361D01*
X137899892Y-86124300D01*
X137949081Y-86173575D01*
X138241171Y-86294862D01*
X138557442Y-86295138D01*
X138849743Y-86174361D01*
X138916778Y-86107442D01*
X151104862Y-86107442D01*
X151225639Y-86399743D01*
X151449081Y-86623575D01*
X151741171Y-86744862D01*
X152057442Y-86745138D01*
X152349743Y-86624361D01*
X152379155Y-86595000D01*
X154120643Y-86595000D01*
X154199081Y-86673575D01*
X154491171Y-86794862D01*
X154807442Y-86795138D01*
X155099743Y-86674361D01*
X155323575Y-86450919D01*
X155444862Y-86158829D01*
X155445138Y-85842558D01*
X155324361Y-85550257D01*
X155100919Y-85326425D01*
X154808829Y-85205138D01*
X154492558Y-85204862D01*
X154200257Y-85325639D01*
X154120757Y-85405000D01*
X153513404Y-85405000D01*
X153594862Y-85208829D01*
X153595138Y-84892558D01*
X153474361Y-84600257D01*
X153395000Y-84520757D01*
X153395000Y-83146458D01*
X154746416Y-81795041D01*
X154857442Y-81795138D01*
X155149743Y-81674361D01*
X155373575Y-81450919D01*
X155494862Y-81158829D01*
X155495138Y-80842558D01*
X155374361Y-80550257D01*
X155150919Y-80326425D01*
X154858829Y-80205138D01*
X154542558Y-80204862D01*
X154250257Y-80325639D01*
X154026425Y-80549081D01*
X153905138Y-80841171D01*
X153905040Y-80953503D01*
X152379271Y-82479271D01*
X152250292Y-82672303D01*
X152250292Y-82672304D01*
X152204999Y-82900000D01*
X152205000Y-82900005D01*
X152205000Y-84520643D01*
X152126425Y-84599081D01*
X152005138Y-84891171D01*
X152004908Y-85155091D01*
X151742558Y-85154862D01*
X151450257Y-85275639D01*
X151226425Y-85499081D01*
X151105138Y-85791171D01*
X151104862Y-86107442D01*
X138916778Y-86107442D01*
X139073575Y-85950919D01*
X139194862Y-85658829D01*
X139195138Y-85342558D01*
X139074361Y-85050257D01*
X138850919Y-84826425D01*
X138558829Y-84705138D01*
X138446497Y-84705040D01*
X137970729Y-84229271D01*
X137889603Y-84175065D01*
X137777697Y-84100292D01*
X137739919Y-84092777D01*
X137550000Y-84054999D01*
X137549995Y-84055000D01*
X135900005Y-84055000D01*
X135900000Y-84054999D01*
X135710081Y-84092777D01*
X135672303Y-84100292D01*
X135560397Y-84175065D01*
X135479271Y-84229271D01*
X134403542Y-85305000D01*
X132929357Y-85305000D01*
X132850919Y-85226425D01*
X132558829Y-85105138D01*
X132242558Y-85104862D01*
X131950257Y-85225639D01*
X131726425Y-85449081D01*
X131605138Y-85741171D01*
X131604946Y-85961723D01*
X131450257Y-86025639D01*
X131226425Y-86249081D01*
X131105138Y-86541171D01*
X131104862Y-86857442D01*
X126353914Y-86857442D01*
X126394862Y-86758829D01*
X126395138Y-86442558D01*
X126274361Y-86150257D01*
X126050919Y-85926425D01*
X125758829Y-85805138D01*
X125495000Y-85804908D01*
X125495000Y-85450005D01*
X125495001Y-85450000D01*
X125450528Y-85226425D01*
X125449708Y-85222303D01*
X125320729Y-85029271D01*
X125320726Y-85029269D01*
X124720729Y-84429271D01*
X124690391Y-84409000D01*
X124527697Y-84300292D01*
X124487629Y-84292322D01*
X124300000Y-84254999D01*
X124299995Y-84255000D01*
X123700005Y-84255000D01*
X123700000Y-84254999D01*
X123512371Y-84292322D01*
X123472303Y-84300292D01*
X123279271Y-84429271D01*
X123279269Y-84429274D01*
X122876305Y-84832237D01*
X122650257Y-84925639D01*
X122600108Y-84975700D01*
X122550919Y-84926425D01*
X122258829Y-84805138D01*
X121942558Y-84804862D01*
X121650257Y-84925639D01*
X121426425Y-85149081D01*
X121305138Y-85441171D01*
X121304862Y-85757442D01*
X121329581Y-85817266D01*
X121159944Y-85747000D01*
X120799750Y-85747000D01*
X120649000Y-85897750D01*
X120331000Y-85897750D01*
X120180250Y-85747000D01*
X119820056Y-85747000D01*
X119598428Y-85838801D01*
X119428801Y-86008428D01*
X119337000Y-86230056D01*
X113648653Y-86230056D01*
X113574361Y-86050257D01*
X113350919Y-85826425D01*
X113058829Y-85705138D01*
X112742558Y-85704862D01*
X112450257Y-85825639D01*
X112345061Y-85930652D01*
X112345138Y-85842558D01*
X112345000Y-85842224D01*
X112345000Y-82779444D01*
X112373575Y-82750919D01*
X112373713Y-82750587D01*
X112562150Y-82562150D01*
X112734484Y-82304233D01*
X112795000Y-82000000D01*
X112795000Y-79629300D01*
X114250000Y-78174300D01*
X114437850Y-78362150D01*
X114695767Y-78534484D01*
X115000000Y-78595000D01*
X116100000Y-78595000D01*
X116404233Y-78534484D01*
X116662150Y-78362150D01*
X116929300Y-78095000D01*
X121555000Y-78095000D01*
X121555000Y-80400678D01*
X121455138Y-80641171D01*
X121454862Y-80957442D01*
X121575639Y-81249743D01*
X121799081Y-81473575D01*
X122091171Y-81594862D01*
X122407442Y-81595138D01*
X122699743Y-81474361D01*
X122923575Y-81250919D01*
X123044862Y-80958829D01*
X123045138Y-80642558D01*
X122945000Y-80400207D01*
X122945000Y-79757442D01*
X126704862Y-79757442D01*
X126825639Y-80049743D01*
X126905000Y-80129243D01*
X126905000Y-80570643D01*
X126826425Y-80649081D01*
X126705138Y-80941171D01*
X126704862Y-81257442D01*
X126825639Y-81549743D01*
X127049081Y-81773575D01*
X127341171Y-81894862D01*
X127657442Y-81895138D01*
X127949743Y-81774361D01*
X128173575Y-81550919D01*
X128294862Y-81258829D01*
X128295138Y-80942558D01*
X128177330Y-80657442D01*
X128604862Y-80657442D01*
X128725639Y-80949743D01*
X128805000Y-81029243D01*
X128805000Y-84570643D01*
X128726425Y-84649081D01*
X128605138Y-84941171D01*
X128604862Y-85257442D01*
X128725639Y-85549743D01*
X128949081Y-85773575D01*
X129241171Y-85894862D01*
X129557442Y-85895138D01*
X129849743Y-85774361D01*
X130073575Y-85550919D01*
X130194862Y-85258829D01*
X130195005Y-85094996D01*
X130357442Y-85095138D01*
X130649743Y-84974361D01*
X130873575Y-84750919D01*
X130994862Y-84458829D01*
X130995005Y-84294996D01*
X131157442Y-84295138D01*
X131449743Y-84174361D01*
X131673575Y-83950919D01*
X131794862Y-83658829D01*
X131795005Y-83494996D01*
X131957442Y-83495138D01*
X132249743Y-83374361D01*
X132473575Y-83150919D01*
X132594862Y-82858829D01*
X132595138Y-82542558D01*
X132474361Y-82250257D01*
X132395000Y-82170757D01*
X132395000Y-81719400D01*
X132449081Y-81773575D01*
X132741171Y-81894862D01*
X133057442Y-81895138D01*
X133349743Y-81774361D01*
X133429243Y-81695000D01*
X134770643Y-81695000D01*
X134849081Y-81773575D01*
X135141171Y-81894862D01*
X135457442Y-81895138D01*
X135749743Y-81774361D01*
X135925110Y-81599300D01*
X136099081Y-81773575D01*
X136391171Y-81894862D01*
X136604960Y-81895049D01*
X136604862Y-82007442D01*
X136725639Y-82299743D01*
X136949081Y-82523575D01*
X137241171Y-82644862D01*
X137557442Y-82645138D01*
X137849743Y-82524361D01*
X138073575Y-82300919D01*
X138194862Y-82008829D01*
X138195138Y-81692558D01*
X138074361Y-81400257D01*
X137995000Y-81320757D01*
X137995000Y-78807442D01*
X144154862Y-78807442D01*
X144275639Y-79099743D01*
X144499081Y-79323575D01*
X144791171Y-79444862D01*
X144855000Y-79444918D01*
X144855000Y-79920643D01*
X144776425Y-79999081D01*
X144655138Y-80291171D01*
X144654862Y-80607442D01*
X144775639Y-80899743D01*
X144999081Y-81123575D01*
X145291171Y-81244862D01*
X145607442Y-81245138D01*
X145899743Y-81124361D01*
X146123575Y-80900919D01*
X146244862Y-80608829D01*
X146245138Y-80292558D01*
X146124361Y-80000257D01*
X146045000Y-79920757D01*
X146045000Y-79150005D01*
X146045001Y-79150000D01*
X145999709Y-78922304D01*
X145950783Y-78849081D01*
X145870729Y-78729271D01*
X145870726Y-78729269D01*
X145745041Y-78603584D01*
X145745138Y-78492558D01*
X145624361Y-78200257D01*
X145400919Y-77976425D01*
X145108829Y-77855138D01*
X144792558Y-77854862D01*
X144500257Y-77975639D01*
X144276425Y-78199081D01*
X144155138Y-78491171D01*
X144154862Y-78807442D01*
X137995000Y-78807442D01*
X137995000Y-77129357D01*
X138073575Y-77050919D01*
X138194862Y-76758829D01*
X138194906Y-76707442D01*
X150204862Y-76707442D01*
X150305000Y-76949793D01*
X150305000Y-79250678D01*
X150205138Y-79491171D01*
X150204862Y-79807442D01*
X150325639Y-80099743D01*
X150549081Y-80323575D01*
X150841171Y-80444862D01*
X151157442Y-80445138D01*
X151449743Y-80324361D01*
X151673575Y-80100919D01*
X151794862Y-79808829D01*
X151795018Y-79630056D01*
X157797000Y-79630056D01*
X157797000Y-79940250D01*
X157947750Y-80091000D01*
X158841000Y-80091000D01*
X158841000Y-80071000D01*
X159159000Y-80071000D01*
X159159000Y-80091000D01*
X160052250Y-80091000D01*
X160203000Y-79940250D01*
X160203000Y-79777977D01*
X162696883Y-79777977D01*
X162812312Y-80042304D01*
X163450963Y-80268412D01*
X164127527Y-80232908D01*
X164587688Y-80042304D01*
X164703117Y-79777977D01*
X163700000Y-78774860D01*
X162696883Y-79777977D01*
X160203000Y-79777977D01*
X160203000Y-79630056D01*
X160111199Y-79408428D01*
X160097771Y-79395000D01*
X160770643Y-79395000D01*
X160849081Y-79473575D01*
X161141171Y-79594862D01*
X161457442Y-79595138D01*
X161749743Y-79474361D01*
X161973575Y-79250919D01*
X162052052Y-79061927D01*
X162207696Y-79437688D01*
X162472023Y-79553117D01*
X163475140Y-78550000D01*
X163924860Y-78550000D01*
X164927977Y-79553117D01*
X165192304Y-79437688D01*
X165418412Y-78799037D01*
X165382908Y-78122473D01*
X165192304Y-77662312D01*
X164927977Y-77546883D01*
X163924860Y-78550000D01*
X163475140Y-78550000D01*
X163460998Y-78535858D01*
X163685858Y-78310998D01*
X163700000Y-78325140D01*
X164703117Y-77322023D01*
X164587688Y-77057696D01*
X163949037Y-76831588D01*
X163272473Y-76867092D01*
X162812312Y-77057696D01*
X162753718Y-77191874D01*
X162753718Y-75750000D01*
X162722689Y-75585093D01*
X162625229Y-75433636D01*
X162476522Y-75332029D01*
X162300000Y-75296282D01*
X160100000Y-75296282D01*
X159935093Y-75327311D01*
X159783636Y-75424771D01*
X159682029Y-75573478D01*
X159646282Y-75750000D01*
X159646282Y-77555654D01*
X159600000Y-77546282D01*
X158400000Y-77546282D01*
X158235093Y-77577311D01*
X158083636Y-77674771D01*
X157982029Y-77823478D01*
X157946282Y-78000000D01*
X157946282Y-79000000D01*
X157977311Y-79164907D01*
X158038003Y-79259226D01*
X157888801Y-79408428D01*
X157797000Y-79630056D01*
X151795018Y-79630056D01*
X151795138Y-79492558D01*
X151695000Y-79250207D01*
X151695000Y-76949322D01*
X151794862Y-76708829D01*
X151795138Y-76392558D01*
X151674361Y-76100257D01*
X151450919Y-75876425D01*
X151158829Y-75755138D01*
X150842558Y-75754862D01*
X150550257Y-75875639D01*
X150326425Y-76099081D01*
X150205138Y-76391171D01*
X150204862Y-76707442D01*
X138194906Y-76707442D01*
X138195138Y-76442558D01*
X138074361Y-76150257D01*
X137850919Y-75926425D01*
X137558829Y-75805138D01*
X137242558Y-75804862D01*
X136950257Y-75925639D01*
X136900065Y-75975744D01*
X136800919Y-75876425D01*
X136508829Y-75755138D01*
X136192558Y-75754862D01*
X135900257Y-75875639D01*
X135676425Y-76099081D01*
X135555138Y-76391171D01*
X135554862Y-76707442D01*
X135675639Y-76999743D01*
X135899081Y-77223575D01*
X135955000Y-77246795D01*
X135955000Y-80570643D01*
X135924890Y-80600700D01*
X135750919Y-80426425D01*
X135458829Y-80305138D01*
X135142558Y-80304862D01*
X134850257Y-80425639D01*
X134770757Y-80505000D01*
X133429357Y-80505000D01*
X133350919Y-80426425D01*
X133058829Y-80305138D01*
X132742558Y-80304862D01*
X132491076Y-80408773D01*
X132594862Y-80158829D01*
X132595138Y-79842558D01*
X132474361Y-79550257D01*
X132250919Y-79326425D01*
X131958829Y-79205138D01*
X131642558Y-79204862D01*
X131350257Y-79325639D01*
X131126425Y-79549081D01*
X131061659Y-79705053D01*
X130938277Y-79704946D01*
X130874361Y-79550257D01*
X130650919Y-79326425D01*
X130358829Y-79205138D01*
X130042558Y-79204862D01*
X129750257Y-79325639D01*
X129526425Y-79549081D01*
X129461659Y-79705053D01*
X129242558Y-79704862D01*
X128950257Y-79825639D01*
X128726425Y-80049081D01*
X128605138Y-80341171D01*
X128604862Y-80657442D01*
X128177330Y-80657442D01*
X128174361Y-80650257D01*
X128095000Y-80570757D01*
X128095000Y-80129357D01*
X128173575Y-80050919D01*
X128294862Y-79758829D01*
X128295138Y-79442558D01*
X128174361Y-79150257D01*
X127950919Y-78926425D01*
X127658829Y-78805138D01*
X127342558Y-78804862D01*
X127050257Y-78925639D01*
X126826425Y-79149081D01*
X126705138Y-79441171D01*
X126704862Y-79757442D01*
X122945000Y-79757442D01*
X122945000Y-78095000D01*
X133399306Y-78095000D01*
X133557442Y-78095138D01*
X133849743Y-77974361D01*
X134073575Y-77750919D01*
X134194862Y-77458829D01*
X134195138Y-77142558D01*
X134074361Y-76850257D01*
X134049300Y-76825152D01*
X134073575Y-76800919D01*
X134194862Y-76508829D01*
X134195138Y-76192558D01*
X134074361Y-75900257D01*
X133850919Y-75676425D01*
X133794423Y-75652966D01*
X133370729Y-75229271D01*
X133255937Y-75152570D01*
X133294862Y-75058829D01*
X133295138Y-74742558D01*
X133174361Y-74450257D01*
X132950919Y-74226425D01*
X132658829Y-74105138D01*
X132342558Y-74104862D01*
X132050257Y-74225639D01*
X131970757Y-74305000D01*
X131579357Y-74305000D01*
X131500919Y-74226425D01*
X131208829Y-74105138D01*
X130892558Y-74104862D01*
X130600257Y-74225639D01*
X130376425Y-74449081D01*
X130255138Y-74741171D01*
X130254864Y-75055000D01*
X126899322Y-75055000D01*
X126658829Y-74955138D01*
X126342558Y-74954862D01*
X126050257Y-75075639D01*
X125826425Y-75299081D01*
X125705138Y-75591171D01*
X125704862Y-75907442D01*
X125745172Y-76005000D01*
X116346457Y-76005000D01*
X115870729Y-75529271D01*
X115860302Y-75522304D01*
X115677697Y-75400292D01*
X115639919Y-75392777D01*
X115450000Y-75354999D01*
X115449995Y-75355000D01*
X113450005Y-75355000D01*
X113450000Y-75354999D01*
X113260081Y-75392777D01*
X113222303Y-75400292D01*
X113029271Y-75529271D01*
X113029269Y-75529274D01*
X109479271Y-79079271D01*
X109350292Y-79272303D01*
X109350292Y-79272304D01*
X109304999Y-79500000D01*
X109305000Y-79500005D01*
X109305000Y-80370643D01*
X109226425Y-80449081D01*
X109105138Y-80741171D01*
X109104862Y-81057442D01*
X106077330Y-81057442D01*
X106074361Y-81050257D01*
X105850919Y-80826425D01*
X105558829Y-80705138D01*
X105242558Y-80704862D01*
X105141258Y-80746719D01*
X105034689Y-80481706D01*
X104713556Y-80153850D01*
X104389636Y-79997023D01*
X104209000Y-80110130D01*
X103891000Y-80110130D01*
X103710364Y-79997023D01*
X103386444Y-80153850D01*
X103065311Y-80481706D01*
X102894088Y-80907498D01*
X102803000Y-80907498D01*
X102803000Y-80859750D01*
X102652250Y-80709000D01*
X101509000Y-80709000D01*
X101191000Y-80709000D01*
X101171000Y-80709000D01*
X101171000Y-80391000D01*
X101191000Y-80391000D01*
X101191000Y-79247750D01*
X101509000Y-79247750D01*
X101509000Y-80391000D01*
X102652250Y-80391000D01*
X102803000Y-80240250D01*
X102803000Y-79580056D01*
X102711199Y-79358428D01*
X102541572Y-79188801D01*
X102319944Y-79097000D01*
X101659750Y-79097000D01*
X101509000Y-79247750D01*
X101191000Y-79247750D01*
X101040250Y-79097000D01*
X100520000Y-79097000D01*
X100520000Y-73095182D01*
X148479678Y-73095182D01*
X148631878Y-73390651D01*
X149379302Y-73666904D01*
X150175550Y-73636102D01*
X150768122Y-73390651D01*
X150920322Y-73095182D01*
X149700000Y-71874860D01*
X148479678Y-73095182D01*
X100520000Y-73095182D01*
X100520000Y-68551213D01*
X100565949Y-68320211D01*
X100667793Y-68167791D01*
X100820211Y-68065949D01*
X101051213Y-68020000D01*
X125705000Y-68020000D01*
X125705000Y-68395000D01*
X125705000Y-68395000D01*
G37*
X125705000Y-68395000D02*
X123010000Y-68395000D01*
X122782303Y-68440292D01*
X122589271Y-68569271D01*
X122589269Y-68569274D01*
X122353584Y-68804959D01*
X122242558Y-68804862D01*
X121950257Y-68925639D01*
X121726425Y-69149081D01*
X121605138Y-69441171D01*
X121604862Y-69757442D01*
X121725639Y-70049743D01*
X121949081Y-70273575D01*
X122024760Y-70305000D01*
X121546457Y-70305000D01*
X120595041Y-69353583D01*
X120595138Y-69242558D01*
X120474361Y-68950257D01*
X120250919Y-68726425D01*
X119958829Y-68605138D01*
X119642558Y-68604862D01*
X119350257Y-68725639D01*
X119126425Y-68949081D01*
X119005138Y-69241171D01*
X119004862Y-69557442D01*
X119125639Y-69849743D01*
X119349081Y-70073575D01*
X119641171Y-70194862D01*
X119753502Y-70194960D01*
X120879269Y-71320726D01*
X120879271Y-71320729D01*
X121072303Y-71449708D01*
X121300000Y-71495000D01*
X128739995Y-71495000D01*
X128740000Y-71495001D01*
X128929919Y-71457223D01*
X128967697Y-71449708D01*
X129147898Y-71329302D01*
X147683096Y-71329302D01*
X147713898Y-72125550D01*
X147959349Y-72718122D01*
X148254818Y-72870322D01*
X149475140Y-71650000D01*
X149924860Y-71650000D01*
X151145182Y-72870322D01*
X151440651Y-72718122D01*
X151716904Y-71970698D01*
X151686102Y-71174450D01*
X151440651Y-70581878D01*
X151145182Y-70429678D01*
X149924860Y-71650000D01*
X149475140Y-71650000D01*
X148254818Y-70429678D01*
X147959349Y-70581878D01*
X147683096Y-71329302D01*
X129147898Y-71329302D01*
X129160729Y-71320729D01*
X129160730Y-71320728D01*
X130137739Y-70343718D01*
X131200000Y-70343718D01*
X131364907Y-70312689D01*
X131516364Y-70215229D01*
X131617971Y-70066522D01*
X131653718Y-69890000D01*
X131653718Y-68090000D01*
X131640547Y-68020000D01*
X132200458Y-68020000D01*
X132186282Y-68090000D01*
X132186282Y-69890000D01*
X132217311Y-70054907D01*
X132314771Y-70206364D01*
X132463478Y-70307971D01*
X132640000Y-70343718D01*
X133740000Y-70343718D01*
X133904907Y-70312689D01*
X134056364Y-70215229D01*
X134157971Y-70066522D01*
X134193718Y-69890000D01*
X134193718Y-69299750D01*
X134577000Y-69299750D01*
X134577000Y-70009944D01*
X134668801Y-70231572D01*
X134838428Y-70401199D01*
X135060056Y-70493000D01*
X135420250Y-70493000D01*
X135571000Y-70342250D01*
X135571000Y-69149000D01*
X135889000Y-69149000D01*
X135889000Y-70342250D01*
X136039750Y-70493000D01*
X136399944Y-70493000D01*
X136621572Y-70401199D01*
X136791199Y-70231572D01*
X136802280Y-70204818D01*
X148479678Y-70204818D01*
X149700000Y-71425140D01*
X150920322Y-70204818D01*
X150768122Y-69909349D01*
X150020698Y-69633096D01*
X149224450Y-69663898D01*
X148631878Y-69909349D01*
X148479678Y-70204818D01*
X136802280Y-70204818D01*
X136883000Y-70009944D01*
X136883000Y-69299750D01*
X136732250Y-69149000D01*
X135889000Y-69149000D01*
X135571000Y-69149000D01*
X134727750Y-69149000D01*
X134577000Y-69299750D01*
X134193718Y-69299750D01*
X134193718Y-68090000D01*
X134180547Y-68020000D01*
X134577000Y-68020000D01*
X134577000Y-68680250D01*
X134727750Y-68831000D01*
X135571000Y-68831000D01*
X135571000Y-68811000D01*
X135889000Y-68811000D01*
X135889000Y-68831000D01*
X136732250Y-68831000D01*
X136883000Y-68680250D01*
X136883000Y-68020000D01*
X169448787Y-68020000D01*
X169679789Y-68065949D01*
X169832209Y-68167793D01*
X169934051Y-68320211D01*
X169980000Y-68551213D01*
X169980000Y-78200000D01*
X169998439Y-78292700D01*
X170014361Y-78385892D01*
X170018185Y-78391965D01*
X170019583Y-78398995D01*
X170072095Y-78477586D01*
X170122467Y-78557587D01*
X170128318Y-78561730D01*
X170132304Y-78567696D01*
X170210910Y-78620218D01*
X170288047Y-78674843D01*
X172203204Y-79529700D01*
X173574310Y-80977288D01*
X173966301Y-82001359D01*
X173859000Y-82058310D01*
X173859000Y-83591000D01*
X173879000Y-83591000D01*
X173879000Y-83909000D01*
X173859000Y-83909000D01*
X173859000Y-85441690D01*
X173934487Y-85481755D01*
X173574310Y-86422712D01*
X172203204Y-87870300D01*
X170288047Y-88725157D01*
X170210910Y-88779782D01*
X170132304Y-88832304D01*
X170128318Y-88838270D01*
X170122467Y-88842413D01*
X170072095Y-88922414D01*
X170019583Y-89001005D01*
X170018185Y-89008035D01*
X170014361Y-89014108D01*
X169998439Y-89107300D01*
X169980000Y-89200000D01*
X169980000Y-98948787D01*
X169934051Y-99179789D01*
X169832209Y-99332207D01*
X169679789Y-99434051D01*
X169448787Y-99480000D01*
X139016022Y-99480000D01*
X138980417Y-99301005D01*
X138867696Y-99132304D01*
X138698995Y-99019583D01*
X138500000Y-98980000D01*
X123500000Y-98980000D01*
X123301005Y-99019583D01*
X123132304Y-99132304D01*
X123019583Y-99301005D01*
X122983978Y-99480000D01*
X101051213Y-99480000D01*
X100820211Y-99434051D01*
X100667793Y-99332209D01*
X100565949Y-99179789D01*
X100520000Y-98948787D01*
X100520000Y-94757442D01*
X126104862Y-94757442D01*
X126225639Y-95049743D01*
X126449081Y-95273575D01*
X126741171Y-95394862D01*
X127057442Y-95395138D01*
X127106282Y-95374958D01*
X127106282Y-95580000D01*
X127137311Y-95744907D01*
X127234771Y-95896364D01*
X127383478Y-95997971D01*
X127560000Y-96033718D01*
X128660000Y-96033718D01*
X128824907Y-96002689D01*
X128976364Y-95905229D01*
X129077971Y-95756522D01*
X129113718Y-95580000D01*
X129113718Y-93680000D01*
X129646282Y-93680000D01*
X129646282Y-95580000D01*
X129677311Y-95744907D01*
X129774771Y-95896364D01*
X129923165Y-95997757D01*
X129905138Y-96041171D01*
X129904862Y-96357442D01*
X130025639Y-96649743D01*
X130249081Y-96873575D01*
X130541171Y-96994862D01*
X130857442Y-96995138D01*
X131149743Y-96874361D01*
X131373575Y-96650919D01*
X131494862Y-96358829D01*
X131495138Y-96042558D01*
X131454771Y-95944863D01*
X131516364Y-95905229D01*
X131617971Y-95756522D01*
X131653718Y-95580000D01*
X131653718Y-93680000D01*
X132186282Y-93680000D01*
X132186282Y-95580000D01*
X132217311Y-95744907D01*
X132314771Y-95896364D01*
X132463478Y-95997971D01*
X132640000Y-96033718D01*
X133740000Y-96033718D01*
X133904907Y-96002689D01*
X134056364Y-95905229D01*
X134157971Y-95756522D01*
X134193718Y-95580000D01*
X134193718Y-95333634D01*
X134341171Y-95394862D01*
X134657442Y-95395138D01*
X134726282Y-95366694D01*
X134726282Y-95580000D01*
X134757311Y-95744907D01*
X134854771Y-95896364D01*
X135003478Y-95997971D01*
X135180000Y-96033718D01*
X136280000Y-96033718D01*
X136444907Y-96002689D01*
X136596364Y-95905229D01*
X136697971Y-95756522D01*
X136733718Y-95580000D01*
X136733718Y-93680000D01*
X136702689Y-93515093D01*
X136605229Y-93363636D01*
X136456522Y-93262029D01*
X136280000Y-93226282D01*
X135180000Y-93226282D01*
X135015093Y-93257311D01*
X134863636Y-93354771D01*
X134762029Y-93503478D01*
X134726282Y-93680000D01*
X134726282Y-93833147D01*
X134658829Y-93805138D01*
X134342558Y-93804862D01*
X134193718Y-93866362D01*
X134193718Y-93680000D01*
X134162689Y-93515093D01*
X134065229Y-93363636D01*
X133916522Y-93262029D01*
X133785000Y-93235395D01*
X133785000Y-92939340D01*
X133873575Y-92850919D01*
X133994862Y-92558829D01*
X133995138Y-92242558D01*
X133874361Y-91950257D01*
X133650919Y-91726425D01*
X133358829Y-91605138D01*
X133042558Y-91604862D01*
X132750257Y-91725639D01*
X132526425Y-91949081D01*
X132405138Y-92241171D01*
X132404862Y-92557442D01*
X132525639Y-92849743D01*
X132595000Y-92919225D01*
X132595000Y-93234749D01*
X132475093Y-93257311D01*
X132323636Y-93354771D01*
X132222029Y-93503478D01*
X132186282Y-93680000D01*
X131653718Y-93680000D01*
X131622689Y-93515093D01*
X131525229Y-93363636D01*
X131376522Y-93262029D01*
X131200000Y-93226282D01*
X130100000Y-93226282D01*
X129935093Y-93257311D01*
X129783636Y-93354771D01*
X129682029Y-93503478D01*
X129646282Y-93680000D01*
X129113718Y-93680000D01*
X129082689Y-93515093D01*
X128985229Y-93363636D01*
X128836522Y-93262029D01*
X128660000Y-93226282D01*
X127560000Y-93226282D01*
X127395093Y-93257311D01*
X127243636Y-93354771D01*
X127142029Y-93503478D01*
X127106282Y-93680000D01*
X127106282Y-93824842D01*
X127058829Y-93805138D01*
X126742558Y-93804862D01*
X126450257Y-93925639D01*
X126226425Y-94149081D01*
X126105138Y-94441171D01*
X126104862Y-94757442D01*
X100520000Y-94757442D01*
X100520000Y-93415182D01*
X104029678Y-93415182D01*
X104181878Y-93710651D01*
X104929302Y-93986904D01*
X105725550Y-93956102D01*
X106318122Y-93710651D01*
X106470322Y-93415182D01*
X105250000Y-92194860D01*
X104029678Y-93415182D01*
X100520000Y-93415182D01*
X100520000Y-91649302D01*
X103233096Y-91649302D01*
X103263898Y-92445550D01*
X103509349Y-93038122D01*
X103804818Y-93190322D01*
X105025140Y-91970000D01*
X105474860Y-91970000D01*
X106695182Y-93190322D01*
X106990651Y-93038122D01*
X107266904Y-92290698D01*
X107236102Y-91494450D01*
X107179352Y-91357442D01*
X115104862Y-91357442D01*
X115225639Y-91649743D01*
X115449081Y-91873575D01*
X115741171Y-91994862D01*
X116057442Y-91995138D01*
X116349743Y-91874361D01*
X116573575Y-91650919D01*
X116674136Y-91408742D01*
X119209074Y-88873804D01*
X119449743Y-88774361D01*
X119530737Y-88693508D01*
X119598428Y-88761199D01*
X119820056Y-88853000D01*
X120180250Y-88853000D01*
X120331000Y-88702250D01*
X120331000Y-87459000D01*
X120649000Y-87459000D01*
X120649000Y-88702250D01*
X120799750Y-88853000D01*
X121159944Y-88853000D01*
X121381572Y-88761199D01*
X121551199Y-88591572D01*
X121643000Y-88369944D01*
X121643000Y-87609750D01*
X121492250Y-87459000D01*
X120649000Y-87459000D01*
X120331000Y-87459000D01*
X119487750Y-87459000D01*
X119485592Y-87461158D01*
X119450919Y-87426425D01*
X119158829Y-87305138D01*
X118842558Y-87304862D01*
X118550257Y-87425639D01*
X118326425Y-87649081D01*
X118225864Y-87891258D01*
X115690926Y-90426196D01*
X115450257Y-90525639D01*
X115226425Y-90749081D01*
X115105138Y-91041171D01*
X115104862Y-91357442D01*
X107179352Y-91357442D01*
X106990651Y-90901878D01*
X106695182Y-90749678D01*
X105474860Y-91970000D01*
X105025140Y-91970000D01*
X103804818Y-90749678D01*
X103509349Y-90901878D01*
X103233096Y-91649302D01*
X100520000Y-91649302D01*
X100520000Y-90524818D01*
X104029678Y-90524818D01*
X105250000Y-91745140D01*
X106470322Y-90524818D01*
X106318122Y-90229349D01*
X105570698Y-89953096D01*
X104774450Y-89983898D01*
X104181878Y-90229349D01*
X104029678Y-90524818D01*
X100520000Y-90524818D01*
X100520000Y-88403000D01*
X101040250Y-88403000D01*
X101191000Y-88252250D01*
X101191000Y-87109000D01*
X101509000Y-87109000D01*
X101509000Y-88252250D01*
X101659750Y-88403000D01*
X102319944Y-88403000D01*
X102541572Y-88311199D01*
X102711199Y-88141572D01*
X102803000Y-87919944D01*
X102803000Y-87259750D01*
X102652250Y-87109000D01*
X101509000Y-87109000D01*
X101191000Y-87109000D01*
X101171000Y-87109000D01*
X101171000Y-86791000D01*
X101191000Y-86791000D01*
X101191000Y-85647750D01*
X101509000Y-85647750D01*
X101509000Y-86791000D01*
X102652250Y-86791000D01*
X102803000Y-86640250D01*
X102803000Y-86592502D01*
X102894088Y-86592502D01*
X103065311Y-87018294D01*
X103386444Y-87346150D01*
X103710364Y-87502977D01*
X103891000Y-87389870D01*
X103891000Y-86409000D01*
X103025044Y-86409000D01*
X102894088Y-86592502D01*
X102803000Y-86592502D01*
X102803000Y-85980056D01*
X102772946Y-85907498D01*
X102894088Y-85907498D01*
X103025044Y-86091000D01*
X103891000Y-86091000D01*
X103891000Y-85110130D01*
X103710364Y-84997023D01*
X103386444Y-85153850D01*
X103065311Y-85481706D01*
X102894088Y-85907498D01*
X102772946Y-85907498D01*
X102711199Y-85758428D01*
X102541572Y-85588801D01*
X102319944Y-85497000D01*
X101659750Y-85497000D01*
X101509000Y-85647750D01*
X101191000Y-85647750D01*
X101040250Y-85497000D01*
X100520000Y-85497000D01*
X100520000Y-82003000D01*
X101040250Y-82003000D01*
X101191000Y-81852250D01*
X101191000Y-80709000D01*
X101509000Y-80709000D01*
X101509000Y-81852250D01*
X101659750Y-82003000D01*
X102319944Y-82003000D01*
X102541572Y-81911199D01*
X102711199Y-81741572D01*
X102772945Y-81592502D01*
X102894088Y-81592502D01*
X103065311Y-82018294D01*
X103386444Y-82346150D01*
X103710364Y-82502977D01*
X103891000Y-82389870D01*
X103891000Y-81409000D01*
X103025044Y-81409000D01*
X102894088Y-81592502D01*
X102772945Y-81592502D01*
X102803000Y-81519944D01*
X102803000Y-80907498D01*
X102894088Y-80907498D01*
X103025044Y-81091000D01*
X103891000Y-81091000D01*
X103891000Y-80110130D01*
X104209000Y-80110130D01*
X104209000Y-81091000D01*
X104229000Y-81091000D01*
X104229000Y-81409000D01*
X104209000Y-81409000D01*
X104209000Y-82389870D01*
X104389636Y-82502977D01*
X104713556Y-82346150D01*
X104805000Y-82252792D01*
X104805000Y-85247208D01*
X104713556Y-85153850D01*
X104389636Y-84997023D01*
X104209000Y-85110130D01*
X104209000Y-86091000D01*
X104229000Y-86091000D01*
X104229000Y-86409000D01*
X104209000Y-86409000D01*
X104209000Y-87389870D01*
X104389636Y-87502977D01*
X104713556Y-87346150D01*
X104961056Y-87093468D01*
X104979271Y-87120729D01*
X107004959Y-89146416D01*
X107004862Y-89257442D01*
X107125639Y-89549743D01*
X107349081Y-89773575D01*
X107641171Y-89894862D01*
X107957442Y-89895138D01*
X108249743Y-89774361D01*
X108473575Y-89550919D01*
X108594862Y-89258829D01*
X108595138Y-88942558D01*
X108474361Y-88650257D01*
X108250919Y-88426425D01*
X107958829Y-88305138D01*
X107846497Y-88305040D01*
X105995000Y-86453542D01*
X105995000Y-82029357D01*
X106073575Y-81950919D01*
X106194862Y-81658829D01*
X106195138Y-81342558D01*
X106077330Y-81057442D01*
X109104862Y-81057442D01*
X109225639Y-81349743D01*
X109449081Y-81573575D01*
X109741171Y-81694862D01*
X110057442Y-81695138D01*
X110349743Y-81574361D01*
X110573575Y-81350919D01*
X110694862Y-81058829D01*
X110695138Y-80742558D01*
X110574361Y-80450257D01*
X110495000Y-80370757D01*
X110495000Y-79746458D01*
X111279593Y-78961865D01*
X111205138Y-79141171D01*
X111204862Y-79457442D01*
X111205000Y-79457776D01*
X111205000Y-81670700D01*
X111137850Y-81737850D01*
X111026425Y-81849081D01*
X111018957Y-81867065D01*
X110987850Y-81887850D01*
X110815516Y-82145767D01*
X110755000Y-82450000D01*
X110755000Y-85999307D01*
X110754862Y-86157442D01*
X110875639Y-86449743D01*
X111099081Y-86673575D01*
X111391171Y-86794862D01*
X111707442Y-86795138D01*
X111999743Y-86674361D01*
X112104939Y-86569348D01*
X112104862Y-86657442D01*
X112225639Y-86949743D01*
X112305000Y-87029243D01*
X112305000Y-87699995D01*
X112304999Y-87700000D01*
X112340346Y-87877696D01*
X112350292Y-87927697D01*
X112450518Y-88077697D01*
X112479271Y-88120729D01*
X112504959Y-88146417D01*
X112504862Y-88257442D01*
X112625639Y-88549743D01*
X112849081Y-88773575D01*
X113141171Y-88894862D01*
X113457442Y-88895138D01*
X113749743Y-88774361D01*
X113973575Y-88550919D01*
X114094862Y-88258829D01*
X114095138Y-87942558D01*
X113974361Y-87650257D01*
X113750919Y-87426425D01*
X113495000Y-87320158D01*
X113495000Y-87029357D01*
X113573575Y-86950919D01*
X113694862Y-86658829D01*
X113695138Y-86342558D01*
X113648653Y-86230056D01*
X119337000Y-86230056D01*
X119337000Y-86990250D01*
X119487750Y-87141000D01*
X120331000Y-87141000D01*
X120331000Y-85897750D01*
X120649000Y-85897750D01*
X120649000Y-87141000D01*
X121492250Y-87141000D01*
X121643000Y-86990250D01*
X121643000Y-86267483D01*
X121645098Y-86269585D01*
X121646914Y-86272303D01*
X121679271Y-86320729D01*
X122026282Y-86667740D01*
X122026282Y-88250000D01*
X122057311Y-88414907D01*
X122154771Y-88566364D01*
X122303478Y-88667971D01*
X122480000Y-88703718D01*
X123529520Y-88703718D01*
X123699081Y-88873575D01*
X123991171Y-88994862D01*
X124005000Y-88994874D01*
X124005000Y-92920643D01*
X123926425Y-92999081D01*
X123805138Y-93291171D01*
X123804862Y-93607442D01*
X123925639Y-93899743D01*
X124149081Y-94123575D01*
X124441171Y-94244862D01*
X124757442Y-94245138D01*
X125049743Y-94124361D01*
X125273575Y-93900919D01*
X125394862Y-93608829D01*
X125395138Y-93292558D01*
X125274361Y-93000257D01*
X125195000Y-92920757D01*
X125195000Y-89096458D01*
X126020726Y-88270731D01*
X126020729Y-88270729D01*
X126149708Y-88077697D01*
X126149709Y-88077696D01*
X126195001Y-87850000D01*
X126195000Y-87849995D01*
X126195000Y-87129357D01*
X126273575Y-87050919D01*
X126353914Y-86857442D01*
X131104862Y-86857442D01*
X131225639Y-87149743D01*
X131449081Y-87373575D01*
X131605053Y-87438341D01*
X131604862Y-87657442D01*
X131725639Y-87949743D01*
X131949081Y-88173575D01*
X132241171Y-88294862D01*
X132557442Y-88295138D01*
X132849743Y-88174361D01*
X132929243Y-88095000D01*
X136620643Y-88095000D01*
X136699081Y-88173575D01*
X136991171Y-88294862D01*
X137307442Y-88295138D01*
X137599743Y-88174361D01*
X137823575Y-87950919D01*
X137944862Y-87658829D01*
X137945081Y-87407442D01*
X156904862Y-87407442D01*
X157025639Y-87699743D01*
X157249081Y-87923575D01*
X157541171Y-88044862D01*
X157857442Y-88045138D01*
X158018334Y-87978658D01*
X158074771Y-88066364D01*
X158223478Y-88167971D01*
X158400000Y-88203718D01*
X159600000Y-88203718D01*
X159646282Y-88195010D01*
X159646282Y-90350000D01*
X159677311Y-90514907D01*
X159774771Y-90666364D01*
X159923478Y-90767971D01*
X160100000Y-90803718D01*
X162300000Y-90803718D01*
X162464907Y-90772689D01*
X162616364Y-90675229D01*
X162717971Y-90526522D01*
X162753718Y-90350000D01*
X162753718Y-89408126D01*
X162812312Y-89542304D01*
X163450963Y-89768412D01*
X164127527Y-89732908D01*
X164587688Y-89542304D01*
X164703117Y-89277977D01*
X163700000Y-88274860D01*
X163685858Y-88289003D01*
X163460998Y-88064143D01*
X163475140Y-88050000D01*
X163924860Y-88050000D01*
X164927977Y-89053117D01*
X165192304Y-88937688D01*
X165418412Y-88299037D01*
X165382908Y-87622473D01*
X165192304Y-87162312D01*
X164927977Y-87046883D01*
X163924860Y-88050000D01*
X163475140Y-88050000D01*
X162472023Y-87046883D01*
X162207696Y-87162312D01*
X162018649Y-87696282D01*
X160100000Y-87696282D01*
X160053718Y-87704990D01*
X160053718Y-86822023D01*
X162696883Y-86822023D01*
X163700000Y-87825140D01*
X164703117Y-86822023D01*
X164587688Y-86557696D01*
X163949037Y-86331588D01*
X163272473Y-86367092D01*
X162812312Y-86557696D01*
X162696883Y-86822023D01*
X160053718Y-86822023D01*
X160053718Y-86750000D01*
X160022689Y-86585093D01*
X159925229Y-86433636D01*
X159839221Y-86374869D01*
X159916364Y-86325229D01*
X160017971Y-86176522D01*
X160053718Y-86000000D01*
X160053718Y-85287740D01*
X160894108Y-84447349D01*
X160949743Y-84424361D01*
X161173575Y-84200919D01*
X161294790Y-83909000D01*
X172347000Y-83909000D01*
X172347000Y-84409000D01*
X172510838Y-84914668D01*
X172855715Y-85319146D01*
X173332768Y-85552210D01*
X173541000Y-85441690D01*
X173541000Y-83909000D01*
X172347000Y-83909000D01*
X161294790Y-83909000D01*
X161294862Y-83908829D01*
X161295138Y-83592558D01*
X161174361Y-83300257D01*
X160965469Y-83091000D01*
X172347000Y-83091000D01*
X172347000Y-83591000D01*
X173541000Y-83591000D01*
X173541000Y-82058310D01*
X173332768Y-81947790D01*
X172855715Y-82180854D01*
X172510838Y-82585332D01*
X172347000Y-83091000D01*
X160965469Y-83091000D01*
X160950919Y-83076425D01*
X160894422Y-83052965D01*
X160053718Y-82212260D01*
X160053718Y-81500000D01*
X160022689Y-81335093D01*
X159961997Y-81240774D01*
X160111199Y-81091572D01*
X160203000Y-80869944D01*
X160203000Y-80559750D01*
X160052250Y-80409000D01*
X159159000Y-80409000D01*
X159159000Y-80429000D01*
X158841000Y-80429000D01*
X158841000Y-80409000D01*
X157947750Y-80409000D01*
X157797000Y-80559750D01*
X157797000Y-80869944D01*
X157888801Y-81091572D01*
X158038321Y-81241092D01*
X157982029Y-81323478D01*
X157946282Y-81500000D01*
X157946282Y-82500000D01*
X157977311Y-82664907D01*
X158038003Y-82759226D01*
X157888801Y-82908428D01*
X157797000Y-83130056D01*
X157797000Y-83440250D01*
X157947750Y-83591000D01*
X158841000Y-83591000D01*
X158841000Y-83571000D01*
X159159000Y-83571000D01*
X159159000Y-83591000D01*
X159179000Y-83591000D01*
X159179000Y-83909000D01*
X159159000Y-83909000D01*
X159159000Y-83929000D01*
X158841000Y-83929000D01*
X158841000Y-83909000D01*
X157947750Y-83909000D01*
X157797000Y-84059750D01*
X157797000Y-84369944D01*
X157888801Y-84591572D01*
X158038321Y-84741092D01*
X157982029Y-84823478D01*
X157946282Y-85000000D01*
X157946282Y-86000000D01*
X157977311Y-86164907D01*
X158074771Y-86316364D01*
X158160779Y-86375131D01*
X158083636Y-86424771D01*
X158017787Y-86521144D01*
X157858829Y-86455138D01*
X157542558Y-86454862D01*
X157250257Y-86575639D01*
X157026425Y-86799081D01*
X156905138Y-87091171D01*
X156904862Y-87407442D01*
X137945081Y-87407442D01*
X137945138Y-87342558D01*
X137824361Y-87050257D01*
X137600919Y-86826425D01*
X137308829Y-86705138D01*
X136992558Y-86704862D01*
X136700257Y-86825639D01*
X136620757Y-86905000D01*
X135286458Y-86905000D01*
X136416455Y-85775002D01*
X136653437Y-85775002D01*
X136725639Y-85949743D01*
X136949081Y-86173575D01*
X137241171Y-86294862D01*
X137557442Y-86295138D01*
X137849743Y-86174361D01*
X137899892Y-86124300D01*
X137949081Y-86173575D01*
X138241171Y-86294862D01*
X138557442Y-86295138D01*
X138849743Y-86174361D01*
X138916778Y-86107442D01*
X151104862Y-86107442D01*
X151225639Y-86399743D01*
X151449081Y-86623575D01*
X151741171Y-86744862D01*
X152057442Y-86745138D01*
X152349743Y-86624361D01*
X152379155Y-86595000D01*
X154120643Y-86595000D01*
X154199081Y-86673575D01*
X154491171Y-86794862D01*
X154807442Y-86795138D01*
X155099743Y-86674361D01*
X155323575Y-86450919D01*
X155444862Y-86158829D01*
X155445138Y-85842558D01*
X155324361Y-85550257D01*
X155100919Y-85326425D01*
X154808829Y-85205138D01*
X154492558Y-85204862D01*
X154200257Y-85325639D01*
X154120757Y-85405000D01*
X153513404Y-85405000D01*
X153594862Y-85208829D01*
X153595138Y-84892558D01*
X153474361Y-84600257D01*
X153395000Y-84520757D01*
X153395000Y-83146458D01*
X154746416Y-81795041D01*
X154857442Y-81795138D01*
X155149743Y-81674361D01*
X155373575Y-81450919D01*
X155494862Y-81158829D01*
X155495138Y-80842558D01*
X155374361Y-80550257D01*
X155150919Y-80326425D01*
X154858829Y-80205138D01*
X154542558Y-80204862D01*
X154250257Y-80325639D01*
X154026425Y-80549081D01*
X153905138Y-80841171D01*
X153905040Y-80953503D01*
X152379271Y-82479271D01*
X152250292Y-82672303D01*
X152250292Y-82672304D01*
X152204999Y-82900000D01*
X152205000Y-82900005D01*
X152205000Y-84520643D01*
X152126425Y-84599081D01*
X152005138Y-84891171D01*
X152004908Y-85155091D01*
X151742558Y-85154862D01*
X151450257Y-85275639D01*
X151226425Y-85499081D01*
X151105138Y-85791171D01*
X151104862Y-86107442D01*
X138916778Y-86107442D01*
X139073575Y-85950919D01*
X139194862Y-85658829D01*
X139195138Y-85342558D01*
X139074361Y-85050257D01*
X138850919Y-84826425D01*
X138558829Y-84705138D01*
X138446497Y-84705040D01*
X137970729Y-84229271D01*
X137889603Y-84175065D01*
X137777697Y-84100292D01*
X137739919Y-84092777D01*
X137550000Y-84054999D01*
X137549995Y-84055000D01*
X135900005Y-84055000D01*
X135900000Y-84054999D01*
X135710081Y-84092777D01*
X135672303Y-84100292D01*
X135560397Y-84175065D01*
X135479271Y-84229271D01*
X134403542Y-85305000D01*
X132929357Y-85305000D01*
X132850919Y-85226425D01*
X132558829Y-85105138D01*
X132242558Y-85104862D01*
X131950257Y-85225639D01*
X131726425Y-85449081D01*
X131605138Y-85741171D01*
X131604946Y-85961723D01*
X131450257Y-86025639D01*
X131226425Y-86249081D01*
X131105138Y-86541171D01*
X131104862Y-86857442D01*
X126353914Y-86857442D01*
X126394862Y-86758829D01*
X126395138Y-86442558D01*
X126274361Y-86150257D01*
X126050919Y-85926425D01*
X125758829Y-85805138D01*
X125495000Y-85804908D01*
X125495000Y-85450005D01*
X125495001Y-85450000D01*
X125450528Y-85226425D01*
X125449708Y-85222303D01*
X125320729Y-85029271D01*
X125320726Y-85029269D01*
X124720729Y-84429271D01*
X124690391Y-84409000D01*
X124527697Y-84300292D01*
X124487629Y-84292322D01*
X124300000Y-84254999D01*
X124299995Y-84255000D01*
X123700005Y-84255000D01*
X123700000Y-84254999D01*
X123512371Y-84292322D01*
X123472303Y-84300292D01*
X123279271Y-84429271D01*
X123279269Y-84429274D01*
X122876305Y-84832237D01*
X122650257Y-84925639D01*
X122600108Y-84975700D01*
X122550919Y-84926425D01*
X122258829Y-84805138D01*
X121942558Y-84804862D01*
X121650257Y-84925639D01*
X121426425Y-85149081D01*
X121305138Y-85441171D01*
X121304862Y-85757442D01*
X121329581Y-85817266D01*
X121159944Y-85747000D01*
X120799750Y-85747000D01*
X120649000Y-85897750D01*
X120331000Y-85897750D01*
X120180250Y-85747000D01*
X119820056Y-85747000D01*
X119598428Y-85838801D01*
X119428801Y-86008428D01*
X119337000Y-86230056D01*
X113648653Y-86230056D01*
X113574361Y-86050257D01*
X113350919Y-85826425D01*
X113058829Y-85705138D01*
X112742558Y-85704862D01*
X112450257Y-85825639D01*
X112345061Y-85930652D01*
X112345138Y-85842558D01*
X112345000Y-85842224D01*
X112345000Y-82779444D01*
X112373575Y-82750919D01*
X112373713Y-82750587D01*
X112562150Y-82562150D01*
X112734484Y-82304233D01*
X112795000Y-82000000D01*
X112795000Y-79629300D01*
X114250000Y-78174300D01*
X114437850Y-78362150D01*
X114695767Y-78534484D01*
X115000000Y-78595000D01*
X116100000Y-78595000D01*
X116404233Y-78534484D01*
X116662150Y-78362150D01*
X116929300Y-78095000D01*
X121555000Y-78095000D01*
X121555000Y-80400678D01*
X121455138Y-80641171D01*
X121454862Y-80957442D01*
X121575639Y-81249743D01*
X121799081Y-81473575D01*
X122091171Y-81594862D01*
X122407442Y-81595138D01*
X122699743Y-81474361D01*
X122923575Y-81250919D01*
X123044862Y-80958829D01*
X123045138Y-80642558D01*
X122945000Y-80400207D01*
X122945000Y-79757442D01*
X126704862Y-79757442D01*
X126825639Y-80049743D01*
X126905000Y-80129243D01*
X126905000Y-80570643D01*
X126826425Y-80649081D01*
X126705138Y-80941171D01*
X126704862Y-81257442D01*
X126825639Y-81549743D01*
X127049081Y-81773575D01*
X127341171Y-81894862D01*
X127657442Y-81895138D01*
X127949743Y-81774361D01*
X128173575Y-81550919D01*
X128294862Y-81258829D01*
X128295138Y-80942558D01*
X128177330Y-80657442D01*
X128604862Y-80657442D01*
X128725639Y-80949743D01*
X128805000Y-81029243D01*
X128805000Y-84570643D01*
X128726425Y-84649081D01*
X128605138Y-84941171D01*
X128604862Y-85257442D01*
X128725639Y-85549743D01*
X128949081Y-85773575D01*
X129241171Y-85894862D01*
X129557442Y-85895138D01*
X129849743Y-85774361D01*
X130073575Y-85550919D01*
X130194862Y-85258829D01*
X130195005Y-85094996D01*
X130357442Y-85095138D01*
X130649743Y-84974361D01*
X130873575Y-84750919D01*
X130994862Y-84458829D01*
X130995005Y-84294996D01*
X131157442Y-84295138D01*
X131449743Y-84174361D01*
X131673575Y-83950919D01*
X131794862Y-83658829D01*
X131795005Y-83494996D01*
X131957442Y-83495138D01*
X132249743Y-83374361D01*
X132473575Y-83150919D01*
X132594862Y-82858829D01*
X132595138Y-82542558D01*
X132474361Y-82250257D01*
X132395000Y-82170757D01*
X132395000Y-81719400D01*
X132449081Y-81773575D01*
X132741171Y-81894862D01*
X133057442Y-81895138D01*
X133349743Y-81774361D01*
X133429243Y-81695000D01*
X134770643Y-81695000D01*
X134849081Y-81773575D01*
X135141171Y-81894862D01*
X135457442Y-81895138D01*
X135749743Y-81774361D01*
X135925110Y-81599300D01*
X136099081Y-81773575D01*
X136391171Y-81894862D01*
X136604960Y-81895049D01*
X136604862Y-82007442D01*
X136725639Y-82299743D01*
X136949081Y-82523575D01*
X137241171Y-82644862D01*
X137557442Y-82645138D01*
X137849743Y-82524361D01*
X138073575Y-82300919D01*
X138194862Y-82008829D01*
X138195138Y-81692558D01*
X138074361Y-81400257D01*
X137995000Y-81320757D01*
X137995000Y-78807442D01*
X144154862Y-78807442D01*
X144275639Y-79099743D01*
X144499081Y-79323575D01*
X144791171Y-79444862D01*
X144855000Y-79444918D01*
X144855000Y-79920643D01*
X144776425Y-79999081D01*
X144655138Y-80291171D01*
X144654862Y-80607442D01*
X144775639Y-80899743D01*
X144999081Y-81123575D01*
X145291171Y-81244862D01*
X145607442Y-81245138D01*
X145899743Y-81124361D01*
X146123575Y-80900919D01*
X146244862Y-80608829D01*
X146245138Y-80292558D01*
X146124361Y-80000257D01*
X146045000Y-79920757D01*
X146045000Y-79150005D01*
X146045001Y-79150000D01*
X145999709Y-78922304D01*
X145950783Y-78849081D01*
X145870729Y-78729271D01*
X145870726Y-78729269D01*
X145745041Y-78603584D01*
X145745138Y-78492558D01*
X145624361Y-78200257D01*
X145400919Y-77976425D01*
X145108829Y-77855138D01*
X144792558Y-77854862D01*
X144500257Y-77975639D01*
X144276425Y-78199081D01*
X144155138Y-78491171D01*
X144154862Y-78807442D01*
X137995000Y-78807442D01*
X137995000Y-77129357D01*
X138073575Y-77050919D01*
X138194862Y-76758829D01*
X138194906Y-76707442D01*
X150204862Y-76707442D01*
X150305000Y-76949793D01*
X150305000Y-79250678D01*
X150205138Y-79491171D01*
X150204862Y-79807442D01*
X150325639Y-80099743D01*
X150549081Y-80323575D01*
X150841171Y-80444862D01*
X151157442Y-80445138D01*
X151449743Y-80324361D01*
X151673575Y-80100919D01*
X151794862Y-79808829D01*
X151795018Y-79630056D01*
X157797000Y-79630056D01*
X157797000Y-79940250D01*
X157947750Y-80091000D01*
X158841000Y-80091000D01*
X158841000Y-80071000D01*
X159159000Y-80071000D01*
X159159000Y-80091000D01*
X160052250Y-80091000D01*
X160203000Y-79940250D01*
X160203000Y-79777977D01*
X162696883Y-79777977D01*
X162812312Y-80042304D01*
X163450963Y-80268412D01*
X164127527Y-80232908D01*
X164587688Y-80042304D01*
X164703117Y-79777977D01*
X163700000Y-78774860D01*
X162696883Y-79777977D01*
X160203000Y-79777977D01*
X160203000Y-79630056D01*
X160111199Y-79408428D01*
X160097771Y-79395000D01*
X160770643Y-79395000D01*
X160849081Y-79473575D01*
X161141171Y-79594862D01*
X161457442Y-79595138D01*
X161749743Y-79474361D01*
X161973575Y-79250919D01*
X162052052Y-79061927D01*
X162207696Y-79437688D01*
X162472023Y-79553117D01*
X163475140Y-78550000D01*
X163924860Y-78550000D01*
X164927977Y-79553117D01*
X165192304Y-79437688D01*
X165418412Y-78799037D01*
X165382908Y-78122473D01*
X165192304Y-77662312D01*
X164927977Y-77546883D01*
X163924860Y-78550000D01*
X163475140Y-78550000D01*
X163460998Y-78535858D01*
X163685858Y-78310998D01*
X163700000Y-78325140D01*
X164703117Y-77322023D01*
X164587688Y-77057696D01*
X163949037Y-76831588D01*
X163272473Y-76867092D01*
X162812312Y-77057696D01*
X162753718Y-77191874D01*
X162753718Y-75750000D01*
X162722689Y-75585093D01*
X162625229Y-75433636D01*
X162476522Y-75332029D01*
X162300000Y-75296282D01*
X160100000Y-75296282D01*
X159935093Y-75327311D01*
X159783636Y-75424771D01*
X159682029Y-75573478D01*
X159646282Y-75750000D01*
X159646282Y-77555654D01*
X159600000Y-77546282D01*
X158400000Y-77546282D01*
X158235093Y-77577311D01*
X158083636Y-77674771D01*
X157982029Y-77823478D01*
X157946282Y-78000000D01*
X157946282Y-79000000D01*
X157977311Y-79164907D01*
X158038003Y-79259226D01*
X157888801Y-79408428D01*
X157797000Y-79630056D01*
X151795018Y-79630056D01*
X151795138Y-79492558D01*
X151695000Y-79250207D01*
X151695000Y-76949322D01*
X151794862Y-76708829D01*
X151795138Y-76392558D01*
X151674361Y-76100257D01*
X151450919Y-75876425D01*
X151158829Y-75755138D01*
X150842558Y-75754862D01*
X150550257Y-75875639D01*
X150326425Y-76099081D01*
X150205138Y-76391171D01*
X150204862Y-76707442D01*
X138194906Y-76707442D01*
X138195138Y-76442558D01*
X138074361Y-76150257D01*
X137850919Y-75926425D01*
X137558829Y-75805138D01*
X137242558Y-75804862D01*
X136950257Y-75925639D01*
X136900065Y-75975744D01*
X136800919Y-75876425D01*
X136508829Y-75755138D01*
X136192558Y-75754862D01*
X135900257Y-75875639D01*
X135676425Y-76099081D01*
X135555138Y-76391171D01*
X135554862Y-76707442D01*
X135675639Y-76999743D01*
X135899081Y-77223575D01*
X135955000Y-77246795D01*
X135955000Y-80570643D01*
X135924890Y-80600700D01*
X135750919Y-80426425D01*
X135458829Y-80305138D01*
X135142558Y-80304862D01*
X134850257Y-80425639D01*
X134770757Y-80505000D01*
X133429357Y-80505000D01*
X133350919Y-80426425D01*
X133058829Y-80305138D01*
X132742558Y-80304862D01*
X132491076Y-80408773D01*
X132594862Y-80158829D01*
X132595138Y-79842558D01*
X132474361Y-79550257D01*
X132250919Y-79326425D01*
X131958829Y-79205138D01*
X131642558Y-79204862D01*
X131350257Y-79325639D01*
X131126425Y-79549081D01*
X131061659Y-79705053D01*
X130938277Y-79704946D01*
X130874361Y-79550257D01*
X130650919Y-79326425D01*
X130358829Y-79205138D01*
X130042558Y-79204862D01*
X129750257Y-79325639D01*
X129526425Y-79549081D01*
X129461659Y-79705053D01*
X129242558Y-79704862D01*
X128950257Y-79825639D01*
X128726425Y-80049081D01*
X128605138Y-80341171D01*
X128604862Y-80657442D01*
X128177330Y-80657442D01*
X128174361Y-80650257D01*
X128095000Y-80570757D01*
X128095000Y-80129357D01*
X128173575Y-80050919D01*
X128294862Y-79758829D01*
X128295138Y-79442558D01*
X128174361Y-79150257D01*
X127950919Y-78926425D01*
X127658829Y-78805138D01*
X127342558Y-78804862D01*
X127050257Y-78925639D01*
X126826425Y-79149081D01*
X126705138Y-79441171D01*
X126704862Y-79757442D01*
X122945000Y-79757442D01*
X122945000Y-78095000D01*
X133399306Y-78095000D01*
X133557442Y-78095138D01*
X133849743Y-77974361D01*
X134073575Y-77750919D01*
X134194862Y-77458829D01*
X134195138Y-77142558D01*
X134074361Y-76850257D01*
X134049300Y-76825152D01*
X134073575Y-76800919D01*
X134194862Y-76508829D01*
X134195138Y-76192558D01*
X134074361Y-75900257D01*
X133850919Y-75676425D01*
X133794423Y-75652966D01*
X133370729Y-75229271D01*
X133255937Y-75152570D01*
X133294862Y-75058829D01*
X133295138Y-74742558D01*
X133174361Y-74450257D01*
X132950919Y-74226425D01*
X132658829Y-74105138D01*
X132342558Y-74104862D01*
X132050257Y-74225639D01*
X131970757Y-74305000D01*
X131579357Y-74305000D01*
X131500919Y-74226425D01*
X131208829Y-74105138D01*
X130892558Y-74104862D01*
X130600257Y-74225639D01*
X130376425Y-74449081D01*
X130255138Y-74741171D01*
X130254864Y-75055000D01*
X126899322Y-75055000D01*
X126658829Y-74955138D01*
X126342558Y-74954862D01*
X126050257Y-75075639D01*
X125826425Y-75299081D01*
X125705138Y-75591171D01*
X125704862Y-75907442D01*
X125745172Y-76005000D01*
X116346457Y-76005000D01*
X115870729Y-75529271D01*
X115860302Y-75522304D01*
X115677697Y-75400292D01*
X115639919Y-75392777D01*
X115450000Y-75354999D01*
X115449995Y-75355000D01*
X113450005Y-75355000D01*
X113450000Y-75354999D01*
X113260081Y-75392777D01*
X113222303Y-75400292D01*
X113029271Y-75529271D01*
X113029269Y-75529274D01*
X109479271Y-79079271D01*
X109350292Y-79272303D01*
X109350292Y-79272304D01*
X109304999Y-79500000D01*
X109305000Y-79500005D01*
X109305000Y-80370643D01*
X109226425Y-80449081D01*
X109105138Y-80741171D01*
X109104862Y-81057442D01*
X106077330Y-81057442D01*
X106074361Y-81050257D01*
X105850919Y-80826425D01*
X105558829Y-80705138D01*
X105242558Y-80704862D01*
X105141258Y-80746719D01*
X105034689Y-80481706D01*
X104713556Y-80153850D01*
X104389636Y-79997023D01*
X104209000Y-80110130D01*
X103891000Y-80110130D01*
X103710364Y-79997023D01*
X103386444Y-80153850D01*
X103065311Y-80481706D01*
X102894088Y-80907498D01*
X102803000Y-80907498D01*
X102803000Y-80859750D01*
X102652250Y-80709000D01*
X101509000Y-80709000D01*
X101191000Y-80709000D01*
X101171000Y-80709000D01*
X101171000Y-80391000D01*
X101191000Y-80391000D01*
X101191000Y-79247750D01*
X101509000Y-79247750D01*
X101509000Y-80391000D01*
X102652250Y-80391000D01*
X102803000Y-80240250D01*
X102803000Y-79580056D01*
X102711199Y-79358428D01*
X102541572Y-79188801D01*
X102319944Y-79097000D01*
X101659750Y-79097000D01*
X101509000Y-79247750D01*
X101191000Y-79247750D01*
X101040250Y-79097000D01*
X100520000Y-79097000D01*
X100520000Y-73095182D01*
X148479678Y-73095182D01*
X148631878Y-73390651D01*
X149379302Y-73666904D01*
X150175550Y-73636102D01*
X150768122Y-73390651D01*
X150920322Y-73095182D01*
X149700000Y-71874860D01*
X148479678Y-73095182D01*
X100520000Y-73095182D01*
X100520000Y-68551213D01*
X100565949Y-68320211D01*
X100667793Y-68167791D01*
X100820211Y-68065949D01*
X101051213Y-68020000D01*
X125705000Y-68020000D01*
X125705000Y-68395000D01*
G36*
X115663543Y-77005000D02*
X115329300Y-77005000D01*
X115244637Y-76920337D01*
X115174361Y-76750257D01*
X114969462Y-76545000D01*
X115203542Y-76545000D01*
X115663543Y-77005000D01*
X115663543Y-77005000D01*
G37*
X115663543Y-77005000D02*
X115329300Y-77005000D01*
X115244637Y-76920337D01*
X115174361Y-76750257D01*
X114969462Y-76545000D01*
X115203542Y-76545000D01*
X115663543Y-77005000D01*
G36*
X127106282Y-69890000D02*
X127137311Y-70054907D01*
X127234771Y-70206364D01*
X127379130Y-70305000D01*
X122775591Y-70305000D01*
X122849743Y-70274361D01*
X123073575Y-70050919D01*
X123194862Y-69758829D01*
X123194960Y-69646497D01*
X123256457Y-69585000D01*
X127106282Y-69585000D01*
X127106282Y-69890000D01*
X127106282Y-69890000D01*
G37*
X127106282Y-69890000D02*
X127137311Y-70054907D01*
X127234771Y-70206364D01*
X127379130Y-70305000D01*
X122775591Y-70305000D01*
X122849743Y-70274361D01*
X123073575Y-70050919D01*
X123194862Y-69758829D01*
X123194960Y-69646497D01*
X123256457Y-69585000D01*
X127106282Y-69585000D01*
X127106282Y-69890000D01*
M02*
