<?xml version="1.0" encoding="UTF-8" standalone="no"?>
<!-- Created with Inkscape (http://www.inkscape.org/) -->

<svg
   xmlns:dc="http://purl.org/dc/elements/1.1/"
   xmlns:cc="http://creativecommons.org/ns#"
   xmlns:rdf="http://www.w3.org/1999/02/22-rdf-syntax-ns#"
   xmlns:svg="http://www.w3.org/2000/svg"
   xmlns="http://www.w3.org/2000/svg"
   xmlns:sodipodi="http://sodipodi.sourceforge.net/DTD/sodipodi-0.dtd"
   xmlns:inkscape="http://www.inkscape.org/namespaces/inkscape"
   id="svg4158"
   version="1.1"
   inkscape:version="0.48.5 r10040"
   width="542"
   height="252"
   sodipodi:docname="Stickers.svg">
  <metadata
     id="metadata4164">
    <rdf:RDF>
      <cc:Work
         rdf:about="">
        <dc:format>image/svg+xml</dc:format>
        <dc:type
           rdf:resource="http://purl.org/dc/dcmitype/StillImage" />
        <dc:title></dc:title>
      </cc:Work>
    </rdf:RDF>
  </metadata>
  <defs
     id="defs4162" />
  <sodipodi:namedview
     pagecolor="#ffffff"
     bordercolor="#666666"
     borderopacity="1"
     objecttolerance="10"
     gridtolerance="10"
     guidetolerance="10"
     inkscape:pageopacity="0"
     inkscape:pageshadow="2"
     inkscape:window-width="1920"
     inkscape:window-height="1025"
     id="namedview4160"
     showgrid="false"
     inkscape:zoom="1.9047526"
     inkscape:cx="314.82378"
     inkscape:cy="39.21376"
     inkscape:window-x="-2"
     inkscape:window-y="-3"
     inkscape:window-maximized="1"
     inkscape:current-layer="svg4158" />
  <g
     transform="matrix(1.553501,0,0,-1.553501,12.849645,67.881975)"
     inkscape:label="ink_ext_XXXXXX"
     id="g4195"
     style="fill:#000000">
    <g
       transform="scale(0.1,0.1)"
       id="g4197"
       style="fill:#000000">
      <path
         id="path4199"
         style="fill:#000000;fill-opacity:1;fill-rule:nonzero;stroke:none"
         d="m 423.598,88.6719 c -28.282,-28.25 -67.129,-45.6563 -110.235,-45.6563 -43.144,0 -81.976,17.4063 -110.258,45.6563 -28.25,28.2811 -45.664,67.1371 -45.664,110.2501 0,43.133 17.414,81.957 45.664,110.254 28.282,28.234 67.114,45.664 110.258,45.664 43.106,0 81.953,-17.43 110.235,-45.664 6.054,-6.082 11.601,-12.672 16.601,-19.656 l 34.61,25.535 C 438.695,365.18 379.848,397.832 313.363,397.859 210.676,397.832 126.223,320.074 115.566,220.211 l -75.566,0 0,130.137 94.148,0 34.043,42.57 -146.9527,0 L 0,392.918 0,5.82813 40,35.0781 l 0,142.5509 75.566,0 C 126.223,77.7813 210.676,0.0078125 313.363,0 379.848,0 438.695,32.6641 474.809,82.8008 l -34.61,25.5392 c -5,-6.985 -10.547,-13.5822 -16.601,-19.6681"
         inkscape:connector-curvature="0" />
      <path
         id="path4201"
         style="fill:#000000;fill-opacity:1;fill-rule:nonzero;stroke:none"
         d="m 313.363,270.336 c 24.395,-0.063 45.918,-12.328 58.789,-31.02 l 34.649,25.563 c -20.703,29.305 -54.844,48.445 -93.438,48.461 -63.203,-0.016 -114.41,-51.215 -114.41,-114.418 0,-63.192 51.207,-114.3829 114.41,-114.4025 38.594,0 72.735,19.1605 93.438,48.4575 l -34.649,25.57 c -12.871,-18.711 -34.394,-30.957 -58.789,-31.02 -39.433,0.078 -71.343,31.977 -71.398,71.395 0.055,39.433 31.965,71.336 71.398,71.414"
         inkscape:connector-curvature="0" />
    </g>
  </g>
  <g
     id="g4335"
     transform="matrix(0.46353039,0,0,0.46353039,209.45743,6.0745398)"
     style="fill:#000000">
    <path
       id="path4291"
       d="m 45.597,180.781 h 3.613 v -12.254 c 0,-4.426 -3.046,-5.914 -7.473,-5.914 -2.692,0 -4.675,0.707 -6.056,2.621 l 2.833,2.16 c 0.637,-1.027 1.523,-1.383 3.4,-1.383 2.585,0 3.683,0.604 3.683,2.303 v 1.877 h -4.994 c -3.86,0 -5.843,2.445 -5.843,5.313 0,3.117 2.337,5.49 6.339,5.49 2.444,0 3.684,-0.566 4.427,-1.807 h 0.071 v 1.594 z m 0,-6.305 c 0,2.799 -1.027,3.117 -4.037,3.117 -2.444,0 -3.401,-1.063 -3.401,-2.266 0,-1.311 0.992,-2.162 3.118,-2.162 h 4.32 v 1.311 z"
       inkscape:connector-curvature="0"
       style="fill:#000000;fill-rule:evenodd" />
    <path
       id="path4293"
       d="m 53.178,180.781 h 3.612 v -10.803 c 0,-2.619 1.736,-3.754 3.507,-3.754 0.921,0 1.523,0.248 2.373,0.887 l 2.62,-3.117 c -1.098,-0.85 -2.301,-1.381 -3.754,-1.381 -1.912,0 -3.542,0.709 -4.675,2.125 H 56.79 v -1.912 h -3.612 v 17.955 z"
       inkscape:connector-curvature="0"
       style="fill:#000000;fill-rule:evenodd" />
    <path
       id="path4295"
       d="m 76.095,180.781 h 3.612 v -25.217 h -3.612 v 9.174 c -1.346,-1.275 -2.798,-2.125 -4.64,-2.125 -2.196,0 -3.789,0.99 -4.816,2.338 -0.992,1.273 -1.275,2.441 -1.275,6.836 0,4.426 0.283,5.594 1.275,6.869 1.027,1.346 2.62,2.338 4.816,2.338 1.842,0 3.507,-0.852 4.64,-2.09 v 1.877 z m -3.542,-14.557 c 3.365,0 3.542,2.977 3.542,5.563 0,2.621 -0.177,5.594 -3.542,5.594 -3.4,0 -3.577,-2.797 -3.577,-5.594 0,-2.764 0.177,-5.563 3.577,-5.563"
       inkscape:connector-curvature="0"
       style="fill:#000000;fill-rule:evenodd" />
    <polygon
       id="polygon4297"
       points="90.564,180.781 94.318,168.208 94.389,168.208 98.143,180.781 101.332,180.781 107.068,162.826 103.242,162.826 99.809,175.398 99.736,175.398 95.664,162.826 93.043,162.826 88.971,175.398 88.9,175.398 85.464,162.826 81.64,162.826 87.377,180.781 "
       style="fill:#000000;fill-rule:evenodd" />
    <path
       id="path4299"
       d="m 118.186,180.781 h 3.613 v -12.254 c 0,-4.426 -3.047,-5.914 -7.473,-5.914 -2.691,0 -4.676,0.707 -6.057,2.621 l 2.834,2.16 c 0.637,-1.027 1.521,-1.383 3.398,-1.383 2.586,0 3.684,0.604 3.684,2.303 v 1.877 h -4.994 c -3.859,0 -5.844,2.445 -5.844,5.313 0,3.117 2.338,5.49 6.34,5.49 2.443,0 3.684,-0.566 4.428,-1.807 h 0.07 v 1.594 z m 0,-6.305 c 0,2.799 -1.027,3.117 -4.037,3.117 -2.443,0 -3.4,-1.063 -3.4,-2.266 0,-1.311 0.992,-2.162 3.117,-2.162 h 4.32 v 1.311 z"
       inkscape:connector-curvature="0"
       style="fill:#000000;fill-rule:evenodd" />
    <path
       id="path4301"
       d="m 125.768,180.781 h 3.611 v -10.803 c 0,-2.619 1.734,-3.754 3.506,-3.754 0.922,0 1.523,0.248 2.373,0.887 l 2.621,-3.117 c -1.098,-0.85 -2.303,-1.381 -3.754,-1.381 -1.912,0 -3.541,0.709 -4.674,2.125 h -0.072 v -1.912 h -3.611 v 17.955 z"
       inkscape:connector-curvature="0"
       style="fill:#000000;fill-rule:evenodd" />
    <path
       id="path4303"
       d="m 152.748,173.167 v -2.977 c 0,-4.639 -3.434,-7.578 -7.4,-7.578 -3.471,0 -7.402,2.266 -7.402,9.242 0,7.367 4.285,9.139 7.969,9.139 2.408,0 4.709,-0.85 6.48,-2.904 l -2.621,-2.232 c -1.063,1.1 -2.551,1.736 -3.93,1.736 -2.48,0 -4.285,-1.488 -4.285,-4.426 h 11.189 z m -11.189,-2.976 c 0.07,-2.727 1.664,-4.18 3.789,-4.18 2.125,0 3.684,1.453 3.789,4.18 h -7.578 z"
       inkscape:connector-curvature="0"
       style="fill:#000000;fill-rule:evenodd" />
    <path
       id="path4305"
       d="m 0,143.425 c 0,3.895 0.566,5.383 1.947,6.906 0.992,1.098 2.657,2.301 5.455,2.301 2.797,0 4.462,-1.203 5.454,-2.301 1.381,-1.523 1.948,-3.012 1.948,-6.906 0,-3.861 -0.567,-5.348 -1.948,-6.871 -0.992,-1.098 -2.657,-2.303 -5.454,-2.303 -2.798,0 -4.463,1.205 -5.455,2.303 C 0.566,138.078 0,139.564 0,143.425 m 11.191,0.035 c 0,2.586 -0.212,3.293 -0.885,4.25 -0.532,0.744 -1.665,1.311 -2.904,1.311 -1.24,0 -2.373,-0.566 -2.904,-1.311 -0.673,-0.957 -0.886,-1.664 -0.886,-4.285 0,-2.586 0.213,-3.295 0.886,-4.25 0.531,-0.744 1.664,-1.311 2.904,-1.311 1.239,0 2.372,0.566 2.904,1.311 0.673,0.955 0.885,1.664 0.885,4.285"
       inkscape:connector-curvature="0"
       style="fill:#000000;fill-rule:evenodd" />
    <path
       id="path4307"
       d="m 49.469,144.806 v -2.975 c 0,-4.641 -3.435,-7.58 -7.401,-7.58 -3.472,0 -7.402,2.268 -7.402,9.244 0,7.365 4.285,9.137 7.968,9.137 2.409,0 4.71,-0.85 6.481,-2.904 l -2.621,-2.23 c -1.062,1.098 -2.549,1.736 -3.93,1.736 -2.48,0 -4.286,-1.488 -4.286,-4.428 h 11.191 z m -11.191,-2.974 c 0.071,-2.729 1.665,-4.18 3.79,-4.18 2.125,0 3.683,1.451 3.789,4.18 h -7.579 z"
       inkscape:connector-curvature="0"
       style="fill:#000000;fill-rule:evenodd" />
    <path
       id="path4309"
       d="m 52.552,152.419 h 3.612 v -10.693 c 0,-2.445 1.523,-3.861 3.577,-3.861 2.019,0 3.542,1.416 3.542,3.861 v 10.693 h 3.612 v -11.934 c 0,-4.074 -3.187,-6.234 -5.985,-6.234 -1.912,0 -3.542,0.709 -4.674,2.125 h -0.072 v -1.912 h -3.612 v 17.955 z"
       inkscape:connector-curvature="0"
       style="fill:#000000;fill-rule:evenodd" />
    <path
       id="path4311"
       d="m 76.662,149.41 c 2.302,2.16 4.994,3.223 7.898,3.223 4.179,0 7.437,-2.018 7.437,-5.525 0,-2.867 -1.486,-5.135 -5.206,-5.383 l -2.975,-0.211 c -1.806,-0.143 -2.372,-0.922 -2.372,-1.701 0,-1.238 0.779,-2.16 3.08,-2.16 1.949,0 3.402,0.674 4.818,1.664 l 2.23,-2.619 c -1.771,-1.488 -3.895,-2.445 -7.049,-2.445 -3.789,0 -6.693,1.877 -6.693,5.525 0,3.08 2.196,4.852 5.17,5.1 l 3.188,0.283 c 1.241,0.105 2.196,0.496 2.196,1.771 0,1.523 -1.489,2.301 -3.542,2.301 -2.408,0 -4.108,-0.777 -5.666,-2.301 l -2.514,2.478 z"
       inkscape:connector-curvature="0"
       style="fill:#000000;fill-rule:evenodd" />
    <path
       id="path4313"
       d="m 94.051,143.425 c 0,3.895 0.568,5.383 1.949,6.906 0.992,1.098 2.656,2.301 5.453,2.301 2.799,0 4.463,-1.203 5.455,-2.301 1.381,-1.523 1.947,-3.012 1.947,-6.906 0,-3.861 -0.566,-5.348 -1.947,-6.871 -0.992,-1.098 -2.656,-2.303 -5.455,-2.303 -2.797,0 -4.461,1.205 -5.453,2.303 -1.381,1.524 -1.949,3.01 -1.949,6.871 m 11.191,0.035 c 0,2.586 -0.211,3.293 -0.885,4.25 -0.531,0.744 -1.664,1.311 -2.904,1.311 -1.238,0 -2.373,-0.566 -2.902,-1.311 -0.674,-0.957 -0.887,-1.664 -0.887,-4.285 0,-2.586 0.213,-3.295 0.887,-4.25 0.529,-0.744 1.664,-1.311 2.902,-1.311 1.24,0 2.373,0.566 2.904,1.311 0.674,0.955 0.885,1.664 0.885,4.285"
       inkscape:connector-curvature="0"
       style="fill:#000000;fill-rule:evenodd" />
    <path
       id="path4315"
       d="m 111.939,146.4 c 0,4.072 3.188,6.232 6.021,6.232 1.875,0 3.506,-0.709 4.639,-2.125 h 0.07 v 1.914 h 3.611 v -17.957 h -3.611 v 10.695 c 0,2.443 -1.523,3.861 -3.543,3.861 -2.053,0 -3.576,-1.418 -3.576,-3.861 v -10.695 h -3.611 V 146.4 z"
       inkscape:connector-curvature="0"
       style="fill:#000000;fill-rule:evenodd" />
    <path
       id="path4317"
       d="m 130.242,152.419 h 3.613 v -10.801 c 0,-2.621 1.734,-3.754 3.506,-3.754 0.922,0 1.523,0.248 2.373,0.885 l 2.621,-3.117 c -1.1,-0.85 -2.301,-1.381 -3.754,-1.381 -1.912,0 -3.543,0.709 -4.676,2.125 h -0.07 v -1.912 h -3.613 v 17.955 z"
       inkscape:connector-curvature="0"
       style="fill:#000000;fill-rule:evenodd" />
    <path
       id="path4319"
       d="m 153.859,147.144 c -0.885,1.098 -2.16,1.877 -3.646,1.877 -2.939,0 -4.676,-1.666 -4.676,-5.563 0,-3.93 1.736,-5.594 4.676,-5.594 1.486,0 2.762,0.779 3.646,1.877 l 2.656,-2.373 c -1.557,-1.807 -3.719,-3.117 -6.445,-3.117 -4.143,0 -8.145,2.621 -8.145,9.207 0,6.555 4.002,9.174 8.145,9.174 2.727,0 4.889,-1.311 6.445,-3.115 l -2.656,-2.373 z"
       inkscape:connector-curvature="0"
       style="fill:#000000;fill-rule:evenodd" />
    <path
       id="path4321"
       d="m 172.238,144.806 v -2.975 c 0,-4.641 -3.438,-7.58 -7.402,-7.58 -3.473,0 -7.402,2.268 -7.402,9.244 0,7.365 4.285,9.137 7.969,9.137 2.408,0 4.711,-0.85 6.48,-2.904 l -2.621,-2.23 c -1.063,1.098 -2.549,1.736 -3.93,1.736 -2.48,0 -4.285,-1.488 -4.285,-4.428 h 11.191 z m -11.191,-2.974 c 0.07,-2.729 1.664,-4.18 3.789,-4.18 2.125,0 3.682,1.451 3.789,4.18 h -7.578 z"
       inkscape:connector-curvature="0"
       style="fill:#000000;fill-rule:evenodd" />
    <path
       id="path4323"
       d="m 25.041,149.021 c 3.4,0 3.577,-2.799 3.577,-5.561 0,-2.799 -0.177,-5.596 -3.577,-5.596 -3.364,0 -3.542,2.975 -3.542,5.596 0,2.586 0.177,5.561 3.542,5.561 m -7.168,31.76 v -46.316 h 3.626 v 1.877 c 1.134,-1.24 2.798,-2.09 4.64,-2.09 2.195,0 3.79,0.992 4.817,2.338 0.991,1.275 1.274,2.443 1.274,6.871 0,4.391 -0.283,5.561 -1.274,6.834 -1.027,1.346 -2.622,2.338 -4.817,2.338 -1.842,0 -3.294,-0.85 -4.64,-2.125 l -0.013,14.23 c 1.204,-1.416 2.833,-2.125 4.745,-2.125 2.798,0 5.985,2.16 5.985,6.232 v 11.936 h -3.612 v -10.695 c 0,-2.445 -1.523,-3.861 -3.542,-3.861 -2.054,0 -3.576,1.416 -3.576,3.861 v 10.695 h -3.613 z"
       inkscape:connector-curvature="0"
       style="fill:#000000" />
    <g
       id="g4325"
       style="fill:#000000">
      <path
         id="path4327"
         d="m 152.336,57.604 -16.439,-3.057 c -0.4,-0.075 -0.838,-0.451 -0.973,-0.837 l -5.039,-11.756 c -0.188,-0.363 -0.152,-0.933 0.08,-1.271 l 9.578,-13.96 c 0.229,-0.336 0.184,-0.847 -0.105,-1.136 L 127.475,13.624 c -0.289,-0.289 -0.799,-0.336 -1.135,-0.105 l -14.205,9.748 c -0.336,0.231 -0.912,0.272 -1.277,0.092 L 99.462,18.694 c -0.387,-0.128 -0.764,-0.561 -0.84,-0.962 L 95.457,0.729 C 95.383,0.328 94.988,0 94.58,0 H 77.66 C 77.253,0 76.858,0.328 76.784,0.729 L 73.62,17.732 c -0.076,0.401 -0.452,0.834 -0.84,0.962 l -11.397,4.665 c -0.366,0.18 -0.942,0.139 -1.277,-0.092 L 45.902,13.519 c -0.337,-0.231 -0.848,-0.184 -1.136,0.105 L 32.802,25.587 c -0.288,0.289 -0.336,0.8 -0.105,1.136 l 9.579,13.96 c 0.23,0.338 0.266,0.908 0.079,1.271 l -5.04,11.756 c -0.134,0.386 -0.571,0.762 -0.973,0.837 l -16.438,3.057 c -0.402,0.076 -0.729,0.47 -0.729,0.878 l 10e-4,16.919 c 0,0.408 0.328,0.805 0.729,0.878 l 16.035,2.984 c 0.401,0.073 0.83,0.454 0.952,0.843 l 5.006,12.505 c 0.179,0.367 0.137,0.941 -0.095,1.277 l -9.108,13.273 c -0.23,0.336 -0.183,0.848 0.105,1.137 l 11.965,11.963 c 0.288,0.287 0.799,0.334 1.136,0.105 l 13.038,-8.949 c 0.336,-0.23 0.899,-0.248 1.25,-0.043 l 5.75,3.07 c 0.364,0.186 0.789,0.029 0.945,-0.348 L 78.74,85.449 c 0.157,-0.377 0,-0.858 -0.348,-1.071 l -1.439,-0.881 c -0.266,-0.162 -0.627,-0.441 -0.91,-0.697 -5.191,-3.324 -8.635,-9.139 -8.635,-15.761 0,-10.334 8.378,-18.711 18.711,-18.711 10.333,0 18.71,8.377 18.71,18.711 0,6.622 -3.443,12.437 -8.635,15.761 -0.281,0.256 -0.643,0.535 -0.908,0.697 l -1.439,0.881 c -0.346,0.213 -0.504,0.694 -0.348,1.071 l 11.855,28.648 c 0.156,0.377 0.58,0.533 0.945,0.348 l 5.75,-3.07 c 0.352,-0.205 0.914,-0.188 1.25,0.043 l 13.039,8.949 c 0.336,0.229 0.848,0.182 1.135,-0.105 l 11.965,-11.963 c 0.289,-0.289 0.336,-0.801 0.105,-1.137 l -9.109,-13.273 c -0.23,-0.336 -0.273,-0.91 -0.094,-1.277 l 5.006,-12.505 c 0.123,-0.389 0.549,-0.77 0.951,-0.843 l 16.035,-2.984 c 0.4,-0.073 0.729,-0.47 0.729,-0.878 l 0.002,-16.919 c 0.001,-0.409 -0.327,-0.803 -0.727,-0.879 z m -2.874,15.947 -13.822,2.572 c -1.047,0.207 -1.727,0.645 -2.313,1.151 -0.531,0.487 -1.004,1.053 -1.337,1.934 l -4.971,12.415 c -0.317,0.736 -0.384,1.356 -0.39,1.924 0.021,0.896 0.168,1.758 0.84,2.781 l 7.834,11.416 -8.782,8.781 -11.184,-7.676 c -0.979,-0.648 -1.855,-0.805 -2.705,-0.818 -0.717,0.008 -1.453,0.127 -2.276,0.568 h -10e-4 l -2.903,1.551 -9.744,-23.547 c 0.234,-0.169 0.45,-0.343 0.668,-0.528 C 104.423,82.1 108.43,75.227 108.43,67.438 108.428,55.114 98.443,45.128 86.12,45.126 73.798,45.128 63.812,55.114 63.808,67.438 c 0.002,7.789 4.008,14.661 10.056,18.636 0.216,0.184 0.431,0.357 0.668,0.528 l -9.743,23.548 -2.903,-1.551 c -0.835,-0.447 -1.583,-0.561 -2.281,-0.568 -0.86,0.014 -1.729,0.172 -2.708,0.822 l -11.177,7.672 -8.784,-8.781 7.835,-11.42 c 0.666,-1.021 0.817,-1.878 0.838,-2.777 -0.008,-0.582 -0.082,-1.203 -0.388,-1.92 L 40.242,79.185 C 39.907,78.309 39.433,77.752 38.908,77.27 38.319,76.766 37.645,76.331 36.588,76.122 L 22.777,73.552 22.776,61.133 37,58.484 c 1.031,-0.207 1.692,-0.624 2.277,-1.111 0.521,-0.463 0.994,-0.997 1.346,-1.846 l 0.002,10e-4 5.01,-11.69 c 0.338,-0.739 0.433,-1.396 0.439,-2.036 -0.019,-0.875 -0.164,-1.731 -0.819,-2.743 l -8.316,-12.117 8.782,-8.782 12.348,8.475 c 1.031,0.672 1.878,0.813 2.774,0.833 0.586,-0.005 1.206,-0.08 1.926,-0.389 l 11.354,-4.647 c 0.879,-0.346 1.433,-0.826 1.907,-1.352 0.494,-0.586 0.915,-1.248 1.126,-2.276 L 79.91,4 h 12.418 l 2.752,14.79 c 0.216,1.047 0.637,1.707 1.13,2.291 0.478,0.53 1.032,1.01 1.919,1.357 l 11.356,4.649 c 0.712,0.303 1.318,0.377 1.908,0.385 0.888,-0.023 1.744,-0.162 2.774,-0.833 l 12.352,-8.478 8.781,8.783 -8.305,12.103 c -0.668,0.997 -0.814,1.876 -0.834,2.757 0.006,0.625 0.098,1.263 0.413,1.97 l 5.038,11.756 0.001,0 c 0.354,0.85 0.827,1.383 1.349,1.846 0.583,0.485 1.238,0.902 2.272,1.111 l 14.228,2.646 0,12.418 z"
         inkscape:connector-curvature="0"
         style="fill:#000000" />
    </g>
  </g>
  <g
     transform="matrix(0.23829531,0,0,-0.23829531,105.20932,67.35725)"
     inkscape:label="ink_ext_XXXXXX"
     id="g4383"
     style="fill:#000000">
    <g
       transform="scale(0.1,0.1)"
       id="g4385"
       style="fill:#000000">
      <path
         id="path4387"
         style="fill:#000000;fill-opacity:1;fill-rule:nonzero;stroke:none"
         d="m 2586.49,1096.18 c 85.03,-403.45 442.88,-698.692 871.63,-698.692 41.17,0 81.84,2.789 121.54,8.196 l -0.02,-386.5199 c -42.92,-4.3594 -94.44,-10.07426 -138.5,-10.07426 -720,0 -1275.12,574.89816 -1275.12,1280.00016 0,705.11 577.83,1276.86 1282.93,1276.86 44.12,0 97.71,-2.24 140.66,-6.61 l -1.76,-397.96 c -39.16,5.25 -89.14,17.97 -129.73,17.97 -425.78,0 -781.79,-298.65 -869.97,-697.9 l 735.46,-0.07 0,-384.81 -737.12,-0.39"
         inkscape:connector-curvature="0" />
      <path
         id="path4389"
         style="fill:#000000;stroke:#5468ba;stroke-width:3.56200004;stroke-linecap:butt;stroke-linejoin:miter;stroke-miterlimit:3.99390006;stroke-opacity:1;stroke-dasharray:none"
         d="m 2586.49,1096.18 c 85.03,-403.45 442.88,-698.692 871.63,-698.692 41.17,0 81.84,2.789 121.54,8.196 l -0.02,-386.5199 c -42.92,-4.3594 -94.44,-10.07426 -138.5,-10.07426 -720,0 -1275.12,574.89816 -1275.12,1280.00016 0,705.11 577.83,1276.86 1282.93,1276.86 44.12,0 97.71,-2.24 140.66,-6.61 l -1.76,-397.96 c -39.16,5.25 -89.14,17.97 -129.73,17.97 -425.78,0 -781.79,-298.65 -869.97,-697.9 l 735.46,-0.07 0,-384.81 -737.12,-0.39 z"
         inkscape:connector-curvature="0" />
      <path
         id="path4391"
         style="fill:#000000;fill-opacity:1;fill-rule:nonzero;stroke:none"
         d="m 1412.39,2171.16 c -39.16,5.27 -81.26,8.19 -121.87,8.19 -492.055,0 -890.934,-398.88 -890.934,-890.93 0,-492.057 398.879,-890.932 890.934,-890.932 41.18,0 81.86,2.789 121.54,8.196 L 1411.3,19.0859 C 1368.62,14.7813 1325.17,12.5742 1281.36,12.5742 576.254,12.5742 4.67188,584.156 4.67188,1289.26 c 0,705.1 566.48412,1279.83 1271.58812,1279.83 44.11,0 92.8,-5.38 135.76,-9.75 l 0.37,-388.18"
         inkscape:connector-curvature="0" />
      <path
         id="path4393"
         style="fill:#000000;stroke:#5468ba;stroke-width:3.56200004;stroke-linecap:butt;stroke-linejoin:miter;stroke-miterlimit:3.99390006;stroke-opacity:1;stroke-dasharray:none"
         d="m 1412.39,2171.16 c -39.16,5.27 -81.26,8.19 -121.87,8.19 -492.055,0 -890.934,-398.88 -890.934,-890.93 0,-492.057 398.879,-890.932 890.934,-890.932 41.18,0 81.86,2.789 121.54,8.196 L 1411.3,19.0859 C 1368.62,14.7813 1325.17,12.5742 1281.36,12.5742 576.254,12.5742 4.67188,584.156 4.67188,1289.26 c 0,705.1 566.48412,1279.83 1271.58812,1279.83 44.11,0 92.8,-5.38 135.76,-9.75 l 0.37,-388.18 z"
         inkscape:connector-curvature="0" />
    </g>
  </g>
  <g
     transform="matrix(0.37086542,0,0,-0.37086542,12.529737,246.25049)"
     inkscape:label="ink_ext_XXXXXX"
     id="g4511">
    <g
       transform="scale(0.1,0.1)"
       id="g4513">
      <path
         id="path4515"
         style="fill:#231f20;fill-opacity:1;fill-rule:nonzero;stroke:none"
         d="m 278.063,3.24609 1938.91,0 0,484.723 -1938.91,0 0,-484.723 z"
         inkscape:connector-curvature="0" />
      <path
         id="path4517"
         style="fill:none;stroke:#231f20;stroke-width:5.70300007;stroke-linecap:butt;stroke-linejoin:miter;stroke-miterlimit:3.8636899;stroke-opacity:1;stroke-dasharray:none"
         d="m 278.063,3.24609 1938.91,0 0,484.723 -1938.91,0 0,-484.723 z"
         inkscape:connector-curvature="0" />
      <path
         id="path4519"
         style="fill:#231f20;fill-opacity:1;fill-rule:nonzero;stroke:none"
         d="m 893.832,1206.59 77.1367,0 0,92.0078 -77.1367,0 0,-92.0078 z"
         inkscape:connector-curvature="0" />
      <path
         id="path4521"
         style="fill:none;stroke:#231f20;stroke-width:19.38800049;stroke-linecap:butt;stroke-linejoin:miter;stroke-miterlimit:3.8636899;stroke-opacity:1;stroke-dasharray:none"
         d="m 893.832,1206.59 77.1367,0 0,92.0078 -77.1367,0 0,-92.0078 z"
         inkscape:connector-curvature="0" />
      <path
         id="path4523"
         style="fill:#231f20;fill-opacity:1;fill-rule:nonzero;stroke:none"
         d="m 1115.22,2446.15 343.984,0 0,68.3047 -343.984,0 0,-68.3047 z"
         inkscape:connector-curvature="0" />
      <path
         id="path4525"
         style="fill:none;stroke:#231f20;stroke-width:19.41799927;stroke-linecap:butt;stroke-linejoin:miter;stroke-miterlimit:3.8636899;stroke-opacity:1;stroke-dasharray:none"
         d="m 1115.22,2446.15 343.984,0 0,68.3047 -343.984,0 0,-68.3047 z"
         inkscape:connector-curvature="0" />
      <path
         id="path4527"
         style="fill:none;stroke:#231f20;stroke-width:28.49900055;stroke-linecap:butt;stroke-linejoin:miter;stroke-miterlimit:3.8636899;stroke-opacity:1;stroke-dasharray:none"
         d="m 1387.78,3123.21 c 144.4,-5.46 376.42,-21.39 401.89,-62.05 7.28,-11.6 10.46,-60.28 10.27,-73.93 l -523.48,0.01 -445.23,0.01 -35.523,-0.02 -117.785,0.03 c -0.067,15.61 4.113,65.48 13.406,78.02 11.27,15.21 43.926,26.58 88.223,35.07 l 0,39.94 c 0,8.93 7.23,16.16 16.156,16.16 l 27.637,0 c 8.926,0 16.156,-7.23 16.156,-16.16 l 0,-30.85 c 91.598,11.03 206.66,14.45 293.08,15.48"
         inkscape:connector-curvature="0" />
      <path
         id="path4529"
         style="fill:none;stroke:#231f20;stroke-width:28.49900055;stroke-linecap:butt;stroke-linejoin:miter;stroke-miterlimit:3.8636899;stroke-opacity:1;stroke-dasharray:none"
         d="m 1656.58,1417.23 150.58,1525.94"
         inkscape:connector-curvature="0" />
      <path
         id="path4531"
         style="fill:none;stroke:#231f20;stroke-width:28.49900055;stroke-linecap:butt;stroke-linejoin:miter;stroke-miterlimit:3.8636899;stroke-opacity:1;stroke-dasharray:none"
         d="m 676.227,2928.92 80.695,-815.16 76.008,-757.09 4.785,-27.79 13.738,-15.67 34.203,-7.48 593.504,0"
         inkscape:connector-curvature="0" />
      <path
         id="path4533"
         style="fill:#231f20;fill-opacity:1;fill-rule:nonzero;stroke:none"
         d="m 783.938,3016.12 53.4375,0 0,132.031 -53.4375,0 0,-132.031 z"
         inkscape:connector-curvature="0" />
      <path
         id="path4535"
         style="fill:none;stroke:#231f20;stroke-width:1.875;stroke-linecap:butt;stroke-linejoin:miter;stroke-miterlimit:3.86370993;stroke-opacity:1;stroke-dasharray:none"
         d="m 783.938,3016.12 53.4375,0 0,132.031 -53.4375,0 0,-132.031 z"
         inkscape:connector-curvature="0" />
      <path
         id="path4537"
         style="fill:none;stroke:#231f20;stroke-width:19.38800049;stroke-linecap:butt;stroke-linejoin:miter;stroke-miterlimit:3.8636899;stroke-opacity:1;stroke-dasharray:none"
         d="m 839.027,3103.25 0,-104.29 c 0,-8.67 -6.824,-8.62 -15.394,-9.01 l -0.762,21.35 -27.637,-14.25 6.352,14.27 c -8.563,0.41 -22.508,-21.02 -22.508,-12.36 l 0,89.83"
         inkscape:connector-curvature="0" />
      <path
         id="path4539"
         style="fill:none;stroke:#231f20;stroke-width:28.49900055;stroke-linecap:butt;stroke-linejoin:miter;stroke-miterlimit:3.8636899;stroke-opacity:1;stroke-dasharray:none"
         d="m 1797.26,2823.71 90.69,0 0,-142.5 -105.58,0 14.89,142.5 z"
         inkscape:connector-curvature="0" />
      <path
         id="path4541"
         style="fill:none;stroke:#231f20;stroke-width:28.49900055;stroke-linecap:butt;stroke-linejoin:miter;stroke-miterlimit:3.8636899;stroke-opacity:1;stroke-dasharray:none"
         d="m 610.555,2977.37 1247.945,0 c 4.46,0 -27.55,3.51 -27.55,-0.96 l -25.91,-46.24 c 0,-4.46 -16.37,-7.87 -20.83,-7.87 l -1174.991,0 c -4.457,0 -6.742,17.34 -6.742,21.8 l 0,18.06 c 0,4.47 8.078,15.21 8.078,15.21 z"
         inkscape:connector-curvature="0" />
      <path
         id="path4543"
         style="fill:#231f20;fill-opacity:1;fill-rule:nonzero;stroke:none"
         d="m 1757.56,3005.84 c 0,32.2 26.1,58.3 58.3,58.3 32.2,0 58.3,-26.1 58.3,-58.3 0,-32.2 -26.1,-58.3 -58.3,-58.3 -32.2,0 -58.3,26.1 -58.3,58.3"
         inkscape:connector-curvature="0" />
      <path
         id="path4545"
         style="fill:none;stroke:#231f20;stroke-width:36.35200119;stroke-linecap:butt;stroke-linejoin:miter;stroke-miterlimit:3.8636899;stroke-opacity:1;stroke-dasharray:none"
         d="m 1757.56,3005.84 c 0,32.2 26.1,58.3 58.3,58.3 32.2,0 58.3,-26.1 58.3,-58.3 0,-32.2 -26.1,-58.3 -58.3,-58.3 -32.2,0 -58.3,26.1 -58.3,58.3 z"
         inkscape:connector-curvature="0" />
      <path
         id="path4547"
         style="fill:none;stroke:#231f20;stroke-width:28.49900055;stroke-linecap:butt;stroke-linejoin:miter;stroke-miterlimit:3.8636899;stroke-opacity:1;stroke-dasharray:none"
         d="m 1126.93,3103.16 254.113,0 0,56.9492 -254.113,0 0,-56.9492 z"
         inkscape:connector-curvature="0" />
      <path
         id="path4549"
         style="fill:none;stroke:#231f20;stroke-width:42.7480011;stroke-linecap:butt;stroke-linejoin:miter;stroke-miterlimit:3.8636899;stroke-opacity:1;stroke-dasharray:none"
         d="M 39.4063,3395.24 2453.61,972.68"
         inkscape:connector-curvature="0" />
      <path
         id="path4551"
         style="fill:none;stroke:#231f20;stroke-width:42.7480011;stroke-linecap:butt;stroke-linejoin:round;stroke-miterlimit:3.8636899;stroke-opacity:1;stroke-dasharray:none"
         d="M 2444.2,3396.29 30,972.68"
         inkscape:connector-curvature="0" />
      <path
         id="path4553"
         style="fill:#231f20;fill-opacity:1;fill-rule:nonzero;stroke:none"
         d="m 1541.53,1348.18 c 0,33.55 27.21,60.76 60.77,60.76 33.56,0 60.77,-27.21 60.77,-60.76 0,-33.57 -27.21,-60.77 -60.77,-60.77 -33.56,0 -60.77,27.2 -60.77,60.77"
         inkscape:connector-curvature="0" />
      <path
         id="path4555"
         style="fill:none;stroke:#231f20;stroke-width:5.69999981;stroke-linecap:butt;stroke-linejoin:miter;stroke-miterlimit:3.86370993;stroke-opacity:1;stroke-dasharray:none"
         d="m 1541.53,1348.18 c 0,33.55 27.21,60.76 60.77,60.76 33.56,0 60.77,-27.21 60.77,-60.76 0,-33.57 -27.21,-60.77 -60.77,-60.77 -33.56,0 -60.77,27.2 -60.77,60.77 z"
         inkscape:connector-curvature="0" />
      <path
         id="path4557"
         style="fill:#231f20;fill-opacity:1;fill-rule:nonzero;stroke:none"
         d="m 1513.67,1343.47 c 0,-48.65 39.44,-88.08 88.09,-88.08 48.65,0 88.09,39.43 88.09,88.08 0,48.66 -39.44,88.09 -88.09,88.09 -48.65,0 -88.09,-39.43 -88.09,-88.09 z m -57.81,-1.79 c -1.4,80.29 62.56,146.53 142.86,147.93 80.3,1.4 146.53,-62.56 147.94,-142.86 1.39,-80.3 -62.56,-146.53 -142.86,-147.93 -80.3,-1.41 -146.53,62.56 -147.94,142.86"
         inkscape:connector-curvature="0" />
      <path
         id="path4559"
         style="fill:none;stroke:#231f20;stroke-width:5.69999981;stroke-linecap:butt;stroke-linejoin:miter;stroke-miterlimit:3.86370993;stroke-opacity:1;stroke-dasharray:none"
         d="m 1513.67,1343.47 c 0,-48.65 39.44,-88.08 88.09,-88.08 48.65,0 88.09,39.43 88.09,88.08 0,48.66 -39.44,88.09 -88.09,88.09 -48.65,0 -88.09,-39.43 -88.09,-88.09 z"
         inkscape:connector-curvature="0" />
      <path
         id="path4561"
         style="fill:none;stroke:#231f20;stroke-width:5.69999981;stroke-linecap:butt;stroke-linejoin:miter;stroke-miterlimit:3.86370993;stroke-opacity:1;stroke-dasharray:none"
         d="m 1455.86,1341.68 c -1.4,80.29 62.56,146.53 142.86,147.93 80.3,1.4 146.53,-62.56 147.94,-142.86 1.39,-80.3 -62.56,-146.53 -142.86,-147.93 -80.3,-1.41 -146.53,62.56 -147.94,142.86 z"
         inkscape:connector-curvature="0" />
      <path
         id="path4563"
         style="fill:none;stroke:#231f20;stroke-width:5.69999981;stroke-linecap:butt;stroke-linejoin:miter;stroke-miterlimit:3.86370993;stroke-opacity:1;stroke-dasharray:none"
         d="m 1541.53,1342.47 c 0,-33.56 27.21,-60.76 60.77,-60.76 33.56,0 60.77,27.2 60.77,60.76 0,33.57 -27.21,60.77 -60.77,60.77 -33.56,0 -60.77,-27.2 -60.77,-60.77 z"
         inkscape:connector-curvature="0" />
      <path
         id="path4565"
         style="fill:none;stroke:#231f20;stroke-width:5.69999981;stroke-linecap:butt;stroke-linejoin:miter;stroke-miterlimit:3.86370993;stroke-opacity:1;stroke-dasharray:none"
         d="m 1513.67,1343.47 c 0,48.66 39.44,88.09 88.09,88.09 48.65,0 88.09,-39.43 88.09,-88.09 0,-48.65 -39.44,-88.08 -88.09,-88.08 -48.65,0 -88.09,39.43 -88.09,88.08 z"
         inkscape:connector-curvature="0" />
    </g>
  </g>
  <text
     xml:space="preserve"
     style="font-size:24.08670425px;font-style:normal;font-variant:normal;font-weight:bold;font-stretch:normal;text-align:center;text-anchor:middle;fill:#000000;fill-opacity:1;stroke:none;font-family:Scriptina;-inkscape-font-specification:Scriptina Bold"
     x="421.53207"
     y="86.676956"
     id="text4595"><tspan
       sodipodi:role="line"
       id="tspan4597"
       x="421.53207"
       y="86.676956"
       style="font-style:normal;font-variant:normal;font-weight:normal;font-stretch:normal;fill:#000000;font-family:Sans;-inkscape-font-specification:Sans">P/N: Mooltipass V1.0</tspan></text>
  <text
     xml:space="preserve"
     style="font-size:17.68621063px;font-style:normal;font-variant:normal;font-weight:bold;font-stretch:normal;text-align:end;text-anchor:end;fill:#000000;fill-opacity:1;stroke:none;font-family:ProFontWindows;-inkscape-font-specification:ProFontWindows"
     x="519.19672"
     y="242.56563"
     id="text4599"><tspan
       sodipodi:role="line"
       x="519.19672"
       y="242.56563"
       id="tspan4603"
       style="font-style:italic;font-variant:normal;font-weight:normal;font-stretch:normal;font-family:Sans;-inkscape-font-specification:Sans Italic">Designed around the world / Made in China</tspan></text>
  <text
     xml:space="preserve"
     style="font-size:31.8227253px;font-style:italic;font-variant:normal;font-weight:normal;font-stretch:normal;text-align:end;text-anchor:end;fill:#000000;fill-opacity:1;stroke:none;font-family:Sans;-inkscape-font-specification:Sans Italic"
     x="520.88861"
     y="218.17998"
     id="text4605"><tspan
       sodipodi:role="line"
       id="tspan4607"
       x="520.88861"
       y="218.17998"
       style="font-style:normal;-inkscape-font-specification:Sans">www.themooltipass.com</tspan></text>
  <text
     xml:space="preserve"
     style="font-size:32.94031906px;font-style:normal;font-variant:normal;font-weight:normal;font-stretch:normal;text-align:end;text-anchor:end;fill:#000000;fill-opacity:1;stroke:none;font-family:Sans;-inkscape-font-specification:Sans"
     x="534.3858"
     y="50.811893"
     id="text4609"><tspan
       sodipodi:role="line"
       id="tspan4611"
       x="534.3858"
       y="50.811893"><tspan
         style="font-weight:bold;-inkscape-font-specification:Sans Bold"
         id="tspan4613">MOOLTIPASS</tspan><tspan
         style="font-size:65.00091553%;baseline-shift:super"
         id="tspan4650">®</tspan></tspan></text>
  <text
     xml:space="preserve"
     style="font-size:36px;font-style:normal;font-variant:normal;font-weight:bold;font-stretch:normal;text-align:end;text-anchor:end;fill:#000000;fill-opacity:1;stroke:none;font-family:Sans;-inkscape-font-specification:Sans Bold"
     x="161.70078"
     y="160.66296"
     id="text4615"><tspan
       sodipodi:role="line"
       id="tspan4617"
       x="161.70078"
       y="160.66296">S/N</tspan></text>
  <text
     id="text4619"
     y="89.494034"
     x="171.41534"
     style="font-size:22.22267723px;font-style:italic;font-variant:normal;font-weight:normal;font-stretch:normal;text-align:end;text-anchor:end;fill:#000000;fill-opacity:1;stroke:none;font-family:Sans;-inkscape-font-specification:Sans Italic"
     xml:space="preserve"><tspan
       style="font-style:normal;-inkscape-font-specification:Sans"
       y="89.494034"
       x="171.41534"
       sodipodi:role="line"
       id="tspan4623">DC +5V@0.5A</tspan></text>
  <rect
     style="fill:none;stroke:#000000"
     id="rect4627"
     width="369.60181"
     height="84.525414"
     x="164.32581"
     y="105.52428"
     ry="5.6318121" />
</svg>
