G04 (created by PCBNEW (2013-07-07 BZR 4022)-stable) date 16/02/2015 07:09:21*
%MOIN*%
G04 Gerber Fmt 3.4, Leading zero omitted, Abs format*
%FSLAX34Y34*%
G01*
G70*
G90*
G04 APERTURE LIST*
%ADD10C,0.00590551*%
G04 APERTURE END LIST*
G54D10*
G36*
X58158Y-52640D02*
X57589Y-52640D01*
X57589Y-52271D01*
X58158Y-52271D01*
X58158Y-52640D01*
X58158Y-52640D01*
G37*
G36*
X58158Y-53240D02*
X57589Y-53240D01*
X57589Y-52871D01*
X58158Y-52871D01*
X58158Y-53240D01*
X58158Y-53240D01*
G37*
G36*
X58178Y-63762D02*
X57608Y-63762D01*
X57608Y-63393D01*
X58178Y-63393D01*
X58178Y-63762D01*
X58178Y-63762D01*
G37*
G36*
X58178Y-64362D02*
X57608Y-64362D01*
X57608Y-63993D01*
X58178Y-63993D01*
X58178Y-64362D01*
X58178Y-64362D01*
G37*
G36*
X58946Y-52640D02*
X58376Y-52640D01*
X58376Y-52271D01*
X58946Y-52271D01*
X58946Y-52640D01*
X58946Y-52640D01*
G37*
G36*
X58946Y-53240D02*
X58376Y-53240D01*
X58376Y-52871D01*
X58946Y-52871D01*
X58946Y-53240D01*
X58946Y-53240D01*
G37*
G36*
X59607Y-61988D02*
X57912Y-61988D01*
X57912Y-60676D01*
X57912Y-60661D01*
X57906Y-60647D01*
X57895Y-60636D01*
X57881Y-60630D01*
X57866Y-60630D01*
X57440Y-60630D01*
X57440Y-60283D01*
X57440Y-60267D01*
X57440Y-60204D01*
X57440Y-60189D01*
X57440Y-59889D01*
X57440Y-59874D01*
X57440Y-59810D01*
X57440Y-59795D01*
X57440Y-59495D01*
X57440Y-59480D01*
X57440Y-59417D01*
X57440Y-59401D01*
X57440Y-59102D01*
X57440Y-59086D01*
X57440Y-59023D01*
X57440Y-59008D01*
X57440Y-58660D01*
X57866Y-58660D01*
X57881Y-58660D01*
X57895Y-58654D01*
X57906Y-58643D01*
X57912Y-58629D01*
X57912Y-58614D01*
X57912Y-57302D01*
X59607Y-57302D01*
X59607Y-58603D01*
X58472Y-58603D01*
X58456Y-58603D01*
X58442Y-58608D01*
X58431Y-58619D01*
X58425Y-58634D01*
X58425Y-58649D01*
X58425Y-59008D01*
X58425Y-59023D01*
X58425Y-59086D01*
X58425Y-59102D01*
X58425Y-59401D01*
X58425Y-59417D01*
X58425Y-59480D01*
X58425Y-59495D01*
X58425Y-59795D01*
X58425Y-59810D01*
X58425Y-59874D01*
X58425Y-59889D01*
X58425Y-60189D01*
X58425Y-60204D01*
X58425Y-60267D01*
X58425Y-60283D01*
X58425Y-60641D01*
X58425Y-60657D01*
X58431Y-60671D01*
X58442Y-60682D01*
X58456Y-60688D01*
X58472Y-60688D01*
X59607Y-60688D01*
X59607Y-61988D01*
X59607Y-61988D01*
G37*
G36*
X59733Y-52640D02*
X59164Y-52640D01*
X59164Y-52271D01*
X59733Y-52271D01*
X59733Y-52640D01*
X59733Y-52640D01*
G37*
G36*
X59733Y-53240D02*
X59164Y-53240D01*
X59164Y-52871D01*
X59733Y-52871D01*
X59733Y-53240D01*
X59733Y-53240D01*
G37*
G36*
X60079Y-60433D02*
X59093Y-60433D01*
X59093Y-60086D01*
X59093Y-60071D01*
X59093Y-60007D01*
X59093Y-59992D01*
X59093Y-59692D01*
X59093Y-59677D01*
X59093Y-59613D01*
X59093Y-59598D01*
X59093Y-59299D01*
X59093Y-59283D01*
X59093Y-59220D01*
X59093Y-59204D01*
X59093Y-58857D01*
X60079Y-58857D01*
X60079Y-59204D01*
X60079Y-59220D01*
X60079Y-59283D01*
X60079Y-59299D01*
X60079Y-59598D01*
X60079Y-59613D01*
X60079Y-59677D01*
X60079Y-59692D01*
X60079Y-59992D01*
X60079Y-60007D01*
X60079Y-60071D01*
X60079Y-60086D01*
X60079Y-60433D01*
X60079Y-60433D01*
G37*
G36*
X60099Y-63878D02*
X60097Y-63900D01*
X60091Y-63921D01*
X60080Y-63940D01*
X60066Y-63957D01*
X60049Y-63971D01*
X60030Y-63981D01*
X60009Y-63988D01*
X59979Y-63990D01*
X59765Y-63990D01*
X59750Y-63990D01*
X59736Y-63996D01*
X59725Y-64007D01*
X59719Y-64021D01*
X59719Y-64037D01*
X59719Y-64251D01*
X59719Y-64253D01*
X59718Y-64260D01*
X59718Y-64260D01*
X59716Y-64282D01*
X59716Y-64282D01*
X59715Y-64283D01*
X59709Y-64303D01*
X59698Y-64323D01*
X59685Y-64339D01*
X59667Y-64353D01*
X59648Y-64363D01*
X59627Y-64369D01*
X59605Y-64371D01*
X59583Y-64369D01*
X59563Y-64362D01*
X59543Y-64352D01*
X59539Y-64348D01*
X59525Y-64343D01*
X59509Y-64343D01*
X59495Y-64348D01*
X59490Y-64353D01*
X59471Y-64363D01*
X59449Y-64369D01*
X59428Y-64371D01*
X59406Y-64369D01*
X59385Y-64362D01*
X59366Y-64352D01*
X59362Y-64348D01*
X59348Y-64343D01*
X59332Y-64343D01*
X59318Y-64348D01*
X59313Y-64353D01*
X59294Y-64363D01*
X59272Y-64369D01*
X59251Y-64371D01*
X59229Y-64369D01*
X59208Y-64362D01*
X59189Y-64352D01*
X59185Y-64348D01*
X59170Y-64343D01*
X59155Y-64343D01*
X59141Y-64348D01*
X59135Y-64353D01*
X59117Y-64363D01*
X59095Y-64369D01*
X59074Y-64371D01*
X59052Y-64369D01*
X59031Y-64362D01*
X59011Y-64352D01*
X59007Y-64348D01*
X58993Y-64343D01*
X58978Y-64343D01*
X58964Y-64348D01*
X58958Y-64353D01*
X58939Y-64363D01*
X58918Y-64369D01*
X58897Y-64371D01*
X58874Y-64369D01*
X58854Y-64362D01*
X58834Y-64352D01*
X58818Y-64338D01*
X58804Y-64321D01*
X58793Y-64302D01*
X58787Y-64281D01*
X58784Y-64251D01*
X58784Y-64037D01*
X58784Y-64021D01*
X58778Y-64007D01*
X58767Y-63996D01*
X58753Y-63990D01*
X58738Y-63990D01*
X58494Y-63990D01*
X58492Y-63990D01*
X58485Y-63990D01*
X58485Y-63990D01*
X58463Y-63987D01*
X58463Y-63987D01*
X58462Y-63987D01*
X58443Y-63981D01*
X58422Y-63970D01*
X58406Y-63956D01*
X58392Y-63939D01*
X58382Y-63920D01*
X58376Y-63898D01*
X58374Y-63877D01*
X58376Y-63855D01*
X58383Y-63834D01*
X58393Y-63815D01*
X58411Y-63794D01*
X58414Y-63790D01*
X58420Y-63776D01*
X58420Y-63761D01*
X58414Y-63747D01*
X58412Y-63743D01*
X58406Y-63721D01*
X58404Y-63700D01*
X58406Y-63677D01*
X58412Y-63657D01*
X58423Y-63637D01*
X58426Y-63633D01*
X58432Y-63619D01*
X58432Y-63604D01*
X58426Y-63590D01*
X58422Y-63584D01*
X58412Y-63565D01*
X58406Y-63544D01*
X58404Y-63523D01*
X58406Y-63500D01*
X58412Y-63480D01*
X58423Y-63460D01*
X58426Y-63456D01*
X58432Y-63442D01*
X58432Y-63427D01*
X58426Y-63413D01*
X58422Y-63407D01*
X58412Y-63388D01*
X58406Y-63367D01*
X58404Y-63345D01*
X58406Y-63323D01*
X58412Y-63303D01*
X58414Y-63299D01*
X58420Y-63285D01*
X58420Y-63270D01*
X58414Y-63256D01*
X58409Y-63250D01*
X58392Y-63230D01*
X58382Y-63211D01*
X58376Y-63190D01*
X58374Y-63168D01*
X58376Y-63146D01*
X58383Y-63125D01*
X58393Y-63106D01*
X58407Y-63089D01*
X58424Y-63075D01*
X58443Y-63065D01*
X58465Y-63059D01*
X58494Y-63056D01*
X58738Y-63056D01*
X58753Y-63056D01*
X58767Y-63050D01*
X58778Y-63039D01*
X58784Y-63025D01*
X58784Y-63010D01*
X58784Y-62766D01*
X58784Y-62763D01*
X58785Y-62757D01*
X58785Y-62757D01*
X58787Y-62735D01*
X58787Y-62735D01*
X58787Y-62734D01*
X58794Y-62714D01*
X58805Y-62694D01*
X58818Y-62678D01*
X58836Y-62664D01*
X58855Y-62654D01*
X58876Y-62648D01*
X58898Y-62646D01*
X58920Y-62648D01*
X58940Y-62654D01*
X58960Y-62665D01*
X58981Y-62682D01*
X58984Y-62686D01*
X58998Y-62691D01*
X59014Y-62691D01*
X59028Y-62686D01*
X59032Y-62684D01*
X59054Y-62677D01*
X59075Y-62675D01*
X59097Y-62678D01*
X59118Y-62684D01*
X59137Y-62695D01*
X59141Y-62698D01*
X59155Y-62704D01*
X59171Y-62704D01*
X59185Y-62698D01*
X59190Y-62693D01*
X59209Y-62684D01*
X59231Y-62677D01*
X59252Y-62675D01*
X59274Y-62678D01*
X59295Y-62684D01*
X59314Y-62695D01*
X59318Y-62698D01*
X59332Y-62704D01*
X59348Y-62704D01*
X59362Y-62698D01*
X59368Y-62693D01*
X59386Y-62684D01*
X59408Y-62677D01*
X59429Y-62675D01*
X59451Y-62678D01*
X59472Y-62684D01*
X59475Y-62686D01*
X59489Y-62692D01*
X59505Y-62692D01*
X59519Y-62686D01*
X59524Y-62680D01*
X59545Y-62664D01*
X59563Y-62654D01*
X59585Y-62648D01*
X59606Y-62646D01*
X59629Y-62648D01*
X59649Y-62654D01*
X59669Y-62665D01*
X59685Y-62679D01*
X59699Y-62696D01*
X59710Y-62715D01*
X59716Y-62736D01*
X59719Y-62766D01*
X59719Y-63010D01*
X59719Y-63025D01*
X59725Y-63039D01*
X59736Y-63050D01*
X59750Y-63056D01*
X59765Y-63056D01*
X59979Y-63056D01*
X59982Y-63056D01*
X59988Y-63057D01*
X59989Y-63057D01*
X60010Y-63059D01*
X60010Y-63059D01*
X60011Y-63059D01*
X60031Y-63065D01*
X60051Y-63076D01*
X60067Y-63090D01*
X60081Y-63108D01*
X60091Y-63126D01*
X60097Y-63148D01*
X60099Y-63169D01*
X60097Y-63192D01*
X60091Y-63212D01*
X60080Y-63232D01*
X60077Y-63236D01*
X60071Y-63250D01*
X60071Y-63265D01*
X60077Y-63279D01*
X60081Y-63285D01*
X60091Y-63304D01*
X60097Y-63325D01*
X60099Y-63346D01*
X60097Y-63369D01*
X60091Y-63389D01*
X60080Y-63409D01*
X60077Y-63413D01*
X60071Y-63427D01*
X60071Y-63442D01*
X60077Y-63457D01*
X60081Y-63462D01*
X60091Y-63481D01*
X60097Y-63502D01*
X60099Y-63524D01*
X60097Y-63546D01*
X60091Y-63566D01*
X60080Y-63586D01*
X60077Y-63590D01*
X60071Y-63604D01*
X60071Y-63619D01*
X60077Y-63634D01*
X60081Y-63639D01*
X60091Y-63658D01*
X60097Y-63680D01*
X60099Y-63701D01*
X60097Y-63723D01*
X60091Y-63744D01*
X60080Y-63763D01*
X60077Y-63767D01*
X60071Y-63781D01*
X60071Y-63797D01*
X60077Y-63811D01*
X60081Y-63816D01*
X60091Y-63835D01*
X60097Y-63857D01*
X60099Y-63878D01*
X60099Y-63878D01*
G37*
G36*
X60829Y-61387D02*
X60460Y-61387D01*
X60460Y-60817D01*
X60829Y-60817D01*
X60829Y-61387D01*
X60829Y-61387D01*
G37*
G36*
X61420Y-62056D02*
X61050Y-62056D01*
X61050Y-61486D01*
X61420Y-61486D01*
X61420Y-62056D01*
X61420Y-62056D01*
G37*
G36*
X61429Y-61387D02*
X61060Y-61387D01*
X61060Y-60817D01*
X61429Y-60817D01*
X61429Y-61387D01*
X61429Y-61387D01*
G37*
G36*
X61695Y-64654D02*
X61326Y-64654D01*
X61326Y-64085D01*
X61695Y-64085D01*
X61695Y-64654D01*
X61695Y-64654D01*
G37*
G36*
X61695Y-65442D02*
X61326Y-65442D01*
X61326Y-64872D01*
X61695Y-64872D01*
X61695Y-65442D01*
X61695Y-65442D01*
G37*
G36*
X61695Y-66229D02*
X61326Y-66229D01*
X61326Y-65660D01*
X61695Y-65660D01*
X61695Y-66229D01*
X61695Y-66229D01*
G37*
G36*
X62020Y-62056D02*
X61650Y-62056D01*
X61650Y-61486D01*
X62020Y-61486D01*
X62020Y-62056D01*
X62020Y-62056D01*
G37*
G36*
X62295Y-64654D02*
X61926Y-64654D01*
X61926Y-64085D01*
X62295Y-64085D01*
X62295Y-64654D01*
X62295Y-64654D01*
G37*
G36*
X62295Y-65442D02*
X61926Y-65442D01*
X61926Y-64872D01*
X62295Y-64872D01*
X62295Y-65442D01*
X62295Y-65442D01*
G37*
G36*
X62295Y-66229D02*
X61926Y-66229D01*
X61926Y-65660D01*
X62295Y-65660D01*
X62295Y-66229D01*
X62295Y-66229D01*
G37*
G36*
X63235Y-62096D02*
X63233Y-62095D01*
X63218Y-62095D01*
X63080Y-62095D01*
X63065Y-62095D01*
X63051Y-62101D01*
X63040Y-62112D01*
X63034Y-62126D01*
X63034Y-62142D01*
X63034Y-62686D01*
X63021Y-62692D01*
X63010Y-62703D01*
X63004Y-62717D01*
X63004Y-62732D01*
X63004Y-63276D01*
X62696Y-63276D01*
X62681Y-63276D01*
X62666Y-63282D01*
X62656Y-63293D01*
X62650Y-63307D01*
X62650Y-63323D01*
X62650Y-63867D01*
X62280Y-63867D01*
X62280Y-63323D01*
X62280Y-63307D01*
X62274Y-63293D01*
X62263Y-63282D01*
X62249Y-63276D01*
X62234Y-63276D01*
X62096Y-63276D01*
X62081Y-63276D01*
X62066Y-63282D01*
X62056Y-63293D01*
X62050Y-63307D01*
X62050Y-63323D01*
X62050Y-63867D01*
X61680Y-63867D01*
X61680Y-63297D01*
X61988Y-63297D01*
X62003Y-63297D01*
X62018Y-63291D01*
X62028Y-63281D01*
X62034Y-63266D01*
X62034Y-63251D01*
X62034Y-62707D01*
X62404Y-62707D01*
X62404Y-63251D01*
X62404Y-63266D01*
X62410Y-63281D01*
X62421Y-63291D01*
X62435Y-63297D01*
X62450Y-63297D01*
X62588Y-63297D01*
X62603Y-63297D01*
X62618Y-63291D01*
X62628Y-63281D01*
X62634Y-63266D01*
X62634Y-63251D01*
X62634Y-62706D01*
X62648Y-62701D01*
X62658Y-62690D01*
X62664Y-62676D01*
X62664Y-62661D01*
X62664Y-62116D01*
X62815Y-62116D01*
X62830Y-62116D01*
X62844Y-62110D01*
X62855Y-62100D01*
X62861Y-62085D01*
X62861Y-62070D01*
X62861Y-61526D01*
X63231Y-61526D01*
X63231Y-62070D01*
X63231Y-62085D01*
X63235Y-62096D01*
X63235Y-62096D01*
G37*
G36*
X63831Y-62095D02*
X63680Y-62095D01*
X63665Y-62095D01*
X63651Y-62101D01*
X63640Y-62112D01*
X63634Y-62126D01*
X63634Y-62142D01*
X63634Y-62686D01*
X63264Y-62686D01*
X63264Y-62142D01*
X63264Y-62126D01*
X63260Y-62115D01*
X63262Y-62116D01*
X63277Y-62116D01*
X63415Y-62116D01*
X63430Y-62116D01*
X63444Y-62110D01*
X63455Y-62100D01*
X63461Y-62085D01*
X63461Y-62070D01*
X63461Y-61526D01*
X63831Y-61526D01*
X63831Y-62095D01*
X63831Y-62095D01*
G37*
G36*
X63939Y-57580D02*
X63933Y-57634D01*
X63917Y-57685D01*
X63892Y-57732D01*
X63858Y-57774D01*
X63816Y-57808D01*
X63768Y-57833D01*
X63717Y-57849D01*
X63656Y-57855D01*
X63312Y-57855D01*
X63307Y-57855D01*
X63301Y-57854D01*
X63301Y-57854D01*
X63247Y-57848D01*
X63247Y-57848D01*
X63246Y-57848D01*
X63196Y-57832D01*
X63148Y-57805D01*
X63108Y-57771D01*
X63073Y-57729D01*
X63049Y-57682D01*
X63033Y-57630D01*
X63029Y-57577D01*
X63034Y-57523D01*
X63050Y-57472D01*
X63076Y-57424D01*
X63110Y-57383D01*
X63152Y-57349D01*
X63199Y-57323D01*
X63251Y-57308D01*
X63312Y-57302D01*
X63656Y-57302D01*
X63660Y-57302D01*
X63667Y-57303D01*
X63667Y-57303D01*
X63720Y-57309D01*
X63721Y-57309D01*
X63721Y-57309D01*
X63771Y-57325D01*
X63819Y-57351D01*
X63860Y-57385D01*
X63894Y-57428D01*
X63919Y-57475D01*
X63934Y-57527D01*
X63939Y-57580D01*
X63939Y-57580D01*
G37*
G36*
X63939Y-59037D02*
X63933Y-59091D01*
X63917Y-59142D01*
X63892Y-59189D01*
X63858Y-59230D01*
X63816Y-59265D01*
X63768Y-59290D01*
X63717Y-59305D01*
X63656Y-59311D01*
X63312Y-59311D01*
X63307Y-59311D01*
X63301Y-59310D01*
X63301Y-59310D01*
X63247Y-59305D01*
X63247Y-59304D01*
X63246Y-59304D01*
X63196Y-59288D01*
X63148Y-59262D01*
X63108Y-59228D01*
X63073Y-59186D01*
X63049Y-59138D01*
X63033Y-59086D01*
X63029Y-59033D01*
X63034Y-58979D01*
X63050Y-58928D01*
X63076Y-58881D01*
X63110Y-58839D01*
X63152Y-58805D01*
X63199Y-58780D01*
X63251Y-58765D01*
X63312Y-58759D01*
X63656Y-58759D01*
X63660Y-58759D01*
X63667Y-58759D01*
X63667Y-58759D01*
X63720Y-58765D01*
X63721Y-58765D01*
X63721Y-58765D01*
X63771Y-58781D01*
X63819Y-58808D01*
X63860Y-58842D01*
X63894Y-58884D01*
X63919Y-58931D01*
X63934Y-58984D01*
X63939Y-59037D01*
X63939Y-59037D01*
G37*
G36*
X67264Y-58304D02*
X67263Y-58356D01*
X67251Y-58410D01*
X67233Y-58451D01*
X67200Y-58497D01*
X67168Y-58527D01*
X67121Y-58557D01*
X67079Y-58573D01*
X67024Y-58583D01*
X66980Y-58582D01*
X66925Y-58570D01*
X66884Y-58553D01*
X66838Y-58520D01*
X66808Y-58489D01*
X66777Y-58441D01*
X66761Y-58400D01*
X66751Y-58345D01*
X66751Y-58301D01*
X66763Y-58245D01*
X66780Y-58205D01*
X66812Y-58158D01*
X66843Y-58128D01*
X66891Y-58096D01*
X66931Y-58080D01*
X66988Y-58070D01*
X67031Y-58070D01*
X67087Y-58081D01*
X67127Y-58098D01*
X67174Y-58130D01*
X67205Y-58161D01*
X67237Y-58209D01*
X67253Y-58248D01*
X67264Y-58304D01*
X67264Y-58304D01*
G37*
G36*
X67353Y-63246D02*
X67347Y-63300D01*
X67331Y-63351D01*
X67305Y-63399D01*
X67271Y-63440D01*
X67229Y-63474D01*
X67182Y-63499D01*
X67130Y-63514D01*
X67077Y-63519D01*
X67023Y-63514D01*
X66972Y-63498D01*
X66924Y-63473D01*
X66883Y-63439D01*
X66848Y-63397D01*
X66649Y-63099D01*
X66646Y-63095D01*
X66622Y-63048D01*
X66607Y-62996D01*
X66602Y-62943D01*
X66608Y-62889D01*
X66624Y-62838D01*
X66650Y-62790D01*
X66684Y-62749D01*
X66726Y-62715D01*
X66773Y-62690D01*
X66825Y-62675D01*
X66878Y-62670D01*
X66932Y-62675D01*
X66984Y-62691D01*
X67031Y-62716D01*
X67073Y-62750D01*
X67107Y-62792D01*
X67107Y-62792D01*
X67107Y-62792D01*
X67306Y-63090D01*
X67306Y-63090D01*
X67306Y-63090D01*
X67309Y-63094D01*
X67333Y-63141D01*
X67348Y-63193D01*
X67353Y-63246D01*
X67353Y-63246D01*
G37*
G36*
X67353Y-53410D02*
X67348Y-53463D01*
X67332Y-53515D01*
X67306Y-53562D01*
X67306Y-53562D01*
X67306Y-53562D01*
X67107Y-53860D01*
X67107Y-53860D01*
X67107Y-53861D01*
X67104Y-53864D01*
X67070Y-53904D01*
X67027Y-53939D01*
X66980Y-53963D01*
X66928Y-53978D01*
X66875Y-53983D01*
X66821Y-53977D01*
X66770Y-53961D01*
X66723Y-53935D01*
X66682Y-53901D01*
X66647Y-53859D01*
X66623Y-53812D01*
X66607Y-53760D01*
X66602Y-53706D01*
X66608Y-53653D01*
X66623Y-53601D01*
X66649Y-53554D01*
X66848Y-53255D01*
X66851Y-53252D01*
X66885Y-53212D01*
X66928Y-53177D01*
X66975Y-53153D01*
X67027Y-53138D01*
X67080Y-53133D01*
X67134Y-53139D01*
X67185Y-53155D01*
X67233Y-53181D01*
X67273Y-53215D01*
X67308Y-53257D01*
X67333Y-53305D01*
X67348Y-53356D01*
X67353Y-53410D01*
X67353Y-53410D01*
G37*
G36*
X68563Y-62436D02*
X68558Y-62490D01*
X68542Y-62541D01*
X68516Y-62589D01*
X68482Y-62629D01*
X68439Y-62664D01*
X68392Y-62688D01*
X68340Y-62704D01*
X68287Y-62709D01*
X68233Y-62703D01*
X68182Y-62688D01*
X68135Y-62662D01*
X68093Y-62628D01*
X68059Y-62587D01*
X67859Y-62288D01*
X67857Y-62285D01*
X67832Y-62238D01*
X67817Y-62185D01*
X67813Y-62132D01*
X67818Y-62078D01*
X67834Y-62028D01*
X67860Y-61980D01*
X67894Y-61939D01*
X67937Y-61905D01*
X67984Y-61880D01*
X68036Y-61864D01*
X68089Y-61859D01*
X68143Y-61865D01*
X68194Y-61881D01*
X68241Y-61906D01*
X68283Y-61940D01*
X68317Y-61982D01*
X68317Y-61982D01*
X68317Y-61982D01*
X68517Y-62280D01*
X68517Y-62280D01*
X68517Y-62280D01*
X68519Y-62284D01*
X68544Y-62331D01*
X68559Y-62383D01*
X68563Y-62436D01*
X68563Y-62436D01*
G37*
G36*
X68564Y-54220D02*
X68558Y-54274D01*
X68542Y-54325D01*
X68517Y-54373D01*
X68517Y-54373D01*
X68517Y-54373D01*
X68317Y-54671D01*
X68317Y-54671D01*
X68317Y-54671D01*
X68315Y-54675D01*
X68281Y-54715D01*
X68238Y-54749D01*
X68191Y-54773D01*
X68138Y-54789D01*
X68086Y-54793D01*
X68031Y-54787D01*
X67981Y-54771D01*
X67933Y-54745D01*
X67892Y-54711D01*
X67858Y-54669D01*
X67833Y-54622D01*
X67818Y-54570D01*
X67813Y-54517D01*
X67818Y-54463D01*
X67834Y-54412D01*
X67859Y-54364D01*
X68059Y-54066D01*
X68061Y-54062D01*
X68095Y-54022D01*
X68138Y-53988D01*
X68185Y-53963D01*
X68238Y-53948D01*
X68290Y-53944D01*
X68345Y-53949D01*
X68395Y-53965D01*
X68443Y-53991D01*
X68484Y-54025D01*
X68518Y-54068D01*
X68543Y-54115D01*
X68558Y-54167D01*
X68564Y-54220D01*
X68564Y-54220D01*
G37*
G36*
X69770Y-65565D02*
X69764Y-65619D01*
X69748Y-65670D01*
X69722Y-65717D01*
X69688Y-65758D01*
X69646Y-65792D01*
X69599Y-65817D01*
X69547Y-65833D01*
X69494Y-65838D01*
X69440Y-65832D01*
X69389Y-65817D01*
X69341Y-65791D01*
X69341Y-65791D01*
X69341Y-65791D01*
X69043Y-65592D01*
X69043Y-65592D01*
X69043Y-65592D01*
X69039Y-65589D01*
X68999Y-65555D01*
X68965Y-65512D01*
X68941Y-65465D01*
X68925Y-65413D01*
X68921Y-65360D01*
X68927Y-65306D01*
X68942Y-65255D01*
X68968Y-65207D01*
X69003Y-65166D01*
X69045Y-65132D01*
X69092Y-65107D01*
X69144Y-65092D01*
X69197Y-65087D01*
X69251Y-65092D01*
X69302Y-65108D01*
X69350Y-65134D01*
X69648Y-65333D01*
X69652Y-65336D01*
X69692Y-65370D01*
X69726Y-65413D01*
X69750Y-65459D01*
X69766Y-65512D01*
X69770Y-65565D01*
X69770Y-65565D01*
G37*
G36*
X69770Y-51091D02*
X69765Y-51145D01*
X69749Y-51196D01*
X69724Y-51244D01*
X69690Y-51285D01*
X69648Y-51319D01*
X69648Y-51319D01*
X69350Y-51519D01*
X69350Y-51519D01*
X69346Y-51521D01*
X69299Y-51546D01*
X69246Y-51561D01*
X69194Y-51566D01*
X69140Y-51560D01*
X69089Y-51544D01*
X69041Y-51518D01*
X69000Y-51484D01*
X68966Y-51442D01*
X68941Y-51394D01*
X68926Y-51342D01*
X68921Y-51289D01*
X68926Y-51235D01*
X68942Y-51184D01*
X68967Y-51137D01*
X69001Y-51095D01*
X69043Y-51061D01*
X69341Y-50861D01*
X69345Y-50859D01*
X69392Y-50835D01*
X69444Y-50819D01*
X69497Y-50815D01*
X69551Y-50821D01*
X69602Y-50836D01*
X69650Y-50862D01*
X69691Y-50897D01*
X69725Y-50939D01*
X69750Y-50986D01*
X69765Y-51038D01*
X69770Y-51091D01*
X69770Y-51091D01*
G37*
G36*
X70581Y-64354D02*
X70575Y-64409D01*
X70559Y-64459D01*
X70533Y-64507D01*
X70499Y-64548D01*
X70456Y-64582D01*
X70409Y-64607D01*
X70357Y-64622D01*
X70304Y-64627D01*
X70250Y-64622D01*
X70199Y-64606D01*
X70152Y-64581D01*
X70152Y-64581D01*
X70152Y-64581D01*
X69853Y-64381D01*
X69853Y-64381D01*
X69853Y-64381D01*
X69850Y-64379D01*
X69809Y-64345D01*
X69775Y-64302D01*
X69751Y-64255D01*
X69736Y-64202D01*
X69731Y-64150D01*
X69737Y-64095D01*
X69753Y-64045D01*
X69779Y-63997D01*
X69813Y-63956D01*
X69855Y-63922D01*
X69902Y-63897D01*
X69954Y-63881D01*
X70007Y-63876D01*
X70061Y-63882D01*
X70112Y-63898D01*
X70160Y-63923D01*
X70458Y-64123D01*
X70462Y-64125D01*
X70502Y-64159D01*
X70536Y-64202D01*
X70561Y-64249D01*
X70576Y-64302D01*
X70581Y-64354D01*
X70581Y-64354D01*
G37*
G36*
X70581Y-52302D02*
X70575Y-52355D01*
X70559Y-52407D01*
X70534Y-52454D01*
X70500Y-52496D01*
X70458Y-52530D01*
X70458Y-52530D01*
X70160Y-52729D01*
X70160Y-52730D01*
X70156Y-52732D01*
X70109Y-52756D01*
X70057Y-52771D01*
X70004Y-52776D01*
X69950Y-52770D01*
X69899Y-52754D01*
X69851Y-52728D01*
X69811Y-52694D01*
X69776Y-52652D01*
X69751Y-52605D01*
X69736Y-52553D01*
X69731Y-52500D01*
X69736Y-52446D01*
X69752Y-52395D01*
X69778Y-52347D01*
X69812Y-52306D01*
X69853Y-52272D01*
X70152Y-52072D01*
X70155Y-52069D01*
X70202Y-52045D01*
X70255Y-52030D01*
X70307Y-52025D01*
X70362Y-52031D01*
X70412Y-52047D01*
X70460Y-52073D01*
X70501Y-52107D01*
X70535Y-52149D01*
X70560Y-52196D01*
X70576Y-52248D01*
X70581Y-52302D01*
X70581Y-52302D01*
G37*
G36*
X78496Y-52503D02*
X78490Y-52557D01*
X78475Y-52608D01*
X78449Y-52656D01*
X78414Y-52697D01*
X78372Y-52731D01*
X78325Y-52756D01*
X78273Y-52771D01*
X78220Y-52776D01*
X78166Y-52771D01*
X78115Y-52755D01*
X78067Y-52730D01*
X78067Y-52729D01*
X78067Y-52729D01*
X77769Y-52530D01*
X77769Y-52530D01*
X77769Y-52530D01*
X77765Y-52527D01*
X77725Y-52493D01*
X77691Y-52450D01*
X77667Y-52404D01*
X77651Y-52351D01*
X77647Y-52298D01*
X77653Y-52244D01*
X77669Y-52193D01*
X77695Y-52146D01*
X77729Y-52105D01*
X77771Y-52071D01*
X77818Y-52046D01*
X77870Y-52030D01*
X77923Y-52025D01*
X77977Y-52031D01*
X78028Y-52046D01*
X78076Y-52072D01*
X78374Y-52272D01*
X78378Y-52274D01*
X78418Y-52308D01*
X78452Y-52351D01*
X78476Y-52398D01*
X78492Y-52450D01*
X78496Y-52503D01*
X78496Y-52503D01*
G37*
G36*
X78496Y-64153D02*
X78491Y-64207D01*
X78475Y-64258D01*
X78450Y-64305D01*
X78416Y-64347D01*
X78374Y-64381D01*
X78374Y-64381D01*
X78076Y-64581D01*
X78076Y-64581D01*
X78072Y-64583D01*
X78025Y-64608D01*
X77973Y-64623D01*
X77920Y-64627D01*
X77866Y-64621D01*
X77815Y-64606D01*
X77767Y-64580D01*
X77726Y-64546D01*
X77692Y-64503D01*
X77667Y-64456D01*
X77652Y-64404D01*
X77647Y-64351D01*
X77652Y-64297D01*
X77668Y-64246D01*
X77693Y-64198D01*
X77727Y-64157D01*
X77769Y-64123D01*
X78067Y-63923D01*
X78071Y-63921D01*
X78118Y-63896D01*
X78171Y-63881D01*
X78223Y-63876D01*
X78277Y-63882D01*
X78328Y-63898D01*
X78376Y-63924D01*
X78417Y-63958D01*
X78451Y-64001D01*
X78476Y-64048D01*
X78491Y-64100D01*
X78496Y-64153D01*
X78496Y-64153D01*
G37*
G36*
X79307Y-51292D02*
X79301Y-51347D01*
X79285Y-51397D01*
X79259Y-51445D01*
X79225Y-51486D01*
X79183Y-51520D01*
X79135Y-51545D01*
X79084Y-51561D01*
X79030Y-51566D01*
X78977Y-51560D01*
X78925Y-51544D01*
X78878Y-51519D01*
X78878Y-51519D01*
X78878Y-51519D01*
X78580Y-51319D01*
X78580Y-51319D01*
X78579Y-51319D01*
X78576Y-51317D01*
X78536Y-51283D01*
X78501Y-51240D01*
X78477Y-51193D01*
X78462Y-51141D01*
X78457Y-51088D01*
X78463Y-51034D01*
X78479Y-50983D01*
X78505Y-50935D01*
X78539Y-50894D01*
X78581Y-50860D01*
X78628Y-50835D01*
X78680Y-50820D01*
X78734Y-50815D01*
X78787Y-50820D01*
X78839Y-50836D01*
X78886Y-50861D01*
X79184Y-51061D01*
X79188Y-51064D01*
X79228Y-51097D01*
X79263Y-51140D01*
X79287Y-51187D01*
X79302Y-51240D01*
X79307Y-51292D01*
X79307Y-51292D01*
G37*
G36*
X79307Y-65363D02*
X79301Y-65417D01*
X79286Y-65468D01*
X79260Y-65516D01*
X79226Y-65557D01*
X79184Y-65592D01*
X79184Y-65592D01*
X78886Y-65791D01*
X78886Y-65791D01*
X78882Y-65794D01*
X78836Y-65818D01*
X78783Y-65833D01*
X78730Y-65838D01*
X78676Y-65832D01*
X78625Y-65816D01*
X78578Y-65790D01*
X78537Y-65756D01*
X78503Y-65714D01*
X78478Y-65667D01*
X78462Y-65615D01*
X78457Y-65561D01*
X78463Y-65508D01*
X78478Y-65456D01*
X78504Y-65409D01*
X78538Y-65367D01*
X78579Y-65333D01*
X78878Y-65134D01*
X78881Y-65131D01*
X78928Y-65107D01*
X78981Y-65092D01*
X79034Y-65087D01*
X79088Y-65093D01*
X79138Y-65109D01*
X79186Y-65135D01*
X79227Y-65169D01*
X79261Y-65211D01*
X79286Y-65258D01*
X79302Y-65310D01*
X79307Y-65363D01*
X79307Y-65363D01*
G37*
G36*
X80415Y-54520D02*
X80409Y-54574D01*
X80393Y-54625D01*
X80367Y-54673D01*
X80333Y-54714D01*
X80291Y-54748D01*
X80244Y-54773D01*
X80192Y-54788D01*
X80138Y-54793D01*
X80085Y-54788D01*
X80033Y-54772D01*
X79986Y-54747D01*
X79944Y-54712D01*
X79910Y-54671D01*
X79710Y-54373D01*
X79708Y-54369D01*
X79684Y-54322D01*
X79668Y-54269D01*
X79664Y-54217D01*
X79670Y-54162D01*
X79686Y-54112D01*
X79712Y-54064D01*
X79746Y-54023D01*
X79788Y-53989D01*
X79835Y-53964D01*
X79887Y-53949D01*
X79940Y-53944D01*
X79994Y-53949D01*
X80045Y-53965D01*
X80093Y-53990D01*
X80134Y-54024D01*
X80168Y-54066D01*
X80169Y-54066D01*
X80169Y-54066D01*
X80368Y-54364D01*
X80368Y-54364D01*
X80368Y-54364D01*
X80371Y-54368D01*
X80395Y-54415D01*
X80410Y-54467D01*
X80415Y-54520D01*
X80415Y-54520D01*
G37*
G36*
X80417Y-62135D02*
X80411Y-62189D01*
X80395Y-62240D01*
X80370Y-62287D01*
X80370Y-62287D01*
X80370Y-62287D01*
X80169Y-62585D01*
X80169Y-62585D01*
X80169Y-62585D01*
X80166Y-62589D01*
X80132Y-62629D01*
X80132Y-62629D01*
X80132Y-62629D01*
X80090Y-62662D01*
X80090Y-62662D01*
X80089Y-62663D01*
X80042Y-62687D01*
X79990Y-62702D01*
X79937Y-62706D01*
X79883Y-62700D01*
X79832Y-62684D01*
X79784Y-62658D01*
X79744Y-62624D01*
X79710Y-62581D01*
X79685Y-62534D01*
X79670Y-62482D01*
X79665Y-62429D01*
X79670Y-62375D01*
X79686Y-62324D01*
X79712Y-62277D01*
X79913Y-61979D01*
X79915Y-61975D01*
X79949Y-61935D01*
X79957Y-61929D01*
X79992Y-61902D01*
X79992Y-61902D01*
X79992Y-61901D01*
X80039Y-61877D01*
X80092Y-61862D01*
X80144Y-61858D01*
X80199Y-61864D01*
X80249Y-61880D01*
X80297Y-61906D01*
X80338Y-61940D01*
X80372Y-61983D01*
X80397Y-62030D01*
X80412Y-62082D01*
X80417Y-62135D01*
X80417Y-62135D01*
G37*
G36*
X81624Y-62949D02*
X81619Y-63003D01*
X81603Y-63054D01*
X81577Y-63102D01*
X81577Y-63102D01*
X81577Y-63102D01*
X81377Y-63399D01*
X81377Y-63399D01*
X81376Y-63400D01*
X81374Y-63403D01*
X81340Y-63443D01*
X81340Y-63443D01*
X81340Y-63444D01*
X81297Y-63477D01*
X81297Y-63477D01*
X81297Y-63477D01*
X81250Y-63501D01*
X81197Y-63517D01*
X81145Y-63521D01*
X81090Y-63515D01*
X81040Y-63499D01*
X80992Y-63473D01*
X80951Y-63439D01*
X80917Y-63396D01*
X80893Y-63349D01*
X80877Y-63297D01*
X80872Y-63244D01*
X80878Y-63190D01*
X80894Y-63139D01*
X80920Y-63091D01*
X81120Y-62793D01*
X81123Y-62790D01*
X81157Y-62750D01*
X81165Y-62744D01*
X81199Y-62716D01*
X81199Y-62716D01*
X81200Y-62716D01*
X81247Y-62692D01*
X81300Y-62677D01*
X81352Y-62672D01*
X81407Y-62678D01*
X81457Y-62694D01*
X81505Y-62721D01*
X81545Y-62755D01*
X81580Y-62797D01*
X81604Y-62844D01*
X81620Y-62896D01*
X81624Y-62949D01*
X81624Y-62949D01*
G37*
G36*
X81625Y-53710D02*
X81619Y-53764D01*
X81604Y-53815D01*
X81577Y-53862D01*
X81543Y-53903D01*
X81501Y-53937D01*
X81454Y-53962D01*
X81402Y-53978D01*
X81349Y-53983D01*
X81295Y-53977D01*
X81244Y-53962D01*
X81196Y-53936D01*
X81155Y-53902D01*
X81121Y-53861D01*
X80921Y-53562D01*
X80919Y-53558D01*
X80894Y-53512D01*
X80879Y-53459D01*
X80874Y-53406D01*
X80880Y-53352D01*
X80896Y-53301D01*
X80922Y-53254D01*
X80956Y-53213D01*
X80998Y-53179D01*
X81046Y-53154D01*
X81098Y-53138D01*
X81151Y-53133D01*
X81204Y-53139D01*
X81256Y-53154D01*
X81303Y-53180D01*
X81345Y-53214D01*
X81379Y-53255D01*
X81379Y-53256D01*
X81379Y-53256D01*
X81579Y-53554D01*
X81579Y-53554D01*
X81579Y-53554D01*
X81581Y-53558D01*
X81605Y-53604D01*
X81621Y-53657D01*
X81625Y-53710D01*
X81625Y-53710D01*
G37*
G36*
X85199Y-57580D02*
X85193Y-57634D01*
X85177Y-57685D01*
X85152Y-57732D01*
X85117Y-57774D01*
X85076Y-57808D01*
X85028Y-57833D01*
X84977Y-57849D01*
X84915Y-57855D01*
X84572Y-57855D01*
X84567Y-57855D01*
X84561Y-57854D01*
X84560Y-57854D01*
X84507Y-57848D01*
X84507Y-57848D01*
X84506Y-57848D01*
X84456Y-57832D01*
X84408Y-57805D01*
X84367Y-57771D01*
X84333Y-57729D01*
X84309Y-57682D01*
X84293Y-57630D01*
X84288Y-57577D01*
X84294Y-57523D01*
X84310Y-57472D01*
X84336Y-57424D01*
X84370Y-57383D01*
X84412Y-57349D01*
X84459Y-57323D01*
X84511Y-57308D01*
X84572Y-57302D01*
X84915Y-57302D01*
X84920Y-57302D01*
X84927Y-57303D01*
X84927Y-57303D01*
X84980Y-57309D01*
X84980Y-57309D01*
X84981Y-57309D01*
X85031Y-57325D01*
X85079Y-57351D01*
X85120Y-57385D01*
X85154Y-57428D01*
X85179Y-57475D01*
X85194Y-57527D01*
X85199Y-57580D01*
X85199Y-57580D01*
G37*
G36*
X85199Y-59037D02*
X85193Y-59091D01*
X85177Y-59142D01*
X85152Y-59189D01*
X85117Y-59230D01*
X85076Y-59265D01*
X85028Y-59290D01*
X84977Y-59305D01*
X84915Y-59311D01*
X84572Y-59311D01*
X84567Y-59311D01*
X84561Y-59310D01*
X84560Y-59310D01*
X84507Y-59305D01*
X84507Y-59304D01*
X84506Y-59304D01*
X84456Y-59288D01*
X84408Y-59262D01*
X84367Y-59228D01*
X84333Y-59186D01*
X84309Y-59138D01*
X84293Y-59086D01*
X84288Y-59033D01*
X84294Y-58979D01*
X84310Y-58928D01*
X84336Y-58881D01*
X84370Y-58839D01*
X84412Y-58805D01*
X84459Y-58780D01*
X84511Y-58765D01*
X84572Y-58759D01*
X84915Y-58759D01*
X84920Y-58759D01*
X84927Y-58759D01*
X84927Y-58759D01*
X84980Y-58765D01*
X84980Y-58765D01*
X84981Y-58765D01*
X85031Y-58781D01*
X85079Y-58808D01*
X85120Y-58842D01*
X85154Y-58884D01*
X85179Y-58931D01*
X85194Y-58984D01*
X85199Y-59037D01*
X85199Y-59037D01*
G37*
M02*
