G04 (created by PCBNEW (2013-07-07 BZR 4022)-stable) date 06/05/2014 22:12:36*
%MOIN*%
G04 Gerber Fmt 3.4, Leading zero omitted, Abs format*
%FSLAX34Y34*%
G01*
G70*
G90*
G04 APERTURE LIST*
%ADD10C,0.00590551*%
%ADD11C,0.000393701*%
%ADD12C,0.220472*%
%ADD13C,0.11811*%
%ADD14R,0.0984252X0.0787402*%
%ADD15R,0.0531496X0.0177165*%
%ADD16O,0.0452756X0.0551181*%
%ADD17R,0.0669291X0.0669291*%
%ADD18R,0.0669291X0.0590551*%
%ADD19C,0.0787402*%
%ADD20C,0.0492126*%
%ADD21R,0.0866142X0.0275591*%
%ADD22R,0.15748X0.11811*%
%ADD23C,0.0275591*%
%ADD24C,0.015748*%
%ADD25C,0.019685*%
%ADD26C,0.0275591*%
%ADD27C,0.011811*%
G04 APERTURE END LIST*
G54D10*
G54D11*
X42173Y-51606D02*
X42173Y-27590D01*
X42173Y-27590D02*
G75*
G02X42685Y-27078I511J0D01*
G74*
G01*
X45716Y-52511D02*
X45716Y-53574D01*
X42685Y-52118D02*
X45322Y-52118D01*
X67645Y-27078D02*
X42685Y-27078D01*
X68157Y-34677D02*
X68157Y-27590D01*
X59889Y-35188D02*
X67645Y-35188D01*
X59496Y-49913D02*
X59496Y-35582D01*
X64102Y-50307D02*
X59889Y-50307D01*
X64614Y-53574D02*
X64614Y-50818D01*
X46228Y-54086D02*
X64102Y-54086D01*
X45322Y-52118D02*
G75*
G02X45716Y-52511I0J-393D01*
G74*
G01*
X42685Y-52118D02*
G75*
G02X42173Y-51606I0J511D01*
G74*
G01*
X67645Y-27078D02*
G75*
G02X68157Y-27590I0J-511D01*
G74*
G01*
X68157Y-34678D02*
G75*
G02X67645Y-35188I-511J0D01*
G74*
G01*
X59496Y-35581D02*
G75*
G02X59889Y-35188I393J0D01*
G74*
G01*
X59889Y-50307D02*
G75*
G02X59496Y-49913I0J393D01*
G74*
G01*
X64103Y-50307D02*
G75*
G02X64614Y-50818I0J-511D01*
G74*
G01*
X64614Y-53575D02*
G75*
G02X64102Y-54086I-511J0D01*
G74*
G01*
X46227Y-54086D02*
G75*
G02X45716Y-53574I0J511D01*
G74*
G01*
G54D12*
X43354Y-50937D03*
X63433Y-52393D03*
X43354Y-28259D03*
X66976Y-33377D03*
G54D13*
X49905Y-30267D03*
X57905Y-47767D03*
G54D14*
X58649Y-39267D03*
X58649Y-40267D03*
X58649Y-41267D03*
X58649Y-42267D03*
X49161Y-39267D03*
X49161Y-40267D03*
X49161Y-41267D03*
X49161Y-42267D03*
X51641Y-37267D03*
X51641Y-36267D03*
G54D15*
X43767Y-39086D03*
X43767Y-39342D03*
X43767Y-39598D03*
X43767Y-39854D03*
X43767Y-40110D03*
G54D16*
X43767Y-38614D03*
X43767Y-40582D03*
G54D17*
X42704Y-38338D03*
X42704Y-40858D03*
G54D18*
X42704Y-39204D03*
X42704Y-39992D03*
G54D19*
X61602Y-51370D03*
X60602Y-53370D03*
X59602Y-51370D03*
X58602Y-53370D03*
X57602Y-51370D03*
X56602Y-53370D03*
X55602Y-51370D03*
X54602Y-53370D03*
G54D20*
X61602Y-52370D03*
X60602Y-52370D03*
X59602Y-52370D03*
X58602Y-52370D03*
X57602Y-52370D03*
X56602Y-52370D03*
X55602Y-52370D03*
X54602Y-52370D03*
G54D19*
X65202Y-32370D03*
X64202Y-34370D03*
X63202Y-32370D03*
X62202Y-34370D03*
X61202Y-32370D03*
X60202Y-34370D03*
X59202Y-32370D03*
X58202Y-34370D03*
X56202Y-34370D03*
G54D20*
X65202Y-33370D03*
X64202Y-33370D03*
X63202Y-33370D03*
X62202Y-33370D03*
X61202Y-33370D03*
X60202Y-33370D03*
X59202Y-33370D03*
X58202Y-33370D03*
X57202Y-33370D03*
X56202Y-33370D03*
G54D19*
X57202Y-32370D03*
X52602Y-51370D03*
X51602Y-53370D03*
X50602Y-51370D03*
X49602Y-53370D03*
X48602Y-51370D03*
X47602Y-53370D03*
G54D20*
X52602Y-52370D03*
X51602Y-52370D03*
X50602Y-52370D03*
X49602Y-52370D03*
X48602Y-52370D03*
X47602Y-52370D03*
G54D19*
X54602Y-32370D03*
X53602Y-34370D03*
X52602Y-32370D03*
X51602Y-34370D03*
X50602Y-32370D03*
X49602Y-34370D03*
X48602Y-32370D03*
X47602Y-34370D03*
G54D20*
X54602Y-33370D03*
X53602Y-33370D03*
X52602Y-33370D03*
X51602Y-33370D03*
X50602Y-33370D03*
X49602Y-33370D03*
X48602Y-33370D03*
X47602Y-33370D03*
G54D21*
X42921Y-46685D03*
X42921Y-47078D03*
X42921Y-47472D03*
X42921Y-47866D03*
X42921Y-48259D03*
X44574Y-47275D03*
X44574Y-47669D03*
X44574Y-46881D03*
X44574Y-48062D03*
G54D22*
X43748Y-45779D03*
X43748Y-49165D03*
G54D23*
X47795Y-36161D03*
X47066Y-36653D03*
X47066Y-36161D03*
X57224Y-30492D03*
X51476Y-42657D03*
X57480Y-50196D03*
X48740Y-28016D03*
X45196Y-43622D03*
X44685Y-43248D03*
X45314Y-46889D03*
X42637Y-46338D03*
X48444Y-38700D03*
X66141Y-31574D03*
X63602Y-31574D03*
X56240Y-45511D03*
X54960Y-44822D03*
X54133Y-36929D03*
X55846Y-41712D03*
X51476Y-42047D03*
X51574Y-43720D03*
X52952Y-40354D03*
X52500Y-44822D03*
X53110Y-44822D03*
X48129Y-29192D03*
X47007Y-43582D03*
X48779Y-44192D03*
X55807Y-39704D03*
X52007Y-40826D03*
X54271Y-40216D03*
X45669Y-44055D03*
X46279Y-43444D03*
X54704Y-40216D03*
X54370Y-35039D03*
X58700Y-30413D03*
X54114Y-35354D03*
X58405Y-30118D03*
X53543Y-35669D03*
X58129Y-30413D03*
X46692Y-46653D03*
X50452Y-37874D03*
X57696Y-42460D03*
X58681Y-35944D03*
X57106Y-35944D03*
X59153Y-38641D03*
X55137Y-40216D03*
X51751Y-46476D03*
X48267Y-43720D03*
X55177Y-37519D03*
X49822Y-44153D03*
X57145Y-34842D03*
X52598Y-48818D03*
X52913Y-48503D03*
X53858Y-48188D03*
X54173Y-47874D03*
X58366Y-37952D03*
X55413Y-38169D03*
X58011Y-43602D03*
X49625Y-35669D03*
X54133Y-35984D03*
X59507Y-30413D03*
X49783Y-35295D03*
X53543Y-36299D03*
X59881Y-30413D03*
X55137Y-37913D03*
X58366Y-37559D03*
X51909Y-41614D03*
X56141Y-44035D03*
X49842Y-40275D03*
X48267Y-41732D03*
X48464Y-39271D03*
X46299Y-47677D03*
X43700Y-47401D03*
X53228Y-47559D03*
X52598Y-40944D03*
X51161Y-41299D03*
X52578Y-44055D03*
X52283Y-47244D03*
X47047Y-37362D03*
X47066Y-35649D03*
X47519Y-44665D03*
X45452Y-38622D03*
X47322Y-40314D03*
X42874Y-44133D03*
X42874Y-43622D03*
X42893Y-42283D03*
X50314Y-43720D03*
X58779Y-42874D03*
X50019Y-38700D03*
X65098Y-30964D03*
X64665Y-30964D03*
X64114Y-30964D03*
X63681Y-30964D03*
X50964Y-36279D03*
X59094Y-30472D03*
X53543Y-37244D03*
X50216Y-27913D03*
X63011Y-29881D03*
X62657Y-29881D03*
X62283Y-29881D03*
X61870Y-30472D03*
X60964Y-30472D03*
X60374Y-30472D03*
X55925Y-29881D03*
X55551Y-29881D03*
X55177Y-29881D03*
X56437Y-30472D03*
X53700Y-28129D03*
X53228Y-28129D03*
X56594Y-32933D03*
X55314Y-32913D03*
X50708Y-31417D03*
X52736Y-30944D03*
X51279Y-29606D03*
X50787Y-29606D03*
X57421Y-43602D03*
X53110Y-43523D03*
X54763Y-43523D03*
X53110Y-41870D03*
X53937Y-42696D03*
X54763Y-41870D03*
X51594Y-40354D03*
X53267Y-40059D03*
X52736Y-39566D03*
X54980Y-38582D03*
X54370Y-38169D03*
X54960Y-46161D03*
X53110Y-46161D03*
X52500Y-46161D03*
X50118Y-42657D03*
X50118Y-42047D03*
X44744Y-37224D03*
X44744Y-38740D03*
X44311Y-39350D03*
G54D24*
X59114Y-52858D02*
X59114Y-51830D01*
X59114Y-51830D02*
X57480Y-50196D01*
X58602Y-53370D02*
X59114Y-52858D01*
G54D25*
X48740Y-28016D02*
X48740Y-28011D01*
X44685Y-43248D02*
X44685Y-43248D01*
G54D26*
X44574Y-46881D02*
X45307Y-46881D01*
X45307Y-46881D02*
X45314Y-46889D01*
X42921Y-46685D02*
X42637Y-46401D01*
X42637Y-46401D02*
X42637Y-46338D01*
G54D27*
X63202Y-32370D02*
X63202Y-30340D01*
X63405Y-29783D02*
X62500Y-28877D01*
X63405Y-30137D02*
X63405Y-29783D01*
X63202Y-30340D02*
X63405Y-30137D01*
X45885Y-39586D02*
X45885Y-43484D01*
X45885Y-39586D02*
X45807Y-39507D01*
X45807Y-39507D02*
X45807Y-31082D01*
X45807Y-31082D02*
X48011Y-28877D01*
X48011Y-28877D02*
X62500Y-28877D01*
X45885Y-43484D02*
X47381Y-44980D01*
X47381Y-44980D02*
X51889Y-44980D01*
X51889Y-44980D02*
X52125Y-44744D01*
X53110Y-44822D02*
X52814Y-44527D01*
X52814Y-44527D02*
X52342Y-44527D01*
X52342Y-44527D02*
X52125Y-44744D01*
X52125Y-44744D02*
X52125Y-44744D01*
X46043Y-31259D02*
X48110Y-29192D01*
X48110Y-29192D02*
X48129Y-29192D01*
X46515Y-39842D02*
X46515Y-43090D01*
X46515Y-43090D02*
X47007Y-43582D01*
X46515Y-39842D02*
X46043Y-39370D01*
X46043Y-39370D02*
X46043Y-31259D01*
X47874Y-41988D02*
X47874Y-42283D01*
X47874Y-42283D02*
X48779Y-43188D01*
X51877Y-37267D02*
X51688Y-37267D01*
X47874Y-38503D02*
X47874Y-41988D01*
X49114Y-37263D02*
X47874Y-38503D01*
X51692Y-37263D02*
X49114Y-37263D01*
X51688Y-37267D02*
X51692Y-37263D01*
X48779Y-43188D02*
X48779Y-44192D01*
X53129Y-39704D02*
X55807Y-39704D01*
X52007Y-40826D02*
X53129Y-39704D01*
X42921Y-47078D02*
X43433Y-47078D01*
X45236Y-45984D02*
X45236Y-44370D01*
X44645Y-46574D02*
X45236Y-45984D01*
X43937Y-46574D02*
X44645Y-46574D01*
X43433Y-47078D02*
X43937Y-46574D01*
X45511Y-43740D02*
X45807Y-43740D01*
X45236Y-44015D02*
X45511Y-43740D01*
X45236Y-44370D02*
X45236Y-44015D01*
X52795Y-41692D02*
X54271Y-40216D01*
X54271Y-40216D02*
X54271Y-40216D01*
X64842Y-34625D02*
X64842Y-33917D01*
X49775Y-32370D02*
X49094Y-33051D01*
X49094Y-33051D02*
X49094Y-33838D01*
X49094Y-33838D02*
X48877Y-34055D01*
X48877Y-34055D02*
X48877Y-34744D01*
X48877Y-34744D02*
X49114Y-34980D01*
X49114Y-34980D02*
X49429Y-34980D01*
X49429Y-34980D02*
X49429Y-34980D01*
X49429Y-34980D02*
X51909Y-34980D01*
X51909Y-34980D02*
X52362Y-34527D01*
X52362Y-34527D02*
X52362Y-34094D01*
X52362Y-34094D02*
X52106Y-33838D01*
X52106Y-33838D02*
X52106Y-32992D01*
X52106Y-32992D02*
X51929Y-32814D01*
X51929Y-32814D02*
X51929Y-31240D01*
X51929Y-31240D02*
X53582Y-29586D01*
X53582Y-29586D02*
X60629Y-29586D01*
X60629Y-29586D02*
X61417Y-30374D01*
X61417Y-30374D02*
X61417Y-31141D01*
X61417Y-31141D02*
X61909Y-31633D01*
X61909Y-31633D02*
X61909Y-32775D01*
X61909Y-32775D02*
X61712Y-32972D01*
X61712Y-32972D02*
X61712Y-33759D01*
X61712Y-33759D02*
X61496Y-33976D01*
X61496Y-33976D02*
X61496Y-34645D01*
X61496Y-34645D02*
X61791Y-34940D01*
X61791Y-34940D02*
X64527Y-34940D01*
X64527Y-34940D02*
X64842Y-34625D01*
X50602Y-32370D02*
X49775Y-32370D01*
X64704Y-32867D02*
X65202Y-32370D01*
X64704Y-33779D02*
X64704Y-32867D01*
X64842Y-33917D02*
X64704Y-33779D01*
X50602Y-32370D02*
X49984Y-31751D01*
X53425Y-44330D02*
X53405Y-44311D01*
X52007Y-44330D02*
X53425Y-44330D01*
X51712Y-44625D02*
X52007Y-44330D01*
X48543Y-44625D02*
X51712Y-44625D01*
X47775Y-43858D02*
X48543Y-44625D01*
X47775Y-43248D02*
X47775Y-43858D01*
X47007Y-42480D02*
X47775Y-43248D01*
X47007Y-39527D02*
X47007Y-42480D01*
X46515Y-39035D02*
X47007Y-39527D01*
X46515Y-33425D02*
X46515Y-39035D01*
X48188Y-31751D02*
X46515Y-33425D01*
X49984Y-31751D02*
X48188Y-31751D01*
X52795Y-43700D02*
X53405Y-44311D01*
X53405Y-44311D02*
X53503Y-44409D01*
X47440Y-45374D02*
X45807Y-43740D01*
X53011Y-45374D02*
X47440Y-45374D01*
X53503Y-44881D02*
X53011Y-45374D01*
X53503Y-44409D02*
X53503Y-44881D01*
X52795Y-41692D02*
X52795Y-43700D01*
X44574Y-47275D02*
X45480Y-47275D01*
X47055Y-45700D02*
X47421Y-45700D01*
X45480Y-47275D02*
X47055Y-45700D01*
X53346Y-29370D02*
X51043Y-31673D01*
X51043Y-31673D02*
X51043Y-31712D01*
X63307Y-34370D02*
X64202Y-34370D01*
X62716Y-33779D02*
X63307Y-34370D01*
X62716Y-32972D02*
X62716Y-33779D01*
X62460Y-32716D02*
X62716Y-32972D01*
X62460Y-30570D02*
X62460Y-32716D01*
X61259Y-29370D02*
X62460Y-30570D01*
X53346Y-29370D02*
X61259Y-29370D01*
X46279Y-43444D02*
X46751Y-43917D01*
X45775Y-44055D02*
X45669Y-44055D01*
X47421Y-45700D02*
X45775Y-44055D01*
X50551Y-34370D02*
X49602Y-34370D01*
X51102Y-33818D02*
X50551Y-34370D01*
X51102Y-33031D02*
X51102Y-33818D01*
X51318Y-32814D02*
X51102Y-33031D01*
X51318Y-31988D02*
X51318Y-32814D01*
X51043Y-31712D02*
X51318Y-31988D01*
X50413Y-31712D02*
X51043Y-31712D01*
X50236Y-31535D02*
X50413Y-31712D01*
X47893Y-31535D02*
X50236Y-31535D01*
X46279Y-33149D02*
X47893Y-31535D01*
X46279Y-39192D02*
X46279Y-33149D01*
X46771Y-39685D02*
X46279Y-39192D01*
X46771Y-42755D02*
X46771Y-39685D01*
X47322Y-43307D02*
X46771Y-42755D01*
X47322Y-43681D02*
X47322Y-43307D01*
X47086Y-43917D02*
X47322Y-43681D01*
X46751Y-43917D02*
X47086Y-43917D01*
X54704Y-40216D02*
X54704Y-41377D01*
X54704Y-41377D02*
X55078Y-41751D01*
X53059Y-45700D02*
X47421Y-45700D01*
X55078Y-43681D02*
X53059Y-45700D01*
X55078Y-41751D02*
X55078Y-43681D01*
X54370Y-35039D02*
X55098Y-34311D01*
X58700Y-30669D02*
X58700Y-30413D01*
X58149Y-31220D02*
X58700Y-30669D01*
X56594Y-31220D02*
X58149Y-31220D01*
X54960Y-32854D02*
X56594Y-31220D01*
X54960Y-33011D02*
X54960Y-32854D01*
X55098Y-33149D02*
X54960Y-33011D01*
X55098Y-34311D02*
X55098Y-33149D01*
X54114Y-35354D02*
X53956Y-35196D01*
X58405Y-30551D02*
X58405Y-30118D01*
X57952Y-31003D02*
X58405Y-30551D01*
X55019Y-31003D02*
X57952Y-31003D01*
X53818Y-32204D02*
X55019Y-31003D01*
X53818Y-32657D02*
X53818Y-32204D01*
X54114Y-32952D02*
X53818Y-32657D01*
X54114Y-33818D02*
X54114Y-32952D01*
X54330Y-34035D02*
X54114Y-33818D01*
X54330Y-34586D02*
X54330Y-34035D01*
X53956Y-34960D02*
X54330Y-34586D01*
X53956Y-35196D02*
X53956Y-34960D01*
X53454Y-32667D02*
X53454Y-32076D01*
X54744Y-30787D02*
X57755Y-30787D01*
X53454Y-32076D02*
X54744Y-30787D01*
X53543Y-35669D02*
X52814Y-34940D01*
X57755Y-30787D02*
X58129Y-30413D01*
X53090Y-33031D02*
X53454Y-32667D01*
X53090Y-33818D02*
X53090Y-33031D01*
X52814Y-34094D02*
X53090Y-33818D01*
X52814Y-34940D02*
X52814Y-34094D01*
G54D26*
X44574Y-47669D02*
X45677Y-47669D01*
X45677Y-47669D02*
X46692Y-46653D01*
X42921Y-47866D02*
X43826Y-47866D01*
X44023Y-47669D02*
X44574Y-47669D01*
X43826Y-47866D02*
X44023Y-47669D01*
G54D27*
X50452Y-37874D02*
X54685Y-37874D01*
X56202Y-34370D02*
X56202Y-36103D01*
X56202Y-36103D02*
X56850Y-36751D01*
X56850Y-36751D02*
X58267Y-36751D01*
X58267Y-36751D02*
X58700Y-37185D01*
X58700Y-37185D02*
X58700Y-38031D01*
X58700Y-38031D02*
X58484Y-38248D01*
X58484Y-38248D02*
X56299Y-38248D01*
X56299Y-38248D02*
X55964Y-38582D01*
X55964Y-38582D02*
X55393Y-38582D01*
X55393Y-38582D02*
X54685Y-37874D01*
X54685Y-37874D02*
X54685Y-37874D01*
X54685Y-37874D02*
X54685Y-37874D01*
X58094Y-39267D02*
X58649Y-39267D01*
X57696Y-39665D02*
X58094Y-39267D01*
X57696Y-42460D02*
X57696Y-39665D01*
X57106Y-35944D02*
X58681Y-35944D01*
X59153Y-38763D02*
X59153Y-38641D01*
X58649Y-39267D02*
X59153Y-38763D01*
X55137Y-40216D02*
X54940Y-40413D01*
X54940Y-40413D02*
X54940Y-41299D01*
X54940Y-41299D02*
X55314Y-41673D01*
X55314Y-41673D02*
X55314Y-43816D01*
X55314Y-43816D02*
X53444Y-45686D01*
X53444Y-45686D02*
X53444Y-46279D01*
X53444Y-46279D02*
X53248Y-46476D01*
X53248Y-46476D02*
X51751Y-46476D01*
X47618Y-34370D02*
X47602Y-34370D01*
X46751Y-35236D02*
X47618Y-34370D01*
X46751Y-38858D02*
X46751Y-35236D01*
X47637Y-39744D02*
X46751Y-38858D01*
X47637Y-42539D02*
X47637Y-39744D01*
X48267Y-43169D02*
X47637Y-42539D01*
X48267Y-43720D02*
X48267Y-43169D01*
X48789Y-36309D02*
X50344Y-36309D01*
X52814Y-36200D02*
X52814Y-36948D01*
X52303Y-35688D02*
X52814Y-36200D01*
X50964Y-35688D02*
X52303Y-35688D01*
X50344Y-36309D02*
X50964Y-35688D01*
X55177Y-37519D02*
X53385Y-37519D01*
X53385Y-37519D02*
X52814Y-36948D01*
X48110Y-32862D02*
X48602Y-32370D01*
X48110Y-33759D02*
X48110Y-32862D01*
X48464Y-34114D02*
X48110Y-33759D01*
X48464Y-35984D02*
X48464Y-34114D01*
X48789Y-36309D02*
X48464Y-35984D01*
X51968Y-38897D02*
X51397Y-38326D01*
X48472Y-41267D02*
X49515Y-41267D01*
X48110Y-40905D02*
X48472Y-41267D01*
X48110Y-38602D02*
X48110Y-40905D01*
X48385Y-38326D02*
X48110Y-38602D01*
X51397Y-38326D02*
X48385Y-38326D01*
X51968Y-38897D02*
X56377Y-38897D01*
X57598Y-35295D02*
X57145Y-34842D01*
X58484Y-35295D02*
X57598Y-35295D01*
X58976Y-35787D02*
X58484Y-35295D01*
X58976Y-38070D02*
X58976Y-35787D01*
X58582Y-38464D02*
X58976Y-38070D01*
X56811Y-38464D02*
X58582Y-38464D01*
X56377Y-38897D02*
X56811Y-38464D01*
X49515Y-41267D02*
X49822Y-41574D01*
X49822Y-44153D02*
X49822Y-41574D01*
X49822Y-44153D02*
X49822Y-44153D01*
X52598Y-48818D02*
X52598Y-51366D01*
X52598Y-51366D02*
X52602Y-51370D01*
X52106Y-52866D02*
X51602Y-53370D01*
X52106Y-52027D02*
X52106Y-52866D01*
X51948Y-51870D02*
X52106Y-52027D01*
X51948Y-48877D02*
X51948Y-51870D01*
X52322Y-48503D02*
X51948Y-48877D01*
X52913Y-48503D02*
X52322Y-48503D01*
X51783Y-48188D02*
X48602Y-51370D01*
X53858Y-48188D02*
X51783Y-48188D01*
X47125Y-52893D02*
X47602Y-53370D01*
X47125Y-51968D02*
X47125Y-52893D01*
X51220Y-47874D02*
X47125Y-51968D01*
X54173Y-47874D02*
X51220Y-47874D01*
X58649Y-40267D02*
X58236Y-40267D01*
X57992Y-43582D02*
X58011Y-43602D01*
X57992Y-40511D02*
X57992Y-43582D01*
X58236Y-40267D02*
X57992Y-40511D01*
X55413Y-38169D02*
X55610Y-38169D01*
X55610Y-38169D02*
X55826Y-37952D01*
X55826Y-37952D02*
X58366Y-37952D01*
X58011Y-43602D02*
X58011Y-43602D01*
X49625Y-35669D02*
X50019Y-35669D01*
X53444Y-35984D02*
X54133Y-35984D01*
X52677Y-35216D02*
X53444Y-35984D01*
X50472Y-35216D02*
X52677Y-35216D01*
X50019Y-35669D02*
X50472Y-35216D01*
X54133Y-35984D02*
X55334Y-34783D01*
X59507Y-30511D02*
X59507Y-30413D01*
X58582Y-31437D02*
X59507Y-30511D01*
X56751Y-31437D02*
X58582Y-31437D01*
X55610Y-32578D02*
X56751Y-31437D01*
X55610Y-33031D02*
X55610Y-32578D01*
X55334Y-33307D02*
X55610Y-33031D01*
X55334Y-34783D02*
X55334Y-33307D01*
X49399Y-35305D02*
X49773Y-35305D01*
X49773Y-35305D02*
X49783Y-35295D01*
X53444Y-36299D02*
X52598Y-35452D01*
X52598Y-35452D02*
X50728Y-35452D01*
X50728Y-35452D02*
X50216Y-35964D01*
X50216Y-35964D02*
X49389Y-35964D01*
X49389Y-35964D02*
X49251Y-35826D01*
X49251Y-35826D02*
X49251Y-35452D01*
X49251Y-35452D02*
X49399Y-35305D01*
X53543Y-36299D02*
X53444Y-36299D01*
X58690Y-31663D02*
X56919Y-31663D01*
X55570Y-35000D02*
X54271Y-36299D01*
X55570Y-33366D02*
X55570Y-35000D01*
X55826Y-33110D02*
X55570Y-33366D01*
X55826Y-32755D02*
X55826Y-33110D01*
X56919Y-31663D02*
X55826Y-32755D01*
X53543Y-36299D02*
X54271Y-36299D01*
X59881Y-30472D02*
X59881Y-30413D01*
X58700Y-31653D02*
X59881Y-30472D01*
X58700Y-31653D02*
X58700Y-31653D01*
X58690Y-31663D02*
X58700Y-31653D01*
X55413Y-37854D02*
X55708Y-37559D01*
X55196Y-37854D02*
X55413Y-37854D01*
X55137Y-37913D02*
X55196Y-37854D01*
X55708Y-37559D02*
X58366Y-37559D01*
X54389Y-39921D02*
X54015Y-39921D01*
X54015Y-39921D02*
X53287Y-40649D01*
X52303Y-40826D02*
X52303Y-41220D01*
X52303Y-40826D02*
X52480Y-40649D01*
X52480Y-40649D02*
X53287Y-40649D01*
X52303Y-41220D02*
X51909Y-41614D01*
X55551Y-43444D02*
X56141Y-44035D01*
X55551Y-41574D02*
X55551Y-43444D01*
X55177Y-41200D02*
X55551Y-41574D01*
X55177Y-40669D02*
X55177Y-41200D01*
X55472Y-40374D02*
X55177Y-40669D01*
X55472Y-40118D02*
X55472Y-40374D01*
X55275Y-39921D02*
X55472Y-40118D01*
X54389Y-39921D02*
X55275Y-39921D01*
X58681Y-38681D02*
X57440Y-38681D01*
X57440Y-38681D02*
X56978Y-39143D01*
X51624Y-39143D02*
X56978Y-39143D01*
X50492Y-40275D02*
X51624Y-39143D01*
X49842Y-40275D02*
X50492Y-40275D01*
X59192Y-38169D02*
X59192Y-34212D01*
X58681Y-38681D02*
X59192Y-38169D01*
X61202Y-32370D02*
X60366Y-32370D01*
X59704Y-33700D02*
X59192Y-34212D01*
X59704Y-33031D02*
X59704Y-33700D01*
X60366Y-32370D02*
X59704Y-33031D01*
X49834Y-40267D02*
X49161Y-40267D01*
X49842Y-40275D02*
X49834Y-40267D01*
X48803Y-42267D02*
X49161Y-42267D01*
X48803Y-42267D02*
X48267Y-41732D01*
X49161Y-39267D02*
X48468Y-39267D01*
X48468Y-39267D02*
X48464Y-39271D01*
X42921Y-47472D02*
X43629Y-47472D01*
X46417Y-47559D02*
X47874Y-47559D01*
X46299Y-47677D02*
X46417Y-47559D01*
X43629Y-47472D02*
X43700Y-47401D01*
X47874Y-47559D02*
X50688Y-47559D01*
X53228Y-47559D02*
X50688Y-47559D01*
X52578Y-40964D02*
X52578Y-41633D01*
X52598Y-40944D02*
X52578Y-40964D01*
X52578Y-42106D02*
X51968Y-42106D01*
X51968Y-42106D02*
X51161Y-41299D01*
X52578Y-41633D02*
X52578Y-42106D01*
X52578Y-42106D02*
X52578Y-44055D01*
X55476Y-47244D02*
X59602Y-51370D01*
X52283Y-47244D02*
X55476Y-47244D01*
G54D26*
X44574Y-48062D02*
X44555Y-48062D01*
X44555Y-48062D02*
X43748Y-48870D01*
X42921Y-48259D02*
X43137Y-48259D01*
X43137Y-48259D02*
X43748Y-48870D01*
X43748Y-48870D02*
X43748Y-50543D01*
X43748Y-50543D02*
X43354Y-50937D01*
G54D25*
X58649Y-42267D02*
X58779Y-42397D01*
X58779Y-42397D02*
X58779Y-42874D01*
G54D24*
X43767Y-40110D02*
X43767Y-40582D01*
X43767Y-40110D02*
X42822Y-40110D01*
X42822Y-40110D02*
X42704Y-39992D01*
G54D25*
X42704Y-39992D02*
X42704Y-40996D01*
X42704Y-39204D02*
X42704Y-39992D01*
X42704Y-38200D02*
X42704Y-39204D01*
X42704Y-40996D02*
X43354Y-40996D01*
X43354Y-40996D02*
X43767Y-40582D01*
X42704Y-38200D02*
X43354Y-38200D01*
X43354Y-38200D02*
X43767Y-38614D01*
G54D27*
X50964Y-36279D02*
X51629Y-36279D01*
X51629Y-36279D02*
X51641Y-36267D01*
X53937Y-42696D02*
X53110Y-43523D01*
X53937Y-42696D02*
X54763Y-43523D01*
X53937Y-42696D02*
X53110Y-41870D01*
X53937Y-42696D02*
X54763Y-41870D01*
G54D24*
X43767Y-39086D02*
X44102Y-39086D01*
X44370Y-37598D02*
X44744Y-37224D01*
X44370Y-38818D02*
X44370Y-37598D01*
X44102Y-39086D02*
X44370Y-38818D01*
G54D27*
X44125Y-39598D02*
X44212Y-39685D01*
X44212Y-39685D02*
X44448Y-39685D01*
X44448Y-39685D02*
X44744Y-39389D01*
X44744Y-39389D02*
X44744Y-38740D01*
X43767Y-39598D02*
X44125Y-39598D01*
G54D24*
X44303Y-39342D02*
X44311Y-39350D01*
G54D27*
X43767Y-39342D02*
X44303Y-39342D01*
M02*
