G04 (created by PCBNEW (2013-07-07 BZR 4022)-stable) date 21/06/2014 12:19:05*
%MOIN*%
G04 Gerber Fmt 3.4, Leading zero omitted, Abs format*
%FSLAX34Y34*%
G01*
G70*
G90*
G04 APERTURE LIST*
%ADD10C,0.00590551*%
%ADD11C,0.000393701*%
G04 APERTURE END LIST*
G54D10*
G54D11*
X42173Y-51606D02*
X42173Y-27590D01*
X42173Y-27590D02*
G75*
G02X42685Y-27078I511J0D01*
G74*
G01*
X45716Y-52511D02*
X45716Y-53574D01*
X42685Y-52118D02*
X45322Y-52118D01*
X67645Y-27078D02*
X42685Y-27078D01*
X68157Y-34677D02*
X68157Y-27590D01*
X59889Y-35188D02*
X67645Y-35188D01*
X59496Y-49913D02*
X59496Y-35582D01*
X64102Y-50307D02*
X59889Y-50307D01*
X64614Y-53574D02*
X64614Y-50818D01*
X46228Y-54086D02*
X64102Y-54086D01*
X45322Y-52118D02*
G75*
G02X45716Y-52511I0J-393D01*
G74*
G01*
X42685Y-52118D02*
G75*
G02X42173Y-51606I0J511D01*
G74*
G01*
X67645Y-27078D02*
G75*
G02X68157Y-27590I0J-511D01*
G74*
G01*
X68157Y-34678D02*
G75*
G02X67645Y-35188I-511J0D01*
G74*
G01*
X59496Y-35581D02*
G75*
G02X59889Y-35188I393J0D01*
G74*
G01*
X59889Y-50307D02*
G75*
G02X59496Y-49913I0J393D01*
G74*
G01*
X64103Y-50307D02*
G75*
G02X64614Y-50818I0J-511D01*
G74*
G01*
X64614Y-53575D02*
G75*
G02X64102Y-54086I-511J0D01*
G74*
G01*
X46227Y-54086D02*
G75*
G02X45716Y-53574I0J511D01*
G74*
G01*
G54D10*
G36*
X43099Y-38733D02*
X42310Y-38733D01*
X42310Y-37944D01*
X43099Y-37944D01*
X43099Y-38733D01*
X43099Y-38733D01*
G37*
G36*
X43099Y-41252D02*
X42310Y-41252D01*
X42310Y-40463D01*
X43099Y-40463D01*
X43099Y-41252D01*
X43099Y-41252D01*
G37*
G36*
X43408Y-42568D02*
X43038Y-42568D01*
X43038Y-41998D01*
X43408Y-41998D01*
X43408Y-42568D01*
X43408Y-42568D01*
G37*
G36*
X43745Y-44377D02*
X43025Y-44377D01*
X43025Y-43457D01*
X43745Y-43457D01*
X43745Y-44377D01*
X43745Y-44377D01*
G37*
G36*
X44008Y-42568D02*
X43638Y-42568D01*
X43638Y-41998D01*
X44008Y-41998D01*
X44008Y-42568D01*
X44008Y-42568D01*
G37*
G36*
X44053Y-38657D02*
X44053Y-38662D01*
X44053Y-38668D01*
X44053Y-38668D01*
X44046Y-38724D01*
X44046Y-38724D01*
X44046Y-38725D01*
X44030Y-38777D01*
X44002Y-38826D01*
X43967Y-38868D01*
X43923Y-38904D01*
X43874Y-38929D01*
X43820Y-38945D01*
X43766Y-38950D01*
X43710Y-38944D01*
X43657Y-38928D01*
X43607Y-38901D01*
X43565Y-38866D01*
X43529Y-38823D01*
X43503Y-38774D01*
X43487Y-38720D01*
X43481Y-38657D01*
X43481Y-38570D01*
X43481Y-38566D01*
X43482Y-38559D01*
X43482Y-38559D01*
X43488Y-38503D01*
X43488Y-38503D01*
X43488Y-38503D01*
X43505Y-38451D01*
X43532Y-38401D01*
X43567Y-38359D01*
X43611Y-38324D01*
X43660Y-38298D01*
X43714Y-38282D01*
X43769Y-38277D01*
X43825Y-38283D01*
X43878Y-38299D01*
X43927Y-38326D01*
X43970Y-38361D01*
X44005Y-38405D01*
X44031Y-38454D01*
X44047Y-38507D01*
X44053Y-38570D01*
X44053Y-38657D01*
X44053Y-38657D01*
G37*
G36*
X44053Y-40626D02*
X44053Y-40630D01*
X44053Y-40637D01*
X44053Y-40637D01*
X44046Y-40692D01*
X44046Y-40692D01*
X44046Y-40693D01*
X44030Y-40745D01*
X44002Y-40795D01*
X43967Y-40837D01*
X43923Y-40872D01*
X43874Y-40898D01*
X43820Y-40914D01*
X43766Y-40919D01*
X43710Y-40913D01*
X43657Y-40896D01*
X43607Y-40870D01*
X43565Y-40834D01*
X43529Y-40791D01*
X43503Y-40742D01*
X43487Y-40689D01*
X43481Y-40626D01*
X43481Y-40539D01*
X43481Y-40534D01*
X43482Y-40528D01*
X43482Y-40527D01*
X43488Y-40472D01*
X43488Y-40472D01*
X43488Y-40471D01*
X43505Y-40419D01*
X43532Y-40370D01*
X43567Y-40328D01*
X43611Y-40292D01*
X43660Y-40267D01*
X43714Y-40251D01*
X43769Y-40246D01*
X43825Y-40252D01*
X43878Y-40268D01*
X43927Y-40295D01*
X43970Y-40330D01*
X44005Y-40373D01*
X44031Y-40422D01*
X44047Y-40476D01*
X44053Y-40539D01*
X44053Y-40626D01*
X44053Y-40626D01*
G37*
G36*
X44516Y-28148D02*
X44512Y-28403D01*
X44461Y-28631D01*
X44370Y-28833D01*
X44236Y-29024D01*
X44075Y-29177D01*
X43878Y-29303D01*
X43671Y-29383D01*
X43440Y-29423D01*
X43219Y-29419D01*
X42990Y-29369D01*
X42787Y-29280D01*
X42595Y-29146D01*
X42441Y-28987D01*
X42314Y-28790D01*
X42233Y-28584D01*
X42190Y-28354D01*
X42193Y-28133D01*
X42242Y-27903D01*
X42329Y-27700D01*
X42462Y-27506D01*
X42620Y-27352D01*
X42816Y-27223D01*
X43021Y-27140D01*
X43252Y-27096D01*
X43472Y-27098D01*
X43703Y-27145D01*
X43906Y-27231D01*
X44101Y-27362D01*
X44256Y-27519D01*
X44386Y-27715D01*
X44470Y-27918D01*
X44516Y-28148D01*
X44516Y-28148D01*
G37*
G36*
X44595Y-46429D02*
X42900Y-46429D01*
X42900Y-45129D01*
X44595Y-45129D01*
X44595Y-46429D01*
X44595Y-46429D01*
G37*
G36*
X44595Y-49815D02*
X43885Y-49815D01*
X43869Y-49815D01*
X43855Y-49821D01*
X43844Y-49832D01*
X43838Y-49846D01*
X43838Y-49862D01*
X43844Y-49876D01*
X43855Y-49887D01*
X43906Y-49908D01*
X44101Y-50039D01*
X44256Y-50196D01*
X44386Y-50392D01*
X44470Y-50595D01*
X44516Y-50825D01*
X44512Y-51080D01*
X44461Y-51308D01*
X44370Y-51511D01*
X44236Y-51701D01*
X44075Y-51855D01*
X43878Y-51980D01*
X43671Y-52060D01*
X43440Y-52101D01*
X43219Y-52096D01*
X42990Y-52046D01*
X42787Y-51957D01*
X42595Y-51823D01*
X42441Y-51664D01*
X42314Y-51467D01*
X42233Y-51261D01*
X42190Y-51031D01*
X42193Y-50810D01*
X42242Y-50580D01*
X42329Y-50377D01*
X42462Y-50183D01*
X42620Y-50029D01*
X42816Y-49900D01*
X42869Y-49879D01*
X42884Y-49873D01*
X42894Y-49862D01*
X42900Y-49848D01*
X42900Y-49833D01*
X42900Y-48514D01*
X44595Y-48514D01*
X44595Y-49815D01*
X44595Y-49815D01*
G37*
G36*
X44969Y-42463D02*
X44400Y-42463D01*
X44400Y-42093D01*
X44969Y-42093D01*
X44969Y-42463D01*
X44969Y-42463D01*
G37*
G36*
X44969Y-43063D02*
X44400Y-43063D01*
X44400Y-42693D01*
X44969Y-42693D01*
X44969Y-43063D01*
X44969Y-43063D01*
G37*
G36*
X45045Y-44377D02*
X44325Y-44377D01*
X44325Y-43457D01*
X45045Y-43457D01*
X45045Y-44377D01*
X45045Y-44377D01*
G37*
G36*
X45203Y-36973D02*
X44284Y-36973D01*
X44284Y-36253D01*
X45203Y-36253D01*
X45203Y-36973D01*
X45203Y-36973D01*
G37*
G36*
X45203Y-38273D02*
X44284Y-38273D01*
X44284Y-37553D01*
X45203Y-37553D01*
X45203Y-38273D01*
X45203Y-38273D01*
G37*
G36*
X46239Y-39429D02*
X45911Y-39429D01*
X45896Y-39429D01*
X45816Y-39429D01*
X45801Y-39429D01*
X45537Y-39429D01*
X45522Y-39429D01*
X45442Y-39429D01*
X45427Y-39429D01*
X45099Y-39429D01*
X45099Y-38916D01*
X45427Y-38916D01*
X45442Y-38916D01*
X45522Y-38916D01*
X45537Y-38916D01*
X45801Y-38916D01*
X45816Y-38916D01*
X45896Y-38916D01*
X45911Y-38916D01*
X46239Y-38916D01*
X46239Y-39429D01*
X46239Y-39429D01*
G37*
G36*
X46239Y-40453D02*
X45911Y-40453D01*
X45896Y-40453D01*
X45816Y-40453D01*
X45801Y-40453D01*
X45537Y-40453D01*
X45522Y-40453D01*
X45442Y-40453D01*
X45427Y-40453D01*
X45099Y-40453D01*
X45099Y-39940D01*
X45427Y-39940D01*
X45442Y-39940D01*
X45522Y-39940D01*
X45537Y-39940D01*
X45801Y-39940D01*
X45816Y-39940D01*
X45896Y-39940D01*
X45911Y-39940D01*
X46239Y-39940D01*
X46239Y-40453D01*
X46239Y-40453D01*
G37*
G36*
X46282Y-37647D02*
X45912Y-37647D01*
X45912Y-37077D01*
X46282Y-37077D01*
X46282Y-37647D01*
X46282Y-37647D01*
G37*
G36*
X46627Y-35333D02*
X45563Y-35333D01*
X45563Y-34977D01*
X46627Y-34977D01*
X46627Y-35333D01*
X46627Y-35333D01*
G37*
G36*
X46627Y-35833D02*
X45563Y-35833D01*
X45563Y-35477D01*
X46627Y-35477D01*
X46627Y-35833D01*
X46627Y-35833D01*
G37*
G36*
X46627Y-36333D02*
X45563Y-36333D01*
X45563Y-35977D01*
X46627Y-35977D01*
X46627Y-36333D01*
X46627Y-36333D01*
G37*
G36*
X46627Y-36833D02*
X45563Y-36833D01*
X45563Y-36477D01*
X46627Y-36477D01*
X46627Y-36833D01*
X46627Y-36833D01*
G37*
G36*
X46638Y-45571D02*
X46086Y-45571D01*
X46086Y-45018D01*
X46161Y-45018D01*
X46177Y-45018D01*
X46191Y-45013D01*
X46202Y-45002D01*
X46208Y-44987D01*
X46208Y-44972D01*
X46208Y-44380D01*
X46577Y-44380D01*
X46577Y-44972D01*
X46577Y-44987D01*
X46583Y-45002D01*
X46594Y-45013D01*
X46608Y-45018D01*
X46624Y-45018D01*
X46638Y-45018D01*
X46638Y-45571D01*
X46638Y-45571D01*
G37*
G36*
X46882Y-37647D02*
X46512Y-37647D01*
X46512Y-37077D01*
X46882Y-37077D01*
X46882Y-37647D01*
X46882Y-37647D01*
G37*
G36*
X46988Y-46437D02*
X46436Y-46437D01*
X46436Y-45885D01*
X46988Y-45885D01*
X46988Y-46437D01*
X46988Y-46437D01*
G37*
G36*
X47338Y-45571D02*
X46786Y-45571D01*
X46786Y-45015D01*
X46791Y-45013D01*
X46802Y-45002D01*
X46808Y-44987D01*
X46808Y-44972D01*
X46808Y-44380D01*
X47177Y-44380D01*
X47177Y-44972D01*
X47177Y-44987D01*
X47183Y-45002D01*
X47194Y-45013D01*
X47208Y-45018D01*
X47224Y-45018D01*
X47338Y-45018D01*
X47338Y-45571D01*
X47338Y-45571D01*
G37*
G36*
X47837Y-40599D02*
X47467Y-40599D01*
X47467Y-40030D01*
X47837Y-40030D01*
X47837Y-40599D01*
X47837Y-40599D01*
G37*
G36*
X47908Y-33342D02*
X47907Y-33405D01*
X47892Y-33469D01*
X47870Y-33519D01*
X47832Y-33572D01*
X47793Y-33610D01*
X47738Y-33645D01*
X47687Y-33664D01*
X47622Y-33676D01*
X47569Y-33675D01*
X47504Y-33661D01*
X47455Y-33639D01*
X47401Y-33601D01*
X47363Y-33563D01*
X47327Y-33507D01*
X47308Y-33457D01*
X47296Y-33392D01*
X47296Y-33339D01*
X47310Y-33274D01*
X47331Y-33225D01*
X47369Y-33170D01*
X47407Y-33133D01*
X47463Y-33096D01*
X47512Y-33076D01*
X47578Y-33064D01*
X47630Y-33064D01*
X47696Y-33077D01*
X47745Y-33098D01*
X47800Y-33135D01*
X47837Y-33173D01*
X47875Y-33229D01*
X47895Y-33277D01*
X47908Y-33342D01*
X47908Y-33342D01*
G37*
G36*
X47908Y-52342D02*
X47907Y-52405D01*
X47892Y-52469D01*
X47870Y-52519D01*
X47832Y-52572D01*
X47793Y-52610D01*
X47738Y-52645D01*
X47687Y-52664D01*
X47622Y-52676D01*
X47569Y-52675D01*
X47504Y-52661D01*
X47455Y-52639D01*
X47401Y-52601D01*
X47363Y-52563D01*
X47327Y-52507D01*
X47308Y-52457D01*
X47296Y-52392D01*
X47296Y-52339D01*
X47310Y-52274D01*
X47331Y-52225D01*
X47369Y-52170D01*
X47407Y-52133D01*
X47463Y-52096D01*
X47512Y-52076D01*
X47578Y-52064D01*
X47630Y-52064D01*
X47696Y-52077D01*
X47745Y-52098D01*
X47800Y-52135D01*
X47837Y-52173D01*
X47875Y-52229D01*
X47895Y-52277D01*
X47908Y-52342D01*
X47908Y-52342D01*
G37*
G36*
X48055Y-34328D02*
X48054Y-34424D01*
X48033Y-34516D01*
X47999Y-34592D01*
X47945Y-34669D01*
X47884Y-34727D01*
X47804Y-34777D01*
X47727Y-34807D01*
X47634Y-34824D01*
X47551Y-34822D01*
X47458Y-34802D01*
X47382Y-34769D01*
X47304Y-34714D01*
X47247Y-34655D01*
X47195Y-34575D01*
X47165Y-34498D01*
X47148Y-34404D01*
X47149Y-34322D01*
X47169Y-34229D01*
X47201Y-34153D01*
X47255Y-34074D01*
X47314Y-34017D01*
X47394Y-33964D01*
X47470Y-33934D01*
X47564Y-33916D01*
X47646Y-33916D01*
X47740Y-33936D01*
X47815Y-33967D01*
X47895Y-34021D01*
X47952Y-34079D01*
X48006Y-34159D01*
X48037Y-34234D01*
X48055Y-34328D01*
X48055Y-34328D01*
G37*
G36*
X48055Y-53328D02*
X48054Y-53424D01*
X48033Y-53516D01*
X47999Y-53592D01*
X47945Y-53669D01*
X47884Y-53727D01*
X47804Y-53777D01*
X47727Y-53807D01*
X47634Y-53824D01*
X47551Y-53822D01*
X47458Y-53802D01*
X47382Y-53769D01*
X47304Y-53714D01*
X47247Y-53655D01*
X47195Y-53575D01*
X47165Y-53498D01*
X47148Y-53404D01*
X47149Y-53322D01*
X47169Y-53229D01*
X47201Y-53153D01*
X47255Y-53074D01*
X47314Y-53017D01*
X47394Y-52964D01*
X47470Y-52934D01*
X47564Y-52916D01*
X47646Y-52916D01*
X47740Y-52936D01*
X47815Y-52967D01*
X47895Y-53021D01*
X47952Y-53079D01*
X48006Y-53159D01*
X48037Y-53234D01*
X48055Y-53328D01*
X48055Y-53328D01*
G37*
G36*
X48406Y-37973D02*
X47853Y-37973D01*
X47853Y-37420D01*
X48406Y-37420D01*
X48406Y-37973D01*
X48406Y-37973D01*
G37*
G36*
X48437Y-40599D02*
X48067Y-40599D01*
X48067Y-40030D01*
X48437Y-40030D01*
X48437Y-40599D01*
X48437Y-40599D01*
G37*
G36*
X48908Y-33342D02*
X48907Y-33405D01*
X48892Y-33469D01*
X48870Y-33519D01*
X48832Y-33572D01*
X48793Y-33610D01*
X48738Y-33645D01*
X48687Y-33664D01*
X48622Y-33676D01*
X48569Y-33675D01*
X48504Y-33661D01*
X48455Y-33639D01*
X48401Y-33601D01*
X48363Y-33563D01*
X48327Y-33507D01*
X48308Y-33457D01*
X48296Y-33392D01*
X48296Y-33339D01*
X48310Y-33274D01*
X48331Y-33225D01*
X48369Y-33170D01*
X48407Y-33133D01*
X48463Y-33096D01*
X48512Y-33076D01*
X48578Y-33064D01*
X48630Y-33064D01*
X48696Y-33077D01*
X48745Y-33098D01*
X48800Y-33135D01*
X48837Y-33173D01*
X48875Y-33229D01*
X48895Y-33277D01*
X48908Y-33342D01*
X48908Y-33342D01*
G37*
G36*
X48908Y-52342D02*
X48907Y-52405D01*
X48892Y-52469D01*
X48870Y-52519D01*
X48832Y-52572D01*
X48793Y-52610D01*
X48738Y-52645D01*
X48687Y-52664D01*
X48622Y-52676D01*
X48569Y-52675D01*
X48504Y-52661D01*
X48455Y-52639D01*
X48401Y-52601D01*
X48363Y-52563D01*
X48327Y-52507D01*
X48308Y-52457D01*
X48296Y-52392D01*
X48296Y-52339D01*
X48310Y-52274D01*
X48331Y-52225D01*
X48369Y-52170D01*
X48407Y-52133D01*
X48463Y-52096D01*
X48512Y-52076D01*
X48578Y-52064D01*
X48630Y-52064D01*
X48696Y-52077D01*
X48745Y-52098D01*
X48800Y-52135D01*
X48837Y-52173D01*
X48875Y-52229D01*
X48895Y-52277D01*
X48908Y-52342D01*
X48908Y-52342D01*
G37*
G36*
X49055Y-32328D02*
X49054Y-32424D01*
X49033Y-32516D01*
X48999Y-32592D01*
X48945Y-32669D01*
X48884Y-32727D01*
X48804Y-32777D01*
X48727Y-32807D01*
X48634Y-32824D01*
X48551Y-32822D01*
X48458Y-32802D01*
X48382Y-32769D01*
X48304Y-32714D01*
X48247Y-32655D01*
X48195Y-32575D01*
X48165Y-32498D01*
X48148Y-32404D01*
X48149Y-32322D01*
X48169Y-32229D01*
X48201Y-32153D01*
X48255Y-32074D01*
X48314Y-32017D01*
X48394Y-31964D01*
X48470Y-31934D01*
X48564Y-31916D01*
X48646Y-31916D01*
X48740Y-31936D01*
X48815Y-31967D01*
X48895Y-32021D01*
X48952Y-32079D01*
X49006Y-32159D01*
X49037Y-32234D01*
X49055Y-32328D01*
X49055Y-32328D01*
G37*
G36*
X49055Y-51328D02*
X49054Y-51424D01*
X49033Y-51516D01*
X48999Y-51592D01*
X48945Y-51669D01*
X48884Y-51727D01*
X48804Y-51777D01*
X48727Y-51807D01*
X48634Y-51824D01*
X48551Y-51822D01*
X48458Y-51802D01*
X48382Y-51769D01*
X48304Y-51714D01*
X48247Y-51655D01*
X48195Y-51575D01*
X48165Y-51498D01*
X48148Y-51404D01*
X48149Y-51322D01*
X48169Y-51229D01*
X48201Y-51153D01*
X48255Y-51074D01*
X48314Y-51017D01*
X48394Y-50964D01*
X48470Y-50934D01*
X48564Y-50916D01*
X48646Y-50916D01*
X48740Y-50936D01*
X48815Y-50967D01*
X48895Y-51021D01*
X48952Y-51079D01*
X49006Y-51159D01*
X49037Y-51234D01*
X49055Y-51328D01*
X49055Y-51328D01*
G37*
G36*
X49121Y-35333D02*
X48057Y-35333D01*
X48057Y-34977D01*
X49121Y-34977D01*
X49121Y-35333D01*
X49121Y-35333D01*
G37*
G36*
X49121Y-35833D02*
X48057Y-35833D01*
X48057Y-35477D01*
X49121Y-35477D01*
X49121Y-35833D01*
X49121Y-35833D01*
G37*
G36*
X49121Y-36333D02*
X48057Y-36333D01*
X48057Y-35977D01*
X49121Y-35977D01*
X49121Y-36333D01*
X49121Y-36333D01*
G37*
G36*
X49121Y-36833D02*
X48057Y-36833D01*
X48057Y-36477D01*
X49121Y-36477D01*
X49121Y-36833D01*
X49121Y-36833D01*
G37*
G36*
X49272Y-37623D02*
X48719Y-37623D01*
X48719Y-37070D01*
X49272Y-37070D01*
X49272Y-37623D01*
X49272Y-37623D01*
G37*
G36*
X49272Y-38323D02*
X48719Y-38323D01*
X48719Y-37770D01*
X49272Y-37770D01*
X49272Y-38323D01*
X49272Y-38323D01*
G37*
G36*
X49274Y-38985D02*
X48904Y-38985D01*
X48904Y-38415D01*
X49274Y-38415D01*
X49274Y-38985D01*
X49274Y-38985D01*
G37*
G36*
X49333Y-43808D02*
X48964Y-43808D01*
X48964Y-43244D01*
X48964Y-43229D01*
X48964Y-43207D01*
X48964Y-43192D01*
X48964Y-42628D01*
X49333Y-42628D01*
X49333Y-43192D01*
X49333Y-43207D01*
X49333Y-43229D01*
X49333Y-43244D01*
X49333Y-43808D01*
X49333Y-43808D01*
G37*
G36*
X49471Y-28198D02*
X49101Y-28198D01*
X49101Y-27628D01*
X49471Y-27628D01*
X49471Y-28198D01*
X49471Y-28198D01*
G37*
G36*
X49567Y-28843D02*
X49014Y-28843D01*
X49014Y-28809D01*
X49014Y-28793D01*
X49009Y-28779D01*
X48998Y-28768D01*
X48984Y-28762D01*
X48968Y-28762D01*
X48376Y-28762D01*
X48376Y-28393D01*
X48968Y-28393D01*
X48984Y-28393D01*
X48998Y-28387D01*
X49009Y-28376D01*
X49014Y-28362D01*
X49014Y-28346D01*
X49014Y-28290D01*
X49567Y-28290D01*
X49567Y-28843D01*
X49567Y-28843D01*
G37*
G36*
X49567Y-29543D02*
X49014Y-29543D01*
X49014Y-29409D01*
X49014Y-29393D01*
X49009Y-29379D01*
X48998Y-29368D01*
X48984Y-29362D01*
X48968Y-29362D01*
X48376Y-29362D01*
X48376Y-28993D01*
X48968Y-28993D01*
X48984Y-28993D01*
X48989Y-28990D01*
X49567Y-28990D01*
X49567Y-29543D01*
X49567Y-29543D01*
G37*
G36*
X49874Y-38985D02*
X49504Y-38985D01*
X49504Y-38415D01*
X49874Y-38415D01*
X49874Y-38985D01*
X49874Y-38985D01*
G37*
G36*
X49908Y-33342D02*
X49907Y-33405D01*
X49892Y-33469D01*
X49870Y-33519D01*
X49832Y-33572D01*
X49793Y-33610D01*
X49738Y-33645D01*
X49687Y-33664D01*
X49622Y-33676D01*
X49569Y-33675D01*
X49504Y-33661D01*
X49455Y-33639D01*
X49401Y-33601D01*
X49363Y-33563D01*
X49327Y-33507D01*
X49308Y-33457D01*
X49296Y-33392D01*
X49296Y-33339D01*
X49310Y-33274D01*
X49331Y-33225D01*
X49369Y-33170D01*
X49407Y-33133D01*
X49463Y-33096D01*
X49512Y-33076D01*
X49578Y-33064D01*
X49630Y-33064D01*
X49696Y-33077D01*
X49745Y-33098D01*
X49800Y-33135D01*
X49837Y-33173D01*
X49875Y-33229D01*
X49895Y-33277D01*
X49908Y-33342D01*
X49908Y-33342D01*
G37*
G36*
X49908Y-52342D02*
X49907Y-52405D01*
X49892Y-52469D01*
X49870Y-52519D01*
X49832Y-52572D01*
X49793Y-52610D01*
X49738Y-52645D01*
X49687Y-52664D01*
X49622Y-52676D01*
X49569Y-52675D01*
X49504Y-52661D01*
X49455Y-52639D01*
X49401Y-52601D01*
X49363Y-52563D01*
X49327Y-52507D01*
X49308Y-52457D01*
X49296Y-52392D01*
X49296Y-52339D01*
X49310Y-52274D01*
X49331Y-52225D01*
X49369Y-52170D01*
X49407Y-52133D01*
X49463Y-52096D01*
X49512Y-52076D01*
X49578Y-52064D01*
X49630Y-52064D01*
X49696Y-52077D01*
X49745Y-52098D01*
X49800Y-52135D01*
X49837Y-52173D01*
X49875Y-52229D01*
X49895Y-52277D01*
X49908Y-52342D01*
X49908Y-52342D01*
G37*
G36*
X49933Y-43808D02*
X49564Y-43808D01*
X49564Y-43244D01*
X49564Y-43229D01*
X49564Y-43207D01*
X49564Y-43192D01*
X49564Y-42628D01*
X49933Y-42628D01*
X49933Y-43192D01*
X49933Y-43207D01*
X49933Y-43229D01*
X49933Y-43244D01*
X49933Y-43808D01*
X49933Y-43808D01*
G37*
G36*
X50048Y-37601D02*
X49478Y-37601D01*
X49478Y-37231D01*
X50048Y-37231D01*
X50048Y-37601D01*
X50048Y-37601D01*
G37*
G36*
X50048Y-38201D02*
X49478Y-38201D01*
X49478Y-37831D01*
X50048Y-37831D01*
X50048Y-38201D01*
X50048Y-38201D01*
G37*
G36*
X50055Y-34328D02*
X50054Y-34424D01*
X50033Y-34516D01*
X49999Y-34592D01*
X49945Y-34669D01*
X49884Y-34727D01*
X49804Y-34777D01*
X49727Y-34807D01*
X49634Y-34824D01*
X49551Y-34822D01*
X49458Y-34802D01*
X49382Y-34769D01*
X49304Y-34714D01*
X49247Y-34655D01*
X49195Y-34575D01*
X49165Y-34498D01*
X49148Y-34404D01*
X49149Y-34322D01*
X49169Y-34229D01*
X49201Y-34153D01*
X49255Y-34074D01*
X49314Y-34017D01*
X49394Y-33964D01*
X49470Y-33934D01*
X49564Y-33916D01*
X49646Y-33916D01*
X49740Y-33936D01*
X49815Y-33967D01*
X49895Y-34021D01*
X49952Y-34079D01*
X50006Y-34159D01*
X50037Y-34234D01*
X50055Y-34328D01*
X50055Y-34328D01*
G37*
G36*
X50055Y-53328D02*
X50054Y-53424D01*
X50033Y-53516D01*
X49999Y-53592D01*
X49945Y-53669D01*
X49884Y-53727D01*
X49804Y-53777D01*
X49727Y-53807D01*
X49634Y-53824D01*
X49551Y-53822D01*
X49458Y-53802D01*
X49382Y-53769D01*
X49304Y-53714D01*
X49247Y-53655D01*
X49195Y-53575D01*
X49165Y-53498D01*
X49148Y-53404D01*
X49149Y-53322D01*
X49169Y-53229D01*
X49201Y-53153D01*
X49255Y-53074D01*
X49314Y-53017D01*
X49394Y-52964D01*
X49470Y-52934D01*
X49564Y-52916D01*
X49646Y-52916D01*
X49740Y-52936D01*
X49815Y-52967D01*
X49895Y-53021D01*
X49952Y-53079D01*
X50006Y-53159D01*
X50037Y-53234D01*
X50055Y-53328D01*
X50055Y-53328D01*
G37*
G36*
X50071Y-28198D02*
X49701Y-28198D01*
X49701Y-27628D01*
X50071Y-27628D01*
X50071Y-28198D01*
X50071Y-28198D01*
G37*
G36*
X50433Y-29193D02*
X49881Y-29193D01*
X49881Y-28640D01*
X50433Y-28640D01*
X50433Y-29193D01*
X50433Y-29193D01*
G37*
G36*
X50632Y-42942D02*
X50263Y-42942D01*
X50263Y-42378D01*
X50263Y-42362D01*
X50263Y-42341D01*
X50263Y-42326D01*
X50263Y-41762D01*
X50632Y-41762D01*
X50632Y-42326D01*
X50632Y-42341D01*
X50632Y-42362D01*
X50632Y-42378D01*
X50632Y-42942D01*
X50632Y-42942D01*
G37*
G36*
X50829Y-44005D02*
X50460Y-44005D01*
X50460Y-43435D01*
X50829Y-43435D01*
X50829Y-44005D01*
X50829Y-44005D01*
G37*
G36*
X50908Y-33342D02*
X50907Y-33405D01*
X50892Y-33469D01*
X50870Y-33519D01*
X50832Y-33572D01*
X50793Y-33610D01*
X50738Y-33645D01*
X50687Y-33664D01*
X50622Y-33676D01*
X50569Y-33675D01*
X50504Y-33661D01*
X50455Y-33639D01*
X50401Y-33601D01*
X50363Y-33563D01*
X50327Y-33507D01*
X50308Y-33457D01*
X50296Y-33392D01*
X50296Y-33339D01*
X50310Y-33274D01*
X50331Y-33225D01*
X50369Y-33170D01*
X50407Y-33133D01*
X50463Y-33096D01*
X50512Y-33076D01*
X50578Y-33064D01*
X50630Y-33064D01*
X50696Y-33077D01*
X50745Y-33098D01*
X50800Y-33135D01*
X50837Y-33173D01*
X50875Y-33229D01*
X50895Y-33277D01*
X50908Y-33342D01*
X50908Y-33342D01*
G37*
G36*
X50908Y-52342D02*
X50907Y-52405D01*
X50892Y-52469D01*
X50870Y-52519D01*
X50832Y-52572D01*
X50793Y-52610D01*
X50738Y-52645D01*
X50687Y-52664D01*
X50622Y-52676D01*
X50569Y-52675D01*
X50504Y-52661D01*
X50455Y-52639D01*
X50401Y-52601D01*
X50363Y-52563D01*
X50327Y-52507D01*
X50308Y-52457D01*
X50296Y-52392D01*
X50296Y-52339D01*
X50310Y-52274D01*
X50331Y-52225D01*
X50369Y-52170D01*
X50407Y-52133D01*
X50463Y-52096D01*
X50512Y-52076D01*
X50578Y-52064D01*
X50630Y-52064D01*
X50696Y-52077D01*
X50745Y-52098D01*
X50800Y-52135D01*
X50837Y-52173D01*
X50875Y-52229D01*
X50895Y-52277D01*
X50908Y-52342D01*
X50908Y-52342D01*
G37*
G36*
X50963Y-28399D02*
X50607Y-28399D01*
X50607Y-27791D01*
X50607Y-27776D01*
X50601Y-27762D01*
X50590Y-27751D01*
X50576Y-27745D01*
X50561Y-27745D01*
X50538Y-27745D01*
X50538Y-27175D01*
X50908Y-27175D01*
X50908Y-27682D01*
X50908Y-27697D01*
X50914Y-27712D01*
X50925Y-27722D01*
X50939Y-27728D01*
X50954Y-27728D01*
X50963Y-27728D01*
X50963Y-28399D01*
X50963Y-28399D01*
G37*
G36*
X50963Y-30499D02*
X50607Y-30499D01*
X50607Y-30464D01*
X50607Y-30449D01*
X50601Y-30435D01*
X50590Y-30424D01*
X50576Y-30418D01*
X50561Y-30418D01*
X50547Y-30424D01*
X50536Y-30435D01*
X50530Y-30449D01*
X50524Y-30476D01*
X50474Y-30587D01*
X50397Y-30696D01*
X50309Y-30780D01*
X50197Y-30851D01*
X50084Y-30895D01*
X49952Y-30919D01*
X49831Y-30916D01*
X49700Y-30887D01*
X49589Y-30839D01*
X49479Y-30762D01*
X49395Y-30675D01*
X49323Y-30563D01*
X49278Y-30450D01*
X49254Y-30319D01*
X49256Y-30198D01*
X49284Y-30067D01*
X49331Y-29956D01*
X49407Y-29845D01*
X49493Y-29760D01*
X49606Y-29687D01*
X49717Y-29642D01*
X49849Y-29616D01*
X49970Y-29617D01*
X50102Y-29644D01*
X50212Y-29691D01*
X50324Y-29766D01*
X50409Y-29852D01*
X50483Y-29964D01*
X50529Y-30075D01*
X50530Y-30079D01*
X50536Y-30093D01*
X50547Y-30104D01*
X50561Y-30109D01*
X50576Y-30109D01*
X50590Y-30104D01*
X50601Y-30093D01*
X50607Y-30079D01*
X50607Y-30063D01*
X50607Y-29828D01*
X50963Y-29828D01*
X50963Y-30499D01*
X50963Y-30499D01*
G37*
G36*
X51055Y-32328D02*
X51054Y-32424D01*
X51033Y-32516D01*
X50999Y-32592D01*
X50945Y-32669D01*
X50884Y-32727D01*
X50804Y-32777D01*
X50727Y-32807D01*
X50634Y-32824D01*
X50551Y-32822D01*
X50458Y-32802D01*
X50382Y-32769D01*
X50304Y-32714D01*
X50247Y-32655D01*
X50195Y-32575D01*
X50165Y-32498D01*
X50148Y-32404D01*
X50149Y-32322D01*
X50169Y-32229D01*
X50201Y-32153D01*
X50255Y-32074D01*
X50314Y-32017D01*
X50394Y-31964D01*
X50470Y-31934D01*
X50564Y-31916D01*
X50646Y-31916D01*
X50740Y-31936D01*
X50815Y-31967D01*
X50895Y-32021D01*
X50952Y-32079D01*
X51006Y-32159D01*
X51037Y-32234D01*
X51055Y-32328D01*
X51055Y-32328D01*
G37*
G36*
X51055Y-51328D02*
X51054Y-51424D01*
X51033Y-51516D01*
X50999Y-51592D01*
X50945Y-51669D01*
X50884Y-51727D01*
X50804Y-51777D01*
X50727Y-51807D01*
X50634Y-51824D01*
X50551Y-51822D01*
X50458Y-51802D01*
X50382Y-51769D01*
X50304Y-51714D01*
X50247Y-51655D01*
X50195Y-51575D01*
X50165Y-51498D01*
X50148Y-51404D01*
X50149Y-51322D01*
X50169Y-51229D01*
X50201Y-51153D01*
X50255Y-51074D01*
X50314Y-51017D01*
X50394Y-50964D01*
X50470Y-50934D01*
X50564Y-50916D01*
X50646Y-50916D01*
X50740Y-50936D01*
X50815Y-50967D01*
X50895Y-51021D01*
X50952Y-51079D01*
X51006Y-51159D01*
X51037Y-51234D01*
X51055Y-51328D01*
X51055Y-51328D01*
G37*
G36*
X51223Y-31702D02*
X50853Y-31702D01*
X50853Y-31132D01*
X51223Y-31132D01*
X51223Y-31702D01*
X51223Y-31702D01*
G37*
G36*
X51232Y-42942D02*
X50863Y-42942D01*
X50863Y-42378D01*
X50863Y-42362D01*
X50863Y-42341D01*
X50863Y-42326D01*
X50863Y-41762D01*
X51232Y-41762D01*
X51232Y-42326D01*
X51232Y-42341D01*
X51232Y-42362D01*
X51232Y-42378D01*
X51232Y-42942D01*
X51232Y-42942D01*
G37*
G36*
X51429Y-44005D02*
X51060Y-44005D01*
X51060Y-43435D01*
X51429Y-43435D01*
X51429Y-44005D01*
X51429Y-44005D01*
G37*
G36*
X51908Y-33342D02*
X51907Y-33405D01*
X51892Y-33469D01*
X51870Y-33519D01*
X51832Y-33572D01*
X51793Y-33610D01*
X51738Y-33645D01*
X51687Y-33664D01*
X51622Y-33676D01*
X51569Y-33675D01*
X51504Y-33661D01*
X51455Y-33639D01*
X51401Y-33601D01*
X51363Y-33563D01*
X51327Y-33507D01*
X51308Y-33457D01*
X51296Y-33392D01*
X51296Y-33339D01*
X51310Y-33274D01*
X51331Y-33225D01*
X51369Y-33170D01*
X51407Y-33133D01*
X51463Y-33096D01*
X51512Y-33076D01*
X51578Y-33064D01*
X51630Y-33064D01*
X51696Y-33077D01*
X51745Y-33098D01*
X51800Y-33135D01*
X51837Y-33173D01*
X51875Y-33229D01*
X51895Y-33277D01*
X51908Y-33342D01*
X51908Y-33342D01*
G37*
G36*
X51908Y-52342D02*
X51907Y-52405D01*
X51892Y-52469D01*
X51870Y-52519D01*
X51832Y-52572D01*
X51793Y-52610D01*
X51738Y-52645D01*
X51687Y-52664D01*
X51622Y-52676D01*
X51569Y-52675D01*
X51504Y-52661D01*
X51455Y-52639D01*
X51401Y-52601D01*
X51363Y-52563D01*
X51327Y-52507D01*
X51308Y-52457D01*
X51296Y-52392D01*
X51296Y-52339D01*
X51310Y-52274D01*
X51331Y-52225D01*
X51369Y-52170D01*
X51407Y-52133D01*
X51463Y-52096D01*
X51512Y-52076D01*
X51578Y-52064D01*
X51630Y-52064D01*
X51696Y-52077D01*
X51745Y-52098D01*
X51800Y-52135D01*
X51837Y-52173D01*
X51875Y-52229D01*
X51895Y-52277D01*
X51908Y-52342D01*
X51908Y-52342D01*
G37*
G36*
X51963Y-28399D02*
X51607Y-28399D01*
X51607Y-27791D01*
X51607Y-27776D01*
X51601Y-27762D01*
X51590Y-27751D01*
X51576Y-27745D01*
X51561Y-27745D01*
X51554Y-27745D01*
X51539Y-27745D01*
X51531Y-27745D01*
X51516Y-27745D01*
X51509Y-27745D01*
X51494Y-27745D01*
X51479Y-27751D01*
X51469Y-27762D01*
X51463Y-27776D01*
X51463Y-27791D01*
X51463Y-28399D01*
X51107Y-28399D01*
X51107Y-27728D01*
X51107Y-27728D01*
X51122Y-27722D01*
X51132Y-27712D01*
X51138Y-27697D01*
X51138Y-27682D01*
X51138Y-27175D01*
X51516Y-27175D01*
X51531Y-27175D01*
X51539Y-27175D01*
X51554Y-27175D01*
X51932Y-27175D01*
X51932Y-27682D01*
X51932Y-27697D01*
X51937Y-27712D01*
X51948Y-27722D01*
X51962Y-27728D01*
X51963Y-27728D01*
X51963Y-28399D01*
X51963Y-28399D01*
G37*
G36*
X51963Y-30499D02*
X51899Y-30499D01*
X51884Y-30499D01*
X51870Y-30505D01*
X51859Y-30516D01*
X51853Y-30530D01*
X51853Y-30545D01*
X51853Y-31092D01*
X51840Y-31097D01*
X51829Y-31108D01*
X51823Y-31122D01*
X51823Y-31138D01*
X51823Y-31702D01*
X51453Y-31702D01*
X51453Y-31132D01*
X51466Y-31126D01*
X51477Y-31115D01*
X51483Y-31101D01*
X51483Y-31086D01*
X51483Y-30545D01*
X51483Y-30530D01*
X51477Y-30516D01*
X51466Y-30505D01*
X51452Y-30499D01*
X51437Y-30499D01*
X51107Y-30499D01*
X51107Y-29828D01*
X51463Y-29828D01*
X51463Y-30475D01*
X51463Y-30491D01*
X51469Y-30505D01*
X51479Y-30516D01*
X51494Y-30522D01*
X51509Y-30522D01*
X51561Y-30522D01*
X51576Y-30522D01*
X51590Y-30516D01*
X51601Y-30505D01*
X51607Y-30491D01*
X51607Y-30475D01*
X51607Y-29828D01*
X51963Y-29828D01*
X51963Y-30499D01*
X51963Y-30499D01*
G37*
G36*
X52055Y-34328D02*
X52054Y-34424D01*
X52033Y-34516D01*
X51999Y-34592D01*
X51945Y-34669D01*
X51884Y-34727D01*
X51804Y-34777D01*
X51727Y-34807D01*
X51634Y-34824D01*
X51551Y-34822D01*
X51458Y-34802D01*
X51382Y-34769D01*
X51304Y-34714D01*
X51247Y-34655D01*
X51195Y-34575D01*
X51165Y-34498D01*
X51148Y-34404D01*
X51149Y-34322D01*
X51169Y-34229D01*
X51201Y-34153D01*
X51255Y-34074D01*
X51314Y-34017D01*
X51394Y-33964D01*
X51470Y-33934D01*
X51564Y-33916D01*
X51646Y-33916D01*
X51740Y-33936D01*
X51815Y-33967D01*
X51895Y-34021D01*
X51952Y-34079D01*
X52006Y-34159D01*
X52037Y-34234D01*
X52055Y-34328D01*
X52055Y-34328D01*
G37*
G36*
X52055Y-53328D02*
X52054Y-53424D01*
X52033Y-53516D01*
X51999Y-53592D01*
X51945Y-53669D01*
X51884Y-53727D01*
X51804Y-53777D01*
X51727Y-53807D01*
X51634Y-53824D01*
X51551Y-53822D01*
X51458Y-53802D01*
X51382Y-53769D01*
X51304Y-53714D01*
X51247Y-53655D01*
X51195Y-53575D01*
X51165Y-53498D01*
X51148Y-53404D01*
X51149Y-53322D01*
X51169Y-53229D01*
X51201Y-53153D01*
X51255Y-53074D01*
X51314Y-53017D01*
X51394Y-52964D01*
X51470Y-52934D01*
X51564Y-52916D01*
X51646Y-52916D01*
X51740Y-52936D01*
X51815Y-52967D01*
X51895Y-53021D01*
X51952Y-53079D01*
X52006Y-53159D01*
X52037Y-53234D01*
X52055Y-53328D01*
X52055Y-53328D01*
G37*
G36*
X52109Y-40639D02*
X51739Y-40639D01*
X51739Y-40069D01*
X52109Y-40069D01*
X52109Y-40639D01*
X52109Y-40639D01*
G37*
G36*
X52463Y-30512D02*
X52459Y-30516D01*
X52453Y-30530D01*
X52453Y-30545D01*
X52453Y-31091D01*
X52352Y-31091D01*
X52337Y-31091D01*
X52322Y-31097D01*
X52311Y-31108D01*
X52306Y-31122D01*
X52306Y-31138D01*
X52306Y-31682D01*
X51936Y-31682D01*
X51936Y-31112D01*
X52037Y-31112D01*
X52052Y-31112D01*
X52066Y-31106D01*
X52077Y-31096D01*
X52083Y-31081D01*
X52083Y-31066D01*
X52083Y-30519D01*
X52090Y-30516D01*
X52101Y-30505D01*
X52107Y-30491D01*
X52107Y-30475D01*
X52107Y-29828D01*
X52463Y-29828D01*
X52463Y-30512D01*
X52463Y-30512D01*
G37*
G36*
X52500Y-37392D02*
X52026Y-37392D01*
X52026Y-37123D01*
X52026Y-37108D01*
X52026Y-37064D01*
X52026Y-37049D01*
X52026Y-36808D01*
X52026Y-36793D01*
X52026Y-36749D01*
X52026Y-36734D01*
X52026Y-36493D01*
X52026Y-36478D01*
X52026Y-36434D01*
X52026Y-36419D01*
X52026Y-36178D01*
X52026Y-36163D01*
X52026Y-36119D01*
X52026Y-36104D01*
X52026Y-35863D01*
X52026Y-35848D01*
X52026Y-35804D01*
X52026Y-35789D01*
X52026Y-35549D01*
X52026Y-35533D01*
X52026Y-35489D01*
X52026Y-35474D01*
X52026Y-35234D01*
X52026Y-35218D01*
X52026Y-35175D01*
X52026Y-35159D01*
X52026Y-34890D01*
X52500Y-34890D01*
X52500Y-35159D01*
X52500Y-35175D01*
X52500Y-35218D01*
X52500Y-35234D01*
X52500Y-35474D01*
X52500Y-35489D01*
X52500Y-35533D01*
X52500Y-35549D01*
X52500Y-35789D01*
X52500Y-35804D01*
X52500Y-35848D01*
X52500Y-35863D01*
X52500Y-36104D01*
X52500Y-36119D01*
X52500Y-36163D01*
X52500Y-36178D01*
X52500Y-36419D01*
X52500Y-36434D01*
X52500Y-36478D01*
X52500Y-36493D01*
X52500Y-36734D01*
X52500Y-36749D01*
X52500Y-36793D01*
X52500Y-36808D01*
X52500Y-37049D01*
X52500Y-37064D01*
X52500Y-37108D01*
X52500Y-37123D01*
X52500Y-37392D01*
X52500Y-37392D01*
G37*
G36*
X52532Y-27745D02*
X52509Y-27745D01*
X52494Y-27745D01*
X52479Y-27751D01*
X52469Y-27762D01*
X52463Y-27776D01*
X52463Y-27791D01*
X52463Y-28399D01*
X52107Y-28399D01*
X52107Y-27728D01*
X52116Y-27728D01*
X52131Y-27728D01*
X52145Y-27722D01*
X52156Y-27712D01*
X52162Y-27697D01*
X52162Y-27682D01*
X52162Y-27175D01*
X52532Y-27175D01*
X52532Y-27745D01*
X52532Y-27745D01*
G37*
G36*
X52709Y-40639D02*
X52339Y-40639D01*
X52339Y-40069D01*
X52709Y-40069D01*
X52709Y-40639D01*
X52709Y-40639D01*
G37*
G36*
X52908Y-33342D02*
X52907Y-33405D01*
X52892Y-33469D01*
X52870Y-33519D01*
X52832Y-33572D01*
X52793Y-33610D01*
X52738Y-33645D01*
X52687Y-33664D01*
X52622Y-33676D01*
X52569Y-33675D01*
X52504Y-33661D01*
X52455Y-33639D01*
X52401Y-33601D01*
X52363Y-33563D01*
X52327Y-33507D01*
X52308Y-33457D01*
X52296Y-33392D01*
X52296Y-33339D01*
X52310Y-33274D01*
X52331Y-33225D01*
X52369Y-33170D01*
X52407Y-33133D01*
X52463Y-33096D01*
X52512Y-33076D01*
X52578Y-33064D01*
X52630Y-33064D01*
X52696Y-33077D01*
X52745Y-33098D01*
X52800Y-33135D01*
X52837Y-33173D01*
X52875Y-33229D01*
X52895Y-33277D01*
X52908Y-33342D01*
X52908Y-33342D01*
G37*
G36*
X52908Y-52342D02*
X52907Y-52405D01*
X52892Y-52469D01*
X52870Y-52519D01*
X52832Y-52572D01*
X52793Y-52610D01*
X52738Y-52645D01*
X52687Y-52664D01*
X52622Y-52676D01*
X52569Y-52675D01*
X52504Y-52661D01*
X52455Y-52639D01*
X52401Y-52601D01*
X52363Y-52563D01*
X52327Y-52507D01*
X52308Y-52457D01*
X52296Y-52392D01*
X52296Y-52339D01*
X52310Y-52274D01*
X52331Y-52225D01*
X52369Y-52170D01*
X52407Y-52133D01*
X52463Y-52096D01*
X52512Y-52076D01*
X52578Y-52064D01*
X52630Y-52064D01*
X52696Y-52077D01*
X52745Y-52098D01*
X52800Y-52135D01*
X52837Y-52173D01*
X52875Y-52229D01*
X52895Y-52277D01*
X52908Y-52342D01*
X52908Y-52342D01*
G37*
G36*
X53055Y-51328D02*
X53054Y-51424D01*
X53033Y-51516D01*
X52999Y-51592D01*
X52945Y-51669D01*
X52884Y-51727D01*
X52804Y-51777D01*
X52727Y-51807D01*
X52634Y-51824D01*
X52551Y-51822D01*
X52458Y-51802D01*
X52382Y-51769D01*
X52304Y-51714D01*
X52247Y-51655D01*
X52195Y-51575D01*
X52165Y-51498D01*
X52148Y-51404D01*
X52149Y-51322D01*
X52169Y-51229D01*
X52201Y-51153D01*
X52255Y-51074D01*
X52314Y-51017D01*
X52394Y-50964D01*
X52470Y-50934D01*
X52564Y-50916D01*
X52646Y-50916D01*
X52740Y-50936D01*
X52815Y-50967D01*
X52895Y-51021D01*
X52952Y-51079D01*
X53006Y-51159D01*
X53037Y-51234D01*
X53055Y-51328D01*
X53055Y-51328D01*
G37*
G36*
X53170Y-37392D02*
X52696Y-37392D01*
X52696Y-37123D01*
X52696Y-37108D01*
X52696Y-37064D01*
X52696Y-37049D01*
X52696Y-36808D01*
X52696Y-36793D01*
X52696Y-36749D01*
X52696Y-36734D01*
X52696Y-36493D01*
X52696Y-36478D01*
X52696Y-36434D01*
X52696Y-36419D01*
X52696Y-36178D01*
X52696Y-36163D01*
X52696Y-36119D01*
X52696Y-36104D01*
X52696Y-35863D01*
X52696Y-35848D01*
X52696Y-35804D01*
X52696Y-35789D01*
X52696Y-35549D01*
X52696Y-35533D01*
X52696Y-35489D01*
X52696Y-35474D01*
X52696Y-35234D01*
X52696Y-35218D01*
X52696Y-35175D01*
X52696Y-35159D01*
X52696Y-34890D01*
X53170Y-34890D01*
X53170Y-35159D01*
X53170Y-35175D01*
X53170Y-35218D01*
X53170Y-35234D01*
X53170Y-35474D01*
X53170Y-35489D01*
X53170Y-35533D01*
X53170Y-35549D01*
X53170Y-35789D01*
X53170Y-35804D01*
X53170Y-35848D01*
X53170Y-35863D01*
X53170Y-36104D01*
X53170Y-36119D01*
X53170Y-36163D01*
X53170Y-36178D01*
X53170Y-36419D01*
X53170Y-36434D01*
X53170Y-36478D01*
X53170Y-36493D01*
X53170Y-36734D01*
X53170Y-36749D01*
X53170Y-36793D01*
X53170Y-36808D01*
X53170Y-37049D01*
X53170Y-37064D01*
X53170Y-37108D01*
X53170Y-37123D01*
X53170Y-37392D01*
X53170Y-37392D01*
G37*
G36*
X53395Y-45416D02*
X52831Y-45416D01*
X52815Y-45416D01*
X52794Y-45416D01*
X52779Y-45416D01*
X52215Y-45416D01*
X52215Y-45046D01*
X52779Y-45046D01*
X52794Y-45046D01*
X52815Y-45046D01*
X52831Y-45046D01*
X53395Y-45046D01*
X53395Y-45416D01*
X53395Y-45416D01*
G37*
G36*
X53395Y-46016D02*
X52831Y-46016D01*
X52815Y-46016D01*
X52794Y-46016D01*
X52779Y-46016D01*
X52215Y-46016D01*
X52215Y-45646D01*
X52779Y-45646D01*
X52794Y-45646D01*
X52815Y-45646D01*
X52831Y-45646D01*
X53395Y-45646D01*
X53395Y-46016D01*
X53395Y-46016D01*
G37*
G36*
X53487Y-32489D02*
X53117Y-32489D01*
X53117Y-32486D01*
X53111Y-32471D01*
X53100Y-32461D01*
X53086Y-32455D01*
X53071Y-32455D01*
X53057Y-32461D01*
X53046Y-32471D01*
X53040Y-32486D01*
X53033Y-32516D01*
X52999Y-32592D01*
X52945Y-32669D01*
X52884Y-32727D01*
X52804Y-32777D01*
X52727Y-32807D01*
X52634Y-32824D01*
X52551Y-32822D01*
X52458Y-32802D01*
X52382Y-32769D01*
X52304Y-32714D01*
X52247Y-32655D01*
X52195Y-32575D01*
X52165Y-32498D01*
X52148Y-32404D01*
X52149Y-32322D01*
X52169Y-32229D01*
X52201Y-32153D01*
X52255Y-32074D01*
X52314Y-32017D01*
X52394Y-31964D01*
X52470Y-31934D01*
X52564Y-31916D01*
X52646Y-31916D01*
X52740Y-31936D01*
X52815Y-31967D01*
X52895Y-32021D01*
X52952Y-32079D01*
X53006Y-32159D01*
X53037Y-32234D01*
X53040Y-32250D01*
X53046Y-32265D01*
X53057Y-32275D01*
X53071Y-32281D01*
X53086Y-32281D01*
X53100Y-32275D01*
X53111Y-32265D01*
X53117Y-32250D01*
X53117Y-32235D01*
X53117Y-31919D01*
X53487Y-31919D01*
X53487Y-32489D01*
X53487Y-32489D01*
G37*
G36*
X53642Y-39902D02*
X52892Y-39902D01*
X52892Y-39239D01*
X52892Y-39224D01*
X52892Y-39200D01*
X52892Y-39185D01*
X52892Y-38522D01*
X53209Y-38522D01*
X53224Y-38522D01*
X53238Y-38516D01*
X53249Y-38506D01*
X53255Y-38491D01*
X53255Y-38476D01*
X53255Y-37884D01*
X53624Y-37884D01*
X53624Y-38476D01*
X53624Y-38491D01*
X53630Y-38506D01*
X53641Y-38516D01*
X53642Y-38517D01*
X53642Y-39185D01*
X53642Y-39200D01*
X53642Y-39224D01*
X53642Y-39239D01*
X53642Y-39902D01*
X53642Y-39902D01*
G37*
G36*
X53646Y-31759D02*
X52927Y-31759D01*
X52927Y-31728D01*
X52927Y-31713D01*
X52921Y-31699D01*
X52910Y-31688D01*
X52896Y-31682D01*
X52880Y-31682D01*
X52536Y-31682D01*
X52536Y-31112D01*
X52880Y-31112D01*
X52896Y-31112D01*
X52910Y-31106D01*
X52921Y-31096D01*
X52927Y-31081D01*
X52927Y-31066D01*
X52927Y-30839D01*
X53646Y-30839D01*
X53646Y-31759D01*
X53646Y-31759D01*
G37*
G36*
X53908Y-33342D02*
X53907Y-33405D01*
X53892Y-33469D01*
X53870Y-33519D01*
X53832Y-33572D01*
X53793Y-33610D01*
X53738Y-33645D01*
X53687Y-33664D01*
X53622Y-33676D01*
X53569Y-33675D01*
X53504Y-33661D01*
X53455Y-33639D01*
X53401Y-33601D01*
X53363Y-33563D01*
X53327Y-33507D01*
X53308Y-33457D01*
X53296Y-33392D01*
X53296Y-33339D01*
X53310Y-33274D01*
X53331Y-33225D01*
X53369Y-33170D01*
X53407Y-33133D01*
X53463Y-33096D01*
X53512Y-33076D01*
X53578Y-33064D01*
X53630Y-33064D01*
X53696Y-33077D01*
X53745Y-33098D01*
X53800Y-33135D01*
X53837Y-33173D01*
X53875Y-33229D01*
X53895Y-33277D01*
X53908Y-33342D01*
X53908Y-33342D01*
G37*
G36*
X54055Y-34328D02*
X54054Y-34424D01*
X54033Y-34516D01*
X53999Y-34592D01*
X53945Y-34669D01*
X53884Y-34727D01*
X53804Y-34777D01*
X53727Y-34807D01*
X53634Y-34824D01*
X53551Y-34822D01*
X53458Y-34802D01*
X53382Y-34769D01*
X53304Y-34714D01*
X53247Y-34655D01*
X53195Y-34575D01*
X53165Y-34498D01*
X53148Y-34404D01*
X53149Y-34322D01*
X53169Y-34229D01*
X53201Y-34153D01*
X53255Y-34074D01*
X53314Y-34017D01*
X53394Y-33964D01*
X53470Y-33934D01*
X53564Y-33916D01*
X53646Y-33916D01*
X53740Y-33936D01*
X53815Y-33967D01*
X53895Y-34021D01*
X53952Y-34079D01*
X54006Y-34159D01*
X54037Y-34234D01*
X54055Y-34328D01*
X54055Y-34328D01*
G37*
G36*
X54587Y-39902D02*
X53837Y-39902D01*
X53837Y-39239D01*
X53837Y-39224D01*
X53837Y-39200D01*
X53837Y-39185D01*
X53837Y-38517D01*
X53838Y-38516D01*
X53849Y-38506D01*
X53855Y-38491D01*
X53855Y-38476D01*
X53855Y-37884D01*
X54224Y-37884D01*
X54224Y-38476D01*
X54224Y-38491D01*
X54230Y-38506D01*
X54241Y-38516D01*
X54255Y-38522D01*
X54271Y-38522D01*
X54587Y-38522D01*
X54587Y-39185D01*
X54587Y-39200D01*
X54587Y-39224D01*
X54587Y-39239D01*
X54587Y-39902D01*
X54587Y-39902D01*
G37*
G36*
X54888Y-29453D02*
X53969Y-29453D01*
X53969Y-29003D01*
X53969Y-28988D01*
X53963Y-28974D01*
X53952Y-28963D01*
X53938Y-28957D01*
X53923Y-28957D01*
X53030Y-28957D01*
X53030Y-28286D01*
X53898Y-28286D01*
X53898Y-28687D01*
X53898Y-28703D01*
X53904Y-28717D01*
X53915Y-28728D01*
X53929Y-28734D01*
X53944Y-28734D01*
X54888Y-28734D01*
X54888Y-29453D01*
X54888Y-29453D01*
G37*
G36*
X54888Y-30753D02*
X53969Y-30753D01*
X53969Y-30499D01*
X53969Y-30484D01*
X53963Y-30470D01*
X53952Y-30459D01*
X53938Y-30453D01*
X53923Y-30453D01*
X53030Y-30453D01*
X53030Y-29782D01*
X53898Y-29782D01*
X53898Y-29987D01*
X53898Y-30003D01*
X53904Y-30017D01*
X53915Y-30028D01*
X53929Y-30034D01*
X53944Y-30034D01*
X54888Y-30034D01*
X54888Y-30753D01*
X54888Y-30753D01*
G37*
G36*
X54908Y-33342D02*
X54907Y-33405D01*
X54892Y-33469D01*
X54870Y-33519D01*
X54832Y-33572D01*
X54793Y-33610D01*
X54738Y-33645D01*
X54687Y-33664D01*
X54622Y-33676D01*
X54569Y-33675D01*
X54504Y-33661D01*
X54455Y-33639D01*
X54401Y-33601D01*
X54363Y-33563D01*
X54327Y-33507D01*
X54308Y-33457D01*
X54296Y-33392D01*
X54296Y-33339D01*
X54310Y-33274D01*
X54331Y-33225D01*
X54369Y-33170D01*
X54407Y-33133D01*
X54463Y-33096D01*
X54512Y-33076D01*
X54578Y-33064D01*
X54630Y-33064D01*
X54696Y-33077D01*
X54745Y-33098D01*
X54800Y-33135D01*
X54837Y-33173D01*
X54875Y-33229D01*
X54895Y-33277D01*
X54908Y-33342D01*
X54908Y-33342D01*
G37*
G36*
X54908Y-52342D02*
X54907Y-52405D01*
X54892Y-52469D01*
X54870Y-52519D01*
X54832Y-52572D01*
X54793Y-52610D01*
X54738Y-52645D01*
X54687Y-52664D01*
X54622Y-52676D01*
X54569Y-52675D01*
X54504Y-52661D01*
X54455Y-52639D01*
X54401Y-52601D01*
X54363Y-52563D01*
X54327Y-52507D01*
X54308Y-52457D01*
X54296Y-52392D01*
X54296Y-52339D01*
X54310Y-52274D01*
X54331Y-52225D01*
X54369Y-52170D01*
X54407Y-52133D01*
X54463Y-52096D01*
X54512Y-52076D01*
X54578Y-52064D01*
X54630Y-52064D01*
X54696Y-52077D01*
X54745Y-52098D01*
X54800Y-52135D01*
X54837Y-52173D01*
X54875Y-52229D01*
X54895Y-52277D01*
X54908Y-52342D01*
X54908Y-52342D01*
G37*
G36*
X55055Y-53328D02*
X55054Y-53424D01*
X55033Y-53516D01*
X54999Y-53592D01*
X54945Y-53669D01*
X54884Y-53727D01*
X54804Y-53777D01*
X54727Y-53807D01*
X54634Y-53824D01*
X54551Y-53822D01*
X54458Y-53802D01*
X54382Y-53769D01*
X54304Y-53714D01*
X54247Y-53655D01*
X54195Y-53575D01*
X54165Y-53498D01*
X54148Y-53404D01*
X54149Y-53322D01*
X54169Y-53229D01*
X54201Y-53153D01*
X54255Y-53074D01*
X54314Y-53017D01*
X54394Y-52964D01*
X54470Y-52934D01*
X54564Y-52916D01*
X54646Y-52916D01*
X54740Y-52936D01*
X54815Y-52967D01*
X54895Y-53021D01*
X54952Y-53079D01*
X55006Y-53159D01*
X55037Y-53234D01*
X55055Y-53328D01*
X55055Y-53328D01*
G37*
G36*
X55079Y-37392D02*
X54605Y-37392D01*
X54605Y-37123D01*
X54605Y-37108D01*
X54605Y-37064D01*
X54605Y-37049D01*
X54605Y-36808D01*
X54605Y-36793D01*
X54605Y-36749D01*
X54605Y-36734D01*
X54605Y-36493D01*
X54605Y-36478D01*
X54605Y-36434D01*
X54605Y-36419D01*
X54605Y-36178D01*
X54605Y-36163D01*
X54605Y-36119D01*
X54605Y-36104D01*
X54605Y-35863D01*
X54605Y-35848D01*
X54605Y-35804D01*
X54605Y-35789D01*
X54605Y-35549D01*
X54605Y-35533D01*
X54605Y-35489D01*
X54605Y-35474D01*
X54605Y-35234D01*
X54605Y-35218D01*
X54605Y-35175D01*
X54605Y-35159D01*
X54605Y-34890D01*
X55079Y-34890D01*
X55079Y-35159D01*
X55079Y-35175D01*
X55079Y-35218D01*
X55079Y-35234D01*
X55079Y-35474D01*
X55079Y-35489D01*
X55079Y-35533D01*
X55079Y-35549D01*
X55079Y-35789D01*
X55079Y-35804D01*
X55079Y-35848D01*
X55079Y-35863D01*
X55079Y-36104D01*
X55079Y-36119D01*
X55079Y-36163D01*
X55079Y-36178D01*
X55079Y-36419D01*
X55079Y-36434D01*
X55079Y-36478D01*
X55079Y-36493D01*
X55079Y-36734D01*
X55079Y-36749D01*
X55079Y-36793D01*
X55079Y-36808D01*
X55079Y-37049D01*
X55079Y-37064D01*
X55079Y-37108D01*
X55079Y-37123D01*
X55079Y-37392D01*
X55079Y-37392D01*
G37*
G36*
X55245Y-45416D02*
X54675Y-45416D01*
X54675Y-45046D01*
X55245Y-45046D01*
X55245Y-45416D01*
X55245Y-45416D01*
G37*
G36*
X55245Y-46016D02*
X54675Y-46016D01*
X54675Y-45646D01*
X55245Y-45646D01*
X55245Y-46016D01*
X55245Y-46016D01*
G37*
G36*
X55265Y-39097D02*
X54695Y-39097D01*
X54695Y-38727D01*
X55265Y-38727D01*
X55265Y-39097D01*
X55265Y-39097D01*
G37*
G36*
X55265Y-39697D02*
X54695Y-39697D01*
X54695Y-39327D01*
X55265Y-39327D01*
X55265Y-39697D01*
X55265Y-39697D01*
G37*
G36*
X55495Y-32745D02*
X55125Y-32745D01*
X55125Y-32466D01*
X55125Y-32451D01*
X55119Y-32437D01*
X55108Y-32426D01*
X55094Y-32420D01*
X55079Y-32420D01*
X55064Y-32426D01*
X55054Y-32437D01*
X55048Y-32451D01*
X55033Y-32516D01*
X54999Y-32592D01*
X54945Y-32669D01*
X54884Y-32727D01*
X54804Y-32777D01*
X54727Y-32807D01*
X54634Y-32824D01*
X54551Y-32822D01*
X54458Y-32802D01*
X54382Y-32769D01*
X54304Y-32714D01*
X54247Y-32655D01*
X54195Y-32575D01*
X54165Y-32498D01*
X54164Y-32492D01*
X54158Y-32477D01*
X54147Y-32466D01*
X54133Y-32461D01*
X54118Y-32461D01*
X54103Y-32466D01*
X54093Y-32477D01*
X54088Y-32489D01*
X53717Y-32489D01*
X53717Y-31919D01*
X54087Y-31919D01*
X54087Y-32237D01*
X54087Y-32252D01*
X54093Y-32266D01*
X54103Y-32277D01*
X54118Y-32283D01*
X54133Y-32283D01*
X54147Y-32277D01*
X54158Y-32266D01*
X54164Y-32252D01*
X54169Y-32229D01*
X54201Y-32153D01*
X54255Y-32074D01*
X54314Y-32017D01*
X54394Y-31964D01*
X54470Y-31934D01*
X54564Y-31916D01*
X54646Y-31916D01*
X54740Y-31936D01*
X54815Y-31967D01*
X54895Y-32021D01*
X54952Y-32079D01*
X55006Y-32159D01*
X55037Y-32234D01*
X55048Y-32290D01*
X55054Y-32304D01*
X55064Y-32315D01*
X55079Y-32321D01*
X55094Y-32321D01*
X55108Y-32315D01*
X55119Y-32304D01*
X55125Y-32290D01*
X55125Y-32275D01*
X55125Y-32175D01*
X55495Y-32175D01*
X55495Y-32745D01*
X55495Y-32745D01*
G37*
G36*
X55631Y-43681D02*
X55629Y-43705D01*
X55622Y-43726D01*
X55611Y-43747D01*
X55596Y-43764D01*
X55578Y-43779D01*
X55558Y-43790D01*
X55536Y-43796D01*
X55505Y-43799D01*
X55124Y-43799D01*
X55121Y-43799D01*
X55115Y-43799D01*
X55114Y-43799D01*
X55092Y-43796D01*
X55091Y-43796D01*
X55091Y-43796D01*
X55086Y-43794D01*
X55071Y-43794D01*
X55056Y-43800D01*
X55051Y-43805D01*
X55051Y-43805D01*
X55040Y-43816D01*
X55034Y-43830D01*
X55034Y-43846D01*
X55037Y-43853D01*
X55040Y-43883D01*
X55040Y-44265D01*
X55040Y-44267D01*
X55039Y-44274D01*
X55039Y-44274D01*
X55036Y-44297D01*
X55036Y-44297D01*
X55036Y-44298D01*
X55030Y-44319D01*
X55018Y-44340D01*
X55004Y-44357D01*
X54985Y-44372D01*
X54965Y-44382D01*
X54943Y-44389D01*
X54920Y-44391D01*
X54897Y-44389D01*
X54875Y-44382D01*
X54855Y-44371D01*
X54844Y-44362D01*
X54830Y-44356D01*
X54815Y-44356D01*
X54800Y-44362D01*
X54788Y-44372D01*
X54768Y-44382D01*
X54746Y-44389D01*
X54723Y-44391D01*
X54700Y-44389D01*
X54678Y-44382D01*
X54658Y-44371D01*
X54647Y-44362D01*
X54633Y-44356D01*
X54618Y-44356D01*
X54604Y-44362D01*
X54591Y-44372D01*
X54572Y-44382D01*
X54549Y-44389D01*
X54527Y-44391D01*
X54503Y-44389D01*
X54481Y-44382D01*
X54461Y-44371D01*
X54450Y-44362D01*
X54436Y-44356D01*
X54421Y-44356D01*
X54407Y-44362D01*
X54395Y-44372D01*
X54375Y-44382D01*
X54352Y-44389D01*
X54330Y-44391D01*
X54306Y-44389D01*
X54285Y-44382D01*
X54264Y-44371D01*
X54254Y-44362D01*
X54239Y-44356D01*
X54224Y-44356D01*
X54210Y-44362D01*
X54198Y-44372D01*
X54178Y-44382D01*
X54155Y-44389D01*
X54133Y-44391D01*
X54109Y-44389D01*
X54088Y-44382D01*
X54067Y-44371D01*
X54057Y-44362D01*
X54043Y-44356D01*
X54027Y-44356D01*
X54013Y-44362D01*
X54001Y-44372D01*
X53981Y-44382D01*
X53958Y-44389D01*
X53936Y-44391D01*
X53913Y-44389D01*
X53891Y-44382D01*
X53870Y-44371D01*
X53860Y-44362D01*
X53846Y-44356D01*
X53830Y-44356D01*
X53816Y-44362D01*
X53804Y-44372D01*
X53784Y-44382D01*
X53761Y-44389D01*
X53739Y-44391D01*
X53716Y-44389D01*
X53694Y-44382D01*
X53673Y-44371D01*
X53663Y-44362D01*
X53649Y-44356D01*
X53634Y-44356D01*
X53619Y-44362D01*
X53607Y-44372D01*
X53587Y-44382D01*
X53565Y-44389D01*
X53542Y-44391D01*
X53519Y-44389D01*
X53497Y-44382D01*
X53477Y-44371D01*
X53466Y-44362D01*
X53452Y-44356D01*
X53437Y-44356D01*
X53422Y-44362D01*
X53410Y-44372D01*
X53391Y-44382D01*
X53368Y-44389D01*
X53345Y-44391D01*
X53322Y-44389D01*
X53300Y-44382D01*
X53280Y-44371D01*
X53269Y-44362D01*
X53255Y-44356D01*
X53240Y-44356D01*
X53226Y-44362D01*
X53213Y-44372D01*
X53194Y-44382D01*
X53171Y-44389D01*
X53149Y-44391D01*
X53125Y-44389D01*
X53104Y-44382D01*
X53083Y-44371D01*
X53073Y-44362D01*
X53058Y-44356D01*
X53043Y-44356D01*
X53029Y-44362D01*
X53017Y-44372D01*
X52997Y-44382D01*
X52974Y-44389D01*
X52952Y-44391D01*
X52928Y-44389D01*
X52907Y-44382D01*
X52886Y-44371D01*
X52869Y-44356D01*
X52854Y-44338D01*
X52843Y-44318D01*
X52836Y-44296D01*
X52833Y-44265D01*
X52833Y-43883D01*
X52833Y-43881D01*
X52834Y-43875D01*
X52834Y-43874D01*
X52837Y-43851D01*
X52837Y-43851D01*
X52837Y-43851D01*
X52838Y-43846D01*
X52838Y-43830D01*
X52833Y-43816D01*
X52828Y-43811D01*
X52828Y-43811D01*
X52817Y-43800D01*
X52802Y-43794D01*
X52787Y-43794D01*
X52780Y-43796D01*
X52749Y-43799D01*
X52368Y-43799D01*
X52365Y-43799D01*
X52359Y-43799D01*
X52359Y-43799D01*
X52336Y-43796D01*
X52335Y-43796D01*
X52335Y-43796D01*
X52314Y-43789D01*
X52293Y-43778D01*
X52276Y-43764D01*
X52261Y-43745D01*
X52251Y-43725D01*
X52244Y-43702D01*
X52242Y-43680D01*
X52244Y-43657D01*
X52251Y-43635D01*
X52262Y-43614D01*
X52271Y-43604D01*
X52277Y-43590D01*
X52277Y-43574D01*
X52271Y-43560D01*
X52261Y-43548D01*
X52251Y-43528D01*
X52244Y-43506D01*
X52242Y-43483D01*
X52244Y-43460D01*
X52251Y-43438D01*
X52262Y-43418D01*
X52271Y-43407D01*
X52277Y-43393D01*
X52277Y-43378D01*
X52271Y-43363D01*
X52261Y-43351D01*
X52251Y-43331D01*
X52244Y-43309D01*
X52242Y-43286D01*
X52244Y-43263D01*
X52251Y-43241D01*
X52262Y-43221D01*
X52271Y-43210D01*
X52277Y-43196D01*
X52277Y-43181D01*
X52271Y-43167D01*
X52261Y-43154D01*
X52251Y-43135D01*
X52244Y-43112D01*
X52242Y-43090D01*
X52244Y-43066D01*
X52251Y-43044D01*
X52262Y-43024D01*
X52271Y-43013D01*
X52277Y-42999D01*
X52277Y-42984D01*
X52271Y-42970D01*
X52261Y-42958D01*
X52251Y-42938D01*
X52244Y-42915D01*
X52242Y-42893D01*
X52244Y-42869D01*
X52251Y-42848D01*
X52262Y-42827D01*
X52271Y-42817D01*
X52277Y-42802D01*
X52277Y-42787D01*
X52271Y-42773D01*
X52261Y-42761D01*
X52251Y-42741D01*
X52244Y-42718D01*
X52242Y-42696D01*
X52244Y-42672D01*
X52251Y-42651D01*
X52262Y-42630D01*
X52271Y-42620D01*
X52277Y-42606D01*
X52277Y-42590D01*
X52271Y-42576D01*
X52261Y-42564D01*
X52251Y-42544D01*
X52244Y-42521D01*
X52242Y-42499D01*
X52244Y-42476D01*
X52251Y-42454D01*
X52262Y-42433D01*
X52271Y-42423D01*
X52277Y-42409D01*
X52277Y-42393D01*
X52271Y-42379D01*
X52261Y-42367D01*
X52251Y-42347D01*
X52244Y-42324D01*
X52242Y-42302D01*
X52244Y-42279D01*
X52251Y-42257D01*
X52262Y-42236D01*
X52271Y-42226D01*
X52277Y-42212D01*
X52277Y-42197D01*
X52271Y-42182D01*
X52261Y-42170D01*
X52251Y-42150D01*
X52244Y-42128D01*
X52242Y-42105D01*
X52244Y-42082D01*
X52251Y-42060D01*
X52262Y-42040D01*
X52271Y-42029D01*
X52277Y-42015D01*
X52277Y-42000D01*
X52271Y-41985D01*
X52261Y-41973D01*
X52251Y-41954D01*
X52244Y-41931D01*
X52242Y-41908D01*
X52244Y-41885D01*
X52251Y-41863D01*
X52262Y-41843D01*
X52271Y-41832D01*
X52277Y-41818D01*
X52277Y-41803D01*
X52271Y-41789D01*
X52261Y-41776D01*
X52251Y-41757D01*
X52244Y-41734D01*
X52242Y-41712D01*
X52244Y-41688D01*
X52251Y-41667D01*
X52262Y-41646D01*
X52277Y-41628D01*
X52295Y-41614D01*
X52315Y-41603D01*
X52337Y-41596D01*
X52368Y-41593D01*
X52749Y-41593D01*
X52752Y-41593D01*
X52758Y-41594D01*
X52759Y-41594D01*
X52781Y-41597D01*
X52782Y-41597D01*
X52782Y-41597D01*
X52787Y-41598D01*
X52802Y-41598D01*
X52817Y-41592D01*
X52822Y-41587D01*
X52822Y-41587D01*
X52833Y-41576D01*
X52839Y-41562D01*
X52839Y-41547D01*
X52836Y-41540D01*
X52833Y-41509D01*
X52833Y-41128D01*
X52833Y-41125D01*
X52834Y-41119D01*
X52834Y-41118D01*
X52837Y-41095D01*
X52837Y-41095D01*
X52837Y-41095D01*
X52843Y-41074D01*
X52855Y-41053D01*
X52869Y-41036D01*
X52888Y-41021D01*
X52908Y-41010D01*
X52930Y-41004D01*
X52953Y-41002D01*
X52976Y-41004D01*
X52998Y-41011D01*
X53018Y-41022D01*
X53029Y-41031D01*
X53043Y-41036D01*
X53058Y-41036D01*
X53073Y-41031D01*
X53085Y-41021D01*
X53105Y-41010D01*
X53127Y-41004D01*
X53150Y-41002D01*
X53173Y-41004D01*
X53195Y-41011D01*
X53215Y-41022D01*
X53226Y-41031D01*
X53240Y-41036D01*
X53255Y-41036D01*
X53269Y-41031D01*
X53282Y-41021D01*
X53301Y-41010D01*
X53324Y-41004D01*
X53347Y-41002D01*
X53370Y-41004D01*
X53392Y-41011D01*
X53412Y-41022D01*
X53423Y-41031D01*
X53437Y-41036D01*
X53452Y-41036D01*
X53466Y-41031D01*
X53478Y-41021D01*
X53498Y-41010D01*
X53521Y-41004D01*
X53543Y-41002D01*
X53567Y-41004D01*
X53588Y-41011D01*
X53609Y-41022D01*
X53619Y-41031D01*
X53634Y-41036D01*
X53649Y-41036D01*
X53663Y-41031D01*
X53675Y-41021D01*
X53695Y-41010D01*
X53718Y-41004D01*
X53740Y-41002D01*
X53764Y-41004D01*
X53785Y-41011D01*
X53806Y-41022D01*
X53816Y-41031D01*
X53830Y-41036D01*
X53846Y-41036D01*
X53860Y-41031D01*
X53872Y-41021D01*
X53892Y-41010D01*
X53915Y-41004D01*
X53937Y-41002D01*
X53960Y-41004D01*
X53982Y-41011D01*
X54003Y-41022D01*
X54013Y-41031D01*
X54027Y-41036D01*
X54043Y-41036D01*
X54057Y-41031D01*
X54069Y-41021D01*
X54089Y-41010D01*
X54112Y-41004D01*
X54134Y-41002D01*
X54157Y-41004D01*
X54179Y-41011D01*
X54200Y-41022D01*
X54210Y-41031D01*
X54224Y-41036D01*
X54239Y-41036D01*
X54254Y-41031D01*
X54266Y-41021D01*
X54286Y-41010D01*
X54308Y-41004D01*
X54331Y-41002D01*
X54354Y-41004D01*
X54376Y-41011D01*
X54396Y-41022D01*
X54407Y-41031D01*
X54421Y-41036D01*
X54436Y-41036D01*
X54451Y-41031D01*
X54463Y-41021D01*
X54482Y-41010D01*
X54505Y-41004D01*
X54528Y-41002D01*
X54551Y-41004D01*
X54573Y-41011D01*
X54593Y-41022D01*
X54604Y-41031D01*
X54618Y-41036D01*
X54633Y-41036D01*
X54647Y-41031D01*
X54660Y-41021D01*
X54679Y-41010D01*
X54702Y-41004D01*
X54724Y-41002D01*
X54748Y-41004D01*
X54769Y-41011D01*
X54790Y-41022D01*
X54800Y-41031D01*
X54815Y-41036D01*
X54830Y-41036D01*
X54844Y-41031D01*
X54856Y-41021D01*
X54876Y-41010D01*
X54899Y-41004D01*
X54921Y-41002D01*
X54945Y-41004D01*
X54966Y-41011D01*
X54987Y-41022D01*
X55004Y-41037D01*
X55019Y-41055D01*
X55030Y-41075D01*
X55037Y-41097D01*
X55040Y-41128D01*
X55040Y-41509D01*
X55040Y-41511D01*
X55039Y-41518D01*
X55039Y-41518D01*
X55036Y-41541D01*
X55036Y-41541D01*
X55036Y-41542D01*
X55035Y-41547D01*
X55035Y-41562D01*
X55041Y-41576D01*
X55045Y-41581D01*
X55046Y-41582D01*
X55056Y-41592D01*
X55071Y-41598D01*
X55086Y-41598D01*
X55093Y-41596D01*
X55124Y-41593D01*
X55505Y-41593D01*
X55508Y-41593D01*
X55514Y-41594D01*
X55514Y-41594D01*
X55537Y-41597D01*
X55538Y-41597D01*
X55538Y-41597D01*
X55559Y-41603D01*
X55580Y-41615D01*
X55597Y-41629D01*
X55612Y-41648D01*
X55622Y-41668D01*
X55629Y-41690D01*
X55631Y-41713D01*
X55629Y-41736D01*
X55622Y-41758D01*
X55611Y-41778D01*
X55602Y-41789D01*
X55596Y-41803D01*
X55596Y-41818D01*
X55602Y-41832D01*
X55612Y-41845D01*
X55622Y-41864D01*
X55629Y-41887D01*
X55631Y-41909D01*
X55629Y-41933D01*
X55622Y-41955D01*
X55611Y-41975D01*
X55602Y-41986D01*
X55596Y-42000D01*
X55596Y-42015D01*
X55602Y-42029D01*
X55612Y-42041D01*
X55622Y-42061D01*
X55629Y-42084D01*
X55631Y-42106D01*
X55629Y-42130D01*
X55622Y-42151D01*
X55611Y-42172D01*
X55602Y-42182D01*
X55596Y-42197D01*
X55596Y-42212D01*
X55602Y-42226D01*
X55612Y-42238D01*
X55622Y-42258D01*
X55629Y-42281D01*
X55631Y-42303D01*
X55629Y-42327D01*
X55622Y-42348D01*
X55611Y-42369D01*
X55602Y-42379D01*
X55596Y-42393D01*
X55596Y-42409D01*
X55602Y-42423D01*
X55612Y-42435D01*
X55622Y-42455D01*
X55629Y-42478D01*
X55631Y-42500D01*
X55629Y-42523D01*
X55622Y-42545D01*
X55611Y-42566D01*
X55602Y-42576D01*
X55596Y-42590D01*
X55596Y-42606D01*
X55602Y-42620D01*
X55612Y-42632D01*
X55622Y-42652D01*
X55629Y-42675D01*
X55631Y-42697D01*
X55629Y-42720D01*
X55622Y-42742D01*
X55611Y-42763D01*
X55602Y-42773D01*
X55596Y-42787D01*
X55596Y-42802D01*
X55602Y-42817D01*
X55612Y-42829D01*
X55622Y-42849D01*
X55629Y-42871D01*
X55631Y-42894D01*
X55629Y-42917D01*
X55622Y-42939D01*
X55611Y-42959D01*
X55602Y-42970D01*
X55596Y-42984D01*
X55596Y-42999D01*
X55602Y-43014D01*
X55612Y-43026D01*
X55622Y-43045D01*
X55629Y-43068D01*
X55631Y-43091D01*
X55629Y-43114D01*
X55622Y-43136D01*
X55611Y-43156D01*
X55602Y-43167D01*
X55596Y-43181D01*
X55596Y-43196D01*
X55602Y-43210D01*
X55612Y-43223D01*
X55622Y-43242D01*
X55629Y-43265D01*
X55631Y-43287D01*
X55629Y-43311D01*
X55622Y-43332D01*
X55611Y-43353D01*
X55602Y-43363D01*
X55596Y-43378D01*
X55596Y-43393D01*
X55602Y-43407D01*
X55612Y-43419D01*
X55622Y-43439D01*
X55629Y-43462D01*
X55631Y-43484D01*
X55629Y-43508D01*
X55622Y-43529D01*
X55611Y-43550D01*
X55602Y-43560D01*
X55596Y-43575D01*
X55596Y-43590D01*
X55602Y-43604D01*
X55612Y-43616D01*
X55622Y-43636D01*
X55629Y-43659D01*
X55631Y-43681D01*
X55631Y-43681D01*
G37*
G36*
X55748Y-37392D02*
X55274Y-37392D01*
X55274Y-37123D01*
X55274Y-37108D01*
X55274Y-37064D01*
X55274Y-37049D01*
X55274Y-36808D01*
X55274Y-36793D01*
X55274Y-36749D01*
X55274Y-36734D01*
X55274Y-36493D01*
X55274Y-36478D01*
X55274Y-36434D01*
X55274Y-36419D01*
X55274Y-36178D01*
X55274Y-36163D01*
X55274Y-36119D01*
X55274Y-36104D01*
X55274Y-35863D01*
X55274Y-35848D01*
X55274Y-35804D01*
X55274Y-35789D01*
X55274Y-35549D01*
X55274Y-35533D01*
X55274Y-35489D01*
X55274Y-35474D01*
X55274Y-35234D01*
X55274Y-35218D01*
X55274Y-35175D01*
X55274Y-35159D01*
X55274Y-34890D01*
X55748Y-34890D01*
X55748Y-35159D01*
X55748Y-35175D01*
X55748Y-35218D01*
X55748Y-35234D01*
X55748Y-35474D01*
X55748Y-35489D01*
X55748Y-35533D01*
X55748Y-35549D01*
X55748Y-35789D01*
X55748Y-35804D01*
X55748Y-35848D01*
X55748Y-35863D01*
X55748Y-36104D01*
X55748Y-36119D01*
X55748Y-36163D01*
X55748Y-36178D01*
X55748Y-36419D01*
X55748Y-36434D01*
X55748Y-36478D01*
X55748Y-36493D01*
X55748Y-36734D01*
X55748Y-36749D01*
X55748Y-36793D01*
X55748Y-36808D01*
X55748Y-37049D01*
X55748Y-37064D01*
X55748Y-37108D01*
X55748Y-37123D01*
X55748Y-37392D01*
X55748Y-37392D01*
G37*
G36*
X55790Y-41446D02*
X55420Y-41446D01*
X55420Y-40876D01*
X55790Y-40876D01*
X55790Y-41446D01*
X55790Y-41446D01*
G37*
G36*
X55908Y-52342D02*
X55907Y-52405D01*
X55892Y-52469D01*
X55870Y-52519D01*
X55832Y-52572D01*
X55793Y-52610D01*
X55738Y-52645D01*
X55687Y-52664D01*
X55622Y-52676D01*
X55569Y-52675D01*
X55504Y-52661D01*
X55455Y-52639D01*
X55401Y-52601D01*
X55363Y-52563D01*
X55327Y-52507D01*
X55308Y-52457D01*
X55296Y-52392D01*
X55296Y-52339D01*
X55310Y-52274D01*
X55331Y-52225D01*
X55369Y-52170D01*
X55407Y-52133D01*
X55463Y-52096D01*
X55512Y-52076D01*
X55578Y-52064D01*
X55630Y-52064D01*
X55696Y-52077D01*
X55745Y-52098D01*
X55800Y-52135D01*
X55837Y-52173D01*
X55875Y-52229D01*
X55895Y-52277D01*
X55908Y-52342D01*
X55908Y-52342D01*
G37*
G36*
X56055Y-51328D02*
X56054Y-51424D01*
X56033Y-51516D01*
X55999Y-51592D01*
X55945Y-51669D01*
X55884Y-51727D01*
X55804Y-51777D01*
X55727Y-51807D01*
X55634Y-51824D01*
X55551Y-51822D01*
X55458Y-51802D01*
X55382Y-51769D01*
X55304Y-51714D01*
X55247Y-51655D01*
X55195Y-51575D01*
X55165Y-51498D01*
X55148Y-51404D01*
X55149Y-51322D01*
X55169Y-51229D01*
X55201Y-51153D01*
X55255Y-51074D01*
X55314Y-51017D01*
X55394Y-50964D01*
X55470Y-50934D01*
X55564Y-50916D01*
X55646Y-50916D01*
X55740Y-50936D01*
X55815Y-50967D01*
X55895Y-51021D01*
X55952Y-51079D01*
X56006Y-51159D01*
X56037Y-51234D01*
X56055Y-51328D01*
X56055Y-51328D01*
G37*
G36*
X56095Y-32745D02*
X55725Y-32745D01*
X55725Y-32175D01*
X56095Y-32175D01*
X56095Y-32745D01*
X56095Y-32745D01*
G37*
G36*
X56390Y-41446D02*
X56020Y-41446D01*
X56020Y-40876D01*
X56390Y-40876D01*
X56390Y-41446D01*
X56390Y-41446D01*
G37*
G36*
X56508Y-33342D02*
X56507Y-33405D01*
X56492Y-33469D01*
X56470Y-33519D01*
X56432Y-33572D01*
X56393Y-33610D01*
X56338Y-33645D01*
X56287Y-33664D01*
X56222Y-33676D01*
X56169Y-33675D01*
X56104Y-33661D01*
X56055Y-33639D01*
X56001Y-33601D01*
X55963Y-33563D01*
X55927Y-33507D01*
X55908Y-33457D01*
X55896Y-33392D01*
X55896Y-33339D01*
X55910Y-33274D01*
X55931Y-33225D01*
X55969Y-33170D01*
X56007Y-33133D01*
X56063Y-33096D01*
X56112Y-33076D01*
X56178Y-33064D01*
X56230Y-33064D01*
X56296Y-33077D01*
X56345Y-33098D01*
X56400Y-33135D01*
X56437Y-33173D01*
X56475Y-33229D01*
X56495Y-33277D01*
X56508Y-33342D01*
X56508Y-33342D01*
G37*
G36*
X56655Y-34328D02*
X56654Y-34424D01*
X56633Y-34516D01*
X56599Y-34592D01*
X56545Y-34669D01*
X56484Y-34727D01*
X56404Y-34777D01*
X56327Y-34807D01*
X56234Y-34824D01*
X56151Y-34822D01*
X56058Y-34802D01*
X55982Y-34769D01*
X55904Y-34714D01*
X55847Y-34655D01*
X55795Y-34575D01*
X55765Y-34498D01*
X55748Y-34404D01*
X55749Y-34322D01*
X55769Y-34229D01*
X55801Y-34153D01*
X55855Y-34074D01*
X55914Y-34017D01*
X55994Y-33964D01*
X56070Y-33934D01*
X56164Y-33916D01*
X56246Y-33916D01*
X56340Y-33936D01*
X56415Y-33967D01*
X56495Y-34021D01*
X56552Y-34079D01*
X56606Y-34159D01*
X56637Y-34234D01*
X56655Y-34328D01*
X56655Y-34328D01*
G37*
G36*
X56754Y-45796D02*
X56385Y-45796D01*
X56385Y-45226D01*
X56744Y-45226D01*
X56754Y-45226D01*
X56754Y-45796D01*
X56754Y-45796D01*
G37*
G36*
X56908Y-52342D02*
X56907Y-52405D01*
X56892Y-52469D01*
X56870Y-52519D01*
X56832Y-52572D01*
X56793Y-52610D01*
X56738Y-52645D01*
X56687Y-52664D01*
X56622Y-52676D01*
X56569Y-52675D01*
X56504Y-52661D01*
X56455Y-52639D01*
X56401Y-52601D01*
X56363Y-52563D01*
X56327Y-52507D01*
X56308Y-52457D01*
X56296Y-52392D01*
X56296Y-52339D01*
X56310Y-52274D01*
X56331Y-52225D01*
X56369Y-52170D01*
X56407Y-52133D01*
X56463Y-52096D01*
X56512Y-52076D01*
X56578Y-52064D01*
X56630Y-52064D01*
X56696Y-52077D01*
X56745Y-52098D01*
X56800Y-52135D01*
X56837Y-52173D01*
X56875Y-52229D01*
X56895Y-52277D01*
X56908Y-52342D01*
X56908Y-52342D01*
G37*
G36*
X56993Y-44311D02*
X56440Y-44311D01*
X56440Y-43759D01*
X56993Y-43759D01*
X56993Y-44311D01*
X56993Y-44311D01*
G37*
G36*
X57055Y-53328D02*
X57054Y-53424D01*
X57033Y-53516D01*
X56999Y-53592D01*
X56945Y-53669D01*
X56884Y-53727D01*
X56804Y-53777D01*
X56727Y-53807D01*
X56634Y-53824D01*
X56551Y-53822D01*
X56458Y-53802D01*
X56382Y-53769D01*
X56304Y-53714D01*
X56247Y-53655D01*
X56195Y-53575D01*
X56165Y-53498D01*
X56148Y-53404D01*
X56149Y-53322D01*
X56169Y-53229D01*
X56201Y-53153D01*
X56255Y-53074D01*
X56314Y-53017D01*
X56394Y-52964D01*
X56470Y-52934D01*
X56564Y-52916D01*
X56646Y-52916D01*
X56740Y-52936D01*
X56815Y-52967D01*
X56895Y-53021D01*
X56952Y-53079D01*
X57006Y-53159D01*
X57037Y-53234D01*
X57055Y-53328D01*
X57055Y-53328D01*
G37*
G36*
X57354Y-45796D02*
X56985Y-45796D01*
X56985Y-45224D01*
X56985Y-45208D01*
X56979Y-45194D01*
X56968Y-45183D01*
X56954Y-45177D01*
X56938Y-45177D01*
X56801Y-45177D01*
X56790Y-45177D01*
X56790Y-44625D01*
X57343Y-44625D01*
X57343Y-45180D01*
X57343Y-45196D01*
X57349Y-45210D01*
X57354Y-45215D01*
X57354Y-45796D01*
X57354Y-45796D01*
G37*
G36*
X57508Y-33342D02*
X57507Y-33405D01*
X57492Y-33469D01*
X57470Y-33519D01*
X57432Y-33572D01*
X57393Y-33610D01*
X57338Y-33645D01*
X57287Y-33664D01*
X57222Y-33676D01*
X57169Y-33675D01*
X57104Y-33661D01*
X57055Y-33639D01*
X57001Y-33601D01*
X56963Y-33563D01*
X56927Y-33507D01*
X56908Y-33457D01*
X56896Y-33392D01*
X56896Y-33339D01*
X56910Y-33274D01*
X56931Y-33225D01*
X56969Y-33170D01*
X57007Y-33133D01*
X57063Y-33096D01*
X57112Y-33076D01*
X57178Y-33064D01*
X57230Y-33064D01*
X57296Y-33077D01*
X57345Y-33098D01*
X57400Y-33135D01*
X57437Y-33173D01*
X57475Y-33229D01*
X57495Y-33277D01*
X57508Y-33342D01*
X57508Y-33342D01*
G37*
G36*
X57693Y-44311D02*
X57140Y-44311D01*
X57140Y-43759D01*
X57693Y-43759D01*
X57693Y-44311D01*
X57693Y-44311D01*
G37*
G36*
X57908Y-52342D02*
X57907Y-52405D01*
X57892Y-52469D01*
X57870Y-52519D01*
X57832Y-52572D01*
X57793Y-52610D01*
X57738Y-52645D01*
X57687Y-52664D01*
X57622Y-52676D01*
X57569Y-52675D01*
X57504Y-52661D01*
X57455Y-52639D01*
X57401Y-52601D01*
X57363Y-52563D01*
X57327Y-52507D01*
X57308Y-52457D01*
X57296Y-52392D01*
X57296Y-52339D01*
X57310Y-52274D01*
X57331Y-52225D01*
X57369Y-52170D01*
X57407Y-52133D01*
X57463Y-52096D01*
X57512Y-52076D01*
X57578Y-52064D01*
X57630Y-52064D01*
X57696Y-52077D01*
X57745Y-52098D01*
X57800Y-52135D01*
X57837Y-52173D01*
X57875Y-52229D01*
X57895Y-52277D01*
X57908Y-52342D01*
X57908Y-52342D01*
G37*
G36*
X58055Y-51328D02*
X58054Y-51424D01*
X58033Y-51516D01*
X57999Y-51592D01*
X57945Y-51669D01*
X57884Y-51727D01*
X57804Y-51777D01*
X57727Y-51807D01*
X57634Y-51824D01*
X57551Y-51822D01*
X57458Y-51802D01*
X57382Y-51769D01*
X57304Y-51714D01*
X57247Y-51655D01*
X57195Y-51575D01*
X57165Y-51498D01*
X57148Y-51404D01*
X57149Y-51322D01*
X57169Y-51229D01*
X57201Y-51153D01*
X57255Y-51074D01*
X57314Y-51017D01*
X57394Y-50964D01*
X57470Y-50934D01*
X57564Y-50916D01*
X57646Y-50916D01*
X57740Y-50936D01*
X57815Y-50967D01*
X57895Y-51021D01*
X57952Y-51079D01*
X58006Y-51159D01*
X58037Y-51234D01*
X58055Y-51328D01*
X58055Y-51328D01*
G37*
G36*
X58093Y-32745D02*
X57723Y-32745D01*
X57723Y-32473D01*
X57723Y-32458D01*
X57717Y-32444D01*
X57707Y-32433D01*
X57692Y-32427D01*
X57677Y-32427D01*
X57663Y-32433D01*
X57652Y-32444D01*
X57646Y-32458D01*
X57633Y-32516D01*
X57599Y-32592D01*
X57545Y-32669D01*
X57484Y-32727D01*
X57404Y-32777D01*
X57327Y-32807D01*
X57234Y-32824D01*
X57151Y-32822D01*
X57058Y-32802D01*
X56982Y-32769D01*
X56904Y-32714D01*
X56847Y-32655D01*
X56832Y-32632D01*
X56821Y-32621D01*
X56807Y-32615D01*
X56792Y-32615D01*
X56777Y-32621D01*
X56767Y-32632D01*
X56761Y-32646D01*
X56761Y-32661D01*
X56761Y-32787D01*
X56191Y-32787D01*
X56191Y-32418D01*
X56702Y-32418D01*
X56717Y-32418D01*
X56731Y-32412D01*
X56742Y-32401D01*
X56748Y-32387D01*
X56749Y-32322D01*
X56768Y-32234D01*
X56768Y-32218D01*
X56762Y-32204D01*
X56751Y-32193D01*
X56737Y-32187D01*
X56722Y-32187D01*
X56191Y-32187D01*
X56191Y-31818D01*
X56761Y-31818D01*
X56761Y-32079D01*
X56761Y-32094D01*
X56767Y-32108D01*
X56777Y-32119D01*
X56792Y-32125D01*
X56807Y-32125D01*
X56821Y-32119D01*
X56832Y-32108D01*
X56855Y-32074D01*
X56914Y-32017D01*
X56994Y-31964D01*
X57070Y-31934D01*
X57164Y-31916D01*
X57246Y-31916D01*
X57340Y-31936D01*
X57415Y-31967D01*
X57495Y-32021D01*
X57552Y-32079D01*
X57606Y-32159D01*
X57637Y-32234D01*
X57646Y-32282D01*
X57652Y-32296D01*
X57663Y-32307D01*
X57677Y-32313D01*
X57692Y-32313D01*
X57707Y-32307D01*
X57717Y-32296D01*
X57723Y-32282D01*
X57723Y-32267D01*
X57723Y-32175D01*
X58093Y-32175D01*
X58093Y-32745D01*
X58093Y-32745D01*
G37*
G36*
X58211Y-32095D02*
X57841Y-32095D01*
X57841Y-31526D01*
X58211Y-31526D01*
X58211Y-32095D01*
X58211Y-32095D01*
G37*
G36*
X58508Y-33342D02*
X58507Y-33405D01*
X58492Y-33469D01*
X58470Y-33519D01*
X58432Y-33572D01*
X58393Y-33610D01*
X58338Y-33645D01*
X58287Y-33664D01*
X58222Y-33676D01*
X58169Y-33675D01*
X58104Y-33661D01*
X58055Y-33639D01*
X58001Y-33601D01*
X57963Y-33563D01*
X57927Y-33507D01*
X57908Y-33457D01*
X57896Y-33392D01*
X57896Y-33339D01*
X57910Y-33274D01*
X57931Y-33225D01*
X57969Y-33170D01*
X58007Y-33133D01*
X58063Y-33096D01*
X58112Y-33076D01*
X58178Y-33064D01*
X58230Y-33064D01*
X58296Y-33077D01*
X58345Y-33098D01*
X58400Y-33135D01*
X58437Y-33173D01*
X58475Y-33229D01*
X58495Y-33277D01*
X58508Y-33342D01*
X58508Y-33342D01*
G37*
G36*
X58555Y-47706D02*
X58553Y-47846D01*
X58524Y-47976D01*
X58474Y-48087D01*
X58397Y-48196D01*
X58309Y-48280D01*
X58197Y-48351D01*
X58084Y-48395D01*
X57952Y-48419D01*
X57831Y-48416D01*
X57700Y-48387D01*
X57589Y-48339D01*
X57479Y-48262D01*
X57395Y-48175D01*
X57323Y-48063D01*
X57278Y-47950D01*
X57254Y-47819D01*
X57256Y-47698D01*
X57284Y-47567D01*
X57331Y-47456D01*
X57407Y-47345D01*
X57493Y-47260D01*
X57606Y-47187D01*
X57717Y-47142D01*
X57849Y-47116D01*
X57970Y-47117D01*
X58102Y-47144D01*
X58212Y-47191D01*
X58324Y-47266D01*
X58409Y-47352D01*
X58483Y-47464D01*
X58529Y-47575D01*
X58555Y-47706D01*
X58555Y-47706D01*
G37*
G36*
X58655Y-34328D02*
X58654Y-34424D01*
X58633Y-34516D01*
X58599Y-34592D01*
X58545Y-34669D01*
X58484Y-34727D01*
X58404Y-34777D01*
X58327Y-34807D01*
X58234Y-34824D01*
X58151Y-34822D01*
X58058Y-34802D01*
X57982Y-34769D01*
X57904Y-34714D01*
X57847Y-34655D01*
X57795Y-34575D01*
X57765Y-34498D01*
X57748Y-34404D01*
X57749Y-34322D01*
X57769Y-34229D01*
X57801Y-34153D01*
X57855Y-34074D01*
X57914Y-34017D01*
X57994Y-33964D01*
X58070Y-33934D01*
X58164Y-33916D01*
X58246Y-33916D01*
X58340Y-33936D01*
X58415Y-33967D01*
X58495Y-34021D01*
X58552Y-34079D01*
X58606Y-34159D01*
X58637Y-34234D01*
X58655Y-34328D01*
X58655Y-34328D01*
G37*
G36*
X58908Y-52342D02*
X58907Y-52405D01*
X58892Y-52469D01*
X58870Y-52519D01*
X58832Y-52572D01*
X58793Y-52610D01*
X58738Y-52645D01*
X58687Y-52664D01*
X58622Y-52676D01*
X58569Y-52675D01*
X58504Y-52661D01*
X58455Y-52639D01*
X58401Y-52601D01*
X58363Y-52563D01*
X58327Y-52507D01*
X58308Y-52457D01*
X58296Y-52392D01*
X58296Y-52339D01*
X58310Y-52274D01*
X58331Y-52225D01*
X58369Y-52170D01*
X58407Y-52133D01*
X58463Y-52096D01*
X58512Y-52076D01*
X58578Y-52064D01*
X58630Y-52064D01*
X58696Y-52077D01*
X58745Y-52098D01*
X58800Y-52135D01*
X58837Y-52173D01*
X58875Y-52229D01*
X58895Y-52277D01*
X58908Y-52342D01*
X58908Y-52342D01*
G37*
G36*
X59055Y-53328D02*
X59054Y-53424D01*
X59033Y-53516D01*
X58999Y-53592D01*
X58945Y-53669D01*
X58884Y-53727D01*
X58804Y-53777D01*
X58727Y-53807D01*
X58634Y-53824D01*
X58551Y-53822D01*
X58458Y-53802D01*
X58382Y-53769D01*
X58304Y-53714D01*
X58247Y-53655D01*
X58195Y-53575D01*
X58165Y-53498D01*
X58148Y-53404D01*
X58149Y-53322D01*
X58169Y-53229D01*
X58201Y-53153D01*
X58255Y-53074D01*
X58314Y-53017D01*
X58394Y-52964D01*
X58470Y-52934D01*
X58564Y-52916D01*
X58646Y-52916D01*
X58740Y-52936D01*
X58815Y-52967D01*
X58895Y-53021D01*
X58952Y-53079D01*
X59006Y-53159D01*
X59037Y-53234D01*
X59055Y-53328D01*
X59055Y-53328D01*
G37*
G36*
X59508Y-33342D02*
X59507Y-33405D01*
X59492Y-33469D01*
X59470Y-33519D01*
X59432Y-33572D01*
X59393Y-33610D01*
X59338Y-33645D01*
X59287Y-33664D01*
X59222Y-33676D01*
X59169Y-33675D01*
X59104Y-33661D01*
X59055Y-33639D01*
X59001Y-33601D01*
X58963Y-33563D01*
X58927Y-33507D01*
X58908Y-33457D01*
X58896Y-33392D01*
X58896Y-33339D01*
X58910Y-33274D01*
X58931Y-33225D01*
X58969Y-33170D01*
X59007Y-33133D01*
X59063Y-33096D01*
X59112Y-33076D01*
X59178Y-33064D01*
X59230Y-33064D01*
X59296Y-33077D01*
X59345Y-33098D01*
X59400Y-33135D01*
X59437Y-33173D01*
X59475Y-33229D01*
X59495Y-33277D01*
X59508Y-33342D01*
X59508Y-33342D01*
G37*
G36*
X59655Y-32328D02*
X59654Y-32424D01*
X59633Y-32516D01*
X59599Y-32592D01*
X59545Y-32669D01*
X59484Y-32727D01*
X59404Y-32777D01*
X59327Y-32807D01*
X59234Y-32824D01*
X59151Y-32822D01*
X59058Y-32802D01*
X58982Y-32769D01*
X58904Y-32714D01*
X58847Y-32655D01*
X58795Y-32575D01*
X58770Y-32511D01*
X58764Y-32497D01*
X58753Y-32486D01*
X58739Y-32480D01*
X58724Y-32480D01*
X58710Y-32486D01*
X58699Y-32497D01*
X58693Y-32511D01*
X58693Y-32526D01*
X58693Y-32745D01*
X58323Y-32745D01*
X58323Y-32175D01*
X58693Y-32175D01*
X58693Y-32210D01*
X58693Y-32225D01*
X58699Y-32239D01*
X58710Y-32250D01*
X58724Y-32256D01*
X58739Y-32256D01*
X58753Y-32250D01*
X58764Y-32239D01*
X58800Y-32156D01*
X58806Y-32142D01*
X58806Y-32126D01*
X58800Y-32112D01*
X58789Y-32101D01*
X58775Y-32095D01*
X58760Y-32095D01*
X58441Y-32095D01*
X58441Y-31526D01*
X58811Y-31526D01*
X58811Y-32018D01*
X58811Y-32033D01*
X58817Y-32047D01*
X58828Y-32058D01*
X58842Y-32064D01*
X58857Y-32064D01*
X58872Y-32058D01*
X58914Y-32017D01*
X58994Y-31964D01*
X59070Y-31934D01*
X59164Y-31916D01*
X59246Y-31916D01*
X59340Y-31936D01*
X59415Y-31967D01*
X59495Y-32021D01*
X59552Y-32079D01*
X59606Y-32159D01*
X59637Y-32234D01*
X59655Y-32328D01*
X59655Y-32328D01*
G37*
G36*
X59908Y-52342D02*
X59907Y-52405D01*
X59892Y-52469D01*
X59870Y-52519D01*
X59832Y-52572D01*
X59793Y-52610D01*
X59738Y-52645D01*
X59687Y-52664D01*
X59622Y-52676D01*
X59569Y-52675D01*
X59504Y-52661D01*
X59455Y-52639D01*
X59401Y-52601D01*
X59363Y-52563D01*
X59327Y-52507D01*
X59308Y-52457D01*
X59296Y-52392D01*
X59296Y-52339D01*
X59310Y-52274D01*
X59331Y-52225D01*
X59369Y-52170D01*
X59407Y-52133D01*
X59463Y-52096D01*
X59512Y-52076D01*
X59578Y-52064D01*
X59630Y-52064D01*
X59696Y-52077D01*
X59745Y-52098D01*
X59800Y-52135D01*
X59837Y-52173D01*
X59875Y-52229D01*
X59895Y-52277D01*
X59908Y-52342D01*
X59908Y-52342D01*
G37*
G36*
X60055Y-51328D02*
X60054Y-51424D01*
X60033Y-51516D01*
X59999Y-51592D01*
X59945Y-51669D01*
X59884Y-51727D01*
X59804Y-51777D01*
X59727Y-51807D01*
X59634Y-51824D01*
X59551Y-51822D01*
X59458Y-51802D01*
X59382Y-51769D01*
X59304Y-51714D01*
X59247Y-51655D01*
X59195Y-51575D01*
X59165Y-51498D01*
X59148Y-51404D01*
X59149Y-51322D01*
X59169Y-51229D01*
X59201Y-51153D01*
X59255Y-51074D01*
X59314Y-51017D01*
X59394Y-50964D01*
X59470Y-50934D01*
X59564Y-50916D01*
X59646Y-50916D01*
X59740Y-50936D01*
X59815Y-50967D01*
X59895Y-51021D01*
X59952Y-51079D01*
X60006Y-51159D01*
X60037Y-51234D01*
X60055Y-51328D01*
X60055Y-51328D01*
G37*
G36*
X60508Y-33342D02*
X60507Y-33405D01*
X60492Y-33469D01*
X60470Y-33519D01*
X60432Y-33572D01*
X60393Y-33610D01*
X60338Y-33645D01*
X60287Y-33664D01*
X60222Y-33676D01*
X60169Y-33675D01*
X60104Y-33661D01*
X60055Y-33639D01*
X60001Y-33601D01*
X59963Y-33563D01*
X59927Y-33507D01*
X59908Y-33457D01*
X59896Y-33392D01*
X59896Y-33339D01*
X59910Y-33274D01*
X59931Y-33225D01*
X59969Y-33170D01*
X60007Y-33133D01*
X60063Y-33096D01*
X60112Y-33076D01*
X60178Y-33064D01*
X60230Y-33064D01*
X60296Y-33077D01*
X60345Y-33098D01*
X60400Y-33135D01*
X60437Y-33173D01*
X60475Y-33229D01*
X60495Y-33277D01*
X60508Y-33342D01*
X60508Y-33342D01*
G37*
G36*
X60655Y-34328D02*
X60654Y-34424D01*
X60633Y-34516D01*
X60599Y-34592D01*
X60545Y-34669D01*
X60484Y-34727D01*
X60404Y-34777D01*
X60327Y-34807D01*
X60234Y-34824D01*
X60151Y-34822D01*
X60058Y-34802D01*
X59982Y-34769D01*
X59904Y-34714D01*
X59847Y-34655D01*
X59795Y-34575D01*
X59765Y-34498D01*
X59748Y-34404D01*
X59749Y-34322D01*
X59769Y-34229D01*
X59801Y-34153D01*
X59855Y-34074D01*
X59914Y-34017D01*
X59994Y-33964D01*
X60070Y-33934D01*
X60164Y-33916D01*
X60246Y-33916D01*
X60340Y-33936D01*
X60415Y-33967D01*
X60495Y-34021D01*
X60552Y-34079D01*
X60606Y-34159D01*
X60637Y-34234D01*
X60655Y-34328D01*
X60655Y-34328D01*
G37*
G36*
X60908Y-52342D02*
X60907Y-52405D01*
X60892Y-52469D01*
X60870Y-52519D01*
X60832Y-52572D01*
X60793Y-52610D01*
X60738Y-52645D01*
X60687Y-52664D01*
X60622Y-52676D01*
X60569Y-52675D01*
X60504Y-52661D01*
X60455Y-52639D01*
X60401Y-52601D01*
X60363Y-52563D01*
X60327Y-52507D01*
X60308Y-52457D01*
X60296Y-52392D01*
X60296Y-52339D01*
X60310Y-52274D01*
X60331Y-52225D01*
X60369Y-52170D01*
X60407Y-52133D01*
X60463Y-52096D01*
X60512Y-52076D01*
X60578Y-52064D01*
X60630Y-52064D01*
X60696Y-52077D01*
X60745Y-52098D01*
X60800Y-52135D01*
X60837Y-52173D01*
X60875Y-52229D01*
X60895Y-52277D01*
X60908Y-52342D01*
X60908Y-52342D01*
G37*
G36*
X61055Y-53328D02*
X61054Y-53424D01*
X61033Y-53516D01*
X60999Y-53592D01*
X60945Y-53669D01*
X60884Y-53727D01*
X60804Y-53777D01*
X60727Y-53807D01*
X60634Y-53824D01*
X60551Y-53822D01*
X60458Y-53802D01*
X60382Y-53769D01*
X60304Y-53714D01*
X60247Y-53655D01*
X60195Y-53575D01*
X60165Y-53498D01*
X60148Y-53404D01*
X60149Y-53322D01*
X60169Y-53229D01*
X60201Y-53153D01*
X60255Y-53074D01*
X60314Y-53017D01*
X60394Y-52964D01*
X60470Y-52934D01*
X60564Y-52916D01*
X60646Y-52916D01*
X60740Y-52936D01*
X60815Y-52967D01*
X60895Y-53021D01*
X60952Y-53079D01*
X61006Y-53159D01*
X61037Y-53234D01*
X61055Y-53328D01*
X61055Y-53328D01*
G37*
G36*
X61508Y-33342D02*
X61507Y-33405D01*
X61492Y-33469D01*
X61470Y-33519D01*
X61432Y-33572D01*
X61393Y-33610D01*
X61338Y-33645D01*
X61287Y-33664D01*
X61222Y-33676D01*
X61169Y-33675D01*
X61104Y-33661D01*
X61055Y-33639D01*
X61001Y-33601D01*
X60963Y-33563D01*
X60927Y-33507D01*
X60908Y-33457D01*
X60896Y-33392D01*
X60896Y-33339D01*
X60910Y-33274D01*
X60931Y-33225D01*
X60969Y-33170D01*
X61007Y-33133D01*
X61063Y-33096D01*
X61112Y-33076D01*
X61178Y-33064D01*
X61230Y-33064D01*
X61296Y-33077D01*
X61345Y-33098D01*
X61400Y-33135D01*
X61437Y-33173D01*
X61475Y-33229D01*
X61495Y-33277D01*
X61508Y-33342D01*
X61508Y-33342D01*
G37*
G36*
X61655Y-32328D02*
X61654Y-32424D01*
X61633Y-32516D01*
X61599Y-32592D01*
X61545Y-32669D01*
X61484Y-32727D01*
X61404Y-32777D01*
X61327Y-32807D01*
X61234Y-32824D01*
X61151Y-32822D01*
X61058Y-32802D01*
X60982Y-32769D01*
X60904Y-32714D01*
X60847Y-32655D01*
X60795Y-32575D01*
X60765Y-32498D01*
X60748Y-32404D01*
X60749Y-32322D01*
X60769Y-32229D01*
X60801Y-32153D01*
X60855Y-32074D01*
X60914Y-32017D01*
X60994Y-31964D01*
X61070Y-31934D01*
X61164Y-31916D01*
X61246Y-31916D01*
X61340Y-31936D01*
X61415Y-31967D01*
X61495Y-32021D01*
X61552Y-32079D01*
X61606Y-32159D01*
X61637Y-32234D01*
X61655Y-32328D01*
X61655Y-32328D01*
G37*
G36*
X61908Y-52342D02*
X61907Y-52405D01*
X61892Y-52469D01*
X61870Y-52519D01*
X61832Y-52572D01*
X61793Y-52610D01*
X61738Y-52645D01*
X61687Y-52664D01*
X61622Y-52676D01*
X61569Y-52675D01*
X61504Y-52661D01*
X61455Y-52639D01*
X61401Y-52601D01*
X61363Y-52563D01*
X61327Y-52507D01*
X61308Y-52457D01*
X61296Y-52392D01*
X61296Y-52339D01*
X61310Y-52274D01*
X61331Y-52225D01*
X61369Y-52170D01*
X61407Y-52133D01*
X61463Y-52096D01*
X61512Y-52076D01*
X61578Y-52064D01*
X61630Y-52064D01*
X61696Y-52077D01*
X61745Y-52098D01*
X61800Y-52135D01*
X61837Y-52173D01*
X61875Y-52229D01*
X61895Y-52277D01*
X61908Y-52342D01*
X61908Y-52342D01*
G37*
G36*
X62055Y-51328D02*
X62054Y-51424D01*
X62033Y-51516D01*
X61999Y-51592D01*
X61945Y-51669D01*
X61884Y-51727D01*
X61804Y-51777D01*
X61727Y-51807D01*
X61634Y-51824D01*
X61551Y-51822D01*
X61458Y-51802D01*
X61382Y-51769D01*
X61304Y-51714D01*
X61247Y-51655D01*
X61195Y-51575D01*
X61165Y-51498D01*
X61148Y-51404D01*
X61149Y-51322D01*
X61169Y-51229D01*
X61201Y-51153D01*
X61255Y-51074D01*
X61314Y-51017D01*
X61394Y-50964D01*
X61470Y-50934D01*
X61564Y-50916D01*
X61646Y-50916D01*
X61740Y-50936D01*
X61815Y-50967D01*
X61895Y-51021D01*
X61952Y-51079D01*
X62006Y-51159D01*
X62037Y-51234D01*
X62055Y-51328D01*
X62055Y-51328D01*
G37*
G36*
X62508Y-33342D02*
X62507Y-33405D01*
X62492Y-33469D01*
X62470Y-33519D01*
X62432Y-33572D01*
X62393Y-33610D01*
X62338Y-33645D01*
X62287Y-33664D01*
X62222Y-33676D01*
X62169Y-33675D01*
X62104Y-33661D01*
X62055Y-33639D01*
X62001Y-33601D01*
X61963Y-33563D01*
X61927Y-33507D01*
X61908Y-33457D01*
X61896Y-33392D01*
X61896Y-33339D01*
X61910Y-33274D01*
X61931Y-33225D01*
X61969Y-33170D01*
X62007Y-33133D01*
X62063Y-33096D01*
X62112Y-33076D01*
X62178Y-33064D01*
X62230Y-33064D01*
X62296Y-33077D01*
X62345Y-33098D01*
X62400Y-33135D01*
X62437Y-33173D01*
X62475Y-33229D01*
X62495Y-33277D01*
X62508Y-33342D01*
X62508Y-33342D01*
G37*
G36*
X62655Y-34328D02*
X62654Y-34424D01*
X62633Y-34516D01*
X62599Y-34592D01*
X62545Y-34669D01*
X62484Y-34727D01*
X62404Y-34777D01*
X62327Y-34807D01*
X62234Y-34824D01*
X62151Y-34822D01*
X62058Y-34802D01*
X61982Y-34769D01*
X61904Y-34714D01*
X61847Y-34655D01*
X61795Y-34575D01*
X61765Y-34498D01*
X61748Y-34404D01*
X61749Y-34322D01*
X61769Y-34229D01*
X61801Y-34153D01*
X61855Y-34074D01*
X61914Y-34017D01*
X61994Y-33964D01*
X62070Y-33934D01*
X62164Y-33916D01*
X62246Y-33916D01*
X62340Y-33936D01*
X62415Y-33967D01*
X62495Y-34021D01*
X62552Y-34079D01*
X62606Y-34159D01*
X62637Y-34234D01*
X62655Y-34328D01*
X62655Y-34328D01*
G37*
G36*
X63217Y-31085D02*
X62121Y-31085D01*
X62106Y-31085D01*
X62092Y-31091D01*
X62081Y-31102D01*
X62075Y-31116D01*
X62075Y-31131D01*
X62075Y-31400D01*
X61925Y-31400D01*
X61909Y-31400D01*
X61806Y-31400D01*
X61791Y-31400D01*
X61728Y-31400D01*
X61712Y-31400D01*
X61610Y-31400D01*
X61594Y-31400D01*
X61531Y-31400D01*
X61515Y-31400D01*
X61413Y-31400D01*
X61397Y-31400D01*
X61334Y-31400D01*
X61319Y-31400D01*
X61216Y-31400D01*
X61200Y-31400D01*
X61137Y-31400D01*
X61122Y-31400D01*
X61019Y-31400D01*
X61004Y-31400D01*
X60940Y-31400D01*
X60925Y-31400D01*
X60822Y-31400D01*
X60807Y-31400D01*
X60743Y-31400D01*
X60728Y-31400D01*
X60625Y-31400D01*
X60610Y-31400D01*
X60547Y-31400D01*
X60531Y-31400D01*
X60428Y-31400D01*
X60413Y-31400D01*
X60350Y-31400D01*
X60334Y-31400D01*
X60232Y-31400D01*
X60216Y-31400D01*
X60153Y-31400D01*
X60137Y-31400D01*
X60035Y-31400D01*
X60019Y-31400D01*
X59956Y-31400D01*
X59941Y-31400D01*
X59838Y-31400D01*
X59823Y-31400D01*
X59759Y-31400D01*
X59744Y-31400D01*
X59641Y-31400D01*
X59626Y-31400D01*
X59562Y-31400D01*
X59547Y-31400D01*
X59444Y-31400D01*
X59429Y-31400D01*
X59365Y-31400D01*
X59350Y-31400D01*
X59247Y-31400D01*
X59232Y-31400D01*
X59169Y-31400D01*
X59153Y-31400D01*
X59050Y-31400D01*
X59035Y-31400D01*
X58972Y-31400D01*
X58956Y-31400D01*
X58854Y-31400D01*
X58838Y-31400D01*
X58775Y-31400D01*
X58760Y-31400D01*
X58657Y-31400D01*
X58641Y-31400D01*
X58578Y-31400D01*
X58563Y-31400D01*
X58460Y-31400D01*
X58445Y-31400D01*
X58381Y-31400D01*
X58366Y-31400D01*
X58263Y-31400D01*
X58248Y-31400D01*
X58184Y-31400D01*
X58169Y-31400D01*
X58066Y-31400D01*
X58051Y-31400D01*
X57987Y-31400D01*
X57972Y-31400D01*
X57869Y-31400D01*
X57854Y-31400D01*
X57791Y-31400D01*
X57775Y-31400D01*
X57673Y-31400D01*
X57657Y-31400D01*
X57594Y-31400D01*
X57578Y-31400D01*
X57476Y-31400D01*
X57460Y-31400D01*
X57397Y-31400D01*
X57382Y-31400D01*
X57279Y-31400D01*
X57263Y-31400D01*
X57200Y-31400D01*
X57185Y-31400D01*
X57082Y-31400D01*
X57067Y-31400D01*
X57003Y-31400D01*
X56988Y-31400D01*
X56885Y-31400D01*
X56870Y-31400D01*
X56806Y-31400D01*
X56791Y-31400D01*
X56688Y-31400D01*
X56673Y-31400D01*
X56610Y-31400D01*
X56594Y-31400D01*
X56491Y-31400D01*
X56476Y-31400D01*
X56413Y-31400D01*
X56397Y-31400D01*
X56295Y-31400D01*
X56279Y-31400D01*
X56129Y-31400D01*
X56129Y-31131D01*
X56129Y-31116D01*
X56123Y-31102D01*
X56112Y-31091D01*
X56098Y-31085D01*
X56082Y-31085D01*
X56062Y-31085D01*
X56047Y-31085D01*
X56033Y-31091D01*
X56022Y-31102D01*
X56016Y-31116D01*
X56016Y-31131D01*
X56016Y-31721D01*
X55646Y-31721D01*
X55646Y-31131D01*
X55646Y-31116D01*
X55640Y-31102D01*
X55629Y-31091D01*
X55615Y-31085D01*
X55600Y-31085D01*
X55462Y-31085D01*
X55447Y-31085D01*
X55433Y-31091D01*
X55422Y-31102D01*
X55416Y-31116D01*
X55416Y-31131D01*
X55416Y-31721D01*
X55046Y-31721D01*
X55046Y-31131D01*
X55046Y-31116D01*
X55040Y-31102D01*
X55029Y-31091D01*
X55015Y-31085D01*
X55000Y-31085D01*
X54993Y-31085D01*
X54977Y-31085D01*
X54963Y-31091D01*
X54952Y-31102D01*
X54946Y-31116D01*
X54946Y-31131D01*
X54946Y-31759D01*
X54227Y-31759D01*
X54227Y-30839D01*
X54941Y-30839D01*
X54956Y-30839D01*
X54970Y-30833D01*
X54981Y-30822D01*
X54987Y-30808D01*
X54987Y-30793D01*
X54987Y-30040D01*
X56130Y-30040D01*
X56130Y-30663D01*
X56130Y-30678D01*
X56136Y-30693D01*
X56147Y-30703D01*
X56161Y-30709D01*
X56176Y-30709D01*
X56279Y-30709D01*
X56295Y-30709D01*
X56397Y-30709D01*
X56413Y-30709D01*
X56476Y-30709D01*
X56491Y-30709D01*
X56594Y-30709D01*
X56610Y-30709D01*
X56673Y-30709D01*
X56688Y-30709D01*
X56791Y-30709D01*
X56806Y-30709D01*
X56870Y-30709D01*
X56885Y-30709D01*
X56988Y-30709D01*
X57003Y-30709D01*
X57067Y-30709D01*
X57082Y-30709D01*
X57185Y-30709D01*
X57200Y-30709D01*
X57263Y-30709D01*
X57279Y-30709D01*
X57382Y-30709D01*
X57397Y-30709D01*
X57460Y-30709D01*
X57476Y-30709D01*
X57578Y-30709D01*
X57594Y-30709D01*
X57657Y-30709D01*
X57673Y-30709D01*
X57775Y-30709D01*
X57791Y-30709D01*
X57854Y-30709D01*
X57869Y-30709D01*
X57972Y-30709D01*
X57987Y-30709D01*
X58051Y-30709D01*
X58066Y-30709D01*
X58169Y-30709D01*
X58184Y-30709D01*
X58248Y-30709D01*
X58263Y-30709D01*
X58366Y-30709D01*
X58381Y-30709D01*
X58445Y-30709D01*
X58460Y-30709D01*
X58563Y-30709D01*
X58578Y-30709D01*
X58641Y-30709D01*
X58657Y-30709D01*
X58760Y-30709D01*
X58775Y-30709D01*
X58838Y-30709D01*
X58854Y-30709D01*
X58956Y-30709D01*
X58972Y-30709D01*
X59035Y-30709D01*
X59050Y-30709D01*
X59153Y-30709D01*
X59169Y-30709D01*
X59232Y-30709D01*
X59247Y-30709D01*
X59350Y-30709D01*
X59365Y-30709D01*
X59429Y-30709D01*
X59444Y-30709D01*
X59547Y-30709D01*
X59562Y-30709D01*
X59626Y-30709D01*
X59641Y-30709D01*
X59744Y-30709D01*
X59759Y-30709D01*
X59823Y-30709D01*
X59838Y-30709D01*
X59941Y-30709D01*
X59956Y-30709D01*
X60019Y-30709D01*
X60035Y-30709D01*
X60137Y-30709D01*
X60153Y-30709D01*
X60216Y-30709D01*
X60232Y-30709D01*
X60334Y-30709D01*
X60350Y-30709D01*
X60413Y-30709D01*
X60428Y-30709D01*
X60531Y-30709D01*
X60547Y-30709D01*
X60610Y-30709D01*
X60625Y-30709D01*
X60728Y-30709D01*
X60743Y-30709D01*
X60807Y-30709D01*
X60822Y-30709D01*
X60925Y-30709D01*
X60940Y-30709D01*
X61004Y-30709D01*
X61019Y-30709D01*
X61122Y-30709D01*
X61137Y-30709D01*
X61200Y-30709D01*
X61216Y-30709D01*
X61319Y-30709D01*
X61334Y-30709D01*
X61397Y-30709D01*
X61413Y-30709D01*
X61515Y-30709D01*
X61531Y-30709D01*
X61594Y-30709D01*
X61610Y-30709D01*
X61712Y-30709D01*
X61728Y-30709D01*
X61791Y-30709D01*
X61806Y-30709D01*
X61909Y-30709D01*
X61925Y-30709D01*
X62027Y-30709D01*
X62043Y-30709D01*
X62057Y-30703D01*
X62068Y-30693D01*
X62074Y-30678D01*
X62074Y-30663D01*
X62074Y-30040D01*
X63217Y-30040D01*
X63217Y-31085D01*
X63217Y-31085D01*
G37*
G36*
X63508Y-33342D02*
X63507Y-33405D01*
X63492Y-33469D01*
X63470Y-33519D01*
X63432Y-33572D01*
X63393Y-33610D01*
X63338Y-33645D01*
X63287Y-33664D01*
X63222Y-33676D01*
X63169Y-33675D01*
X63104Y-33661D01*
X63055Y-33639D01*
X63001Y-33601D01*
X62963Y-33563D01*
X62927Y-33507D01*
X62908Y-33457D01*
X62896Y-33392D01*
X62896Y-33339D01*
X62910Y-33274D01*
X62931Y-33225D01*
X62969Y-33170D01*
X63007Y-33133D01*
X63063Y-33096D01*
X63112Y-33076D01*
X63178Y-33064D01*
X63230Y-33064D01*
X63296Y-33077D01*
X63345Y-33098D01*
X63400Y-33135D01*
X63437Y-33173D01*
X63475Y-33229D01*
X63495Y-33277D01*
X63508Y-33342D01*
X63508Y-33342D01*
G37*
G36*
X63655Y-32328D02*
X63654Y-32424D01*
X63633Y-32516D01*
X63599Y-32592D01*
X63545Y-32669D01*
X63484Y-32727D01*
X63404Y-32777D01*
X63327Y-32807D01*
X63234Y-32824D01*
X63151Y-32822D01*
X63058Y-32802D01*
X62982Y-32769D01*
X62904Y-32714D01*
X62847Y-32655D01*
X62795Y-32575D01*
X62765Y-32498D01*
X62748Y-32404D01*
X62749Y-32322D01*
X62769Y-32229D01*
X62801Y-32153D01*
X62855Y-32074D01*
X62914Y-32017D01*
X62994Y-31964D01*
X63070Y-31934D01*
X63164Y-31916D01*
X63246Y-31916D01*
X63340Y-31936D01*
X63415Y-31967D01*
X63495Y-32021D01*
X63552Y-32079D01*
X63606Y-32159D01*
X63637Y-32234D01*
X63655Y-32328D01*
X63655Y-32328D01*
G37*
G36*
X64117Y-31859D02*
X63747Y-31859D01*
X63747Y-31289D01*
X64117Y-31289D01*
X64117Y-31859D01*
X64117Y-31859D01*
G37*
G36*
X64508Y-33342D02*
X64507Y-33405D01*
X64492Y-33469D01*
X64470Y-33519D01*
X64432Y-33572D01*
X64393Y-33610D01*
X64338Y-33645D01*
X64287Y-33664D01*
X64222Y-33676D01*
X64169Y-33675D01*
X64104Y-33661D01*
X64055Y-33639D01*
X64001Y-33601D01*
X63963Y-33563D01*
X63927Y-33507D01*
X63908Y-33457D01*
X63896Y-33392D01*
X63896Y-33339D01*
X63910Y-33274D01*
X63931Y-33225D01*
X63969Y-33170D01*
X64007Y-33133D01*
X64063Y-33096D01*
X64112Y-33076D01*
X64178Y-33064D01*
X64230Y-33064D01*
X64296Y-33077D01*
X64345Y-33098D01*
X64400Y-33135D01*
X64437Y-33173D01*
X64475Y-33229D01*
X64495Y-33277D01*
X64508Y-33342D01*
X64508Y-33342D01*
G37*
G36*
X64595Y-52282D02*
X64591Y-52537D01*
X64539Y-52764D01*
X64449Y-52967D01*
X64314Y-53158D01*
X64154Y-53311D01*
X63956Y-53436D01*
X63749Y-53517D01*
X63519Y-53557D01*
X63297Y-53553D01*
X63069Y-53502D01*
X62866Y-53414D01*
X62674Y-53280D01*
X62520Y-53121D01*
X62393Y-52924D01*
X62311Y-52718D01*
X62269Y-52488D01*
X62272Y-52266D01*
X62321Y-52037D01*
X62408Y-51834D01*
X62541Y-51640D01*
X62698Y-51486D01*
X62895Y-51357D01*
X63100Y-51274D01*
X63330Y-51230D01*
X63551Y-51232D01*
X63781Y-51279D01*
X63985Y-51365D01*
X64180Y-51496D01*
X64335Y-51652D01*
X64465Y-51848D01*
X64549Y-52052D01*
X64595Y-52282D01*
X64595Y-52282D01*
G37*
G36*
X64655Y-34328D02*
X64654Y-34424D01*
X64633Y-34516D01*
X64599Y-34592D01*
X64545Y-34669D01*
X64484Y-34727D01*
X64404Y-34777D01*
X64327Y-34807D01*
X64234Y-34824D01*
X64151Y-34822D01*
X64058Y-34802D01*
X63982Y-34769D01*
X63904Y-34714D01*
X63847Y-34655D01*
X63795Y-34575D01*
X63765Y-34498D01*
X63748Y-34404D01*
X63749Y-34322D01*
X63769Y-34229D01*
X63801Y-34153D01*
X63855Y-34074D01*
X63914Y-34017D01*
X63994Y-33964D01*
X64070Y-33934D01*
X64164Y-33916D01*
X64246Y-33916D01*
X64340Y-33936D01*
X64415Y-33967D01*
X64495Y-34021D01*
X64552Y-34079D01*
X64606Y-34159D01*
X64637Y-34234D01*
X64655Y-34328D01*
X64655Y-34328D01*
G37*
G36*
X64717Y-31859D02*
X64347Y-31859D01*
X64347Y-31289D01*
X64717Y-31289D01*
X64717Y-31859D01*
X64717Y-31859D01*
G37*
G36*
X65341Y-29493D02*
X64403Y-29493D01*
X64391Y-29493D01*
X64388Y-29493D01*
X64375Y-29493D01*
X63437Y-29493D01*
X63437Y-28773D01*
X64375Y-28773D01*
X64388Y-28773D01*
X64391Y-28773D01*
X64403Y-28773D01*
X65341Y-28773D01*
X65341Y-29493D01*
X65341Y-29493D01*
G37*
G36*
X65341Y-30793D02*
X64403Y-30793D01*
X64391Y-30793D01*
X64388Y-30793D01*
X64375Y-30793D01*
X63437Y-30793D01*
X63437Y-30073D01*
X64375Y-30073D01*
X64388Y-30073D01*
X64391Y-30073D01*
X64403Y-30073D01*
X65341Y-30073D01*
X65341Y-30793D01*
X65341Y-30793D01*
G37*
G36*
X65508Y-33342D02*
X65507Y-33405D01*
X65492Y-33469D01*
X65470Y-33519D01*
X65432Y-33572D01*
X65393Y-33610D01*
X65338Y-33645D01*
X65287Y-33664D01*
X65222Y-33676D01*
X65169Y-33675D01*
X65104Y-33661D01*
X65055Y-33639D01*
X65001Y-33601D01*
X64963Y-33563D01*
X64927Y-33507D01*
X64908Y-33457D01*
X64896Y-33392D01*
X64896Y-33339D01*
X64910Y-33274D01*
X64931Y-33225D01*
X64969Y-33170D01*
X65007Y-33133D01*
X65063Y-33096D01*
X65112Y-33076D01*
X65178Y-33064D01*
X65230Y-33064D01*
X65296Y-33077D01*
X65345Y-33098D01*
X65400Y-33135D01*
X65437Y-33173D01*
X65475Y-33229D01*
X65495Y-33277D01*
X65508Y-33342D01*
X65508Y-33342D01*
G37*
G36*
X65655Y-32328D02*
X65654Y-32424D01*
X65633Y-32516D01*
X65599Y-32592D01*
X65545Y-32669D01*
X65484Y-32727D01*
X65404Y-32777D01*
X65327Y-32807D01*
X65234Y-32824D01*
X65151Y-32822D01*
X65058Y-32802D01*
X64982Y-32769D01*
X64904Y-32714D01*
X64847Y-32655D01*
X64795Y-32575D01*
X64765Y-32498D01*
X64748Y-32404D01*
X64749Y-32322D01*
X64769Y-32229D01*
X64801Y-32153D01*
X64855Y-32074D01*
X64914Y-32017D01*
X64994Y-31964D01*
X65064Y-31936D01*
X65078Y-31930D01*
X65089Y-31920D01*
X65095Y-31905D01*
X65095Y-31890D01*
X65089Y-31876D01*
X65078Y-31865D01*
X65064Y-31859D01*
X65048Y-31859D01*
X64908Y-31859D01*
X64908Y-31289D01*
X65278Y-31289D01*
X65278Y-31883D01*
X65278Y-31898D01*
X65284Y-31913D01*
X65295Y-31923D01*
X65309Y-31929D01*
X65340Y-31936D01*
X65415Y-31967D01*
X65495Y-32021D01*
X65552Y-32079D01*
X65606Y-32159D01*
X65637Y-32234D01*
X65655Y-32328D01*
X65655Y-32328D01*
G37*
G36*
X65878Y-31859D02*
X65508Y-31859D01*
X65508Y-31289D01*
X65878Y-31289D01*
X65878Y-31859D01*
X65878Y-31859D01*
G37*
G36*
X68138Y-33266D02*
X68134Y-33521D01*
X68083Y-33749D01*
X67992Y-33952D01*
X67858Y-34142D01*
X67697Y-34296D01*
X67500Y-34421D01*
X67293Y-34501D01*
X67062Y-34542D01*
X66841Y-34537D01*
X66612Y-34487D01*
X66409Y-34398D01*
X66217Y-34264D01*
X66063Y-34105D01*
X65936Y-33908D01*
X65855Y-33702D01*
X65812Y-33472D01*
X65815Y-33251D01*
X65864Y-33021D01*
X65951Y-32818D01*
X66084Y-32624D01*
X66242Y-32470D01*
X66438Y-32341D01*
X66643Y-32259D01*
X66874Y-32215D01*
X67094Y-32216D01*
X67325Y-32263D01*
X67528Y-32349D01*
X67723Y-32480D01*
X67878Y-32637D01*
X68008Y-32833D01*
X68092Y-33036D01*
X68138Y-33266D01*
X68138Y-33266D01*
G37*
M02*
