G04 (created by PCBNEW (2013-05-31 BZR 4019)-stable) date 23/02/2014 19:03:20*
%MOIN*%
G04 Gerber Fmt 3.4, Leading zero omitted, Abs format*
%FSLAX34Y34*%
G01*
G70*
G90*
G04 APERTURE LIST*
%ADD10C,0.00590551*%
%ADD11C,0.000393701*%
%ADD12C,0.0787402*%
%ADD13C,0.0492126*%
%ADD14R,0.15748X0.137795*%
%ADD15O,0.0452756X0.0551181*%
%ADD16R,0.0669291X0.0669291*%
%ADD17C,0.11811*%
%ADD18C,0.220472*%
%ADD19C,0.0275591*%
%ADD20C,0.019685*%
%ADD21C,0.011811*%
%ADD22C,0.00787402*%
G04 APERTURE END LIST*
G54D10*
G54D11*
X42173Y-51606D02*
X42173Y-27590D01*
X42173Y-27590D02*
G75*
G02X42685Y-27078I511J0D01*
G74*
G01*
X45716Y-52511D02*
X45716Y-53574D01*
X42685Y-52118D02*
X45322Y-52118D01*
X67645Y-27078D02*
X42685Y-27078D01*
X68157Y-34677D02*
X68157Y-27590D01*
X59889Y-35188D02*
X67645Y-35188D01*
X59496Y-49913D02*
X59496Y-35582D01*
X64102Y-50307D02*
X59889Y-50307D01*
X64614Y-53574D02*
X64614Y-50818D01*
X46228Y-54086D02*
X64102Y-54086D01*
X45322Y-52118D02*
G75*
G02X45716Y-52511I0J-393D01*
G74*
G01*
X42685Y-52118D02*
G75*
G02X42173Y-51606I0J511D01*
G74*
G01*
X67645Y-27078D02*
G75*
G02X68157Y-27590I0J-511D01*
G74*
G01*
X68157Y-34678D02*
G75*
G02X67645Y-35188I-511J0D01*
G74*
G01*
X59496Y-35581D02*
G75*
G02X59889Y-35188I393J0D01*
G74*
G01*
X59889Y-50307D02*
G75*
G02X59496Y-49913I0J393D01*
G74*
G01*
X64103Y-50307D02*
G75*
G02X64614Y-50818I0J-511D01*
G74*
G01*
X64614Y-53575D02*
G75*
G02X64102Y-54086I-511J0D01*
G74*
G01*
X46227Y-54086D02*
G75*
G02X45716Y-53574I0J511D01*
G74*
G01*
G54D12*
X54602Y-32370D03*
X53602Y-34370D03*
X52602Y-32370D03*
X51602Y-34370D03*
X50602Y-32370D03*
X49602Y-34370D03*
X48602Y-32370D03*
X47602Y-34370D03*
G54D13*
X54602Y-33370D03*
X53602Y-33370D03*
X52602Y-33370D03*
X51602Y-33370D03*
X50602Y-33370D03*
X49602Y-33370D03*
X48602Y-33370D03*
X47602Y-33370D03*
G54D12*
X52602Y-51370D03*
X51602Y-53370D03*
X50602Y-51370D03*
X49602Y-53370D03*
X48602Y-51370D03*
X47602Y-53370D03*
G54D13*
X52602Y-52370D03*
X51602Y-52370D03*
X50602Y-52370D03*
X49602Y-52370D03*
X48602Y-52370D03*
X47602Y-52370D03*
G54D12*
X65202Y-32370D03*
X64202Y-34370D03*
X63202Y-32370D03*
X62202Y-34370D03*
X61202Y-32370D03*
X60202Y-34370D03*
X59202Y-32370D03*
X58202Y-34370D03*
X56202Y-34370D03*
G54D13*
X65202Y-33370D03*
X64202Y-33370D03*
X63202Y-33370D03*
X62202Y-33370D03*
X61202Y-33370D03*
X60202Y-33370D03*
X59202Y-33370D03*
X58202Y-33370D03*
X57202Y-33370D03*
X56202Y-33370D03*
G54D12*
X57202Y-32370D03*
X61602Y-51370D03*
X60602Y-53370D03*
X59602Y-51370D03*
X58602Y-53370D03*
X57602Y-51370D03*
X56602Y-53370D03*
X55602Y-51370D03*
X54602Y-53370D03*
G54D13*
X61602Y-52370D03*
X60602Y-52370D03*
X59602Y-52370D03*
X58602Y-52370D03*
X57602Y-52370D03*
X56602Y-52370D03*
X55602Y-52370D03*
X54602Y-52370D03*
G54D14*
X44535Y-44204D03*
X44535Y-47590D03*
G54D15*
X43767Y-38614D03*
X43767Y-40582D03*
G54D16*
X42704Y-38338D03*
X42704Y-40858D03*
G54D17*
X49905Y-30267D03*
X57905Y-47767D03*
G54D18*
X66976Y-33377D03*
X43354Y-28259D03*
X63433Y-52393D03*
X43354Y-50937D03*
G54D19*
X57224Y-30492D03*
X47125Y-36161D03*
X48110Y-36161D03*
X51476Y-42657D03*
X57480Y-50196D03*
X66141Y-31574D03*
X63602Y-31574D03*
X56240Y-45511D03*
X54960Y-44822D03*
X47578Y-37460D03*
X54133Y-36929D03*
X55846Y-41712D03*
X48661Y-28011D03*
X45196Y-42598D03*
X51476Y-42047D03*
X51574Y-43720D03*
X45196Y-43070D03*
X44547Y-45295D03*
X52952Y-40354D03*
X52500Y-44822D03*
X53110Y-44822D03*
X48129Y-29192D03*
X47007Y-43582D03*
X48779Y-44192D03*
X55807Y-39704D03*
X52007Y-40826D03*
X54271Y-40216D03*
X45669Y-44055D03*
X46279Y-43444D03*
X54704Y-40216D03*
X54370Y-35039D03*
X58700Y-30413D03*
X54114Y-35354D03*
X58405Y-30118D03*
X53543Y-35669D03*
X58129Y-30413D03*
X46712Y-46082D03*
X47066Y-38720D03*
X57106Y-35944D03*
X59074Y-41771D03*
X58681Y-35944D03*
X58641Y-42755D03*
X55137Y-40216D03*
X51751Y-46476D03*
X48267Y-43720D03*
X55177Y-37519D03*
X57145Y-34842D03*
X49822Y-44153D03*
X52598Y-48818D03*
X52913Y-48503D03*
X53858Y-48188D03*
X54173Y-47874D03*
X55413Y-38169D03*
X58641Y-41771D03*
X58366Y-37952D03*
X58011Y-43602D03*
X49251Y-35669D03*
X54133Y-35984D03*
X59507Y-30413D03*
X49251Y-35275D03*
X53543Y-36299D03*
X59881Y-30413D03*
X55137Y-37913D03*
X58366Y-37559D03*
X51909Y-41614D03*
X56141Y-44035D03*
X49842Y-40275D03*
X48582Y-39271D03*
X48582Y-42263D03*
X53228Y-47559D03*
X52598Y-40944D03*
X51161Y-41299D03*
X52578Y-44055D03*
X52283Y-47244D03*
X65098Y-30964D03*
X64665Y-30964D03*
X64114Y-30964D03*
X63681Y-30964D03*
X49232Y-37460D03*
X50964Y-36279D03*
X58759Y-39724D03*
X47125Y-35649D03*
X59094Y-30472D03*
X53543Y-37244D03*
X46200Y-40944D03*
X50216Y-27913D03*
X63011Y-29881D03*
X62657Y-29881D03*
X62283Y-29881D03*
X61870Y-30472D03*
X60964Y-30472D03*
X60374Y-30472D03*
X55925Y-29881D03*
X55551Y-29881D03*
X55177Y-29881D03*
X56437Y-30472D03*
X53700Y-28129D03*
X53228Y-28129D03*
X56594Y-32933D03*
X55314Y-32913D03*
X50708Y-31417D03*
X52736Y-30944D03*
X51279Y-29606D03*
X50787Y-29606D03*
X57421Y-43602D03*
X53110Y-43523D03*
X54763Y-43523D03*
X53110Y-41870D03*
X53937Y-42696D03*
X54763Y-41870D03*
X47322Y-44114D03*
X51594Y-40354D03*
X53267Y-40059D03*
X52736Y-39566D03*
X54980Y-38582D03*
X54370Y-38169D03*
X54960Y-46161D03*
X53110Y-46161D03*
X52500Y-46161D03*
X42874Y-43070D03*
X42874Y-42598D03*
X42893Y-41594D03*
X50118Y-43720D03*
X50118Y-42657D03*
X50118Y-42047D03*
X47322Y-42283D03*
X45570Y-39744D03*
X44881Y-39429D03*
X44881Y-39015D03*
G54D20*
X52883Y-38946D02*
X55383Y-38946D01*
X55866Y-36751D02*
X55413Y-36299D01*
X55866Y-38464D02*
X55866Y-36751D01*
X55383Y-38946D02*
X55866Y-38464D01*
X57480Y-50196D02*
X54212Y-50196D01*
X54114Y-47204D02*
X54114Y-46830D01*
X53366Y-47952D02*
X54114Y-47204D01*
X53366Y-49350D02*
X53366Y-47952D01*
X54212Y-50196D02*
X53366Y-49350D01*
X51505Y-39379D02*
X52450Y-39379D01*
X56338Y-31377D02*
X57224Y-30492D01*
X56338Y-32362D02*
X56338Y-31377D01*
X55413Y-33287D02*
X56338Y-32362D01*
X55413Y-36299D02*
X55413Y-33287D01*
X52450Y-39379D02*
X52883Y-38946D01*
X48110Y-36161D02*
X47125Y-36161D01*
X49232Y-36161D02*
X48110Y-36161D01*
X50314Y-37244D02*
X49232Y-36161D01*
X50314Y-38188D02*
X50314Y-37244D01*
X51505Y-39379D02*
X50314Y-38188D01*
X52992Y-42657D02*
X51476Y-42657D01*
X54114Y-43779D02*
X53080Y-42746D01*
X53080Y-42746D02*
X52992Y-42657D01*
X54114Y-46830D02*
X54114Y-43779D01*
G54D21*
X56240Y-45511D02*
X56200Y-45511D01*
X56200Y-45511D02*
X55511Y-44822D01*
X55511Y-44822D02*
X54960Y-44822D01*
X45196Y-43070D02*
X43779Y-43070D01*
X43641Y-45295D02*
X44547Y-45295D01*
X43366Y-45019D02*
X43641Y-45295D01*
X43366Y-43484D02*
X43366Y-45019D01*
X43779Y-43070D02*
X43366Y-43484D01*
X45196Y-42598D02*
X45196Y-31476D01*
X45196Y-31476D02*
X48661Y-28011D01*
X51476Y-42047D02*
X51279Y-42047D01*
X50728Y-42598D02*
X50728Y-43366D01*
X51279Y-42047D02*
X50728Y-42598D01*
X50728Y-43366D02*
X51220Y-43366D01*
X51220Y-43366D02*
X51574Y-43720D01*
G54D10*
G36*
X67913Y-34629D02*
X67621Y-34921D01*
X65722Y-34921D01*
X65722Y-32267D01*
X65643Y-32076D01*
X65497Y-31929D01*
X65362Y-31873D01*
X65362Y-30912D01*
X65322Y-30815D01*
X65248Y-30741D01*
X65151Y-30700D01*
X65046Y-30700D01*
X64949Y-30740D01*
X64881Y-30808D01*
X64814Y-30741D01*
X64718Y-30700D01*
X64613Y-30700D01*
X64516Y-30740D01*
X64441Y-30814D01*
X64401Y-30911D01*
X64401Y-31016D01*
X64441Y-31113D01*
X64515Y-31188D01*
X64612Y-31228D01*
X64717Y-31228D01*
X64814Y-31188D01*
X64881Y-31121D01*
X64948Y-31188D01*
X65045Y-31228D01*
X65150Y-31228D01*
X65247Y-31188D01*
X65321Y-31114D01*
X65362Y-31017D01*
X65362Y-30912D01*
X65362Y-31873D01*
X65306Y-31850D01*
X65099Y-31850D01*
X64908Y-31929D01*
X64762Y-32075D01*
X64682Y-32266D01*
X64682Y-32472D01*
X64761Y-32664D01*
X64907Y-32810D01*
X65098Y-32889D01*
X65305Y-32889D01*
X65496Y-32810D01*
X65642Y-32664D01*
X65721Y-32473D01*
X65722Y-32267D01*
X65722Y-34921D01*
X65574Y-34921D01*
X65574Y-33296D01*
X65517Y-33159D01*
X65413Y-33054D01*
X65276Y-32998D01*
X65128Y-32997D01*
X64991Y-33054D01*
X64887Y-33159D01*
X64830Y-33295D01*
X64830Y-33443D01*
X64886Y-33580D01*
X64991Y-33685D01*
X65128Y-33742D01*
X65276Y-33742D01*
X65412Y-33685D01*
X65517Y-33581D01*
X65574Y-33444D01*
X65574Y-33296D01*
X65574Y-34921D01*
X64722Y-34921D01*
X64722Y-34267D01*
X64643Y-34076D01*
X64574Y-34007D01*
X64574Y-33296D01*
X64517Y-33159D01*
X64413Y-33054D01*
X64377Y-33040D01*
X64377Y-30912D01*
X64337Y-30815D01*
X64263Y-30741D01*
X64166Y-30700D01*
X64061Y-30700D01*
X63964Y-30740D01*
X63897Y-30808D01*
X63830Y-30741D01*
X63733Y-30700D01*
X63628Y-30700D01*
X63531Y-30740D01*
X63457Y-30814D01*
X63417Y-30911D01*
X63417Y-31016D01*
X63457Y-31113D01*
X63531Y-31188D01*
X63628Y-31228D01*
X63733Y-31228D01*
X63830Y-31188D01*
X63897Y-31121D01*
X63964Y-31188D01*
X64061Y-31228D01*
X64166Y-31228D01*
X64263Y-31188D01*
X64337Y-31114D01*
X64377Y-31017D01*
X64377Y-30912D01*
X64377Y-33040D01*
X64276Y-32998D01*
X64128Y-32997D01*
X63991Y-33054D01*
X63887Y-33159D01*
X63830Y-33295D01*
X63830Y-33443D01*
X63886Y-33580D01*
X63991Y-33685D01*
X64128Y-33742D01*
X64276Y-33742D01*
X64412Y-33685D01*
X64517Y-33581D01*
X64574Y-33444D01*
X64574Y-33296D01*
X64574Y-34007D01*
X64497Y-33929D01*
X64306Y-33850D01*
X64099Y-33850D01*
X63908Y-33929D01*
X63762Y-34075D01*
X63722Y-34171D01*
X63722Y-32267D01*
X63643Y-32076D01*
X63497Y-31929D01*
X63306Y-31850D01*
X63275Y-31850D01*
X63275Y-29829D01*
X63235Y-29732D01*
X63161Y-29658D01*
X63064Y-29618D01*
X62959Y-29618D01*
X62862Y-29658D01*
X62834Y-29686D01*
X62807Y-29658D01*
X62710Y-29618D01*
X62605Y-29618D01*
X62508Y-29658D01*
X62470Y-29695D01*
X62433Y-29658D01*
X62336Y-29618D01*
X62231Y-29618D01*
X62134Y-29658D01*
X62059Y-29732D01*
X62019Y-29829D01*
X62019Y-29934D01*
X62059Y-30031D01*
X62133Y-30105D01*
X62230Y-30145D01*
X62335Y-30145D01*
X62432Y-30105D01*
X62470Y-30067D01*
X62507Y-30105D01*
X62604Y-30145D01*
X62709Y-30145D01*
X62806Y-30105D01*
X62834Y-30077D01*
X62862Y-30105D01*
X62959Y-30145D01*
X63064Y-30145D01*
X63161Y-30105D01*
X63235Y-30031D01*
X63275Y-29934D01*
X63275Y-29829D01*
X63275Y-31850D01*
X63099Y-31850D01*
X62908Y-31929D01*
X62762Y-32075D01*
X62682Y-32266D01*
X62682Y-32472D01*
X62761Y-32664D01*
X62907Y-32810D01*
X63098Y-32889D01*
X63305Y-32889D01*
X63496Y-32810D01*
X63642Y-32664D01*
X63721Y-32473D01*
X63722Y-32267D01*
X63722Y-34171D01*
X63682Y-34266D01*
X63682Y-34472D01*
X63761Y-34664D01*
X63907Y-34810D01*
X64098Y-34889D01*
X64305Y-34889D01*
X64496Y-34810D01*
X64642Y-34664D01*
X64721Y-34473D01*
X64722Y-34267D01*
X64722Y-34921D01*
X63574Y-34921D01*
X63574Y-33296D01*
X63517Y-33159D01*
X63413Y-33054D01*
X63276Y-32998D01*
X63128Y-32997D01*
X62991Y-33054D01*
X62887Y-33159D01*
X62830Y-33295D01*
X62830Y-33443D01*
X62886Y-33580D01*
X62991Y-33685D01*
X63128Y-33742D01*
X63276Y-33742D01*
X63412Y-33685D01*
X63517Y-33581D01*
X63574Y-33444D01*
X63574Y-33296D01*
X63574Y-34921D01*
X62722Y-34921D01*
X62722Y-34267D01*
X62643Y-34076D01*
X62574Y-34007D01*
X62574Y-33296D01*
X62517Y-33159D01*
X62413Y-33054D01*
X62276Y-32998D01*
X62133Y-32997D01*
X62133Y-30420D01*
X62093Y-30323D01*
X62019Y-30248D01*
X61922Y-30208D01*
X61817Y-30208D01*
X61720Y-30248D01*
X61646Y-30322D01*
X61606Y-30419D01*
X61606Y-30524D01*
X61646Y-30621D01*
X61720Y-30695D01*
X61817Y-30736D01*
X61922Y-30736D01*
X62019Y-30696D01*
X62093Y-30622D01*
X62133Y-30525D01*
X62133Y-30420D01*
X62133Y-32997D01*
X62128Y-32997D01*
X61991Y-33054D01*
X61887Y-33159D01*
X61830Y-33295D01*
X61830Y-33443D01*
X61886Y-33580D01*
X61991Y-33685D01*
X62128Y-33742D01*
X62276Y-33742D01*
X62412Y-33685D01*
X62517Y-33581D01*
X62574Y-33444D01*
X62574Y-33296D01*
X62574Y-34007D01*
X62497Y-33929D01*
X62306Y-33850D01*
X62099Y-33850D01*
X61908Y-33929D01*
X61762Y-34075D01*
X61722Y-34171D01*
X61722Y-32267D01*
X61643Y-32076D01*
X61497Y-31929D01*
X61306Y-31850D01*
X61228Y-31850D01*
X61228Y-30420D01*
X61188Y-30323D01*
X61114Y-30248D01*
X61017Y-30208D01*
X60912Y-30208D01*
X60815Y-30248D01*
X60741Y-30322D01*
X60700Y-30419D01*
X60700Y-30524D01*
X60740Y-30621D01*
X60814Y-30695D01*
X60911Y-30736D01*
X61016Y-30736D01*
X61113Y-30696D01*
X61188Y-30622D01*
X61228Y-30525D01*
X61228Y-30420D01*
X61228Y-31850D01*
X61099Y-31850D01*
X60908Y-31929D01*
X60762Y-32075D01*
X60682Y-32266D01*
X60682Y-32472D01*
X60761Y-32664D01*
X60907Y-32810D01*
X61098Y-32889D01*
X61305Y-32889D01*
X61496Y-32810D01*
X61642Y-32664D01*
X61721Y-32473D01*
X61722Y-32267D01*
X61722Y-34171D01*
X61682Y-34266D01*
X61682Y-34472D01*
X61761Y-34664D01*
X61907Y-34810D01*
X62098Y-34889D01*
X62305Y-34889D01*
X62496Y-34810D01*
X62642Y-34664D01*
X62721Y-34473D01*
X62722Y-34267D01*
X62722Y-34921D01*
X61574Y-34921D01*
X61574Y-33296D01*
X61517Y-33159D01*
X61413Y-33054D01*
X61276Y-32998D01*
X61128Y-32997D01*
X60991Y-33054D01*
X60887Y-33159D01*
X60830Y-33295D01*
X60830Y-33443D01*
X60886Y-33580D01*
X60991Y-33685D01*
X61128Y-33742D01*
X61276Y-33742D01*
X61412Y-33685D01*
X61517Y-33581D01*
X61574Y-33444D01*
X61574Y-33296D01*
X61574Y-34921D01*
X60722Y-34921D01*
X60722Y-34267D01*
X60643Y-34076D01*
X60637Y-34070D01*
X60637Y-30420D01*
X60597Y-30323D01*
X60523Y-30248D01*
X60426Y-30208D01*
X60321Y-30208D01*
X60224Y-30248D01*
X60150Y-30322D01*
X60140Y-30347D01*
X60105Y-30264D01*
X60031Y-30189D01*
X59934Y-30149D01*
X59829Y-30149D01*
X59732Y-30189D01*
X59694Y-30227D01*
X59657Y-30189D01*
X59560Y-30149D01*
X59455Y-30149D01*
X59358Y-30189D01*
X59284Y-30263D01*
X59276Y-30281D01*
X59244Y-30248D01*
X59147Y-30208D01*
X59042Y-30208D01*
X58945Y-30248D01*
X58926Y-30267D01*
X58924Y-30264D01*
X58850Y-30189D01*
X58753Y-30149D01*
X58669Y-30149D01*
X58669Y-30065D01*
X58629Y-29968D01*
X58555Y-29894D01*
X58458Y-29854D01*
X58353Y-29854D01*
X58256Y-29894D01*
X58182Y-29968D01*
X58141Y-30065D01*
X58141Y-30149D01*
X58077Y-30149D01*
X57980Y-30189D01*
X57906Y-30263D01*
X57866Y-30360D01*
X57866Y-30465D01*
X57906Y-30562D01*
X57980Y-30636D01*
X58077Y-30677D01*
X58182Y-30677D01*
X58279Y-30637D01*
X58353Y-30563D01*
X58393Y-30466D01*
X58393Y-30381D01*
X58437Y-30381D01*
X58436Y-30465D01*
X58477Y-30562D01*
X58551Y-30636D01*
X58648Y-30677D01*
X58753Y-30677D01*
X58850Y-30637D01*
X58869Y-30617D01*
X58870Y-30621D01*
X58944Y-30695D01*
X59041Y-30736D01*
X59146Y-30736D01*
X59243Y-30696D01*
X59317Y-30622D01*
X59325Y-30604D01*
X59358Y-30636D01*
X59455Y-30677D01*
X59560Y-30677D01*
X59657Y-30637D01*
X59694Y-30599D01*
X59732Y-30636D01*
X59829Y-30677D01*
X59934Y-30677D01*
X60031Y-30637D01*
X60105Y-30563D01*
X60115Y-30538D01*
X60150Y-30621D01*
X60224Y-30695D01*
X60321Y-30736D01*
X60426Y-30736D01*
X60523Y-30696D01*
X60597Y-30622D01*
X60637Y-30525D01*
X60637Y-30420D01*
X60637Y-34070D01*
X60574Y-34007D01*
X60574Y-33296D01*
X60517Y-33159D01*
X60413Y-33054D01*
X60276Y-32998D01*
X60128Y-32997D01*
X59991Y-33054D01*
X59887Y-33159D01*
X59830Y-33295D01*
X59830Y-33443D01*
X59886Y-33580D01*
X59991Y-33685D01*
X60128Y-33742D01*
X60276Y-33742D01*
X60412Y-33685D01*
X60517Y-33581D01*
X60574Y-33444D01*
X60574Y-33296D01*
X60574Y-34007D01*
X60497Y-33929D01*
X60306Y-33850D01*
X60099Y-33850D01*
X59908Y-33929D01*
X59762Y-34075D01*
X59722Y-34171D01*
X59722Y-32267D01*
X59643Y-32076D01*
X59497Y-31929D01*
X59306Y-31850D01*
X59099Y-31850D01*
X58908Y-31929D01*
X58762Y-32075D01*
X58682Y-32266D01*
X58682Y-32472D01*
X58761Y-32664D01*
X58907Y-32810D01*
X59098Y-32889D01*
X59305Y-32889D01*
X59496Y-32810D01*
X59642Y-32664D01*
X59721Y-32473D01*
X59722Y-32267D01*
X59722Y-34171D01*
X59682Y-34266D01*
X59682Y-34472D01*
X59761Y-34664D01*
X59907Y-34810D01*
X60098Y-34889D01*
X60305Y-34889D01*
X60496Y-34810D01*
X60642Y-34664D01*
X60721Y-34473D01*
X60722Y-34267D01*
X60722Y-34921D01*
X59574Y-34921D01*
X59574Y-33296D01*
X59517Y-33159D01*
X59413Y-33054D01*
X59276Y-32998D01*
X59128Y-32997D01*
X58991Y-33054D01*
X58887Y-33159D01*
X58830Y-33295D01*
X58830Y-33443D01*
X58886Y-33580D01*
X58991Y-33685D01*
X59128Y-33742D01*
X59276Y-33742D01*
X59412Y-33685D01*
X59517Y-33581D01*
X59574Y-33444D01*
X59574Y-33296D01*
X59574Y-34921D01*
X59251Y-34921D01*
X59251Y-41575D01*
X59224Y-41548D01*
X59127Y-41507D01*
X59023Y-41507D01*
X59023Y-39672D01*
X58983Y-39575D01*
X58944Y-39536D01*
X58944Y-35892D01*
X58904Y-35795D01*
X58830Y-35721D01*
X58733Y-35681D01*
X58722Y-35681D01*
X58722Y-34267D01*
X58643Y-34076D01*
X58574Y-34007D01*
X58574Y-33296D01*
X58517Y-33159D01*
X58413Y-33054D01*
X58276Y-32998D01*
X58128Y-32997D01*
X57991Y-33054D01*
X57887Y-33159D01*
X57830Y-33295D01*
X57830Y-33443D01*
X57886Y-33580D01*
X57991Y-33685D01*
X58128Y-33742D01*
X58276Y-33742D01*
X58412Y-33685D01*
X58517Y-33581D01*
X58574Y-33444D01*
X58574Y-33296D01*
X58574Y-34007D01*
X58497Y-33929D01*
X58306Y-33850D01*
X58099Y-33850D01*
X57908Y-33929D01*
X57762Y-34075D01*
X57682Y-34266D01*
X57682Y-34472D01*
X57761Y-34664D01*
X57907Y-34810D01*
X58098Y-34889D01*
X58305Y-34889D01*
X58496Y-34810D01*
X58642Y-34664D01*
X58721Y-34473D01*
X58722Y-34267D01*
X58722Y-35681D01*
X58628Y-35681D01*
X58531Y-35721D01*
X58457Y-35795D01*
X58417Y-35892D01*
X58417Y-35997D01*
X58457Y-36094D01*
X58531Y-36168D01*
X58628Y-36208D01*
X58733Y-36208D01*
X58830Y-36168D01*
X58904Y-36094D01*
X58944Y-35997D01*
X58944Y-35892D01*
X58944Y-39536D01*
X58909Y-39500D01*
X58812Y-39460D01*
X58707Y-39460D01*
X58629Y-39492D01*
X58629Y-37900D01*
X58589Y-37803D01*
X58542Y-37755D01*
X58589Y-37708D01*
X58629Y-37611D01*
X58629Y-37506D01*
X58589Y-37409D01*
X58515Y-37335D01*
X58418Y-37295D01*
X58313Y-37295D01*
X58216Y-37335D01*
X58142Y-37409D01*
X58102Y-37506D01*
X58102Y-37611D01*
X58142Y-37708D01*
X58189Y-37755D01*
X58142Y-37803D01*
X58102Y-37900D01*
X58102Y-38004D01*
X58142Y-38101D01*
X58216Y-38176D01*
X58313Y-38216D01*
X58418Y-38216D01*
X58515Y-38176D01*
X58589Y-38102D01*
X58629Y-38005D01*
X58629Y-37900D01*
X58629Y-39492D01*
X58610Y-39500D01*
X58536Y-39574D01*
X58496Y-39671D01*
X58496Y-39776D01*
X58536Y-39873D01*
X58610Y-39947D01*
X58707Y-39988D01*
X58812Y-39988D01*
X58909Y-39948D01*
X58983Y-39874D01*
X59023Y-39777D01*
X59023Y-39672D01*
X59023Y-41507D01*
X59022Y-41507D01*
X58925Y-41547D01*
X58858Y-41615D01*
X58791Y-41548D01*
X58694Y-41507D01*
X58589Y-41507D01*
X58492Y-41547D01*
X58418Y-41622D01*
X58377Y-41718D01*
X58377Y-41823D01*
X58417Y-41920D01*
X58492Y-41995D01*
X58589Y-42035D01*
X58693Y-42035D01*
X58790Y-41995D01*
X58858Y-41928D01*
X58925Y-41995D01*
X59022Y-42035D01*
X59127Y-42035D01*
X59224Y-41995D01*
X59251Y-41967D01*
X59251Y-50551D01*
X64055Y-50551D01*
X64055Y-51321D01*
X63678Y-51165D01*
X63189Y-51165D01*
X62738Y-51351D01*
X62392Y-51696D01*
X62204Y-52148D01*
X62204Y-52636D01*
X62391Y-53088D01*
X62736Y-53434D01*
X63187Y-53621D01*
X63676Y-53622D01*
X64055Y-53465D01*
X64055Y-53818D01*
X62122Y-53818D01*
X62122Y-51267D01*
X62043Y-51076D01*
X61897Y-50929D01*
X61706Y-50850D01*
X61499Y-50850D01*
X61308Y-50929D01*
X61162Y-51075D01*
X61082Y-51266D01*
X61082Y-51472D01*
X61161Y-51664D01*
X61307Y-51810D01*
X61498Y-51889D01*
X61705Y-51889D01*
X61896Y-51810D01*
X62042Y-51664D01*
X62121Y-51473D01*
X62122Y-51267D01*
X62122Y-53818D01*
X61974Y-53818D01*
X61974Y-52296D01*
X61917Y-52159D01*
X61813Y-52054D01*
X61676Y-51998D01*
X61528Y-51997D01*
X61391Y-52054D01*
X61287Y-52159D01*
X61230Y-52295D01*
X61230Y-52443D01*
X61286Y-52580D01*
X61391Y-52685D01*
X61528Y-52742D01*
X61676Y-52742D01*
X61812Y-52685D01*
X61917Y-52581D01*
X61974Y-52444D01*
X61974Y-52296D01*
X61974Y-53818D01*
X61130Y-53818D01*
X61130Y-53415D01*
X61107Y-53210D01*
X61072Y-53125D01*
X61006Y-53077D01*
X60974Y-53109D01*
X60974Y-52296D01*
X60917Y-52159D01*
X60813Y-52054D01*
X60676Y-51998D01*
X60528Y-51997D01*
X60391Y-52054D01*
X60287Y-52159D01*
X60230Y-52295D01*
X60230Y-52443D01*
X60286Y-52580D01*
X60391Y-52685D01*
X60528Y-52742D01*
X60676Y-52742D01*
X60812Y-52685D01*
X60917Y-52581D01*
X60974Y-52444D01*
X60974Y-52296D01*
X60974Y-53109D01*
X60894Y-53189D01*
X60894Y-52966D01*
X60846Y-52899D01*
X60648Y-52842D01*
X60442Y-52864D01*
X60358Y-52899D01*
X60310Y-52966D01*
X60602Y-53258D01*
X60894Y-52966D01*
X60894Y-53189D01*
X60713Y-53370D01*
X61006Y-53662D01*
X61072Y-53614D01*
X61130Y-53415D01*
X61130Y-53818D01*
X60862Y-53818D01*
X60894Y-53773D01*
X60602Y-53481D01*
X60491Y-53592D01*
X60491Y-53370D01*
X60198Y-53077D01*
X60132Y-53125D01*
X60122Y-53160D01*
X60122Y-51267D01*
X60043Y-51076D01*
X59897Y-50929D01*
X59706Y-50850D01*
X59499Y-50850D01*
X59308Y-50929D01*
X59162Y-51075D01*
X59082Y-51266D01*
X59082Y-51472D01*
X59161Y-51664D01*
X59307Y-51810D01*
X59498Y-51889D01*
X59705Y-51889D01*
X59896Y-51810D01*
X60042Y-51664D01*
X60121Y-51473D01*
X60122Y-51267D01*
X60122Y-53160D01*
X60074Y-53324D01*
X60097Y-53529D01*
X60132Y-53614D01*
X60198Y-53662D01*
X60491Y-53370D01*
X60491Y-53592D01*
X60310Y-53773D01*
X60342Y-53818D01*
X59974Y-53818D01*
X59974Y-52296D01*
X59917Y-52159D01*
X59813Y-52054D01*
X59676Y-51998D01*
X59528Y-51997D01*
X59391Y-52054D01*
X59287Y-52159D01*
X59230Y-52295D01*
X59230Y-52443D01*
X59286Y-52580D01*
X59391Y-52685D01*
X59528Y-52742D01*
X59676Y-52742D01*
X59812Y-52685D01*
X59917Y-52581D01*
X59974Y-52444D01*
X59974Y-52296D01*
X59974Y-53818D01*
X58877Y-53818D01*
X58896Y-53810D01*
X59042Y-53664D01*
X59121Y-53473D01*
X59122Y-53267D01*
X59043Y-53076D01*
X58974Y-53007D01*
X58974Y-52296D01*
X58917Y-52159D01*
X58905Y-52147D01*
X58905Y-42703D01*
X58865Y-42606D01*
X58791Y-42532D01*
X58694Y-42492D01*
X58589Y-42492D01*
X58492Y-42532D01*
X58418Y-42606D01*
X58377Y-42703D01*
X58377Y-42808D01*
X58417Y-42905D01*
X58492Y-42979D01*
X58589Y-43019D01*
X58693Y-43019D01*
X58790Y-42979D01*
X58865Y-42905D01*
X58905Y-42808D01*
X58905Y-42703D01*
X58905Y-52147D01*
X58813Y-52054D01*
X58676Y-51998D01*
X58622Y-51998D01*
X58622Y-47625D01*
X58513Y-47362D01*
X58311Y-47160D01*
X58275Y-47145D01*
X58275Y-43550D01*
X58235Y-43453D01*
X58161Y-43378D01*
X58064Y-43338D01*
X57959Y-43338D01*
X57862Y-43378D01*
X57788Y-43452D01*
X57748Y-43549D01*
X57747Y-43654D01*
X57788Y-43751D01*
X57862Y-43825D01*
X57959Y-43866D01*
X58064Y-43866D01*
X58161Y-43826D01*
X58235Y-43751D01*
X58275Y-43655D01*
X58275Y-43550D01*
X58275Y-47145D01*
X58048Y-47051D01*
X57763Y-47051D01*
X57685Y-47083D01*
X57685Y-43550D01*
X57645Y-43453D01*
X57570Y-43378D01*
X57473Y-43338D01*
X57409Y-43338D01*
X57409Y-34790D01*
X57369Y-34693D01*
X57295Y-34619D01*
X57198Y-34578D01*
X57093Y-34578D01*
X56996Y-34618D01*
X56922Y-34692D01*
X56881Y-34789D01*
X56881Y-34894D01*
X56921Y-34991D01*
X56996Y-35066D01*
X57092Y-35106D01*
X57197Y-35106D01*
X57294Y-35066D01*
X57369Y-34992D01*
X57409Y-34895D01*
X57409Y-34790D01*
X57409Y-43338D01*
X57370Y-43338D01*
X57370Y-35892D01*
X57330Y-35795D01*
X57255Y-35721D01*
X57158Y-35681D01*
X57054Y-35681D01*
X56957Y-35721D01*
X56882Y-35795D01*
X56842Y-35892D01*
X56842Y-35997D01*
X56882Y-36094D01*
X56956Y-36168D01*
X57053Y-36208D01*
X57158Y-36208D01*
X57255Y-36168D01*
X57329Y-36094D01*
X57370Y-35997D01*
X57370Y-35892D01*
X57370Y-43338D01*
X57369Y-43338D01*
X57272Y-43378D01*
X57197Y-43452D01*
X57157Y-43549D01*
X57157Y-43654D01*
X57197Y-43751D01*
X57271Y-43825D01*
X57368Y-43866D01*
X57473Y-43866D01*
X57570Y-43826D01*
X57644Y-43751D01*
X57684Y-43655D01*
X57685Y-43550D01*
X57685Y-47083D01*
X57500Y-47159D01*
X57298Y-47361D01*
X57189Y-47624D01*
X57188Y-47909D01*
X57297Y-48173D01*
X57499Y-48374D01*
X57762Y-48484D01*
X58047Y-48484D01*
X58310Y-48375D01*
X58512Y-48174D01*
X58621Y-47910D01*
X58622Y-47625D01*
X58622Y-51998D01*
X58528Y-51997D01*
X58391Y-52054D01*
X58287Y-52159D01*
X58230Y-52295D01*
X58230Y-52443D01*
X58286Y-52580D01*
X58391Y-52685D01*
X58528Y-52742D01*
X58676Y-52742D01*
X58812Y-52685D01*
X58917Y-52581D01*
X58974Y-52444D01*
X58974Y-52296D01*
X58974Y-53007D01*
X58897Y-52929D01*
X58706Y-52850D01*
X58499Y-52850D01*
X58308Y-52929D01*
X58162Y-53075D01*
X58130Y-53151D01*
X58130Y-51415D01*
X58107Y-51210D01*
X58072Y-51125D01*
X58006Y-51077D01*
X58000Y-51083D01*
X58000Y-50519D01*
X58000Y-49480D01*
X56405Y-49480D01*
X56405Y-43983D01*
X56365Y-43886D01*
X56291Y-43811D01*
X56194Y-43771D01*
X56089Y-43771D01*
X55992Y-43811D01*
X55918Y-43885D01*
X55877Y-43982D01*
X55877Y-44087D01*
X55917Y-44184D01*
X55992Y-44258D01*
X56089Y-44299D01*
X56193Y-44299D01*
X56290Y-44259D01*
X56365Y-44185D01*
X56405Y-44088D01*
X56405Y-43983D01*
X56405Y-49480D01*
X55224Y-49480D01*
X55224Y-46109D01*
X55184Y-46012D01*
X55110Y-45937D01*
X55027Y-45903D01*
X55027Y-43471D01*
X55027Y-41817D01*
X54987Y-41720D01*
X54913Y-41646D01*
X54816Y-41606D01*
X54711Y-41606D01*
X54614Y-41646D01*
X54540Y-41720D01*
X54500Y-41817D01*
X54499Y-41922D01*
X54540Y-42019D01*
X54614Y-42093D01*
X54711Y-42133D01*
X54816Y-42133D01*
X54913Y-42093D01*
X54987Y-42019D01*
X55027Y-41922D01*
X55027Y-41817D01*
X55027Y-43471D01*
X54987Y-43374D01*
X54913Y-43300D01*
X54816Y-43259D01*
X54711Y-43259D01*
X54614Y-43299D01*
X54540Y-43374D01*
X54500Y-43470D01*
X54499Y-43575D01*
X54540Y-43672D01*
X54614Y-43747D01*
X54711Y-43787D01*
X54816Y-43787D01*
X54913Y-43747D01*
X54987Y-43673D01*
X55027Y-43576D01*
X55027Y-43471D01*
X55027Y-45903D01*
X55013Y-45897D01*
X54908Y-45897D01*
X54811Y-45937D01*
X54737Y-46011D01*
X54696Y-46108D01*
X54696Y-46213D01*
X54736Y-46310D01*
X54811Y-46384D01*
X54907Y-46425D01*
X55012Y-46425D01*
X55109Y-46385D01*
X55184Y-46311D01*
X55224Y-46214D01*
X55224Y-46109D01*
X55224Y-49480D01*
X54456Y-49480D01*
X54456Y-40425D01*
X54435Y-40425D01*
X54488Y-40373D01*
X54555Y-40440D01*
X54652Y-40480D01*
X54756Y-40480D01*
X54853Y-40440D01*
X54921Y-40373D01*
X54988Y-40440D01*
X55085Y-40480D01*
X55190Y-40480D01*
X55287Y-40440D01*
X55361Y-40366D01*
X55401Y-40269D01*
X55401Y-40164D01*
X55361Y-40067D01*
X55287Y-39993D01*
X55190Y-39952D01*
X55085Y-39952D01*
X54988Y-39992D01*
X54921Y-40060D01*
X54854Y-39993D01*
X54757Y-39952D01*
X54652Y-39952D01*
X54555Y-39992D01*
X54488Y-40060D01*
X54421Y-39993D01*
X54324Y-39952D01*
X54219Y-39952D01*
X54122Y-39992D01*
X54048Y-40066D01*
X54007Y-40163D01*
X54007Y-40268D01*
X54047Y-40365D01*
X54107Y-40425D01*
X52881Y-40425D01*
X52881Y-39889D01*
X53063Y-39889D01*
X53044Y-39909D01*
X53003Y-40006D01*
X53003Y-40111D01*
X53043Y-40208D01*
X53118Y-40282D01*
X53215Y-40322D01*
X53319Y-40322D01*
X53416Y-40282D01*
X53491Y-40208D01*
X53531Y-40111D01*
X53531Y-40006D01*
X53491Y-39909D01*
X53471Y-39889D01*
X55619Y-39889D01*
X55657Y-39928D01*
X55754Y-39968D01*
X55859Y-39968D01*
X55956Y-39928D01*
X55995Y-39889D01*
X56425Y-39889D01*
X56425Y-34840D01*
X56496Y-34810D01*
X56642Y-34664D01*
X56721Y-34473D01*
X56722Y-34267D01*
X56643Y-34076D01*
X56497Y-33929D01*
X56425Y-33899D01*
X56425Y-33673D01*
X56517Y-33581D01*
X56574Y-33444D01*
X56574Y-33296D01*
X56533Y-33196D01*
X56594Y-33196D01*
X56646Y-33196D01*
X56646Y-33196D01*
X56871Y-33196D01*
X56830Y-33295D01*
X56830Y-33443D01*
X56886Y-33580D01*
X56991Y-33685D01*
X57128Y-33742D01*
X57276Y-33742D01*
X57412Y-33685D01*
X57517Y-33581D01*
X57574Y-33444D01*
X57574Y-33296D01*
X57533Y-33196D01*
X57606Y-33196D01*
X57606Y-32701D01*
X57642Y-32664D01*
X57721Y-32473D01*
X57722Y-32267D01*
X57643Y-32076D01*
X57606Y-32039D01*
X57606Y-30188D01*
X56189Y-30188D01*
X56189Y-29829D01*
X56148Y-29732D01*
X56074Y-29658D01*
X55977Y-29618D01*
X55872Y-29618D01*
X55775Y-29658D01*
X55738Y-29695D01*
X55700Y-29658D01*
X55603Y-29618D01*
X55498Y-29618D01*
X55401Y-29658D01*
X55364Y-29695D01*
X55326Y-29658D01*
X55229Y-29618D01*
X55124Y-29618D01*
X55027Y-29658D01*
X54953Y-29732D01*
X54913Y-29829D01*
X54913Y-29934D01*
X54953Y-30031D01*
X55027Y-30105D01*
X55124Y-30145D01*
X55229Y-30145D01*
X55326Y-30105D01*
X55364Y-30067D01*
X55401Y-30105D01*
X55498Y-30145D01*
X55603Y-30145D01*
X55700Y-30105D01*
X55738Y-30067D01*
X55775Y-30105D01*
X55872Y-30145D01*
X55977Y-30145D01*
X56074Y-30105D01*
X56148Y-30031D01*
X56188Y-29934D01*
X56189Y-29829D01*
X56189Y-30188D01*
X54598Y-30188D01*
X54598Y-31850D01*
X54499Y-31850D01*
X54308Y-31929D01*
X54162Y-32075D01*
X54082Y-32266D01*
X54082Y-32472D01*
X54161Y-32664D01*
X54307Y-32810D01*
X54498Y-32889D01*
X54598Y-32889D01*
X54598Y-32998D01*
X54528Y-32997D01*
X54391Y-33054D01*
X54287Y-33159D01*
X54230Y-33295D01*
X54230Y-33443D01*
X54286Y-33580D01*
X54391Y-33685D01*
X54528Y-33742D01*
X54598Y-33742D01*
X54598Y-34901D01*
X54593Y-34890D01*
X54519Y-34815D01*
X54422Y-34775D01*
X54317Y-34775D01*
X54220Y-34815D01*
X54146Y-34889D01*
X54122Y-34948D01*
X54122Y-34267D01*
X54043Y-34076D01*
X53974Y-34007D01*
X53974Y-33296D01*
X53964Y-33272D01*
X53964Y-28077D01*
X53924Y-27980D01*
X53850Y-27906D01*
X53753Y-27866D01*
X53648Y-27866D01*
X53551Y-27906D01*
X53477Y-27980D01*
X53464Y-28010D01*
X53452Y-27980D01*
X53377Y-27906D01*
X53281Y-27866D01*
X53176Y-27866D01*
X53079Y-27906D01*
X53004Y-27980D01*
X52964Y-28077D01*
X52964Y-28182D01*
X53004Y-28279D01*
X53078Y-28353D01*
X53175Y-28393D01*
X53280Y-28393D01*
X53377Y-28353D01*
X53451Y-28279D01*
X53464Y-28248D01*
X53477Y-28279D01*
X53551Y-28353D01*
X53648Y-28393D01*
X53753Y-28393D01*
X53850Y-28353D01*
X53924Y-28279D01*
X53964Y-28182D01*
X53964Y-28077D01*
X53964Y-33272D01*
X53917Y-33159D01*
X53813Y-33054D01*
X53676Y-32998D01*
X53528Y-32997D01*
X53391Y-33054D01*
X53287Y-33159D01*
X53230Y-33295D01*
X53230Y-33443D01*
X53286Y-33580D01*
X53391Y-33685D01*
X53528Y-33742D01*
X53676Y-33742D01*
X53812Y-33685D01*
X53917Y-33581D01*
X53974Y-33444D01*
X53974Y-33296D01*
X53974Y-34007D01*
X53897Y-33929D01*
X53706Y-33850D01*
X53499Y-33850D01*
X53308Y-33929D01*
X53162Y-34075D01*
X53122Y-34171D01*
X53122Y-32267D01*
X53043Y-32076D01*
X53000Y-32032D01*
X53000Y-30892D01*
X52959Y-30795D01*
X52885Y-30721D01*
X52788Y-30681D01*
X52683Y-30681D01*
X52586Y-30721D01*
X52512Y-30795D01*
X52472Y-30892D01*
X52472Y-30997D01*
X52512Y-31094D01*
X52586Y-31168D01*
X52683Y-31208D01*
X52788Y-31208D01*
X52885Y-31168D01*
X52959Y-31094D01*
X52999Y-30997D01*
X53000Y-30892D01*
X53000Y-32032D01*
X52897Y-31929D01*
X52706Y-31850D01*
X52499Y-31850D01*
X52308Y-31929D01*
X52162Y-32075D01*
X52082Y-32266D01*
X52082Y-32472D01*
X52161Y-32664D01*
X52307Y-32810D01*
X52498Y-32889D01*
X52705Y-32889D01*
X52896Y-32810D01*
X53042Y-32664D01*
X53121Y-32473D01*
X53122Y-32267D01*
X53122Y-34171D01*
X53082Y-34266D01*
X53082Y-34472D01*
X53161Y-34664D01*
X53307Y-34810D01*
X53498Y-34889D01*
X53705Y-34889D01*
X53896Y-34810D01*
X54042Y-34664D01*
X54121Y-34473D01*
X54122Y-34267D01*
X54122Y-34948D01*
X54106Y-34986D01*
X54106Y-35090D01*
X54061Y-35090D01*
X53964Y-35130D01*
X53890Y-35204D01*
X53850Y-35301D01*
X53850Y-35406D01*
X53890Y-35503D01*
X53964Y-35577D01*
X54061Y-35618D01*
X54166Y-35618D01*
X54263Y-35578D01*
X54337Y-35503D01*
X54377Y-35407D01*
X54377Y-35303D01*
X54422Y-35303D01*
X54519Y-35263D01*
X54593Y-35188D01*
X54598Y-35177D01*
X54598Y-36955D01*
X54397Y-37156D01*
X54397Y-35932D01*
X54357Y-35835D01*
X54283Y-35760D01*
X54186Y-35720D01*
X54081Y-35720D01*
X53984Y-35760D01*
X53910Y-35834D01*
X53870Y-35931D01*
X53870Y-36036D01*
X53910Y-36133D01*
X53984Y-36207D01*
X54081Y-36247D01*
X54186Y-36248D01*
X54283Y-36208D01*
X54357Y-36133D01*
X54397Y-36036D01*
X54397Y-35932D01*
X54397Y-37156D01*
X53807Y-37746D01*
X53807Y-37191D01*
X53807Y-36246D01*
X53807Y-35617D01*
X53767Y-35520D01*
X53692Y-35445D01*
X53596Y-35405D01*
X53491Y-35405D01*
X53394Y-35445D01*
X53319Y-35519D01*
X53279Y-35616D01*
X53279Y-35721D01*
X53319Y-35818D01*
X53393Y-35892D01*
X53490Y-35933D01*
X53595Y-35933D01*
X53692Y-35893D01*
X53766Y-35818D01*
X53807Y-35721D01*
X53807Y-35617D01*
X53807Y-36246D01*
X53767Y-36149D01*
X53692Y-36075D01*
X53596Y-36035D01*
X53491Y-36035D01*
X53394Y-36075D01*
X53319Y-36149D01*
X53279Y-36246D01*
X53279Y-36351D01*
X53319Y-36448D01*
X53393Y-36522D01*
X53490Y-36562D01*
X53595Y-36563D01*
X53692Y-36522D01*
X53766Y-36448D01*
X53807Y-36351D01*
X53807Y-36246D01*
X53807Y-37191D01*
X53767Y-37094D01*
X53692Y-37020D01*
X53596Y-36980D01*
X53491Y-36980D01*
X53394Y-37020D01*
X53319Y-37094D01*
X53279Y-37191D01*
X53279Y-37296D01*
X53319Y-37393D01*
X53393Y-37467D01*
X53490Y-37507D01*
X53595Y-37507D01*
X53692Y-37467D01*
X53766Y-37393D01*
X53807Y-37296D01*
X53807Y-37191D01*
X53807Y-37746D01*
X53491Y-38062D01*
X52974Y-38062D01*
X52974Y-33296D01*
X52917Y-33159D01*
X52813Y-33054D01*
X52676Y-32998D01*
X52528Y-32997D01*
X52391Y-33054D01*
X52287Y-33159D01*
X52230Y-33295D01*
X52230Y-33443D01*
X52286Y-33580D01*
X52391Y-33685D01*
X52528Y-33742D01*
X52676Y-33742D01*
X52812Y-33685D01*
X52917Y-33581D01*
X52974Y-33444D01*
X52974Y-33296D01*
X52974Y-38062D01*
X52122Y-38062D01*
X52122Y-34267D01*
X52043Y-34076D01*
X51974Y-34007D01*
X51974Y-33296D01*
X51917Y-33159D01*
X51813Y-33054D01*
X51676Y-32998D01*
X51543Y-32997D01*
X51543Y-29554D01*
X51503Y-29457D01*
X51429Y-29382D01*
X51332Y-29342D01*
X51227Y-29342D01*
X51130Y-29382D01*
X51056Y-29456D01*
X51033Y-29511D01*
X51011Y-29457D01*
X50937Y-29382D01*
X50840Y-29342D01*
X50735Y-29342D01*
X50638Y-29382D01*
X50563Y-29456D01*
X50523Y-29553D01*
X50523Y-29658D01*
X50563Y-29755D01*
X50637Y-29829D01*
X50734Y-29870D01*
X50839Y-29870D01*
X50936Y-29830D01*
X51010Y-29755D01*
X51033Y-29701D01*
X51055Y-29755D01*
X51129Y-29829D01*
X51226Y-29870D01*
X51331Y-29870D01*
X51428Y-29830D01*
X51503Y-29755D01*
X51543Y-29658D01*
X51543Y-29554D01*
X51543Y-32997D01*
X51528Y-32997D01*
X51391Y-33054D01*
X51287Y-33159D01*
X51230Y-33295D01*
X51230Y-33443D01*
X51286Y-33580D01*
X51391Y-33685D01*
X51528Y-33742D01*
X51676Y-33742D01*
X51812Y-33685D01*
X51917Y-33581D01*
X51974Y-33444D01*
X51974Y-33296D01*
X51974Y-34007D01*
X51897Y-33929D01*
X51706Y-33850D01*
X51499Y-33850D01*
X51308Y-33929D01*
X51162Y-34075D01*
X51122Y-34171D01*
X51122Y-32267D01*
X51043Y-32076D01*
X50972Y-32005D01*
X50972Y-31365D01*
X50932Y-31268D01*
X50858Y-31193D01*
X50761Y-31153D01*
X50656Y-31153D01*
X50622Y-31167D01*
X50622Y-30125D01*
X50513Y-29862D01*
X50480Y-29829D01*
X50480Y-27861D01*
X50440Y-27764D01*
X50366Y-27689D01*
X50269Y-27649D01*
X50164Y-27649D01*
X50067Y-27689D01*
X49993Y-27763D01*
X49952Y-27860D01*
X49952Y-27965D01*
X49992Y-28062D01*
X50066Y-28136D01*
X50163Y-28177D01*
X50268Y-28177D01*
X50365Y-28137D01*
X50440Y-28063D01*
X50480Y-27966D01*
X50480Y-27861D01*
X50480Y-29829D01*
X50311Y-29660D01*
X50048Y-29551D01*
X49763Y-29551D01*
X49500Y-29659D01*
X49298Y-29861D01*
X49189Y-30124D01*
X49188Y-30409D01*
X49297Y-30673D01*
X49499Y-30874D01*
X49762Y-30984D01*
X50047Y-30984D01*
X50310Y-30875D01*
X50512Y-30674D01*
X50621Y-30410D01*
X50622Y-30125D01*
X50622Y-31167D01*
X50559Y-31193D01*
X50485Y-31267D01*
X50444Y-31364D01*
X50444Y-31469D01*
X50484Y-31566D01*
X50559Y-31640D01*
X50655Y-31681D01*
X50760Y-31681D01*
X50857Y-31641D01*
X50932Y-31566D01*
X50972Y-31470D01*
X50972Y-31365D01*
X50972Y-32005D01*
X50897Y-31929D01*
X50706Y-31850D01*
X50499Y-31850D01*
X50308Y-31929D01*
X50162Y-32075D01*
X50082Y-32266D01*
X50082Y-32472D01*
X50161Y-32664D01*
X50307Y-32810D01*
X50498Y-32889D01*
X50705Y-32889D01*
X50896Y-32810D01*
X51042Y-32664D01*
X51121Y-32473D01*
X51122Y-32267D01*
X51122Y-34171D01*
X51082Y-34266D01*
X51082Y-34472D01*
X51161Y-34664D01*
X51307Y-34810D01*
X51498Y-34889D01*
X51705Y-34889D01*
X51896Y-34810D01*
X52042Y-34664D01*
X52121Y-34473D01*
X52122Y-34267D01*
X52122Y-38062D01*
X50913Y-38062D01*
X50913Y-36543D01*
X51016Y-36543D01*
X51113Y-36503D01*
X51188Y-36429D01*
X51228Y-36332D01*
X51228Y-36227D01*
X51188Y-36130D01*
X51114Y-36056D01*
X51017Y-36015D01*
X50974Y-36015D01*
X50974Y-33296D01*
X50917Y-33159D01*
X50813Y-33054D01*
X50676Y-32998D01*
X50528Y-32997D01*
X50391Y-33054D01*
X50287Y-33159D01*
X50230Y-33295D01*
X50230Y-33443D01*
X50286Y-33580D01*
X50391Y-33685D01*
X50528Y-33742D01*
X50676Y-33742D01*
X50812Y-33685D01*
X50917Y-33581D01*
X50974Y-33444D01*
X50974Y-33296D01*
X50974Y-36015D01*
X50913Y-36015D01*
X50913Y-35700D01*
X50122Y-35700D01*
X50122Y-34267D01*
X50043Y-34076D01*
X49974Y-34007D01*
X49974Y-33296D01*
X49917Y-33159D01*
X49813Y-33054D01*
X49676Y-32998D01*
X49528Y-32997D01*
X49391Y-33054D01*
X49287Y-33159D01*
X49230Y-33295D01*
X49230Y-33443D01*
X49286Y-33580D01*
X49391Y-33685D01*
X49528Y-33742D01*
X49676Y-33742D01*
X49812Y-33685D01*
X49917Y-33581D01*
X49974Y-33444D01*
X49974Y-33296D01*
X49974Y-34007D01*
X49897Y-33929D01*
X49706Y-33850D01*
X49499Y-33850D01*
X49308Y-33929D01*
X49162Y-34075D01*
X49122Y-34171D01*
X49122Y-32267D01*
X49043Y-32076D01*
X48897Y-31929D01*
X48706Y-31850D01*
X48499Y-31850D01*
X48393Y-31893D01*
X48393Y-29140D01*
X48353Y-29043D01*
X48279Y-28969D01*
X48182Y-28929D01*
X48077Y-28929D01*
X47980Y-28969D01*
X47906Y-29043D01*
X47866Y-29140D01*
X47866Y-29245D01*
X47906Y-29342D01*
X47980Y-29416D01*
X48077Y-29456D01*
X48182Y-29456D01*
X48279Y-29416D01*
X48353Y-29342D01*
X48393Y-29245D01*
X48393Y-29140D01*
X48393Y-31893D01*
X48308Y-31929D01*
X48162Y-32075D01*
X48082Y-32266D01*
X48082Y-32472D01*
X48161Y-32664D01*
X48307Y-32810D01*
X48498Y-32889D01*
X48705Y-32889D01*
X48896Y-32810D01*
X49042Y-32664D01*
X49121Y-32473D01*
X49122Y-32267D01*
X49122Y-34171D01*
X49082Y-34266D01*
X49082Y-34472D01*
X49161Y-34664D01*
X49307Y-34810D01*
X49498Y-34889D01*
X49705Y-34889D01*
X49896Y-34810D01*
X50042Y-34664D01*
X50121Y-34473D01*
X50122Y-34267D01*
X50122Y-35700D01*
X49515Y-35700D01*
X49515Y-35617D01*
X49475Y-35520D01*
X49428Y-35472D01*
X49475Y-35425D01*
X49515Y-35328D01*
X49515Y-35223D01*
X49475Y-35126D01*
X49401Y-35052D01*
X49304Y-35011D01*
X49199Y-35011D01*
X49102Y-35051D01*
X49028Y-35125D01*
X48988Y-35222D01*
X48988Y-35327D01*
X49028Y-35424D01*
X49075Y-35472D01*
X49028Y-35519D01*
X48988Y-35616D01*
X48988Y-35700D01*
X48974Y-35700D01*
X48974Y-33296D01*
X48917Y-33159D01*
X48813Y-33054D01*
X48676Y-32998D01*
X48528Y-32997D01*
X48391Y-33054D01*
X48287Y-33159D01*
X48230Y-33295D01*
X48230Y-33443D01*
X48286Y-33580D01*
X48391Y-33685D01*
X48528Y-33742D01*
X48676Y-33742D01*
X48812Y-33685D01*
X48917Y-33581D01*
X48974Y-33444D01*
X48974Y-33296D01*
X48974Y-35700D01*
X48122Y-35700D01*
X48122Y-34267D01*
X48043Y-34076D01*
X47974Y-34007D01*
X47974Y-33296D01*
X47917Y-33159D01*
X47813Y-33054D01*
X47676Y-32998D01*
X47528Y-32997D01*
X47391Y-33054D01*
X47287Y-33159D01*
X47230Y-33295D01*
X47230Y-33443D01*
X47286Y-33580D01*
X47391Y-33685D01*
X47528Y-33742D01*
X47676Y-33742D01*
X47812Y-33685D01*
X47917Y-33581D01*
X47974Y-33444D01*
X47974Y-33296D01*
X47974Y-34007D01*
X47897Y-33929D01*
X47706Y-33850D01*
X47499Y-33850D01*
X47308Y-33929D01*
X47162Y-34075D01*
X47082Y-34266D01*
X47082Y-34472D01*
X47161Y-34664D01*
X47307Y-34810D01*
X47498Y-34889D01*
X47705Y-34889D01*
X47896Y-34810D01*
X48042Y-34664D01*
X48121Y-34473D01*
X48122Y-34267D01*
X48122Y-35700D01*
X47389Y-35700D01*
X47389Y-35597D01*
X47349Y-35500D01*
X47275Y-35426D01*
X47178Y-35385D01*
X47073Y-35385D01*
X46976Y-35425D01*
X46902Y-35499D01*
X46862Y-35596D01*
X46862Y-35700D01*
X46724Y-35700D01*
X46724Y-37133D01*
X49086Y-37133D01*
X49086Y-37235D01*
X49083Y-37236D01*
X49008Y-37311D01*
X48968Y-37407D01*
X48968Y-37512D01*
X49008Y-37609D01*
X49082Y-37684D01*
X49086Y-37685D01*
X49086Y-39889D01*
X51448Y-39889D01*
X51448Y-40129D01*
X51445Y-40130D01*
X51370Y-40204D01*
X51330Y-40301D01*
X51330Y-40406D01*
X51370Y-40503D01*
X51444Y-40577D01*
X51448Y-40579D01*
X51448Y-41464D01*
X51685Y-41464D01*
X51645Y-41561D01*
X51645Y-41666D01*
X51685Y-41763D01*
X51759Y-41837D01*
X51842Y-41871D01*
X51842Y-42393D01*
X51476Y-42393D01*
X51425Y-42393D01*
X51425Y-41246D01*
X51385Y-41149D01*
X51311Y-41075D01*
X51214Y-41035D01*
X51109Y-41035D01*
X51012Y-41075D01*
X50937Y-41149D01*
X50897Y-41246D01*
X50897Y-41351D01*
X50937Y-41448D01*
X51011Y-41522D01*
X51108Y-41562D01*
X51213Y-41563D01*
X51310Y-41522D01*
X51384Y-41448D01*
X51425Y-41351D01*
X51425Y-41246D01*
X51425Y-42393D01*
X51424Y-42393D01*
X51424Y-42393D01*
X51055Y-42393D01*
X51055Y-43433D01*
X52629Y-43433D01*
X52629Y-43791D01*
X52526Y-43791D01*
X52429Y-43831D01*
X52355Y-43905D01*
X52315Y-44002D01*
X52314Y-44107D01*
X52354Y-44204D01*
X52429Y-44278D01*
X52526Y-44318D01*
X52629Y-44318D01*
X52629Y-45929D01*
X52552Y-45897D01*
X52447Y-45897D01*
X52350Y-45937D01*
X52276Y-46011D01*
X52236Y-46108D01*
X52236Y-46213D01*
X52276Y-46310D01*
X52350Y-46384D01*
X52447Y-46425D01*
X52552Y-46425D01*
X52629Y-46393D01*
X52629Y-48555D01*
X52547Y-48555D01*
X52547Y-47191D01*
X52507Y-47094D01*
X52433Y-47020D01*
X52336Y-46980D01*
X52231Y-46980D01*
X52134Y-47020D01*
X52059Y-47094D01*
X52019Y-47191D01*
X52019Y-47296D01*
X52059Y-47393D01*
X52133Y-47467D01*
X52230Y-47507D01*
X52335Y-47507D01*
X52432Y-47467D01*
X52506Y-47393D01*
X52547Y-47296D01*
X52547Y-47191D01*
X52547Y-48555D01*
X52546Y-48555D01*
X52449Y-48595D01*
X52374Y-48669D01*
X52334Y-48766D01*
X52334Y-48871D01*
X52374Y-48968D01*
X52448Y-49042D01*
X52545Y-49082D01*
X52629Y-49082D01*
X52629Y-50519D01*
X58000Y-50519D01*
X58000Y-51083D01*
X57894Y-51189D01*
X57894Y-50966D01*
X57846Y-50899D01*
X57648Y-50842D01*
X57442Y-50864D01*
X57358Y-50899D01*
X57310Y-50966D01*
X57602Y-51258D01*
X57894Y-50966D01*
X57894Y-51189D01*
X57713Y-51370D01*
X58006Y-51662D01*
X58072Y-51614D01*
X58130Y-51415D01*
X58130Y-53151D01*
X58082Y-53266D01*
X58082Y-53472D01*
X58161Y-53664D01*
X58307Y-53810D01*
X58328Y-53818D01*
X57974Y-53818D01*
X57974Y-52296D01*
X57917Y-52159D01*
X57894Y-52136D01*
X57894Y-51773D01*
X57602Y-51481D01*
X57491Y-51592D01*
X57491Y-51370D01*
X57198Y-51077D01*
X57132Y-51125D01*
X57074Y-51324D01*
X57097Y-51529D01*
X57132Y-51614D01*
X57198Y-51662D01*
X57491Y-51370D01*
X57491Y-51592D01*
X57310Y-51773D01*
X57358Y-51840D01*
X57556Y-51897D01*
X57762Y-51875D01*
X57846Y-51840D01*
X57894Y-51773D01*
X57894Y-52136D01*
X57813Y-52054D01*
X57676Y-51998D01*
X57528Y-51997D01*
X57391Y-52054D01*
X57287Y-52159D01*
X57230Y-52295D01*
X57230Y-52443D01*
X57286Y-52580D01*
X57391Y-52685D01*
X57528Y-52742D01*
X57676Y-52742D01*
X57812Y-52685D01*
X57917Y-52581D01*
X57974Y-52444D01*
X57974Y-52296D01*
X57974Y-53818D01*
X56877Y-53818D01*
X56896Y-53810D01*
X57042Y-53664D01*
X57121Y-53473D01*
X57122Y-53267D01*
X57043Y-53076D01*
X56974Y-53007D01*
X56974Y-52296D01*
X56917Y-52159D01*
X56813Y-52054D01*
X56676Y-51998D01*
X56528Y-51997D01*
X56391Y-52054D01*
X56287Y-52159D01*
X56230Y-52295D01*
X56230Y-52443D01*
X56286Y-52580D01*
X56391Y-52685D01*
X56528Y-52742D01*
X56676Y-52742D01*
X56812Y-52685D01*
X56917Y-52581D01*
X56974Y-52444D01*
X56974Y-52296D01*
X56974Y-53007D01*
X56897Y-52929D01*
X56706Y-52850D01*
X56499Y-52850D01*
X56308Y-52929D01*
X56162Y-53075D01*
X56122Y-53171D01*
X56122Y-51267D01*
X56043Y-51076D01*
X55897Y-50929D01*
X55706Y-50850D01*
X55499Y-50850D01*
X55308Y-50929D01*
X55162Y-51075D01*
X55082Y-51266D01*
X55082Y-51472D01*
X55161Y-51664D01*
X55307Y-51810D01*
X55498Y-51889D01*
X55705Y-51889D01*
X55896Y-51810D01*
X56042Y-51664D01*
X56121Y-51473D01*
X56122Y-51267D01*
X56122Y-53171D01*
X56082Y-53266D01*
X56082Y-53472D01*
X56161Y-53664D01*
X56307Y-53810D01*
X56328Y-53818D01*
X55974Y-53818D01*
X55974Y-52296D01*
X55917Y-52159D01*
X55813Y-52054D01*
X55676Y-51998D01*
X55528Y-51997D01*
X55391Y-52054D01*
X55287Y-52159D01*
X55230Y-52295D01*
X55230Y-52443D01*
X55286Y-52580D01*
X55391Y-52685D01*
X55528Y-52742D01*
X55676Y-52742D01*
X55812Y-52685D01*
X55917Y-52581D01*
X55974Y-52444D01*
X55974Y-52296D01*
X55974Y-53818D01*
X54877Y-53818D01*
X54896Y-53810D01*
X55042Y-53664D01*
X55121Y-53473D01*
X55122Y-53267D01*
X55043Y-53076D01*
X54974Y-53007D01*
X54974Y-52296D01*
X54917Y-52159D01*
X54813Y-52054D01*
X54676Y-51998D01*
X54528Y-51997D01*
X54391Y-52054D01*
X54287Y-52159D01*
X54230Y-52295D01*
X54230Y-52443D01*
X54286Y-52580D01*
X54391Y-52685D01*
X54528Y-52742D01*
X54676Y-52742D01*
X54812Y-52685D01*
X54917Y-52581D01*
X54974Y-52444D01*
X54974Y-52296D01*
X54974Y-53007D01*
X54897Y-52929D01*
X54706Y-52850D01*
X54499Y-52850D01*
X54308Y-52929D01*
X54162Y-53075D01*
X54082Y-53266D01*
X54082Y-53472D01*
X54161Y-53664D01*
X54307Y-53810D01*
X54328Y-53818D01*
X53122Y-53818D01*
X53122Y-51267D01*
X53043Y-51076D01*
X52897Y-50929D01*
X52706Y-50850D01*
X52499Y-50850D01*
X52308Y-50929D01*
X52162Y-51075D01*
X52082Y-51266D01*
X52082Y-51472D01*
X52161Y-51664D01*
X52307Y-51810D01*
X52498Y-51889D01*
X52705Y-51889D01*
X52896Y-51810D01*
X53042Y-51664D01*
X53121Y-51473D01*
X53122Y-51267D01*
X53122Y-53818D01*
X52974Y-53818D01*
X52974Y-52296D01*
X52917Y-52159D01*
X52813Y-52054D01*
X52676Y-51998D01*
X52528Y-51997D01*
X52391Y-52054D01*
X52287Y-52159D01*
X52230Y-52295D01*
X52230Y-52443D01*
X52286Y-52580D01*
X52391Y-52685D01*
X52528Y-52742D01*
X52676Y-52742D01*
X52812Y-52685D01*
X52917Y-52581D01*
X52974Y-52444D01*
X52974Y-52296D01*
X52974Y-53818D01*
X51877Y-53818D01*
X51896Y-53810D01*
X52042Y-53664D01*
X52121Y-53473D01*
X52122Y-53267D01*
X52043Y-53076D01*
X52015Y-53048D01*
X52015Y-46424D01*
X51975Y-46327D01*
X51901Y-46252D01*
X51804Y-46212D01*
X51699Y-46212D01*
X51602Y-46252D01*
X51528Y-46326D01*
X51488Y-46423D01*
X51488Y-46528D01*
X51528Y-46625D01*
X51602Y-46699D01*
X51699Y-46740D01*
X51804Y-46740D01*
X51901Y-46700D01*
X51975Y-46625D01*
X52015Y-46529D01*
X52015Y-46424D01*
X52015Y-53048D01*
X51974Y-53007D01*
X51974Y-52296D01*
X51917Y-52159D01*
X51813Y-52054D01*
X51676Y-51998D01*
X51528Y-51997D01*
X51391Y-52054D01*
X51287Y-52159D01*
X51230Y-52295D01*
X51230Y-52443D01*
X51286Y-52580D01*
X51391Y-52685D01*
X51528Y-52742D01*
X51676Y-52742D01*
X51812Y-52685D01*
X51917Y-52581D01*
X51974Y-52444D01*
X51974Y-52296D01*
X51974Y-53007D01*
X51897Y-52929D01*
X51706Y-52850D01*
X51499Y-52850D01*
X51308Y-52929D01*
X51162Y-53075D01*
X51122Y-53171D01*
X51122Y-51267D01*
X51043Y-51076D01*
X50897Y-50929D01*
X50706Y-50850D01*
X50499Y-50850D01*
X50381Y-50898D01*
X50381Y-43668D01*
X50381Y-42605D01*
X50381Y-41995D01*
X50341Y-41898D01*
X50267Y-41823D01*
X50170Y-41783D01*
X50106Y-41783D01*
X50106Y-40223D01*
X50066Y-40126D01*
X49992Y-40052D01*
X49895Y-40011D01*
X49790Y-40011D01*
X49693Y-40051D01*
X49619Y-40125D01*
X49578Y-40222D01*
X49578Y-40327D01*
X49618Y-40424D01*
X49692Y-40499D01*
X49789Y-40539D01*
X49894Y-40539D01*
X49991Y-40499D01*
X50066Y-40425D01*
X50106Y-40328D01*
X50106Y-40223D01*
X50106Y-41783D01*
X50065Y-41783D01*
X49968Y-41823D01*
X49894Y-41897D01*
X49854Y-41994D01*
X49854Y-42099D01*
X49894Y-42196D01*
X49968Y-42270D01*
X50065Y-42310D01*
X50170Y-42311D01*
X50267Y-42270D01*
X50341Y-42196D01*
X50381Y-42099D01*
X50381Y-41995D01*
X50381Y-42605D01*
X50341Y-42508D01*
X50267Y-42433D01*
X50170Y-42393D01*
X50065Y-42393D01*
X49968Y-42433D01*
X49894Y-42507D01*
X49854Y-42604D01*
X49854Y-42709D01*
X49894Y-42806D01*
X49968Y-42880D01*
X50065Y-42921D01*
X50170Y-42921D01*
X50267Y-42881D01*
X50341Y-42807D01*
X50381Y-42710D01*
X50381Y-42605D01*
X50381Y-43668D01*
X50341Y-43571D01*
X50267Y-43496D01*
X50170Y-43456D01*
X50065Y-43456D01*
X49968Y-43496D01*
X49894Y-43570D01*
X49854Y-43667D01*
X49854Y-43772D01*
X49894Y-43869D01*
X49941Y-43917D01*
X49875Y-43889D01*
X49770Y-43889D01*
X49673Y-43929D01*
X49599Y-44003D01*
X49559Y-44100D01*
X49559Y-44205D01*
X49599Y-44302D01*
X49673Y-44377D01*
X49770Y-44417D01*
X49875Y-44417D01*
X49972Y-44377D01*
X50046Y-44303D01*
X50086Y-44206D01*
X50086Y-44101D01*
X50046Y-44004D01*
X49998Y-43956D01*
X50065Y-43984D01*
X50170Y-43984D01*
X50267Y-43944D01*
X50341Y-43870D01*
X50381Y-43773D01*
X50381Y-43668D01*
X50381Y-50898D01*
X50308Y-50929D01*
X50162Y-51075D01*
X50082Y-51266D01*
X50082Y-51472D01*
X50161Y-51664D01*
X50307Y-51810D01*
X50498Y-51889D01*
X50705Y-51889D01*
X50896Y-51810D01*
X51042Y-51664D01*
X51121Y-51473D01*
X51122Y-51267D01*
X51122Y-53171D01*
X51082Y-53266D01*
X51082Y-53472D01*
X51161Y-53664D01*
X51307Y-53810D01*
X51328Y-53818D01*
X50974Y-53818D01*
X50974Y-52296D01*
X50917Y-52159D01*
X50813Y-52054D01*
X50676Y-51998D01*
X50528Y-51997D01*
X50391Y-52054D01*
X50287Y-52159D01*
X50230Y-52295D01*
X50230Y-52443D01*
X50286Y-52580D01*
X50391Y-52685D01*
X50528Y-52742D01*
X50676Y-52742D01*
X50812Y-52685D01*
X50917Y-52581D01*
X50974Y-52444D01*
X50974Y-52296D01*
X50974Y-53818D01*
X49877Y-53818D01*
X49896Y-53810D01*
X50042Y-53664D01*
X50121Y-53473D01*
X50122Y-53267D01*
X50043Y-53076D01*
X49974Y-53007D01*
X49974Y-52296D01*
X49917Y-52159D01*
X49813Y-52054D01*
X49676Y-51998D01*
X49528Y-51997D01*
X49391Y-52054D01*
X49287Y-52159D01*
X49230Y-52295D01*
X49230Y-52443D01*
X49286Y-52580D01*
X49391Y-52685D01*
X49528Y-52742D01*
X49676Y-52742D01*
X49812Y-52685D01*
X49917Y-52581D01*
X49974Y-52444D01*
X49974Y-52296D01*
X49974Y-53007D01*
X49897Y-52929D01*
X49706Y-52850D01*
X49499Y-52850D01*
X49308Y-52929D01*
X49162Y-53075D01*
X49122Y-53171D01*
X49122Y-51267D01*
X49043Y-51076D01*
X49043Y-44140D01*
X49003Y-44043D01*
X48929Y-43969D01*
X48846Y-43935D01*
X48846Y-42211D01*
X48846Y-39219D01*
X48806Y-39122D01*
X48732Y-39048D01*
X48635Y-39007D01*
X48530Y-39007D01*
X48433Y-39047D01*
X48359Y-39122D01*
X48318Y-39218D01*
X48318Y-39323D01*
X48358Y-39420D01*
X48433Y-39495D01*
X48529Y-39535D01*
X48634Y-39535D01*
X48731Y-39495D01*
X48806Y-39421D01*
X48846Y-39324D01*
X48846Y-39219D01*
X48846Y-42211D01*
X48806Y-42114D01*
X48732Y-42040D01*
X48635Y-42000D01*
X48530Y-41999D01*
X48433Y-42040D01*
X48359Y-42114D01*
X48318Y-42211D01*
X48318Y-42316D01*
X48358Y-42413D01*
X48433Y-42487D01*
X48529Y-42527D01*
X48634Y-42527D01*
X48731Y-42487D01*
X48806Y-42413D01*
X48846Y-42316D01*
X48846Y-42211D01*
X48846Y-43935D01*
X48832Y-43929D01*
X48727Y-43929D01*
X48630Y-43969D01*
X48556Y-44043D01*
X48531Y-44102D01*
X48531Y-43668D01*
X48491Y-43571D01*
X48417Y-43496D01*
X48320Y-43456D01*
X48215Y-43456D01*
X48118Y-43496D01*
X48044Y-43570D01*
X48003Y-43667D01*
X48003Y-43772D01*
X48043Y-43869D01*
X48118Y-43943D01*
X48215Y-43984D01*
X48319Y-43984D01*
X48416Y-43944D01*
X48491Y-43870D01*
X48531Y-43773D01*
X48531Y-43668D01*
X48531Y-44102D01*
X48515Y-44140D01*
X48515Y-44245D01*
X48555Y-44342D01*
X48629Y-44416D01*
X48726Y-44456D01*
X48831Y-44456D01*
X48928Y-44416D01*
X49003Y-44342D01*
X49043Y-44245D01*
X49043Y-44140D01*
X49043Y-51076D01*
X49043Y-51076D01*
X48897Y-50929D01*
X48706Y-50850D01*
X48499Y-50850D01*
X48308Y-50929D01*
X48162Y-51075D01*
X48082Y-51266D01*
X48082Y-51472D01*
X48161Y-51664D01*
X48307Y-51810D01*
X48498Y-51889D01*
X48705Y-51889D01*
X48896Y-51810D01*
X49042Y-51664D01*
X49121Y-51473D01*
X49122Y-51267D01*
X49122Y-53171D01*
X49082Y-53266D01*
X49082Y-53472D01*
X49161Y-53664D01*
X49307Y-53810D01*
X49328Y-53818D01*
X48974Y-53818D01*
X48974Y-52296D01*
X48917Y-52159D01*
X48813Y-52054D01*
X48676Y-51998D01*
X48528Y-51997D01*
X48391Y-52054D01*
X48287Y-52159D01*
X48230Y-52295D01*
X48230Y-52443D01*
X48286Y-52580D01*
X48391Y-52685D01*
X48528Y-52742D01*
X48676Y-52742D01*
X48812Y-52685D01*
X48917Y-52581D01*
X48974Y-52444D01*
X48974Y-52296D01*
X48974Y-53818D01*
X47877Y-53818D01*
X47896Y-53810D01*
X48042Y-53664D01*
X48121Y-53473D01*
X48122Y-53267D01*
X48043Y-53076D01*
X47974Y-53007D01*
X47974Y-52296D01*
X47917Y-52159D01*
X47813Y-52054D01*
X47676Y-51998D01*
X47586Y-51998D01*
X47586Y-44061D01*
X47586Y-42231D01*
X47546Y-42134D01*
X47472Y-42059D01*
X47375Y-42019D01*
X47330Y-42019D01*
X47330Y-38668D01*
X47290Y-38571D01*
X47216Y-38496D01*
X47119Y-38456D01*
X47014Y-38456D01*
X46917Y-38496D01*
X46843Y-38570D01*
X46803Y-38667D01*
X46803Y-38772D01*
X46843Y-38869D01*
X46917Y-38943D01*
X47014Y-38984D01*
X47119Y-38984D01*
X47216Y-38944D01*
X47290Y-38870D01*
X47330Y-38773D01*
X47330Y-38668D01*
X47330Y-42019D01*
X47270Y-42019D01*
X47173Y-42059D01*
X47099Y-42133D01*
X47059Y-42230D01*
X47059Y-42335D01*
X47099Y-42432D01*
X47173Y-42506D01*
X47270Y-42547D01*
X47375Y-42547D01*
X47472Y-42507D01*
X47546Y-42433D01*
X47586Y-42336D01*
X47586Y-42231D01*
X47586Y-44061D01*
X47546Y-43964D01*
X47472Y-43890D01*
X47375Y-43850D01*
X47271Y-43850D01*
X47271Y-43530D01*
X47231Y-43433D01*
X47157Y-43359D01*
X47060Y-43318D01*
X46955Y-43318D01*
X46858Y-43358D01*
X46784Y-43433D01*
X46744Y-43529D01*
X46744Y-43634D01*
X46784Y-43731D01*
X46858Y-43806D01*
X46955Y-43846D01*
X47060Y-43846D01*
X47157Y-43806D01*
X47231Y-43732D01*
X47271Y-43635D01*
X47271Y-43530D01*
X47271Y-43850D01*
X47270Y-43850D01*
X47173Y-43890D01*
X47099Y-43964D01*
X47059Y-44061D01*
X47059Y-44166D01*
X47099Y-44263D01*
X47173Y-44337D01*
X47270Y-44377D01*
X47375Y-44377D01*
X47472Y-44337D01*
X47546Y-44263D01*
X47586Y-44166D01*
X47586Y-44061D01*
X47586Y-51998D01*
X47528Y-51997D01*
X47391Y-52054D01*
X47287Y-52159D01*
X47230Y-52295D01*
X47230Y-52443D01*
X47286Y-52580D01*
X47391Y-52685D01*
X47528Y-52742D01*
X47676Y-52742D01*
X47812Y-52685D01*
X47917Y-52581D01*
X47974Y-52444D01*
X47974Y-52296D01*
X47974Y-53007D01*
X47897Y-52929D01*
X47706Y-52850D01*
X47499Y-52850D01*
X47308Y-52929D01*
X47162Y-53075D01*
X47082Y-53266D01*
X47082Y-53472D01*
X47161Y-53664D01*
X47307Y-53810D01*
X47328Y-53818D01*
X46976Y-53818D01*
X46976Y-46030D01*
X46936Y-45933D01*
X46862Y-45859D01*
X46765Y-45818D01*
X46660Y-45818D01*
X46563Y-45858D01*
X46543Y-45878D01*
X46543Y-43392D01*
X46503Y-43295D01*
X46464Y-43256D01*
X46464Y-40892D01*
X46424Y-40795D01*
X46350Y-40721D01*
X46253Y-40681D01*
X46148Y-40681D01*
X46051Y-40721D01*
X45977Y-40795D01*
X45937Y-40892D01*
X45936Y-40997D01*
X45977Y-41094D01*
X46051Y-41168D01*
X46148Y-41208D01*
X46253Y-41208D01*
X46350Y-41168D01*
X46424Y-41094D01*
X46464Y-40997D01*
X46464Y-40892D01*
X46464Y-43256D01*
X46429Y-43221D01*
X46332Y-43181D01*
X46227Y-43181D01*
X46130Y-43221D01*
X46056Y-43295D01*
X46015Y-43392D01*
X46015Y-43497D01*
X46055Y-43594D01*
X46129Y-43668D01*
X46226Y-43708D01*
X46331Y-43708D01*
X46428Y-43668D01*
X46503Y-43594D01*
X46543Y-43497D01*
X46543Y-43392D01*
X46543Y-45878D01*
X46489Y-45933D01*
X46448Y-46029D01*
X46448Y-46134D01*
X46488Y-46231D01*
X46562Y-46306D01*
X46659Y-46346D01*
X46764Y-46346D01*
X46861Y-46306D01*
X46936Y-46232D01*
X46976Y-46135D01*
X46976Y-46030D01*
X46976Y-53818D01*
X46102Y-53818D01*
X46102Y-51850D01*
X45933Y-51850D01*
X45933Y-44002D01*
X45893Y-43905D01*
X45834Y-43847D01*
X45834Y-39691D01*
X45794Y-39594D01*
X45720Y-39520D01*
X45623Y-39480D01*
X45518Y-39480D01*
X45421Y-39520D01*
X45347Y-39594D01*
X45307Y-39691D01*
X45307Y-39796D01*
X45347Y-39893D01*
X45421Y-39967D01*
X45518Y-40007D01*
X45623Y-40007D01*
X45720Y-39967D01*
X45794Y-39893D01*
X45834Y-39796D01*
X45834Y-39691D01*
X45834Y-43847D01*
X45818Y-43831D01*
X45721Y-43791D01*
X45617Y-43791D01*
X45520Y-43831D01*
X45448Y-43902D01*
X45448Y-43490D01*
X45429Y-43444D01*
X45394Y-43409D01*
X45348Y-43389D01*
X45297Y-43389D01*
X45145Y-43389D01*
X45145Y-39376D01*
X45105Y-39279D01*
X45048Y-39222D01*
X45105Y-39165D01*
X45145Y-39068D01*
X45145Y-38963D01*
X45105Y-38866D01*
X45031Y-38792D01*
X44934Y-38752D01*
X44829Y-38751D01*
X44732Y-38791D01*
X44658Y-38866D01*
X44618Y-38963D01*
X44618Y-39067D01*
X44658Y-39164D01*
X44715Y-39222D01*
X44658Y-39279D01*
X44618Y-39376D01*
X44618Y-39481D01*
X44658Y-39578D01*
X44732Y-39652D01*
X44829Y-39692D01*
X44934Y-39692D01*
X45031Y-39652D01*
X45105Y-39578D01*
X45145Y-39481D01*
X45145Y-39376D01*
X45145Y-43389D01*
X44120Y-43389D01*
X44120Y-40639D01*
X44120Y-40525D01*
X44120Y-38671D01*
X44120Y-38557D01*
X44093Y-38422D01*
X44016Y-38307D01*
X43902Y-38231D01*
X43767Y-38204D01*
X43632Y-38231D01*
X43518Y-38307D01*
X43442Y-38422D01*
X43415Y-38557D01*
X43415Y-38671D01*
X43442Y-38806D01*
X43518Y-38920D01*
X43632Y-38996D01*
X43767Y-39023D01*
X43902Y-38996D01*
X44016Y-38920D01*
X44093Y-38806D01*
X44120Y-38671D01*
X44120Y-40525D01*
X44093Y-40390D01*
X44016Y-40276D01*
X43902Y-40200D01*
X43767Y-40173D01*
X43632Y-40200D01*
X43518Y-40276D01*
X43442Y-40390D01*
X43415Y-40525D01*
X43415Y-40639D01*
X43442Y-40774D01*
X43518Y-40888D01*
X43632Y-40965D01*
X43767Y-40992D01*
X43902Y-40965D01*
X44016Y-40888D01*
X44093Y-40774D01*
X44120Y-40639D01*
X44120Y-43389D01*
X43723Y-43389D01*
X43676Y-43408D01*
X43641Y-43444D01*
X43622Y-43490D01*
X43622Y-43540D01*
X43622Y-44918D01*
X43641Y-44964D01*
X43676Y-45000D01*
X43722Y-45019D01*
X43772Y-45019D01*
X45347Y-45019D01*
X45394Y-45000D01*
X45429Y-44965D01*
X45448Y-44918D01*
X45448Y-44868D01*
X45448Y-44207D01*
X45519Y-44278D01*
X45616Y-44318D01*
X45721Y-44318D01*
X45818Y-44278D01*
X45892Y-44204D01*
X45933Y-44107D01*
X45933Y-44002D01*
X45933Y-51850D01*
X45448Y-51850D01*
X45448Y-48254D01*
X45448Y-46876D01*
X45429Y-46830D01*
X45394Y-46794D01*
X45348Y-46775D01*
X45297Y-46775D01*
X43723Y-46775D01*
X43676Y-46794D01*
X43641Y-46830D01*
X43622Y-46876D01*
X43622Y-46926D01*
X43622Y-48304D01*
X43641Y-48350D01*
X43676Y-48386D01*
X43722Y-48405D01*
X43772Y-48405D01*
X45347Y-48405D01*
X45394Y-48386D01*
X45429Y-48350D01*
X45448Y-48304D01*
X45448Y-48254D01*
X45448Y-51850D01*
X44178Y-51850D01*
X44395Y-51633D01*
X44582Y-51182D01*
X44582Y-50693D01*
X44396Y-50242D01*
X44051Y-49896D01*
X43599Y-49708D01*
X43157Y-49708D01*
X43157Y-41542D01*
X43117Y-41445D01*
X43043Y-41370D01*
X42946Y-41330D01*
X42841Y-41330D01*
X42744Y-41370D01*
X42670Y-41444D01*
X42629Y-41541D01*
X42629Y-41646D01*
X42669Y-41743D01*
X42744Y-41817D01*
X42841Y-41858D01*
X42945Y-41858D01*
X43042Y-41818D01*
X43117Y-41744D01*
X43157Y-41647D01*
X43157Y-41542D01*
X43157Y-49708D01*
X43137Y-49708D01*
X43137Y-43018D01*
X43097Y-42921D01*
X43023Y-42847D01*
X42993Y-42834D01*
X43023Y-42822D01*
X43097Y-42748D01*
X43137Y-42651D01*
X43137Y-42546D01*
X43097Y-42449D01*
X43023Y-42374D01*
X42926Y-42334D01*
X42821Y-42334D01*
X42724Y-42374D01*
X42650Y-42448D01*
X42610Y-42545D01*
X42610Y-42650D01*
X42650Y-42747D01*
X42724Y-42821D01*
X42755Y-42834D01*
X42724Y-42847D01*
X42650Y-42921D01*
X42610Y-43018D01*
X42610Y-43123D01*
X42650Y-43220D01*
X42724Y-43294D01*
X42821Y-43334D01*
X42926Y-43334D01*
X43023Y-43294D01*
X43097Y-43220D01*
X43137Y-43123D01*
X43137Y-43018D01*
X43137Y-49708D01*
X43111Y-49708D01*
X42659Y-49895D01*
X42440Y-50113D01*
X42440Y-41318D01*
X43064Y-41318D01*
X43110Y-41299D01*
X43146Y-41264D01*
X43165Y-41218D01*
X43165Y-41167D01*
X43165Y-40498D01*
X43146Y-40452D01*
X43110Y-40416D01*
X43064Y-40397D01*
X43014Y-40397D01*
X42440Y-40397D01*
X42440Y-38799D01*
X43064Y-38799D01*
X43110Y-38780D01*
X43146Y-38744D01*
X43165Y-38698D01*
X43165Y-38648D01*
X43165Y-37978D01*
X43146Y-37932D01*
X43110Y-37897D01*
X43064Y-37877D01*
X43014Y-37877D01*
X42440Y-37877D01*
X42440Y-29083D01*
X42657Y-29300D01*
X43108Y-29487D01*
X43597Y-29488D01*
X44049Y-29301D01*
X44395Y-28956D01*
X44582Y-28505D01*
X44582Y-28016D01*
X44396Y-27564D01*
X44154Y-27322D01*
X67621Y-27322D01*
X67913Y-27614D01*
X67913Y-32577D01*
X67673Y-32337D01*
X67221Y-32149D01*
X66733Y-32149D01*
X66281Y-32336D01*
X65935Y-32681D01*
X65748Y-33132D01*
X65747Y-33621D01*
X65934Y-34072D01*
X66279Y-34418D01*
X66730Y-34606D01*
X67219Y-34606D01*
X67671Y-34419D01*
X67913Y-34178D01*
X67913Y-34629D01*
X67913Y-34629D01*
G37*
G54D22*
X67913Y-34629D02*
X67621Y-34921D01*
X65722Y-34921D01*
X65722Y-32267D01*
X65643Y-32076D01*
X65497Y-31929D01*
X65362Y-31873D01*
X65362Y-30912D01*
X65322Y-30815D01*
X65248Y-30741D01*
X65151Y-30700D01*
X65046Y-30700D01*
X64949Y-30740D01*
X64881Y-30808D01*
X64814Y-30741D01*
X64718Y-30700D01*
X64613Y-30700D01*
X64516Y-30740D01*
X64441Y-30814D01*
X64401Y-30911D01*
X64401Y-31016D01*
X64441Y-31113D01*
X64515Y-31188D01*
X64612Y-31228D01*
X64717Y-31228D01*
X64814Y-31188D01*
X64881Y-31121D01*
X64948Y-31188D01*
X65045Y-31228D01*
X65150Y-31228D01*
X65247Y-31188D01*
X65321Y-31114D01*
X65362Y-31017D01*
X65362Y-30912D01*
X65362Y-31873D01*
X65306Y-31850D01*
X65099Y-31850D01*
X64908Y-31929D01*
X64762Y-32075D01*
X64682Y-32266D01*
X64682Y-32472D01*
X64761Y-32664D01*
X64907Y-32810D01*
X65098Y-32889D01*
X65305Y-32889D01*
X65496Y-32810D01*
X65642Y-32664D01*
X65721Y-32473D01*
X65722Y-32267D01*
X65722Y-34921D01*
X65574Y-34921D01*
X65574Y-33296D01*
X65517Y-33159D01*
X65413Y-33054D01*
X65276Y-32998D01*
X65128Y-32997D01*
X64991Y-33054D01*
X64887Y-33159D01*
X64830Y-33295D01*
X64830Y-33443D01*
X64886Y-33580D01*
X64991Y-33685D01*
X65128Y-33742D01*
X65276Y-33742D01*
X65412Y-33685D01*
X65517Y-33581D01*
X65574Y-33444D01*
X65574Y-33296D01*
X65574Y-34921D01*
X64722Y-34921D01*
X64722Y-34267D01*
X64643Y-34076D01*
X64574Y-34007D01*
X64574Y-33296D01*
X64517Y-33159D01*
X64413Y-33054D01*
X64377Y-33040D01*
X64377Y-30912D01*
X64337Y-30815D01*
X64263Y-30741D01*
X64166Y-30700D01*
X64061Y-30700D01*
X63964Y-30740D01*
X63897Y-30808D01*
X63830Y-30741D01*
X63733Y-30700D01*
X63628Y-30700D01*
X63531Y-30740D01*
X63457Y-30814D01*
X63417Y-30911D01*
X63417Y-31016D01*
X63457Y-31113D01*
X63531Y-31188D01*
X63628Y-31228D01*
X63733Y-31228D01*
X63830Y-31188D01*
X63897Y-31121D01*
X63964Y-31188D01*
X64061Y-31228D01*
X64166Y-31228D01*
X64263Y-31188D01*
X64337Y-31114D01*
X64377Y-31017D01*
X64377Y-30912D01*
X64377Y-33040D01*
X64276Y-32998D01*
X64128Y-32997D01*
X63991Y-33054D01*
X63887Y-33159D01*
X63830Y-33295D01*
X63830Y-33443D01*
X63886Y-33580D01*
X63991Y-33685D01*
X64128Y-33742D01*
X64276Y-33742D01*
X64412Y-33685D01*
X64517Y-33581D01*
X64574Y-33444D01*
X64574Y-33296D01*
X64574Y-34007D01*
X64497Y-33929D01*
X64306Y-33850D01*
X64099Y-33850D01*
X63908Y-33929D01*
X63762Y-34075D01*
X63722Y-34171D01*
X63722Y-32267D01*
X63643Y-32076D01*
X63497Y-31929D01*
X63306Y-31850D01*
X63275Y-31850D01*
X63275Y-29829D01*
X63235Y-29732D01*
X63161Y-29658D01*
X63064Y-29618D01*
X62959Y-29618D01*
X62862Y-29658D01*
X62834Y-29686D01*
X62807Y-29658D01*
X62710Y-29618D01*
X62605Y-29618D01*
X62508Y-29658D01*
X62470Y-29695D01*
X62433Y-29658D01*
X62336Y-29618D01*
X62231Y-29618D01*
X62134Y-29658D01*
X62059Y-29732D01*
X62019Y-29829D01*
X62019Y-29934D01*
X62059Y-30031D01*
X62133Y-30105D01*
X62230Y-30145D01*
X62335Y-30145D01*
X62432Y-30105D01*
X62470Y-30067D01*
X62507Y-30105D01*
X62604Y-30145D01*
X62709Y-30145D01*
X62806Y-30105D01*
X62834Y-30077D01*
X62862Y-30105D01*
X62959Y-30145D01*
X63064Y-30145D01*
X63161Y-30105D01*
X63235Y-30031D01*
X63275Y-29934D01*
X63275Y-29829D01*
X63275Y-31850D01*
X63099Y-31850D01*
X62908Y-31929D01*
X62762Y-32075D01*
X62682Y-32266D01*
X62682Y-32472D01*
X62761Y-32664D01*
X62907Y-32810D01*
X63098Y-32889D01*
X63305Y-32889D01*
X63496Y-32810D01*
X63642Y-32664D01*
X63721Y-32473D01*
X63722Y-32267D01*
X63722Y-34171D01*
X63682Y-34266D01*
X63682Y-34472D01*
X63761Y-34664D01*
X63907Y-34810D01*
X64098Y-34889D01*
X64305Y-34889D01*
X64496Y-34810D01*
X64642Y-34664D01*
X64721Y-34473D01*
X64722Y-34267D01*
X64722Y-34921D01*
X63574Y-34921D01*
X63574Y-33296D01*
X63517Y-33159D01*
X63413Y-33054D01*
X63276Y-32998D01*
X63128Y-32997D01*
X62991Y-33054D01*
X62887Y-33159D01*
X62830Y-33295D01*
X62830Y-33443D01*
X62886Y-33580D01*
X62991Y-33685D01*
X63128Y-33742D01*
X63276Y-33742D01*
X63412Y-33685D01*
X63517Y-33581D01*
X63574Y-33444D01*
X63574Y-33296D01*
X63574Y-34921D01*
X62722Y-34921D01*
X62722Y-34267D01*
X62643Y-34076D01*
X62574Y-34007D01*
X62574Y-33296D01*
X62517Y-33159D01*
X62413Y-33054D01*
X62276Y-32998D01*
X62133Y-32997D01*
X62133Y-30420D01*
X62093Y-30323D01*
X62019Y-30248D01*
X61922Y-30208D01*
X61817Y-30208D01*
X61720Y-30248D01*
X61646Y-30322D01*
X61606Y-30419D01*
X61606Y-30524D01*
X61646Y-30621D01*
X61720Y-30695D01*
X61817Y-30736D01*
X61922Y-30736D01*
X62019Y-30696D01*
X62093Y-30622D01*
X62133Y-30525D01*
X62133Y-30420D01*
X62133Y-32997D01*
X62128Y-32997D01*
X61991Y-33054D01*
X61887Y-33159D01*
X61830Y-33295D01*
X61830Y-33443D01*
X61886Y-33580D01*
X61991Y-33685D01*
X62128Y-33742D01*
X62276Y-33742D01*
X62412Y-33685D01*
X62517Y-33581D01*
X62574Y-33444D01*
X62574Y-33296D01*
X62574Y-34007D01*
X62497Y-33929D01*
X62306Y-33850D01*
X62099Y-33850D01*
X61908Y-33929D01*
X61762Y-34075D01*
X61722Y-34171D01*
X61722Y-32267D01*
X61643Y-32076D01*
X61497Y-31929D01*
X61306Y-31850D01*
X61228Y-31850D01*
X61228Y-30420D01*
X61188Y-30323D01*
X61114Y-30248D01*
X61017Y-30208D01*
X60912Y-30208D01*
X60815Y-30248D01*
X60741Y-30322D01*
X60700Y-30419D01*
X60700Y-30524D01*
X60740Y-30621D01*
X60814Y-30695D01*
X60911Y-30736D01*
X61016Y-30736D01*
X61113Y-30696D01*
X61188Y-30622D01*
X61228Y-30525D01*
X61228Y-30420D01*
X61228Y-31850D01*
X61099Y-31850D01*
X60908Y-31929D01*
X60762Y-32075D01*
X60682Y-32266D01*
X60682Y-32472D01*
X60761Y-32664D01*
X60907Y-32810D01*
X61098Y-32889D01*
X61305Y-32889D01*
X61496Y-32810D01*
X61642Y-32664D01*
X61721Y-32473D01*
X61722Y-32267D01*
X61722Y-34171D01*
X61682Y-34266D01*
X61682Y-34472D01*
X61761Y-34664D01*
X61907Y-34810D01*
X62098Y-34889D01*
X62305Y-34889D01*
X62496Y-34810D01*
X62642Y-34664D01*
X62721Y-34473D01*
X62722Y-34267D01*
X62722Y-34921D01*
X61574Y-34921D01*
X61574Y-33296D01*
X61517Y-33159D01*
X61413Y-33054D01*
X61276Y-32998D01*
X61128Y-32997D01*
X60991Y-33054D01*
X60887Y-33159D01*
X60830Y-33295D01*
X60830Y-33443D01*
X60886Y-33580D01*
X60991Y-33685D01*
X61128Y-33742D01*
X61276Y-33742D01*
X61412Y-33685D01*
X61517Y-33581D01*
X61574Y-33444D01*
X61574Y-33296D01*
X61574Y-34921D01*
X60722Y-34921D01*
X60722Y-34267D01*
X60643Y-34076D01*
X60637Y-34070D01*
X60637Y-30420D01*
X60597Y-30323D01*
X60523Y-30248D01*
X60426Y-30208D01*
X60321Y-30208D01*
X60224Y-30248D01*
X60150Y-30322D01*
X60140Y-30347D01*
X60105Y-30264D01*
X60031Y-30189D01*
X59934Y-30149D01*
X59829Y-30149D01*
X59732Y-30189D01*
X59694Y-30227D01*
X59657Y-30189D01*
X59560Y-30149D01*
X59455Y-30149D01*
X59358Y-30189D01*
X59284Y-30263D01*
X59276Y-30281D01*
X59244Y-30248D01*
X59147Y-30208D01*
X59042Y-30208D01*
X58945Y-30248D01*
X58926Y-30267D01*
X58924Y-30264D01*
X58850Y-30189D01*
X58753Y-30149D01*
X58669Y-30149D01*
X58669Y-30065D01*
X58629Y-29968D01*
X58555Y-29894D01*
X58458Y-29854D01*
X58353Y-29854D01*
X58256Y-29894D01*
X58182Y-29968D01*
X58141Y-30065D01*
X58141Y-30149D01*
X58077Y-30149D01*
X57980Y-30189D01*
X57906Y-30263D01*
X57866Y-30360D01*
X57866Y-30465D01*
X57906Y-30562D01*
X57980Y-30636D01*
X58077Y-30677D01*
X58182Y-30677D01*
X58279Y-30637D01*
X58353Y-30563D01*
X58393Y-30466D01*
X58393Y-30381D01*
X58437Y-30381D01*
X58436Y-30465D01*
X58477Y-30562D01*
X58551Y-30636D01*
X58648Y-30677D01*
X58753Y-30677D01*
X58850Y-30637D01*
X58869Y-30617D01*
X58870Y-30621D01*
X58944Y-30695D01*
X59041Y-30736D01*
X59146Y-30736D01*
X59243Y-30696D01*
X59317Y-30622D01*
X59325Y-30604D01*
X59358Y-30636D01*
X59455Y-30677D01*
X59560Y-30677D01*
X59657Y-30637D01*
X59694Y-30599D01*
X59732Y-30636D01*
X59829Y-30677D01*
X59934Y-30677D01*
X60031Y-30637D01*
X60105Y-30563D01*
X60115Y-30538D01*
X60150Y-30621D01*
X60224Y-30695D01*
X60321Y-30736D01*
X60426Y-30736D01*
X60523Y-30696D01*
X60597Y-30622D01*
X60637Y-30525D01*
X60637Y-30420D01*
X60637Y-34070D01*
X60574Y-34007D01*
X60574Y-33296D01*
X60517Y-33159D01*
X60413Y-33054D01*
X60276Y-32998D01*
X60128Y-32997D01*
X59991Y-33054D01*
X59887Y-33159D01*
X59830Y-33295D01*
X59830Y-33443D01*
X59886Y-33580D01*
X59991Y-33685D01*
X60128Y-33742D01*
X60276Y-33742D01*
X60412Y-33685D01*
X60517Y-33581D01*
X60574Y-33444D01*
X60574Y-33296D01*
X60574Y-34007D01*
X60497Y-33929D01*
X60306Y-33850D01*
X60099Y-33850D01*
X59908Y-33929D01*
X59762Y-34075D01*
X59722Y-34171D01*
X59722Y-32267D01*
X59643Y-32076D01*
X59497Y-31929D01*
X59306Y-31850D01*
X59099Y-31850D01*
X58908Y-31929D01*
X58762Y-32075D01*
X58682Y-32266D01*
X58682Y-32472D01*
X58761Y-32664D01*
X58907Y-32810D01*
X59098Y-32889D01*
X59305Y-32889D01*
X59496Y-32810D01*
X59642Y-32664D01*
X59721Y-32473D01*
X59722Y-32267D01*
X59722Y-34171D01*
X59682Y-34266D01*
X59682Y-34472D01*
X59761Y-34664D01*
X59907Y-34810D01*
X60098Y-34889D01*
X60305Y-34889D01*
X60496Y-34810D01*
X60642Y-34664D01*
X60721Y-34473D01*
X60722Y-34267D01*
X60722Y-34921D01*
X59574Y-34921D01*
X59574Y-33296D01*
X59517Y-33159D01*
X59413Y-33054D01*
X59276Y-32998D01*
X59128Y-32997D01*
X58991Y-33054D01*
X58887Y-33159D01*
X58830Y-33295D01*
X58830Y-33443D01*
X58886Y-33580D01*
X58991Y-33685D01*
X59128Y-33742D01*
X59276Y-33742D01*
X59412Y-33685D01*
X59517Y-33581D01*
X59574Y-33444D01*
X59574Y-33296D01*
X59574Y-34921D01*
X59251Y-34921D01*
X59251Y-41575D01*
X59224Y-41548D01*
X59127Y-41507D01*
X59023Y-41507D01*
X59023Y-39672D01*
X58983Y-39575D01*
X58944Y-39536D01*
X58944Y-35892D01*
X58904Y-35795D01*
X58830Y-35721D01*
X58733Y-35681D01*
X58722Y-35681D01*
X58722Y-34267D01*
X58643Y-34076D01*
X58574Y-34007D01*
X58574Y-33296D01*
X58517Y-33159D01*
X58413Y-33054D01*
X58276Y-32998D01*
X58128Y-32997D01*
X57991Y-33054D01*
X57887Y-33159D01*
X57830Y-33295D01*
X57830Y-33443D01*
X57886Y-33580D01*
X57991Y-33685D01*
X58128Y-33742D01*
X58276Y-33742D01*
X58412Y-33685D01*
X58517Y-33581D01*
X58574Y-33444D01*
X58574Y-33296D01*
X58574Y-34007D01*
X58497Y-33929D01*
X58306Y-33850D01*
X58099Y-33850D01*
X57908Y-33929D01*
X57762Y-34075D01*
X57682Y-34266D01*
X57682Y-34472D01*
X57761Y-34664D01*
X57907Y-34810D01*
X58098Y-34889D01*
X58305Y-34889D01*
X58496Y-34810D01*
X58642Y-34664D01*
X58721Y-34473D01*
X58722Y-34267D01*
X58722Y-35681D01*
X58628Y-35681D01*
X58531Y-35721D01*
X58457Y-35795D01*
X58417Y-35892D01*
X58417Y-35997D01*
X58457Y-36094D01*
X58531Y-36168D01*
X58628Y-36208D01*
X58733Y-36208D01*
X58830Y-36168D01*
X58904Y-36094D01*
X58944Y-35997D01*
X58944Y-35892D01*
X58944Y-39536D01*
X58909Y-39500D01*
X58812Y-39460D01*
X58707Y-39460D01*
X58629Y-39492D01*
X58629Y-37900D01*
X58589Y-37803D01*
X58542Y-37755D01*
X58589Y-37708D01*
X58629Y-37611D01*
X58629Y-37506D01*
X58589Y-37409D01*
X58515Y-37335D01*
X58418Y-37295D01*
X58313Y-37295D01*
X58216Y-37335D01*
X58142Y-37409D01*
X58102Y-37506D01*
X58102Y-37611D01*
X58142Y-37708D01*
X58189Y-37755D01*
X58142Y-37803D01*
X58102Y-37900D01*
X58102Y-38004D01*
X58142Y-38101D01*
X58216Y-38176D01*
X58313Y-38216D01*
X58418Y-38216D01*
X58515Y-38176D01*
X58589Y-38102D01*
X58629Y-38005D01*
X58629Y-37900D01*
X58629Y-39492D01*
X58610Y-39500D01*
X58536Y-39574D01*
X58496Y-39671D01*
X58496Y-39776D01*
X58536Y-39873D01*
X58610Y-39947D01*
X58707Y-39988D01*
X58812Y-39988D01*
X58909Y-39948D01*
X58983Y-39874D01*
X59023Y-39777D01*
X59023Y-39672D01*
X59023Y-41507D01*
X59022Y-41507D01*
X58925Y-41547D01*
X58858Y-41615D01*
X58791Y-41548D01*
X58694Y-41507D01*
X58589Y-41507D01*
X58492Y-41547D01*
X58418Y-41622D01*
X58377Y-41718D01*
X58377Y-41823D01*
X58417Y-41920D01*
X58492Y-41995D01*
X58589Y-42035D01*
X58693Y-42035D01*
X58790Y-41995D01*
X58858Y-41928D01*
X58925Y-41995D01*
X59022Y-42035D01*
X59127Y-42035D01*
X59224Y-41995D01*
X59251Y-41967D01*
X59251Y-50551D01*
X64055Y-50551D01*
X64055Y-51321D01*
X63678Y-51165D01*
X63189Y-51165D01*
X62738Y-51351D01*
X62392Y-51696D01*
X62204Y-52148D01*
X62204Y-52636D01*
X62391Y-53088D01*
X62736Y-53434D01*
X63187Y-53621D01*
X63676Y-53622D01*
X64055Y-53465D01*
X64055Y-53818D01*
X62122Y-53818D01*
X62122Y-51267D01*
X62043Y-51076D01*
X61897Y-50929D01*
X61706Y-50850D01*
X61499Y-50850D01*
X61308Y-50929D01*
X61162Y-51075D01*
X61082Y-51266D01*
X61082Y-51472D01*
X61161Y-51664D01*
X61307Y-51810D01*
X61498Y-51889D01*
X61705Y-51889D01*
X61896Y-51810D01*
X62042Y-51664D01*
X62121Y-51473D01*
X62122Y-51267D01*
X62122Y-53818D01*
X61974Y-53818D01*
X61974Y-52296D01*
X61917Y-52159D01*
X61813Y-52054D01*
X61676Y-51998D01*
X61528Y-51997D01*
X61391Y-52054D01*
X61287Y-52159D01*
X61230Y-52295D01*
X61230Y-52443D01*
X61286Y-52580D01*
X61391Y-52685D01*
X61528Y-52742D01*
X61676Y-52742D01*
X61812Y-52685D01*
X61917Y-52581D01*
X61974Y-52444D01*
X61974Y-52296D01*
X61974Y-53818D01*
X61130Y-53818D01*
X61130Y-53415D01*
X61107Y-53210D01*
X61072Y-53125D01*
X61006Y-53077D01*
X60974Y-53109D01*
X60974Y-52296D01*
X60917Y-52159D01*
X60813Y-52054D01*
X60676Y-51998D01*
X60528Y-51997D01*
X60391Y-52054D01*
X60287Y-52159D01*
X60230Y-52295D01*
X60230Y-52443D01*
X60286Y-52580D01*
X60391Y-52685D01*
X60528Y-52742D01*
X60676Y-52742D01*
X60812Y-52685D01*
X60917Y-52581D01*
X60974Y-52444D01*
X60974Y-52296D01*
X60974Y-53109D01*
X60894Y-53189D01*
X60894Y-52966D01*
X60846Y-52899D01*
X60648Y-52842D01*
X60442Y-52864D01*
X60358Y-52899D01*
X60310Y-52966D01*
X60602Y-53258D01*
X60894Y-52966D01*
X60894Y-53189D01*
X60713Y-53370D01*
X61006Y-53662D01*
X61072Y-53614D01*
X61130Y-53415D01*
X61130Y-53818D01*
X60862Y-53818D01*
X60894Y-53773D01*
X60602Y-53481D01*
X60491Y-53592D01*
X60491Y-53370D01*
X60198Y-53077D01*
X60132Y-53125D01*
X60122Y-53160D01*
X60122Y-51267D01*
X60043Y-51076D01*
X59897Y-50929D01*
X59706Y-50850D01*
X59499Y-50850D01*
X59308Y-50929D01*
X59162Y-51075D01*
X59082Y-51266D01*
X59082Y-51472D01*
X59161Y-51664D01*
X59307Y-51810D01*
X59498Y-51889D01*
X59705Y-51889D01*
X59896Y-51810D01*
X60042Y-51664D01*
X60121Y-51473D01*
X60122Y-51267D01*
X60122Y-53160D01*
X60074Y-53324D01*
X60097Y-53529D01*
X60132Y-53614D01*
X60198Y-53662D01*
X60491Y-53370D01*
X60491Y-53592D01*
X60310Y-53773D01*
X60342Y-53818D01*
X59974Y-53818D01*
X59974Y-52296D01*
X59917Y-52159D01*
X59813Y-52054D01*
X59676Y-51998D01*
X59528Y-51997D01*
X59391Y-52054D01*
X59287Y-52159D01*
X59230Y-52295D01*
X59230Y-52443D01*
X59286Y-52580D01*
X59391Y-52685D01*
X59528Y-52742D01*
X59676Y-52742D01*
X59812Y-52685D01*
X59917Y-52581D01*
X59974Y-52444D01*
X59974Y-52296D01*
X59974Y-53818D01*
X58877Y-53818D01*
X58896Y-53810D01*
X59042Y-53664D01*
X59121Y-53473D01*
X59122Y-53267D01*
X59043Y-53076D01*
X58974Y-53007D01*
X58974Y-52296D01*
X58917Y-52159D01*
X58905Y-52147D01*
X58905Y-42703D01*
X58865Y-42606D01*
X58791Y-42532D01*
X58694Y-42492D01*
X58589Y-42492D01*
X58492Y-42532D01*
X58418Y-42606D01*
X58377Y-42703D01*
X58377Y-42808D01*
X58417Y-42905D01*
X58492Y-42979D01*
X58589Y-43019D01*
X58693Y-43019D01*
X58790Y-42979D01*
X58865Y-42905D01*
X58905Y-42808D01*
X58905Y-42703D01*
X58905Y-52147D01*
X58813Y-52054D01*
X58676Y-51998D01*
X58622Y-51998D01*
X58622Y-47625D01*
X58513Y-47362D01*
X58311Y-47160D01*
X58275Y-47145D01*
X58275Y-43550D01*
X58235Y-43453D01*
X58161Y-43378D01*
X58064Y-43338D01*
X57959Y-43338D01*
X57862Y-43378D01*
X57788Y-43452D01*
X57748Y-43549D01*
X57747Y-43654D01*
X57788Y-43751D01*
X57862Y-43825D01*
X57959Y-43866D01*
X58064Y-43866D01*
X58161Y-43826D01*
X58235Y-43751D01*
X58275Y-43655D01*
X58275Y-43550D01*
X58275Y-47145D01*
X58048Y-47051D01*
X57763Y-47051D01*
X57685Y-47083D01*
X57685Y-43550D01*
X57645Y-43453D01*
X57570Y-43378D01*
X57473Y-43338D01*
X57409Y-43338D01*
X57409Y-34790D01*
X57369Y-34693D01*
X57295Y-34619D01*
X57198Y-34578D01*
X57093Y-34578D01*
X56996Y-34618D01*
X56922Y-34692D01*
X56881Y-34789D01*
X56881Y-34894D01*
X56921Y-34991D01*
X56996Y-35066D01*
X57092Y-35106D01*
X57197Y-35106D01*
X57294Y-35066D01*
X57369Y-34992D01*
X57409Y-34895D01*
X57409Y-34790D01*
X57409Y-43338D01*
X57370Y-43338D01*
X57370Y-35892D01*
X57330Y-35795D01*
X57255Y-35721D01*
X57158Y-35681D01*
X57054Y-35681D01*
X56957Y-35721D01*
X56882Y-35795D01*
X56842Y-35892D01*
X56842Y-35997D01*
X56882Y-36094D01*
X56956Y-36168D01*
X57053Y-36208D01*
X57158Y-36208D01*
X57255Y-36168D01*
X57329Y-36094D01*
X57370Y-35997D01*
X57370Y-35892D01*
X57370Y-43338D01*
X57369Y-43338D01*
X57272Y-43378D01*
X57197Y-43452D01*
X57157Y-43549D01*
X57157Y-43654D01*
X57197Y-43751D01*
X57271Y-43825D01*
X57368Y-43866D01*
X57473Y-43866D01*
X57570Y-43826D01*
X57644Y-43751D01*
X57684Y-43655D01*
X57685Y-43550D01*
X57685Y-47083D01*
X57500Y-47159D01*
X57298Y-47361D01*
X57189Y-47624D01*
X57188Y-47909D01*
X57297Y-48173D01*
X57499Y-48374D01*
X57762Y-48484D01*
X58047Y-48484D01*
X58310Y-48375D01*
X58512Y-48174D01*
X58621Y-47910D01*
X58622Y-47625D01*
X58622Y-51998D01*
X58528Y-51997D01*
X58391Y-52054D01*
X58287Y-52159D01*
X58230Y-52295D01*
X58230Y-52443D01*
X58286Y-52580D01*
X58391Y-52685D01*
X58528Y-52742D01*
X58676Y-52742D01*
X58812Y-52685D01*
X58917Y-52581D01*
X58974Y-52444D01*
X58974Y-52296D01*
X58974Y-53007D01*
X58897Y-52929D01*
X58706Y-52850D01*
X58499Y-52850D01*
X58308Y-52929D01*
X58162Y-53075D01*
X58130Y-53151D01*
X58130Y-51415D01*
X58107Y-51210D01*
X58072Y-51125D01*
X58006Y-51077D01*
X58000Y-51083D01*
X58000Y-50519D01*
X58000Y-49480D01*
X56405Y-49480D01*
X56405Y-43983D01*
X56365Y-43886D01*
X56291Y-43811D01*
X56194Y-43771D01*
X56089Y-43771D01*
X55992Y-43811D01*
X55918Y-43885D01*
X55877Y-43982D01*
X55877Y-44087D01*
X55917Y-44184D01*
X55992Y-44258D01*
X56089Y-44299D01*
X56193Y-44299D01*
X56290Y-44259D01*
X56365Y-44185D01*
X56405Y-44088D01*
X56405Y-43983D01*
X56405Y-49480D01*
X55224Y-49480D01*
X55224Y-46109D01*
X55184Y-46012D01*
X55110Y-45937D01*
X55027Y-45903D01*
X55027Y-43471D01*
X55027Y-41817D01*
X54987Y-41720D01*
X54913Y-41646D01*
X54816Y-41606D01*
X54711Y-41606D01*
X54614Y-41646D01*
X54540Y-41720D01*
X54500Y-41817D01*
X54499Y-41922D01*
X54540Y-42019D01*
X54614Y-42093D01*
X54711Y-42133D01*
X54816Y-42133D01*
X54913Y-42093D01*
X54987Y-42019D01*
X55027Y-41922D01*
X55027Y-41817D01*
X55027Y-43471D01*
X54987Y-43374D01*
X54913Y-43300D01*
X54816Y-43259D01*
X54711Y-43259D01*
X54614Y-43299D01*
X54540Y-43374D01*
X54500Y-43470D01*
X54499Y-43575D01*
X54540Y-43672D01*
X54614Y-43747D01*
X54711Y-43787D01*
X54816Y-43787D01*
X54913Y-43747D01*
X54987Y-43673D01*
X55027Y-43576D01*
X55027Y-43471D01*
X55027Y-45903D01*
X55013Y-45897D01*
X54908Y-45897D01*
X54811Y-45937D01*
X54737Y-46011D01*
X54696Y-46108D01*
X54696Y-46213D01*
X54736Y-46310D01*
X54811Y-46384D01*
X54907Y-46425D01*
X55012Y-46425D01*
X55109Y-46385D01*
X55184Y-46311D01*
X55224Y-46214D01*
X55224Y-46109D01*
X55224Y-49480D01*
X54456Y-49480D01*
X54456Y-40425D01*
X54435Y-40425D01*
X54488Y-40373D01*
X54555Y-40440D01*
X54652Y-40480D01*
X54756Y-40480D01*
X54853Y-40440D01*
X54921Y-40373D01*
X54988Y-40440D01*
X55085Y-40480D01*
X55190Y-40480D01*
X55287Y-40440D01*
X55361Y-40366D01*
X55401Y-40269D01*
X55401Y-40164D01*
X55361Y-40067D01*
X55287Y-39993D01*
X55190Y-39952D01*
X55085Y-39952D01*
X54988Y-39992D01*
X54921Y-40060D01*
X54854Y-39993D01*
X54757Y-39952D01*
X54652Y-39952D01*
X54555Y-39992D01*
X54488Y-40060D01*
X54421Y-39993D01*
X54324Y-39952D01*
X54219Y-39952D01*
X54122Y-39992D01*
X54048Y-40066D01*
X54007Y-40163D01*
X54007Y-40268D01*
X54047Y-40365D01*
X54107Y-40425D01*
X52881Y-40425D01*
X52881Y-39889D01*
X53063Y-39889D01*
X53044Y-39909D01*
X53003Y-40006D01*
X53003Y-40111D01*
X53043Y-40208D01*
X53118Y-40282D01*
X53215Y-40322D01*
X53319Y-40322D01*
X53416Y-40282D01*
X53491Y-40208D01*
X53531Y-40111D01*
X53531Y-40006D01*
X53491Y-39909D01*
X53471Y-39889D01*
X55619Y-39889D01*
X55657Y-39928D01*
X55754Y-39968D01*
X55859Y-39968D01*
X55956Y-39928D01*
X55995Y-39889D01*
X56425Y-39889D01*
X56425Y-34840D01*
X56496Y-34810D01*
X56642Y-34664D01*
X56721Y-34473D01*
X56722Y-34267D01*
X56643Y-34076D01*
X56497Y-33929D01*
X56425Y-33899D01*
X56425Y-33673D01*
X56517Y-33581D01*
X56574Y-33444D01*
X56574Y-33296D01*
X56533Y-33196D01*
X56594Y-33196D01*
X56646Y-33196D01*
X56646Y-33196D01*
X56871Y-33196D01*
X56830Y-33295D01*
X56830Y-33443D01*
X56886Y-33580D01*
X56991Y-33685D01*
X57128Y-33742D01*
X57276Y-33742D01*
X57412Y-33685D01*
X57517Y-33581D01*
X57574Y-33444D01*
X57574Y-33296D01*
X57533Y-33196D01*
X57606Y-33196D01*
X57606Y-32701D01*
X57642Y-32664D01*
X57721Y-32473D01*
X57722Y-32267D01*
X57643Y-32076D01*
X57606Y-32039D01*
X57606Y-30188D01*
X56189Y-30188D01*
X56189Y-29829D01*
X56148Y-29732D01*
X56074Y-29658D01*
X55977Y-29618D01*
X55872Y-29618D01*
X55775Y-29658D01*
X55738Y-29695D01*
X55700Y-29658D01*
X55603Y-29618D01*
X55498Y-29618D01*
X55401Y-29658D01*
X55364Y-29695D01*
X55326Y-29658D01*
X55229Y-29618D01*
X55124Y-29618D01*
X55027Y-29658D01*
X54953Y-29732D01*
X54913Y-29829D01*
X54913Y-29934D01*
X54953Y-30031D01*
X55027Y-30105D01*
X55124Y-30145D01*
X55229Y-30145D01*
X55326Y-30105D01*
X55364Y-30067D01*
X55401Y-30105D01*
X55498Y-30145D01*
X55603Y-30145D01*
X55700Y-30105D01*
X55738Y-30067D01*
X55775Y-30105D01*
X55872Y-30145D01*
X55977Y-30145D01*
X56074Y-30105D01*
X56148Y-30031D01*
X56188Y-29934D01*
X56189Y-29829D01*
X56189Y-30188D01*
X54598Y-30188D01*
X54598Y-31850D01*
X54499Y-31850D01*
X54308Y-31929D01*
X54162Y-32075D01*
X54082Y-32266D01*
X54082Y-32472D01*
X54161Y-32664D01*
X54307Y-32810D01*
X54498Y-32889D01*
X54598Y-32889D01*
X54598Y-32998D01*
X54528Y-32997D01*
X54391Y-33054D01*
X54287Y-33159D01*
X54230Y-33295D01*
X54230Y-33443D01*
X54286Y-33580D01*
X54391Y-33685D01*
X54528Y-33742D01*
X54598Y-33742D01*
X54598Y-34901D01*
X54593Y-34890D01*
X54519Y-34815D01*
X54422Y-34775D01*
X54317Y-34775D01*
X54220Y-34815D01*
X54146Y-34889D01*
X54122Y-34948D01*
X54122Y-34267D01*
X54043Y-34076D01*
X53974Y-34007D01*
X53974Y-33296D01*
X53964Y-33272D01*
X53964Y-28077D01*
X53924Y-27980D01*
X53850Y-27906D01*
X53753Y-27866D01*
X53648Y-27866D01*
X53551Y-27906D01*
X53477Y-27980D01*
X53464Y-28010D01*
X53452Y-27980D01*
X53377Y-27906D01*
X53281Y-27866D01*
X53176Y-27866D01*
X53079Y-27906D01*
X53004Y-27980D01*
X52964Y-28077D01*
X52964Y-28182D01*
X53004Y-28279D01*
X53078Y-28353D01*
X53175Y-28393D01*
X53280Y-28393D01*
X53377Y-28353D01*
X53451Y-28279D01*
X53464Y-28248D01*
X53477Y-28279D01*
X53551Y-28353D01*
X53648Y-28393D01*
X53753Y-28393D01*
X53850Y-28353D01*
X53924Y-28279D01*
X53964Y-28182D01*
X53964Y-28077D01*
X53964Y-33272D01*
X53917Y-33159D01*
X53813Y-33054D01*
X53676Y-32998D01*
X53528Y-32997D01*
X53391Y-33054D01*
X53287Y-33159D01*
X53230Y-33295D01*
X53230Y-33443D01*
X53286Y-33580D01*
X53391Y-33685D01*
X53528Y-33742D01*
X53676Y-33742D01*
X53812Y-33685D01*
X53917Y-33581D01*
X53974Y-33444D01*
X53974Y-33296D01*
X53974Y-34007D01*
X53897Y-33929D01*
X53706Y-33850D01*
X53499Y-33850D01*
X53308Y-33929D01*
X53162Y-34075D01*
X53122Y-34171D01*
X53122Y-32267D01*
X53043Y-32076D01*
X53000Y-32032D01*
X53000Y-30892D01*
X52959Y-30795D01*
X52885Y-30721D01*
X52788Y-30681D01*
X52683Y-30681D01*
X52586Y-30721D01*
X52512Y-30795D01*
X52472Y-30892D01*
X52472Y-30997D01*
X52512Y-31094D01*
X52586Y-31168D01*
X52683Y-31208D01*
X52788Y-31208D01*
X52885Y-31168D01*
X52959Y-31094D01*
X52999Y-30997D01*
X53000Y-30892D01*
X53000Y-32032D01*
X52897Y-31929D01*
X52706Y-31850D01*
X52499Y-31850D01*
X52308Y-31929D01*
X52162Y-32075D01*
X52082Y-32266D01*
X52082Y-32472D01*
X52161Y-32664D01*
X52307Y-32810D01*
X52498Y-32889D01*
X52705Y-32889D01*
X52896Y-32810D01*
X53042Y-32664D01*
X53121Y-32473D01*
X53122Y-32267D01*
X53122Y-34171D01*
X53082Y-34266D01*
X53082Y-34472D01*
X53161Y-34664D01*
X53307Y-34810D01*
X53498Y-34889D01*
X53705Y-34889D01*
X53896Y-34810D01*
X54042Y-34664D01*
X54121Y-34473D01*
X54122Y-34267D01*
X54122Y-34948D01*
X54106Y-34986D01*
X54106Y-35090D01*
X54061Y-35090D01*
X53964Y-35130D01*
X53890Y-35204D01*
X53850Y-35301D01*
X53850Y-35406D01*
X53890Y-35503D01*
X53964Y-35577D01*
X54061Y-35618D01*
X54166Y-35618D01*
X54263Y-35578D01*
X54337Y-35503D01*
X54377Y-35407D01*
X54377Y-35303D01*
X54422Y-35303D01*
X54519Y-35263D01*
X54593Y-35188D01*
X54598Y-35177D01*
X54598Y-36955D01*
X54397Y-37156D01*
X54397Y-35932D01*
X54357Y-35835D01*
X54283Y-35760D01*
X54186Y-35720D01*
X54081Y-35720D01*
X53984Y-35760D01*
X53910Y-35834D01*
X53870Y-35931D01*
X53870Y-36036D01*
X53910Y-36133D01*
X53984Y-36207D01*
X54081Y-36247D01*
X54186Y-36248D01*
X54283Y-36208D01*
X54357Y-36133D01*
X54397Y-36036D01*
X54397Y-35932D01*
X54397Y-37156D01*
X53807Y-37746D01*
X53807Y-37191D01*
X53807Y-36246D01*
X53807Y-35617D01*
X53767Y-35520D01*
X53692Y-35445D01*
X53596Y-35405D01*
X53491Y-35405D01*
X53394Y-35445D01*
X53319Y-35519D01*
X53279Y-35616D01*
X53279Y-35721D01*
X53319Y-35818D01*
X53393Y-35892D01*
X53490Y-35933D01*
X53595Y-35933D01*
X53692Y-35893D01*
X53766Y-35818D01*
X53807Y-35721D01*
X53807Y-35617D01*
X53807Y-36246D01*
X53767Y-36149D01*
X53692Y-36075D01*
X53596Y-36035D01*
X53491Y-36035D01*
X53394Y-36075D01*
X53319Y-36149D01*
X53279Y-36246D01*
X53279Y-36351D01*
X53319Y-36448D01*
X53393Y-36522D01*
X53490Y-36562D01*
X53595Y-36563D01*
X53692Y-36522D01*
X53766Y-36448D01*
X53807Y-36351D01*
X53807Y-36246D01*
X53807Y-37191D01*
X53767Y-37094D01*
X53692Y-37020D01*
X53596Y-36980D01*
X53491Y-36980D01*
X53394Y-37020D01*
X53319Y-37094D01*
X53279Y-37191D01*
X53279Y-37296D01*
X53319Y-37393D01*
X53393Y-37467D01*
X53490Y-37507D01*
X53595Y-37507D01*
X53692Y-37467D01*
X53766Y-37393D01*
X53807Y-37296D01*
X53807Y-37191D01*
X53807Y-37746D01*
X53491Y-38062D01*
X52974Y-38062D01*
X52974Y-33296D01*
X52917Y-33159D01*
X52813Y-33054D01*
X52676Y-32998D01*
X52528Y-32997D01*
X52391Y-33054D01*
X52287Y-33159D01*
X52230Y-33295D01*
X52230Y-33443D01*
X52286Y-33580D01*
X52391Y-33685D01*
X52528Y-33742D01*
X52676Y-33742D01*
X52812Y-33685D01*
X52917Y-33581D01*
X52974Y-33444D01*
X52974Y-33296D01*
X52974Y-38062D01*
X52122Y-38062D01*
X52122Y-34267D01*
X52043Y-34076D01*
X51974Y-34007D01*
X51974Y-33296D01*
X51917Y-33159D01*
X51813Y-33054D01*
X51676Y-32998D01*
X51543Y-32997D01*
X51543Y-29554D01*
X51503Y-29457D01*
X51429Y-29382D01*
X51332Y-29342D01*
X51227Y-29342D01*
X51130Y-29382D01*
X51056Y-29456D01*
X51033Y-29511D01*
X51011Y-29457D01*
X50937Y-29382D01*
X50840Y-29342D01*
X50735Y-29342D01*
X50638Y-29382D01*
X50563Y-29456D01*
X50523Y-29553D01*
X50523Y-29658D01*
X50563Y-29755D01*
X50637Y-29829D01*
X50734Y-29870D01*
X50839Y-29870D01*
X50936Y-29830D01*
X51010Y-29755D01*
X51033Y-29701D01*
X51055Y-29755D01*
X51129Y-29829D01*
X51226Y-29870D01*
X51331Y-29870D01*
X51428Y-29830D01*
X51503Y-29755D01*
X51543Y-29658D01*
X51543Y-29554D01*
X51543Y-32997D01*
X51528Y-32997D01*
X51391Y-33054D01*
X51287Y-33159D01*
X51230Y-33295D01*
X51230Y-33443D01*
X51286Y-33580D01*
X51391Y-33685D01*
X51528Y-33742D01*
X51676Y-33742D01*
X51812Y-33685D01*
X51917Y-33581D01*
X51974Y-33444D01*
X51974Y-33296D01*
X51974Y-34007D01*
X51897Y-33929D01*
X51706Y-33850D01*
X51499Y-33850D01*
X51308Y-33929D01*
X51162Y-34075D01*
X51122Y-34171D01*
X51122Y-32267D01*
X51043Y-32076D01*
X50972Y-32005D01*
X50972Y-31365D01*
X50932Y-31268D01*
X50858Y-31193D01*
X50761Y-31153D01*
X50656Y-31153D01*
X50622Y-31167D01*
X50622Y-30125D01*
X50513Y-29862D01*
X50480Y-29829D01*
X50480Y-27861D01*
X50440Y-27764D01*
X50366Y-27689D01*
X50269Y-27649D01*
X50164Y-27649D01*
X50067Y-27689D01*
X49993Y-27763D01*
X49952Y-27860D01*
X49952Y-27965D01*
X49992Y-28062D01*
X50066Y-28136D01*
X50163Y-28177D01*
X50268Y-28177D01*
X50365Y-28137D01*
X50440Y-28063D01*
X50480Y-27966D01*
X50480Y-27861D01*
X50480Y-29829D01*
X50311Y-29660D01*
X50048Y-29551D01*
X49763Y-29551D01*
X49500Y-29659D01*
X49298Y-29861D01*
X49189Y-30124D01*
X49188Y-30409D01*
X49297Y-30673D01*
X49499Y-30874D01*
X49762Y-30984D01*
X50047Y-30984D01*
X50310Y-30875D01*
X50512Y-30674D01*
X50621Y-30410D01*
X50622Y-30125D01*
X50622Y-31167D01*
X50559Y-31193D01*
X50485Y-31267D01*
X50444Y-31364D01*
X50444Y-31469D01*
X50484Y-31566D01*
X50559Y-31640D01*
X50655Y-31681D01*
X50760Y-31681D01*
X50857Y-31641D01*
X50932Y-31566D01*
X50972Y-31470D01*
X50972Y-31365D01*
X50972Y-32005D01*
X50897Y-31929D01*
X50706Y-31850D01*
X50499Y-31850D01*
X50308Y-31929D01*
X50162Y-32075D01*
X50082Y-32266D01*
X50082Y-32472D01*
X50161Y-32664D01*
X50307Y-32810D01*
X50498Y-32889D01*
X50705Y-32889D01*
X50896Y-32810D01*
X51042Y-32664D01*
X51121Y-32473D01*
X51122Y-32267D01*
X51122Y-34171D01*
X51082Y-34266D01*
X51082Y-34472D01*
X51161Y-34664D01*
X51307Y-34810D01*
X51498Y-34889D01*
X51705Y-34889D01*
X51896Y-34810D01*
X52042Y-34664D01*
X52121Y-34473D01*
X52122Y-34267D01*
X52122Y-38062D01*
X50913Y-38062D01*
X50913Y-36543D01*
X51016Y-36543D01*
X51113Y-36503D01*
X51188Y-36429D01*
X51228Y-36332D01*
X51228Y-36227D01*
X51188Y-36130D01*
X51114Y-36056D01*
X51017Y-36015D01*
X50974Y-36015D01*
X50974Y-33296D01*
X50917Y-33159D01*
X50813Y-33054D01*
X50676Y-32998D01*
X50528Y-32997D01*
X50391Y-33054D01*
X50287Y-33159D01*
X50230Y-33295D01*
X50230Y-33443D01*
X50286Y-33580D01*
X50391Y-33685D01*
X50528Y-33742D01*
X50676Y-33742D01*
X50812Y-33685D01*
X50917Y-33581D01*
X50974Y-33444D01*
X50974Y-33296D01*
X50974Y-36015D01*
X50913Y-36015D01*
X50913Y-35700D01*
X50122Y-35700D01*
X50122Y-34267D01*
X50043Y-34076D01*
X49974Y-34007D01*
X49974Y-33296D01*
X49917Y-33159D01*
X49813Y-33054D01*
X49676Y-32998D01*
X49528Y-32997D01*
X49391Y-33054D01*
X49287Y-33159D01*
X49230Y-33295D01*
X49230Y-33443D01*
X49286Y-33580D01*
X49391Y-33685D01*
X49528Y-33742D01*
X49676Y-33742D01*
X49812Y-33685D01*
X49917Y-33581D01*
X49974Y-33444D01*
X49974Y-33296D01*
X49974Y-34007D01*
X49897Y-33929D01*
X49706Y-33850D01*
X49499Y-33850D01*
X49308Y-33929D01*
X49162Y-34075D01*
X49122Y-34171D01*
X49122Y-32267D01*
X49043Y-32076D01*
X48897Y-31929D01*
X48706Y-31850D01*
X48499Y-31850D01*
X48393Y-31893D01*
X48393Y-29140D01*
X48353Y-29043D01*
X48279Y-28969D01*
X48182Y-28929D01*
X48077Y-28929D01*
X47980Y-28969D01*
X47906Y-29043D01*
X47866Y-29140D01*
X47866Y-29245D01*
X47906Y-29342D01*
X47980Y-29416D01*
X48077Y-29456D01*
X48182Y-29456D01*
X48279Y-29416D01*
X48353Y-29342D01*
X48393Y-29245D01*
X48393Y-29140D01*
X48393Y-31893D01*
X48308Y-31929D01*
X48162Y-32075D01*
X48082Y-32266D01*
X48082Y-32472D01*
X48161Y-32664D01*
X48307Y-32810D01*
X48498Y-32889D01*
X48705Y-32889D01*
X48896Y-32810D01*
X49042Y-32664D01*
X49121Y-32473D01*
X49122Y-32267D01*
X49122Y-34171D01*
X49082Y-34266D01*
X49082Y-34472D01*
X49161Y-34664D01*
X49307Y-34810D01*
X49498Y-34889D01*
X49705Y-34889D01*
X49896Y-34810D01*
X50042Y-34664D01*
X50121Y-34473D01*
X50122Y-34267D01*
X50122Y-35700D01*
X49515Y-35700D01*
X49515Y-35617D01*
X49475Y-35520D01*
X49428Y-35472D01*
X49475Y-35425D01*
X49515Y-35328D01*
X49515Y-35223D01*
X49475Y-35126D01*
X49401Y-35052D01*
X49304Y-35011D01*
X49199Y-35011D01*
X49102Y-35051D01*
X49028Y-35125D01*
X48988Y-35222D01*
X48988Y-35327D01*
X49028Y-35424D01*
X49075Y-35472D01*
X49028Y-35519D01*
X48988Y-35616D01*
X48988Y-35700D01*
X48974Y-35700D01*
X48974Y-33296D01*
X48917Y-33159D01*
X48813Y-33054D01*
X48676Y-32998D01*
X48528Y-32997D01*
X48391Y-33054D01*
X48287Y-33159D01*
X48230Y-33295D01*
X48230Y-33443D01*
X48286Y-33580D01*
X48391Y-33685D01*
X48528Y-33742D01*
X48676Y-33742D01*
X48812Y-33685D01*
X48917Y-33581D01*
X48974Y-33444D01*
X48974Y-33296D01*
X48974Y-35700D01*
X48122Y-35700D01*
X48122Y-34267D01*
X48043Y-34076D01*
X47974Y-34007D01*
X47974Y-33296D01*
X47917Y-33159D01*
X47813Y-33054D01*
X47676Y-32998D01*
X47528Y-32997D01*
X47391Y-33054D01*
X47287Y-33159D01*
X47230Y-33295D01*
X47230Y-33443D01*
X47286Y-33580D01*
X47391Y-33685D01*
X47528Y-33742D01*
X47676Y-33742D01*
X47812Y-33685D01*
X47917Y-33581D01*
X47974Y-33444D01*
X47974Y-33296D01*
X47974Y-34007D01*
X47897Y-33929D01*
X47706Y-33850D01*
X47499Y-33850D01*
X47308Y-33929D01*
X47162Y-34075D01*
X47082Y-34266D01*
X47082Y-34472D01*
X47161Y-34664D01*
X47307Y-34810D01*
X47498Y-34889D01*
X47705Y-34889D01*
X47896Y-34810D01*
X48042Y-34664D01*
X48121Y-34473D01*
X48122Y-34267D01*
X48122Y-35700D01*
X47389Y-35700D01*
X47389Y-35597D01*
X47349Y-35500D01*
X47275Y-35426D01*
X47178Y-35385D01*
X47073Y-35385D01*
X46976Y-35425D01*
X46902Y-35499D01*
X46862Y-35596D01*
X46862Y-35700D01*
X46724Y-35700D01*
X46724Y-37133D01*
X49086Y-37133D01*
X49086Y-37235D01*
X49083Y-37236D01*
X49008Y-37311D01*
X48968Y-37407D01*
X48968Y-37512D01*
X49008Y-37609D01*
X49082Y-37684D01*
X49086Y-37685D01*
X49086Y-39889D01*
X51448Y-39889D01*
X51448Y-40129D01*
X51445Y-40130D01*
X51370Y-40204D01*
X51330Y-40301D01*
X51330Y-40406D01*
X51370Y-40503D01*
X51444Y-40577D01*
X51448Y-40579D01*
X51448Y-41464D01*
X51685Y-41464D01*
X51645Y-41561D01*
X51645Y-41666D01*
X51685Y-41763D01*
X51759Y-41837D01*
X51842Y-41871D01*
X51842Y-42393D01*
X51476Y-42393D01*
X51425Y-42393D01*
X51425Y-41246D01*
X51385Y-41149D01*
X51311Y-41075D01*
X51214Y-41035D01*
X51109Y-41035D01*
X51012Y-41075D01*
X50937Y-41149D01*
X50897Y-41246D01*
X50897Y-41351D01*
X50937Y-41448D01*
X51011Y-41522D01*
X51108Y-41562D01*
X51213Y-41563D01*
X51310Y-41522D01*
X51384Y-41448D01*
X51425Y-41351D01*
X51425Y-41246D01*
X51425Y-42393D01*
X51424Y-42393D01*
X51424Y-42393D01*
X51055Y-42393D01*
X51055Y-43433D01*
X52629Y-43433D01*
X52629Y-43791D01*
X52526Y-43791D01*
X52429Y-43831D01*
X52355Y-43905D01*
X52315Y-44002D01*
X52314Y-44107D01*
X52354Y-44204D01*
X52429Y-44278D01*
X52526Y-44318D01*
X52629Y-44318D01*
X52629Y-45929D01*
X52552Y-45897D01*
X52447Y-45897D01*
X52350Y-45937D01*
X52276Y-46011D01*
X52236Y-46108D01*
X52236Y-46213D01*
X52276Y-46310D01*
X52350Y-46384D01*
X52447Y-46425D01*
X52552Y-46425D01*
X52629Y-46393D01*
X52629Y-48555D01*
X52547Y-48555D01*
X52547Y-47191D01*
X52507Y-47094D01*
X52433Y-47020D01*
X52336Y-46980D01*
X52231Y-46980D01*
X52134Y-47020D01*
X52059Y-47094D01*
X52019Y-47191D01*
X52019Y-47296D01*
X52059Y-47393D01*
X52133Y-47467D01*
X52230Y-47507D01*
X52335Y-47507D01*
X52432Y-47467D01*
X52506Y-47393D01*
X52547Y-47296D01*
X52547Y-47191D01*
X52547Y-48555D01*
X52546Y-48555D01*
X52449Y-48595D01*
X52374Y-48669D01*
X52334Y-48766D01*
X52334Y-48871D01*
X52374Y-48968D01*
X52448Y-49042D01*
X52545Y-49082D01*
X52629Y-49082D01*
X52629Y-50519D01*
X58000Y-50519D01*
X58000Y-51083D01*
X57894Y-51189D01*
X57894Y-50966D01*
X57846Y-50899D01*
X57648Y-50842D01*
X57442Y-50864D01*
X57358Y-50899D01*
X57310Y-50966D01*
X57602Y-51258D01*
X57894Y-50966D01*
X57894Y-51189D01*
X57713Y-51370D01*
X58006Y-51662D01*
X58072Y-51614D01*
X58130Y-51415D01*
X58130Y-53151D01*
X58082Y-53266D01*
X58082Y-53472D01*
X58161Y-53664D01*
X58307Y-53810D01*
X58328Y-53818D01*
X57974Y-53818D01*
X57974Y-52296D01*
X57917Y-52159D01*
X57894Y-52136D01*
X57894Y-51773D01*
X57602Y-51481D01*
X57491Y-51592D01*
X57491Y-51370D01*
X57198Y-51077D01*
X57132Y-51125D01*
X57074Y-51324D01*
X57097Y-51529D01*
X57132Y-51614D01*
X57198Y-51662D01*
X57491Y-51370D01*
X57491Y-51592D01*
X57310Y-51773D01*
X57358Y-51840D01*
X57556Y-51897D01*
X57762Y-51875D01*
X57846Y-51840D01*
X57894Y-51773D01*
X57894Y-52136D01*
X57813Y-52054D01*
X57676Y-51998D01*
X57528Y-51997D01*
X57391Y-52054D01*
X57287Y-52159D01*
X57230Y-52295D01*
X57230Y-52443D01*
X57286Y-52580D01*
X57391Y-52685D01*
X57528Y-52742D01*
X57676Y-52742D01*
X57812Y-52685D01*
X57917Y-52581D01*
X57974Y-52444D01*
X57974Y-52296D01*
X57974Y-53818D01*
X56877Y-53818D01*
X56896Y-53810D01*
X57042Y-53664D01*
X57121Y-53473D01*
X57122Y-53267D01*
X57043Y-53076D01*
X56974Y-53007D01*
X56974Y-52296D01*
X56917Y-52159D01*
X56813Y-52054D01*
X56676Y-51998D01*
X56528Y-51997D01*
X56391Y-52054D01*
X56287Y-52159D01*
X56230Y-52295D01*
X56230Y-52443D01*
X56286Y-52580D01*
X56391Y-52685D01*
X56528Y-52742D01*
X56676Y-52742D01*
X56812Y-52685D01*
X56917Y-52581D01*
X56974Y-52444D01*
X56974Y-52296D01*
X56974Y-53007D01*
X56897Y-52929D01*
X56706Y-52850D01*
X56499Y-52850D01*
X56308Y-52929D01*
X56162Y-53075D01*
X56122Y-53171D01*
X56122Y-51267D01*
X56043Y-51076D01*
X55897Y-50929D01*
X55706Y-50850D01*
X55499Y-50850D01*
X55308Y-50929D01*
X55162Y-51075D01*
X55082Y-51266D01*
X55082Y-51472D01*
X55161Y-51664D01*
X55307Y-51810D01*
X55498Y-51889D01*
X55705Y-51889D01*
X55896Y-51810D01*
X56042Y-51664D01*
X56121Y-51473D01*
X56122Y-51267D01*
X56122Y-53171D01*
X56082Y-53266D01*
X56082Y-53472D01*
X56161Y-53664D01*
X56307Y-53810D01*
X56328Y-53818D01*
X55974Y-53818D01*
X55974Y-52296D01*
X55917Y-52159D01*
X55813Y-52054D01*
X55676Y-51998D01*
X55528Y-51997D01*
X55391Y-52054D01*
X55287Y-52159D01*
X55230Y-52295D01*
X55230Y-52443D01*
X55286Y-52580D01*
X55391Y-52685D01*
X55528Y-52742D01*
X55676Y-52742D01*
X55812Y-52685D01*
X55917Y-52581D01*
X55974Y-52444D01*
X55974Y-52296D01*
X55974Y-53818D01*
X54877Y-53818D01*
X54896Y-53810D01*
X55042Y-53664D01*
X55121Y-53473D01*
X55122Y-53267D01*
X55043Y-53076D01*
X54974Y-53007D01*
X54974Y-52296D01*
X54917Y-52159D01*
X54813Y-52054D01*
X54676Y-51998D01*
X54528Y-51997D01*
X54391Y-52054D01*
X54287Y-52159D01*
X54230Y-52295D01*
X54230Y-52443D01*
X54286Y-52580D01*
X54391Y-52685D01*
X54528Y-52742D01*
X54676Y-52742D01*
X54812Y-52685D01*
X54917Y-52581D01*
X54974Y-52444D01*
X54974Y-52296D01*
X54974Y-53007D01*
X54897Y-52929D01*
X54706Y-52850D01*
X54499Y-52850D01*
X54308Y-52929D01*
X54162Y-53075D01*
X54082Y-53266D01*
X54082Y-53472D01*
X54161Y-53664D01*
X54307Y-53810D01*
X54328Y-53818D01*
X53122Y-53818D01*
X53122Y-51267D01*
X53043Y-51076D01*
X52897Y-50929D01*
X52706Y-50850D01*
X52499Y-50850D01*
X52308Y-50929D01*
X52162Y-51075D01*
X52082Y-51266D01*
X52082Y-51472D01*
X52161Y-51664D01*
X52307Y-51810D01*
X52498Y-51889D01*
X52705Y-51889D01*
X52896Y-51810D01*
X53042Y-51664D01*
X53121Y-51473D01*
X53122Y-51267D01*
X53122Y-53818D01*
X52974Y-53818D01*
X52974Y-52296D01*
X52917Y-52159D01*
X52813Y-52054D01*
X52676Y-51998D01*
X52528Y-51997D01*
X52391Y-52054D01*
X52287Y-52159D01*
X52230Y-52295D01*
X52230Y-52443D01*
X52286Y-52580D01*
X52391Y-52685D01*
X52528Y-52742D01*
X52676Y-52742D01*
X52812Y-52685D01*
X52917Y-52581D01*
X52974Y-52444D01*
X52974Y-52296D01*
X52974Y-53818D01*
X51877Y-53818D01*
X51896Y-53810D01*
X52042Y-53664D01*
X52121Y-53473D01*
X52122Y-53267D01*
X52043Y-53076D01*
X52015Y-53048D01*
X52015Y-46424D01*
X51975Y-46327D01*
X51901Y-46252D01*
X51804Y-46212D01*
X51699Y-46212D01*
X51602Y-46252D01*
X51528Y-46326D01*
X51488Y-46423D01*
X51488Y-46528D01*
X51528Y-46625D01*
X51602Y-46699D01*
X51699Y-46740D01*
X51804Y-46740D01*
X51901Y-46700D01*
X51975Y-46625D01*
X52015Y-46529D01*
X52015Y-46424D01*
X52015Y-53048D01*
X51974Y-53007D01*
X51974Y-52296D01*
X51917Y-52159D01*
X51813Y-52054D01*
X51676Y-51998D01*
X51528Y-51997D01*
X51391Y-52054D01*
X51287Y-52159D01*
X51230Y-52295D01*
X51230Y-52443D01*
X51286Y-52580D01*
X51391Y-52685D01*
X51528Y-52742D01*
X51676Y-52742D01*
X51812Y-52685D01*
X51917Y-52581D01*
X51974Y-52444D01*
X51974Y-52296D01*
X51974Y-53007D01*
X51897Y-52929D01*
X51706Y-52850D01*
X51499Y-52850D01*
X51308Y-52929D01*
X51162Y-53075D01*
X51122Y-53171D01*
X51122Y-51267D01*
X51043Y-51076D01*
X50897Y-50929D01*
X50706Y-50850D01*
X50499Y-50850D01*
X50381Y-50898D01*
X50381Y-43668D01*
X50381Y-42605D01*
X50381Y-41995D01*
X50341Y-41898D01*
X50267Y-41823D01*
X50170Y-41783D01*
X50106Y-41783D01*
X50106Y-40223D01*
X50066Y-40126D01*
X49992Y-40052D01*
X49895Y-40011D01*
X49790Y-40011D01*
X49693Y-40051D01*
X49619Y-40125D01*
X49578Y-40222D01*
X49578Y-40327D01*
X49618Y-40424D01*
X49692Y-40499D01*
X49789Y-40539D01*
X49894Y-40539D01*
X49991Y-40499D01*
X50066Y-40425D01*
X50106Y-40328D01*
X50106Y-40223D01*
X50106Y-41783D01*
X50065Y-41783D01*
X49968Y-41823D01*
X49894Y-41897D01*
X49854Y-41994D01*
X49854Y-42099D01*
X49894Y-42196D01*
X49968Y-42270D01*
X50065Y-42310D01*
X50170Y-42311D01*
X50267Y-42270D01*
X50341Y-42196D01*
X50381Y-42099D01*
X50381Y-41995D01*
X50381Y-42605D01*
X50341Y-42508D01*
X50267Y-42433D01*
X50170Y-42393D01*
X50065Y-42393D01*
X49968Y-42433D01*
X49894Y-42507D01*
X49854Y-42604D01*
X49854Y-42709D01*
X49894Y-42806D01*
X49968Y-42880D01*
X50065Y-42921D01*
X50170Y-42921D01*
X50267Y-42881D01*
X50341Y-42807D01*
X50381Y-42710D01*
X50381Y-42605D01*
X50381Y-43668D01*
X50341Y-43571D01*
X50267Y-43496D01*
X50170Y-43456D01*
X50065Y-43456D01*
X49968Y-43496D01*
X49894Y-43570D01*
X49854Y-43667D01*
X49854Y-43772D01*
X49894Y-43869D01*
X49941Y-43917D01*
X49875Y-43889D01*
X49770Y-43889D01*
X49673Y-43929D01*
X49599Y-44003D01*
X49559Y-44100D01*
X49559Y-44205D01*
X49599Y-44302D01*
X49673Y-44377D01*
X49770Y-44417D01*
X49875Y-44417D01*
X49972Y-44377D01*
X50046Y-44303D01*
X50086Y-44206D01*
X50086Y-44101D01*
X50046Y-44004D01*
X49998Y-43956D01*
X50065Y-43984D01*
X50170Y-43984D01*
X50267Y-43944D01*
X50341Y-43870D01*
X50381Y-43773D01*
X50381Y-43668D01*
X50381Y-50898D01*
X50308Y-50929D01*
X50162Y-51075D01*
X50082Y-51266D01*
X50082Y-51472D01*
X50161Y-51664D01*
X50307Y-51810D01*
X50498Y-51889D01*
X50705Y-51889D01*
X50896Y-51810D01*
X51042Y-51664D01*
X51121Y-51473D01*
X51122Y-51267D01*
X51122Y-53171D01*
X51082Y-53266D01*
X51082Y-53472D01*
X51161Y-53664D01*
X51307Y-53810D01*
X51328Y-53818D01*
X50974Y-53818D01*
X50974Y-52296D01*
X50917Y-52159D01*
X50813Y-52054D01*
X50676Y-51998D01*
X50528Y-51997D01*
X50391Y-52054D01*
X50287Y-52159D01*
X50230Y-52295D01*
X50230Y-52443D01*
X50286Y-52580D01*
X50391Y-52685D01*
X50528Y-52742D01*
X50676Y-52742D01*
X50812Y-52685D01*
X50917Y-52581D01*
X50974Y-52444D01*
X50974Y-52296D01*
X50974Y-53818D01*
X49877Y-53818D01*
X49896Y-53810D01*
X50042Y-53664D01*
X50121Y-53473D01*
X50122Y-53267D01*
X50043Y-53076D01*
X49974Y-53007D01*
X49974Y-52296D01*
X49917Y-52159D01*
X49813Y-52054D01*
X49676Y-51998D01*
X49528Y-51997D01*
X49391Y-52054D01*
X49287Y-52159D01*
X49230Y-52295D01*
X49230Y-52443D01*
X49286Y-52580D01*
X49391Y-52685D01*
X49528Y-52742D01*
X49676Y-52742D01*
X49812Y-52685D01*
X49917Y-52581D01*
X49974Y-52444D01*
X49974Y-52296D01*
X49974Y-53007D01*
X49897Y-52929D01*
X49706Y-52850D01*
X49499Y-52850D01*
X49308Y-52929D01*
X49162Y-53075D01*
X49122Y-53171D01*
X49122Y-51267D01*
X49043Y-51076D01*
X49043Y-44140D01*
X49003Y-44043D01*
X48929Y-43969D01*
X48846Y-43935D01*
X48846Y-42211D01*
X48846Y-39219D01*
X48806Y-39122D01*
X48732Y-39048D01*
X48635Y-39007D01*
X48530Y-39007D01*
X48433Y-39047D01*
X48359Y-39122D01*
X48318Y-39218D01*
X48318Y-39323D01*
X48358Y-39420D01*
X48433Y-39495D01*
X48529Y-39535D01*
X48634Y-39535D01*
X48731Y-39495D01*
X48806Y-39421D01*
X48846Y-39324D01*
X48846Y-39219D01*
X48846Y-42211D01*
X48806Y-42114D01*
X48732Y-42040D01*
X48635Y-42000D01*
X48530Y-41999D01*
X48433Y-42040D01*
X48359Y-42114D01*
X48318Y-42211D01*
X48318Y-42316D01*
X48358Y-42413D01*
X48433Y-42487D01*
X48529Y-42527D01*
X48634Y-42527D01*
X48731Y-42487D01*
X48806Y-42413D01*
X48846Y-42316D01*
X48846Y-42211D01*
X48846Y-43935D01*
X48832Y-43929D01*
X48727Y-43929D01*
X48630Y-43969D01*
X48556Y-44043D01*
X48531Y-44102D01*
X48531Y-43668D01*
X48491Y-43571D01*
X48417Y-43496D01*
X48320Y-43456D01*
X48215Y-43456D01*
X48118Y-43496D01*
X48044Y-43570D01*
X48003Y-43667D01*
X48003Y-43772D01*
X48043Y-43869D01*
X48118Y-43943D01*
X48215Y-43984D01*
X48319Y-43984D01*
X48416Y-43944D01*
X48491Y-43870D01*
X48531Y-43773D01*
X48531Y-43668D01*
X48531Y-44102D01*
X48515Y-44140D01*
X48515Y-44245D01*
X48555Y-44342D01*
X48629Y-44416D01*
X48726Y-44456D01*
X48831Y-44456D01*
X48928Y-44416D01*
X49003Y-44342D01*
X49043Y-44245D01*
X49043Y-44140D01*
X49043Y-51076D01*
X49043Y-51076D01*
X48897Y-50929D01*
X48706Y-50850D01*
X48499Y-50850D01*
X48308Y-50929D01*
X48162Y-51075D01*
X48082Y-51266D01*
X48082Y-51472D01*
X48161Y-51664D01*
X48307Y-51810D01*
X48498Y-51889D01*
X48705Y-51889D01*
X48896Y-51810D01*
X49042Y-51664D01*
X49121Y-51473D01*
X49122Y-51267D01*
X49122Y-53171D01*
X49082Y-53266D01*
X49082Y-53472D01*
X49161Y-53664D01*
X49307Y-53810D01*
X49328Y-53818D01*
X48974Y-53818D01*
X48974Y-52296D01*
X48917Y-52159D01*
X48813Y-52054D01*
X48676Y-51998D01*
X48528Y-51997D01*
X48391Y-52054D01*
X48287Y-52159D01*
X48230Y-52295D01*
X48230Y-52443D01*
X48286Y-52580D01*
X48391Y-52685D01*
X48528Y-52742D01*
X48676Y-52742D01*
X48812Y-52685D01*
X48917Y-52581D01*
X48974Y-52444D01*
X48974Y-52296D01*
X48974Y-53818D01*
X47877Y-53818D01*
X47896Y-53810D01*
X48042Y-53664D01*
X48121Y-53473D01*
X48122Y-53267D01*
X48043Y-53076D01*
X47974Y-53007D01*
X47974Y-52296D01*
X47917Y-52159D01*
X47813Y-52054D01*
X47676Y-51998D01*
X47586Y-51998D01*
X47586Y-44061D01*
X47586Y-42231D01*
X47546Y-42134D01*
X47472Y-42059D01*
X47375Y-42019D01*
X47330Y-42019D01*
X47330Y-38668D01*
X47290Y-38571D01*
X47216Y-38496D01*
X47119Y-38456D01*
X47014Y-38456D01*
X46917Y-38496D01*
X46843Y-38570D01*
X46803Y-38667D01*
X46803Y-38772D01*
X46843Y-38869D01*
X46917Y-38943D01*
X47014Y-38984D01*
X47119Y-38984D01*
X47216Y-38944D01*
X47290Y-38870D01*
X47330Y-38773D01*
X47330Y-38668D01*
X47330Y-42019D01*
X47270Y-42019D01*
X47173Y-42059D01*
X47099Y-42133D01*
X47059Y-42230D01*
X47059Y-42335D01*
X47099Y-42432D01*
X47173Y-42506D01*
X47270Y-42547D01*
X47375Y-42547D01*
X47472Y-42507D01*
X47546Y-42433D01*
X47586Y-42336D01*
X47586Y-42231D01*
X47586Y-44061D01*
X47546Y-43964D01*
X47472Y-43890D01*
X47375Y-43850D01*
X47271Y-43850D01*
X47271Y-43530D01*
X47231Y-43433D01*
X47157Y-43359D01*
X47060Y-43318D01*
X46955Y-43318D01*
X46858Y-43358D01*
X46784Y-43433D01*
X46744Y-43529D01*
X46744Y-43634D01*
X46784Y-43731D01*
X46858Y-43806D01*
X46955Y-43846D01*
X47060Y-43846D01*
X47157Y-43806D01*
X47231Y-43732D01*
X47271Y-43635D01*
X47271Y-43530D01*
X47271Y-43850D01*
X47270Y-43850D01*
X47173Y-43890D01*
X47099Y-43964D01*
X47059Y-44061D01*
X47059Y-44166D01*
X47099Y-44263D01*
X47173Y-44337D01*
X47270Y-44377D01*
X47375Y-44377D01*
X47472Y-44337D01*
X47546Y-44263D01*
X47586Y-44166D01*
X47586Y-44061D01*
X47586Y-51998D01*
X47528Y-51997D01*
X47391Y-52054D01*
X47287Y-52159D01*
X47230Y-52295D01*
X47230Y-52443D01*
X47286Y-52580D01*
X47391Y-52685D01*
X47528Y-52742D01*
X47676Y-52742D01*
X47812Y-52685D01*
X47917Y-52581D01*
X47974Y-52444D01*
X47974Y-52296D01*
X47974Y-53007D01*
X47897Y-52929D01*
X47706Y-52850D01*
X47499Y-52850D01*
X47308Y-52929D01*
X47162Y-53075D01*
X47082Y-53266D01*
X47082Y-53472D01*
X47161Y-53664D01*
X47307Y-53810D01*
X47328Y-53818D01*
X46976Y-53818D01*
X46976Y-46030D01*
X46936Y-45933D01*
X46862Y-45859D01*
X46765Y-45818D01*
X46660Y-45818D01*
X46563Y-45858D01*
X46543Y-45878D01*
X46543Y-43392D01*
X46503Y-43295D01*
X46464Y-43256D01*
X46464Y-40892D01*
X46424Y-40795D01*
X46350Y-40721D01*
X46253Y-40681D01*
X46148Y-40681D01*
X46051Y-40721D01*
X45977Y-40795D01*
X45937Y-40892D01*
X45936Y-40997D01*
X45977Y-41094D01*
X46051Y-41168D01*
X46148Y-41208D01*
X46253Y-41208D01*
X46350Y-41168D01*
X46424Y-41094D01*
X46464Y-40997D01*
X46464Y-40892D01*
X46464Y-43256D01*
X46429Y-43221D01*
X46332Y-43181D01*
X46227Y-43181D01*
X46130Y-43221D01*
X46056Y-43295D01*
X46015Y-43392D01*
X46015Y-43497D01*
X46055Y-43594D01*
X46129Y-43668D01*
X46226Y-43708D01*
X46331Y-43708D01*
X46428Y-43668D01*
X46503Y-43594D01*
X46543Y-43497D01*
X46543Y-43392D01*
X46543Y-45878D01*
X46489Y-45933D01*
X46448Y-46029D01*
X46448Y-46134D01*
X46488Y-46231D01*
X46562Y-46306D01*
X46659Y-46346D01*
X46764Y-46346D01*
X46861Y-46306D01*
X46936Y-46232D01*
X46976Y-46135D01*
X46976Y-46030D01*
X46976Y-53818D01*
X46102Y-53818D01*
X46102Y-51850D01*
X45933Y-51850D01*
X45933Y-44002D01*
X45893Y-43905D01*
X45834Y-43847D01*
X45834Y-39691D01*
X45794Y-39594D01*
X45720Y-39520D01*
X45623Y-39480D01*
X45518Y-39480D01*
X45421Y-39520D01*
X45347Y-39594D01*
X45307Y-39691D01*
X45307Y-39796D01*
X45347Y-39893D01*
X45421Y-39967D01*
X45518Y-40007D01*
X45623Y-40007D01*
X45720Y-39967D01*
X45794Y-39893D01*
X45834Y-39796D01*
X45834Y-39691D01*
X45834Y-43847D01*
X45818Y-43831D01*
X45721Y-43791D01*
X45617Y-43791D01*
X45520Y-43831D01*
X45448Y-43902D01*
X45448Y-43490D01*
X45429Y-43444D01*
X45394Y-43409D01*
X45348Y-43389D01*
X45297Y-43389D01*
X45145Y-43389D01*
X45145Y-39376D01*
X45105Y-39279D01*
X45048Y-39222D01*
X45105Y-39165D01*
X45145Y-39068D01*
X45145Y-38963D01*
X45105Y-38866D01*
X45031Y-38792D01*
X44934Y-38752D01*
X44829Y-38751D01*
X44732Y-38791D01*
X44658Y-38866D01*
X44618Y-38963D01*
X44618Y-39067D01*
X44658Y-39164D01*
X44715Y-39222D01*
X44658Y-39279D01*
X44618Y-39376D01*
X44618Y-39481D01*
X44658Y-39578D01*
X44732Y-39652D01*
X44829Y-39692D01*
X44934Y-39692D01*
X45031Y-39652D01*
X45105Y-39578D01*
X45145Y-39481D01*
X45145Y-39376D01*
X45145Y-43389D01*
X44120Y-43389D01*
X44120Y-40639D01*
X44120Y-40525D01*
X44120Y-38671D01*
X44120Y-38557D01*
X44093Y-38422D01*
X44016Y-38307D01*
X43902Y-38231D01*
X43767Y-38204D01*
X43632Y-38231D01*
X43518Y-38307D01*
X43442Y-38422D01*
X43415Y-38557D01*
X43415Y-38671D01*
X43442Y-38806D01*
X43518Y-38920D01*
X43632Y-38996D01*
X43767Y-39023D01*
X43902Y-38996D01*
X44016Y-38920D01*
X44093Y-38806D01*
X44120Y-38671D01*
X44120Y-40525D01*
X44093Y-40390D01*
X44016Y-40276D01*
X43902Y-40200D01*
X43767Y-40173D01*
X43632Y-40200D01*
X43518Y-40276D01*
X43442Y-40390D01*
X43415Y-40525D01*
X43415Y-40639D01*
X43442Y-40774D01*
X43518Y-40888D01*
X43632Y-40965D01*
X43767Y-40992D01*
X43902Y-40965D01*
X44016Y-40888D01*
X44093Y-40774D01*
X44120Y-40639D01*
X44120Y-43389D01*
X43723Y-43389D01*
X43676Y-43408D01*
X43641Y-43444D01*
X43622Y-43490D01*
X43622Y-43540D01*
X43622Y-44918D01*
X43641Y-44964D01*
X43676Y-45000D01*
X43722Y-45019D01*
X43772Y-45019D01*
X45347Y-45019D01*
X45394Y-45000D01*
X45429Y-44965D01*
X45448Y-44918D01*
X45448Y-44868D01*
X45448Y-44207D01*
X45519Y-44278D01*
X45616Y-44318D01*
X45721Y-44318D01*
X45818Y-44278D01*
X45892Y-44204D01*
X45933Y-44107D01*
X45933Y-44002D01*
X45933Y-51850D01*
X45448Y-51850D01*
X45448Y-48254D01*
X45448Y-46876D01*
X45429Y-46830D01*
X45394Y-46794D01*
X45348Y-46775D01*
X45297Y-46775D01*
X43723Y-46775D01*
X43676Y-46794D01*
X43641Y-46830D01*
X43622Y-46876D01*
X43622Y-46926D01*
X43622Y-48304D01*
X43641Y-48350D01*
X43676Y-48386D01*
X43722Y-48405D01*
X43772Y-48405D01*
X45347Y-48405D01*
X45394Y-48386D01*
X45429Y-48350D01*
X45448Y-48304D01*
X45448Y-48254D01*
X45448Y-51850D01*
X44178Y-51850D01*
X44395Y-51633D01*
X44582Y-51182D01*
X44582Y-50693D01*
X44396Y-50242D01*
X44051Y-49896D01*
X43599Y-49708D01*
X43157Y-49708D01*
X43157Y-41542D01*
X43117Y-41445D01*
X43043Y-41370D01*
X42946Y-41330D01*
X42841Y-41330D01*
X42744Y-41370D01*
X42670Y-41444D01*
X42629Y-41541D01*
X42629Y-41646D01*
X42669Y-41743D01*
X42744Y-41817D01*
X42841Y-41858D01*
X42945Y-41858D01*
X43042Y-41818D01*
X43117Y-41744D01*
X43157Y-41647D01*
X43157Y-41542D01*
X43157Y-49708D01*
X43137Y-49708D01*
X43137Y-43018D01*
X43097Y-42921D01*
X43023Y-42847D01*
X42993Y-42834D01*
X43023Y-42822D01*
X43097Y-42748D01*
X43137Y-42651D01*
X43137Y-42546D01*
X43097Y-42449D01*
X43023Y-42374D01*
X42926Y-42334D01*
X42821Y-42334D01*
X42724Y-42374D01*
X42650Y-42448D01*
X42610Y-42545D01*
X42610Y-42650D01*
X42650Y-42747D01*
X42724Y-42821D01*
X42755Y-42834D01*
X42724Y-42847D01*
X42650Y-42921D01*
X42610Y-43018D01*
X42610Y-43123D01*
X42650Y-43220D01*
X42724Y-43294D01*
X42821Y-43334D01*
X42926Y-43334D01*
X43023Y-43294D01*
X43097Y-43220D01*
X43137Y-43123D01*
X43137Y-43018D01*
X43137Y-49708D01*
X43111Y-49708D01*
X42659Y-49895D01*
X42440Y-50113D01*
X42440Y-41318D01*
X43064Y-41318D01*
X43110Y-41299D01*
X43146Y-41264D01*
X43165Y-41218D01*
X43165Y-41167D01*
X43165Y-40498D01*
X43146Y-40452D01*
X43110Y-40416D01*
X43064Y-40397D01*
X43014Y-40397D01*
X42440Y-40397D01*
X42440Y-38799D01*
X43064Y-38799D01*
X43110Y-38780D01*
X43146Y-38744D01*
X43165Y-38698D01*
X43165Y-38648D01*
X43165Y-37978D01*
X43146Y-37932D01*
X43110Y-37897D01*
X43064Y-37877D01*
X43014Y-37877D01*
X42440Y-37877D01*
X42440Y-29083D01*
X42657Y-29300D01*
X43108Y-29487D01*
X43597Y-29488D01*
X44049Y-29301D01*
X44395Y-28956D01*
X44582Y-28505D01*
X44582Y-28016D01*
X44396Y-27564D01*
X44154Y-27322D01*
X67621Y-27322D01*
X67913Y-27614D01*
X67913Y-32577D01*
X67673Y-32337D01*
X67221Y-32149D01*
X66733Y-32149D01*
X66281Y-32336D01*
X65935Y-32681D01*
X65748Y-33132D01*
X65747Y-33621D01*
X65934Y-34072D01*
X66279Y-34418D01*
X66730Y-34606D01*
X67219Y-34606D01*
X67671Y-34419D01*
X67913Y-34178D01*
X67913Y-34629D01*
G54D10*
G36*
X57834Y-50354D02*
X53492Y-50354D01*
X53492Y-47506D01*
X53452Y-47409D01*
X53377Y-47335D01*
X53374Y-47333D01*
X53374Y-46109D01*
X53374Y-44770D01*
X53374Y-43471D01*
X53374Y-41817D01*
X53333Y-41720D01*
X53259Y-41646D01*
X53162Y-41606D01*
X53057Y-41606D01*
X52961Y-41646D01*
X52886Y-41720D01*
X52862Y-41779D01*
X52862Y-40892D01*
X52822Y-40795D01*
X52748Y-40721D01*
X52651Y-40681D01*
X52546Y-40681D01*
X52449Y-40721D01*
X52374Y-40795D01*
X52334Y-40892D01*
X52334Y-40997D01*
X52374Y-41094D01*
X52448Y-41168D01*
X52545Y-41208D01*
X52650Y-41208D01*
X52747Y-41168D01*
X52821Y-41094D01*
X52862Y-40997D01*
X52862Y-40892D01*
X52862Y-41779D01*
X52846Y-41817D01*
X52846Y-41922D01*
X52886Y-42019D01*
X52960Y-42093D01*
X53057Y-42133D01*
X53162Y-42133D01*
X53259Y-42093D01*
X53333Y-42019D01*
X53373Y-41922D01*
X53374Y-41817D01*
X53374Y-43471D01*
X53333Y-43374D01*
X53259Y-43300D01*
X53162Y-43259D01*
X53057Y-43259D01*
X52961Y-43299D01*
X52886Y-43374D01*
X52846Y-43470D01*
X52846Y-43575D01*
X52886Y-43672D01*
X52960Y-43747D01*
X53057Y-43787D01*
X53162Y-43787D01*
X53259Y-43747D01*
X53333Y-43673D01*
X53373Y-43576D01*
X53374Y-43471D01*
X53374Y-44770D01*
X53333Y-44673D01*
X53259Y-44599D01*
X53162Y-44559D01*
X53057Y-44559D01*
X52961Y-44599D01*
X52886Y-44673D01*
X52846Y-44770D01*
X52846Y-44875D01*
X52886Y-44972D01*
X52960Y-45046D01*
X53057Y-45086D01*
X53162Y-45086D01*
X53259Y-45046D01*
X53333Y-44972D01*
X53373Y-44875D01*
X53374Y-44770D01*
X53374Y-46109D01*
X53333Y-46012D01*
X53259Y-45937D01*
X53162Y-45897D01*
X53057Y-45897D01*
X52961Y-45937D01*
X52886Y-46011D01*
X52846Y-46108D01*
X52846Y-46213D01*
X52886Y-46310D01*
X52960Y-46384D01*
X53057Y-46425D01*
X53162Y-46425D01*
X53259Y-46385D01*
X53333Y-46311D01*
X53373Y-46214D01*
X53374Y-46109D01*
X53374Y-47333D01*
X53281Y-47295D01*
X53176Y-47295D01*
X53079Y-47335D01*
X53004Y-47409D01*
X52964Y-47506D01*
X52964Y-47611D01*
X53004Y-47708D01*
X53078Y-47782D01*
X53175Y-47822D01*
X53280Y-47822D01*
X53377Y-47782D01*
X53451Y-47708D01*
X53492Y-47611D01*
X53492Y-47506D01*
X53492Y-50354D01*
X52795Y-50354D01*
X52795Y-48995D01*
X52821Y-48968D01*
X52862Y-48871D01*
X52862Y-48767D01*
X52965Y-48767D01*
X53062Y-48727D01*
X53136Y-48653D01*
X53177Y-48556D01*
X53177Y-48451D01*
X53137Y-48354D01*
X53063Y-48280D01*
X52966Y-48240D01*
X52861Y-48240D01*
X52795Y-48267D01*
X52795Y-44211D01*
X52802Y-44204D01*
X52842Y-44107D01*
X52842Y-44002D01*
X52802Y-43905D01*
X52795Y-43898D01*
X52795Y-43267D01*
X52271Y-43267D01*
X52271Y-40774D01*
X52231Y-40677D01*
X52157Y-40603D01*
X52060Y-40563D01*
X51955Y-40562D01*
X51858Y-40603D01*
X51784Y-40677D01*
X51744Y-40774D01*
X51744Y-40879D01*
X51784Y-40975D01*
X51858Y-41050D01*
X51955Y-41090D01*
X52060Y-41090D01*
X52157Y-41050D01*
X52231Y-40976D01*
X52271Y-40879D01*
X52271Y-40774D01*
X52271Y-43267D01*
X51383Y-43267D01*
X51351Y-43235D01*
X51291Y-43195D01*
X51220Y-43181D01*
X51220Y-42559D01*
X52007Y-42559D01*
X52007Y-41858D01*
X52058Y-41837D01*
X52132Y-41763D01*
X52173Y-41666D01*
X52173Y-41561D01*
X52133Y-41464D01*
X52059Y-41390D01*
X52007Y-41369D01*
X52007Y-41299D01*
X51614Y-41299D01*
X51614Y-40618D01*
X51646Y-40618D01*
X51743Y-40578D01*
X51817Y-40503D01*
X51858Y-40407D01*
X51858Y-40302D01*
X51818Y-40205D01*
X51744Y-40130D01*
X51647Y-40090D01*
X51614Y-40090D01*
X51614Y-39724D01*
X49251Y-39724D01*
X49251Y-37724D01*
X49284Y-37724D01*
X49381Y-37684D01*
X49455Y-37610D01*
X49496Y-37513D01*
X49496Y-37408D01*
X49456Y-37311D01*
X49381Y-37237D01*
X49284Y-37196D01*
X49251Y-37196D01*
X49251Y-36968D01*
X46889Y-36968D01*
X46889Y-35866D01*
X46969Y-35866D01*
X46976Y-35873D01*
X47073Y-35913D01*
X47178Y-35913D01*
X47275Y-35873D01*
X47282Y-35866D01*
X49075Y-35866D01*
X49102Y-35892D01*
X49199Y-35933D01*
X49304Y-35933D01*
X49401Y-35893D01*
X49428Y-35866D01*
X50748Y-35866D01*
X50748Y-36122D01*
X50741Y-36129D01*
X50700Y-36226D01*
X50700Y-36331D01*
X50740Y-36428D01*
X50748Y-36435D01*
X50748Y-38228D01*
X53559Y-38228D01*
X54763Y-37024D01*
X54763Y-33705D01*
X54812Y-33685D01*
X54917Y-33581D01*
X54974Y-33444D01*
X54974Y-33296D01*
X54917Y-33159D01*
X54813Y-33054D01*
X54763Y-33034D01*
X54763Y-32865D01*
X54896Y-32810D01*
X55042Y-32664D01*
X55121Y-32473D01*
X55122Y-32267D01*
X55043Y-32076D01*
X54897Y-31929D01*
X54763Y-31874D01*
X54763Y-30354D01*
X56200Y-30354D01*
X56173Y-30419D01*
X56173Y-30524D01*
X56213Y-30621D01*
X56287Y-30695D01*
X56384Y-30736D01*
X56489Y-30736D01*
X56586Y-30696D01*
X56660Y-30622D01*
X56700Y-30525D01*
X56700Y-30420D01*
X56673Y-30354D01*
X57440Y-30354D01*
X57440Y-31906D01*
X57306Y-31850D01*
X57099Y-31850D01*
X56908Y-31929D01*
X56762Y-32075D01*
X56682Y-32266D01*
X56682Y-32472D01*
X56761Y-32664D01*
X56907Y-32810D01*
X57098Y-32889D01*
X57305Y-32889D01*
X57440Y-32833D01*
X57440Y-33031D01*
X57357Y-33031D01*
X57276Y-32998D01*
X57128Y-32997D01*
X57047Y-33031D01*
X56839Y-33031D01*
X56858Y-32985D01*
X56858Y-32880D01*
X56818Y-32783D01*
X56744Y-32709D01*
X56647Y-32669D01*
X56542Y-32669D01*
X56445Y-32709D01*
X56370Y-32783D01*
X56330Y-32880D01*
X56330Y-32985D01*
X56348Y-33027D01*
X56276Y-32998D01*
X56128Y-32997D01*
X55991Y-33054D01*
X55887Y-33159D01*
X55830Y-33295D01*
X55830Y-33443D01*
X55886Y-33580D01*
X55991Y-33685D01*
X56128Y-33742D01*
X56259Y-33742D01*
X56259Y-33850D01*
X56099Y-33850D01*
X55908Y-33929D01*
X55762Y-34075D01*
X55682Y-34266D01*
X55682Y-34472D01*
X55761Y-34664D01*
X55907Y-34810D01*
X56098Y-34889D01*
X56259Y-34889D01*
X56259Y-39724D01*
X56070Y-39724D01*
X56070Y-39652D01*
X56030Y-39555D01*
X55956Y-39481D01*
X55859Y-39440D01*
X55754Y-39440D01*
X55677Y-39472D01*
X55677Y-38117D01*
X55637Y-38020D01*
X55578Y-37961D01*
X55578Y-32861D01*
X55538Y-32764D01*
X55464Y-32689D01*
X55367Y-32649D01*
X55262Y-32649D01*
X55165Y-32689D01*
X55091Y-32763D01*
X55051Y-32860D01*
X55051Y-32965D01*
X55091Y-33062D01*
X55165Y-33136D01*
X55262Y-33177D01*
X55367Y-33177D01*
X55464Y-33137D01*
X55538Y-33063D01*
X55578Y-32966D01*
X55578Y-32861D01*
X55578Y-37961D01*
X55563Y-37945D01*
X55466Y-37905D01*
X55401Y-37905D01*
X55401Y-37861D01*
X55361Y-37764D01*
X55333Y-37736D01*
X55400Y-37669D01*
X55440Y-37572D01*
X55440Y-37467D01*
X55400Y-37370D01*
X55326Y-37296D01*
X55229Y-37255D01*
X55124Y-37255D01*
X55027Y-37295D01*
X54953Y-37370D01*
X54913Y-37466D01*
X54913Y-37571D01*
X54953Y-37668D01*
X54981Y-37696D01*
X54914Y-37763D01*
X54874Y-37860D01*
X54873Y-37965D01*
X54914Y-38062D01*
X54988Y-38136D01*
X55085Y-38177D01*
X55149Y-38177D01*
X55149Y-38221D01*
X55189Y-38318D01*
X55263Y-38392D01*
X55360Y-38433D01*
X55465Y-38433D01*
X55562Y-38393D01*
X55636Y-38318D01*
X55677Y-38221D01*
X55677Y-38117D01*
X55677Y-39472D01*
X55657Y-39480D01*
X55583Y-39555D01*
X55543Y-39652D01*
X55543Y-39724D01*
X55244Y-39724D01*
X55244Y-38530D01*
X55204Y-38433D01*
X55129Y-38359D01*
X55033Y-38318D01*
X54928Y-38318D01*
X54831Y-38358D01*
X54756Y-38433D01*
X54716Y-38529D01*
X54716Y-38634D01*
X54756Y-38731D01*
X54830Y-38806D01*
X54927Y-38846D01*
X55032Y-38846D01*
X55129Y-38806D01*
X55203Y-38732D01*
X55244Y-38635D01*
X55244Y-38530D01*
X55244Y-39724D01*
X54633Y-39724D01*
X54633Y-38117D01*
X54593Y-38020D01*
X54519Y-37945D01*
X54422Y-37905D01*
X54317Y-37905D01*
X54220Y-37945D01*
X54146Y-38019D01*
X54106Y-38116D01*
X54106Y-38221D01*
X54146Y-38318D01*
X54220Y-38392D01*
X54317Y-38433D01*
X54422Y-38433D01*
X54519Y-38393D01*
X54593Y-38318D01*
X54633Y-38221D01*
X54633Y-38117D01*
X54633Y-39724D01*
X52951Y-39724D01*
X52959Y-39716D01*
X52999Y-39619D01*
X53000Y-39514D01*
X52959Y-39417D01*
X52885Y-39343D01*
X52788Y-39303D01*
X52683Y-39303D01*
X52586Y-39343D01*
X52512Y-39417D01*
X52472Y-39514D01*
X52472Y-39619D01*
X52512Y-39716D01*
X52586Y-39790D01*
X52683Y-39830D01*
X52716Y-39830D01*
X52716Y-40235D01*
X52689Y-40301D01*
X52688Y-40406D01*
X52716Y-40473D01*
X52716Y-40590D01*
X52833Y-40590D01*
X52900Y-40618D01*
X53004Y-40618D01*
X53071Y-40590D01*
X54291Y-40590D01*
X54291Y-47637D01*
X54225Y-47610D01*
X54200Y-47610D01*
X54200Y-42644D01*
X54160Y-42547D01*
X54086Y-42473D01*
X53989Y-42433D01*
X53884Y-42433D01*
X53787Y-42473D01*
X53713Y-42547D01*
X53673Y-42644D01*
X53673Y-42749D01*
X53713Y-42846D01*
X53787Y-42920D01*
X53884Y-42960D01*
X53989Y-42960D01*
X54086Y-42920D01*
X54160Y-42846D01*
X54200Y-42749D01*
X54200Y-42644D01*
X54200Y-47610D01*
X54120Y-47610D01*
X54024Y-47650D01*
X53949Y-47724D01*
X53909Y-47821D01*
X53909Y-47925D01*
X53806Y-47925D01*
X53709Y-47965D01*
X53634Y-48039D01*
X53594Y-48136D01*
X53594Y-48241D01*
X53634Y-48338D01*
X53708Y-48412D01*
X53805Y-48452D01*
X53910Y-48452D01*
X54007Y-48412D01*
X54081Y-48338D01*
X54122Y-48241D01*
X54122Y-48137D01*
X54225Y-48137D01*
X54291Y-48110D01*
X54291Y-49645D01*
X57834Y-49645D01*
X57834Y-50354D01*
X57834Y-50354D01*
G37*
G54D22*
X57834Y-50354D02*
X53492Y-50354D01*
X53492Y-47506D01*
X53452Y-47409D01*
X53377Y-47335D01*
X53374Y-47333D01*
X53374Y-46109D01*
X53374Y-44770D01*
X53374Y-43471D01*
X53374Y-41817D01*
X53333Y-41720D01*
X53259Y-41646D01*
X53162Y-41606D01*
X53057Y-41606D01*
X52961Y-41646D01*
X52886Y-41720D01*
X52862Y-41779D01*
X52862Y-40892D01*
X52822Y-40795D01*
X52748Y-40721D01*
X52651Y-40681D01*
X52546Y-40681D01*
X52449Y-40721D01*
X52374Y-40795D01*
X52334Y-40892D01*
X52334Y-40997D01*
X52374Y-41094D01*
X52448Y-41168D01*
X52545Y-41208D01*
X52650Y-41208D01*
X52747Y-41168D01*
X52821Y-41094D01*
X52862Y-40997D01*
X52862Y-40892D01*
X52862Y-41779D01*
X52846Y-41817D01*
X52846Y-41922D01*
X52886Y-42019D01*
X52960Y-42093D01*
X53057Y-42133D01*
X53162Y-42133D01*
X53259Y-42093D01*
X53333Y-42019D01*
X53373Y-41922D01*
X53374Y-41817D01*
X53374Y-43471D01*
X53333Y-43374D01*
X53259Y-43300D01*
X53162Y-43259D01*
X53057Y-43259D01*
X52961Y-43299D01*
X52886Y-43374D01*
X52846Y-43470D01*
X52846Y-43575D01*
X52886Y-43672D01*
X52960Y-43747D01*
X53057Y-43787D01*
X53162Y-43787D01*
X53259Y-43747D01*
X53333Y-43673D01*
X53373Y-43576D01*
X53374Y-43471D01*
X53374Y-44770D01*
X53333Y-44673D01*
X53259Y-44599D01*
X53162Y-44559D01*
X53057Y-44559D01*
X52961Y-44599D01*
X52886Y-44673D01*
X52846Y-44770D01*
X52846Y-44875D01*
X52886Y-44972D01*
X52960Y-45046D01*
X53057Y-45086D01*
X53162Y-45086D01*
X53259Y-45046D01*
X53333Y-44972D01*
X53373Y-44875D01*
X53374Y-44770D01*
X53374Y-46109D01*
X53333Y-46012D01*
X53259Y-45937D01*
X53162Y-45897D01*
X53057Y-45897D01*
X52961Y-45937D01*
X52886Y-46011D01*
X52846Y-46108D01*
X52846Y-46213D01*
X52886Y-46310D01*
X52960Y-46384D01*
X53057Y-46425D01*
X53162Y-46425D01*
X53259Y-46385D01*
X53333Y-46311D01*
X53373Y-46214D01*
X53374Y-46109D01*
X53374Y-47333D01*
X53281Y-47295D01*
X53176Y-47295D01*
X53079Y-47335D01*
X53004Y-47409D01*
X52964Y-47506D01*
X52964Y-47611D01*
X53004Y-47708D01*
X53078Y-47782D01*
X53175Y-47822D01*
X53280Y-47822D01*
X53377Y-47782D01*
X53451Y-47708D01*
X53492Y-47611D01*
X53492Y-47506D01*
X53492Y-50354D01*
X52795Y-50354D01*
X52795Y-48995D01*
X52821Y-48968D01*
X52862Y-48871D01*
X52862Y-48767D01*
X52965Y-48767D01*
X53062Y-48727D01*
X53136Y-48653D01*
X53177Y-48556D01*
X53177Y-48451D01*
X53137Y-48354D01*
X53063Y-48280D01*
X52966Y-48240D01*
X52861Y-48240D01*
X52795Y-48267D01*
X52795Y-44211D01*
X52802Y-44204D01*
X52842Y-44107D01*
X52842Y-44002D01*
X52802Y-43905D01*
X52795Y-43898D01*
X52795Y-43267D01*
X52271Y-43267D01*
X52271Y-40774D01*
X52231Y-40677D01*
X52157Y-40603D01*
X52060Y-40563D01*
X51955Y-40562D01*
X51858Y-40603D01*
X51784Y-40677D01*
X51744Y-40774D01*
X51744Y-40879D01*
X51784Y-40975D01*
X51858Y-41050D01*
X51955Y-41090D01*
X52060Y-41090D01*
X52157Y-41050D01*
X52231Y-40976D01*
X52271Y-40879D01*
X52271Y-40774D01*
X52271Y-43267D01*
X51383Y-43267D01*
X51351Y-43235D01*
X51291Y-43195D01*
X51220Y-43181D01*
X51220Y-42559D01*
X52007Y-42559D01*
X52007Y-41858D01*
X52058Y-41837D01*
X52132Y-41763D01*
X52173Y-41666D01*
X52173Y-41561D01*
X52133Y-41464D01*
X52059Y-41390D01*
X52007Y-41369D01*
X52007Y-41299D01*
X51614Y-41299D01*
X51614Y-40618D01*
X51646Y-40618D01*
X51743Y-40578D01*
X51817Y-40503D01*
X51858Y-40407D01*
X51858Y-40302D01*
X51818Y-40205D01*
X51744Y-40130D01*
X51647Y-40090D01*
X51614Y-40090D01*
X51614Y-39724D01*
X49251Y-39724D01*
X49251Y-37724D01*
X49284Y-37724D01*
X49381Y-37684D01*
X49455Y-37610D01*
X49496Y-37513D01*
X49496Y-37408D01*
X49456Y-37311D01*
X49381Y-37237D01*
X49284Y-37196D01*
X49251Y-37196D01*
X49251Y-36968D01*
X46889Y-36968D01*
X46889Y-35866D01*
X46969Y-35866D01*
X46976Y-35873D01*
X47073Y-35913D01*
X47178Y-35913D01*
X47275Y-35873D01*
X47282Y-35866D01*
X49075Y-35866D01*
X49102Y-35892D01*
X49199Y-35933D01*
X49304Y-35933D01*
X49401Y-35893D01*
X49428Y-35866D01*
X50748Y-35866D01*
X50748Y-36122D01*
X50741Y-36129D01*
X50700Y-36226D01*
X50700Y-36331D01*
X50740Y-36428D01*
X50748Y-36435D01*
X50748Y-38228D01*
X53559Y-38228D01*
X54763Y-37024D01*
X54763Y-33705D01*
X54812Y-33685D01*
X54917Y-33581D01*
X54974Y-33444D01*
X54974Y-33296D01*
X54917Y-33159D01*
X54813Y-33054D01*
X54763Y-33034D01*
X54763Y-32865D01*
X54896Y-32810D01*
X55042Y-32664D01*
X55121Y-32473D01*
X55122Y-32267D01*
X55043Y-32076D01*
X54897Y-31929D01*
X54763Y-31874D01*
X54763Y-30354D01*
X56200Y-30354D01*
X56173Y-30419D01*
X56173Y-30524D01*
X56213Y-30621D01*
X56287Y-30695D01*
X56384Y-30736D01*
X56489Y-30736D01*
X56586Y-30696D01*
X56660Y-30622D01*
X56700Y-30525D01*
X56700Y-30420D01*
X56673Y-30354D01*
X57440Y-30354D01*
X57440Y-31906D01*
X57306Y-31850D01*
X57099Y-31850D01*
X56908Y-31929D01*
X56762Y-32075D01*
X56682Y-32266D01*
X56682Y-32472D01*
X56761Y-32664D01*
X56907Y-32810D01*
X57098Y-32889D01*
X57305Y-32889D01*
X57440Y-32833D01*
X57440Y-33031D01*
X57357Y-33031D01*
X57276Y-32998D01*
X57128Y-32997D01*
X57047Y-33031D01*
X56839Y-33031D01*
X56858Y-32985D01*
X56858Y-32880D01*
X56818Y-32783D01*
X56744Y-32709D01*
X56647Y-32669D01*
X56542Y-32669D01*
X56445Y-32709D01*
X56370Y-32783D01*
X56330Y-32880D01*
X56330Y-32985D01*
X56348Y-33027D01*
X56276Y-32998D01*
X56128Y-32997D01*
X55991Y-33054D01*
X55887Y-33159D01*
X55830Y-33295D01*
X55830Y-33443D01*
X55886Y-33580D01*
X55991Y-33685D01*
X56128Y-33742D01*
X56259Y-33742D01*
X56259Y-33850D01*
X56099Y-33850D01*
X55908Y-33929D01*
X55762Y-34075D01*
X55682Y-34266D01*
X55682Y-34472D01*
X55761Y-34664D01*
X55907Y-34810D01*
X56098Y-34889D01*
X56259Y-34889D01*
X56259Y-39724D01*
X56070Y-39724D01*
X56070Y-39652D01*
X56030Y-39555D01*
X55956Y-39481D01*
X55859Y-39440D01*
X55754Y-39440D01*
X55677Y-39472D01*
X55677Y-38117D01*
X55637Y-38020D01*
X55578Y-37961D01*
X55578Y-32861D01*
X55538Y-32764D01*
X55464Y-32689D01*
X55367Y-32649D01*
X55262Y-32649D01*
X55165Y-32689D01*
X55091Y-32763D01*
X55051Y-32860D01*
X55051Y-32965D01*
X55091Y-33062D01*
X55165Y-33136D01*
X55262Y-33177D01*
X55367Y-33177D01*
X55464Y-33137D01*
X55538Y-33063D01*
X55578Y-32966D01*
X55578Y-32861D01*
X55578Y-37961D01*
X55563Y-37945D01*
X55466Y-37905D01*
X55401Y-37905D01*
X55401Y-37861D01*
X55361Y-37764D01*
X55333Y-37736D01*
X55400Y-37669D01*
X55440Y-37572D01*
X55440Y-37467D01*
X55400Y-37370D01*
X55326Y-37296D01*
X55229Y-37255D01*
X55124Y-37255D01*
X55027Y-37295D01*
X54953Y-37370D01*
X54913Y-37466D01*
X54913Y-37571D01*
X54953Y-37668D01*
X54981Y-37696D01*
X54914Y-37763D01*
X54874Y-37860D01*
X54873Y-37965D01*
X54914Y-38062D01*
X54988Y-38136D01*
X55085Y-38177D01*
X55149Y-38177D01*
X55149Y-38221D01*
X55189Y-38318D01*
X55263Y-38392D01*
X55360Y-38433D01*
X55465Y-38433D01*
X55562Y-38393D01*
X55636Y-38318D01*
X55677Y-38221D01*
X55677Y-38117D01*
X55677Y-39472D01*
X55657Y-39480D01*
X55583Y-39555D01*
X55543Y-39652D01*
X55543Y-39724D01*
X55244Y-39724D01*
X55244Y-38530D01*
X55204Y-38433D01*
X55129Y-38359D01*
X55033Y-38318D01*
X54928Y-38318D01*
X54831Y-38358D01*
X54756Y-38433D01*
X54716Y-38529D01*
X54716Y-38634D01*
X54756Y-38731D01*
X54830Y-38806D01*
X54927Y-38846D01*
X55032Y-38846D01*
X55129Y-38806D01*
X55203Y-38732D01*
X55244Y-38635D01*
X55244Y-38530D01*
X55244Y-39724D01*
X54633Y-39724D01*
X54633Y-38117D01*
X54593Y-38020D01*
X54519Y-37945D01*
X54422Y-37905D01*
X54317Y-37905D01*
X54220Y-37945D01*
X54146Y-38019D01*
X54106Y-38116D01*
X54106Y-38221D01*
X54146Y-38318D01*
X54220Y-38392D01*
X54317Y-38433D01*
X54422Y-38433D01*
X54519Y-38393D01*
X54593Y-38318D01*
X54633Y-38221D01*
X54633Y-38117D01*
X54633Y-39724D01*
X52951Y-39724D01*
X52959Y-39716D01*
X52999Y-39619D01*
X53000Y-39514D01*
X52959Y-39417D01*
X52885Y-39343D01*
X52788Y-39303D01*
X52683Y-39303D01*
X52586Y-39343D01*
X52512Y-39417D01*
X52472Y-39514D01*
X52472Y-39619D01*
X52512Y-39716D01*
X52586Y-39790D01*
X52683Y-39830D01*
X52716Y-39830D01*
X52716Y-40235D01*
X52689Y-40301D01*
X52688Y-40406D01*
X52716Y-40473D01*
X52716Y-40590D01*
X52833Y-40590D01*
X52900Y-40618D01*
X53004Y-40618D01*
X53071Y-40590D01*
X54291Y-40590D01*
X54291Y-47637D01*
X54225Y-47610D01*
X54200Y-47610D01*
X54200Y-42644D01*
X54160Y-42547D01*
X54086Y-42473D01*
X53989Y-42433D01*
X53884Y-42433D01*
X53787Y-42473D01*
X53713Y-42547D01*
X53673Y-42644D01*
X53673Y-42749D01*
X53713Y-42846D01*
X53787Y-42920D01*
X53884Y-42960D01*
X53989Y-42960D01*
X54086Y-42920D01*
X54160Y-42846D01*
X54200Y-42749D01*
X54200Y-42644D01*
X54200Y-47610D01*
X54120Y-47610D01*
X54024Y-47650D01*
X53949Y-47724D01*
X53909Y-47821D01*
X53909Y-47925D01*
X53806Y-47925D01*
X53709Y-47965D01*
X53634Y-48039D01*
X53594Y-48136D01*
X53594Y-48241D01*
X53634Y-48338D01*
X53708Y-48412D01*
X53805Y-48452D01*
X53910Y-48452D01*
X54007Y-48412D01*
X54081Y-48338D01*
X54122Y-48241D01*
X54122Y-48137D01*
X54225Y-48137D01*
X54291Y-48110D01*
X54291Y-49645D01*
X57834Y-49645D01*
X57834Y-50354D01*
M02*
