M48
;DRILL file {Pcbnew (2013-07-07 BZR 4022)-stable} date 20/03/2014 14:12:16
;FORMAT={-:-/ absolute / metric / decimal}
FMAT,2
METRIC,TZ
T1C0.300
T2C0.550
T3C1.050
T4C1.250
T5C1.350
T6C2.100
T7C3.200
%
G90
G05
M71
T1
X108.3Y-117.7
X108.9Y-110.8
X108.9Y-112.1
X108.95Y-107.4
X111.Y-120.4
X113.501Y-109.85
X114.Y-99.1
X114.Y-100.15
X114.8Y-110.8
X115.1Y-119.1
X115.75Y-100.95
X116.Y-111.9
X117.55Y-110.35
X117.6Y-121.1
X118.6Y-118.5
X119.4Y-110.7
X119.7Y-90.55
X119.7Y-91.85
X120.2Y-107.4
X120.2Y-112.05
X122.2Y-91.85
X122.25Y-74.15
X122.6Y-106.
X122.6Y-111.05
X123.05Y-98.3
X123.1Y-99.75
X123.8Y-71.161
X123.9Y-112.25
X125.1Y-89.6
X125.1Y-90.6
X126.55Y-112.15
X126.6Y-102.3
X127.05Y-98.3
X127.3Y-106.8
X127.3Y-108.35
X127.55Y-70.9
X127.8Y-111.05
X128.15Y-96.2
X128.8Y-79.8
X129.Y-75.2
X129.45Y-92.15
X129.95Y-104.9
X130.25Y-75.2
X130.75Y-106.8
X130.75Y-108.35
X131.Y-111.05
X131.05Y-102.5
X131.45Y-118.05
X131.85Y-105.7
X132.1Y-103.7
X132.8Y-120.
X133.35Y-113.85
X133.35Y-117.25
X133.55Y-111.9
X133.6Y-104.
X133.6Y-124.
X133.95Y-78.6
X133.95Y-100.5
X134.4Y-123.2
X134.5Y-102.5
X134.9Y-106.35
X134.9Y-110.55
X134.9Y-113.85
X134.9Y-117.25
X135.2Y-71.45
X135.2Y-120.8
X135.3Y-101.75
X136.Y-90.6
X136.Y-92.2
X136.Y-94.6
X136.4Y-71.45
X136.8Y-122.4
X137.Y-108.45
X137.45Y-89.8
X137.5Y-91.4
X137.5Y-93.8
X137.6Y-121.6
X137.85Y-102.15
X138.1Y-89.
X138.1Y-96.95
X138.95Y-102.15
X139.1Y-106.35
X139.1Y-110.55
X139.6Y-113.85
X139.6Y-117.25
X139.65Y-98.
X140.05Y-96.3
X140.05Y-102.15
X140.15Y-75.9
X140.15Y-95.3
X140.5Y-83.6
X140.75Y-96.95
X141.1Y-75.9
X141.75Y-100.85
X141.85Y-105.95
X142.05Y-75.9
X142.6Y-111.85
X142.85Y-115.6
X143.35Y-77.4
X143.75Y-83.65
X145.05Y-91.3
X145.15Y-88.5
X145.35Y-77.45
X145.85Y-110.75
X146.Y-127.5
X146.55Y-107.85
X147.35Y-110.75
X147.65Y-77.25
X148.25Y-95.4
X148.25Y-96.4
X148.35Y-76.5
X149.05Y-91.3
X149.1Y-77.25
X149.3Y-108.9
X150.1Y-77.4
X150.25Y-98.15
X151.15Y-77.25
X152.1Y-77.25
X153.35Y-77.4
X154.85Y-77.4
X157.15Y-77.4
X158.2Y-75.9
X159.15Y-75.9
X160.05Y-75.9
X161.55Y-80.2
X161.75Y-78.65
X162.85Y-78.65
X164.25Y-78.65
X165.35Y-78.65
X168.Y-80.2
T3
X120.91Y-87.3
X120.91Y-135.56
X123.45Y-82.22
X123.45Y-130.48
X125.99Y-87.3
X125.99Y-135.56
X128.53Y-82.22
X128.53Y-130.48
X131.07Y-87.3
X131.07Y-135.56
X133.61Y-82.22
X133.61Y-130.48
X136.15Y-87.3
X138.69Y-82.22
X138.69Y-135.56
X141.23Y-130.48
X142.754Y-87.3
X143.77Y-135.56
X145.294Y-82.22
X146.31Y-130.48
X147.834Y-87.3
X148.85Y-135.56
X150.374Y-82.22
X151.39Y-130.48
X152.914Y-87.3
X153.93Y-135.56
X155.454Y-82.22
X156.47Y-130.48
X157.994Y-87.3
X160.534Y-82.22
X163.074Y-87.3
X165.614Y-82.22
T4
X120.91Y-84.76
X120.91Y-133.02
X123.45Y-84.76
X123.45Y-133.02
X125.99Y-84.76
X125.99Y-133.02
X128.53Y-84.76
X128.53Y-133.02
X131.07Y-84.76
X131.07Y-133.02
X133.61Y-84.76
X133.61Y-133.02
X136.15Y-84.76
X138.69Y-84.76
X138.69Y-133.02
X141.23Y-133.02
X142.754Y-84.76
X143.77Y-133.02
X145.294Y-84.76
X146.31Y-133.02
X147.834Y-84.76
X148.85Y-133.02
X150.374Y-84.76
X151.39Y-133.02
X152.914Y-84.76
X153.93Y-133.02
X155.454Y-84.76
X156.47Y-133.02
X157.994Y-84.76
X160.534Y-84.76
X163.074Y-84.76
X165.614Y-84.76
T5
X111.12Y-117.03
X111.12Y-124.13
T6
X126.76Y-76.88
X147.08Y-121.33
T7
X110.12Y-71.78
X110.12Y-129.38
X161.12Y-133.08
X170.12Y-84.78
T2
X108.795Y-97.03G85X108.145Y-97.03
G05
X108.145Y-104.13G85X108.795Y-104.13
G05
X111.17Y-97.93G85X111.17Y-98.23
G05
X111.17Y-102.93G85X111.17Y-103.23
G05
T0
M30
