G04 (created by PCBNEW (2013-07-07 BZR 4022)-stable) date 20/03/2014 18:21:36*
%MOIN*%
G04 Gerber Fmt 3.4, Leading zero omitted, Abs format*
%FSLAX34Y34*%
G01*
G70*
G90*
G04 APERTURE LIST*
%ADD10C,0.00590551*%
%ADD11C,0.000393701*%
G04 APERTURE END LIST*
G54D10*
G54D11*
X42173Y-51606D02*
X42173Y-27590D01*
X42173Y-27590D02*
G75*
G02X42685Y-27078I511J0D01*
G74*
G01*
X45716Y-52511D02*
X45716Y-53574D01*
X42685Y-52118D02*
X45322Y-52118D01*
X67645Y-27078D02*
X42685Y-27078D01*
X68157Y-34677D02*
X68157Y-27590D01*
X59889Y-35188D02*
X67645Y-35188D01*
X59496Y-49913D02*
X59496Y-35582D01*
X64102Y-50307D02*
X59889Y-50307D01*
X64614Y-53574D02*
X64614Y-50818D01*
X46228Y-54086D02*
X64102Y-54086D01*
X45322Y-52118D02*
G75*
G02X45716Y-52511I0J-393D01*
G74*
G01*
X42685Y-52118D02*
G75*
G02X42173Y-51606I0J511D01*
G74*
G01*
X67645Y-27078D02*
G75*
G02X68157Y-27590I0J-511D01*
G74*
G01*
X68157Y-34678D02*
G75*
G02X67645Y-35188I-511J0D01*
G74*
G01*
X59496Y-35581D02*
G75*
G02X59889Y-35188I393J0D01*
G74*
G01*
X59889Y-50307D02*
G75*
G02X59496Y-49913I0J393D01*
G74*
G01*
X64103Y-50307D02*
G75*
G02X64614Y-50818I0J-511D01*
G74*
G01*
X64614Y-53575D02*
G75*
G02X64102Y-54086I-511J0D01*
G74*
G01*
X46227Y-54086D02*
G75*
G02X45716Y-53574I0J511D01*
G74*
G01*
G54D10*
X44574Y-45838D02*
X44574Y-49106D01*
X44574Y-49106D02*
X42921Y-49106D01*
X42921Y-49106D02*
X42921Y-45838D01*
X42921Y-45838D02*
X44574Y-45838D01*
X41858Y-38023D02*
X41464Y-38023D01*
X41464Y-38023D02*
X41464Y-41173D01*
X41464Y-41173D02*
X41858Y-41173D01*
X41858Y-38023D02*
X41858Y-41173D01*
X41858Y-41173D02*
X43846Y-41173D01*
X43846Y-41173D02*
X43846Y-38023D01*
X43846Y-38023D02*
X41858Y-38023D01*
X46854Y-50956D02*
X46854Y-39066D01*
X46854Y-39066D02*
X46204Y-39066D01*
X59452Y-28200D02*
X59452Y-50956D01*
X59452Y-50956D02*
X46854Y-50956D01*
X46204Y-39066D02*
X46204Y-28200D01*
X46204Y-28200D02*
X59452Y-28200D01*
X55259Y-30267D02*
X55653Y-29874D01*
X55259Y-30267D02*
X55653Y-30661D01*
X55259Y-30267D02*
X56440Y-30267D01*
X55259Y-47767D02*
X55653Y-47374D01*
X55259Y-47767D02*
X55653Y-48161D01*
X55259Y-47767D02*
X56440Y-47767D01*
X67960Y-33377D02*
G75*
G03X67960Y-33377I-984J0D01*
G74*
G01*
X44338Y-28259D02*
G75*
G03X44338Y-28259I-984J0D01*
G74*
G01*
X64417Y-52393D02*
G75*
G03X64417Y-52393I-984J0D01*
G74*
G01*
X44338Y-50937D02*
G75*
G03X44338Y-50937I-984J0D01*
G74*
G01*
X43480Y-44694D02*
X43480Y-44949D01*
X43495Y-44979D01*
X43510Y-44994D01*
X43540Y-45009D01*
X43600Y-45009D01*
X43630Y-44994D01*
X43645Y-44979D01*
X43660Y-44949D01*
X43660Y-44694D01*
X43780Y-44694D02*
X43990Y-44694D01*
X43855Y-45009D01*
X42829Y-37779D02*
X42810Y-37798D01*
X42754Y-37816D01*
X42716Y-37816D01*
X42660Y-37798D01*
X42622Y-37760D01*
X42604Y-37723D01*
X42585Y-37648D01*
X42585Y-37591D01*
X42604Y-37516D01*
X42622Y-37479D01*
X42660Y-37441D01*
X42716Y-37423D01*
X42754Y-37423D01*
X42810Y-37441D01*
X42829Y-37460D01*
X43072Y-37423D02*
X43147Y-37423D01*
X43185Y-37441D01*
X43222Y-37479D01*
X43241Y-37554D01*
X43241Y-37685D01*
X43222Y-37760D01*
X43185Y-37798D01*
X43147Y-37816D01*
X43072Y-37816D01*
X43035Y-37798D01*
X42997Y-37760D01*
X42979Y-37685D01*
X42979Y-37554D01*
X42997Y-37479D01*
X43035Y-37441D01*
X43072Y-37423D01*
X43410Y-37816D02*
X43410Y-37423D01*
X43635Y-37816D01*
X43635Y-37423D01*
X43803Y-37460D02*
X43822Y-37441D01*
X43860Y-37423D01*
X43953Y-37423D01*
X43991Y-37441D01*
X44010Y-37460D01*
X44028Y-37498D01*
X44028Y-37535D01*
X44010Y-37591D01*
X43785Y-37816D01*
X44028Y-37816D01*
X47593Y-30139D02*
X47593Y-30458D01*
X47612Y-30495D01*
X47631Y-30514D01*
X47668Y-30533D01*
X47743Y-30533D01*
X47781Y-30514D01*
X47799Y-30495D01*
X47818Y-30458D01*
X47818Y-30139D01*
X47987Y-30177D02*
X48006Y-30158D01*
X48043Y-30139D01*
X48137Y-30139D01*
X48174Y-30158D01*
X48193Y-30177D01*
X48212Y-30214D01*
X48212Y-30252D01*
X48193Y-30308D01*
X47968Y-30533D01*
X48212Y-30533D01*
X66685Y-35151D02*
X66685Y-34757D01*
X66835Y-34757D01*
X66873Y-34776D01*
X66892Y-34795D01*
X66910Y-34832D01*
X66910Y-34889D01*
X66892Y-34926D01*
X66873Y-34945D01*
X66835Y-34964D01*
X66685Y-34964D01*
X67266Y-34757D02*
X67079Y-34757D01*
X67060Y-34945D01*
X67079Y-34926D01*
X67116Y-34907D01*
X67210Y-34907D01*
X67248Y-34926D01*
X67266Y-34945D01*
X67285Y-34982D01*
X67285Y-35076D01*
X67266Y-35113D01*
X67248Y-35132D01*
X67210Y-35151D01*
X67116Y-35151D01*
X67079Y-35132D01*
X67060Y-35113D01*
X43063Y-30033D02*
X43063Y-29639D01*
X43213Y-29639D01*
X43251Y-29658D01*
X43269Y-29677D01*
X43288Y-29714D01*
X43288Y-29770D01*
X43269Y-29808D01*
X43251Y-29827D01*
X43213Y-29845D01*
X43063Y-29845D01*
X43626Y-29639D02*
X43551Y-29639D01*
X43513Y-29658D01*
X43494Y-29677D01*
X43457Y-29733D01*
X43438Y-29808D01*
X43438Y-29958D01*
X43457Y-29995D01*
X43476Y-30014D01*
X43513Y-30033D01*
X43588Y-30033D01*
X43626Y-30014D01*
X43644Y-29995D01*
X43663Y-29958D01*
X43663Y-29864D01*
X43644Y-29827D01*
X43626Y-29808D01*
X43588Y-29789D01*
X43513Y-29789D01*
X43476Y-29808D01*
X43457Y-29827D01*
X43438Y-29864D01*
X63016Y-51025D02*
X63016Y-50631D01*
X63166Y-50631D01*
X63203Y-50650D01*
X63222Y-50669D01*
X63241Y-50706D01*
X63241Y-50763D01*
X63222Y-50800D01*
X63203Y-50819D01*
X63166Y-50838D01*
X63016Y-50838D01*
X63372Y-50631D02*
X63635Y-50631D01*
X63466Y-51025D01*
X44827Y-51064D02*
X44827Y-50671D01*
X44977Y-50671D01*
X45014Y-50689D01*
X45033Y-50708D01*
X45052Y-50746D01*
X45052Y-50802D01*
X45033Y-50839D01*
X45014Y-50858D01*
X44977Y-50877D01*
X44827Y-50877D01*
X45277Y-50839D02*
X45239Y-50821D01*
X45221Y-50802D01*
X45202Y-50764D01*
X45202Y-50746D01*
X45221Y-50708D01*
X45239Y-50689D01*
X45277Y-50671D01*
X45352Y-50671D01*
X45389Y-50689D01*
X45408Y-50708D01*
X45427Y-50746D01*
X45427Y-50764D01*
X45408Y-50802D01*
X45389Y-50821D01*
X45352Y-50839D01*
X45277Y-50839D01*
X45239Y-50858D01*
X45221Y-50877D01*
X45202Y-50914D01*
X45202Y-50989D01*
X45221Y-51027D01*
X45239Y-51046D01*
X45277Y-51064D01*
X45352Y-51064D01*
X45389Y-51046D01*
X45408Y-51027D01*
X45427Y-50989D01*
X45427Y-50914D01*
X45408Y-50877D01*
X45389Y-50858D01*
X45352Y-50839D01*
M02*
