G04 (created by PCBNEW (2013-05-31 BZR 4019)-stable) date 23/02/2014 19:03:20*
%MOIN*%
G04 Gerber Fmt 3.4, Leading zero omitted, Abs format*
%FSLAX34Y34*%
G01*
G70*
G90*
G04 APERTURE LIST*
%ADD10C,0.00590551*%
%ADD11C,0.000393701*%
G04 APERTURE END LIST*
G54D10*
G54D11*
X42173Y-51606D02*
X42173Y-27590D01*
X42173Y-27590D02*
G75*
G02X42685Y-27078I511J0D01*
G74*
G01*
X45716Y-52511D02*
X45716Y-53574D01*
X42685Y-52118D02*
X45322Y-52118D01*
X67645Y-27078D02*
X42685Y-27078D01*
X68157Y-34677D02*
X68157Y-27590D01*
X59889Y-35188D02*
X67645Y-35188D01*
X59496Y-49913D02*
X59496Y-35582D01*
X64102Y-50307D02*
X59889Y-50307D01*
X64614Y-53574D02*
X64614Y-50818D01*
X46228Y-54086D02*
X64102Y-54086D01*
X45322Y-52118D02*
G75*
G02X45716Y-52511I0J-393D01*
G74*
G01*
X42685Y-52118D02*
G75*
G02X42173Y-51606I0J511D01*
G74*
G01*
X67645Y-27078D02*
G75*
G02X68157Y-27590I0J-511D01*
G74*
G01*
X68157Y-34678D02*
G75*
G02X67645Y-35188I-511J0D01*
G74*
G01*
X59496Y-35581D02*
G75*
G02X59889Y-35188I393J0D01*
G74*
G01*
X59889Y-50307D02*
G75*
G02X59496Y-49913I0J393D01*
G74*
G01*
X64103Y-50307D02*
G75*
G02X64614Y-50818I0J-511D01*
G74*
G01*
X64614Y-53575D02*
G75*
G02X64102Y-54086I-511J0D01*
G74*
G01*
X46227Y-54086D02*
G75*
G02X45716Y-53574I0J511D01*
G74*
G01*
G54D10*
X45362Y-44263D02*
X45362Y-47531D01*
X45362Y-47531D02*
X43708Y-47531D01*
X43708Y-47531D02*
X43708Y-44263D01*
X43708Y-44263D02*
X45362Y-44263D01*
X41858Y-38023D02*
X41464Y-38023D01*
X41464Y-38023D02*
X41464Y-41173D01*
X41464Y-41173D02*
X41858Y-41173D01*
X41858Y-38023D02*
X41858Y-41173D01*
X41858Y-41173D02*
X43846Y-41173D01*
X43846Y-41173D02*
X43846Y-38023D01*
X43846Y-38023D02*
X41858Y-38023D01*
X46854Y-50956D02*
X46854Y-39066D01*
X46854Y-39066D02*
X46204Y-39066D01*
X59452Y-28200D02*
X59452Y-50956D01*
X59452Y-50956D02*
X46854Y-50956D01*
X46204Y-39066D02*
X46204Y-28200D01*
X46204Y-28200D02*
X59452Y-28200D01*
X55259Y-30267D02*
X55653Y-29874D01*
X55259Y-30267D02*
X55653Y-30661D01*
X55259Y-30267D02*
X56440Y-30267D01*
X55259Y-47767D02*
X55653Y-47374D01*
X55259Y-47767D02*
X55653Y-48161D01*
X55259Y-47767D02*
X56440Y-47767D01*
X67960Y-33377D02*
G75*
G03X67960Y-33377I-984J0D01*
G74*
G01*
X44338Y-28259D02*
G75*
G03X44338Y-28259I-984J0D01*
G74*
G01*
X64417Y-52393D02*
G75*
G03X64417Y-52393I-984J0D01*
G74*
G01*
X44338Y-50937D02*
G75*
G03X44338Y-50937I-984J0D01*
G74*
G01*
X44228Y-43001D02*
X44228Y-43256D01*
X44243Y-43286D01*
X44258Y-43301D01*
X44288Y-43316D01*
X44348Y-43316D01*
X44378Y-43301D01*
X44393Y-43286D01*
X44408Y-43256D01*
X44408Y-43001D01*
X44528Y-43001D02*
X44738Y-43001D01*
X44603Y-43316D01*
X44546Y-39969D02*
X44561Y-39984D01*
X44576Y-40029D01*
X44576Y-40059D01*
X44561Y-40104D01*
X44531Y-40134D01*
X44501Y-40149D01*
X44441Y-40164D01*
X44396Y-40164D01*
X44336Y-40149D01*
X44306Y-40134D01*
X44276Y-40104D01*
X44261Y-40059D01*
X44261Y-40029D01*
X44276Y-39984D01*
X44291Y-39969D01*
X44261Y-39774D02*
X44261Y-39714D01*
X44276Y-39684D01*
X44306Y-39654D01*
X44366Y-39639D01*
X44471Y-39639D01*
X44531Y-39654D01*
X44561Y-39684D01*
X44576Y-39714D01*
X44576Y-39774D01*
X44561Y-39804D01*
X44531Y-39834D01*
X44471Y-39849D01*
X44366Y-39849D01*
X44306Y-39834D01*
X44276Y-39804D01*
X44261Y-39774D01*
X44576Y-39504D02*
X44261Y-39504D01*
X44576Y-39324D01*
X44261Y-39324D01*
X44291Y-39189D02*
X44276Y-39174D01*
X44261Y-39144D01*
X44261Y-39069D01*
X44276Y-39039D01*
X44291Y-39024D01*
X44321Y-39009D01*
X44351Y-39009D01*
X44396Y-39024D01*
X44576Y-39204D01*
X44576Y-39009D01*
X51452Y-30088D02*
X51452Y-30343D01*
X51467Y-30373D01*
X51482Y-30388D01*
X51512Y-30403D01*
X51572Y-30403D01*
X51602Y-30388D01*
X51617Y-30373D01*
X51632Y-30343D01*
X51632Y-30088D01*
X51767Y-30118D02*
X51782Y-30103D01*
X51812Y-30088D01*
X51887Y-30088D01*
X51917Y-30103D01*
X51932Y-30118D01*
X51947Y-30148D01*
X51947Y-30178D01*
X51932Y-30223D01*
X51752Y-30403D01*
X51947Y-30403D01*
X66755Y-31997D02*
X66755Y-31682D01*
X66875Y-31682D01*
X66905Y-31697D01*
X66920Y-31712D01*
X66935Y-31742D01*
X66935Y-31787D01*
X66920Y-31817D01*
X66905Y-31832D01*
X66875Y-31847D01*
X66755Y-31847D01*
X67220Y-31682D02*
X67070Y-31682D01*
X67055Y-31832D01*
X67070Y-31817D01*
X67100Y-31802D01*
X67175Y-31802D01*
X67205Y-31817D01*
X67220Y-31832D01*
X67235Y-31862D01*
X67235Y-31937D01*
X67220Y-31967D01*
X67205Y-31982D01*
X67175Y-31997D01*
X67100Y-31997D01*
X67070Y-31982D01*
X67055Y-31967D01*
X43121Y-30001D02*
X43121Y-29686D01*
X43241Y-29686D01*
X43271Y-29701D01*
X43286Y-29716D01*
X43301Y-29746D01*
X43301Y-29791D01*
X43286Y-29821D01*
X43271Y-29836D01*
X43241Y-29851D01*
X43121Y-29851D01*
X43571Y-29686D02*
X43511Y-29686D01*
X43481Y-29701D01*
X43466Y-29716D01*
X43436Y-29761D01*
X43421Y-29821D01*
X43421Y-29941D01*
X43436Y-29971D01*
X43451Y-29986D01*
X43481Y-30001D01*
X43541Y-30001D01*
X43571Y-29986D01*
X43586Y-29971D01*
X43601Y-29941D01*
X43601Y-29866D01*
X43586Y-29836D01*
X43571Y-29821D01*
X43541Y-29806D01*
X43481Y-29806D01*
X43451Y-29821D01*
X43436Y-29836D01*
X43421Y-29866D01*
X63113Y-51052D02*
X63113Y-50737D01*
X63233Y-50737D01*
X63263Y-50752D01*
X63278Y-50767D01*
X63293Y-50797D01*
X63293Y-50842D01*
X63278Y-50872D01*
X63263Y-50887D01*
X63233Y-50902D01*
X63113Y-50902D01*
X63398Y-50737D02*
X63608Y-50737D01*
X63473Y-51052D01*
X43113Y-49536D02*
X43113Y-49221D01*
X43233Y-49221D01*
X43263Y-49236D01*
X43278Y-49251D01*
X43293Y-49281D01*
X43293Y-49326D01*
X43278Y-49356D01*
X43263Y-49371D01*
X43233Y-49386D01*
X43113Y-49386D01*
X43473Y-49356D02*
X43443Y-49341D01*
X43428Y-49326D01*
X43413Y-49296D01*
X43413Y-49281D01*
X43428Y-49251D01*
X43443Y-49236D01*
X43473Y-49221D01*
X43533Y-49221D01*
X43563Y-49236D01*
X43578Y-49251D01*
X43593Y-49281D01*
X43593Y-49296D01*
X43578Y-49326D01*
X43563Y-49341D01*
X43533Y-49356D01*
X43473Y-49356D01*
X43443Y-49371D01*
X43428Y-49386D01*
X43413Y-49416D01*
X43413Y-49476D01*
X43428Y-49506D01*
X43443Y-49521D01*
X43473Y-49536D01*
X43533Y-49536D01*
X43563Y-49521D01*
X43578Y-49506D01*
X43593Y-49476D01*
X43593Y-49416D01*
X43578Y-49386D01*
X43563Y-49371D01*
X43533Y-49356D01*
M02*
