G04 (created by PCBNEW (2013-07-07 BZR 4022)-stable) date 06/05/2014 22:12:36*
%MOIN*%
G04 Gerber Fmt 3.4, Leading zero omitted, Abs format*
%FSLAX34Y34*%
G01*
G70*
G90*
G04 APERTURE LIST*
%ADD10C,0.00590551*%
%ADD11C,0.0147638*%
%ADD12C,0.000393701*%
%ADD13C,0.005*%
%ADD14C,0.0047*%
G04 APERTURE END LIST*
G54D10*
G54D11*
X54097Y-47325D02*
X54097Y-46735D01*
X53900Y-47156D01*
X53703Y-46735D01*
X53703Y-47325D01*
X53338Y-47325D02*
X53394Y-47297D01*
X53422Y-47269D01*
X53450Y-47213D01*
X53450Y-47044D01*
X53422Y-46988D01*
X53394Y-46960D01*
X53338Y-46931D01*
X53253Y-46931D01*
X53197Y-46960D01*
X53169Y-46988D01*
X53141Y-47044D01*
X53141Y-47213D01*
X53169Y-47269D01*
X53197Y-47297D01*
X53253Y-47325D01*
X53338Y-47325D01*
X52803Y-47325D02*
X52859Y-47297D01*
X52888Y-47269D01*
X52916Y-47213D01*
X52916Y-47044D01*
X52888Y-46988D01*
X52859Y-46960D01*
X52803Y-46931D01*
X52719Y-46931D01*
X52663Y-46960D01*
X52634Y-46988D01*
X52606Y-47044D01*
X52606Y-47213D01*
X52634Y-47269D01*
X52663Y-47297D01*
X52719Y-47325D01*
X52803Y-47325D01*
X52269Y-47325D02*
X52325Y-47297D01*
X52353Y-47241D01*
X52353Y-46735D01*
X52128Y-46931D02*
X51903Y-46931D01*
X52044Y-46735D02*
X52044Y-47241D01*
X52016Y-47297D01*
X51960Y-47325D01*
X51903Y-47325D01*
X51706Y-47325D02*
X51706Y-46931D01*
X51706Y-46735D02*
X51735Y-46763D01*
X51706Y-46791D01*
X51678Y-46763D01*
X51706Y-46735D01*
X51706Y-46791D01*
X51425Y-46931D02*
X51425Y-47522D01*
X51425Y-46960D02*
X51369Y-46931D01*
X51257Y-46931D01*
X51200Y-46960D01*
X51172Y-46988D01*
X51144Y-47044D01*
X51144Y-47213D01*
X51172Y-47269D01*
X51200Y-47297D01*
X51257Y-47325D01*
X51369Y-47325D01*
X51425Y-47297D01*
X50638Y-47325D02*
X50638Y-47016D01*
X50666Y-46960D01*
X50722Y-46931D01*
X50835Y-46931D01*
X50891Y-46960D01*
X50638Y-47297D02*
X50694Y-47325D01*
X50835Y-47325D01*
X50891Y-47297D01*
X50919Y-47241D01*
X50919Y-47185D01*
X50891Y-47128D01*
X50835Y-47100D01*
X50694Y-47100D01*
X50638Y-47072D01*
X50385Y-47297D02*
X50329Y-47325D01*
X50216Y-47325D01*
X50160Y-47297D01*
X50132Y-47241D01*
X50132Y-47213D01*
X50160Y-47156D01*
X50216Y-47128D01*
X50300Y-47128D01*
X50357Y-47100D01*
X50385Y-47044D01*
X50385Y-47016D01*
X50357Y-46960D01*
X50300Y-46931D01*
X50216Y-46931D01*
X50160Y-46960D01*
X49907Y-47297D02*
X49850Y-47325D01*
X49738Y-47325D01*
X49682Y-47297D01*
X49654Y-47241D01*
X49654Y-47213D01*
X49682Y-47156D01*
X49738Y-47128D01*
X49822Y-47128D01*
X49879Y-47100D01*
X49907Y-47044D01*
X49907Y-47016D01*
X49879Y-46960D01*
X49822Y-46931D01*
X49738Y-46931D01*
X49682Y-46960D01*
X56361Y-48300D02*
X56361Y-47709D01*
X56164Y-48131D01*
X55967Y-47709D01*
X55967Y-48300D01*
X55686Y-48243D02*
X55658Y-48271D01*
X55686Y-48300D01*
X55714Y-48271D01*
X55686Y-48243D01*
X55686Y-48300D01*
X55433Y-48271D02*
X55348Y-48300D01*
X55208Y-48300D01*
X55151Y-48271D01*
X55123Y-48243D01*
X55095Y-48187D01*
X55095Y-48131D01*
X55123Y-48075D01*
X55151Y-48046D01*
X55208Y-48018D01*
X55320Y-47990D01*
X55376Y-47962D01*
X55404Y-47934D01*
X55433Y-47878D01*
X55433Y-47821D01*
X55404Y-47765D01*
X55376Y-47737D01*
X55320Y-47709D01*
X55179Y-47709D01*
X55095Y-47737D01*
X54926Y-47906D02*
X54701Y-47906D01*
X54842Y-47709D02*
X54842Y-48215D01*
X54814Y-48271D01*
X54758Y-48300D01*
X54701Y-48300D01*
X54280Y-48271D02*
X54336Y-48300D01*
X54448Y-48300D01*
X54505Y-48271D01*
X54533Y-48215D01*
X54533Y-47990D01*
X54505Y-47934D01*
X54448Y-47906D01*
X54336Y-47906D01*
X54280Y-47934D01*
X54251Y-47990D01*
X54251Y-48046D01*
X54533Y-48103D01*
X53998Y-47906D02*
X53998Y-48496D01*
X53998Y-47934D02*
X53942Y-47906D01*
X53830Y-47906D01*
X53773Y-47934D01*
X53745Y-47962D01*
X53717Y-48018D01*
X53717Y-48187D01*
X53745Y-48243D01*
X53773Y-48271D01*
X53830Y-48300D01*
X53942Y-48300D01*
X53998Y-48271D01*
X53464Y-48300D02*
X53464Y-47709D01*
X53211Y-48300D02*
X53211Y-47990D01*
X53239Y-47934D01*
X53295Y-47906D01*
X53380Y-47906D01*
X53436Y-47934D01*
X53464Y-47962D01*
X52677Y-48300D02*
X52677Y-47990D01*
X52705Y-47934D01*
X52761Y-47906D01*
X52874Y-47906D01*
X52930Y-47934D01*
X52677Y-48271D02*
X52733Y-48300D01*
X52874Y-48300D01*
X52930Y-48271D01*
X52958Y-48215D01*
X52958Y-48159D01*
X52930Y-48103D01*
X52874Y-48075D01*
X52733Y-48075D01*
X52677Y-48046D01*
X52395Y-47906D02*
X52395Y-48300D01*
X52395Y-47962D02*
X52367Y-47934D01*
X52311Y-47906D01*
X52227Y-47906D01*
X52170Y-47934D01*
X52142Y-47990D01*
X52142Y-48300D01*
X50989Y-47681D02*
X51496Y-48440D01*
X50258Y-48300D02*
X50314Y-48271D01*
X50343Y-48215D01*
X50343Y-47709D01*
X50033Y-48300D02*
X50033Y-47906D01*
X50033Y-47709D02*
X50061Y-47737D01*
X50033Y-47765D01*
X50005Y-47737D01*
X50033Y-47709D01*
X50033Y-47765D01*
X49752Y-48300D02*
X49752Y-47906D01*
X49752Y-47962D02*
X49724Y-47934D01*
X49668Y-47906D01*
X49583Y-47906D01*
X49527Y-47934D01*
X49499Y-47990D01*
X49499Y-48300D01*
X49499Y-47990D02*
X49471Y-47934D01*
X49415Y-47906D01*
X49330Y-47906D01*
X49274Y-47934D01*
X49246Y-47990D01*
X49246Y-48300D01*
X48965Y-47906D02*
X48965Y-48496D01*
X48965Y-47934D02*
X48908Y-47906D01*
X48796Y-47906D01*
X48740Y-47934D01*
X48712Y-47962D01*
X48683Y-48018D01*
X48683Y-48187D01*
X48712Y-48243D01*
X48740Y-48271D01*
X48796Y-48300D01*
X48908Y-48300D01*
X48965Y-48271D01*
X48430Y-48300D02*
X48430Y-47709D01*
X48374Y-48075D02*
X48205Y-48300D01*
X48205Y-47906D02*
X48430Y-48131D01*
X47952Y-48300D02*
X47952Y-47906D01*
X47952Y-47709D02*
X47980Y-47737D01*
X47952Y-47765D01*
X47924Y-47737D01*
X47952Y-47709D01*
X47952Y-47765D01*
X47671Y-47906D02*
X47671Y-48300D01*
X47671Y-47962D02*
X47643Y-47934D01*
X47587Y-47906D01*
X47502Y-47906D01*
X47446Y-47934D01*
X47418Y-47990D01*
X47418Y-48300D01*
X55925Y-48965D02*
X56122Y-48965D01*
X56122Y-49274D02*
X56122Y-48683D01*
X55840Y-48683D01*
X55531Y-49274D02*
X55587Y-49246D01*
X55615Y-49218D01*
X55643Y-49161D01*
X55643Y-48993D01*
X55615Y-48937D01*
X55587Y-48908D01*
X55531Y-48880D01*
X55447Y-48880D01*
X55390Y-48908D01*
X55362Y-48937D01*
X55334Y-48993D01*
X55334Y-49161D01*
X55362Y-49218D01*
X55390Y-49246D01*
X55447Y-49274D01*
X55531Y-49274D01*
X55081Y-49274D02*
X55081Y-48880D01*
X55081Y-48993D02*
X55053Y-48937D01*
X55025Y-48908D01*
X54969Y-48880D01*
X54912Y-48880D01*
X54153Y-48683D02*
X54041Y-48683D01*
X53984Y-48712D01*
X53928Y-48768D01*
X53900Y-48880D01*
X53900Y-49077D01*
X53928Y-49190D01*
X53984Y-49246D01*
X54041Y-49274D01*
X54153Y-49274D01*
X54209Y-49246D01*
X54266Y-49190D01*
X54294Y-49077D01*
X54294Y-48880D01*
X54266Y-48768D01*
X54209Y-48712D01*
X54153Y-48683D01*
X53562Y-49274D02*
X53619Y-49246D01*
X53647Y-49190D01*
X53647Y-48683D01*
X53338Y-49274D02*
X53338Y-48880D01*
X53338Y-48683D02*
X53366Y-48712D01*
X53338Y-48740D01*
X53309Y-48712D01*
X53338Y-48683D01*
X53338Y-48740D01*
X53113Y-48880D02*
X52972Y-49274D01*
X52831Y-48880D01*
X52606Y-49274D02*
X52606Y-48880D01*
X52606Y-48683D02*
X52634Y-48712D01*
X52606Y-48740D01*
X52578Y-48712D01*
X52606Y-48683D01*
X52606Y-48740D01*
X52100Y-49246D02*
X52156Y-49274D01*
X52269Y-49274D01*
X52325Y-49246D01*
X52353Y-49190D01*
X52353Y-48965D01*
X52325Y-48908D01*
X52269Y-48880D01*
X52156Y-48880D01*
X52100Y-48908D01*
X52072Y-48965D01*
X52072Y-49021D01*
X52353Y-49077D01*
X51819Y-49274D02*
X51819Y-48880D01*
X51819Y-48993D02*
X51791Y-48937D01*
X51763Y-48908D01*
X51706Y-48880D01*
X51650Y-48880D01*
X51425Y-48683D02*
X51482Y-48796D01*
X51200Y-49246D02*
X51144Y-49274D01*
X51032Y-49274D01*
X50975Y-49246D01*
X50947Y-49190D01*
X50947Y-49161D01*
X50975Y-49105D01*
X51032Y-49077D01*
X51116Y-49077D01*
X51172Y-49049D01*
X51200Y-48993D01*
X51200Y-48965D01*
X51172Y-48908D01*
X51116Y-48880D01*
X51032Y-48880D01*
X50975Y-48908D01*
X49991Y-49274D02*
X49991Y-48683D01*
X49991Y-49246D02*
X50047Y-49274D01*
X50160Y-49274D01*
X50216Y-49246D01*
X50244Y-49218D01*
X50272Y-49161D01*
X50272Y-48993D01*
X50244Y-48937D01*
X50216Y-48908D01*
X50160Y-48880D01*
X50047Y-48880D01*
X49991Y-48908D01*
X49485Y-49246D02*
X49541Y-49274D01*
X49654Y-49274D01*
X49710Y-49246D01*
X49738Y-49190D01*
X49738Y-48965D01*
X49710Y-48908D01*
X49654Y-48880D01*
X49541Y-48880D01*
X49485Y-48908D01*
X49457Y-48965D01*
X49457Y-49021D01*
X49738Y-49077D01*
X49232Y-49246D02*
X49176Y-49274D01*
X49063Y-49274D01*
X49007Y-49246D01*
X48979Y-49190D01*
X48979Y-49161D01*
X49007Y-49105D01*
X49063Y-49077D01*
X49147Y-49077D01*
X49204Y-49049D01*
X49232Y-48993D01*
X49232Y-48965D01*
X49204Y-48908D01*
X49147Y-48880D01*
X49063Y-48880D01*
X49007Y-48908D01*
X48726Y-49274D02*
X48726Y-48880D01*
X48726Y-48683D02*
X48754Y-48712D01*
X48726Y-48740D01*
X48697Y-48712D01*
X48726Y-48683D01*
X48726Y-48740D01*
X48191Y-48880D02*
X48191Y-49358D01*
X48219Y-49415D01*
X48248Y-49443D01*
X48304Y-49471D01*
X48388Y-49471D01*
X48444Y-49443D01*
X48191Y-49246D02*
X48248Y-49274D01*
X48360Y-49274D01*
X48416Y-49246D01*
X48444Y-49218D01*
X48473Y-49161D01*
X48473Y-48993D01*
X48444Y-48937D01*
X48416Y-48908D01*
X48360Y-48880D01*
X48248Y-48880D01*
X48191Y-48908D01*
X47910Y-48880D02*
X47910Y-49274D01*
X47910Y-48937D02*
X47882Y-48908D01*
X47826Y-48880D01*
X47741Y-48880D01*
X47685Y-48908D01*
X47657Y-48965D01*
X47657Y-49274D01*
X58498Y-50248D02*
X58779Y-50248D01*
X58779Y-49658D01*
X58301Y-50248D02*
X58301Y-49855D01*
X58301Y-49658D02*
X58329Y-49686D01*
X58301Y-49714D01*
X58273Y-49686D01*
X58301Y-49658D01*
X58301Y-49714D01*
X57767Y-50220D02*
X57823Y-50248D01*
X57935Y-50248D01*
X57992Y-50220D01*
X58020Y-50192D01*
X58048Y-50136D01*
X58048Y-49967D01*
X58020Y-49911D01*
X57992Y-49883D01*
X57935Y-49855D01*
X57823Y-49855D01*
X57767Y-49883D01*
X57289Y-50220D02*
X57345Y-50248D01*
X57457Y-50248D01*
X57514Y-50220D01*
X57542Y-50164D01*
X57542Y-49939D01*
X57514Y-49883D01*
X57457Y-49855D01*
X57345Y-49855D01*
X57289Y-49883D01*
X57260Y-49939D01*
X57260Y-49995D01*
X57542Y-50052D01*
X57007Y-49855D02*
X57007Y-50248D01*
X57007Y-49911D02*
X56979Y-49883D01*
X56923Y-49855D01*
X56839Y-49855D01*
X56782Y-49883D01*
X56754Y-49939D01*
X56754Y-50248D01*
X56501Y-50220D02*
X56445Y-50248D01*
X56332Y-50248D01*
X56276Y-50220D01*
X56248Y-50164D01*
X56248Y-50136D01*
X56276Y-50080D01*
X56332Y-50052D01*
X56417Y-50052D01*
X56473Y-50023D01*
X56501Y-49967D01*
X56501Y-49939D01*
X56473Y-49883D01*
X56417Y-49855D01*
X56332Y-49855D01*
X56276Y-49883D01*
X55770Y-50220D02*
X55826Y-50248D01*
X55939Y-50248D01*
X55995Y-50220D01*
X56023Y-50164D01*
X56023Y-49939D01*
X55995Y-49883D01*
X55939Y-49855D01*
X55826Y-49855D01*
X55770Y-49883D01*
X55742Y-49939D01*
X55742Y-49995D01*
X56023Y-50052D01*
X55236Y-50248D02*
X55236Y-49658D01*
X55236Y-50220D02*
X55292Y-50248D01*
X55404Y-50248D01*
X55461Y-50220D01*
X55489Y-50192D01*
X55517Y-50136D01*
X55517Y-49967D01*
X55489Y-49911D01*
X55461Y-49883D01*
X55404Y-49855D01*
X55292Y-49855D01*
X55236Y-49883D01*
X54251Y-49855D02*
X54251Y-50248D01*
X54505Y-49855D02*
X54505Y-50164D01*
X54476Y-50220D01*
X54420Y-50248D01*
X54336Y-50248D01*
X54280Y-50220D01*
X54251Y-50192D01*
X53970Y-49855D02*
X53970Y-50248D01*
X53970Y-49911D02*
X53942Y-49883D01*
X53886Y-49855D01*
X53802Y-49855D01*
X53745Y-49883D01*
X53717Y-49939D01*
X53717Y-50248D01*
X53183Y-50248D02*
X53183Y-49658D01*
X53183Y-50220D02*
X53239Y-50248D01*
X53352Y-50248D01*
X53408Y-50220D01*
X53436Y-50192D01*
X53464Y-50136D01*
X53464Y-49967D01*
X53436Y-49911D01*
X53408Y-49883D01*
X53352Y-49855D01*
X53239Y-49855D01*
X53183Y-49883D01*
X52677Y-50220D02*
X52733Y-50248D01*
X52845Y-50248D01*
X52902Y-50220D01*
X52930Y-50164D01*
X52930Y-49939D01*
X52902Y-49883D01*
X52845Y-49855D01*
X52733Y-49855D01*
X52677Y-49883D01*
X52649Y-49939D01*
X52649Y-49995D01*
X52930Y-50052D01*
X52395Y-50248D02*
X52395Y-49855D01*
X52395Y-49967D02*
X52367Y-49911D01*
X52339Y-49883D01*
X52283Y-49855D01*
X52227Y-49855D01*
X51242Y-50192D02*
X51271Y-50220D01*
X51355Y-50248D01*
X51411Y-50248D01*
X51496Y-50220D01*
X51552Y-50164D01*
X51580Y-50108D01*
X51608Y-49995D01*
X51608Y-49911D01*
X51580Y-49798D01*
X51552Y-49742D01*
X51496Y-49686D01*
X51411Y-49658D01*
X51355Y-49658D01*
X51271Y-49686D01*
X51242Y-49714D01*
X50989Y-49939D02*
X50793Y-49939D01*
X50708Y-50248D02*
X50989Y-50248D01*
X50989Y-49658D01*
X50708Y-49658D01*
X50118Y-50248D02*
X50314Y-49967D01*
X50455Y-50248D02*
X50455Y-49658D01*
X50230Y-49658D01*
X50174Y-49686D01*
X50146Y-49714D01*
X50118Y-49770D01*
X50118Y-49855D01*
X50146Y-49911D01*
X50174Y-49939D01*
X50230Y-49967D01*
X50455Y-49967D01*
X49865Y-50248D02*
X49865Y-49658D01*
X49527Y-50248D01*
X49527Y-49658D01*
X48683Y-49658D02*
X48571Y-49658D01*
X48515Y-49686D01*
X48458Y-49742D01*
X48430Y-49855D01*
X48430Y-50052D01*
X48458Y-50164D01*
X48515Y-50220D01*
X48571Y-50248D01*
X48683Y-50248D01*
X48740Y-50220D01*
X48796Y-50164D01*
X48824Y-50052D01*
X48824Y-49855D01*
X48796Y-49742D01*
X48740Y-49686D01*
X48683Y-49658D01*
X48177Y-50248D02*
X48177Y-49658D01*
X48177Y-49939D02*
X47840Y-49939D01*
X47840Y-50248D02*
X47840Y-49658D01*
X47277Y-50248D02*
X47559Y-50248D01*
X47559Y-49658D01*
X46715Y-49658D02*
X46518Y-50248D01*
X46321Y-49658D01*
X45815Y-50248D02*
X46152Y-50248D01*
X45984Y-50248D02*
X45984Y-49658D01*
X46040Y-49742D01*
X46096Y-49798D01*
X46152Y-49827D01*
X45562Y-50192D02*
X45534Y-50220D01*
X45562Y-50248D01*
X45590Y-50220D01*
X45562Y-50192D01*
X45562Y-50248D01*
X45309Y-49714D02*
X45281Y-49686D01*
X45224Y-49658D01*
X45084Y-49658D01*
X45028Y-49686D01*
X44999Y-49714D01*
X44971Y-49770D01*
X44971Y-49827D01*
X44999Y-49911D01*
X45337Y-50248D01*
X44971Y-50248D01*
G54D12*
X42173Y-51606D02*
X42173Y-27590D01*
X42173Y-27590D02*
G75*
G02X42685Y-27078I511J0D01*
G74*
G01*
X45716Y-52511D02*
X45716Y-53574D01*
X42685Y-52118D02*
X45322Y-52118D01*
X67645Y-27078D02*
X42685Y-27078D01*
X68157Y-34677D02*
X68157Y-27590D01*
X59889Y-35188D02*
X67645Y-35188D01*
X59496Y-49913D02*
X59496Y-35582D01*
X64102Y-50307D02*
X59889Y-50307D01*
X64614Y-53574D02*
X64614Y-50818D01*
X46228Y-54086D02*
X64102Y-54086D01*
X45322Y-52118D02*
G75*
G02X45716Y-52511I0J-393D01*
G74*
G01*
X42685Y-52118D02*
G75*
G02X42173Y-51606I0J511D01*
G74*
G01*
X67645Y-27078D02*
G75*
G02X68157Y-27590I0J-511D01*
G74*
G01*
X68157Y-34678D02*
G75*
G02X67645Y-35188I-511J0D01*
G74*
G01*
X59496Y-35581D02*
G75*
G02X59889Y-35188I393J0D01*
G74*
G01*
X59889Y-50307D02*
G75*
G02X59496Y-49913I0J393D01*
G74*
G01*
X64103Y-50307D02*
G75*
G02X64614Y-50818I0J-511D01*
G74*
G01*
X64614Y-53575D02*
G75*
G02X64102Y-54086I-511J0D01*
G74*
G01*
X46227Y-54086D02*
G75*
G02X45716Y-53574I0J511D01*
G74*
G01*
G54D13*
X48042Y-34855D02*
X48092Y-34855D01*
X48092Y-34855D02*
X48092Y-36955D01*
X46592Y-36955D02*
X46592Y-34855D01*
X46592Y-34855D02*
X48042Y-34855D01*
X47142Y-34855D02*
X47142Y-35055D01*
X47142Y-35055D02*
X47542Y-35055D01*
X47542Y-35055D02*
X47542Y-34855D01*
X46592Y-36955D02*
X48092Y-36955D01*
X44294Y-36263D02*
X45194Y-36263D01*
X45194Y-36263D02*
X45194Y-36913D01*
X44294Y-37613D02*
X44294Y-38263D01*
X44294Y-38263D02*
X45194Y-38263D01*
X45194Y-38263D02*
X45194Y-37613D01*
X44294Y-36913D02*
X44294Y-36263D01*
G54D14*
X65590Y-31318D02*
X65865Y-31318D01*
X65196Y-31318D02*
X64921Y-31318D01*
X65590Y-31830D02*
X65865Y-31830D01*
X64921Y-31830D02*
X65196Y-31830D01*
X65865Y-31824D02*
X65865Y-31324D01*
X64921Y-31324D02*
X64921Y-31824D01*
X64035Y-31830D02*
X63760Y-31830D01*
X64429Y-31830D02*
X64704Y-31830D01*
X64035Y-31318D02*
X63760Y-31318D01*
X64704Y-31318D02*
X64429Y-31318D01*
X63760Y-31324D02*
X63760Y-31824D01*
X64704Y-31824D02*
X64704Y-31324D01*
G54D13*
X46495Y-44940D02*
X46217Y-44940D01*
X46217Y-44940D02*
X46217Y-44390D01*
X46217Y-44390D02*
X46495Y-44390D01*
X47167Y-44940D02*
X46889Y-44940D01*
X47167Y-44940D02*
X47167Y-44390D01*
X47167Y-44390D02*
X46889Y-44390D01*
G54D10*
X53110Y-39704D02*
X54370Y-39704D01*
X54370Y-39704D02*
X54370Y-38720D01*
X54370Y-38720D02*
X53110Y-38720D01*
X53110Y-38720D02*
X53110Y-39704D01*
G54D13*
X46260Y-39350D02*
X45078Y-39350D01*
X45078Y-39350D02*
X45078Y-40020D01*
X45078Y-40020D02*
X46260Y-40020D01*
X46260Y-40020D02*
X46260Y-39350D01*
X45334Y-39351D02*
X45079Y-39606D01*
X45274Y-39351D02*
X45079Y-39546D01*
X45669Y-40023D02*
X45669Y-40283D01*
X46044Y-40023D02*
X46044Y-40283D01*
X45294Y-40023D02*
X45294Y-40283D01*
X45669Y-39347D02*
X45669Y-39087D01*
X46044Y-39347D02*
X46044Y-39087D01*
X45294Y-39347D02*
X45294Y-39087D01*
G54D14*
X49574Y-28317D02*
X49574Y-29517D01*
X49574Y-29517D02*
X49874Y-29517D01*
X49874Y-29517D02*
X49874Y-28317D01*
X49874Y-28317D02*
X49574Y-28317D01*
X57666Y-44318D02*
X56466Y-44318D01*
X56466Y-44318D02*
X56466Y-44618D01*
X56466Y-44618D02*
X57666Y-44618D01*
X57666Y-44618D02*
X57666Y-44318D01*
X48712Y-38296D02*
X48712Y-37096D01*
X48712Y-37096D02*
X48412Y-37096D01*
X48412Y-37096D02*
X48412Y-38296D01*
X48412Y-38296D02*
X48712Y-38296D01*
G54D10*
X53818Y-28976D02*
X53110Y-28976D01*
X53818Y-30157D02*
X53110Y-30157D01*
X53110Y-30157D02*
X53110Y-28582D01*
X53110Y-28582D02*
X53818Y-28582D01*
X53818Y-28582D02*
X53818Y-30157D01*
G54D13*
X50485Y-28414D02*
X50485Y-28364D01*
X50485Y-28364D02*
X52585Y-28364D01*
X52585Y-29864D02*
X50485Y-29864D01*
X50485Y-29864D02*
X50485Y-28414D01*
X50485Y-29314D02*
X50685Y-29314D01*
X50685Y-29314D02*
X50685Y-28914D01*
X50685Y-28914D02*
X50485Y-28914D01*
X52585Y-29864D02*
X52585Y-28364D01*
X63447Y-28783D02*
X64347Y-28783D01*
X64347Y-28783D02*
X64347Y-29433D01*
X63447Y-30133D02*
X63447Y-30783D01*
X63447Y-30783D02*
X64347Y-30783D01*
X64347Y-30783D02*
X64347Y-30133D01*
X63447Y-29433D02*
X63447Y-28783D01*
X64431Y-28783D02*
X65331Y-28783D01*
X65331Y-28783D02*
X65331Y-29433D01*
X64431Y-30133D02*
X64431Y-30783D01*
X64431Y-30783D02*
X65331Y-30783D01*
X65331Y-30783D02*
X65331Y-30133D01*
X64431Y-29433D02*
X64431Y-28783D01*
X45035Y-43467D02*
X45035Y-44367D01*
X45035Y-44367D02*
X44385Y-44367D01*
X43685Y-43467D02*
X43035Y-43467D01*
X43035Y-43467D02*
X43035Y-44367D01*
X43035Y-44367D02*
X43685Y-44367D01*
X44385Y-43467D02*
X45035Y-43467D01*
X53979Y-28744D02*
X54879Y-28744D01*
X54879Y-28744D02*
X54879Y-29394D01*
X53979Y-30094D02*
X53979Y-30744D01*
X53979Y-30744D02*
X54879Y-30744D01*
X54879Y-30744D02*
X54879Y-30094D01*
X53979Y-29394D02*
X53979Y-28744D01*
X54937Y-30849D02*
X54937Y-31749D01*
X54937Y-31749D02*
X54287Y-31749D01*
X53587Y-30849D02*
X52937Y-30849D01*
X52937Y-30849D02*
X52937Y-31749D01*
X52937Y-31749D02*
X53587Y-31749D01*
X54287Y-30849D02*
X54937Y-30849D01*
X49251Y-43188D02*
X48973Y-43188D01*
X48973Y-43188D02*
X48973Y-42638D01*
X48973Y-42638D02*
X49251Y-42638D01*
X49923Y-43188D02*
X49645Y-43188D01*
X49923Y-43188D02*
X49923Y-42638D01*
X49923Y-42638D02*
X49645Y-42638D01*
X49251Y-43798D02*
X48973Y-43798D01*
X48973Y-43798D02*
X48973Y-43248D01*
X48973Y-43248D02*
X49251Y-43248D01*
X49923Y-43798D02*
X49645Y-43798D01*
X49923Y-43798D02*
X49923Y-43248D01*
X49923Y-43248D02*
X49645Y-43248D01*
X48936Y-29074D02*
X48936Y-29352D01*
X48936Y-29352D02*
X48386Y-29352D01*
X48386Y-29352D02*
X48386Y-29074D01*
X48936Y-28402D02*
X48936Y-28680D01*
X48936Y-28402D02*
X48386Y-28402D01*
X48386Y-28402D02*
X48386Y-28680D01*
X53799Y-31929D02*
X54077Y-31929D01*
X54077Y-31929D02*
X54077Y-32479D01*
X54077Y-32479D02*
X53799Y-32479D01*
X53127Y-31929D02*
X53405Y-31929D01*
X53127Y-31929D02*
X53127Y-32479D01*
X53127Y-32479D02*
X53405Y-32479D01*
X44410Y-42381D02*
X44410Y-42103D01*
X44410Y-42103D02*
X44960Y-42103D01*
X44960Y-42103D02*
X44960Y-42381D01*
X44410Y-43053D02*
X44410Y-42775D01*
X44410Y-43053D02*
X44960Y-43053D01*
X44960Y-43053D02*
X44960Y-42775D01*
X58129Y-32086D02*
X57851Y-32086D01*
X57851Y-32086D02*
X57851Y-31536D01*
X57851Y-31536D02*
X58129Y-31536D01*
X58801Y-32086D02*
X58523Y-32086D01*
X58801Y-32086D02*
X58801Y-31536D01*
X58801Y-31536D02*
X58523Y-31536D01*
X56673Y-45786D02*
X56395Y-45786D01*
X56395Y-45786D02*
X56395Y-45236D01*
X56395Y-45236D02*
X56673Y-45236D01*
X57345Y-45786D02*
X57067Y-45786D01*
X57345Y-45786D02*
X57345Y-45236D01*
X57345Y-45236D02*
X57067Y-45236D01*
X49488Y-37519D02*
X49488Y-37241D01*
X49488Y-37241D02*
X50038Y-37241D01*
X50038Y-37241D02*
X50038Y-37519D01*
X49488Y-38191D02*
X49488Y-37913D01*
X49488Y-38191D02*
X50038Y-38191D01*
X50038Y-38191D02*
X50038Y-37913D01*
G54D14*
X55216Y-45728D02*
X55216Y-46003D01*
X55216Y-45334D02*
X55216Y-45059D01*
X54704Y-45728D02*
X54704Y-46003D01*
X54704Y-45059D02*
X54704Y-45334D01*
X54710Y-46003D02*
X55210Y-46003D01*
X55210Y-45059D02*
X54710Y-45059D01*
X55708Y-41417D02*
X55433Y-41417D01*
X56102Y-41417D02*
X56377Y-41417D01*
X55708Y-40905D02*
X55433Y-40905D01*
X56377Y-40905D02*
X56102Y-40905D01*
X55433Y-40911D02*
X55433Y-41411D01*
X56377Y-41411D02*
X56377Y-40911D01*
X43326Y-42539D02*
X43051Y-42539D01*
X43720Y-42539D02*
X43995Y-42539D01*
X43326Y-42027D02*
X43051Y-42027D01*
X43995Y-42027D02*
X43720Y-42027D01*
X43051Y-42033D02*
X43051Y-42533D01*
X43995Y-42533D02*
X43995Y-42033D01*
X52027Y-40610D02*
X51752Y-40610D01*
X52421Y-40610D02*
X52696Y-40610D01*
X52027Y-40098D02*
X51752Y-40098D01*
X52696Y-40098D02*
X52421Y-40098D01*
X51752Y-40104D02*
X51752Y-40604D01*
X52696Y-40604D02*
X52696Y-40104D01*
X49783Y-27657D02*
X50058Y-27657D01*
X49389Y-27657D02*
X49114Y-27657D01*
X49783Y-28169D02*
X50058Y-28169D01*
X49114Y-28169D02*
X49389Y-28169D01*
X50058Y-28163D02*
X50058Y-27663D01*
X49114Y-27663D02*
X49114Y-28163D01*
X50551Y-42913D02*
X50276Y-42913D01*
X50945Y-42913D02*
X51220Y-42913D01*
X50551Y-42401D02*
X50276Y-42401D01*
X51220Y-42401D02*
X50945Y-42401D01*
X50276Y-42407D02*
X50276Y-42907D01*
X51220Y-42907D02*
X51220Y-42407D01*
X51771Y-31063D02*
X51496Y-31063D01*
X52165Y-31063D02*
X52440Y-31063D01*
X51771Y-30551D02*
X51496Y-30551D01*
X52440Y-30551D02*
X52165Y-30551D01*
X51496Y-30557D02*
X51496Y-31057D01*
X52440Y-31057D02*
X52440Y-30557D01*
X51141Y-31673D02*
X50866Y-31673D01*
X51535Y-31673D02*
X51810Y-31673D01*
X51141Y-31161D02*
X50866Y-31161D01*
X51810Y-31161D02*
X51535Y-31161D01*
X50866Y-31167D02*
X50866Y-31667D01*
X51810Y-31667D02*
X51810Y-31167D01*
X51850Y-27716D02*
X51575Y-27716D01*
X52244Y-27716D02*
X52519Y-27716D01*
X51850Y-27204D02*
X51575Y-27204D01*
X52519Y-27204D02*
X52244Y-27204D01*
X51575Y-27210D02*
X51575Y-27710D01*
X52519Y-27710D02*
X52519Y-27210D01*
X51220Y-27204D02*
X51495Y-27204D01*
X50826Y-27204D02*
X50551Y-27204D01*
X51220Y-27716D02*
X51495Y-27716D01*
X50551Y-27716D02*
X50826Y-27716D01*
X51495Y-27710D02*
X51495Y-27210D01*
X50551Y-27210D02*
X50551Y-27710D01*
X52618Y-31141D02*
X52893Y-31141D01*
X52224Y-31141D02*
X51949Y-31141D01*
X52618Y-31653D02*
X52893Y-31653D01*
X51949Y-31653D02*
X52224Y-31653D01*
X52893Y-31647D02*
X52893Y-31147D01*
X51949Y-31147D02*
X51949Y-31647D01*
X53366Y-45728D02*
X53366Y-46003D01*
X53366Y-45334D02*
X53366Y-45059D01*
X52854Y-45728D02*
X52854Y-46003D01*
X52854Y-45059D02*
X52854Y-45334D01*
X52860Y-46003D02*
X53360Y-46003D01*
X53360Y-45059D02*
X52860Y-45059D01*
X50747Y-43976D02*
X50472Y-43976D01*
X51141Y-43976D02*
X51416Y-43976D01*
X50747Y-43464D02*
X50472Y-43464D01*
X51416Y-43464D02*
X51141Y-43464D01*
X50472Y-43470D02*
X50472Y-43970D01*
X51416Y-43970D02*
X51416Y-43470D01*
X56732Y-32500D02*
X56732Y-32775D01*
X56732Y-32106D02*
X56732Y-31831D01*
X56220Y-32500D02*
X56220Y-32775D01*
X56220Y-31831D02*
X56220Y-32106D01*
X56226Y-32775D02*
X56726Y-32775D01*
X56726Y-31831D02*
X56226Y-31831D01*
X58405Y-32204D02*
X58680Y-32204D01*
X58011Y-32204D02*
X57736Y-32204D01*
X58405Y-32716D02*
X58680Y-32716D01*
X57736Y-32716D02*
X58011Y-32716D01*
X58680Y-32710D02*
X58680Y-32210D01*
X57736Y-32210D02*
X57736Y-32710D01*
X55413Y-32716D02*
X55138Y-32716D01*
X55807Y-32716D02*
X56082Y-32716D01*
X55413Y-32204D02*
X55138Y-32204D01*
X56082Y-32204D02*
X55807Y-32204D01*
X55138Y-32210D02*
X55138Y-32710D01*
X56082Y-32710D02*
X56082Y-32210D01*
X49586Y-38444D02*
X49861Y-38444D01*
X49192Y-38444D02*
X48917Y-38444D01*
X49586Y-38956D02*
X49861Y-38956D01*
X48917Y-38956D02*
X49192Y-38956D01*
X49861Y-38950D02*
X49861Y-38450D01*
X48917Y-38450D02*
X48917Y-38950D01*
X55334Y-31693D02*
X55059Y-31693D01*
X55728Y-31693D02*
X56003Y-31693D01*
X55334Y-31181D02*
X55059Y-31181D01*
X56003Y-31181D02*
X55728Y-31181D01*
X55059Y-31187D02*
X55059Y-31687D01*
X56003Y-31687D02*
X56003Y-31187D01*
X52756Y-45728D02*
X52756Y-46003D01*
X52756Y-45334D02*
X52756Y-45059D01*
X52244Y-45728D02*
X52244Y-46003D01*
X52244Y-45059D02*
X52244Y-45334D01*
X52250Y-46003D02*
X52750Y-46003D01*
X52750Y-45059D02*
X52250Y-45059D01*
X50551Y-42303D02*
X50276Y-42303D01*
X50945Y-42303D02*
X51220Y-42303D01*
X50551Y-41791D02*
X50276Y-41791D01*
X51220Y-41791D02*
X50945Y-41791D01*
X50276Y-41797D02*
X50276Y-42297D01*
X51220Y-42297D02*
X51220Y-41797D01*
X46594Y-37106D02*
X46869Y-37106D01*
X46200Y-37106D02*
X45925Y-37106D01*
X46594Y-37618D02*
X46869Y-37618D01*
X45925Y-37618D02*
X46200Y-37618D01*
X46869Y-37612D02*
X46869Y-37112D01*
X45925Y-37112D02*
X45925Y-37612D01*
X54724Y-39015D02*
X54724Y-38740D01*
X54724Y-39409D02*
X54724Y-39684D01*
X55236Y-39015D02*
X55236Y-38740D01*
X55236Y-39684D02*
X55236Y-39409D01*
X55230Y-38740D02*
X54730Y-38740D01*
X54730Y-39684D02*
X55230Y-39684D01*
X53937Y-37913D02*
X54212Y-37913D01*
X53543Y-37913D02*
X53268Y-37913D01*
X53937Y-38425D02*
X54212Y-38425D01*
X53268Y-38425D02*
X53543Y-38425D01*
X54212Y-38419D02*
X54212Y-37919D01*
X53268Y-37919D02*
X53268Y-38419D01*
X47755Y-40570D02*
X47480Y-40570D01*
X48149Y-40570D02*
X48424Y-40570D01*
X47755Y-40058D02*
X47480Y-40058D01*
X48424Y-40058D02*
X48149Y-40058D01*
X47480Y-40064D02*
X47480Y-40564D01*
X48424Y-40564D02*
X48424Y-40064D01*
G54D10*
X54862Y-37401D02*
X54862Y-34881D01*
X54862Y-34881D02*
X55492Y-34881D01*
X55492Y-34881D02*
X55492Y-37401D01*
X55492Y-37401D02*
X54862Y-37401D01*
X52913Y-34881D02*
X52913Y-37401D01*
X52913Y-37401D02*
X52283Y-37401D01*
X52283Y-37401D02*
X52283Y-34881D01*
X52283Y-34881D02*
X52913Y-34881D01*
X52765Y-43956D02*
G75*
G03X52765Y-43956I-88J0D01*
G74*
G01*
X52559Y-44074D02*
X55314Y-44074D01*
X55314Y-44074D02*
X55314Y-41318D01*
X55314Y-41318D02*
X52559Y-41318D01*
X52559Y-41318D02*
X52559Y-44074D01*
G54D14*
X47312Y-45578D02*
X46112Y-45578D01*
X46112Y-45578D02*
X46112Y-45878D01*
X46112Y-45878D02*
X47312Y-45878D01*
X47312Y-45878D02*
X47312Y-45578D01*
G54D10*
X55047Y-29283D02*
X55047Y-31015D01*
X55047Y-31015D02*
X63157Y-31015D01*
X63157Y-31015D02*
X63157Y-29283D01*
X63157Y-29283D02*
X55047Y-29283D01*
X62236Y-51877D02*
X53968Y-51877D01*
X53968Y-51877D02*
X53968Y-52862D01*
X53968Y-52862D02*
X62236Y-52862D01*
X62236Y-52862D02*
X62236Y-51877D01*
X65820Y-32877D02*
X55584Y-32877D01*
X55584Y-32877D02*
X55584Y-33862D01*
X55584Y-33862D02*
X65820Y-33862D01*
X65820Y-33862D02*
X65820Y-32877D01*
X53251Y-51877D02*
X46952Y-51877D01*
X46952Y-51877D02*
X46952Y-52862D01*
X46952Y-52862D02*
X53251Y-52862D01*
X53251Y-52862D02*
X53251Y-51877D01*
X55236Y-32877D02*
X46968Y-32877D01*
X46968Y-32877D02*
X46968Y-33862D01*
X46968Y-33862D02*
X55236Y-33862D01*
X55236Y-33862D02*
X55236Y-32877D01*
M02*
