G04 (created by PCBNEW (2013-07-07 BZR 4022)-stable) date 20/03/2014 14:12:02*
%MOIN*%
G04 Gerber Fmt 3.4, Leading zero omitted, Abs format*
%FSLAX34Y34*%
G01*
G70*
G90*
G04 APERTURE LIST*
%ADD10C,0.00590551*%
%ADD11C,0.0147638*%
%ADD12C,0.000393701*%
%ADD13C,0.0047*%
%ADD14C,0.005*%
%ADD15C,0.0045*%
%ADD16C,0.0039*%
%ADD17C,0.0051*%
%ADD18C,0.006*%
G04 APERTURE END LIST*
G54D10*
G54D11*
X53664Y-47325D02*
X53664Y-46735D01*
X53467Y-47156D01*
X53270Y-46735D01*
X53270Y-47325D01*
X52904Y-47325D02*
X52961Y-47297D01*
X52989Y-47269D01*
X53017Y-47213D01*
X53017Y-47044D01*
X52989Y-46988D01*
X52961Y-46960D01*
X52904Y-46931D01*
X52820Y-46931D01*
X52764Y-46960D01*
X52736Y-46988D01*
X52708Y-47044D01*
X52708Y-47213D01*
X52736Y-47269D01*
X52764Y-47297D01*
X52820Y-47325D01*
X52904Y-47325D01*
X52370Y-47325D02*
X52426Y-47297D01*
X52455Y-47269D01*
X52483Y-47213D01*
X52483Y-47044D01*
X52455Y-46988D01*
X52426Y-46960D01*
X52370Y-46931D01*
X52286Y-46931D01*
X52230Y-46960D01*
X52201Y-46988D01*
X52173Y-47044D01*
X52173Y-47213D01*
X52201Y-47269D01*
X52230Y-47297D01*
X52286Y-47325D01*
X52370Y-47325D01*
X51836Y-47325D02*
X51892Y-47297D01*
X51920Y-47241D01*
X51920Y-46735D01*
X51695Y-46931D02*
X51470Y-46931D01*
X51611Y-46735D02*
X51611Y-47241D01*
X51583Y-47297D01*
X51526Y-47325D01*
X51470Y-47325D01*
X51273Y-47325D02*
X51273Y-46931D01*
X51273Y-46735D02*
X51302Y-46763D01*
X51273Y-46791D01*
X51245Y-46763D01*
X51273Y-46735D01*
X51273Y-46791D01*
X50992Y-46931D02*
X50992Y-47522D01*
X50992Y-46960D02*
X50936Y-46931D01*
X50823Y-46931D01*
X50767Y-46960D01*
X50739Y-46988D01*
X50711Y-47044D01*
X50711Y-47213D01*
X50739Y-47269D01*
X50767Y-47297D01*
X50823Y-47325D01*
X50936Y-47325D01*
X50992Y-47297D01*
X50205Y-47325D02*
X50205Y-47016D01*
X50233Y-46960D01*
X50289Y-46931D01*
X50402Y-46931D01*
X50458Y-46960D01*
X50205Y-47297D02*
X50261Y-47325D01*
X50402Y-47325D01*
X50458Y-47297D01*
X50486Y-47241D01*
X50486Y-47185D01*
X50458Y-47128D01*
X50402Y-47100D01*
X50261Y-47100D01*
X50205Y-47072D01*
X49952Y-47297D02*
X49895Y-47325D01*
X49783Y-47325D01*
X49727Y-47297D01*
X49699Y-47241D01*
X49699Y-47213D01*
X49727Y-47156D01*
X49783Y-47128D01*
X49867Y-47128D01*
X49924Y-47100D01*
X49952Y-47044D01*
X49952Y-47016D01*
X49924Y-46960D01*
X49867Y-46931D01*
X49783Y-46931D01*
X49727Y-46960D01*
X49474Y-47297D02*
X49417Y-47325D01*
X49305Y-47325D01*
X49249Y-47297D01*
X49221Y-47241D01*
X49221Y-47213D01*
X49249Y-47156D01*
X49305Y-47128D01*
X49389Y-47128D01*
X49446Y-47100D01*
X49474Y-47044D01*
X49474Y-47016D01*
X49446Y-46960D01*
X49389Y-46931D01*
X49305Y-46931D01*
X49249Y-46960D01*
X54578Y-47906D02*
X54465Y-48300D01*
X54353Y-48018D01*
X54240Y-48300D01*
X54128Y-47906D01*
X53903Y-48300D02*
X53903Y-47906D01*
X53903Y-47709D02*
X53931Y-47737D01*
X53903Y-47765D01*
X53875Y-47737D01*
X53903Y-47709D01*
X53903Y-47765D01*
X53706Y-47906D02*
X53481Y-47906D01*
X53622Y-47709D02*
X53622Y-48215D01*
X53593Y-48271D01*
X53537Y-48300D01*
X53481Y-48300D01*
X53284Y-48300D02*
X53284Y-47709D01*
X53031Y-48300D02*
X53031Y-47990D01*
X53059Y-47934D01*
X53115Y-47906D01*
X53200Y-47906D01*
X53256Y-47934D01*
X53284Y-47962D01*
X52300Y-48300D02*
X52300Y-47709D01*
X52300Y-47990D02*
X51962Y-47990D01*
X51962Y-48300D02*
X51962Y-47709D01*
X51428Y-48300D02*
X51428Y-47990D01*
X51456Y-47934D01*
X51512Y-47906D01*
X51625Y-47906D01*
X51681Y-47934D01*
X51428Y-48271D02*
X51484Y-48300D01*
X51625Y-48300D01*
X51681Y-48271D01*
X51709Y-48215D01*
X51709Y-48159D01*
X51681Y-48103D01*
X51625Y-48075D01*
X51484Y-48075D01*
X51428Y-48046D01*
X50894Y-48271D02*
X50950Y-48300D01*
X51062Y-48300D01*
X51119Y-48271D01*
X51147Y-48243D01*
X51175Y-48187D01*
X51175Y-48018D01*
X51147Y-47962D01*
X51119Y-47934D01*
X51062Y-47906D01*
X50950Y-47906D01*
X50894Y-47934D01*
X50641Y-48300D02*
X50641Y-47709D01*
X50584Y-48075D02*
X50416Y-48300D01*
X50416Y-47906D02*
X50641Y-48131D01*
X49910Y-48300D02*
X49910Y-47990D01*
X49938Y-47934D01*
X49994Y-47906D01*
X50106Y-47906D01*
X50163Y-47934D01*
X49910Y-48271D02*
X49966Y-48300D01*
X50106Y-48300D01*
X50163Y-48271D01*
X50191Y-48215D01*
X50191Y-48159D01*
X50163Y-48103D01*
X50106Y-48075D01*
X49966Y-48075D01*
X49910Y-48046D01*
X49375Y-48300D02*
X49375Y-47709D01*
X49375Y-48271D02*
X49431Y-48300D01*
X49544Y-48300D01*
X49600Y-48271D01*
X49628Y-48243D01*
X49656Y-48187D01*
X49656Y-48018D01*
X49628Y-47962D01*
X49600Y-47934D01*
X49544Y-47906D01*
X49431Y-47906D01*
X49375Y-47934D01*
X48841Y-48300D02*
X48841Y-47990D01*
X48869Y-47934D01*
X48925Y-47906D01*
X49038Y-47906D01*
X49094Y-47934D01*
X48841Y-48271D02*
X48897Y-48300D01*
X49038Y-48300D01*
X49094Y-48271D01*
X49122Y-48215D01*
X49122Y-48159D01*
X49094Y-48103D01*
X49038Y-48075D01*
X48897Y-48075D01*
X48841Y-48046D01*
X48616Y-47906D02*
X48475Y-48300D01*
X48335Y-47906D02*
X48475Y-48300D01*
X48532Y-48440D01*
X48560Y-48468D01*
X48616Y-48496D01*
X55928Y-49274D02*
X55928Y-48683D01*
X55731Y-49105D01*
X55534Y-48683D01*
X55534Y-49274D01*
X55253Y-49218D02*
X55224Y-49246D01*
X55253Y-49274D01*
X55281Y-49246D01*
X55253Y-49218D01*
X55253Y-49274D01*
X55000Y-49246D02*
X54915Y-49274D01*
X54775Y-49274D01*
X54718Y-49246D01*
X54690Y-49218D01*
X54662Y-49161D01*
X54662Y-49105D01*
X54690Y-49049D01*
X54718Y-49021D01*
X54775Y-48993D01*
X54887Y-48965D01*
X54943Y-48937D01*
X54971Y-48908D01*
X55000Y-48852D01*
X55000Y-48796D01*
X54971Y-48740D01*
X54943Y-48712D01*
X54887Y-48683D01*
X54746Y-48683D01*
X54662Y-48712D01*
X54493Y-48880D02*
X54268Y-48880D01*
X54409Y-48683D02*
X54409Y-49190D01*
X54381Y-49246D01*
X54325Y-49274D01*
X54268Y-49274D01*
X53847Y-49246D02*
X53903Y-49274D01*
X54015Y-49274D01*
X54071Y-49246D01*
X54100Y-49190D01*
X54100Y-48965D01*
X54071Y-48908D01*
X54015Y-48880D01*
X53903Y-48880D01*
X53847Y-48908D01*
X53818Y-48965D01*
X53818Y-49021D01*
X54100Y-49077D01*
X53565Y-48880D02*
X53565Y-49471D01*
X53565Y-48908D02*
X53509Y-48880D01*
X53397Y-48880D01*
X53340Y-48908D01*
X53312Y-48937D01*
X53284Y-48993D01*
X53284Y-49161D01*
X53312Y-49218D01*
X53340Y-49246D01*
X53397Y-49274D01*
X53509Y-49274D01*
X53565Y-49246D01*
X53031Y-49274D02*
X53031Y-48683D01*
X52778Y-49274D02*
X52778Y-48965D01*
X52806Y-48908D01*
X52862Y-48880D01*
X52947Y-48880D01*
X53003Y-48908D01*
X53031Y-48937D01*
X52244Y-49274D02*
X52244Y-48965D01*
X52272Y-48908D01*
X52328Y-48880D01*
X52440Y-48880D01*
X52497Y-48908D01*
X52244Y-49246D02*
X52300Y-49274D01*
X52440Y-49274D01*
X52497Y-49246D01*
X52525Y-49190D01*
X52525Y-49133D01*
X52497Y-49077D01*
X52440Y-49049D01*
X52300Y-49049D01*
X52244Y-49021D01*
X51962Y-48880D02*
X51962Y-49274D01*
X51962Y-48937D02*
X51934Y-48908D01*
X51878Y-48880D01*
X51794Y-48880D01*
X51737Y-48908D01*
X51709Y-48965D01*
X51709Y-49274D01*
X50556Y-48655D02*
X51062Y-49415D01*
X49825Y-49274D02*
X49881Y-49246D01*
X49910Y-49190D01*
X49910Y-48683D01*
X49600Y-49274D02*
X49600Y-48880D01*
X49600Y-48683D02*
X49628Y-48712D01*
X49600Y-48740D01*
X49572Y-48712D01*
X49600Y-48683D01*
X49600Y-48740D01*
X49319Y-49274D02*
X49319Y-48880D01*
X49319Y-48937D02*
X49291Y-48908D01*
X49235Y-48880D01*
X49150Y-48880D01*
X49094Y-48908D01*
X49066Y-48965D01*
X49066Y-49274D01*
X49066Y-48965D02*
X49038Y-48908D01*
X48982Y-48880D01*
X48897Y-48880D01*
X48841Y-48908D01*
X48813Y-48965D01*
X48813Y-49274D01*
X48532Y-48880D02*
X48532Y-49471D01*
X48532Y-48908D02*
X48475Y-48880D01*
X48363Y-48880D01*
X48307Y-48908D01*
X48278Y-48937D01*
X48250Y-48993D01*
X48250Y-49161D01*
X48278Y-49218D01*
X48307Y-49246D01*
X48363Y-49274D01*
X48475Y-49274D01*
X48532Y-49246D01*
X47997Y-49274D02*
X47997Y-48683D01*
X47941Y-49049D02*
X47772Y-49274D01*
X47772Y-48880D02*
X47997Y-49105D01*
X47519Y-49274D02*
X47519Y-48880D01*
X47519Y-48683D02*
X47547Y-48712D01*
X47519Y-48740D01*
X47491Y-48712D01*
X47519Y-48683D01*
X47519Y-48740D01*
X47238Y-48880D02*
X47238Y-49274D01*
X47238Y-48937D02*
X47210Y-48908D01*
X47154Y-48880D01*
X47069Y-48880D01*
X47013Y-48908D01*
X46985Y-48965D01*
X46985Y-49274D01*
X55492Y-49939D02*
X55688Y-49939D01*
X55688Y-50248D02*
X55688Y-49658D01*
X55407Y-49658D01*
X55098Y-50248D02*
X55154Y-50220D01*
X55182Y-50192D01*
X55210Y-50136D01*
X55210Y-49967D01*
X55182Y-49911D01*
X55154Y-49883D01*
X55098Y-49855D01*
X55014Y-49855D01*
X54957Y-49883D01*
X54929Y-49911D01*
X54901Y-49967D01*
X54901Y-50136D01*
X54929Y-50192D01*
X54957Y-50220D01*
X55014Y-50248D01*
X55098Y-50248D01*
X54648Y-50248D02*
X54648Y-49855D01*
X54648Y-49967D02*
X54620Y-49911D01*
X54592Y-49883D01*
X54535Y-49855D01*
X54479Y-49855D01*
X53720Y-49658D02*
X53607Y-49658D01*
X53551Y-49686D01*
X53495Y-49742D01*
X53467Y-49855D01*
X53467Y-50052D01*
X53495Y-50164D01*
X53551Y-50220D01*
X53607Y-50248D01*
X53720Y-50248D01*
X53776Y-50220D01*
X53832Y-50164D01*
X53861Y-50052D01*
X53861Y-49855D01*
X53832Y-49742D01*
X53776Y-49686D01*
X53720Y-49658D01*
X53129Y-50248D02*
X53186Y-50220D01*
X53214Y-50164D01*
X53214Y-49658D01*
X52904Y-50248D02*
X52904Y-49855D01*
X52904Y-49658D02*
X52933Y-49686D01*
X52904Y-49714D01*
X52876Y-49686D01*
X52904Y-49658D01*
X52904Y-49714D01*
X52679Y-49855D02*
X52539Y-50248D01*
X52398Y-49855D01*
X52173Y-50248D02*
X52173Y-49855D01*
X52173Y-49658D02*
X52201Y-49686D01*
X52173Y-49714D01*
X52145Y-49686D01*
X52173Y-49658D01*
X52173Y-49714D01*
X51667Y-50220D02*
X51723Y-50248D01*
X51836Y-50248D01*
X51892Y-50220D01*
X51920Y-50164D01*
X51920Y-49939D01*
X51892Y-49883D01*
X51836Y-49855D01*
X51723Y-49855D01*
X51667Y-49883D01*
X51639Y-49939D01*
X51639Y-49995D01*
X51920Y-50052D01*
X51386Y-50248D02*
X51386Y-49855D01*
X51386Y-49967D02*
X51358Y-49911D01*
X51330Y-49883D01*
X51273Y-49855D01*
X51217Y-49855D01*
X50992Y-49658D02*
X51048Y-49770D01*
X50767Y-50220D02*
X50711Y-50248D01*
X50598Y-50248D01*
X50542Y-50220D01*
X50514Y-50164D01*
X50514Y-50136D01*
X50542Y-50080D01*
X50598Y-50052D01*
X50683Y-50052D01*
X50739Y-50023D01*
X50767Y-49967D01*
X50767Y-49939D01*
X50739Y-49883D01*
X50683Y-49855D01*
X50598Y-49855D01*
X50542Y-49883D01*
X49558Y-50248D02*
X49558Y-49658D01*
X49558Y-50220D02*
X49614Y-50248D01*
X49727Y-50248D01*
X49783Y-50220D01*
X49811Y-50192D01*
X49839Y-50136D01*
X49839Y-49967D01*
X49811Y-49911D01*
X49783Y-49883D01*
X49727Y-49855D01*
X49614Y-49855D01*
X49558Y-49883D01*
X49052Y-50220D02*
X49108Y-50248D01*
X49221Y-50248D01*
X49277Y-50220D01*
X49305Y-50164D01*
X49305Y-49939D01*
X49277Y-49883D01*
X49221Y-49855D01*
X49108Y-49855D01*
X49052Y-49883D01*
X49024Y-49939D01*
X49024Y-49995D01*
X49305Y-50052D01*
X48799Y-50220D02*
X48742Y-50248D01*
X48630Y-50248D01*
X48574Y-50220D01*
X48546Y-50164D01*
X48546Y-50136D01*
X48574Y-50080D01*
X48630Y-50052D01*
X48714Y-50052D01*
X48771Y-50023D01*
X48799Y-49967D01*
X48799Y-49939D01*
X48771Y-49883D01*
X48714Y-49855D01*
X48630Y-49855D01*
X48574Y-49883D01*
X48293Y-50248D02*
X48293Y-49855D01*
X48293Y-49658D02*
X48321Y-49686D01*
X48293Y-49714D01*
X48264Y-49686D01*
X48293Y-49658D01*
X48293Y-49714D01*
X47758Y-49855D02*
X47758Y-50333D01*
X47786Y-50389D01*
X47814Y-50417D01*
X47871Y-50445D01*
X47955Y-50445D01*
X48011Y-50417D01*
X47758Y-50220D02*
X47814Y-50248D01*
X47927Y-50248D01*
X47983Y-50220D01*
X48011Y-50192D01*
X48039Y-50136D01*
X48039Y-49967D01*
X48011Y-49911D01*
X47983Y-49883D01*
X47927Y-49855D01*
X47814Y-49855D01*
X47758Y-49883D01*
X47477Y-49855D02*
X47477Y-50248D01*
X47477Y-49911D02*
X47449Y-49883D01*
X47393Y-49855D01*
X47308Y-49855D01*
X47252Y-49883D01*
X47224Y-49939D01*
X47224Y-50248D01*
G54D12*
X42173Y-51606D02*
X42173Y-27590D01*
X42173Y-27590D02*
G75*
G02X42685Y-27078I511J0D01*
G74*
G01*
X45716Y-52511D02*
X45716Y-53574D01*
X42685Y-52118D02*
X45322Y-52118D01*
X67645Y-27078D02*
X42685Y-27078D01*
X68157Y-34677D02*
X68157Y-27590D01*
X59889Y-35188D02*
X67645Y-35188D01*
X59496Y-49913D02*
X59496Y-35582D01*
X64102Y-50307D02*
X59889Y-50307D01*
X64614Y-53574D02*
X64614Y-50818D01*
X46228Y-54086D02*
X64102Y-54086D01*
X45322Y-52118D02*
G75*
G02X45716Y-52511I0J-393D01*
G74*
G01*
X42685Y-52118D02*
G75*
G02X42173Y-51606I0J511D01*
G74*
G01*
X67645Y-27078D02*
G75*
G02X68157Y-27590I0J-511D01*
G74*
G01*
X68157Y-34678D02*
G75*
G02X67645Y-35188I-511J0D01*
G74*
G01*
X59496Y-35581D02*
G75*
G02X59889Y-35188I393J0D01*
G74*
G01*
X59889Y-50307D02*
G75*
G02X59496Y-49913I0J393D01*
G74*
G01*
X64103Y-50307D02*
G75*
G02X64614Y-50818I0J-511D01*
G74*
G01*
X64614Y-53575D02*
G75*
G02X64102Y-54086I-511J0D01*
G74*
G01*
X46227Y-54086D02*
G75*
G02X45716Y-53574I0J511D01*
G74*
G01*
G54D13*
X65708Y-31318D02*
X65983Y-31318D01*
X65314Y-31318D02*
X65039Y-31318D01*
X65708Y-31830D02*
X65983Y-31830D01*
X65039Y-31830D02*
X65314Y-31830D01*
X65983Y-31824D02*
X65983Y-31324D01*
X65039Y-31324D02*
X65039Y-31824D01*
X64035Y-31830D02*
X63760Y-31830D01*
X64429Y-31830D02*
X64704Y-31830D01*
X64035Y-31318D02*
X63760Y-31318D01*
X64704Y-31318D02*
X64429Y-31318D01*
X63760Y-31324D02*
X63760Y-31824D01*
X64704Y-31824D02*
X64704Y-31324D01*
G54D14*
X46495Y-44389D02*
X46217Y-44389D01*
X46217Y-44389D02*
X46217Y-43839D01*
X46217Y-43839D02*
X46495Y-43839D01*
X47167Y-44389D02*
X46889Y-44389D01*
X47167Y-44389D02*
X47167Y-43839D01*
X47167Y-43839D02*
X46889Y-43839D01*
G54D10*
X53110Y-39704D02*
X54370Y-39704D01*
X54370Y-39704D02*
X54370Y-38720D01*
X54370Y-38720D02*
X53110Y-38720D01*
X53110Y-38720D02*
X53110Y-39704D01*
G54D14*
X46673Y-42874D02*
X46673Y-41692D01*
X46673Y-41692D02*
X46003Y-41692D01*
X46003Y-41692D02*
X46003Y-42874D01*
X46003Y-42874D02*
X46673Y-42874D01*
X46672Y-41948D02*
X46417Y-41693D01*
X46672Y-41888D02*
X46477Y-41693D01*
X46000Y-42283D02*
X45740Y-42283D01*
X46000Y-42658D02*
X45740Y-42658D01*
X46000Y-41908D02*
X45740Y-41908D01*
X46676Y-42283D02*
X46936Y-42283D01*
X46676Y-42658D02*
X46936Y-42658D01*
X46676Y-41908D02*
X46936Y-41908D01*
G54D13*
X49574Y-28317D02*
X49574Y-29517D01*
X49574Y-29517D02*
X49874Y-29517D01*
X49874Y-29517D02*
X49874Y-28317D01*
X49874Y-28317D02*
X49574Y-28317D01*
X57666Y-44318D02*
X56466Y-44318D01*
X56466Y-44318D02*
X56466Y-44618D01*
X56466Y-44618D02*
X57666Y-44618D01*
X57666Y-44618D02*
X57666Y-44318D01*
X48712Y-38296D02*
X48712Y-37096D01*
X48712Y-37096D02*
X48412Y-37096D01*
X48412Y-37096D02*
X48412Y-38296D01*
X48412Y-38296D02*
X48712Y-38296D01*
G54D10*
X53818Y-28976D02*
X53110Y-28976D01*
X53818Y-30157D02*
X53110Y-30157D01*
X53110Y-30157D02*
X53110Y-28582D01*
X53110Y-28582D02*
X53818Y-28582D01*
X53818Y-28582D02*
X53818Y-30157D01*
G54D14*
X48318Y-34855D02*
X48368Y-34855D01*
X48368Y-34855D02*
X48368Y-36955D01*
X46868Y-36955D02*
X46868Y-34855D01*
X46868Y-34855D02*
X48318Y-34855D01*
X47418Y-34855D02*
X47418Y-35055D01*
X47418Y-35055D02*
X47818Y-35055D01*
X47818Y-35055D02*
X47818Y-34855D01*
X46868Y-36955D02*
X48368Y-36955D01*
X50485Y-28414D02*
X50485Y-28364D01*
X50485Y-28364D02*
X52585Y-28364D01*
X52585Y-29864D02*
X50485Y-29864D01*
X50485Y-29864D02*
X50485Y-28414D01*
X50485Y-29314D02*
X50685Y-29314D01*
X50685Y-29314D02*
X50685Y-28914D01*
X50685Y-28914D02*
X50485Y-28914D01*
X52585Y-29864D02*
X52585Y-28364D01*
X63447Y-28783D02*
X64347Y-28783D01*
X64347Y-28783D02*
X64347Y-29433D01*
X63447Y-30133D02*
X63447Y-30783D01*
X63447Y-30783D02*
X64347Y-30783D01*
X64347Y-30783D02*
X64347Y-30133D01*
X63447Y-29433D02*
X63447Y-28783D01*
X64431Y-28783D02*
X65331Y-28783D01*
X65331Y-28783D02*
X65331Y-29433D01*
X64431Y-30133D02*
X64431Y-30783D01*
X64431Y-30783D02*
X65331Y-30783D01*
X65331Y-30783D02*
X65331Y-30133D01*
X64431Y-29433D02*
X64431Y-28783D01*
X45035Y-43467D02*
X45035Y-44367D01*
X45035Y-44367D02*
X44385Y-44367D01*
X43685Y-43467D02*
X43035Y-43467D01*
X43035Y-43467D02*
X43035Y-44367D01*
X43035Y-44367D02*
X43685Y-44367D01*
X44385Y-43467D02*
X45035Y-43467D01*
X53979Y-28744D02*
X54879Y-28744D01*
X54879Y-28744D02*
X54879Y-29394D01*
X53979Y-30094D02*
X53979Y-30744D01*
X53979Y-30744D02*
X54879Y-30744D01*
X54879Y-30744D02*
X54879Y-30094D01*
X53979Y-29394D02*
X53979Y-28744D01*
X54937Y-30849D02*
X54937Y-31749D01*
X54937Y-31749D02*
X54287Y-31749D01*
X53587Y-30849D02*
X52937Y-30849D01*
X52937Y-30849D02*
X52937Y-31749D01*
X52937Y-31749D02*
X53587Y-31749D01*
X54287Y-30849D02*
X54937Y-30849D01*
X49251Y-43188D02*
X48973Y-43188D01*
X48973Y-43188D02*
X48973Y-42638D01*
X48973Y-42638D02*
X49251Y-42638D01*
X49923Y-43188D02*
X49645Y-43188D01*
X49923Y-43188D02*
X49923Y-42638D01*
X49923Y-42638D02*
X49645Y-42638D01*
X49389Y-43798D02*
X49111Y-43798D01*
X49111Y-43798D02*
X49111Y-43248D01*
X49111Y-43248D02*
X49389Y-43248D01*
X50061Y-43798D02*
X49783Y-43798D01*
X50061Y-43798D02*
X50061Y-43248D01*
X50061Y-43248D02*
X49783Y-43248D01*
X48936Y-29074D02*
X48936Y-29352D01*
X48936Y-29352D02*
X48386Y-29352D01*
X48386Y-29352D02*
X48386Y-29074D01*
X48936Y-28402D02*
X48936Y-28680D01*
X48936Y-28402D02*
X48386Y-28402D01*
X48386Y-28402D02*
X48386Y-28680D01*
X53799Y-31929D02*
X54077Y-31929D01*
X54077Y-31929D02*
X54077Y-32479D01*
X54077Y-32479D02*
X53799Y-32479D01*
X53127Y-31929D02*
X53405Y-31929D01*
X53127Y-31929D02*
X53127Y-32479D01*
X53127Y-32479D02*
X53405Y-32479D01*
X44410Y-42381D02*
X44410Y-42103D01*
X44410Y-42103D02*
X44960Y-42103D01*
X44960Y-42103D02*
X44960Y-42381D01*
X44410Y-43053D02*
X44410Y-42775D01*
X44410Y-43053D02*
X44960Y-43053D01*
X44960Y-43053D02*
X44960Y-42775D01*
X58129Y-32086D02*
X57851Y-32086D01*
X57851Y-32086D02*
X57851Y-31536D01*
X57851Y-31536D02*
X58129Y-31536D01*
X58801Y-32086D02*
X58523Y-32086D01*
X58801Y-32086D02*
X58801Y-31536D01*
X58801Y-31536D02*
X58523Y-31536D01*
X56673Y-45786D02*
X56395Y-45786D01*
X56395Y-45786D02*
X56395Y-45236D01*
X56395Y-45236D02*
X56673Y-45236D01*
X57345Y-45786D02*
X57067Y-45786D01*
X57345Y-45786D02*
X57345Y-45236D01*
X57345Y-45236D02*
X57067Y-45236D01*
X49488Y-37519D02*
X49488Y-37241D01*
X49488Y-37241D02*
X50038Y-37241D01*
X50038Y-37241D02*
X50038Y-37519D01*
X49488Y-38191D02*
X49488Y-37913D01*
X49488Y-38191D02*
X50038Y-38191D01*
X50038Y-38191D02*
X50038Y-37913D01*
G54D13*
X55216Y-45728D02*
X55216Y-46003D01*
X55216Y-45334D02*
X55216Y-45059D01*
X54704Y-45728D02*
X54704Y-46003D01*
X54704Y-45059D02*
X54704Y-45334D01*
X54710Y-46003D02*
X55210Y-46003D01*
X55210Y-45059D02*
X54710Y-45059D01*
X55708Y-41417D02*
X55433Y-41417D01*
X56102Y-41417D02*
X56377Y-41417D01*
X55708Y-40905D02*
X55433Y-40905D01*
X56377Y-40905D02*
X56102Y-40905D01*
X55433Y-40911D02*
X55433Y-41411D01*
X56377Y-41411D02*
X56377Y-40911D01*
X43326Y-42539D02*
X43051Y-42539D01*
X43720Y-42539D02*
X43995Y-42539D01*
X43326Y-42027D02*
X43051Y-42027D01*
X43995Y-42027D02*
X43720Y-42027D01*
X43051Y-42033D02*
X43051Y-42533D01*
X43995Y-42533D02*
X43995Y-42033D01*
X52027Y-40610D02*
X51752Y-40610D01*
X52421Y-40610D02*
X52696Y-40610D01*
X52027Y-40098D02*
X51752Y-40098D01*
X52696Y-40098D02*
X52421Y-40098D01*
X51752Y-40104D02*
X51752Y-40604D01*
X52696Y-40604D02*
X52696Y-40104D01*
X49783Y-27657D02*
X50058Y-27657D01*
X49389Y-27657D02*
X49114Y-27657D01*
X49783Y-28169D02*
X50058Y-28169D01*
X49114Y-28169D02*
X49389Y-28169D01*
X50058Y-28163D02*
X50058Y-27663D01*
X49114Y-27663D02*
X49114Y-28163D01*
X50551Y-42913D02*
X50276Y-42913D01*
X50945Y-42913D02*
X51220Y-42913D01*
X50551Y-42401D02*
X50276Y-42401D01*
X51220Y-42401D02*
X50945Y-42401D01*
X50276Y-42407D02*
X50276Y-42907D01*
X51220Y-42907D02*
X51220Y-42407D01*
X51771Y-31063D02*
X51496Y-31063D01*
X52165Y-31063D02*
X52440Y-31063D01*
X51771Y-30551D02*
X51496Y-30551D01*
X52440Y-30551D02*
X52165Y-30551D01*
X51496Y-30557D02*
X51496Y-31057D01*
X52440Y-31057D02*
X52440Y-30557D01*
X51141Y-31673D02*
X50866Y-31673D01*
X51535Y-31673D02*
X51810Y-31673D01*
X51141Y-31161D02*
X50866Y-31161D01*
X51810Y-31161D02*
X51535Y-31161D01*
X50866Y-31167D02*
X50866Y-31667D01*
X51810Y-31667D02*
X51810Y-31167D01*
X51850Y-27716D02*
X51575Y-27716D01*
X52244Y-27716D02*
X52519Y-27716D01*
X51850Y-27204D02*
X51575Y-27204D01*
X52519Y-27204D02*
X52244Y-27204D01*
X51575Y-27210D02*
X51575Y-27710D01*
X52519Y-27710D02*
X52519Y-27210D01*
X51220Y-27204D02*
X51495Y-27204D01*
X50826Y-27204D02*
X50551Y-27204D01*
X51220Y-27716D02*
X51495Y-27716D01*
X50551Y-27716D02*
X50826Y-27716D01*
X51495Y-27710D02*
X51495Y-27210D01*
X50551Y-27210D02*
X50551Y-27710D01*
X52618Y-31141D02*
X52893Y-31141D01*
X52224Y-31141D02*
X51949Y-31141D01*
X52618Y-31653D02*
X52893Y-31653D01*
X51949Y-31653D02*
X52224Y-31653D01*
X52893Y-31647D02*
X52893Y-31147D01*
X51949Y-31147D02*
X51949Y-31647D01*
X53366Y-45728D02*
X53366Y-46003D01*
X53366Y-45334D02*
X53366Y-45059D01*
X52854Y-45728D02*
X52854Y-46003D01*
X52854Y-45059D02*
X52854Y-45334D01*
X52860Y-46003D02*
X53360Y-46003D01*
X53360Y-45059D02*
X52860Y-45059D01*
X50747Y-43976D02*
X50472Y-43976D01*
X51141Y-43976D02*
X51416Y-43976D01*
X50747Y-43464D02*
X50472Y-43464D01*
X51416Y-43464D02*
X51141Y-43464D01*
X50472Y-43470D02*
X50472Y-43970D01*
X51416Y-43970D02*
X51416Y-43470D01*
X56732Y-32500D02*
X56732Y-32775D01*
X56732Y-32106D02*
X56732Y-31831D01*
X56220Y-32500D02*
X56220Y-32775D01*
X56220Y-31831D02*
X56220Y-32106D01*
X56226Y-32775D02*
X56726Y-32775D01*
X56726Y-31831D02*
X56226Y-31831D01*
X58405Y-32204D02*
X58680Y-32204D01*
X58011Y-32204D02*
X57736Y-32204D01*
X58405Y-32716D02*
X58680Y-32716D01*
X57736Y-32716D02*
X58011Y-32716D01*
X58680Y-32710D02*
X58680Y-32210D01*
X57736Y-32210D02*
X57736Y-32710D01*
X55413Y-32716D02*
X55138Y-32716D01*
X55807Y-32716D02*
X56082Y-32716D01*
X55413Y-32204D02*
X55138Y-32204D01*
X56082Y-32204D02*
X55807Y-32204D01*
X55138Y-32210D02*
X55138Y-32710D01*
X56082Y-32710D02*
X56082Y-32210D01*
X49586Y-38444D02*
X49861Y-38444D01*
X49192Y-38444D02*
X48917Y-38444D01*
X49586Y-38956D02*
X49861Y-38956D01*
X48917Y-38956D02*
X49192Y-38956D01*
X49861Y-38950D02*
X49861Y-38450D01*
X48917Y-38450D02*
X48917Y-38950D01*
X55334Y-31693D02*
X55059Y-31693D01*
X55728Y-31693D02*
X56003Y-31693D01*
X55334Y-31181D02*
X55059Y-31181D01*
X56003Y-31181D02*
X55728Y-31181D01*
X55059Y-31187D02*
X55059Y-31687D01*
X56003Y-31687D02*
X56003Y-31187D01*
X52756Y-45728D02*
X52756Y-46003D01*
X52756Y-45334D02*
X52756Y-45059D01*
X52244Y-45728D02*
X52244Y-46003D01*
X52244Y-45059D02*
X52244Y-45334D01*
X52250Y-46003D02*
X52750Y-46003D01*
X52750Y-45059D02*
X52250Y-45059D01*
X50551Y-42303D02*
X50276Y-42303D01*
X50945Y-42303D02*
X51220Y-42303D01*
X50551Y-41791D02*
X50276Y-41791D01*
X51220Y-41791D02*
X50945Y-41791D01*
X50276Y-41797D02*
X50276Y-42297D01*
X51220Y-42297D02*
X51220Y-41797D01*
X45570Y-35688D02*
X45570Y-35413D01*
X45570Y-36082D02*
X45570Y-36357D01*
X46082Y-35688D02*
X46082Y-35413D01*
X46082Y-36357D02*
X46082Y-36082D01*
X46076Y-35413D02*
X45576Y-35413D01*
X45576Y-36357D02*
X46076Y-36357D01*
X54724Y-39015D02*
X54724Y-38740D01*
X54724Y-39409D02*
X54724Y-39684D01*
X55236Y-39015D02*
X55236Y-38740D01*
X55236Y-39684D02*
X55236Y-39409D01*
X55230Y-38740D02*
X54730Y-38740D01*
X54730Y-39684D02*
X55230Y-39684D01*
X53937Y-37913D02*
X54212Y-37913D01*
X53543Y-37913D02*
X53268Y-37913D01*
X53937Y-38425D02*
X54212Y-38425D01*
X53268Y-38425D02*
X53543Y-38425D01*
X54212Y-38419D02*
X54212Y-37919D01*
X53268Y-37919D02*
X53268Y-38419D01*
X47755Y-42539D02*
X47480Y-42539D01*
X48149Y-42539D02*
X48424Y-42539D01*
X47755Y-42027D02*
X47480Y-42027D01*
X48424Y-42027D02*
X48149Y-42027D01*
X47480Y-42033D02*
X47480Y-42533D01*
X48424Y-42533D02*
X48424Y-42033D01*
G54D10*
X54862Y-37401D02*
X54862Y-34881D01*
X54862Y-34881D02*
X55492Y-34881D01*
X55492Y-34881D02*
X55492Y-37401D01*
X55492Y-37401D02*
X54862Y-37401D01*
X52913Y-34881D02*
X52913Y-37401D01*
X52913Y-37401D02*
X52283Y-37401D01*
X52283Y-37401D02*
X52283Y-34881D01*
X52283Y-34881D02*
X52913Y-34881D01*
X52765Y-43956D02*
G75*
G03X52765Y-43956I-88J0D01*
G74*
G01*
X52559Y-44074D02*
X55314Y-44074D01*
X55314Y-44074D02*
X55314Y-41318D01*
X55314Y-41318D02*
X52559Y-41318D01*
X52559Y-41318D02*
X52559Y-44074D01*
G54D13*
X47312Y-45066D02*
X46112Y-45066D01*
X46112Y-45066D02*
X46112Y-45366D01*
X46112Y-45366D02*
X47312Y-45366D01*
X47312Y-45366D02*
X47312Y-45066D01*
G54D10*
X55047Y-29283D02*
X55047Y-31015D01*
X55047Y-31015D02*
X63157Y-31015D01*
X63157Y-31015D02*
X63157Y-29283D01*
X63157Y-29283D02*
X55047Y-29283D01*
X62236Y-51877D02*
X53968Y-51877D01*
X53968Y-51877D02*
X53968Y-52862D01*
X53968Y-52862D02*
X62236Y-52862D01*
X62236Y-52862D02*
X62236Y-51877D01*
X65820Y-32877D02*
X55584Y-32877D01*
X55584Y-32877D02*
X55584Y-33862D01*
X55584Y-33862D02*
X65820Y-33862D01*
X65820Y-33862D02*
X65820Y-32877D01*
X53251Y-51877D02*
X46952Y-51877D01*
X46952Y-51877D02*
X46952Y-52862D01*
X46952Y-52862D02*
X53251Y-52862D01*
X53251Y-52862D02*
X53251Y-51877D01*
X55236Y-32877D02*
X46968Y-32877D01*
X46968Y-32877D02*
X46968Y-33862D01*
X46968Y-33862D02*
X55236Y-33862D01*
X55236Y-33862D02*
X55236Y-32877D01*
G54D15*
X65592Y-31459D02*
X65497Y-31399D01*
X65592Y-31356D02*
X65392Y-31356D01*
X65392Y-31424D01*
X65402Y-31441D01*
X65411Y-31450D01*
X65430Y-31459D01*
X65459Y-31459D01*
X65478Y-31450D01*
X65488Y-31441D01*
X65497Y-31424D01*
X65497Y-31356D01*
X65592Y-31630D02*
X65592Y-31527D01*
X65592Y-31579D02*
X65392Y-31579D01*
X65421Y-31561D01*
X65440Y-31544D01*
X65449Y-31527D01*
X65592Y-31801D02*
X65592Y-31699D01*
X65592Y-31750D02*
X65392Y-31750D01*
X65421Y-31733D01*
X65440Y-31716D01*
X65449Y-31699D01*
X64313Y-31459D02*
X64217Y-31399D01*
X64313Y-31356D02*
X64113Y-31356D01*
X64113Y-31424D01*
X64122Y-31441D01*
X64132Y-31450D01*
X64151Y-31459D01*
X64179Y-31459D01*
X64198Y-31450D01*
X64208Y-31441D01*
X64217Y-31424D01*
X64217Y-31356D01*
X64313Y-31630D02*
X64313Y-31527D01*
X64313Y-31579D02*
X64113Y-31579D01*
X64141Y-31561D01*
X64160Y-31544D01*
X64170Y-31527D01*
X64132Y-31699D02*
X64122Y-31707D01*
X64113Y-31724D01*
X64113Y-31767D01*
X64122Y-31784D01*
X64132Y-31793D01*
X64151Y-31801D01*
X64170Y-31801D01*
X64198Y-31793D01*
X64313Y-31690D01*
X64313Y-31801D01*
X46797Y-44109D02*
X46703Y-44049D01*
X46797Y-44006D02*
X46600Y-44006D01*
X46600Y-44074D01*
X46610Y-44092D01*
X46619Y-44100D01*
X46638Y-44109D01*
X46666Y-44109D01*
X46685Y-44100D01*
X46694Y-44092D01*
X46703Y-44074D01*
X46703Y-44006D01*
X46797Y-44280D02*
X46797Y-44177D01*
X46797Y-44229D02*
X46600Y-44229D01*
X46628Y-44212D01*
X46647Y-44194D01*
X46656Y-44177D01*
G54D10*
X54058Y-40001D02*
X53796Y-40395D01*
X53796Y-40001D02*
X54058Y-40395D01*
X53440Y-40395D02*
X53665Y-40395D01*
X53552Y-40395D02*
X53552Y-40001D01*
X53590Y-40058D01*
X53627Y-40095D01*
X53665Y-40114D01*
G54D16*
X46488Y-42205D02*
X46488Y-42365D01*
X46479Y-42383D01*
X46469Y-42393D01*
X46451Y-42402D01*
X46413Y-42402D01*
X46394Y-42393D01*
X46385Y-42383D01*
X46376Y-42365D01*
X46376Y-42205D01*
X46301Y-42205D02*
X46179Y-42205D01*
X46244Y-42280D01*
X46216Y-42280D01*
X46197Y-42290D01*
X46188Y-42299D01*
X46179Y-42318D01*
X46179Y-42365D01*
X46188Y-42383D01*
X46197Y-42393D01*
X46216Y-42402D01*
X46272Y-42402D01*
X46291Y-42393D01*
X46301Y-42383D01*
G54D17*
X50205Y-29579D02*
X50234Y-29564D01*
X50262Y-29536D01*
X50305Y-29493D01*
X50334Y-29479D01*
X50362Y-29479D01*
X50348Y-29550D02*
X50377Y-29536D01*
X50405Y-29507D01*
X50420Y-29450D01*
X50420Y-29350D01*
X50405Y-29293D01*
X50377Y-29264D01*
X50348Y-29250D01*
X50291Y-29250D01*
X50262Y-29264D01*
X50234Y-29293D01*
X50220Y-29350D01*
X50220Y-29450D01*
X50234Y-29507D01*
X50262Y-29536D01*
X50291Y-29550D01*
X50348Y-29550D01*
X50120Y-29250D02*
X49934Y-29250D01*
X50034Y-29364D01*
X49991Y-29364D01*
X49962Y-29379D01*
X49948Y-29393D01*
X49934Y-29421D01*
X49934Y-29493D01*
X49948Y-29521D01*
X49962Y-29536D01*
X49991Y-29550D01*
X50077Y-29550D01*
X50105Y-29536D01*
X50120Y-29521D01*
X57016Y-43693D02*
X57045Y-43679D01*
X57073Y-43650D01*
X57116Y-43607D01*
X57145Y-43593D01*
X57173Y-43593D01*
X57159Y-43664D02*
X57188Y-43650D01*
X57216Y-43621D01*
X57231Y-43564D01*
X57231Y-43464D01*
X57216Y-43407D01*
X57188Y-43379D01*
X57159Y-43364D01*
X57102Y-43364D01*
X57073Y-43379D01*
X57045Y-43407D01*
X57031Y-43464D01*
X57031Y-43564D01*
X57045Y-43621D01*
X57073Y-43650D01*
X57102Y-43664D01*
X57159Y-43664D01*
X56916Y-43393D02*
X56902Y-43379D01*
X56873Y-43364D01*
X56802Y-43364D01*
X56773Y-43379D01*
X56759Y-43393D01*
X56745Y-43421D01*
X56745Y-43450D01*
X56759Y-43493D01*
X56931Y-43664D01*
X56745Y-43664D01*
X48158Y-37295D02*
X48187Y-37281D01*
X48215Y-37252D01*
X48258Y-37209D01*
X48287Y-37195D01*
X48315Y-37195D01*
X48301Y-37267D02*
X48329Y-37252D01*
X48358Y-37224D01*
X48372Y-37167D01*
X48372Y-37067D01*
X48358Y-37009D01*
X48329Y-36981D01*
X48301Y-36967D01*
X48244Y-36967D01*
X48215Y-36981D01*
X48187Y-37009D01*
X48172Y-37067D01*
X48172Y-37167D01*
X48187Y-37224D01*
X48215Y-37252D01*
X48244Y-37267D01*
X48301Y-37267D01*
X47887Y-37267D02*
X48058Y-37267D01*
X47972Y-37267D02*
X47972Y-36967D01*
X48001Y-37009D01*
X48029Y-37038D01*
X48058Y-37052D01*
G54D10*
X52954Y-29079D02*
X52560Y-29079D01*
X52560Y-29173D01*
X52579Y-29229D01*
X52617Y-29266D01*
X52654Y-29285D01*
X52729Y-29304D01*
X52785Y-29304D01*
X52860Y-29285D01*
X52898Y-29266D01*
X52935Y-29229D01*
X52954Y-29173D01*
X52954Y-29079D01*
X52954Y-29679D02*
X52954Y-29454D01*
X52954Y-29566D02*
X52560Y-29566D01*
X52617Y-29529D01*
X52654Y-29491D01*
X52673Y-29454D01*
G54D18*
X47960Y-35637D02*
X47960Y-36001D01*
X47939Y-36044D01*
X47918Y-36066D01*
X47875Y-36087D01*
X47789Y-36087D01*
X47746Y-36066D01*
X47725Y-36044D01*
X47703Y-36001D01*
X47703Y-35637D01*
X47296Y-35637D02*
X47382Y-35637D01*
X47425Y-35659D01*
X47446Y-35680D01*
X47489Y-35744D01*
X47510Y-35830D01*
X47510Y-36001D01*
X47489Y-36044D01*
X47468Y-36066D01*
X47425Y-36087D01*
X47339Y-36087D01*
X47296Y-36066D01*
X47275Y-36044D01*
X47253Y-36001D01*
X47253Y-35894D01*
X47275Y-35851D01*
X47296Y-35830D01*
X47339Y-35809D01*
X47425Y-35809D01*
X47468Y-35830D01*
X47489Y-35851D01*
X47510Y-35894D01*
X51878Y-28885D02*
X51878Y-29249D01*
X51856Y-29292D01*
X51835Y-29314D01*
X51792Y-29335D01*
X51706Y-29335D01*
X51664Y-29314D01*
X51642Y-29292D01*
X51621Y-29249D01*
X51621Y-28885D01*
X51192Y-28885D02*
X51406Y-28885D01*
X51428Y-29099D01*
X51406Y-29078D01*
X51364Y-29057D01*
X51256Y-29057D01*
X51214Y-29078D01*
X51192Y-29099D01*
X51171Y-29142D01*
X51171Y-29249D01*
X51192Y-29292D01*
X51214Y-29314D01*
X51256Y-29335D01*
X51364Y-29335D01*
X51406Y-29314D01*
X51428Y-29292D01*
G54D14*
X63947Y-29876D02*
X63961Y-29890D01*
X64004Y-29904D01*
X64033Y-29904D01*
X64076Y-29890D01*
X64104Y-29862D01*
X64119Y-29833D01*
X64133Y-29776D01*
X64133Y-29733D01*
X64119Y-29676D01*
X64104Y-29647D01*
X64076Y-29619D01*
X64033Y-29604D01*
X64004Y-29604D01*
X63961Y-29619D01*
X63947Y-29633D01*
X63804Y-29904D02*
X63747Y-29904D01*
X63719Y-29890D01*
X63704Y-29876D01*
X63676Y-29833D01*
X63661Y-29776D01*
X63661Y-29662D01*
X63676Y-29633D01*
X63690Y-29619D01*
X63719Y-29604D01*
X63776Y-29604D01*
X63804Y-29619D01*
X63819Y-29633D01*
X63833Y-29662D01*
X63833Y-29733D01*
X63819Y-29762D01*
X63804Y-29776D01*
X63776Y-29790D01*
X63719Y-29790D01*
X63690Y-29776D01*
X63676Y-29762D01*
X63661Y-29733D01*
X64931Y-29876D02*
X64946Y-29890D01*
X64989Y-29904D01*
X65017Y-29904D01*
X65060Y-29890D01*
X65089Y-29862D01*
X65103Y-29833D01*
X65117Y-29776D01*
X65117Y-29733D01*
X65103Y-29676D01*
X65089Y-29647D01*
X65060Y-29619D01*
X65017Y-29604D01*
X64989Y-29604D01*
X64946Y-29619D01*
X64931Y-29633D01*
X64831Y-29604D02*
X64646Y-29604D01*
X64746Y-29719D01*
X64703Y-29719D01*
X64674Y-29733D01*
X64660Y-29747D01*
X64646Y-29776D01*
X64646Y-29847D01*
X64660Y-29876D01*
X64674Y-29890D01*
X64703Y-29904D01*
X64789Y-29904D01*
X64817Y-29890D01*
X64831Y-29876D01*
X44128Y-43724D02*
X44142Y-43710D01*
X44156Y-43667D01*
X44156Y-43638D01*
X44142Y-43595D01*
X44114Y-43567D01*
X44085Y-43553D01*
X44028Y-43538D01*
X43985Y-43538D01*
X43928Y-43553D01*
X43899Y-43567D01*
X43871Y-43595D01*
X43856Y-43638D01*
X43856Y-43667D01*
X43871Y-43710D01*
X43885Y-43724D01*
X44156Y-44010D02*
X44156Y-43838D01*
X44156Y-43924D02*
X43856Y-43924D01*
X43899Y-43895D01*
X43928Y-43867D01*
X43942Y-43838D01*
X43885Y-44124D02*
X43871Y-44138D01*
X43856Y-44167D01*
X43856Y-44238D01*
X43871Y-44267D01*
X43885Y-44281D01*
X43914Y-44295D01*
X43942Y-44295D01*
X43985Y-44281D01*
X44156Y-44110D01*
X44156Y-44295D01*
X54479Y-29865D02*
X54579Y-29722D01*
X54650Y-29865D02*
X54650Y-29565D01*
X54536Y-29565D01*
X54507Y-29579D01*
X54493Y-29594D01*
X54479Y-29622D01*
X54479Y-29665D01*
X54493Y-29694D01*
X54507Y-29708D01*
X54536Y-29722D01*
X54650Y-29722D01*
X54379Y-29565D02*
X54193Y-29565D01*
X54293Y-29679D01*
X54250Y-29679D01*
X54221Y-29694D01*
X54207Y-29708D01*
X54193Y-29736D01*
X54193Y-29808D01*
X54207Y-29836D01*
X54221Y-29851D01*
X54250Y-29865D01*
X54336Y-29865D01*
X54364Y-29851D01*
X54379Y-29836D01*
X53987Y-31392D02*
X54001Y-31406D01*
X54044Y-31420D01*
X54072Y-31420D01*
X54115Y-31406D01*
X54144Y-31377D01*
X54158Y-31349D01*
X54172Y-31292D01*
X54172Y-31249D01*
X54158Y-31192D01*
X54144Y-31163D01*
X54115Y-31134D01*
X54072Y-31120D01*
X54044Y-31120D01*
X54001Y-31134D01*
X53987Y-31149D01*
X53701Y-31420D02*
X53872Y-31420D01*
X53787Y-31420D02*
X53787Y-31120D01*
X53815Y-31163D01*
X53844Y-31192D01*
X53872Y-31206D01*
G54D15*
X49553Y-42908D02*
X49459Y-42848D01*
X49553Y-42805D02*
X49356Y-42805D01*
X49356Y-42874D01*
X49365Y-42891D01*
X49375Y-42899D01*
X49394Y-42908D01*
X49422Y-42908D01*
X49440Y-42899D01*
X49450Y-42891D01*
X49459Y-42874D01*
X49459Y-42805D01*
X49440Y-43011D02*
X49431Y-42994D01*
X49422Y-42985D01*
X49403Y-42976D01*
X49394Y-42976D01*
X49375Y-42985D01*
X49365Y-42994D01*
X49356Y-43011D01*
X49356Y-43045D01*
X49365Y-43062D01*
X49375Y-43071D01*
X49394Y-43079D01*
X49403Y-43079D01*
X49422Y-43071D01*
X49431Y-43062D01*
X49440Y-43045D01*
X49440Y-43011D01*
X49450Y-42994D01*
X49459Y-42985D01*
X49478Y-42976D01*
X49516Y-42976D01*
X49534Y-42985D01*
X49544Y-42994D01*
X49553Y-43011D01*
X49553Y-43045D01*
X49544Y-43062D01*
X49534Y-43071D01*
X49516Y-43079D01*
X49478Y-43079D01*
X49459Y-43071D01*
X49450Y-43062D01*
X49440Y-43045D01*
X49691Y-43518D02*
X49597Y-43458D01*
X49691Y-43415D02*
X49494Y-43415D01*
X49494Y-43484D01*
X49503Y-43501D01*
X49513Y-43510D01*
X49531Y-43518D01*
X49560Y-43518D01*
X49578Y-43510D01*
X49588Y-43501D01*
X49597Y-43484D01*
X49597Y-43415D01*
X49691Y-43604D02*
X49691Y-43638D01*
X49681Y-43655D01*
X49672Y-43664D01*
X49644Y-43681D01*
X49606Y-43690D01*
X49531Y-43690D01*
X49513Y-43681D01*
X49503Y-43672D01*
X49494Y-43655D01*
X49494Y-43621D01*
X49503Y-43604D01*
X49513Y-43595D01*
X49531Y-43587D01*
X49578Y-43587D01*
X49597Y-43595D01*
X49606Y-43604D01*
X49616Y-43621D01*
X49616Y-43655D01*
X49606Y-43672D01*
X49597Y-43681D01*
X49578Y-43690D01*
X48711Y-28957D02*
X48771Y-28863D01*
X48813Y-28957D02*
X48813Y-28760D01*
X48745Y-28760D01*
X48728Y-28770D01*
X48719Y-28779D01*
X48711Y-28798D01*
X48711Y-28826D01*
X48719Y-28845D01*
X48728Y-28854D01*
X48745Y-28863D01*
X48813Y-28863D01*
X48548Y-28760D02*
X48633Y-28760D01*
X48642Y-28854D01*
X48633Y-28845D01*
X48616Y-28835D01*
X48573Y-28835D01*
X48556Y-28845D01*
X48548Y-28854D01*
X48539Y-28873D01*
X48539Y-28920D01*
X48548Y-28938D01*
X48556Y-28948D01*
X48573Y-28957D01*
X48616Y-28957D01*
X48633Y-28948D01*
X48642Y-28938D01*
X53553Y-32029D02*
X53553Y-31969D01*
X53657Y-31969D02*
X53460Y-31969D01*
X53460Y-32055D01*
X53553Y-32184D02*
X53563Y-32209D01*
X53572Y-32218D01*
X53591Y-32226D01*
X53619Y-32226D01*
X53638Y-32218D01*
X53647Y-32209D01*
X53657Y-32192D01*
X53657Y-32124D01*
X53460Y-32124D01*
X53460Y-32184D01*
X53469Y-32201D01*
X53478Y-32209D01*
X53497Y-32218D01*
X53516Y-32218D01*
X53535Y-32209D01*
X53544Y-32201D01*
X53553Y-32184D01*
X53553Y-32124D01*
X53478Y-32295D02*
X53469Y-32304D01*
X53460Y-32321D01*
X53460Y-32364D01*
X53469Y-32381D01*
X53478Y-32389D01*
X53497Y-32398D01*
X53516Y-32398D01*
X53544Y-32389D01*
X53657Y-32286D01*
X53657Y-32398D01*
X44810Y-42580D02*
X44870Y-42580D01*
X44870Y-42683D02*
X44870Y-42486D01*
X44784Y-42486D01*
X44655Y-42580D02*
X44630Y-42589D01*
X44621Y-42599D01*
X44612Y-42617D01*
X44612Y-42645D01*
X44621Y-42664D01*
X44630Y-42674D01*
X44647Y-42683D01*
X44715Y-42683D01*
X44715Y-42486D01*
X44655Y-42486D01*
X44638Y-42495D01*
X44630Y-42505D01*
X44621Y-42524D01*
X44621Y-42542D01*
X44630Y-42561D01*
X44638Y-42570D01*
X44655Y-42580D01*
X44715Y-42580D01*
X44441Y-42683D02*
X44544Y-42683D01*
X44492Y-42683D02*
X44492Y-42486D01*
X44510Y-42514D01*
X44527Y-42533D01*
X44544Y-42542D01*
X58431Y-31806D02*
X58337Y-31746D01*
X58431Y-31703D02*
X58234Y-31703D01*
X58234Y-31771D01*
X58243Y-31788D01*
X58253Y-31797D01*
X58272Y-31806D01*
X58300Y-31806D01*
X58318Y-31797D01*
X58328Y-31788D01*
X58337Y-31771D01*
X58337Y-31703D01*
X58253Y-31874D02*
X58243Y-31883D01*
X58234Y-31900D01*
X58234Y-31943D01*
X58243Y-31960D01*
X58253Y-31968D01*
X58272Y-31977D01*
X58290Y-31977D01*
X58318Y-31968D01*
X58431Y-31866D01*
X58431Y-31977D01*
X56974Y-45506D02*
X56881Y-45446D01*
X56974Y-45403D02*
X56777Y-45403D01*
X56777Y-45472D01*
X56787Y-45489D01*
X56796Y-45498D01*
X56815Y-45506D01*
X56843Y-45506D01*
X56862Y-45498D01*
X56871Y-45489D01*
X56881Y-45472D01*
X56881Y-45403D01*
X56843Y-45661D02*
X56974Y-45661D01*
X56768Y-45618D02*
X56909Y-45575D01*
X56909Y-45686D01*
X49854Y-37821D02*
X49914Y-37727D01*
X49957Y-37821D02*
X49957Y-37624D01*
X49888Y-37624D01*
X49871Y-37633D01*
X49863Y-37643D01*
X49854Y-37661D01*
X49854Y-37689D01*
X49863Y-37708D01*
X49871Y-37718D01*
X49888Y-37727D01*
X49957Y-37727D01*
X49683Y-37821D02*
X49785Y-37821D01*
X49734Y-37821D02*
X49734Y-37624D01*
X49751Y-37652D01*
X49768Y-37671D01*
X49785Y-37680D01*
X49571Y-37624D02*
X49554Y-37624D01*
X49537Y-37633D01*
X49528Y-37643D01*
X49520Y-37661D01*
X49511Y-37699D01*
X49511Y-37746D01*
X49520Y-37783D01*
X49528Y-37802D01*
X49537Y-37811D01*
X49554Y-37821D01*
X49571Y-37821D01*
X49588Y-37811D01*
X49597Y-37802D01*
X49605Y-37783D01*
X49614Y-37746D01*
X49614Y-37699D01*
X49605Y-37661D01*
X49597Y-37643D01*
X49588Y-37633D01*
X49571Y-37624D01*
X55076Y-45593D02*
X55084Y-45602D01*
X55110Y-45612D01*
X55127Y-45612D01*
X55153Y-45602D01*
X55170Y-45583D01*
X55179Y-45564D01*
X55187Y-45526D01*
X55187Y-45498D01*
X55179Y-45460D01*
X55170Y-45441D01*
X55153Y-45421D01*
X55127Y-45412D01*
X55110Y-45412D01*
X55084Y-45421D01*
X55076Y-45431D01*
X54904Y-45612D02*
X55007Y-45612D01*
X54956Y-45612D02*
X54956Y-45412D01*
X54973Y-45441D01*
X54990Y-45460D01*
X55007Y-45469D01*
X54844Y-45412D02*
X54733Y-45412D01*
X54793Y-45488D01*
X54767Y-45488D01*
X54750Y-45498D01*
X54742Y-45507D01*
X54733Y-45526D01*
X54733Y-45574D01*
X54742Y-45593D01*
X54750Y-45602D01*
X54767Y-45612D01*
X54819Y-45612D01*
X54836Y-45602D01*
X54844Y-45593D01*
X55967Y-41045D02*
X55976Y-41037D01*
X55986Y-41011D01*
X55986Y-40994D01*
X55976Y-40968D01*
X55957Y-40951D01*
X55938Y-40942D01*
X55900Y-40934D01*
X55872Y-40934D01*
X55834Y-40942D01*
X55815Y-40951D01*
X55795Y-40968D01*
X55786Y-40994D01*
X55786Y-41011D01*
X55795Y-41037D01*
X55805Y-41045D01*
X55805Y-41114D02*
X55795Y-41122D01*
X55786Y-41139D01*
X55786Y-41182D01*
X55795Y-41199D01*
X55805Y-41208D01*
X55824Y-41217D01*
X55843Y-41217D01*
X55872Y-41208D01*
X55986Y-41105D01*
X55986Y-41217D01*
X55986Y-41302D02*
X55986Y-41337D01*
X55976Y-41354D01*
X55967Y-41362D01*
X55938Y-41379D01*
X55900Y-41388D01*
X55824Y-41388D01*
X55805Y-41379D01*
X55795Y-41371D01*
X55786Y-41354D01*
X55786Y-41319D01*
X55795Y-41302D01*
X55805Y-41294D01*
X55824Y-41285D01*
X55872Y-41285D01*
X55891Y-41294D01*
X55900Y-41302D01*
X55910Y-41319D01*
X55910Y-41354D01*
X55900Y-41371D01*
X55891Y-41379D01*
X55872Y-41388D01*
X43585Y-42253D02*
X43595Y-42244D01*
X43604Y-42219D01*
X43604Y-42202D01*
X43595Y-42176D01*
X43576Y-42159D01*
X43556Y-42150D01*
X43518Y-42142D01*
X43490Y-42142D01*
X43452Y-42150D01*
X43433Y-42159D01*
X43414Y-42176D01*
X43404Y-42202D01*
X43404Y-42219D01*
X43414Y-42244D01*
X43423Y-42253D01*
X43404Y-42313D02*
X43404Y-42433D01*
X43604Y-42356D01*
X52286Y-40238D02*
X52295Y-40230D01*
X52305Y-40204D01*
X52305Y-40187D01*
X52295Y-40161D01*
X52276Y-40144D01*
X52257Y-40135D01*
X52219Y-40127D01*
X52191Y-40127D01*
X52152Y-40135D01*
X52133Y-40144D01*
X52114Y-40161D01*
X52105Y-40187D01*
X52105Y-40204D01*
X52114Y-40230D01*
X52124Y-40238D01*
X52305Y-40410D02*
X52305Y-40307D01*
X52305Y-40358D02*
X52105Y-40358D01*
X52133Y-40341D01*
X52152Y-40324D01*
X52162Y-40307D01*
X52105Y-40470D02*
X52105Y-40590D01*
X52305Y-40512D01*
X49648Y-27797D02*
X49658Y-27789D01*
X49667Y-27763D01*
X49667Y-27746D01*
X49658Y-27720D01*
X49638Y-27703D01*
X49619Y-27694D01*
X49581Y-27686D01*
X49553Y-27686D01*
X49515Y-27694D01*
X49496Y-27703D01*
X49477Y-27720D01*
X49467Y-27746D01*
X49467Y-27763D01*
X49477Y-27789D01*
X49486Y-27797D01*
X49667Y-27969D02*
X49667Y-27866D01*
X49667Y-27917D02*
X49467Y-27917D01*
X49496Y-27900D01*
X49515Y-27883D01*
X49524Y-27866D01*
X49553Y-28071D02*
X49543Y-28054D01*
X49534Y-28046D01*
X49515Y-28037D01*
X49505Y-28037D01*
X49486Y-28046D01*
X49477Y-28054D01*
X49467Y-28071D01*
X49467Y-28106D01*
X49477Y-28123D01*
X49486Y-28131D01*
X49505Y-28140D01*
X49515Y-28140D01*
X49534Y-28131D01*
X49543Y-28123D01*
X49553Y-28106D01*
X49553Y-28071D01*
X49562Y-28054D01*
X49572Y-28046D01*
X49591Y-28037D01*
X49629Y-28037D01*
X49648Y-28046D01*
X49658Y-28054D01*
X49667Y-28071D01*
X49667Y-28106D01*
X49658Y-28123D01*
X49648Y-28131D01*
X49629Y-28140D01*
X49591Y-28140D01*
X49572Y-28131D01*
X49562Y-28123D01*
X49553Y-28106D01*
X50809Y-42541D02*
X50819Y-42533D01*
X50828Y-42507D01*
X50828Y-42490D01*
X50819Y-42464D01*
X50800Y-42447D01*
X50781Y-42438D01*
X50743Y-42430D01*
X50714Y-42430D01*
X50676Y-42438D01*
X50657Y-42447D01*
X50638Y-42464D01*
X50628Y-42490D01*
X50628Y-42507D01*
X50638Y-42533D01*
X50648Y-42541D01*
X50828Y-42713D02*
X50828Y-42610D01*
X50828Y-42661D02*
X50628Y-42661D01*
X50657Y-42644D01*
X50676Y-42627D01*
X50686Y-42610D01*
X50828Y-42798D02*
X50828Y-42833D01*
X50819Y-42850D01*
X50809Y-42858D01*
X50781Y-42876D01*
X50743Y-42884D01*
X50667Y-42884D01*
X50648Y-42876D01*
X50638Y-42867D01*
X50628Y-42850D01*
X50628Y-42816D01*
X50638Y-42798D01*
X50648Y-42790D01*
X50667Y-42781D01*
X50714Y-42781D01*
X50733Y-42790D01*
X50743Y-42798D01*
X50752Y-42816D01*
X50752Y-42850D01*
X50743Y-42867D01*
X50733Y-42876D01*
X50714Y-42884D01*
X52030Y-30691D02*
X52039Y-30682D01*
X52049Y-30657D01*
X52049Y-30639D01*
X52039Y-30614D01*
X52020Y-30597D01*
X52001Y-30588D01*
X51963Y-30579D01*
X51935Y-30579D01*
X51897Y-30588D01*
X51878Y-30597D01*
X51858Y-30614D01*
X51849Y-30639D01*
X51849Y-30657D01*
X51858Y-30682D01*
X51868Y-30691D01*
X51868Y-30759D02*
X51858Y-30768D01*
X51849Y-30785D01*
X51849Y-30828D01*
X51858Y-30845D01*
X51868Y-30854D01*
X51887Y-30862D01*
X51906Y-30862D01*
X51935Y-30854D01*
X52049Y-30751D01*
X52049Y-30862D01*
X51849Y-31025D02*
X51849Y-30939D01*
X51944Y-30931D01*
X51935Y-30939D01*
X51925Y-30957D01*
X51925Y-30999D01*
X51935Y-31017D01*
X51944Y-31025D01*
X51963Y-31034D01*
X52011Y-31034D01*
X52030Y-31025D01*
X52039Y-31017D01*
X52049Y-30999D01*
X52049Y-30957D01*
X52039Y-30939D01*
X52030Y-30931D01*
X51400Y-31301D02*
X51410Y-31293D01*
X51419Y-31267D01*
X51419Y-31250D01*
X51410Y-31224D01*
X51390Y-31207D01*
X51371Y-31198D01*
X51333Y-31190D01*
X51305Y-31190D01*
X51267Y-31198D01*
X51248Y-31207D01*
X51229Y-31224D01*
X51219Y-31250D01*
X51219Y-31267D01*
X51229Y-31293D01*
X51238Y-31301D01*
X51238Y-31370D02*
X51229Y-31378D01*
X51219Y-31395D01*
X51219Y-31438D01*
X51229Y-31455D01*
X51238Y-31464D01*
X51257Y-31473D01*
X51276Y-31473D01*
X51305Y-31464D01*
X51419Y-31361D01*
X51419Y-31473D01*
X51305Y-31575D02*
X51295Y-31558D01*
X51286Y-31550D01*
X51267Y-31541D01*
X51257Y-31541D01*
X51238Y-31550D01*
X51229Y-31558D01*
X51219Y-31575D01*
X51219Y-31610D01*
X51229Y-31627D01*
X51238Y-31635D01*
X51257Y-31644D01*
X51267Y-31644D01*
X51286Y-31635D01*
X51295Y-31627D01*
X51305Y-31610D01*
X51305Y-31575D01*
X51314Y-31558D01*
X51324Y-31550D01*
X51343Y-31541D01*
X51381Y-31541D01*
X51400Y-31550D01*
X51410Y-31558D01*
X51419Y-31575D01*
X51419Y-31610D01*
X51410Y-31627D01*
X51400Y-31635D01*
X51381Y-31644D01*
X51343Y-31644D01*
X51324Y-31635D01*
X51314Y-31627D01*
X51305Y-31610D01*
X52109Y-27344D02*
X52118Y-27336D01*
X52128Y-27310D01*
X52128Y-27293D01*
X52118Y-27267D01*
X52099Y-27250D01*
X52080Y-27242D01*
X52042Y-27233D01*
X52013Y-27233D01*
X51975Y-27242D01*
X51956Y-27250D01*
X51937Y-27267D01*
X51928Y-27293D01*
X51928Y-27310D01*
X51937Y-27336D01*
X51947Y-27344D01*
X51947Y-27413D02*
X51937Y-27422D01*
X51928Y-27439D01*
X51928Y-27482D01*
X51937Y-27499D01*
X51947Y-27507D01*
X51966Y-27516D01*
X51985Y-27516D01*
X52013Y-27507D01*
X52128Y-27404D01*
X52128Y-27516D01*
X51928Y-27576D02*
X51928Y-27696D01*
X52128Y-27619D01*
X51085Y-27344D02*
X51095Y-27336D01*
X51104Y-27310D01*
X51104Y-27293D01*
X51095Y-27267D01*
X51076Y-27250D01*
X51056Y-27242D01*
X51018Y-27233D01*
X50990Y-27233D01*
X50952Y-27242D01*
X50933Y-27250D01*
X50914Y-27267D01*
X50904Y-27293D01*
X50904Y-27310D01*
X50914Y-27336D01*
X50923Y-27344D01*
X50923Y-27413D02*
X50914Y-27422D01*
X50904Y-27439D01*
X50904Y-27482D01*
X50914Y-27499D01*
X50923Y-27507D01*
X50942Y-27516D01*
X50961Y-27516D01*
X50990Y-27507D01*
X51104Y-27404D01*
X51104Y-27516D01*
X50904Y-27576D02*
X50904Y-27687D01*
X50980Y-27627D01*
X50980Y-27653D01*
X50990Y-27670D01*
X50999Y-27679D01*
X51018Y-27687D01*
X51066Y-27687D01*
X51085Y-27679D01*
X51095Y-27670D01*
X51104Y-27653D01*
X51104Y-27602D01*
X51095Y-27584D01*
X51085Y-27576D01*
X52483Y-31281D02*
X52492Y-31273D01*
X52502Y-31247D01*
X52502Y-31230D01*
X52492Y-31204D01*
X52473Y-31187D01*
X52454Y-31179D01*
X52416Y-31170D01*
X52387Y-31170D01*
X52349Y-31179D01*
X52330Y-31187D01*
X52311Y-31204D01*
X52302Y-31230D01*
X52302Y-31247D01*
X52311Y-31273D01*
X52321Y-31281D01*
X52321Y-31350D02*
X52311Y-31359D01*
X52302Y-31376D01*
X52302Y-31419D01*
X52311Y-31436D01*
X52321Y-31444D01*
X52340Y-31453D01*
X52359Y-31453D01*
X52387Y-31444D01*
X52502Y-31341D01*
X52502Y-31453D01*
X52302Y-31564D02*
X52302Y-31581D01*
X52311Y-31599D01*
X52321Y-31607D01*
X52340Y-31616D01*
X52378Y-31624D01*
X52426Y-31624D01*
X52464Y-31616D01*
X52483Y-31607D01*
X52492Y-31599D01*
X52502Y-31581D01*
X52502Y-31564D01*
X52492Y-31547D01*
X52483Y-31539D01*
X52464Y-31530D01*
X52426Y-31521D01*
X52378Y-31521D01*
X52340Y-31530D01*
X52321Y-31539D01*
X52311Y-31547D01*
X52302Y-31564D01*
X53225Y-45593D02*
X53234Y-45602D01*
X53260Y-45612D01*
X53277Y-45612D01*
X53303Y-45602D01*
X53320Y-45583D01*
X53328Y-45564D01*
X53337Y-45526D01*
X53337Y-45498D01*
X53328Y-45460D01*
X53320Y-45441D01*
X53303Y-45421D01*
X53277Y-45412D01*
X53260Y-45412D01*
X53234Y-45421D01*
X53225Y-45431D01*
X53157Y-45431D02*
X53148Y-45421D01*
X53131Y-45412D01*
X53088Y-45412D01*
X53071Y-45421D01*
X53063Y-45431D01*
X53054Y-45450D01*
X53054Y-45469D01*
X53063Y-45498D01*
X53165Y-45612D01*
X53054Y-45612D01*
X52883Y-45612D02*
X52985Y-45612D01*
X52934Y-45612D02*
X52934Y-45412D01*
X52951Y-45441D01*
X52968Y-45460D01*
X52985Y-45469D01*
X51006Y-43604D02*
X51016Y-43596D01*
X51025Y-43570D01*
X51025Y-43553D01*
X51016Y-43527D01*
X50997Y-43510D01*
X50978Y-43501D01*
X50940Y-43493D01*
X50911Y-43493D01*
X50873Y-43501D01*
X50854Y-43510D01*
X50835Y-43527D01*
X50825Y-43553D01*
X50825Y-43570D01*
X50835Y-43596D01*
X50844Y-43604D01*
X51025Y-43776D02*
X51025Y-43673D01*
X51025Y-43724D02*
X50825Y-43724D01*
X50854Y-43707D01*
X50873Y-43690D01*
X50882Y-43673D01*
X50825Y-43939D02*
X50825Y-43853D01*
X50921Y-43844D01*
X50911Y-43853D01*
X50902Y-43870D01*
X50902Y-43913D01*
X50911Y-43930D01*
X50921Y-43939D01*
X50940Y-43947D01*
X50987Y-43947D01*
X51006Y-43939D01*
X51016Y-43930D01*
X51025Y-43913D01*
X51025Y-43870D01*
X51016Y-43853D01*
X51006Y-43844D01*
X56592Y-32365D02*
X56600Y-32374D01*
X56626Y-32384D01*
X56643Y-32384D01*
X56669Y-32374D01*
X56686Y-32355D01*
X56694Y-32336D01*
X56703Y-32298D01*
X56703Y-32269D01*
X56694Y-32231D01*
X56686Y-32212D01*
X56669Y-32193D01*
X56643Y-32184D01*
X56626Y-32184D01*
X56600Y-32193D01*
X56592Y-32203D01*
X56420Y-32384D02*
X56523Y-32384D01*
X56472Y-32384D02*
X56472Y-32184D01*
X56489Y-32212D01*
X56506Y-32231D01*
X56523Y-32241D01*
X56309Y-32184D02*
X56292Y-32184D01*
X56274Y-32193D01*
X56266Y-32203D01*
X56257Y-32222D01*
X56249Y-32260D01*
X56249Y-32307D01*
X56257Y-32346D01*
X56266Y-32365D01*
X56274Y-32374D01*
X56292Y-32384D01*
X56309Y-32384D01*
X56326Y-32374D01*
X56334Y-32365D01*
X56343Y-32346D01*
X56352Y-32307D01*
X56352Y-32260D01*
X56343Y-32222D01*
X56334Y-32203D01*
X56326Y-32193D01*
X56309Y-32184D01*
X58270Y-32430D02*
X58280Y-32422D01*
X58289Y-32396D01*
X58289Y-32379D01*
X58280Y-32353D01*
X58261Y-32336D01*
X58241Y-32327D01*
X58203Y-32319D01*
X58175Y-32319D01*
X58137Y-32327D01*
X58118Y-32336D01*
X58099Y-32353D01*
X58089Y-32379D01*
X58089Y-32396D01*
X58099Y-32422D01*
X58108Y-32430D01*
X58089Y-32593D02*
X58089Y-32507D01*
X58184Y-32499D01*
X58175Y-32507D01*
X58165Y-32524D01*
X58165Y-32567D01*
X58175Y-32584D01*
X58184Y-32593D01*
X58203Y-32602D01*
X58251Y-32602D01*
X58270Y-32593D01*
X58280Y-32584D01*
X58289Y-32567D01*
X58289Y-32524D01*
X58280Y-32507D01*
X58270Y-32499D01*
X55672Y-32430D02*
X55681Y-32422D01*
X55691Y-32396D01*
X55691Y-32379D01*
X55681Y-32353D01*
X55662Y-32336D01*
X55643Y-32327D01*
X55605Y-32319D01*
X55576Y-32319D01*
X55538Y-32327D01*
X55519Y-32336D01*
X55500Y-32353D01*
X55491Y-32379D01*
X55491Y-32396D01*
X55500Y-32422D01*
X55510Y-32430D01*
X55510Y-32499D02*
X55500Y-32507D01*
X55491Y-32524D01*
X55491Y-32567D01*
X55500Y-32584D01*
X55510Y-32593D01*
X55529Y-32602D01*
X55548Y-32602D01*
X55576Y-32593D01*
X55691Y-32490D01*
X55691Y-32602D01*
X49451Y-38670D02*
X49461Y-38662D01*
X49470Y-38636D01*
X49470Y-38619D01*
X49461Y-38593D01*
X49442Y-38576D01*
X49423Y-38567D01*
X49385Y-38559D01*
X49356Y-38559D01*
X49318Y-38567D01*
X49299Y-38576D01*
X49280Y-38593D01*
X49270Y-38619D01*
X49270Y-38636D01*
X49280Y-38662D01*
X49289Y-38670D01*
X49356Y-38773D02*
X49346Y-38756D01*
X49337Y-38747D01*
X49318Y-38739D01*
X49308Y-38739D01*
X49289Y-38747D01*
X49280Y-38756D01*
X49270Y-38773D01*
X49270Y-38807D01*
X49280Y-38825D01*
X49289Y-38833D01*
X49308Y-38842D01*
X49318Y-38842D01*
X49337Y-38833D01*
X49346Y-38825D01*
X49356Y-38807D01*
X49356Y-38773D01*
X49365Y-38756D01*
X49375Y-38747D01*
X49394Y-38739D01*
X49432Y-38739D01*
X49451Y-38747D01*
X49461Y-38756D01*
X49470Y-38773D01*
X49470Y-38807D01*
X49461Y-38825D01*
X49451Y-38833D01*
X49432Y-38842D01*
X49394Y-38842D01*
X49375Y-38833D01*
X49365Y-38825D01*
X49356Y-38807D01*
X55593Y-31407D02*
X55602Y-31398D01*
X55612Y-31372D01*
X55612Y-31355D01*
X55602Y-31329D01*
X55583Y-31312D01*
X55564Y-31304D01*
X55526Y-31295D01*
X55498Y-31295D01*
X55460Y-31304D01*
X55441Y-31312D01*
X55421Y-31329D01*
X55412Y-31355D01*
X55412Y-31372D01*
X55421Y-31398D01*
X55431Y-31407D01*
X55479Y-31561D02*
X55612Y-31561D01*
X55402Y-31518D02*
X55545Y-31475D01*
X55545Y-31587D01*
X52615Y-45593D02*
X52624Y-45602D01*
X52650Y-45612D01*
X52667Y-45612D01*
X52692Y-45602D01*
X52710Y-45583D01*
X52718Y-45564D01*
X52727Y-45526D01*
X52727Y-45498D01*
X52718Y-45460D01*
X52710Y-45441D01*
X52692Y-45421D01*
X52667Y-45412D01*
X52650Y-45412D01*
X52624Y-45421D01*
X52615Y-45431D01*
X52444Y-45612D02*
X52547Y-45612D01*
X52495Y-45612D02*
X52495Y-45412D01*
X52512Y-45441D01*
X52530Y-45460D01*
X52547Y-45469D01*
X52290Y-45479D02*
X52290Y-45612D01*
X52332Y-45402D02*
X52375Y-45545D01*
X52264Y-45545D01*
X50809Y-41931D02*
X50819Y-41922D01*
X50828Y-41897D01*
X50828Y-41880D01*
X50819Y-41854D01*
X50800Y-41837D01*
X50781Y-41828D01*
X50743Y-41820D01*
X50714Y-41820D01*
X50676Y-41828D01*
X50657Y-41837D01*
X50638Y-41854D01*
X50628Y-41880D01*
X50628Y-41897D01*
X50638Y-41922D01*
X50648Y-41931D01*
X50828Y-42102D02*
X50828Y-42000D01*
X50828Y-42051D02*
X50628Y-42051D01*
X50657Y-42034D01*
X50676Y-42017D01*
X50686Y-42000D01*
X50628Y-42257D02*
X50628Y-42222D01*
X50638Y-42205D01*
X50648Y-42197D01*
X50676Y-42180D01*
X50714Y-42171D01*
X50790Y-42171D01*
X50809Y-42180D01*
X50819Y-42188D01*
X50828Y-42205D01*
X50828Y-42240D01*
X50819Y-42257D01*
X50809Y-42265D01*
X50790Y-42274D01*
X50743Y-42274D01*
X50724Y-42265D01*
X50714Y-42257D01*
X50705Y-42240D01*
X50705Y-42205D01*
X50714Y-42188D01*
X50724Y-42180D01*
X50743Y-42171D01*
X45942Y-35947D02*
X45951Y-35957D01*
X45976Y-35966D01*
X45993Y-35966D01*
X46019Y-35957D01*
X46036Y-35938D01*
X46045Y-35919D01*
X46053Y-35881D01*
X46053Y-35852D01*
X46045Y-35814D01*
X46036Y-35795D01*
X46019Y-35776D01*
X45993Y-35766D01*
X45976Y-35766D01*
X45951Y-35776D01*
X45942Y-35785D01*
X45873Y-35785D02*
X45865Y-35776D01*
X45848Y-35766D01*
X45805Y-35766D01*
X45788Y-35776D01*
X45779Y-35785D01*
X45771Y-35804D01*
X45771Y-35823D01*
X45779Y-35852D01*
X45882Y-35966D01*
X45771Y-35966D01*
X45702Y-35785D02*
X45693Y-35776D01*
X45676Y-35766D01*
X45633Y-35766D01*
X45616Y-35776D01*
X45608Y-35785D01*
X45599Y-35804D01*
X45599Y-35823D01*
X45608Y-35852D01*
X45711Y-35966D01*
X45599Y-35966D01*
X55096Y-39274D02*
X55104Y-39284D01*
X55130Y-39293D01*
X55147Y-39293D01*
X55173Y-39284D01*
X55190Y-39264D01*
X55198Y-39245D01*
X55207Y-39207D01*
X55207Y-39179D01*
X55198Y-39141D01*
X55190Y-39122D01*
X55173Y-39103D01*
X55147Y-39093D01*
X55130Y-39093D01*
X55104Y-39103D01*
X55096Y-39112D01*
X55027Y-39112D02*
X55018Y-39103D01*
X55001Y-39093D01*
X54958Y-39093D01*
X54941Y-39103D01*
X54933Y-39112D01*
X54924Y-39131D01*
X54924Y-39150D01*
X54933Y-39179D01*
X55036Y-39293D01*
X54924Y-39293D01*
X54770Y-39093D02*
X54804Y-39093D01*
X54821Y-39103D01*
X54830Y-39112D01*
X54847Y-39141D01*
X54856Y-39179D01*
X54856Y-39255D01*
X54847Y-39274D01*
X54838Y-39284D01*
X54821Y-39293D01*
X54787Y-39293D01*
X54770Y-39284D01*
X54761Y-39274D01*
X54753Y-39255D01*
X54753Y-39207D01*
X54761Y-39188D01*
X54770Y-39179D01*
X54787Y-39169D01*
X54821Y-39169D01*
X54838Y-39179D01*
X54847Y-39188D01*
X54856Y-39207D01*
X53802Y-38053D02*
X53811Y-38045D01*
X53821Y-38019D01*
X53821Y-38002D01*
X53811Y-37976D01*
X53792Y-37959D01*
X53773Y-37950D01*
X53735Y-37942D01*
X53706Y-37942D01*
X53668Y-37950D01*
X53649Y-37959D01*
X53630Y-37976D01*
X53621Y-38002D01*
X53621Y-38019D01*
X53630Y-38045D01*
X53640Y-38053D01*
X53640Y-38122D02*
X53630Y-38130D01*
X53621Y-38147D01*
X53621Y-38190D01*
X53630Y-38207D01*
X53640Y-38216D01*
X53659Y-38225D01*
X53678Y-38225D01*
X53706Y-38216D01*
X53821Y-38113D01*
X53821Y-38225D01*
X53687Y-38379D02*
X53821Y-38379D01*
X53611Y-38336D02*
X53754Y-38293D01*
X53754Y-38405D01*
X48014Y-42167D02*
X48024Y-42159D01*
X48033Y-42133D01*
X48033Y-42116D01*
X48024Y-42090D01*
X48005Y-42073D01*
X47986Y-42064D01*
X47947Y-42056D01*
X47919Y-42056D01*
X47881Y-42064D01*
X47862Y-42073D01*
X47843Y-42090D01*
X47833Y-42116D01*
X47833Y-42133D01*
X47843Y-42159D01*
X47852Y-42167D01*
X48033Y-42339D02*
X48033Y-42236D01*
X48033Y-42287D02*
X47833Y-42287D01*
X47862Y-42270D01*
X47881Y-42253D01*
X47890Y-42236D01*
X48033Y-42510D02*
X48033Y-42407D01*
X48033Y-42459D02*
X47833Y-42459D01*
X47862Y-42442D01*
X47881Y-42424D01*
X47890Y-42407D01*
G54D10*
X54273Y-36076D02*
X54086Y-35944D01*
X54273Y-35851D02*
X53879Y-35851D01*
X53879Y-36001D01*
X53898Y-36038D01*
X53917Y-36057D01*
X53954Y-36076D01*
X54011Y-36076D01*
X54048Y-36057D01*
X54067Y-36038D01*
X54086Y-36001D01*
X54086Y-35851D01*
X53879Y-36413D02*
X53879Y-36338D01*
X53898Y-36301D01*
X53917Y-36282D01*
X53973Y-36244D01*
X54048Y-36226D01*
X54198Y-36226D01*
X54236Y-36244D01*
X54254Y-36263D01*
X54273Y-36301D01*
X54273Y-36376D01*
X54254Y-36413D01*
X54236Y-36432D01*
X54198Y-36451D01*
X54104Y-36451D01*
X54067Y-36432D01*
X54048Y-36413D01*
X54029Y-36376D01*
X54029Y-36301D01*
X54048Y-36263D01*
X54067Y-36244D01*
X54104Y-36226D01*
X53820Y-36076D02*
X53633Y-35944D01*
X53820Y-35851D02*
X53427Y-35851D01*
X53427Y-36001D01*
X53445Y-36038D01*
X53464Y-36057D01*
X53502Y-36076D01*
X53558Y-36076D01*
X53595Y-36057D01*
X53614Y-36038D01*
X53633Y-36001D01*
X53633Y-35851D01*
X53427Y-36207D02*
X53427Y-36469D01*
X53820Y-36301D01*
X54040Y-40513D02*
X54040Y-40832D01*
X54021Y-40869D01*
X54002Y-40888D01*
X53965Y-40907D01*
X53890Y-40907D01*
X53852Y-40888D01*
X53833Y-40869D01*
X53815Y-40832D01*
X53815Y-40513D01*
X53458Y-40644D02*
X53458Y-40907D01*
X53552Y-40494D02*
X53646Y-40776D01*
X53402Y-40776D01*
G54D17*
X47587Y-45484D02*
X47616Y-45470D01*
X47644Y-45441D01*
X47687Y-45398D01*
X47716Y-45384D01*
X47744Y-45384D01*
X47730Y-45456D02*
X47759Y-45441D01*
X47787Y-45413D01*
X47801Y-45356D01*
X47801Y-45256D01*
X47787Y-45198D01*
X47759Y-45170D01*
X47730Y-45156D01*
X47673Y-45156D01*
X47644Y-45170D01*
X47616Y-45198D01*
X47601Y-45256D01*
X47601Y-45356D01*
X47616Y-45413D01*
X47644Y-45441D01*
X47673Y-45456D01*
X47730Y-45456D01*
X47344Y-45256D02*
X47344Y-45456D01*
X47416Y-45141D02*
X47487Y-45356D01*
X47301Y-45356D01*
G54D10*
X59402Y-29482D02*
X59402Y-29800D01*
X59383Y-29838D01*
X59364Y-29857D01*
X59327Y-29875D01*
X59252Y-29875D01*
X59214Y-29857D01*
X59196Y-29838D01*
X59177Y-29800D01*
X59177Y-29482D01*
X58783Y-29875D02*
X59008Y-29875D01*
X58896Y-29875D02*
X58896Y-29482D01*
X58933Y-29538D01*
X58971Y-29575D01*
X59008Y-29594D01*
X56826Y-51525D02*
X56826Y-51210D01*
X56706Y-51210D01*
X56676Y-51225D01*
X56661Y-51240D01*
X56646Y-51270D01*
X56646Y-51315D01*
X56661Y-51345D01*
X56676Y-51360D01*
X56706Y-51375D01*
X56826Y-51375D01*
X56347Y-51525D02*
X56526Y-51525D01*
X56437Y-51525D02*
X56437Y-51210D01*
X56467Y-51255D01*
X56497Y-51285D01*
X56526Y-51300D01*
X60389Y-32135D02*
X60389Y-31820D01*
X60269Y-31820D01*
X60239Y-31835D01*
X60224Y-31850D01*
X60209Y-31880D01*
X60209Y-31925D01*
X60224Y-31955D01*
X60239Y-31970D01*
X60269Y-31985D01*
X60389Y-31985D01*
X60104Y-31820D02*
X59910Y-31820D01*
X60014Y-31940D01*
X59970Y-31940D01*
X59940Y-31955D01*
X59925Y-31970D01*
X59910Y-32000D01*
X59910Y-32075D01*
X59925Y-32105D01*
X59940Y-32120D01*
X59970Y-32135D01*
X60059Y-32135D01*
X60089Y-32120D01*
X60104Y-32105D01*
X49878Y-51525D02*
X49878Y-51210D01*
X49758Y-51210D01*
X49728Y-51225D01*
X49713Y-51240D01*
X49698Y-51270D01*
X49698Y-51315D01*
X49713Y-51345D01*
X49728Y-51360D01*
X49758Y-51375D01*
X49878Y-51375D01*
X49578Y-51240D02*
X49563Y-51225D01*
X49533Y-51210D01*
X49458Y-51210D01*
X49428Y-51225D01*
X49413Y-51240D01*
X49398Y-51270D01*
X49398Y-51300D01*
X49413Y-51345D01*
X49593Y-51525D01*
X49398Y-51525D01*
X51334Y-35170D02*
X51334Y-34855D01*
X51214Y-34855D01*
X51184Y-34870D01*
X51169Y-34885D01*
X51154Y-34915D01*
X51154Y-34960D01*
X51169Y-34990D01*
X51184Y-35005D01*
X51214Y-35020D01*
X51334Y-35020D01*
X50884Y-34960D02*
X50884Y-35170D01*
X50959Y-34840D02*
X51034Y-35065D01*
X50839Y-35065D01*
M02*
