G04 #@! TF.FileFunction,Copper,L1,Top,Signal*
%FSLAX46Y46*%
G04 Gerber Fmt 4.6, Leading zero omitted, Abs format (unit mm)*
G04 Created by KiCad (PCBNEW 4.0.4-stable) date 11/24/16 22:43:10*
%MOMM*%
%LPD*%
G01*
G04 APERTURE LIST*
%ADD10C,0.100000*%
%ADD11O,1.150000X1.400000*%
%ADD12R,1.700000X1.700000*%
%ADD13R,1.200000X1.000000*%
%ADD14R,2.200000X2.200000*%
%ADD15C,2.200000*%
%ADD16O,1.500000X2.500000*%
%ADD17R,2.200000X1.350000*%
%ADD18C,2.800000*%
%ADD19R,1.300000X2.000000*%
%ADD20C,0.700000*%
%ADD21C,0.500000*%
%ADD22C,0.300000*%
%ADD23C,0.200000*%
%ADD24C,0.700000*%
%ADD25C,0.190000*%
G04 APERTURE END LIST*
D10*
D11*
X104050000Y-86250000D03*
X104050000Y-81250000D03*
D12*
X101350000Y-86950000D03*
X101350000Y-80550000D03*
D13*
X159000000Y-83750000D03*
X159000000Y-85500000D03*
X159000000Y-87250000D03*
X159000000Y-82000000D03*
X159000000Y-80250000D03*
X159000000Y-78500000D03*
D14*
X161200000Y-76850000D03*
X161200000Y-89250000D03*
D15*
X163700000Y-88050000D03*
X163700000Y-78550000D03*
D16*
X173700000Y-83750000D03*
D17*
X168400000Y-98325000D03*
X168400000Y-96275000D03*
X168400000Y-71225000D03*
X168400000Y-69175000D03*
D18*
X149700000Y-71650000D03*
X105200000Y-91970000D03*
D19*
X135680000Y-94060000D03*
X133140000Y-94060000D03*
X130600000Y-94060000D03*
X128060000Y-94060000D03*
X135680000Y-69560000D03*
X133140000Y-69560000D03*
X130600000Y-69560000D03*
X128060000Y-69560000D03*
X122980000Y-87260000D03*
X120440000Y-87260000D03*
D20*
X151000000Y-79650000D03*
X151000000Y-76550000D03*
X141500000Y-74800000D03*
X107000000Y-88700000D03*
X165900000Y-75000000D03*
X165900000Y-70400000D03*
X166400000Y-94500000D03*
X166400000Y-99200000D03*
X113250000Y-74050000D03*
X121700000Y-68500000D03*
X123500000Y-69700000D03*
X144900000Y-75000000D03*
X143550000Y-75000000D03*
X136500000Y-85900000D03*
X121000000Y-75850000D03*
X110700000Y-89700000D03*
X142550000Y-88350000D03*
X151750000Y-82450000D03*
X153500000Y-77900000D03*
X106650000Y-74450000D03*
X124500000Y-73200000D03*
X122500000Y-73200000D03*
X126000000Y-71700000D03*
X128000000Y-71700000D03*
X130500000Y-71700000D03*
X132950000Y-71700000D03*
X124400000Y-69700000D03*
X117700000Y-69500000D03*
X108100000Y-81600000D03*
X115400000Y-76900000D03*
X143400000Y-73400000D03*
X154500000Y-74050000D03*
X154700000Y-70000000D03*
X154700000Y-68700000D03*
X151050000Y-68500000D03*
X134250000Y-71700000D03*
X145500000Y-69700000D03*
X144500000Y-69700000D03*
X143200000Y-69700000D03*
X142200000Y-69700000D03*
X140600000Y-72300000D03*
X140600000Y-70600000D03*
X139700000Y-69300000D03*
X139700000Y-68400000D03*
X120200000Y-97900000D03*
X123600000Y-93500000D03*
X121700000Y-87300000D03*
X114300000Y-85200000D03*
X118500000Y-85200000D03*
X114300000Y-81000000D03*
X116400000Y-83100000D03*
X118500000Y-81000000D03*
X110300000Y-76600000D03*
X142900000Y-82350000D03*
X119900000Y-73150000D03*
X120400000Y-79300000D03*
X136500000Y-83900000D03*
X136500000Y-82300000D03*
X111900000Y-89700000D03*
X107100000Y-83900000D03*
X145450000Y-80450000D03*
X144950000Y-78650000D03*
X132500000Y-76350000D03*
X127250000Y-76400000D03*
X109900000Y-80900000D03*
X137150000Y-87500000D03*
X132400000Y-87500000D03*
X133400000Y-77300000D03*
X115900000Y-91200000D03*
X122250000Y-80800000D03*
X119000000Y-88100000D03*
X111550000Y-86000000D03*
X111700000Y-82300000D03*
X114500000Y-77200000D03*
X112000000Y-79300000D03*
X134500000Y-94600000D03*
X126900000Y-94600000D03*
X119800000Y-69400000D03*
X124600000Y-93450000D03*
X125600000Y-86600000D03*
X131050000Y-74900000D03*
X132500000Y-74900000D03*
X131800000Y-80000000D03*
X131800000Y-82700000D03*
X105400000Y-88500000D03*
X105400000Y-81500000D03*
X130700000Y-96200000D03*
X136550000Y-81100000D03*
X136350000Y-76550000D03*
X135300000Y-81100000D03*
X132900000Y-81100000D03*
X129400000Y-80500000D03*
X129400000Y-85100000D03*
X130200000Y-80000000D03*
X130200000Y-84300000D03*
X131000000Y-80500000D03*
X131000000Y-83500000D03*
X138400000Y-85500000D03*
X132400000Y-85900000D03*
X133200000Y-92400000D03*
X122400000Y-69600000D03*
X122100000Y-85600000D03*
X160500000Y-83750000D03*
X124900000Y-88950000D03*
X154700000Y-81000000D03*
X123100000Y-85600000D03*
X152800000Y-85050000D03*
X151900000Y-85950000D03*
X154650000Y-86000000D03*
X113300000Y-88100000D03*
X112900000Y-86500000D03*
X124000000Y-85600000D03*
X123900000Y-88900000D03*
X157700000Y-87250000D03*
X161300000Y-78800000D03*
X137400000Y-81850000D03*
X137400000Y-76600000D03*
X131900000Y-86700000D03*
X137400000Y-85500000D03*
X133400000Y-76350000D03*
X126500000Y-75750000D03*
X127500000Y-79600000D03*
X127500000Y-81100000D03*
D21*
X151000000Y-79650000D02*
X151000000Y-76550000D01*
D22*
X121700000Y-68500000D02*
X121400000Y-68800000D01*
X123500000Y-70000000D02*
X123500000Y-69700000D01*
X123150000Y-70350000D02*
X123500000Y-70000000D01*
X121850000Y-70350000D02*
X123150000Y-70350000D01*
X121400000Y-69900000D02*
X121850000Y-70350000D01*
X121400000Y-68800000D02*
X121400000Y-69900000D01*
D23*
X114300000Y-85200000D02*
X113000000Y-85200000D01*
X110700000Y-87950000D02*
X110700000Y-89700000D01*
X112250000Y-86400000D02*
X110700000Y-87950000D01*
X112250000Y-85950000D02*
X112250000Y-86400000D01*
X113000000Y-85200000D02*
X112250000Y-85950000D01*
D22*
X115400000Y-76900000D02*
X115000000Y-76500000D01*
X108700000Y-82200000D02*
X108100000Y-81600000D01*
X110200000Y-82200000D02*
X108700000Y-82200000D01*
X110900000Y-81500000D02*
X110200000Y-82200000D01*
X110900000Y-79300000D02*
X110900000Y-81500000D01*
X113700000Y-76500000D02*
X110900000Y-79300000D01*
X115000000Y-76500000D02*
X113700000Y-76500000D01*
X121700000Y-87300000D02*
X120490000Y-87300000D01*
X116400000Y-83100000D02*
X114300000Y-85200000D01*
X116400000Y-83100000D02*
X118500000Y-85200000D01*
X116400000Y-83100000D02*
X114300000Y-81000000D01*
X116400000Y-83100000D02*
X118500000Y-81000000D01*
X145450000Y-79150000D02*
X144950000Y-78650000D01*
X145450000Y-80450000D02*
X145450000Y-79150000D01*
X132250000Y-76600000D02*
X132500000Y-76350000D01*
X127250000Y-76600000D02*
X132250000Y-76600000D01*
X127250000Y-76400000D02*
X127250000Y-76600000D01*
X127250000Y-76600000D02*
X116100000Y-76600000D01*
X115450000Y-75950000D02*
X113450000Y-75950000D01*
X113450000Y-75950000D02*
X109900000Y-79500000D01*
X109900000Y-79500000D02*
X109900000Y-80900000D01*
X116100000Y-76600000D02*
X115450000Y-75950000D01*
X137150000Y-87500000D02*
X132400000Y-87500000D01*
D24*
X122250000Y-77300000D02*
X133400000Y-77300000D01*
D21*
X119000000Y-88100000D02*
X115900000Y-91200000D01*
X122250000Y-77300000D02*
X122250000Y-80800000D01*
D24*
X114500000Y-77200000D02*
X114500000Y-77300000D01*
X116600000Y-77300000D02*
X122250000Y-77300000D01*
X116100000Y-77800000D02*
X116600000Y-77300000D01*
X115000000Y-77800000D02*
X116100000Y-77800000D01*
X114500000Y-77300000D02*
X115000000Y-77800000D01*
X114500000Y-77200000D02*
X114100000Y-77200000D01*
X114100000Y-77200000D02*
X112000000Y-79300000D01*
D21*
X111700000Y-82300000D02*
X111550000Y-82450000D01*
D24*
X111550000Y-82450000D02*
X111550000Y-86000000D01*
X112000000Y-79300000D02*
X112000000Y-82000000D01*
X112000000Y-82000000D02*
X111700000Y-82300000D01*
D21*
X134530000Y-94630000D02*
X135730000Y-94630000D01*
X134500000Y-94600000D02*
X134530000Y-94630000D01*
X126930000Y-94630000D02*
X128110000Y-94630000D01*
X126900000Y-94600000D02*
X126930000Y-94630000D01*
D22*
X119800000Y-69400000D02*
X121350000Y-70950000D01*
X129090000Y-70950000D02*
X131050000Y-68990000D01*
X121350000Y-70950000D02*
X129090000Y-70950000D01*
X131050000Y-68990000D02*
X130710000Y-68990000D01*
X125600000Y-89650000D02*
X125600000Y-86600000D01*
X124600000Y-90650000D02*
X125600000Y-89650000D01*
X124600000Y-93450000D02*
X124600000Y-90650000D01*
X131050000Y-74900000D02*
X132500000Y-74900000D01*
X131800000Y-80000000D02*
X131800000Y-82700000D01*
X105400000Y-86600000D02*
X105400000Y-88500000D01*
X105400000Y-81500000D02*
X105400000Y-86600000D01*
X130650000Y-96150000D02*
X130650000Y-94630000D01*
X130700000Y-96200000D02*
X130650000Y-96150000D01*
X136550000Y-76750000D02*
X136350000Y-76550000D01*
X136550000Y-76750000D02*
X136550000Y-81100000D01*
X132900000Y-81100000D02*
X135300000Y-81100000D01*
X129400000Y-80500000D02*
X129400000Y-85100000D01*
X130200000Y-80000000D02*
X130200000Y-84300000D01*
X131000000Y-80500000D02*
X131000000Y-83500000D01*
X135900000Y-84650000D02*
X134650000Y-85900000D01*
X137550000Y-84650000D02*
X135900000Y-84650000D01*
X138400000Y-85500000D02*
X137550000Y-84650000D01*
X132400000Y-85900000D02*
X134650000Y-85900000D01*
X133190000Y-92410000D02*
X133190000Y-94630000D01*
X133200000Y-92400000D02*
X133190000Y-92410000D01*
X128060000Y-68990000D02*
X123010000Y-68990000D01*
X123010000Y-68990000D02*
X122400000Y-69600000D01*
X128060000Y-68990000D02*
X128060000Y-69740000D01*
X122100000Y-85600000D02*
X122100000Y-85900000D01*
X122100000Y-85900000D02*
X123030000Y-86830000D01*
X123030000Y-86830000D02*
X123030000Y-87300000D01*
X123030000Y-86530000D02*
X123030000Y-87300000D01*
X159000000Y-85500000D02*
X160500000Y-84000000D01*
X160500000Y-84000000D02*
X160500000Y-83750000D01*
X160500000Y-83500000D02*
X159000000Y-82000000D01*
X160500000Y-83750000D02*
X160500000Y-83500000D01*
X124900000Y-87350000D02*
X124900000Y-88950000D01*
X152800000Y-82900000D02*
X152800000Y-85050000D01*
X154700000Y-81000000D02*
X152800000Y-82900000D01*
X123100000Y-85600000D02*
X123100000Y-85450000D01*
X123700000Y-84850000D02*
X124350000Y-84850000D01*
X123100000Y-85450000D02*
X123700000Y-84850000D01*
X124900000Y-85400000D02*
X124900000Y-87350000D01*
X124350000Y-84850000D02*
X124900000Y-85400000D01*
X151900000Y-85950000D02*
X151950000Y-86000000D01*
X151950000Y-86000000D02*
X154650000Y-86000000D01*
X112900000Y-87700000D02*
X113300000Y-88100000D01*
X112900000Y-86500000D02*
X112900000Y-87700000D01*
X124150000Y-86600000D02*
X124150000Y-88650000D01*
X124000000Y-85600000D02*
X124150000Y-85750000D01*
X124150000Y-85750000D02*
X124150000Y-86600000D01*
X124150000Y-88650000D02*
X123900000Y-88900000D01*
X157700000Y-87250000D02*
X159000000Y-87250000D01*
X161300000Y-78800000D02*
X159300000Y-78800000D01*
X159300000Y-78800000D02*
X159000000Y-78500000D01*
X137400000Y-76600000D02*
X137400000Y-81850000D01*
X131900000Y-86700000D02*
X134650000Y-86700000D01*
X136169998Y-85180002D02*
X137080002Y-85180002D01*
X134650000Y-86700000D02*
X136169998Y-85180002D01*
X137080002Y-85180002D02*
X137400000Y-85500000D01*
X132950000Y-75650000D02*
X133400000Y-76100000D01*
X133400000Y-76100000D02*
X133400000Y-76350000D01*
X126600000Y-75650000D02*
X132950000Y-75650000D01*
X126500000Y-75750000D02*
X126600000Y-75650000D01*
X127500000Y-81100000D02*
X127500000Y-79600000D01*
D25*
G36*
X125705000Y-68445000D02*
X123010000Y-68445000D01*
X122801437Y-68486486D01*
X122624627Y-68604627D01*
X122374277Y-68854977D01*
X122252461Y-68854871D01*
X121978543Y-68968052D01*
X121768788Y-69177441D01*
X121655130Y-69451160D01*
X121654871Y-69747539D01*
X121768052Y-70021457D01*
X121977441Y-70231212D01*
X122251160Y-70344870D01*
X122547539Y-70345129D01*
X122821457Y-70231948D01*
X123031212Y-70022559D01*
X123144870Y-69748840D01*
X123144978Y-69625768D01*
X123235746Y-69535000D01*
X127007262Y-69535000D01*
X127007262Y-70405000D01*
X121575746Y-70405000D01*
X120545023Y-69374277D01*
X120545129Y-69252461D01*
X120431948Y-68978543D01*
X120222559Y-68768788D01*
X119948840Y-68655130D01*
X119652461Y-68654871D01*
X119378543Y-68768052D01*
X119168788Y-68977441D01*
X119055130Y-69251160D01*
X119054871Y-69547539D01*
X119168052Y-69821457D01*
X119377441Y-70031212D01*
X119651160Y-70144870D01*
X119774232Y-70144978D01*
X120964627Y-71335373D01*
X121141437Y-71453514D01*
X121350000Y-71495000D01*
X129090000Y-71495000D01*
X129298563Y-71453514D01*
X129475373Y-71335373D01*
X129481444Y-71329302D01*
X147683096Y-71329302D01*
X147713898Y-72125550D01*
X147959349Y-72718122D01*
X148254818Y-72870322D01*
X149475140Y-71650000D01*
X149924860Y-71650000D01*
X151145182Y-72870322D01*
X151440651Y-72718122D01*
X151716904Y-71970698D01*
X151700040Y-71534750D01*
X166697000Y-71534750D01*
X166697000Y-72019944D01*
X166788801Y-72241572D01*
X166958428Y-72411199D01*
X167180056Y-72503000D01*
X168090250Y-72503000D01*
X168241000Y-72352250D01*
X168241000Y-71384000D01*
X166847750Y-71384000D01*
X166697000Y-71534750D01*
X151700040Y-71534750D01*
X151686102Y-71174450D01*
X151440651Y-70581878D01*
X151145182Y-70429678D01*
X149924860Y-71650000D01*
X149475140Y-71650000D01*
X148254818Y-70429678D01*
X147959349Y-70581878D01*
X147683096Y-71329302D01*
X129481444Y-71329302D01*
X129865184Y-70945562D01*
X129950000Y-70962738D01*
X131250000Y-70962738D01*
X131396378Y-70935195D01*
X131530817Y-70848686D01*
X131621008Y-70716688D01*
X131652738Y-70560000D01*
X131652738Y-68645000D01*
X132087262Y-68645000D01*
X132087262Y-70560000D01*
X132114805Y-70706378D01*
X132201314Y-70840817D01*
X132333312Y-70931008D01*
X132490000Y-70962738D01*
X133790000Y-70962738D01*
X133936378Y-70935195D01*
X134070817Y-70848686D01*
X134161008Y-70716688D01*
X134192738Y-70560000D01*
X134192738Y-69869750D01*
X134427000Y-69869750D01*
X134427000Y-70679944D01*
X134518801Y-70901572D01*
X134688428Y-71071199D01*
X134910056Y-71163000D01*
X135370250Y-71163000D01*
X135521000Y-71012250D01*
X135521000Y-69719000D01*
X135839000Y-69719000D01*
X135839000Y-71012250D01*
X135989750Y-71163000D01*
X136449944Y-71163000D01*
X136671572Y-71071199D01*
X136841199Y-70901572D01*
X136933000Y-70679944D01*
X136933000Y-70204818D01*
X148479678Y-70204818D01*
X149700000Y-71425140D01*
X150920322Y-70204818D01*
X150768122Y-69909349D01*
X150020698Y-69633096D01*
X149224450Y-69663898D01*
X148631878Y-69909349D01*
X148479678Y-70204818D01*
X136933000Y-70204818D01*
X136933000Y-69869750D01*
X136782250Y-69719000D01*
X135839000Y-69719000D01*
X135521000Y-69719000D01*
X134577750Y-69719000D01*
X134427000Y-69869750D01*
X134192738Y-69869750D01*
X134192738Y-69484750D01*
X166697000Y-69484750D01*
X166697000Y-69969944D01*
X166788801Y-70191572D01*
X166797229Y-70200000D01*
X166788801Y-70208428D01*
X166697000Y-70430056D01*
X166697000Y-70915250D01*
X166847750Y-71066000D01*
X168241000Y-71066000D01*
X168241000Y-69334000D01*
X166847750Y-69334000D01*
X166697000Y-69484750D01*
X134192738Y-69484750D01*
X134192738Y-68560000D01*
X134165195Y-68413622D01*
X134078686Y-68279183D01*
X133946688Y-68188992D01*
X133895000Y-68178525D01*
X133895000Y-67970000D01*
X134878671Y-67970000D01*
X134688428Y-68048801D01*
X134518801Y-68218428D01*
X134427000Y-68440056D01*
X134427000Y-69250250D01*
X134577750Y-69401000D01*
X135521000Y-69401000D01*
X135521000Y-69381000D01*
X135839000Y-69381000D01*
X135839000Y-69401000D01*
X136782250Y-69401000D01*
X136933000Y-69250250D01*
X136933000Y-68440056D01*
X136841199Y-68218428D01*
X136671572Y-68048801D01*
X136481329Y-67970000D01*
X167003818Y-67970000D01*
X166958428Y-67988801D01*
X166788801Y-68158428D01*
X166697000Y-68380056D01*
X166697000Y-68865250D01*
X166847750Y-69016000D01*
X168241000Y-69016000D01*
X168241000Y-68996000D01*
X168559000Y-68996000D01*
X168559000Y-69016000D01*
X168579000Y-69016000D01*
X168579000Y-69334000D01*
X168559000Y-69334000D01*
X168559000Y-71066000D01*
X168579000Y-71066000D01*
X168579000Y-71384000D01*
X168559000Y-71384000D01*
X168559000Y-72352250D01*
X168709750Y-72503000D01*
X169619944Y-72503000D01*
X169841572Y-72411199D01*
X170011199Y-72241572D01*
X170030000Y-72196182D01*
X170030000Y-78200000D01*
X170046668Y-78283795D01*
X170061058Y-78368017D01*
X170064512Y-78373503D01*
X170065777Y-78379861D01*
X170113245Y-78450903D01*
X170158768Y-78523203D01*
X170164058Y-78526949D01*
X170167660Y-78532340D01*
X170238699Y-78579806D01*
X170308427Y-78629185D01*
X172232665Y-79488096D01*
X173617450Y-80950125D01*
X174010799Y-81977742D01*
X173859000Y-82058310D01*
X173859000Y-83591000D01*
X173879000Y-83591000D01*
X173879000Y-83909000D01*
X173859000Y-83909000D01*
X173859000Y-85441690D01*
X173978985Y-85505372D01*
X173617450Y-86449875D01*
X172232665Y-87911904D01*
X170308427Y-88770815D01*
X170238699Y-88820194D01*
X170167660Y-88867660D01*
X170164058Y-88873051D01*
X170158768Y-88876797D01*
X170113245Y-88949097D01*
X170065777Y-89020139D01*
X170064512Y-89026497D01*
X170061058Y-89031983D01*
X170046668Y-89116205D01*
X170030000Y-89200000D01*
X170030000Y-95303818D01*
X170011199Y-95258428D01*
X169841572Y-95088801D01*
X169619944Y-94997000D01*
X168709750Y-94997000D01*
X168559000Y-95147750D01*
X168559000Y-96116000D01*
X168579000Y-96116000D01*
X168579000Y-96434000D01*
X168559000Y-96434000D01*
X168559000Y-98166000D01*
X168579000Y-98166000D01*
X168579000Y-98484000D01*
X168559000Y-98484000D01*
X168559000Y-98504000D01*
X168241000Y-98504000D01*
X168241000Y-98484000D01*
X166847750Y-98484000D01*
X166697000Y-98634750D01*
X166697000Y-99119944D01*
X166788801Y-99341572D01*
X166958428Y-99511199D01*
X167003818Y-99530000D01*
X138970000Y-99530000D01*
X138970000Y-99500000D01*
X138934223Y-99320139D01*
X138832340Y-99167660D01*
X138679861Y-99065777D01*
X138500000Y-99030000D01*
X123500000Y-99030000D01*
X123320139Y-99065777D01*
X123167660Y-99167660D01*
X123065777Y-99320139D01*
X123030000Y-99500000D01*
X123030000Y-99530000D01*
X101046290Y-99530000D01*
X100800703Y-99481150D01*
X100631744Y-99368256D01*
X100518850Y-99199297D01*
X100470000Y-98953710D01*
X100470000Y-94747539D01*
X126154871Y-94747539D01*
X126268052Y-95021457D01*
X126477441Y-95231212D01*
X126751160Y-95344870D01*
X127047539Y-95345129D01*
X127108010Y-95320143D01*
X127121314Y-95340817D01*
X127253312Y-95431008D01*
X127410000Y-95462738D01*
X128710000Y-95462738D01*
X128856378Y-95435195D01*
X128990817Y-95348686D01*
X129081008Y-95216688D01*
X129112738Y-95060000D01*
X129112738Y-93060000D01*
X129547262Y-93060000D01*
X129547262Y-95060000D01*
X129574805Y-95206378D01*
X129661314Y-95340817D01*
X129793312Y-95431008D01*
X129950000Y-95462738D01*
X130105000Y-95462738D01*
X130105000Y-95741292D01*
X130068788Y-95777441D01*
X129955130Y-96051160D01*
X129954871Y-96347539D01*
X130068052Y-96621457D01*
X130277441Y-96831212D01*
X130551160Y-96944870D01*
X130847539Y-96945129D01*
X131121457Y-96831948D01*
X131331212Y-96622559D01*
X131346911Y-96584750D01*
X166697000Y-96584750D01*
X166697000Y-97069944D01*
X166788801Y-97291572D01*
X166797229Y-97300000D01*
X166788801Y-97308428D01*
X166697000Y-97530056D01*
X166697000Y-98015250D01*
X166847750Y-98166000D01*
X168241000Y-98166000D01*
X168241000Y-96434000D01*
X166847750Y-96434000D01*
X166697000Y-96584750D01*
X131346911Y-96584750D01*
X131444870Y-96348840D01*
X131445129Y-96052461D01*
X131331948Y-95778543D01*
X131195000Y-95641356D01*
X131195000Y-95480056D01*
X166697000Y-95480056D01*
X166697000Y-95965250D01*
X166847750Y-96116000D01*
X168241000Y-96116000D01*
X168241000Y-95147750D01*
X168090250Y-94997000D01*
X167180056Y-94997000D01*
X166958428Y-95088801D01*
X166788801Y-95258428D01*
X166697000Y-95480056D01*
X131195000Y-95480056D01*
X131195000Y-95462738D01*
X131250000Y-95462738D01*
X131396378Y-95435195D01*
X131530817Y-95348686D01*
X131621008Y-95216688D01*
X131652738Y-95060000D01*
X131652738Y-93060000D01*
X132087262Y-93060000D01*
X132087262Y-95060000D01*
X132114805Y-95206378D01*
X132201314Y-95340817D01*
X132333312Y-95431008D01*
X132490000Y-95462738D01*
X133790000Y-95462738D01*
X133936378Y-95435195D01*
X134070817Y-95348686D01*
X134134808Y-95255033D01*
X134351160Y-95344870D01*
X134647539Y-95345129D01*
X134723810Y-95313614D01*
X134741314Y-95340817D01*
X134873312Y-95431008D01*
X135030000Y-95462738D01*
X136330000Y-95462738D01*
X136476378Y-95435195D01*
X136610817Y-95348686D01*
X136701008Y-95216688D01*
X136732738Y-95060000D01*
X136732738Y-93060000D01*
X136705195Y-92913622D01*
X136618686Y-92779183D01*
X136486688Y-92688992D01*
X136330000Y-92657262D01*
X135030000Y-92657262D01*
X134883622Y-92684805D01*
X134749183Y-92771314D01*
X134658992Y-92903312D01*
X134627262Y-93060000D01*
X134627262Y-93855111D01*
X134352461Y-93854871D01*
X134192738Y-93920867D01*
X134192738Y-93060000D01*
X134165195Y-92913622D01*
X134078686Y-92779183D01*
X133946688Y-92688992D01*
X133891329Y-92677782D01*
X133944870Y-92548840D01*
X133945129Y-92252461D01*
X133831948Y-91978543D01*
X133622559Y-91768788D01*
X133348840Y-91655130D01*
X133052461Y-91654871D01*
X132778543Y-91768052D01*
X132568788Y-91977441D01*
X132455130Y-92251160D01*
X132454871Y-92547539D01*
X132500208Y-92657262D01*
X132490000Y-92657262D01*
X132343622Y-92684805D01*
X132209183Y-92771314D01*
X132118992Y-92903312D01*
X132087262Y-93060000D01*
X131652738Y-93060000D01*
X131625195Y-92913622D01*
X131538686Y-92779183D01*
X131406688Y-92688992D01*
X131250000Y-92657262D01*
X129950000Y-92657262D01*
X129803622Y-92684805D01*
X129669183Y-92771314D01*
X129578992Y-92903312D01*
X129547262Y-93060000D01*
X129112738Y-93060000D01*
X129085195Y-92913622D01*
X128998686Y-92779183D01*
X128866688Y-92688992D01*
X128710000Y-92657262D01*
X127410000Y-92657262D01*
X127263622Y-92684805D01*
X127129183Y-92771314D01*
X127038992Y-92903312D01*
X127007262Y-93060000D01*
X127007262Y-93855094D01*
X126752461Y-93854871D01*
X126478543Y-93968052D01*
X126268788Y-94177441D01*
X126155130Y-94451160D01*
X126154871Y-94747539D01*
X100470000Y-94747539D01*
X100470000Y-93415182D01*
X103979678Y-93415182D01*
X104131878Y-93710651D01*
X104879302Y-93986904D01*
X105675550Y-93956102D01*
X106268122Y-93710651D01*
X106420322Y-93415182D01*
X105200000Y-92194860D01*
X103979678Y-93415182D01*
X100470000Y-93415182D01*
X100470000Y-91649302D01*
X103183096Y-91649302D01*
X103213898Y-92445550D01*
X103459349Y-93038122D01*
X103754818Y-93190322D01*
X104975140Y-91970000D01*
X105424860Y-91970000D01*
X106645182Y-93190322D01*
X106940651Y-93038122D01*
X107216904Y-92290698D01*
X107186102Y-91494450D01*
X107125250Y-91347539D01*
X115154871Y-91347539D01*
X115268052Y-91621457D01*
X115477441Y-91831212D01*
X115751160Y-91944870D01*
X116047539Y-91945129D01*
X116321457Y-91831948D01*
X116531212Y-91622559D01*
X116631763Y-91380405D01*
X119180770Y-88831398D01*
X119412767Y-88735538D01*
X119448428Y-88771199D01*
X119670056Y-88863000D01*
X120130250Y-88863000D01*
X120281000Y-88712250D01*
X120281000Y-87419000D01*
X120599000Y-87419000D01*
X120599000Y-88712250D01*
X120749750Y-88863000D01*
X121209944Y-88863000D01*
X121431572Y-88771199D01*
X121601199Y-88601572D01*
X121693000Y-88379944D01*
X121693000Y-87569750D01*
X121542250Y-87419000D01*
X120599000Y-87419000D01*
X120281000Y-87419000D01*
X119337750Y-87419000D01*
X119327453Y-87429297D01*
X119148840Y-87355130D01*
X118852461Y-87354871D01*
X118578543Y-87468052D01*
X118368788Y-87677441D01*
X118268237Y-87919595D01*
X115719230Y-90468602D01*
X115478543Y-90568052D01*
X115268788Y-90777441D01*
X115155130Y-91051160D01*
X115154871Y-91347539D01*
X107125250Y-91347539D01*
X106940651Y-90901878D01*
X106645182Y-90749678D01*
X105424860Y-91970000D01*
X104975140Y-91970000D01*
X103754818Y-90749678D01*
X103459349Y-90901878D01*
X103183096Y-91649302D01*
X100470000Y-91649302D01*
X100470000Y-90524818D01*
X103979678Y-90524818D01*
X105200000Y-91745140D01*
X106420322Y-90524818D01*
X106268122Y-90229349D01*
X105520698Y-89953096D01*
X104724450Y-89983898D01*
X104131878Y-90229349D01*
X103979678Y-90524818D01*
X100470000Y-90524818D01*
X100470000Y-88403000D01*
X101040250Y-88403000D01*
X101191000Y-88252250D01*
X101191000Y-87109000D01*
X101509000Y-87109000D01*
X101509000Y-88252250D01*
X101659750Y-88403000D01*
X102319944Y-88403000D01*
X102541572Y-88311199D01*
X102711199Y-88141572D01*
X102803000Y-87919944D01*
X102803000Y-87259750D01*
X102652250Y-87109000D01*
X101509000Y-87109000D01*
X101191000Y-87109000D01*
X101171000Y-87109000D01*
X101171000Y-86791000D01*
X101191000Y-86791000D01*
X101191000Y-85647750D01*
X101509000Y-85647750D01*
X101509000Y-86791000D01*
X102652250Y-86791000D01*
X102803000Y-86640250D01*
X102803000Y-86592502D01*
X102894088Y-86592502D01*
X103065311Y-87018294D01*
X103386444Y-87346150D01*
X103710364Y-87502977D01*
X103891000Y-87389870D01*
X103891000Y-86409000D01*
X103025044Y-86409000D01*
X102894088Y-86592502D01*
X102803000Y-86592502D01*
X102803000Y-85980056D01*
X102772946Y-85907498D01*
X102894088Y-85907498D01*
X103025044Y-86091000D01*
X103891000Y-86091000D01*
X103891000Y-85110130D01*
X103710364Y-84997023D01*
X103386444Y-85153850D01*
X103065311Y-85481706D01*
X102894088Y-85907498D01*
X102772946Y-85907498D01*
X102711199Y-85758428D01*
X102541572Y-85588801D01*
X102319944Y-85497000D01*
X101659750Y-85497000D01*
X101509000Y-85647750D01*
X101191000Y-85647750D01*
X101040250Y-85497000D01*
X100470000Y-85497000D01*
X100470000Y-82003000D01*
X101040250Y-82003000D01*
X101191000Y-81852250D01*
X101191000Y-80709000D01*
X101509000Y-80709000D01*
X101509000Y-81852250D01*
X101659750Y-82003000D01*
X102319944Y-82003000D01*
X102541572Y-81911199D01*
X102711199Y-81741572D01*
X102772945Y-81592502D01*
X102894088Y-81592502D01*
X103065311Y-82018294D01*
X103386444Y-82346150D01*
X103710364Y-82502977D01*
X103891000Y-82389870D01*
X103891000Y-81409000D01*
X103025044Y-81409000D01*
X102894088Y-81592502D01*
X102772945Y-81592502D01*
X102803000Y-81519944D01*
X102803000Y-80907498D01*
X102894088Y-80907498D01*
X103025044Y-81091000D01*
X103891000Y-81091000D01*
X103891000Y-80110130D01*
X104209000Y-80110130D01*
X104209000Y-81091000D01*
X104229000Y-81091000D01*
X104229000Y-81409000D01*
X104209000Y-81409000D01*
X104209000Y-82389870D01*
X104389636Y-82502977D01*
X104713556Y-82346150D01*
X104855000Y-82201745D01*
X104855000Y-85298255D01*
X104713556Y-85153850D01*
X104389636Y-84997023D01*
X104209000Y-85110130D01*
X104209000Y-86091000D01*
X104229000Y-86091000D01*
X104229000Y-86409000D01*
X104209000Y-86409000D01*
X104209000Y-87389870D01*
X104389636Y-87502977D01*
X104713556Y-87346150D01*
X104855000Y-87201745D01*
X104855000Y-87991379D01*
X104768788Y-88077441D01*
X104655130Y-88351160D01*
X104654871Y-88647539D01*
X104768052Y-88921457D01*
X104977441Y-89131212D01*
X105251160Y-89244870D01*
X105547539Y-89245129D01*
X105821457Y-89131948D01*
X106031212Y-88922559D01*
X106144870Y-88648840D01*
X106145129Y-88352461D01*
X106031948Y-88078543D01*
X105945000Y-87991443D01*
X105945000Y-82008621D01*
X106031212Y-81922559D01*
X106144870Y-81648840D01*
X106145129Y-81352461D01*
X106031948Y-81078543D01*
X106000999Y-81047539D01*
X109154871Y-81047539D01*
X109268052Y-81321457D01*
X109477441Y-81531212D01*
X109751160Y-81644870D01*
X110047539Y-81645129D01*
X110321457Y-81531948D01*
X110531212Y-81322559D01*
X110644870Y-81048840D01*
X110645129Y-80752461D01*
X110531948Y-80478543D01*
X110445000Y-80391443D01*
X110445000Y-79725746D01*
X113675746Y-76495000D01*
X113898907Y-76495000D01*
X113814901Y-76511710D01*
X113573205Y-76673205D01*
X113573203Y-76673208D01*
X111473205Y-78773205D01*
X111473203Y-78773209D01*
X111368788Y-78877441D01*
X111255130Y-79151160D01*
X111255000Y-79299995D01*
X111254999Y-79300000D01*
X111255000Y-79300005D01*
X111254871Y-79447539D01*
X111255000Y-79447851D01*
X111255000Y-81691410D01*
X111173205Y-81773205D01*
X111173203Y-81773209D01*
X111068788Y-81877441D01*
X111059992Y-81898625D01*
X111023205Y-81923205D01*
X110861710Y-82164901D01*
X110805000Y-82450000D01*
X110805000Y-85999922D01*
X110804871Y-86147539D01*
X110918052Y-86421457D01*
X111023203Y-86526791D01*
X111023205Y-86526795D01*
X111023209Y-86526797D01*
X111127441Y-86631212D01*
X111401160Y-86744870D01*
X111697539Y-86745129D01*
X111971457Y-86631948D01*
X112076791Y-86526797D01*
X112076795Y-86526795D01*
X112076797Y-86526791D01*
X112155045Y-86448681D01*
X112154871Y-86647539D01*
X112268052Y-86921457D01*
X112355000Y-87008557D01*
X112355000Y-87700000D01*
X112396486Y-87908563D01*
X112514627Y-88085373D01*
X112554977Y-88125723D01*
X112554871Y-88247539D01*
X112668052Y-88521457D01*
X112877441Y-88731212D01*
X113151160Y-88844870D01*
X113447539Y-88845129D01*
X113721457Y-88731948D01*
X113931212Y-88522559D01*
X114044870Y-88248840D01*
X114045129Y-87952461D01*
X113931948Y-87678543D01*
X113722559Y-87468788D01*
X113448840Y-87355130D01*
X113445000Y-87355127D01*
X113445000Y-87008621D01*
X113531212Y-86922559D01*
X113644870Y-86648840D01*
X113645129Y-86352461D01*
X113557365Y-86140056D01*
X119187000Y-86140056D01*
X119187000Y-86950250D01*
X119337750Y-87101000D01*
X120281000Y-87101000D01*
X120281000Y-85807750D01*
X120599000Y-85807750D01*
X120599000Y-87101000D01*
X121542250Y-87101000D01*
X121693000Y-86950250D01*
X121693000Y-86253006D01*
X121714627Y-86285373D01*
X121927262Y-86498008D01*
X121927262Y-88260000D01*
X121954805Y-88406378D01*
X122041314Y-88540817D01*
X122173312Y-88631008D01*
X122330000Y-88662738D01*
X123191846Y-88662738D01*
X123155130Y-88751160D01*
X123154871Y-89047539D01*
X123268052Y-89321457D01*
X123477441Y-89531212D01*
X123751160Y-89644870D01*
X124047539Y-89645129D01*
X124321457Y-89531948D01*
X124374953Y-89478545D01*
X124477441Y-89581212D01*
X124751160Y-89694870D01*
X124784354Y-89694899D01*
X124214627Y-90264627D01*
X124096486Y-90441437D01*
X124071301Y-90568052D01*
X124055000Y-90650000D01*
X124055000Y-92941379D01*
X123968788Y-93027441D01*
X123855130Y-93301160D01*
X123854871Y-93597539D01*
X123968052Y-93871457D01*
X124177441Y-94081212D01*
X124451160Y-94194870D01*
X124747539Y-94195129D01*
X125021457Y-94081948D01*
X125231212Y-93872559D01*
X125344870Y-93598840D01*
X125345129Y-93302461D01*
X125231948Y-93028543D01*
X125145000Y-92941443D01*
X125145000Y-90875746D01*
X125985374Y-90035373D01*
X126103514Y-89858562D01*
X126145000Y-89650000D01*
X126145000Y-87108621D01*
X126231212Y-87022559D01*
X126303886Y-86847539D01*
X131154871Y-86847539D01*
X131268052Y-87121457D01*
X131477441Y-87331212D01*
X131655083Y-87404975D01*
X131654871Y-87647539D01*
X131768052Y-87921457D01*
X131977441Y-88131212D01*
X132251160Y-88244870D01*
X132547539Y-88245129D01*
X132821457Y-88131948D01*
X132908557Y-88045000D01*
X136641379Y-88045000D01*
X136727441Y-88131212D01*
X137001160Y-88244870D01*
X137297539Y-88245129D01*
X137571457Y-88131948D01*
X137781212Y-87922559D01*
X137894870Y-87648840D01*
X137895089Y-87397539D01*
X156954871Y-87397539D01*
X157068052Y-87671457D01*
X157277441Y-87881212D01*
X157551160Y-87994870D01*
X157847539Y-87995129D01*
X158037770Y-87916527D01*
X158111314Y-88030817D01*
X158243312Y-88121008D01*
X158400000Y-88152738D01*
X159600000Y-88152738D01*
X159700538Y-88133820D01*
X159697262Y-88150000D01*
X159697262Y-90350000D01*
X159724805Y-90496378D01*
X159811314Y-90630817D01*
X159943312Y-90721008D01*
X160100000Y-90752738D01*
X162300000Y-90752738D01*
X162446378Y-90725195D01*
X162580817Y-90638686D01*
X162671008Y-90506688D01*
X162702738Y-90350000D01*
X162702738Y-89291385D01*
X162812312Y-89542304D01*
X163450963Y-89768412D01*
X164127527Y-89732908D01*
X164587688Y-89542304D01*
X164703117Y-89277977D01*
X163700000Y-88274860D01*
X163685858Y-88289003D01*
X163460998Y-88064143D01*
X163475140Y-88050000D01*
X163924860Y-88050000D01*
X164927977Y-89053117D01*
X165192304Y-88937688D01*
X165418412Y-88299037D01*
X165382908Y-87622473D01*
X165192304Y-87162312D01*
X164927977Y-87046883D01*
X163924860Y-88050000D01*
X163475140Y-88050000D01*
X162472023Y-87046883D01*
X162207696Y-87162312D01*
X162000600Y-87747262D01*
X160100000Y-87747262D01*
X159999462Y-87766180D01*
X160002738Y-87750000D01*
X160002738Y-86822023D01*
X162696883Y-86822023D01*
X163700000Y-87825140D01*
X164703117Y-86822023D01*
X164587688Y-86557696D01*
X163949037Y-86331588D01*
X163272473Y-86367092D01*
X162812312Y-86557696D01*
X162696883Y-86822023D01*
X160002738Y-86822023D01*
X160002738Y-86750000D01*
X159975195Y-86603622D01*
X159888686Y-86469183D01*
X159756688Y-86378992D01*
X159742003Y-86376018D01*
X159746378Y-86375195D01*
X159880817Y-86288686D01*
X159971008Y-86156688D01*
X160002738Y-86000000D01*
X160002738Y-85268008D01*
X160865802Y-84404944D01*
X160921457Y-84381948D01*
X161131212Y-84172559D01*
X161240651Y-83909000D01*
X172347000Y-83909000D01*
X172347000Y-84409000D01*
X172510838Y-84914668D01*
X172855715Y-85319146D01*
X173332768Y-85552210D01*
X173541000Y-85441690D01*
X173541000Y-83909000D01*
X172347000Y-83909000D01*
X161240651Y-83909000D01*
X161244870Y-83898840D01*
X161245129Y-83602461D01*
X161131948Y-83328543D01*
X160922559Y-83118788D01*
X160866083Y-83095337D01*
X160861746Y-83091000D01*
X172347000Y-83091000D01*
X172347000Y-83591000D01*
X173541000Y-83591000D01*
X173541000Y-82058310D01*
X173332768Y-81947790D01*
X172855715Y-82180854D01*
X172510838Y-82585332D01*
X172347000Y-83091000D01*
X160861746Y-83091000D01*
X160002738Y-82231992D01*
X160002738Y-81500000D01*
X159975195Y-81353622D01*
X159921162Y-81269653D01*
X159941572Y-81261199D01*
X160111199Y-81091572D01*
X160203000Y-80869944D01*
X160203000Y-80559750D01*
X160052250Y-80409000D01*
X159159000Y-80409000D01*
X159159000Y-80429000D01*
X158841000Y-80429000D01*
X158841000Y-80409000D01*
X157947750Y-80409000D01*
X157797000Y-80559750D01*
X157797000Y-80869944D01*
X157888801Y-81091572D01*
X158058428Y-81261199D01*
X158079215Y-81269809D01*
X158028992Y-81343312D01*
X157997262Y-81500000D01*
X157997262Y-82500000D01*
X158024805Y-82646378D01*
X158078838Y-82730347D01*
X158058428Y-82738801D01*
X157888801Y-82908428D01*
X157797000Y-83130056D01*
X157797000Y-83440250D01*
X157947750Y-83591000D01*
X158841000Y-83591000D01*
X158841000Y-83571000D01*
X159159000Y-83571000D01*
X159159000Y-83591000D01*
X159179000Y-83591000D01*
X159179000Y-83909000D01*
X159159000Y-83909000D01*
X159159000Y-83929000D01*
X158841000Y-83929000D01*
X158841000Y-83909000D01*
X157947750Y-83909000D01*
X157797000Y-84059750D01*
X157797000Y-84369944D01*
X157888801Y-84591572D01*
X158058428Y-84761199D01*
X158079215Y-84769809D01*
X158028992Y-84843312D01*
X157997262Y-85000000D01*
X157997262Y-86000000D01*
X158024805Y-86146378D01*
X158111314Y-86280817D01*
X158243312Y-86371008D01*
X158257997Y-86373982D01*
X158253622Y-86374805D01*
X158119183Y-86461314D01*
X158036112Y-86582892D01*
X157848840Y-86505130D01*
X157552461Y-86504871D01*
X157278543Y-86618052D01*
X157068788Y-86827441D01*
X156955130Y-87101160D01*
X156954871Y-87397539D01*
X137895089Y-87397539D01*
X137895129Y-87352461D01*
X137781948Y-87078543D01*
X137572559Y-86868788D01*
X137298840Y-86755130D01*
X137002461Y-86754871D01*
X136728543Y-86868052D01*
X136641443Y-86955000D01*
X135165746Y-86955000D01*
X136395744Y-85725002D01*
X136686878Y-85725002D01*
X136768052Y-85921457D01*
X136977441Y-86131212D01*
X137251160Y-86244870D01*
X137547539Y-86245129D01*
X137821457Y-86131948D01*
X137899953Y-86053589D01*
X137977441Y-86131212D01*
X138251160Y-86244870D01*
X138547539Y-86245129D01*
X138821457Y-86131948D01*
X138855926Y-86097539D01*
X151154871Y-86097539D01*
X151268052Y-86371457D01*
X151477441Y-86581212D01*
X151751160Y-86694870D01*
X152047539Y-86695129D01*
X152321457Y-86581948D01*
X152358470Y-86545000D01*
X154141379Y-86545000D01*
X154227441Y-86631212D01*
X154501160Y-86744870D01*
X154797539Y-86745129D01*
X155071457Y-86631948D01*
X155281212Y-86422559D01*
X155394870Y-86148840D01*
X155395129Y-85852461D01*
X155281948Y-85578543D01*
X155072559Y-85368788D01*
X154798840Y-85255130D01*
X154502461Y-85254871D01*
X154228543Y-85368052D01*
X154141443Y-85455000D01*
X153438503Y-85455000D01*
X153544870Y-85198840D01*
X153545129Y-84902461D01*
X153431948Y-84628543D01*
X153345000Y-84541443D01*
X153345000Y-83125746D01*
X154725723Y-81745023D01*
X154847539Y-81745129D01*
X155121457Y-81631948D01*
X155331212Y-81422559D01*
X155444870Y-81148840D01*
X155445129Y-80852461D01*
X155331948Y-80578543D01*
X155122559Y-80368788D01*
X154848840Y-80255130D01*
X154552461Y-80254871D01*
X154278543Y-80368052D01*
X154068788Y-80577441D01*
X153955130Y-80851160D01*
X153955022Y-80974232D01*
X152414627Y-82514627D01*
X152296486Y-82691437D01*
X152260767Y-82871008D01*
X152255000Y-82900000D01*
X152255000Y-84541379D01*
X152168788Y-84627441D01*
X152055130Y-84901160D01*
X152054871Y-85197539D01*
X152059906Y-85209725D01*
X152048840Y-85205130D01*
X151752461Y-85204871D01*
X151478543Y-85318052D01*
X151268788Y-85527441D01*
X151155130Y-85801160D01*
X151154871Y-86097539D01*
X138855926Y-86097539D01*
X139031212Y-85922559D01*
X139144870Y-85648840D01*
X139145129Y-85352461D01*
X139031948Y-85078543D01*
X138822559Y-84868788D01*
X138548840Y-84755130D01*
X138425769Y-84755022D01*
X137935373Y-84264627D01*
X137758563Y-84146486D01*
X137550000Y-84105000D01*
X135900000Y-84105000D01*
X135691437Y-84146486D01*
X135514627Y-84264627D01*
X134424254Y-85355000D01*
X132908621Y-85355000D01*
X132822559Y-85268788D01*
X132548840Y-85155130D01*
X132252461Y-85154871D01*
X131978543Y-85268052D01*
X131768788Y-85477441D01*
X131655130Y-85751160D01*
X131654917Y-85995176D01*
X131478543Y-86068052D01*
X131268788Y-86277441D01*
X131155130Y-86551160D01*
X131154871Y-86847539D01*
X126303886Y-86847539D01*
X126344870Y-86748840D01*
X126345129Y-86452461D01*
X126231948Y-86178543D01*
X126022559Y-85968788D01*
X125748840Y-85855130D01*
X125452461Y-85854871D01*
X125445000Y-85857954D01*
X125445000Y-85400000D01*
X125403514Y-85191438D01*
X125334968Y-85088851D01*
X125285373Y-85014626D01*
X124735373Y-84464627D01*
X124558563Y-84346486D01*
X124350000Y-84305000D01*
X123700000Y-84305000D01*
X123491437Y-84346486D01*
X123314627Y-84464627D01*
X122904612Y-84874642D01*
X122678543Y-84968052D01*
X122600047Y-85046411D01*
X122522559Y-84968788D01*
X122248840Y-84855130D01*
X121952461Y-84854871D01*
X121678543Y-84968052D01*
X121468788Y-85177441D01*
X121355130Y-85451160D01*
X121354898Y-85717042D01*
X121209944Y-85657000D01*
X120749750Y-85657000D01*
X120599000Y-85807750D01*
X120281000Y-85807750D01*
X120130250Y-85657000D01*
X119670056Y-85657000D01*
X119448428Y-85748801D01*
X119278801Y-85918428D01*
X119187000Y-86140056D01*
X113557365Y-86140056D01*
X113531948Y-86078543D01*
X113322559Y-85868788D01*
X113048840Y-85755130D01*
X112752461Y-85754871D01*
X112478543Y-85868052D01*
X112294955Y-86051319D01*
X112295129Y-85852461D01*
X112295000Y-85852149D01*
X112295000Y-82758708D01*
X112331212Y-82722559D01*
X112331341Y-82722249D01*
X112526795Y-82526795D01*
X112688290Y-82285099D01*
X112745001Y-82000000D01*
X112745000Y-81999995D01*
X112745000Y-79608590D01*
X114250000Y-78103589D01*
X114473203Y-78326792D01*
X114473205Y-78326795D01*
X114604656Y-78414627D01*
X114714901Y-78488290D01*
X115000000Y-78545001D01*
X115000005Y-78545000D01*
X116099995Y-78545000D01*
X116100000Y-78545001D01*
X116385099Y-78488290D01*
X116626795Y-78326795D01*
X116908589Y-78045000D01*
X121605000Y-78045000D01*
X121605000Y-80410646D01*
X121505130Y-80651160D01*
X121504871Y-80947539D01*
X121618052Y-81221457D01*
X121827441Y-81431212D01*
X122101160Y-81544870D01*
X122397539Y-81545129D01*
X122671457Y-81431948D01*
X122881212Y-81222559D01*
X122994870Y-80948840D01*
X122995129Y-80652461D01*
X122895000Y-80410131D01*
X122895000Y-79747539D01*
X126754871Y-79747539D01*
X126868052Y-80021457D01*
X126955000Y-80108557D01*
X126955000Y-80591379D01*
X126868788Y-80677441D01*
X126755130Y-80951160D01*
X126754871Y-81247539D01*
X126868052Y-81521457D01*
X127077441Y-81731212D01*
X127351160Y-81844870D01*
X127647539Y-81845129D01*
X127921457Y-81731948D01*
X128131212Y-81522559D01*
X128244870Y-81248840D01*
X128245129Y-80952461D01*
X128131948Y-80678543D01*
X128100999Y-80647539D01*
X128654871Y-80647539D01*
X128768052Y-80921457D01*
X128855000Y-81008557D01*
X128855000Y-84591379D01*
X128768788Y-84677441D01*
X128655130Y-84951160D01*
X128654871Y-85247539D01*
X128768052Y-85521457D01*
X128977441Y-85731212D01*
X129251160Y-85844870D01*
X129547539Y-85845129D01*
X129821457Y-85731948D01*
X130031212Y-85522559D01*
X130144870Y-85248840D01*
X130145048Y-85044952D01*
X130347539Y-85045129D01*
X130621457Y-84931948D01*
X130831212Y-84722559D01*
X130944870Y-84448840D01*
X130945048Y-84244952D01*
X131147539Y-84245129D01*
X131421457Y-84131948D01*
X131631212Y-83922559D01*
X131744870Y-83648840D01*
X131745048Y-83444952D01*
X131947539Y-83445129D01*
X132221457Y-83331948D01*
X132431212Y-83122559D01*
X132544870Y-82848840D01*
X132545129Y-82552461D01*
X132431948Y-82278543D01*
X132345000Y-82191443D01*
X132345000Y-81598540D01*
X132477441Y-81731212D01*
X132751160Y-81844870D01*
X133047539Y-81845129D01*
X133321457Y-81731948D01*
X133408557Y-81645000D01*
X134791379Y-81645000D01*
X134877441Y-81731212D01*
X135151160Y-81844870D01*
X135447539Y-81845129D01*
X135721457Y-81731948D01*
X135925172Y-81528589D01*
X136127441Y-81731212D01*
X136401160Y-81844870D01*
X136655004Y-81845092D01*
X136654871Y-81997539D01*
X136768052Y-82271457D01*
X136977441Y-82481212D01*
X137251160Y-82594870D01*
X137547539Y-82595129D01*
X137821457Y-82481948D01*
X138031212Y-82272559D01*
X138144870Y-81998840D01*
X138145129Y-81702461D01*
X138031948Y-81428543D01*
X137945000Y-81341443D01*
X137945000Y-78797539D01*
X144204871Y-78797539D01*
X144318052Y-79071457D01*
X144527441Y-79281212D01*
X144801160Y-79394870D01*
X144905000Y-79394961D01*
X144905000Y-79941379D01*
X144818788Y-80027441D01*
X144705130Y-80301160D01*
X144704871Y-80597539D01*
X144818052Y-80871457D01*
X145027441Y-81081212D01*
X145301160Y-81194870D01*
X145597539Y-81195129D01*
X145871457Y-81081948D01*
X146081212Y-80872559D01*
X146194870Y-80598840D01*
X146195129Y-80302461D01*
X146081948Y-80028543D01*
X145995000Y-79941443D01*
X145995000Y-79150000D01*
X145953514Y-78941438D01*
X145835373Y-78764627D01*
X145695023Y-78624277D01*
X145695129Y-78502461D01*
X145581948Y-78228543D01*
X145372559Y-78018788D01*
X145098840Y-77905130D01*
X144802461Y-77904871D01*
X144528543Y-78018052D01*
X144318788Y-78227441D01*
X144205130Y-78501160D01*
X144204871Y-78797539D01*
X137945000Y-78797539D01*
X137945000Y-77108621D01*
X138031212Y-77022559D01*
X138144870Y-76748840D01*
X138144914Y-76697539D01*
X150254871Y-76697539D01*
X150355000Y-76939869D01*
X150355000Y-79260646D01*
X150255130Y-79501160D01*
X150254871Y-79797539D01*
X150368052Y-80071457D01*
X150577441Y-80281212D01*
X150851160Y-80394870D01*
X151147539Y-80395129D01*
X151421457Y-80281948D01*
X151631212Y-80072559D01*
X151744870Y-79798840D01*
X151745017Y-79630056D01*
X157797000Y-79630056D01*
X157797000Y-79940250D01*
X157947750Y-80091000D01*
X158841000Y-80091000D01*
X158841000Y-80071000D01*
X159159000Y-80071000D01*
X159159000Y-80091000D01*
X160052250Y-80091000D01*
X160203000Y-79940250D01*
X160203000Y-79777977D01*
X162696883Y-79777977D01*
X162812312Y-80042304D01*
X163450963Y-80268412D01*
X164127527Y-80232908D01*
X164587688Y-80042304D01*
X164703117Y-79777977D01*
X163700000Y-78774860D01*
X162696883Y-79777977D01*
X160203000Y-79777977D01*
X160203000Y-79630056D01*
X160111199Y-79408428D01*
X160047771Y-79345000D01*
X160791379Y-79345000D01*
X160877441Y-79431212D01*
X161151160Y-79544870D01*
X161447539Y-79545129D01*
X161721457Y-79431948D01*
X161931212Y-79222559D01*
X162025015Y-78996656D01*
X162207696Y-79437688D01*
X162472023Y-79553117D01*
X163475140Y-78550000D01*
X163924860Y-78550000D01*
X164927977Y-79553117D01*
X165192304Y-79437688D01*
X165418412Y-78799037D01*
X165382908Y-78122473D01*
X165192304Y-77662312D01*
X164927977Y-77546883D01*
X163924860Y-78550000D01*
X163475140Y-78550000D01*
X163460998Y-78535858D01*
X163685858Y-78310998D01*
X163700000Y-78325140D01*
X164703117Y-77322023D01*
X164587688Y-77057696D01*
X163949037Y-76831588D01*
X163272473Y-76867092D01*
X162812312Y-77057696D01*
X162702738Y-77308615D01*
X162702738Y-75750000D01*
X162675195Y-75603622D01*
X162588686Y-75469183D01*
X162456688Y-75378992D01*
X162300000Y-75347262D01*
X160100000Y-75347262D01*
X159953622Y-75374805D01*
X159819183Y-75461314D01*
X159728992Y-75593312D01*
X159697262Y-75750000D01*
X159697262Y-77616958D01*
X159600000Y-77597262D01*
X158400000Y-77597262D01*
X158253622Y-77624805D01*
X158119183Y-77711314D01*
X158028992Y-77843312D01*
X157997262Y-78000000D01*
X157997262Y-79000000D01*
X158024805Y-79146378D01*
X158078838Y-79230347D01*
X158058428Y-79238801D01*
X157888801Y-79408428D01*
X157797000Y-79630056D01*
X151745017Y-79630056D01*
X151745129Y-79502461D01*
X151645000Y-79260131D01*
X151645000Y-76939354D01*
X151744870Y-76698840D01*
X151745129Y-76402461D01*
X151631948Y-76128543D01*
X151422559Y-75918788D01*
X151148840Y-75805130D01*
X150852461Y-75804871D01*
X150578543Y-75918052D01*
X150368788Y-76127441D01*
X150255130Y-76401160D01*
X150254871Y-76697539D01*
X138144914Y-76697539D01*
X138145129Y-76452461D01*
X138031948Y-76178543D01*
X137822559Y-75968788D01*
X137548840Y-75855130D01*
X137252461Y-75854871D01*
X136978543Y-75968052D01*
X136900003Y-76046455D01*
X136772559Y-75918788D01*
X136498840Y-75805130D01*
X136202461Y-75804871D01*
X135928543Y-75918052D01*
X135718788Y-76127441D01*
X135605130Y-76401160D01*
X135604871Y-76697539D01*
X135718052Y-76971457D01*
X135927441Y-77181212D01*
X136005000Y-77213417D01*
X136005000Y-80591379D01*
X135924828Y-80671411D01*
X135722559Y-80468788D01*
X135448840Y-80355130D01*
X135152461Y-80354871D01*
X134878543Y-80468052D01*
X134791443Y-80555000D01*
X133408621Y-80555000D01*
X133322559Y-80468788D01*
X133048840Y-80355130D01*
X132752461Y-80354871D01*
X132478543Y-80468052D01*
X132345000Y-80601362D01*
X132345000Y-80508621D01*
X132431212Y-80422559D01*
X132544870Y-80148840D01*
X132545129Y-79852461D01*
X132431948Y-79578543D01*
X132222559Y-79368788D01*
X131948840Y-79255130D01*
X131652461Y-79254871D01*
X131378543Y-79368052D01*
X131168788Y-79577441D01*
X131095025Y-79755083D01*
X130904824Y-79754917D01*
X130831948Y-79578543D01*
X130622559Y-79368788D01*
X130348840Y-79255130D01*
X130052461Y-79254871D01*
X129778543Y-79368052D01*
X129568788Y-79577441D01*
X129495025Y-79755083D01*
X129252461Y-79754871D01*
X128978543Y-79868052D01*
X128768788Y-80077441D01*
X128655130Y-80351160D01*
X128654871Y-80647539D01*
X128100999Y-80647539D01*
X128045000Y-80591443D01*
X128045000Y-80108621D01*
X128131212Y-80022559D01*
X128244870Y-79748840D01*
X128245129Y-79452461D01*
X128131948Y-79178543D01*
X127922559Y-78968788D01*
X127648840Y-78855130D01*
X127352461Y-78854871D01*
X127078543Y-78968052D01*
X126868788Y-79177441D01*
X126755130Y-79451160D01*
X126754871Y-79747539D01*
X122895000Y-79747539D01*
X122895000Y-78045000D01*
X133399922Y-78045000D01*
X133547539Y-78045129D01*
X133821457Y-77931948D01*
X133926791Y-77826797D01*
X133926795Y-77826795D01*
X133926797Y-77826791D01*
X134031212Y-77722559D01*
X134144870Y-77448840D01*
X134145129Y-77152461D01*
X134031948Y-76878543D01*
X133978589Y-76825090D01*
X134031212Y-76772559D01*
X134144870Y-76498840D01*
X134145129Y-76202461D01*
X134031948Y-75928543D01*
X133822559Y-75718788D01*
X133766083Y-75695337D01*
X133335373Y-75264627D01*
X133194385Y-75170422D01*
X133244870Y-75048840D01*
X133245129Y-74752461D01*
X133131948Y-74478543D01*
X132922559Y-74268788D01*
X132648840Y-74155130D01*
X132352461Y-74154871D01*
X132078543Y-74268052D01*
X131991443Y-74355000D01*
X131558621Y-74355000D01*
X131472559Y-74268788D01*
X131198840Y-74155130D01*
X130902461Y-74154871D01*
X130628543Y-74268052D01*
X130418788Y-74477441D01*
X130305130Y-74751160D01*
X130304871Y-75047539D01*
X130328613Y-75105000D01*
X126889354Y-75105000D01*
X126648840Y-75005130D01*
X126352461Y-75004871D01*
X126078543Y-75118052D01*
X125868788Y-75327441D01*
X125755130Y-75601160D01*
X125754871Y-75897539D01*
X125819933Y-76055000D01*
X116325746Y-76055000D01*
X115835373Y-75564627D01*
X115658563Y-75446486D01*
X115450000Y-75405000D01*
X113450000Y-75405000D01*
X113241437Y-75446486D01*
X113064627Y-75564627D01*
X109514627Y-79114627D01*
X109396486Y-79291437D01*
X109367395Y-79437688D01*
X109355000Y-79500000D01*
X109355000Y-80391379D01*
X109268788Y-80477441D01*
X109155130Y-80751160D01*
X109154871Y-81047539D01*
X106000999Y-81047539D01*
X105822559Y-80868788D01*
X105548840Y-80755130D01*
X105252461Y-80754871D01*
X105159914Y-80793111D01*
X105034689Y-80481706D01*
X104713556Y-80153850D01*
X104389636Y-79997023D01*
X104209000Y-80110130D01*
X103891000Y-80110130D01*
X103710364Y-79997023D01*
X103386444Y-80153850D01*
X103065311Y-80481706D01*
X102894088Y-80907498D01*
X102803000Y-80907498D01*
X102803000Y-80859750D01*
X102652250Y-80709000D01*
X101509000Y-80709000D01*
X101191000Y-80709000D01*
X101171000Y-80709000D01*
X101171000Y-80391000D01*
X101191000Y-80391000D01*
X101191000Y-79247750D01*
X101509000Y-79247750D01*
X101509000Y-80391000D01*
X102652250Y-80391000D01*
X102803000Y-80240250D01*
X102803000Y-79580056D01*
X102711199Y-79358428D01*
X102541572Y-79188801D01*
X102319944Y-79097000D01*
X101659750Y-79097000D01*
X101509000Y-79247750D01*
X101191000Y-79247750D01*
X101040250Y-79097000D01*
X100470000Y-79097000D01*
X100470000Y-73095182D01*
X148479678Y-73095182D01*
X148631878Y-73390651D01*
X149379302Y-73666904D01*
X150175550Y-73636102D01*
X150768122Y-73390651D01*
X150920322Y-73095182D01*
X149700000Y-71874860D01*
X148479678Y-73095182D01*
X100470000Y-73095182D01*
X100470000Y-68546290D01*
X100518850Y-68300703D01*
X100631744Y-68131744D01*
X100800703Y-68018850D01*
X101046290Y-67970000D01*
X125705000Y-67970000D01*
X125705000Y-68445000D01*
X125705000Y-68445000D01*
G37*
X125705000Y-68445000D02*
X123010000Y-68445000D01*
X122801437Y-68486486D01*
X122624627Y-68604627D01*
X122374277Y-68854977D01*
X122252461Y-68854871D01*
X121978543Y-68968052D01*
X121768788Y-69177441D01*
X121655130Y-69451160D01*
X121654871Y-69747539D01*
X121768052Y-70021457D01*
X121977441Y-70231212D01*
X122251160Y-70344870D01*
X122547539Y-70345129D01*
X122821457Y-70231948D01*
X123031212Y-70022559D01*
X123144870Y-69748840D01*
X123144978Y-69625768D01*
X123235746Y-69535000D01*
X127007262Y-69535000D01*
X127007262Y-70405000D01*
X121575746Y-70405000D01*
X120545023Y-69374277D01*
X120545129Y-69252461D01*
X120431948Y-68978543D01*
X120222559Y-68768788D01*
X119948840Y-68655130D01*
X119652461Y-68654871D01*
X119378543Y-68768052D01*
X119168788Y-68977441D01*
X119055130Y-69251160D01*
X119054871Y-69547539D01*
X119168052Y-69821457D01*
X119377441Y-70031212D01*
X119651160Y-70144870D01*
X119774232Y-70144978D01*
X120964627Y-71335373D01*
X121141437Y-71453514D01*
X121350000Y-71495000D01*
X129090000Y-71495000D01*
X129298563Y-71453514D01*
X129475373Y-71335373D01*
X129481444Y-71329302D01*
X147683096Y-71329302D01*
X147713898Y-72125550D01*
X147959349Y-72718122D01*
X148254818Y-72870322D01*
X149475140Y-71650000D01*
X149924860Y-71650000D01*
X151145182Y-72870322D01*
X151440651Y-72718122D01*
X151716904Y-71970698D01*
X151700040Y-71534750D01*
X166697000Y-71534750D01*
X166697000Y-72019944D01*
X166788801Y-72241572D01*
X166958428Y-72411199D01*
X167180056Y-72503000D01*
X168090250Y-72503000D01*
X168241000Y-72352250D01*
X168241000Y-71384000D01*
X166847750Y-71384000D01*
X166697000Y-71534750D01*
X151700040Y-71534750D01*
X151686102Y-71174450D01*
X151440651Y-70581878D01*
X151145182Y-70429678D01*
X149924860Y-71650000D01*
X149475140Y-71650000D01*
X148254818Y-70429678D01*
X147959349Y-70581878D01*
X147683096Y-71329302D01*
X129481444Y-71329302D01*
X129865184Y-70945562D01*
X129950000Y-70962738D01*
X131250000Y-70962738D01*
X131396378Y-70935195D01*
X131530817Y-70848686D01*
X131621008Y-70716688D01*
X131652738Y-70560000D01*
X131652738Y-68645000D01*
X132087262Y-68645000D01*
X132087262Y-70560000D01*
X132114805Y-70706378D01*
X132201314Y-70840817D01*
X132333312Y-70931008D01*
X132490000Y-70962738D01*
X133790000Y-70962738D01*
X133936378Y-70935195D01*
X134070817Y-70848686D01*
X134161008Y-70716688D01*
X134192738Y-70560000D01*
X134192738Y-69869750D01*
X134427000Y-69869750D01*
X134427000Y-70679944D01*
X134518801Y-70901572D01*
X134688428Y-71071199D01*
X134910056Y-71163000D01*
X135370250Y-71163000D01*
X135521000Y-71012250D01*
X135521000Y-69719000D01*
X135839000Y-69719000D01*
X135839000Y-71012250D01*
X135989750Y-71163000D01*
X136449944Y-71163000D01*
X136671572Y-71071199D01*
X136841199Y-70901572D01*
X136933000Y-70679944D01*
X136933000Y-70204818D01*
X148479678Y-70204818D01*
X149700000Y-71425140D01*
X150920322Y-70204818D01*
X150768122Y-69909349D01*
X150020698Y-69633096D01*
X149224450Y-69663898D01*
X148631878Y-69909349D01*
X148479678Y-70204818D01*
X136933000Y-70204818D01*
X136933000Y-69869750D01*
X136782250Y-69719000D01*
X135839000Y-69719000D01*
X135521000Y-69719000D01*
X134577750Y-69719000D01*
X134427000Y-69869750D01*
X134192738Y-69869750D01*
X134192738Y-69484750D01*
X166697000Y-69484750D01*
X166697000Y-69969944D01*
X166788801Y-70191572D01*
X166797229Y-70200000D01*
X166788801Y-70208428D01*
X166697000Y-70430056D01*
X166697000Y-70915250D01*
X166847750Y-71066000D01*
X168241000Y-71066000D01*
X168241000Y-69334000D01*
X166847750Y-69334000D01*
X166697000Y-69484750D01*
X134192738Y-69484750D01*
X134192738Y-68560000D01*
X134165195Y-68413622D01*
X134078686Y-68279183D01*
X133946688Y-68188992D01*
X133895000Y-68178525D01*
X133895000Y-67970000D01*
X134878671Y-67970000D01*
X134688428Y-68048801D01*
X134518801Y-68218428D01*
X134427000Y-68440056D01*
X134427000Y-69250250D01*
X134577750Y-69401000D01*
X135521000Y-69401000D01*
X135521000Y-69381000D01*
X135839000Y-69381000D01*
X135839000Y-69401000D01*
X136782250Y-69401000D01*
X136933000Y-69250250D01*
X136933000Y-68440056D01*
X136841199Y-68218428D01*
X136671572Y-68048801D01*
X136481329Y-67970000D01*
X167003818Y-67970000D01*
X166958428Y-67988801D01*
X166788801Y-68158428D01*
X166697000Y-68380056D01*
X166697000Y-68865250D01*
X166847750Y-69016000D01*
X168241000Y-69016000D01*
X168241000Y-68996000D01*
X168559000Y-68996000D01*
X168559000Y-69016000D01*
X168579000Y-69016000D01*
X168579000Y-69334000D01*
X168559000Y-69334000D01*
X168559000Y-71066000D01*
X168579000Y-71066000D01*
X168579000Y-71384000D01*
X168559000Y-71384000D01*
X168559000Y-72352250D01*
X168709750Y-72503000D01*
X169619944Y-72503000D01*
X169841572Y-72411199D01*
X170011199Y-72241572D01*
X170030000Y-72196182D01*
X170030000Y-78200000D01*
X170046668Y-78283795D01*
X170061058Y-78368017D01*
X170064512Y-78373503D01*
X170065777Y-78379861D01*
X170113245Y-78450903D01*
X170158768Y-78523203D01*
X170164058Y-78526949D01*
X170167660Y-78532340D01*
X170238699Y-78579806D01*
X170308427Y-78629185D01*
X172232665Y-79488096D01*
X173617450Y-80950125D01*
X174010799Y-81977742D01*
X173859000Y-82058310D01*
X173859000Y-83591000D01*
X173879000Y-83591000D01*
X173879000Y-83909000D01*
X173859000Y-83909000D01*
X173859000Y-85441690D01*
X173978985Y-85505372D01*
X173617450Y-86449875D01*
X172232665Y-87911904D01*
X170308427Y-88770815D01*
X170238699Y-88820194D01*
X170167660Y-88867660D01*
X170164058Y-88873051D01*
X170158768Y-88876797D01*
X170113245Y-88949097D01*
X170065777Y-89020139D01*
X170064512Y-89026497D01*
X170061058Y-89031983D01*
X170046668Y-89116205D01*
X170030000Y-89200000D01*
X170030000Y-95303818D01*
X170011199Y-95258428D01*
X169841572Y-95088801D01*
X169619944Y-94997000D01*
X168709750Y-94997000D01*
X168559000Y-95147750D01*
X168559000Y-96116000D01*
X168579000Y-96116000D01*
X168579000Y-96434000D01*
X168559000Y-96434000D01*
X168559000Y-98166000D01*
X168579000Y-98166000D01*
X168579000Y-98484000D01*
X168559000Y-98484000D01*
X168559000Y-98504000D01*
X168241000Y-98504000D01*
X168241000Y-98484000D01*
X166847750Y-98484000D01*
X166697000Y-98634750D01*
X166697000Y-99119944D01*
X166788801Y-99341572D01*
X166958428Y-99511199D01*
X167003818Y-99530000D01*
X138970000Y-99530000D01*
X138970000Y-99500000D01*
X138934223Y-99320139D01*
X138832340Y-99167660D01*
X138679861Y-99065777D01*
X138500000Y-99030000D01*
X123500000Y-99030000D01*
X123320139Y-99065777D01*
X123167660Y-99167660D01*
X123065777Y-99320139D01*
X123030000Y-99500000D01*
X123030000Y-99530000D01*
X101046290Y-99530000D01*
X100800703Y-99481150D01*
X100631744Y-99368256D01*
X100518850Y-99199297D01*
X100470000Y-98953710D01*
X100470000Y-94747539D01*
X126154871Y-94747539D01*
X126268052Y-95021457D01*
X126477441Y-95231212D01*
X126751160Y-95344870D01*
X127047539Y-95345129D01*
X127108010Y-95320143D01*
X127121314Y-95340817D01*
X127253312Y-95431008D01*
X127410000Y-95462738D01*
X128710000Y-95462738D01*
X128856378Y-95435195D01*
X128990817Y-95348686D01*
X129081008Y-95216688D01*
X129112738Y-95060000D01*
X129112738Y-93060000D01*
X129547262Y-93060000D01*
X129547262Y-95060000D01*
X129574805Y-95206378D01*
X129661314Y-95340817D01*
X129793312Y-95431008D01*
X129950000Y-95462738D01*
X130105000Y-95462738D01*
X130105000Y-95741292D01*
X130068788Y-95777441D01*
X129955130Y-96051160D01*
X129954871Y-96347539D01*
X130068052Y-96621457D01*
X130277441Y-96831212D01*
X130551160Y-96944870D01*
X130847539Y-96945129D01*
X131121457Y-96831948D01*
X131331212Y-96622559D01*
X131346911Y-96584750D01*
X166697000Y-96584750D01*
X166697000Y-97069944D01*
X166788801Y-97291572D01*
X166797229Y-97300000D01*
X166788801Y-97308428D01*
X166697000Y-97530056D01*
X166697000Y-98015250D01*
X166847750Y-98166000D01*
X168241000Y-98166000D01*
X168241000Y-96434000D01*
X166847750Y-96434000D01*
X166697000Y-96584750D01*
X131346911Y-96584750D01*
X131444870Y-96348840D01*
X131445129Y-96052461D01*
X131331948Y-95778543D01*
X131195000Y-95641356D01*
X131195000Y-95480056D01*
X166697000Y-95480056D01*
X166697000Y-95965250D01*
X166847750Y-96116000D01*
X168241000Y-96116000D01*
X168241000Y-95147750D01*
X168090250Y-94997000D01*
X167180056Y-94997000D01*
X166958428Y-95088801D01*
X166788801Y-95258428D01*
X166697000Y-95480056D01*
X131195000Y-95480056D01*
X131195000Y-95462738D01*
X131250000Y-95462738D01*
X131396378Y-95435195D01*
X131530817Y-95348686D01*
X131621008Y-95216688D01*
X131652738Y-95060000D01*
X131652738Y-93060000D01*
X132087262Y-93060000D01*
X132087262Y-95060000D01*
X132114805Y-95206378D01*
X132201314Y-95340817D01*
X132333312Y-95431008D01*
X132490000Y-95462738D01*
X133790000Y-95462738D01*
X133936378Y-95435195D01*
X134070817Y-95348686D01*
X134134808Y-95255033D01*
X134351160Y-95344870D01*
X134647539Y-95345129D01*
X134723810Y-95313614D01*
X134741314Y-95340817D01*
X134873312Y-95431008D01*
X135030000Y-95462738D01*
X136330000Y-95462738D01*
X136476378Y-95435195D01*
X136610817Y-95348686D01*
X136701008Y-95216688D01*
X136732738Y-95060000D01*
X136732738Y-93060000D01*
X136705195Y-92913622D01*
X136618686Y-92779183D01*
X136486688Y-92688992D01*
X136330000Y-92657262D01*
X135030000Y-92657262D01*
X134883622Y-92684805D01*
X134749183Y-92771314D01*
X134658992Y-92903312D01*
X134627262Y-93060000D01*
X134627262Y-93855111D01*
X134352461Y-93854871D01*
X134192738Y-93920867D01*
X134192738Y-93060000D01*
X134165195Y-92913622D01*
X134078686Y-92779183D01*
X133946688Y-92688992D01*
X133891329Y-92677782D01*
X133944870Y-92548840D01*
X133945129Y-92252461D01*
X133831948Y-91978543D01*
X133622559Y-91768788D01*
X133348840Y-91655130D01*
X133052461Y-91654871D01*
X132778543Y-91768052D01*
X132568788Y-91977441D01*
X132455130Y-92251160D01*
X132454871Y-92547539D01*
X132500208Y-92657262D01*
X132490000Y-92657262D01*
X132343622Y-92684805D01*
X132209183Y-92771314D01*
X132118992Y-92903312D01*
X132087262Y-93060000D01*
X131652738Y-93060000D01*
X131625195Y-92913622D01*
X131538686Y-92779183D01*
X131406688Y-92688992D01*
X131250000Y-92657262D01*
X129950000Y-92657262D01*
X129803622Y-92684805D01*
X129669183Y-92771314D01*
X129578992Y-92903312D01*
X129547262Y-93060000D01*
X129112738Y-93060000D01*
X129085195Y-92913622D01*
X128998686Y-92779183D01*
X128866688Y-92688992D01*
X128710000Y-92657262D01*
X127410000Y-92657262D01*
X127263622Y-92684805D01*
X127129183Y-92771314D01*
X127038992Y-92903312D01*
X127007262Y-93060000D01*
X127007262Y-93855094D01*
X126752461Y-93854871D01*
X126478543Y-93968052D01*
X126268788Y-94177441D01*
X126155130Y-94451160D01*
X126154871Y-94747539D01*
X100470000Y-94747539D01*
X100470000Y-93415182D01*
X103979678Y-93415182D01*
X104131878Y-93710651D01*
X104879302Y-93986904D01*
X105675550Y-93956102D01*
X106268122Y-93710651D01*
X106420322Y-93415182D01*
X105200000Y-92194860D01*
X103979678Y-93415182D01*
X100470000Y-93415182D01*
X100470000Y-91649302D01*
X103183096Y-91649302D01*
X103213898Y-92445550D01*
X103459349Y-93038122D01*
X103754818Y-93190322D01*
X104975140Y-91970000D01*
X105424860Y-91970000D01*
X106645182Y-93190322D01*
X106940651Y-93038122D01*
X107216904Y-92290698D01*
X107186102Y-91494450D01*
X107125250Y-91347539D01*
X115154871Y-91347539D01*
X115268052Y-91621457D01*
X115477441Y-91831212D01*
X115751160Y-91944870D01*
X116047539Y-91945129D01*
X116321457Y-91831948D01*
X116531212Y-91622559D01*
X116631763Y-91380405D01*
X119180770Y-88831398D01*
X119412767Y-88735538D01*
X119448428Y-88771199D01*
X119670056Y-88863000D01*
X120130250Y-88863000D01*
X120281000Y-88712250D01*
X120281000Y-87419000D01*
X120599000Y-87419000D01*
X120599000Y-88712250D01*
X120749750Y-88863000D01*
X121209944Y-88863000D01*
X121431572Y-88771199D01*
X121601199Y-88601572D01*
X121693000Y-88379944D01*
X121693000Y-87569750D01*
X121542250Y-87419000D01*
X120599000Y-87419000D01*
X120281000Y-87419000D01*
X119337750Y-87419000D01*
X119327453Y-87429297D01*
X119148840Y-87355130D01*
X118852461Y-87354871D01*
X118578543Y-87468052D01*
X118368788Y-87677441D01*
X118268237Y-87919595D01*
X115719230Y-90468602D01*
X115478543Y-90568052D01*
X115268788Y-90777441D01*
X115155130Y-91051160D01*
X115154871Y-91347539D01*
X107125250Y-91347539D01*
X106940651Y-90901878D01*
X106645182Y-90749678D01*
X105424860Y-91970000D01*
X104975140Y-91970000D01*
X103754818Y-90749678D01*
X103459349Y-90901878D01*
X103183096Y-91649302D01*
X100470000Y-91649302D01*
X100470000Y-90524818D01*
X103979678Y-90524818D01*
X105200000Y-91745140D01*
X106420322Y-90524818D01*
X106268122Y-90229349D01*
X105520698Y-89953096D01*
X104724450Y-89983898D01*
X104131878Y-90229349D01*
X103979678Y-90524818D01*
X100470000Y-90524818D01*
X100470000Y-88403000D01*
X101040250Y-88403000D01*
X101191000Y-88252250D01*
X101191000Y-87109000D01*
X101509000Y-87109000D01*
X101509000Y-88252250D01*
X101659750Y-88403000D01*
X102319944Y-88403000D01*
X102541572Y-88311199D01*
X102711199Y-88141572D01*
X102803000Y-87919944D01*
X102803000Y-87259750D01*
X102652250Y-87109000D01*
X101509000Y-87109000D01*
X101191000Y-87109000D01*
X101171000Y-87109000D01*
X101171000Y-86791000D01*
X101191000Y-86791000D01*
X101191000Y-85647750D01*
X101509000Y-85647750D01*
X101509000Y-86791000D01*
X102652250Y-86791000D01*
X102803000Y-86640250D01*
X102803000Y-86592502D01*
X102894088Y-86592502D01*
X103065311Y-87018294D01*
X103386444Y-87346150D01*
X103710364Y-87502977D01*
X103891000Y-87389870D01*
X103891000Y-86409000D01*
X103025044Y-86409000D01*
X102894088Y-86592502D01*
X102803000Y-86592502D01*
X102803000Y-85980056D01*
X102772946Y-85907498D01*
X102894088Y-85907498D01*
X103025044Y-86091000D01*
X103891000Y-86091000D01*
X103891000Y-85110130D01*
X103710364Y-84997023D01*
X103386444Y-85153850D01*
X103065311Y-85481706D01*
X102894088Y-85907498D01*
X102772946Y-85907498D01*
X102711199Y-85758428D01*
X102541572Y-85588801D01*
X102319944Y-85497000D01*
X101659750Y-85497000D01*
X101509000Y-85647750D01*
X101191000Y-85647750D01*
X101040250Y-85497000D01*
X100470000Y-85497000D01*
X100470000Y-82003000D01*
X101040250Y-82003000D01*
X101191000Y-81852250D01*
X101191000Y-80709000D01*
X101509000Y-80709000D01*
X101509000Y-81852250D01*
X101659750Y-82003000D01*
X102319944Y-82003000D01*
X102541572Y-81911199D01*
X102711199Y-81741572D01*
X102772945Y-81592502D01*
X102894088Y-81592502D01*
X103065311Y-82018294D01*
X103386444Y-82346150D01*
X103710364Y-82502977D01*
X103891000Y-82389870D01*
X103891000Y-81409000D01*
X103025044Y-81409000D01*
X102894088Y-81592502D01*
X102772945Y-81592502D01*
X102803000Y-81519944D01*
X102803000Y-80907498D01*
X102894088Y-80907498D01*
X103025044Y-81091000D01*
X103891000Y-81091000D01*
X103891000Y-80110130D01*
X104209000Y-80110130D01*
X104209000Y-81091000D01*
X104229000Y-81091000D01*
X104229000Y-81409000D01*
X104209000Y-81409000D01*
X104209000Y-82389870D01*
X104389636Y-82502977D01*
X104713556Y-82346150D01*
X104855000Y-82201745D01*
X104855000Y-85298255D01*
X104713556Y-85153850D01*
X104389636Y-84997023D01*
X104209000Y-85110130D01*
X104209000Y-86091000D01*
X104229000Y-86091000D01*
X104229000Y-86409000D01*
X104209000Y-86409000D01*
X104209000Y-87389870D01*
X104389636Y-87502977D01*
X104713556Y-87346150D01*
X104855000Y-87201745D01*
X104855000Y-87991379D01*
X104768788Y-88077441D01*
X104655130Y-88351160D01*
X104654871Y-88647539D01*
X104768052Y-88921457D01*
X104977441Y-89131212D01*
X105251160Y-89244870D01*
X105547539Y-89245129D01*
X105821457Y-89131948D01*
X106031212Y-88922559D01*
X106144870Y-88648840D01*
X106145129Y-88352461D01*
X106031948Y-88078543D01*
X105945000Y-87991443D01*
X105945000Y-82008621D01*
X106031212Y-81922559D01*
X106144870Y-81648840D01*
X106145129Y-81352461D01*
X106031948Y-81078543D01*
X106000999Y-81047539D01*
X109154871Y-81047539D01*
X109268052Y-81321457D01*
X109477441Y-81531212D01*
X109751160Y-81644870D01*
X110047539Y-81645129D01*
X110321457Y-81531948D01*
X110531212Y-81322559D01*
X110644870Y-81048840D01*
X110645129Y-80752461D01*
X110531948Y-80478543D01*
X110445000Y-80391443D01*
X110445000Y-79725746D01*
X113675746Y-76495000D01*
X113898907Y-76495000D01*
X113814901Y-76511710D01*
X113573205Y-76673205D01*
X113573203Y-76673208D01*
X111473205Y-78773205D01*
X111473203Y-78773209D01*
X111368788Y-78877441D01*
X111255130Y-79151160D01*
X111255000Y-79299995D01*
X111254999Y-79300000D01*
X111255000Y-79300005D01*
X111254871Y-79447539D01*
X111255000Y-79447851D01*
X111255000Y-81691410D01*
X111173205Y-81773205D01*
X111173203Y-81773209D01*
X111068788Y-81877441D01*
X111059992Y-81898625D01*
X111023205Y-81923205D01*
X110861710Y-82164901D01*
X110805000Y-82450000D01*
X110805000Y-85999922D01*
X110804871Y-86147539D01*
X110918052Y-86421457D01*
X111023203Y-86526791D01*
X111023205Y-86526795D01*
X111023209Y-86526797D01*
X111127441Y-86631212D01*
X111401160Y-86744870D01*
X111697539Y-86745129D01*
X111971457Y-86631948D01*
X112076791Y-86526797D01*
X112076795Y-86526795D01*
X112076797Y-86526791D01*
X112155045Y-86448681D01*
X112154871Y-86647539D01*
X112268052Y-86921457D01*
X112355000Y-87008557D01*
X112355000Y-87700000D01*
X112396486Y-87908563D01*
X112514627Y-88085373D01*
X112554977Y-88125723D01*
X112554871Y-88247539D01*
X112668052Y-88521457D01*
X112877441Y-88731212D01*
X113151160Y-88844870D01*
X113447539Y-88845129D01*
X113721457Y-88731948D01*
X113931212Y-88522559D01*
X114044870Y-88248840D01*
X114045129Y-87952461D01*
X113931948Y-87678543D01*
X113722559Y-87468788D01*
X113448840Y-87355130D01*
X113445000Y-87355127D01*
X113445000Y-87008621D01*
X113531212Y-86922559D01*
X113644870Y-86648840D01*
X113645129Y-86352461D01*
X113557365Y-86140056D01*
X119187000Y-86140056D01*
X119187000Y-86950250D01*
X119337750Y-87101000D01*
X120281000Y-87101000D01*
X120281000Y-85807750D01*
X120599000Y-85807750D01*
X120599000Y-87101000D01*
X121542250Y-87101000D01*
X121693000Y-86950250D01*
X121693000Y-86253006D01*
X121714627Y-86285373D01*
X121927262Y-86498008D01*
X121927262Y-88260000D01*
X121954805Y-88406378D01*
X122041314Y-88540817D01*
X122173312Y-88631008D01*
X122330000Y-88662738D01*
X123191846Y-88662738D01*
X123155130Y-88751160D01*
X123154871Y-89047539D01*
X123268052Y-89321457D01*
X123477441Y-89531212D01*
X123751160Y-89644870D01*
X124047539Y-89645129D01*
X124321457Y-89531948D01*
X124374953Y-89478545D01*
X124477441Y-89581212D01*
X124751160Y-89694870D01*
X124784354Y-89694899D01*
X124214627Y-90264627D01*
X124096486Y-90441437D01*
X124071301Y-90568052D01*
X124055000Y-90650000D01*
X124055000Y-92941379D01*
X123968788Y-93027441D01*
X123855130Y-93301160D01*
X123854871Y-93597539D01*
X123968052Y-93871457D01*
X124177441Y-94081212D01*
X124451160Y-94194870D01*
X124747539Y-94195129D01*
X125021457Y-94081948D01*
X125231212Y-93872559D01*
X125344870Y-93598840D01*
X125345129Y-93302461D01*
X125231948Y-93028543D01*
X125145000Y-92941443D01*
X125145000Y-90875746D01*
X125985374Y-90035373D01*
X126103514Y-89858562D01*
X126145000Y-89650000D01*
X126145000Y-87108621D01*
X126231212Y-87022559D01*
X126303886Y-86847539D01*
X131154871Y-86847539D01*
X131268052Y-87121457D01*
X131477441Y-87331212D01*
X131655083Y-87404975D01*
X131654871Y-87647539D01*
X131768052Y-87921457D01*
X131977441Y-88131212D01*
X132251160Y-88244870D01*
X132547539Y-88245129D01*
X132821457Y-88131948D01*
X132908557Y-88045000D01*
X136641379Y-88045000D01*
X136727441Y-88131212D01*
X137001160Y-88244870D01*
X137297539Y-88245129D01*
X137571457Y-88131948D01*
X137781212Y-87922559D01*
X137894870Y-87648840D01*
X137895089Y-87397539D01*
X156954871Y-87397539D01*
X157068052Y-87671457D01*
X157277441Y-87881212D01*
X157551160Y-87994870D01*
X157847539Y-87995129D01*
X158037770Y-87916527D01*
X158111314Y-88030817D01*
X158243312Y-88121008D01*
X158400000Y-88152738D01*
X159600000Y-88152738D01*
X159700538Y-88133820D01*
X159697262Y-88150000D01*
X159697262Y-90350000D01*
X159724805Y-90496378D01*
X159811314Y-90630817D01*
X159943312Y-90721008D01*
X160100000Y-90752738D01*
X162300000Y-90752738D01*
X162446378Y-90725195D01*
X162580817Y-90638686D01*
X162671008Y-90506688D01*
X162702738Y-90350000D01*
X162702738Y-89291385D01*
X162812312Y-89542304D01*
X163450963Y-89768412D01*
X164127527Y-89732908D01*
X164587688Y-89542304D01*
X164703117Y-89277977D01*
X163700000Y-88274860D01*
X163685858Y-88289003D01*
X163460998Y-88064143D01*
X163475140Y-88050000D01*
X163924860Y-88050000D01*
X164927977Y-89053117D01*
X165192304Y-88937688D01*
X165418412Y-88299037D01*
X165382908Y-87622473D01*
X165192304Y-87162312D01*
X164927977Y-87046883D01*
X163924860Y-88050000D01*
X163475140Y-88050000D01*
X162472023Y-87046883D01*
X162207696Y-87162312D01*
X162000600Y-87747262D01*
X160100000Y-87747262D01*
X159999462Y-87766180D01*
X160002738Y-87750000D01*
X160002738Y-86822023D01*
X162696883Y-86822023D01*
X163700000Y-87825140D01*
X164703117Y-86822023D01*
X164587688Y-86557696D01*
X163949037Y-86331588D01*
X163272473Y-86367092D01*
X162812312Y-86557696D01*
X162696883Y-86822023D01*
X160002738Y-86822023D01*
X160002738Y-86750000D01*
X159975195Y-86603622D01*
X159888686Y-86469183D01*
X159756688Y-86378992D01*
X159742003Y-86376018D01*
X159746378Y-86375195D01*
X159880817Y-86288686D01*
X159971008Y-86156688D01*
X160002738Y-86000000D01*
X160002738Y-85268008D01*
X160865802Y-84404944D01*
X160921457Y-84381948D01*
X161131212Y-84172559D01*
X161240651Y-83909000D01*
X172347000Y-83909000D01*
X172347000Y-84409000D01*
X172510838Y-84914668D01*
X172855715Y-85319146D01*
X173332768Y-85552210D01*
X173541000Y-85441690D01*
X173541000Y-83909000D01*
X172347000Y-83909000D01*
X161240651Y-83909000D01*
X161244870Y-83898840D01*
X161245129Y-83602461D01*
X161131948Y-83328543D01*
X160922559Y-83118788D01*
X160866083Y-83095337D01*
X160861746Y-83091000D01*
X172347000Y-83091000D01*
X172347000Y-83591000D01*
X173541000Y-83591000D01*
X173541000Y-82058310D01*
X173332768Y-81947790D01*
X172855715Y-82180854D01*
X172510838Y-82585332D01*
X172347000Y-83091000D01*
X160861746Y-83091000D01*
X160002738Y-82231992D01*
X160002738Y-81500000D01*
X159975195Y-81353622D01*
X159921162Y-81269653D01*
X159941572Y-81261199D01*
X160111199Y-81091572D01*
X160203000Y-80869944D01*
X160203000Y-80559750D01*
X160052250Y-80409000D01*
X159159000Y-80409000D01*
X159159000Y-80429000D01*
X158841000Y-80429000D01*
X158841000Y-80409000D01*
X157947750Y-80409000D01*
X157797000Y-80559750D01*
X157797000Y-80869944D01*
X157888801Y-81091572D01*
X158058428Y-81261199D01*
X158079215Y-81269809D01*
X158028992Y-81343312D01*
X157997262Y-81500000D01*
X157997262Y-82500000D01*
X158024805Y-82646378D01*
X158078838Y-82730347D01*
X158058428Y-82738801D01*
X157888801Y-82908428D01*
X157797000Y-83130056D01*
X157797000Y-83440250D01*
X157947750Y-83591000D01*
X158841000Y-83591000D01*
X158841000Y-83571000D01*
X159159000Y-83571000D01*
X159159000Y-83591000D01*
X159179000Y-83591000D01*
X159179000Y-83909000D01*
X159159000Y-83909000D01*
X159159000Y-83929000D01*
X158841000Y-83929000D01*
X158841000Y-83909000D01*
X157947750Y-83909000D01*
X157797000Y-84059750D01*
X157797000Y-84369944D01*
X157888801Y-84591572D01*
X158058428Y-84761199D01*
X158079215Y-84769809D01*
X158028992Y-84843312D01*
X157997262Y-85000000D01*
X157997262Y-86000000D01*
X158024805Y-86146378D01*
X158111314Y-86280817D01*
X158243312Y-86371008D01*
X158257997Y-86373982D01*
X158253622Y-86374805D01*
X158119183Y-86461314D01*
X158036112Y-86582892D01*
X157848840Y-86505130D01*
X157552461Y-86504871D01*
X157278543Y-86618052D01*
X157068788Y-86827441D01*
X156955130Y-87101160D01*
X156954871Y-87397539D01*
X137895089Y-87397539D01*
X137895129Y-87352461D01*
X137781948Y-87078543D01*
X137572559Y-86868788D01*
X137298840Y-86755130D01*
X137002461Y-86754871D01*
X136728543Y-86868052D01*
X136641443Y-86955000D01*
X135165746Y-86955000D01*
X136395744Y-85725002D01*
X136686878Y-85725002D01*
X136768052Y-85921457D01*
X136977441Y-86131212D01*
X137251160Y-86244870D01*
X137547539Y-86245129D01*
X137821457Y-86131948D01*
X137899953Y-86053589D01*
X137977441Y-86131212D01*
X138251160Y-86244870D01*
X138547539Y-86245129D01*
X138821457Y-86131948D01*
X138855926Y-86097539D01*
X151154871Y-86097539D01*
X151268052Y-86371457D01*
X151477441Y-86581212D01*
X151751160Y-86694870D01*
X152047539Y-86695129D01*
X152321457Y-86581948D01*
X152358470Y-86545000D01*
X154141379Y-86545000D01*
X154227441Y-86631212D01*
X154501160Y-86744870D01*
X154797539Y-86745129D01*
X155071457Y-86631948D01*
X155281212Y-86422559D01*
X155394870Y-86148840D01*
X155395129Y-85852461D01*
X155281948Y-85578543D01*
X155072559Y-85368788D01*
X154798840Y-85255130D01*
X154502461Y-85254871D01*
X154228543Y-85368052D01*
X154141443Y-85455000D01*
X153438503Y-85455000D01*
X153544870Y-85198840D01*
X153545129Y-84902461D01*
X153431948Y-84628543D01*
X153345000Y-84541443D01*
X153345000Y-83125746D01*
X154725723Y-81745023D01*
X154847539Y-81745129D01*
X155121457Y-81631948D01*
X155331212Y-81422559D01*
X155444870Y-81148840D01*
X155445129Y-80852461D01*
X155331948Y-80578543D01*
X155122559Y-80368788D01*
X154848840Y-80255130D01*
X154552461Y-80254871D01*
X154278543Y-80368052D01*
X154068788Y-80577441D01*
X153955130Y-80851160D01*
X153955022Y-80974232D01*
X152414627Y-82514627D01*
X152296486Y-82691437D01*
X152260767Y-82871008D01*
X152255000Y-82900000D01*
X152255000Y-84541379D01*
X152168788Y-84627441D01*
X152055130Y-84901160D01*
X152054871Y-85197539D01*
X152059906Y-85209725D01*
X152048840Y-85205130D01*
X151752461Y-85204871D01*
X151478543Y-85318052D01*
X151268788Y-85527441D01*
X151155130Y-85801160D01*
X151154871Y-86097539D01*
X138855926Y-86097539D01*
X139031212Y-85922559D01*
X139144870Y-85648840D01*
X139145129Y-85352461D01*
X139031948Y-85078543D01*
X138822559Y-84868788D01*
X138548840Y-84755130D01*
X138425769Y-84755022D01*
X137935373Y-84264627D01*
X137758563Y-84146486D01*
X137550000Y-84105000D01*
X135900000Y-84105000D01*
X135691437Y-84146486D01*
X135514627Y-84264627D01*
X134424254Y-85355000D01*
X132908621Y-85355000D01*
X132822559Y-85268788D01*
X132548840Y-85155130D01*
X132252461Y-85154871D01*
X131978543Y-85268052D01*
X131768788Y-85477441D01*
X131655130Y-85751160D01*
X131654917Y-85995176D01*
X131478543Y-86068052D01*
X131268788Y-86277441D01*
X131155130Y-86551160D01*
X131154871Y-86847539D01*
X126303886Y-86847539D01*
X126344870Y-86748840D01*
X126345129Y-86452461D01*
X126231948Y-86178543D01*
X126022559Y-85968788D01*
X125748840Y-85855130D01*
X125452461Y-85854871D01*
X125445000Y-85857954D01*
X125445000Y-85400000D01*
X125403514Y-85191438D01*
X125334968Y-85088851D01*
X125285373Y-85014626D01*
X124735373Y-84464627D01*
X124558563Y-84346486D01*
X124350000Y-84305000D01*
X123700000Y-84305000D01*
X123491437Y-84346486D01*
X123314627Y-84464627D01*
X122904612Y-84874642D01*
X122678543Y-84968052D01*
X122600047Y-85046411D01*
X122522559Y-84968788D01*
X122248840Y-84855130D01*
X121952461Y-84854871D01*
X121678543Y-84968052D01*
X121468788Y-85177441D01*
X121355130Y-85451160D01*
X121354898Y-85717042D01*
X121209944Y-85657000D01*
X120749750Y-85657000D01*
X120599000Y-85807750D01*
X120281000Y-85807750D01*
X120130250Y-85657000D01*
X119670056Y-85657000D01*
X119448428Y-85748801D01*
X119278801Y-85918428D01*
X119187000Y-86140056D01*
X113557365Y-86140056D01*
X113531948Y-86078543D01*
X113322559Y-85868788D01*
X113048840Y-85755130D01*
X112752461Y-85754871D01*
X112478543Y-85868052D01*
X112294955Y-86051319D01*
X112295129Y-85852461D01*
X112295000Y-85852149D01*
X112295000Y-82758708D01*
X112331212Y-82722559D01*
X112331341Y-82722249D01*
X112526795Y-82526795D01*
X112688290Y-82285099D01*
X112745001Y-82000000D01*
X112745000Y-81999995D01*
X112745000Y-79608590D01*
X114250000Y-78103589D01*
X114473203Y-78326792D01*
X114473205Y-78326795D01*
X114604656Y-78414627D01*
X114714901Y-78488290D01*
X115000000Y-78545001D01*
X115000005Y-78545000D01*
X116099995Y-78545000D01*
X116100000Y-78545001D01*
X116385099Y-78488290D01*
X116626795Y-78326795D01*
X116908589Y-78045000D01*
X121605000Y-78045000D01*
X121605000Y-80410646D01*
X121505130Y-80651160D01*
X121504871Y-80947539D01*
X121618052Y-81221457D01*
X121827441Y-81431212D01*
X122101160Y-81544870D01*
X122397539Y-81545129D01*
X122671457Y-81431948D01*
X122881212Y-81222559D01*
X122994870Y-80948840D01*
X122995129Y-80652461D01*
X122895000Y-80410131D01*
X122895000Y-79747539D01*
X126754871Y-79747539D01*
X126868052Y-80021457D01*
X126955000Y-80108557D01*
X126955000Y-80591379D01*
X126868788Y-80677441D01*
X126755130Y-80951160D01*
X126754871Y-81247539D01*
X126868052Y-81521457D01*
X127077441Y-81731212D01*
X127351160Y-81844870D01*
X127647539Y-81845129D01*
X127921457Y-81731948D01*
X128131212Y-81522559D01*
X128244870Y-81248840D01*
X128245129Y-80952461D01*
X128131948Y-80678543D01*
X128100999Y-80647539D01*
X128654871Y-80647539D01*
X128768052Y-80921457D01*
X128855000Y-81008557D01*
X128855000Y-84591379D01*
X128768788Y-84677441D01*
X128655130Y-84951160D01*
X128654871Y-85247539D01*
X128768052Y-85521457D01*
X128977441Y-85731212D01*
X129251160Y-85844870D01*
X129547539Y-85845129D01*
X129821457Y-85731948D01*
X130031212Y-85522559D01*
X130144870Y-85248840D01*
X130145048Y-85044952D01*
X130347539Y-85045129D01*
X130621457Y-84931948D01*
X130831212Y-84722559D01*
X130944870Y-84448840D01*
X130945048Y-84244952D01*
X131147539Y-84245129D01*
X131421457Y-84131948D01*
X131631212Y-83922559D01*
X131744870Y-83648840D01*
X131745048Y-83444952D01*
X131947539Y-83445129D01*
X132221457Y-83331948D01*
X132431212Y-83122559D01*
X132544870Y-82848840D01*
X132545129Y-82552461D01*
X132431948Y-82278543D01*
X132345000Y-82191443D01*
X132345000Y-81598540D01*
X132477441Y-81731212D01*
X132751160Y-81844870D01*
X133047539Y-81845129D01*
X133321457Y-81731948D01*
X133408557Y-81645000D01*
X134791379Y-81645000D01*
X134877441Y-81731212D01*
X135151160Y-81844870D01*
X135447539Y-81845129D01*
X135721457Y-81731948D01*
X135925172Y-81528589D01*
X136127441Y-81731212D01*
X136401160Y-81844870D01*
X136655004Y-81845092D01*
X136654871Y-81997539D01*
X136768052Y-82271457D01*
X136977441Y-82481212D01*
X137251160Y-82594870D01*
X137547539Y-82595129D01*
X137821457Y-82481948D01*
X138031212Y-82272559D01*
X138144870Y-81998840D01*
X138145129Y-81702461D01*
X138031948Y-81428543D01*
X137945000Y-81341443D01*
X137945000Y-78797539D01*
X144204871Y-78797539D01*
X144318052Y-79071457D01*
X144527441Y-79281212D01*
X144801160Y-79394870D01*
X144905000Y-79394961D01*
X144905000Y-79941379D01*
X144818788Y-80027441D01*
X144705130Y-80301160D01*
X144704871Y-80597539D01*
X144818052Y-80871457D01*
X145027441Y-81081212D01*
X145301160Y-81194870D01*
X145597539Y-81195129D01*
X145871457Y-81081948D01*
X146081212Y-80872559D01*
X146194870Y-80598840D01*
X146195129Y-80302461D01*
X146081948Y-80028543D01*
X145995000Y-79941443D01*
X145995000Y-79150000D01*
X145953514Y-78941438D01*
X145835373Y-78764627D01*
X145695023Y-78624277D01*
X145695129Y-78502461D01*
X145581948Y-78228543D01*
X145372559Y-78018788D01*
X145098840Y-77905130D01*
X144802461Y-77904871D01*
X144528543Y-78018052D01*
X144318788Y-78227441D01*
X144205130Y-78501160D01*
X144204871Y-78797539D01*
X137945000Y-78797539D01*
X137945000Y-77108621D01*
X138031212Y-77022559D01*
X138144870Y-76748840D01*
X138144914Y-76697539D01*
X150254871Y-76697539D01*
X150355000Y-76939869D01*
X150355000Y-79260646D01*
X150255130Y-79501160D01*
X150254871Y-79797539D01*
X150368052Y-80071457D01*
X150577441Y-80281212D01*
X150851160Y-80394870D01*
X151147539Y-80395129D01*
X151421457Y-80281948D01*
X151631212Y-80072559D01*
X151744870Y-79798840D01*
X151745017Y-79630056D01*
X157797000Y-79630056D01*
X157797000Y-79940250D01*
X157947750Y-80091000D01*
X158841000Y-80091000D01*
X158841000Y-80071000D01*
X159159000Y-80071000D01*
X159159000Y-80091000D01*
X160052250Y-80091000D01*
X160203000Y-79940250D01*
X160203000Y-79777977D01*
X162696883Y-79777977D01*
X162812312Y-80042304D01*
X163450963Y-80268412D01*
X164127527Y-80232908D01*
X164587688Y-80042304D01*
X164703117Y-79777977D01*
X163700000Y-78774860D01*
X162696883Y-79777977D01*
X160203000Y-79777977D01*
X160203000Y-79630056D01*
X160111199Y-79408428D01*
X160047771Y-79345000D01*
X160791379Y-79345000D01*
X160877441Y-79431212D01*
X161151160Y-79544870D01*
X161447539Y-79545129D01*
X161721457Y-79431948D01*
X161931212Y-79222559D01*
X162025015Y-78996656D01*
X162207696Y-79437688D01*
X162472023Y-79553117D01*
X163475140Y-78550000D01*
X163924860Y-78550000D01*
X164927977Y-79553117D01*
X165192304Y-79437688D01*
X165418412Y-78799037D01*
X165382908Y-78122473D01*
X165192304Y-77662312D01*
X164927977Y-77546883D01*
X163924860Y-78550000D01*
X163475140Y-78550000D01*
X163460998Y-78535858D01*
X163685858Y-78310998D01*
X163700000Y-78325140D01*
X164703117Y-77322023D01*
X164587688Y-77057696D01*
X163949037Y-76831588D01*
X163272473Y-76867092D01*
X162812312Y-77057696D01*
X162702738Y-77308615D01*
X162702738Y-75750000D01*
X162675195Y-75603622D01*
X162588686Y-75469183D01*
X162456688Y-75378992D01*
X162300000Y-75347262D01*
X160100000Y-75347262D01*
X159953622Y-75374805D01*
X159819183Y-75461314D01*
X159728992Y-75593312D01*
X159697262Y-75750000D01*
X159697262Y-77616958D01*
X159600000Y-77597262D01*
X158400000Y-77597262D01*
X158253622Y-77624805D01*
X158119183Y-77711314D01*
X158028992Y-77843312D01*
X157997262Y-78000000D01*
X157997262Y-79000000D01*
X158024805Y-79146378D01*
X158078838Y-79230347D01*
X158058428Y-79238801D01*
X157888801Y-79408428D01*
X157797000Y-79630056D01*
X151745017Y-79630056D01*
X151745129Y-79502461D01*
X151645000Y-79260131D01*
X151645000Y-76939354D01*
X151744870Y-76698840D01*
X151745129Y-76402461D01*
X151631948Y-76128543D01*
X151422559Y-75918788D01*
X151148840Y-75805130D01*
X150852461Y-75804871D01*
X150578543Y-75918052D01*
X150368788Y-76127441D01*
X150255130Y-76401160D01*
X150254871Y-76697539D01*
X138144914Y-76697539D01*
X138145129Y-76452461D01*
X138031948Y-76178543D01*
X137822559Y-75968788D01*
X137548840Y-75855130D01*
X137252461Y-75854871D01*
X136978543Y-75968052D01*
X136900003Y-76046455D01*
X136772559Y-75918788D01*
X136498840Y-75805130D01*
X136202461Y-75804871D01*
X135928543Y-75918052D01*
X135718788Y-76127441D01*
X135605130Y-76401160D01*
X135604871Y-76697539D01*
X135718052Y-76971457D01*
X135927441Y-77181212D01*
X136005000Y-77213417D01*
X136005000Y-80591379D01*
X135924828Y-80671411D01*
X135722559Y-80468788D01*
X135448840Y-80355130D01*
X135152461Y-80354871D01*
X134878543Y-80468052D01*
X134791443Y-80555000D01*
X133408621Y-80555000D01*
X133322559Y-80468788D01*
X133048840Y-80355130D01*
X132752461Y-80354871D01*
X132478543Y-80468052D01*
X132345000Y-80601362D01*
X132345000Y-80508621D01*
X132431212Y-80422559D01*
X132544870Y-80148840D01*
X132545129Y-79852461D01*
X132431948Y-79578543D01*
X132222559Y-79368788D01*
X131948840Y-79255130D01*
X131652461Y-79254871D01*
X131378543Y-79368052D01*
X131168788Y-79577441D01*
X131095025Y-79755083D01*
X130904824Y-79754917D01*
X130831948Y-79578543D01*
X130622559Y-79368788D01*
X130348840Y-79255130D01*
X130052461Y-79254871D01*
X129778543Y-79368052D01*
X129568788Y-79577441D01*
X129495025Y-79755083D01*
X129252461Y-79754871D01*
X128978543Y-79868052D01*
X128768788Y-80077441D01*
X128655130Y-80351160D01*
X128654871Y-80647539D01*
X128100999Y-80647539D01*
X128045000Y-80591443D01*
X128045000Y-80108621D01*
X128131212Y-80022559D01*
X128244870Y-79748840D01*
X128245129Y-79452461D01*
X128131948Y-79178543D01*
X127922559Y-78968788D01*
X127648840Y-78855130D01*
X127352461Y-78854871D01*
X127078543Y-78968052D01*
X126868788Y-79177441D01*
X126755130Y-79451160D01*
X126754871Y-79747539D01*
X122895000Y-79747539D01*
X122895000Y-78045000D01*
X133399922Y-78045000D01*
X133547539Y-78045129D01*
X133821457Y-77931948D01*
X133926791Y-77826797D01*
X133926795Y-77826795D01*
X133926797Y-77826791D01*
X134031212Y-77722559D01*
X134144870Y-77448840D01*
X134145129Y-77152461D01*
X134031948Y-76878543D01*
X133978589Y-76825090D01*
X134031212Y-76772559D01*
X134144870Y-76498840D01*
X134145129Y-76202461D01*
X134031948Y-75928543D01*
X133822559Y-75718788D01*
X133766083Y-75695337D01*
X133335373Y-75264627D01*
X133194385Y-75170422D01*
X133244870Y-75048840D01*
X133245129Y-74752461D01*
X133131948Y-74478543D01*
X132922559Y-74268788D01*
X132648840Y-74155130D01*
X132352461Y-74154871D01*
X132078543Y-74268052D01*
X131991443Y-74355000D01*
X131558621Y-74355000D01*
X131472559Y-74268788D01*
X131198840Y-74155130D01*
X130902461Y-74154871D01*
X130628543Y-74268052D01*
X130418788Y-74477441D01*
X130305130Y-74751160D01*
X130304871Y-75047539D01*
X130328613Y-75105000D01*
X126889354Y-75105000D01*
X126648840Y-75005130D01*
X126352461Y-75004871D01*
X126078543Y-75118052D01*
X125868788Y-75327441D01*
X125755130Y-75601160D01*
X125754871Y-75897539D01*
X125819933Y-76055000D01*
X116325746Y-76055000D01*
X115835373Y-75564627D01*
X115658563Y-75446486D01*
X115450000Y-75405000D01*
X113450000Y-75405000D01*
X113241437Y-75446486D01*
X113064627Y-75564627D01*
X109514627Y-79114627D01*
X109396486Y-79291437D01*
X109367395Y-79437688D01*
X109355000Y-79500000D01*
X109355000Y-80391379D01*
X109268788Y-80477441D01*
X109155130Y-80751160D01*
X109154871Y-81047539D01*
X106000999Y-81047539D01*
X105822559Y-80868788D01*
X105548840Y-80755130D01*
X105252461Y-80754871D01*
X105159914Y-80793111D01*
X105034689Y-80481706D01*
X104713556Y-80153850D01*
X104389636Y-79997023D01*
X104209000Y-80110130D01*
X103891000Y-80110130D01*
X103710364Y-79997023D01*
X103386444Y-80153850D01*
X103065311Y-80481706D01*
X102894088Y-80907498D01*
X102803000Y-80907498D01*
X102803000Y-80859750D01*
X102652250Y-80709000D01*
X101509000Y-80709000D01*
X101191000Y-80709000D01*
X101171000Y-80709000D01*
X101171000Y-80391000D01*
X101191000Y-80391000D01*
X101191000Y-79247750D01*
X101509000Y-79247750D01*
X101509000Y-80391000D01*
X102652250Y-80391000D01*
X102803000Y-80240250D01*
X102803000Y-79580056D01*
X102711199Y-79358428D01*
X102541572Y-79188801D01*
X102319944Y-79097000D01*
X101659750Y-79097000D01*
X101509000Y-79247750D01*
X101191000Y-79247750D01*
X101040250Y-79097000D01*
X100470000Y-79097000D01*
X100470000Y-73095182D01*
X148479678Y-73095182D01*
X148631878Y-73390651D01*
X149379302Y-73666904D01*
X150175550Y-73636102D01*
X150768122Y-73390651D01*
X150920322Y-73095182D01*
X149700000Y-71874860D01*
X148479678Y-73095182D01*
X100470000Y-73095182D01*
X100470000Y-68546290D01*
X100518850Y-68300703D01*
X100631744Y-68131744D01*
X100800703Y-68018850D01*
X101046290Y-67970000D01*
X125705000Y-67970000D01*
X125705000Y-68445000D01*
G36*
X115714627Y-76985373D02*
X115802394Y-77044017D01*
X115791410Y-77055000D01*
X115308589Y-77055000D01*
X115202232Y-76948642D01*
X115131948Y-76778543D01*
X115026797Y-76673209D01*
X115026795Y-76673205D01*
X115026791Y-76673203D01*
X114922559Y-76568788D01*
X114744858Y-76495000D01*
X115224254Y-76495000D01*
X115714627Y-76985373D01*
X115714627Y-76985373D01*
G37*
X115714627Y-76985373D02*
X115802394Y-77044017D01*
X115791410Y-77055000D01*
X115308589Y-77055000D01*
X115202232Y-76948642D01*
X115131948Y-76778543D01*
X115026797Y-76673209D01*
X115026795Y-76673205D01*
X115026791Y-76673203D01*
X114922559Y-76568788D01*
X114744858Y-76495000D01*
X115224254Y-76495000D01*
X115714627Y-76985373D01*
M02*
