G04 (created by PCBNEW (2013-07-07 BZR 4022)-stable) date 10/12/2013 15:05:52*
%MOIN*%
G04 Gerber Fmt 3.4, Leading zero omitted, Abs format*
%FSLAX34Y34*%
G01*
G70*
G90*
G04 APERTURE LIST*
%ADD10C,0.00590551*%
%ADD11R,0.055X0.055*%
%ADD12C,0.055*%
%ADD13R,0.06X0.06*%
%ADD14C,0.06*%
%ADD15O,0.0452756X0.0551181*%
%ADD16R,0.0669291X0.0669291*%
%ADD17C,0.216535*%
%ADD18C,0.0748031*%
%ADD19C,0.0275591*%
%ADD20C,0.011811*%
%ADD21C,0.015748*%
%ADD22C,0.019685*%
%ADD23C,0.00787402*%
G04 APERTURE END LIST*
G54D10*
G54D11*
X62397Y-34350D03*
G54D12*
X63397Y-34350D03*
X64397Y-34350D03*
X65397Y-34350D03*
G54D13*
X62779Y-44377D03*
G54D14*
X62779Y-43377D03*
X63779Y-44377D03*
X63779Y-43377D03*
X64779Y-44377D03*
X64779Y-43377D03*
G54D15*
X63326Y-38385D03*
X63326Y-40354D03*
G54D16*
X62263Y-38110D03*
X62263Y-40629D03*
G54D17*
X67322Y-43307D03*
X90157Y-43307D03*
X90157Y-35433D03*
X67322Y-35433D03*
G54D18*
X76040Y-31870D03*
X77040Y-31870D03*
X78040Y-31870D03*
X79040Y-31870D03*
X79040Y-46870D03*
X78040Y-46870D03*
X77040Y-46870D03*
X76040Y-46870D03*
X80540Y-46870D03*
X80540Y-45870D03*
G54D19*
X82244Y-39429D03*
X81633Y-39429D03*
X80826Y-44547D03*
X80295Y-44015D03*
X76476Y-42283D03*
X73562Y-39468D03*
X71141Y-38976D03*
X77224Y-42303D03*
X77007Y-39822D03*
X73129Y-37421D03*
X69389Y-38129D03*
X71594Y-38976D03*
X71929Y-34685D03*
X70767Y-33523D03*
X72047Y-41555D03*
X72657Y-40905D03*
X79035Y-40905D03*
X79665Y-39173D03*
X78720Y-41161D03*
X79350Y-39389D03*
X78405Y-40905D03*
X78405Y-39173D03*
X81220Y-36751D03*
X77204Y-36751D03*
X69547Y-41535D03*
X69251Y-39271D03*
X80374Y-38917D03*
X79350Y-41161D03*
X79035Y-39173D03*
X76161Y-34685D03*
X77637Y-34685D03*
X73838Y-35492D03*
X73838Y-34685D03*
X79665Y-40905D03*
X72500Y-38287D03*
X73562Y-38720D03*
X73562Y-39094D03*
X72224Y-38641D03*
X78149Y-46200D03*
X69271Y-45826D03*
X76043Y-45826D03*
X76299Y-39212D03*
X76377Y-43641D03*
X78937Y-43641D03*
X78543Y-43641D03*
X80610Y-43641D03*
X80019Y-43641D03*
X81496Y-43641D03*
X83838Y-38937D03*
X81417Y-40787D03*
X79980Y-41161D03*
X80708Y-40669D03*
X77933Y-40905D03*
X72500Y-41968D03*
X74330Y-35984D03*
X76377Y-36003D03*
X73937Y-43877D03*
X72677Y-44685D03*
X74763Y-41161D03*
X74763Y-40728D03*
X77322Y-40905D03*
X76712Y-40905D03*
X76102Y-40905D03*
X75649Y-35787D03*
X74251Y-37440D03*
X76397Y-37401D03*
X74940Y-37814D03*
X68228Y-44488D03*
X68799Y-41535D03*
X70314Y-37578D03*
X71968Y-37578D03*
X70314Y-35925D03*
X71968Y-35925D03*
X71141Y-36751D03*
X68661Y-33740D03*
X68661Y-32007D03*
X73188Y-34685D03*
X63818Y-39881D03*
X63700Y-37322D03*
X64173Y-37814D03*
X73562Y-38346D03*
X70177Y-39803D03*
X71732Y-40236D03*
X71122Y-40236D03*
X67933Y-38129D03*
X67933Y-37519D03*
X69114Y-34429D03*
X65413Y-39330D03*
X69960Y-44527D03*
X75511Y-44291D03*
X74881Y-44291D03*
X81968Y-44291D03*
X82598Y-44291D03*
G54D20*
X81633Y-39429D02*
X82244Y-39429D01*
G54D21*
X80295Y-44015D02*
X80826Y-44547D01*
X77224Y-42303D02*
X77204Y-42283D01*
X77204Y-42283D02*
X76476Y-42283D01*
X71633Y-39468D02*
X73562Y-39468D01*
X71141Y-38976D02*
X71633Y-39468D01*
X77007Y-42086D02*
X77224Y-42303D01*
X77007Y-39822D02*
X77007Y-42086D01*
X71614Y-38996D02*
X71614Y-38129D01*
X71614Y-38129D02*
X71633Y-38129D01*
X71614Y-38996D02*
X71594Y-38976D01*
X71358Y-38129D02*
X71633Y-38129D01*
X70629Y-38129D02*
X71358Y-38129D01*
X71633Y-38129D02*
X71988Y-38129D01*
X71988Y-38129D02*
X72696Y-37421D01*
X72696Y-37421D02*
X73129Y-37421D01*
X69389Y-38129D02*
X70629Y-38129D01*
X71929Y-34685D02*
X70767Y-33523D01*
G54D20*
X72657Y-40944D02*
X72657Y-40905D01*
X72047Y-41555D02*
X72657Y-40944D01*
X79665Y-39173D02*
X79665Y-39645D01*
X79035Y-40275D02*
X79035Y-40905D01*
X79665Y-39645D02*
X79035Y-40275D01*
X79350Y-39389D02*
X78720Y-40019D01*
X78720Y-40019D02*
X78720Y-41161D01*
X78405Y-39173D02*
X78405Y-40905D01*
X77204Y-36751D02*
X81220Y-36751D01*
X69547Y-41535D02*
X69547Y-39566D01*
X69547Y-39566D02*
X69251Y-39271D01*
X80354Y-38937D02*
X79980Y-38937D01*
X80374Y-38917D02*
X80354Y-38937D01*
X79035Y-39173D02*
X79035Y-39173D01*
X79350Y-40492D02*
X79350Y-41161D01*
X79980Y-39862D02*
X79350Y-40492D01*
X79980Y-38937D02*
X79980Y-39862D01*
X79901Y-38858D02*
X79980Y-38937D01*
X79350Y-38858D02*
X79901Y-38858D01*
X79035Y-39173D02*
X79350Y-38858D01*
X76161Y-34685D02*
X77637Y-34685D01*
X73838Y-34685D02*
X73838Y-35492D01*
X72500Y-38287D02*
X72933Y-38720D01*
X72933Y-38720D02*
X73562Y-38720D01*
X72677Y-39094D02*
X73562Y-39094D01*
X72224Y-38641D02*
X72677Y-39094D01*
G54D21*
X63779Y-44377D02*
X65602Y-46200D01*
X65602Y-46200D02*
X78149Y-46200D01*
G54D22*
X79040Y-46264D02*
X79040Y-46870D01*
X78602Y-45826D02*
X79040Y-46264D01*
X69330Y-45826D02*
X76043Y-45826D01*
X76043Y-45826D02*
X78602Y-45826D01*
G54D21*
X71141Y-36751D02*
X70314Y-37578D01*
X71141Y-36751D02*
X71968Y-37578D01*
X71141Y-36751D02*
X70314Y-35925D01*
X71141Y-36751D02*
X71968Y-35925D01*
G54D10*
G36*
X95826Y-47204D02*
X91399Y-47204D01*
X91399Y-43070D01*
X91399Y-35196D01*
X91214Y-34739D01*
X91203Y-34722D01*
X91051Y-34595D01*
X90995Y-34650D01*
X90995Y-34539D01*
X90868Y-34387D01*
X90414Y-34194D01*
X89920Y-34190D01*
X89463Y-34376D01*
X89446Y-34387D01*
X89319Y-34539D01*
X90157Y-35377D01*
X90995Y-34539D01*
X90995Y-34650D01*
X90213Y-35433D01*
X91051Y-36271D01*
X91203Y-36144D01*
X91395Y-35689D01*
X91399Y-35196D01*
X91399Y-43070D01*
X91214Y-42613D01*
X91203Y-42596D01*
X91051Y-42469D01*
X90995Y-42524D01*
X90995Y-42413D01*
X90995Y-36326D01*
X90157Y-35488D01*
X90101Y-35544D01*
X90101Y-35433D01*
X89263Y-34595D01*
X89111Y-34722D01*
X88919Y-35176D01*
X88915Y-35669D01*
X89100Y-36126D01*
X89111Y-36144D01*
X89263Y-36271D01*
X90101Y-35433D01*
X90101Y-35544D01*
X89319Y-36326D01*
X89446Y-36478D01*
X89900Y-36671D01*
X90394Y-36675D01*
X90851Y-36490D01*
X90868Y-36478D01*
X90995Y-36326D01*
X90995Y-42413D01*
X90868Y-42261D01*
X90414Y-42068D01*
X89920Y-42064D01*
X89463Y-42250D01*
X89446Y-42261D01*
X89319Y-42413D01*
X90157Y-43251D01*
X90995Y-42413D01*
X90995Y-42524D01*
X90213Y-43307D01*
X91051Y-44145D01*
X91203Y-44018D01*
X91395Y-43563D01*
X91399Y-43070D01*
X91399Y-47204D01*
X90995Y-47204D01*
X90995Y-44200D01*
X90157Y-43362D01*
X90101Y-43418D01*
X90101Y-43307D01*
X89263Y-42469D01*
X89111Y-42596D01*
X88919Y-43050D01*
X88915Y-43543D01*
X89100Y-44001D01*
X89111Y-44018D01*
X89263Y-44145D01*
X90101Y-43307D01*
X90101Y-43418D01*
X89319Y-44200D01*
X89446Y-44352D01*
X89900Y-44545D01*
X90394Y-44549D01*
X90851Y-44364D01*
X90868Y-44352D01*
X90995Y-44200D01*
X90995Y-47204D01*
X82539Y-47204D01*
X82539Y-39370D01*
X82494Y-39262D01*
X82411Y-39178D01*
X82303Y-39133D01*
X82185Y-39133D01*
X82077Y-39178D01*
X82043Y-39212D01*
X81834Y-39212D01*
X81801Y-39178D01*
X81692Y-39133D01*
X81575Y-39133D01*
X81515Y-39158D01*
X81515Y-36693D01*
X81470Y-36584D01*
X81387Y-36501D01*
X81279Y-36456D01*
X81161Y-36456D01*
X81053Y-36501D01*
X81019Y-36535D01*
X77933Y-36535D01*
X77933Y-34626D01*
X77888Y-34517D01*
X77805Y-34434D01*
X77696Y-34389D01*
X77579Y-34389D01*
X77470Y-34434D01*
X77436Y-34468D01*
X76366Y-34468D01*
X76366Y-32252D01*
X76040Y-31925D01*
X75984Y-31981D01*
X75713Y-32252D01*
X75754Y-32330D01*
X75952Y-32404D01*
X76163Y-32397D01*
X76325Y-32330D01*
X76366Y-32252D01*
X76366Y-34468D01*
X76362Y-34468D01*
X76328Y-34434D01*
X76220Y-34389D01*
X76102Y-34389D01*
X75994Y-34434D01*
X75911Y-34517D01*
X75866Y-34626D01*
X75866Y-34743D01*
X75910Y-34852D01*
X75993Y-34935D01*
X76102Y-34980D01*
X76219Y-34980D01*
X76328Y-34935D01*
X76362Y-34901D01*
X77436Y-34901D01*
X77470Y-34935D01*
X77578Y-34980D01*
X77696Y-34980D01*
X77804Y-34935D01*
X77887Y-34852D01*
X77933Y-34744D01*
X77933Y-34626D01*
X77933Y-36535D01*
X77405Y-36535D01*
X77372Y-36501D01*
X77263Y-36456D01*
X77146Y-36456D01*
X77037Y-36501D01*
X76954Y-36584D01*
X76909Y-36692D01*
X76909Y-36810D01*
X76954Y-36919D01*
X77037Y-37002D01*
X77145Y-37047D01*
X77263Y-37047D01*
X77371Y-37002D01*
X77405Y-36968D01*
X81019Y-36968D01*
X81052Y-37002D01*
X81161Y-37047D01*
X81278Y-37047D01*
X81387Y-37002D01*
X81470Y-36919D01*
X81515Y-36810D01*
X81515Y-36693D01*
X81515Y-39158D01*
X81466Y-39178D01*
X81383Y-39261D01*
X81338Y-39370D01*
X81338Y-39487D01*
X81383Y-39596D01*
X81466Y-39679D01*
X81574Y-39724D01*
X81692Y-39724D01*
X81800Y-39679D01*
X81834Y-39645D01*
X82043Y-39645D01*
X82076Y-39679D01*
X82185Y-39724D01*
X82302Y-39724D01*
X82411Y-39679D01*
X82494Y-39596D01*
X82539Y-39488D01*
X82539Y-39370D01*
X82539Y-47204D01*
X81122Y-47204D01*
X81122Y-44488D01*
X81077Y-44380D01*
X80994Y-44297D01*
X80885Y-44252D01*
X80865Y-44252D01*
X80669Y-44055D01*
X80669Y-38858D01*
X80624Y-38750D01*
X80541Y-38667D01*
X80433Y-38622D01*
X80315Y-38621D01*
X80206Y-38666D01*
X80153Y-38720D01*
X80070Y-38720D01*
X80054Y-38705D01*
X79984Y-38658D01*
X79901Y-38641D01*
X79350Y-38641D01*
X79350Y-38641D01*
X79333Y-38645D01*
X79267Y-38658D01*
X79197Y-38705D01*
X79197Y-38705D01*
X79024Y-38877D01*
X78976Y-38877D01*
X78868Y-38922D01*
X78785Y-39005D01*
X78740Y-39114D01*
X78740Y-39231D01*
X78784Y-39340D01*
X78867Y-39423D01*
X78968Y-39465D01*
X78622Y-39811D01*
X78622Y-39374D01*
X78655Y-39340D01*
X78700Y-39232D01*
X78700Y-39114D01*
X78655Y-39006D01*
X78572Y-38923D01*
X78464Y-38878D01*
X78347Y-38877D01*
X78238Y-38922D01*
X78155Y-39005D01*
X78110Y-39114D01*
X78110Y-39231D01*
X78155Y-39340D01*
X78188Y-39374D01*
X78188Y-40704D01*
X78155Y-40738D01*
X78110Y-40846D01*
X78110Y-40963D01*
X78155Y-41072D01*
X78238Y-41155D01*
X78346Y-41200D01*
X78425Y-41200D01*
X78425Y-41219D01*
X78470Y-41328D01*
X78552Y-41411D01*
X78661Y-41456D01*
X78778Y-41456D01*
X78887Y-41411D01*
X78970Y-41328D01*
X79015Y-41220D01*
X79015Y-41200D01*
X79055Y-41200D01*
X79055Y-41219D01*
X79099Y-41328D01*
X79182Y-41411D01*
X79291Y-41456D01*
X79408Y-41456D01*
X79517Y-41411D01*
X79600Y-41328D01*
X79645Y-41220D01*
X79645Y-41200D01*
X79723Y-41200D01*
X79832Y-41155D01*
X79915Y-41072D01*
X79960Y-40964D01*
X79960Y-40847D01*
X79915Y-40738D01*
X79832Y-40655D01*
X79724Y-40610D01*
X79606Y-40610D01*
X79566Y-40626D01*
X79566Y-40581D01*
X80133Y-40015D01*
X80133Y-40015D01*
X80133Y-40015D01*
X80180Y-39945D01*
X80196Y-39862D01*
X80196Y-39157D01*
X80206Y-39167D01*
X80315Y-39212D01*
X80432Y-39212D01*
X80541Y-39167D01*
X80624Y-39084D01*
X80669Y-38976D01*
X80669Y-38858D01*
X80669Y-44055D01*
X80590Y-43976D01*
X80590Y-43957D01*
X80545Y-43848D01*
X80462Y-43765D01*
X80354Y-43720D01*
X80236Y-43720D01*
X80128Y-43765D01*
X80045Y-43848D01*
X80000Y-43956D01*
X79999Y-44074D01*
X80044Y-44182D01*
X80127Y-44265D01*
X80236Y-44310D01*
X80256Y-44310D01*
X80531Y-44586D01*
X80531Y-44605D01*
X80576Y-44714D01*
X80659Y-44797D01*
X80767Y-44842D01*
X80885Y-44842D01*
X80993Y-44797D01*
X81076Y-44714D01*
X81121Y-44606D01*
X81122Y-44488D01*
X81122Y-47204D01*
X81074Y-47204D01*
X81074Y-45957D01*
X81067Y-45746D01*
X81000Y-45584D01*
X80922Y-45543D01*
X80866Y-45599D01*
X80866Y-45487D01*
X80825Y-45409D01*
X80628Y-45335D01*
X80416Y-45342D01*
X80254Y-45409D01*
X80213Y-45487D01*
X80540Y-45814D01*
X80866Y-45487D01*
X80866Y-45599D01*
X80595Y-45870D01*
X80922Y-46196D01*
X81000Y-46155D01*
X81074Y-45957D01*
X81074Y-47204D01*
X80957Y-47204D01*
X80990Y-47171D01*
X81071Y-46976D01*
X81071Y-46764D01*
X80991Y-46569D01*
X80841Y-46419D01*
X80726Y-46371D01*
X80825Y-46330D01*
X80866Y-46252D01*
X80540Y-45925D01*
X80484Y-45981D01*
X80484Y-45870D01*
X80158Y-45543D01*
X80079Y-45584D01*
X80005Y-45782D01*
X80012Y-45993D01*
X80079Y-46155D01*
X80158Y-46196D01*
X80484Y-45870D01*
X80484Y-45981D01*
X80213Y-46252D01*
X80254Y-46330D01*
X80359Y-46369D01*
X80239Y-46419D01*
X80089Y-46568D01*
X80008Y-46763D01*
X80008Y-46975D01*
X80089Y-47170D01*
X80123Y-47204D01*
X79457Y-47204D01*
X79490Y-47171D01*
X79571Y-46976D01*
X79571Y-46764D01*
X79491Y-46569D01*
X79341Y-46419D01*
X79296Y-46400D01*
X79296Y-46264D01*
X79276Y-46166D01*
X79276Y-46166D01*
X79258Y-46139D01*
X79221Y-46083D01*
X79221Y-46083D01*
X78783Y-45645D01*
X78700Y-45590D01*
X78684Y-45587D01*
X78602Y-45570D01*
X77519Y-45570D01*
X77519Y-42244D01*
X77474Y-42136D01*
X77391Y-42052D01*
X77283Y-42007D01*
X77263Y-42007D01*
X77244Y-41988D01*
X77244Y-40004D01*
X77258Y-39990D01*
X77303Y-39881D01*
X77303Y-39764D01*
X77258Y-39655D01*
X77175Y-39572D01*
X77066Y-39527D01*
X76949Y-39527D01*
X76840Y-39572D01*
X76757Y-39655D01*
X76712Y-39763D01*
X76712Y-39881D01*
X76757Y-39989D01*
X76771Y-40004D01*
X76771Y-42047D01*
X76657Y-42047D01*
X76643Y-42033D01*
X76535Y-41988D01*
X76417Y-41988D01*
X76309Y-42032D01*
X76226Y-42115D01*
X76181Y-42224D01*
X76181Y-42341D01*
X76225Y-42450D01*
X76308Y-42533D01*
X76417Y-42578D01*
X76534Y-42578D01*
X76643Y-42533D01*
X76657Y-42519D01*
X77023Y-42519D01*
X77056Y-42553D01*
X77165Y-42598D01*
X77282Y-42598D01*
X77391Y-42553D01*
X77474Y-42470D01*
X77519Y-42362D01*
X77519Y-42244D01*
X77519Y-45570D01*
X76196Y-45570D01*
X76102Y-45531D01*
X75984Y-45531D01*
X75889Y-45570D01*
X74133Y-45570D01*
X74133Y-35433D01*
X74089Y-35325D01*
X74055Y-35291D01*
X74055Y-34886D01*
X74088Y-34852D01*
X74133Y-34744D01*
X74133Y-34626D01*
X74089Y-34517D01*
X74006Y-34434D01*
X73897Y-34389D01*
X73780Y-34389D01*
X73671Y-34434D01*
X73588Y-34517D01*
X73543Y-34626D01*
X73543Y-34743D01*
X73588Y-34852D01*
X73622Y-34886D01*
X73622Y-35291D01*
X73588Y-35324D01*
X73543Y-35433D01*
X73543Y-35550D01*
X73588Y-35659D01*
X73671Y-35742D01*
X73779Y-35787D01*
X73897Y-35787D01*
X74005Y-35742D01*
X74088Y-35659D01*
X74133Y-35551D01*
X74133Y-35433D01*
X74133Y-45570D01*
X73858Y-45570D01*
X73858Y-39410D01*
X73813Y-39301D01*
X73793Y-39281D01*
X73813Y-39261D01*
X73858Y-39153D01*
X73858Y-39036D01*
X73813Y-38927D01*
X73793Y-38907D01*
X73813Y-38887D01*
X73858Y-38779D01*
X73858Y-38661D01*
X73813Y-38553D01*
X73730Y-38470D01*
X73621Y-38425D01*
X73504Y-38425D01*
X73395Y-38470D01*
X73361Y-38503D01*
X73022Y-38503D01*
X72795Y-38276D01*
X72795Y-38228D01*
X72750Y-38120D01*
X72667Y-38037D01*
X72558Y-37992D01*
X72460Y-37992D01*
X72794Y-37657D01*
X72948Y-37657D01*
X72962Y-37671D01*
X73070Y-37716D01*
X73188Y-37716D01*
X73296Y-37671D01*
X73380Y-37588D01*
X73425Y-37480D01*
X73425Y-37362D01*
X73380Y-37254D01*
X73297Y-37171D01*
X73188Y-37126D01*
X73071Y-37125D01*
X72962Y-37170D01*
X72948Y-37185D01*
X72696Y-37185D01*
X72606Y-37203D01*
X72529Y-37254D01*
X72224Y-37559D01*
X72224Y-34626D01*
X72179Y-34517D01*
X72096Y-34434D01*
X71988Y-34389D01*
X71967Y-34389D01*
X71063Y-33484D01*
X71063Y-33465D01*
X71018Y-33356D01*
X70935Y-33273D01*
X70826Y-33228D01*
X70709Y-33228D01*
X70600Y-33273D01*
X70517Y-33356D01*
X70472Y-33464D01*
X70472Y-33582D01*
X70517Y-33690D01*
X70600Y-33773D01*
X70708Y-33818D01*
X70728Y-33818D01*
X71633Y-34723D01*
X71633Y-34743D01*
X71678Y-34852D01*
X71761Y-34935D01*
X71870Y-34980D01*
X71987Y-34980D01*
X72096Y-34935D01*
X72179Y-34852D01*
X72224Y-34744D01*
X72224Y-34626D01*
X72224Y-37559D01*
X71890Y-37893D01*
X71633Y-37893D01*
X71614Y-37893D01*
X71358Y-37893D01*
X70629Y-37893D01*
X69571Y-37893D01*
X69557Y-37879D01*
X69448Y-37834D01*
X69331Y-37834D01*
X69222Y-37879D01*
X69139Y-37962D01*
X69094Y-38070D01*
X69094Y-38188D01*
X69139Y-38296D01*
X69222Y-38380D01*
X69330Y-38425D01*
X69448Y-38425D01*
X69556Y-38380D01*
X69571Y-38366D01*
X70629Y-38366D01*
X71358Y-38366D01*
X71377Y-38366D01*
X71377Y-38775D01*
X71368Y-38785D01*
X71309Y-38726D01*
X71200Y-38681D01*
X71083Y-38681D01*
X70974Y-38725D01*
X70891Y-38808D01*
X70846Y-38917D01*
X70846Y-39034D01*
X70891Y-39143D01*
X70974Y-39226D01*
X71082Y-39271D01*
X71102Y-39271D01*
X71466Y-39635D01*
X71466Y-39635D01*
X71543Y-39686D01*
X71543Y-39686D01*
X71633Y-39704D01*
X71633Y-39704D01*
X73381Y-39704D01*
X73395Y-39718D01*
X73504Y-39763D01*
X73621Y-39763D01*
X73730Y-39718D01*
X73813Y-39635D01*
X73858Y-39527D01*
X73858Y-39410D01*
X73858Y-45570D01*
X72952Y-45570D01*
X72952Y-40847D01*
X72907Y-40738D01*
X72824Y-40655D01*
X72716Y-40610D01*
X72599Y-40610D01*
X72490Y-40655D01*
X72407Y-40738D01*
X72362Y-40846D01*
X72362Y-40933D01*
X72036Y-41259D01*
X71988Y-41259D01*
X71880Y-41304D01*
X71797Y-41387D01*
X71752Y-41496D01*
X71751Y-41613D01*
X71796Y-41722D01*
X71879Y-41805D01*
X71988Y-41850D01*
X72105Y-41850D01*
X72214Y-41805D01*
X72297Y-41722D01*
X72342Y-41614D01*
X72342Y-41566D01*
X72707Y-41200D01*
X72715Y-41200D01*
X72824Y-41155D01*
X72907Y-41072D01*
X72952Y-40964D01*
X72952Y-40847D01*
X72952Y-45570D01*
X69842Y-45570D01*
X69842Y-41476D01*
X69797Y-41368D01*
X69763Y-41334D01*
X69763Y-39566D01*
X69747Y-39484D01*
X69700Y-39413D01*
X69547Y-39260D01*
X69547Y-39213D01*
X69502Y-39104D01*
X69419Y-39021D01*
X69310Y-38976D01*
X69193Y-38976D01*
X69084Y-39021D01*
X69001Y-39104D01*
X68956Y-39212D01*
X68956Y-39330D01*
X69001Y-39438D01*
X69084Y-39521D01*
X69192Y-39566D01*
X69241Y-39566D01*
X69330Y-39656D01*
X69330Y-41334D01*
X69297Y-41367D01*
X69252Y-41476D01*
X69251Y-41593D01*
X69296Y-41702D01*
X69379Y-41785D01*
X69488Y-41830D01*
X69605Y-41830D01*
X69714Y-41785D01*
X69797Y-41702D01*
X69842Y-41594D01*
X69842Y-41476D01*
X69842Y-45570D01*
X69425Y-45570D01*
X69330Y-45531D01*
X69213Y-45531D01*
X69104Y-45576D01*
X69021Y-45659D01*
X68976Y-45767D01*
X68976Y-45885D01*
X69009Y-45964D01*
X68564Y-45964D01*
X68564Y-43070D01*
X68564Y-35196D01*
X68379Y-34739D01*
X68368Y-34722D01*
X68216Y-34595D01*
X68160Y-34650D01*
X68160Y-34539D01*
X68033Y-34387D01*
X67579Y-34194D01*
X67086Y-34190D01*
X66628Y-34376D01*
X66611Y-34387D01*
X66484Y-34539D01*
X67322Y-35377D01*
X68160Y-34539D01*
X68160Y-34650D01*
X67378Y-35433D01*
X68216Y-36271D01*
X68368Y-36144D01*
X68560Y-35689D01*
X68564Y-35196D01*
X68564Y-43070D01*
X68379Y-42613D01*
X68368Y-42596D01*
X68216Y-42469D01*
X68160Y-42524D01*
X68160Y-42413D01*
X68160Y-36326D01*
X67322Y-35488D01*
X67267Y-35544D01*
X67267Y-35433D01*
X66429Y-34595D01*
X66277Y-34722D01*
X66084Y-35176D01*
X66080Y-35669D01*
X66265Y-36126D01*
X66277Y-36144D01*
X66429Y-36271D01*
X67267Y-35433D01*
X67267Y-35544D01*
X66484Y-36326D01*
X66611Y-36478D01*
X67066Y-36671D01*
X67559Y-36675D01*
X68016Y-36490D01*
X68033Y-36478D01*
X68160Y-36326D01*
X68160Y-42413D01*
X68033Y-42261D01*
X67579Y-42068D01*
X67086Y-42064D01*
X66628Y-42250D01*
X66611Y-42261D01*
X66484Y-42413D01*
X67322Y-43251D01*
X68160Y-42413D01*
X68160Y-42524D01*
X67378Y-43307D01*
X68216Y-44145D01*
X68368Y-44018D01*
X68560Y-43563D01*
X68564Y-43070D01*
X68564Y-45964D01*
X68160Y-45964D01*
X68160Y-44200D01*
X67322Y-43362D01*
X67267Y-43418D01*
X67267Y-43307D01*
X66429Y-42469D01*
X66277Y-42596D01*
X66084Y-43050D01*
X66080Y-43543D01*
X66265Y-44001D01*
X66277Y-44018D01*
X66429Y-44145D01*
X67267Y-43307D01*
X67267Y-43418D01*
X66484Y-44200D01*
X66611Y-44352D01*
X67066Y-44545D01*
X67559Y-44549D01*
X68016Y-44364D01*
X68033Y-44352D01*
X68160Y-44200D01*
X68160Y-45964D01*
X65830Y-45964D01*
X65830Y-34264D01*
X65764Y-34105D01*
X65642Y-33983D01*
X65484Y-33917D01*
X65311Y-33917D01*
X65152Y-33983D01*
X65031Y-34105D01*
X64965Y-34263D01*
X64965Y-34436D01*
X65030Y-34595D01*
X65152Y-34716D01*
X65311Y-34782D01*
X65483Y-34782D01*
X65642Y-34717D01*
X65764Y-34595D01*
X65830Y-34436D01*
X65830Y-34264D01*
X65830Y-45964D01*
X65700Y-45964D01*
X65240Y-45505D01*
X65240Y-43448D01*
X65232Y-43266D01*
X65178Y-43136D01*
X65108Y-43105D01*
X65052Y-43160D01*
X65052Y-43049D01*
X65020Y-42978D01*
X64849Y-42916D01*
X64830Y-42917D01*
X64830Y-34264D01*
X64764Y-34105D01*
X64642Y-33983D01*
X64484Y-33917D01*
X64311Y-33917D01*
X64152Y-33983D01*
X64031Y-34105D01*
X63965Y-34263D01*
X63965Y-34436D01*
X64030Y-34595D01*
X64152Y-34716D01*
X64311Y-34782D01*
X64483Y-34782D01*
X64642Y-34717D01*
X64764Y-34595D01*
X64830Y-34436D01*
X64830Y-34264D01*
X64830Y-42917D01*
X64667Y-42925D01*
X64538Y-42978D01*
X64506Y-43049D01*
X64779Y-43322D01*
X65052Y-43049D01*
X65052Y-43160D01*
X64835Y-43377D01*
X65108Y-43650D01*
X65178Y-43619D01*
X65240Y-43448D01*
X65240Y-45505D01*
X65237Y-45501D01*
X65237Y-44287D01*
X65167Y-44119D01*
X65052Y-44003D01*
X65052Y-43706D01*
X64779Y-43433D01*
X64723Y-43489D01*
X64723Y-43377D01*
X64450Y-43105D01*
X64380Y-43136D01*
X64318Y-43307D01*
X64326Y-43489D01*
X64380Y-43619D01*
X64450Y-43650D01*
X64723Y-43377D01*
X64723Y-43489D01*
X64506Y-43706D01*
X64538Y-43777D01*
X64709Y-43839D01*
X64891Y-43830D01*
X65020Y-43777D01*
X65052Y-43706D01*
X65052Y-44003D01*
X65039Y-43990D01*
X64870Y-43920D01*
X64688Y-43920D01*
X64520Y-43989D01*
X64391Y-44118D01*
X64322Y-44286D01*
X64321Y-44468D01*
X64391Y-44636D01*
X64520Y-44765D01*
X64688Y-44835D01*
X64870Y-44835D01*
X65038Y-44766D01*
X65167Y-44637D01*
X65236Y-44469D01*
X65237Y-44287D01*
X65237Y-45501D01*
X64227Y-44491D01*
X64236Y-44469D01*
X64237Y-44287D01*
X64237Y-43287D01*
X64167Y-43119D01*
X64039Y-42990D01*
X63870Y-42920D01*
X63830Y-42920D01*
X63830Y-34264D01*
X63764Y-34105D01*
X63642Y-33983D01*
X63484Y-33917D01*
X63311Y-33917D01*
X63152Y-33983D01*
X63031Y-34105D01*
X62965Y-34263D01*
X62965Y-34436D01*
X63030Y-34595D01*
X63152Y-34716D01*
X63311Y-34782D01*
X63483Y-34782D01*
X63642Y-34717D01*
X63764Y-34595D01*
X63830Y-34436D01*
X63830Y-34264D01*
X63830Y-42920D01*
X63707Y-42920D01*
X63707Y-40453D01*
X63707Y-40254D01*
X63707Y-38485D01*
X63707Y-38286D01*
X63659Y-38144D01*
X63560Y-38031D01*
X63425Y-37965D01*
X63366Y-37994D01*
X63366Y-38346D01*
X63671Y-38346D01*
X63707Y-38286D01*
X63707Y-38485D01*
X63671Y-38425D01*
X63366Y-38425D01*
X63366Y-38777D01*
X63425Y-38806D01*
X63560Y-38740D01*
X63659Y-38627D01*
X63707Y-38485D01*
X63707Y-40254D01*
X63659Y-40112D01*
X63560Y-39999D01*
X63425Y-39934D01*
X63366Y-39962D01*
X63366Y-40314D01*
X63671Y-40314D01*
X63707Y-40254D01*
X63707Y-40453D01*
X63671Y-40393D01*
X63366Y-40393D01*
X63366Y-40745D01*
X63425Y-40774D01*
X63560Y-40708D01*
X63659Y-40595D01*
X63707Y-40453D01*
X63707Y-42920D01*
X63688Y-42920D01*
X63520Y-42989D01*
X63391Y-43118D01*
X63322Y-43286D01*
X63321Y-43468D01*
X63391Y-43636D01*
X63520Y-43765D01*
X63688Y-43835D01*
X63870Y-43835D01*
X64038Y-43766D01*
X64167Y-43637D01*
X64236Y-43469D01*
X64237Y-43287D01*
X64237Y-44287D01*
X64167Y-44119D01*
X64039Y-43990D01*
X63870Y-43920D01*
X63688Y-43920D01*
X63520Y-43989D01*
X63391Y-44118D01*
X63322Y-44286D01*
X63321Y-44468D01*
X63391Y-44636D01*
X63520Y-44765D01*
X63688Y-44835D01*
X63870Y-44835D01*
X63893Y-44825D01*
X65435Y-46367D01*
X65435Y-46367D01*
X65486Y-46402D01*
X65511Y-46419D01*
X65511Y-46419D01*
X65602Y-46437D01*
X65602Y-46437D01*
X75721Y-46437D01*
X75589Y-46568D01*
X75508Y-46763D01*
X75508Y-46975D01*
X75589Y-47170D01*
X75623Y-47204D01*
X63287Y-47204D01*
X63287Y-40745D01*
X63287Y-40393D01*
X63287Y-40314D01*
X63287Y-39962D01*
X63287Y-38777D01*
X63287Y-38425D01*
X63287Y-38346D01*
X63287Y-37994D01*
X63228Y-37965D01*
X63092Y-38031D01*
X62993Y-38144D01*
X62945Y-38286D01*
X62981Y-38346D01*
X63287Y-38346D01*
X63287Y-38425D01*
X62981Y-38425D01*
X62945Y-38485D01*
X62993Y-38627D01*
X63092Y-38740D01*
X63228Y-38806D01*
X63287Y-38777D01*
X63287Y-39962D01*
X63228Y-39934D01*
X63092Y-39999D01*
X62993Y-40112D01*
X62945Y-40254D01*
X62981Y-40314D01*
X63287Y-40314D01*
X63287Y-40393D01*
X62981Y-40393D01*
X62945Y-40453D01*
X62993Y-40595D01*
X63092Y-40708D01*
X63228Y-40774D01*
X63287Y-40745D01*
X63287Y-47204D01*
X63237Y-47204D01*
X63237Y-43287D01*
X63167Y-43119D01*
X63039Y-42990D01*
X62870Y-42920D01*
X62830Y-42920D01*
X62830Y-34594D01*
X62830Y-34044D01*
X62806Y-33986D01*
X62761Y-33941D01*
X62704Y-33917D01*
X62641Y-33917D01*
X62091Y-33917D01*
X62033Y-33941D01*
X61989Y-33986D01*
X61965Y-34043D01*
X61965Y-34106D01*
X61965Y-34656D01*
X61989Y-34714D01*
X62033Y-34758D01*
X62091Y-34782D01*
X62153Y-34782D01*
X62703Y-34782D01*
X62761Y-34758D01*
X62806Y-34714D01*
X62830Y-34656D01*
X62830Y-34594D01*
X62830Y-42920D01*
X62755Y-42920D01*
X62755Y-40995D01*
X62755Y-40264D01*
X62755Y-38476D01*
X62755Y-37744D01*
X62732Y-37686D01*
X62687Y-37642D01*
X62629Y-37618D01*
X62567Y-37618D01*
X62342Y-37618D01*
X62303Y-37657D01*
X62303Y-38070D01*
X62716Y-38070D01*
X62755Y-38031D01*
X62755Y-37744D01*
X62755Y-38476D01*
X62755Y-38188D01*
X62716Y-38149D01*
X62303Y-38149D01*
X62303Y-38562D01*
X62342Y-38602D01*
X62567Y-38602D01*
X62629Y-38602D01*
X62687Y-38578D01*
X62732Y-38533D01*
X62755Y-38476D01*
X62755Y-40264D01*
X62732Y-40206D01*
X62687Y-40161D01*
X62629Y-40137D01*
X62567Y-40137D01*
X62342Y-40137D01*
X62303Y-40177D01*
X62303Y-40590D01*
X62716Y-40590D01*
X62755Y-40551D01*
X62755Y-40264D01*
X62755Y-40995D01*
X62755Y-40708D01*
X62716Y-40669D01*
X62303Y-40669D01*
X62303Y-41082D01*
X62342Y-41122D01*
X62567Y-41122D01*
X62629Y-41122D01*
X62687Y-41097D01*
X62732Y-41053D01*
X62755Y-40995D01*
X62755Y-42920D01*
X62688Y-42920D01*
X62520Y-42989D01*
X62391Y-43118D01*
X62322Y-43286D01*
X62321Y-43468D01*
X62391Y-43636D01*
X62520Y-43765D01*
X62688Y-43835D01*
X62870Y-43835D01*
X63038Y-43766D01*
X63167Y-43637D01*
X63236Y-43469D01*
X63237Y-43287D01*
X63237Y-47204D01*
X63237Y-47204D01*
X63237Y-44646D01*
X63237Y-44046D01*
X63213Y-43988D01*
X63168Y-43944D01*
X63110Y-43920D01*
X63048Y-43920D01*
X62448Y-43920D01*
X62390Y-43944D01*
X62346Y-43988D01*
X62322Y-44046D01*
X62322Y-44109D01*
X62322Y-44709D01*
X62345Y-44767D01*
X62390Y-44811D01*
X62448Y-44835D01*
X62510Y-44835D01*
X63110Y-44835D01*
X63168Y-44811D01*
X63212Y-44767D01*
X63236Y-44709D01*
X63237Y-44646D01*
X63237Y-47204D01*
X62224Y-47204D01*
X62224Y-41082D01*
X62224Y-40669D01*
X62224Y-40590D01*
X62224Y-40177D01*
X62224Y-38562D01*
X62224Y-38149D01*
X62224Y-38070D01*
X62224Y-37657D01*
X62185Y-37618D01*
X61960Y-37618D01*
X61897Y-37618D01*
X61839Y-37642D01*
X61795Y-37686D01*
X61771Y-37744D01*
X61771Y-38031D01*
X61811Y-38070D01*
X62224Y-38070D01*
X62224Y-38149D01*
X61811Y-38149D01*
X61771Y-38188D01*
X61771Y-38476D01*
X61795Y-38533D01*
X61839Y-38578D01*
X61897Y-38602D01*
X61960Y-38602D01*
X62185Y-38602D01*
X62224Y-38562D01*
X62224Y-40177D01*
X62185Y-40137D01*
X61960Y-40137D01*
X61897Y-40137D01*
X61839Y-40161D01*
X61795Y-40206D01*
X61771Y-40264D01*
X61771Y-40551D01*
X61811Y-40590D01*
X62224Y-40590D01*
X62224Y-40669D01*
X61811Y-40669D01*
X61771Y-40708D01*
X61771Y-40995D01*
X61795Y-41053D01*
X61839Y-41097D01*
X61897Y-41122D01*
X61960Y-41122D01*
X62185Y-41122D01*
X62224Y-41082D01*
X62224Y-47204D01*
X61653Y-47204D01*
X61653Y-31535D01*
X75649Y-31535D01*
X75658Y-31543D01*
X75579Y-31584D01*
X75505Y-31782D01*
X75512Y-31993D01*
X75579Y-32155D01*
X75658Y-32196D01*
X75984Y-31870D01*
X75978Y-31864D01*
X76034Y-31808D01*
X76040Y-31814D01*
X76045Y-31808D01*
X76101Y-31864D01*
X76095Y-31870D01*
X76422Y-32196D01*
X76500Y-32155D01*
X76539Y-32051D01*
X76589Y-32170D01*
X76738Y-32320D01*
X76933Y-32401D01*
X77145Y-32401D01*
X77340Y-32320D01*
X77490Y-32171D01*
X77540Y-32051D01*
X77589Y-32170D01*
X77738Y-32320D01*
X77933Y-32401D01*
X78145Y-32401D01*
X78340Y-32320D01*
X78490Y-32171D01*
X78540Y-32051D01*
X78589Y-32170D01*
X78738Y-32320D01*
X78933Y-32401D01*
X79145Y-32401D01*
X79340Y-32320D01*
X79490Y-32171D01*
X79571Y-31976D01*
X79571Y-31764D01*
X79491Y-31569D01*
X79457Y-31535D01*
X95826Y-31535D01*
X95826Y-47204D01*
X95826Y-47204D01*
G37*
G54D23*
X95826Y-47204D02*
X91399Y-47204D01*
X91399Y-43070D01*
X91399Y-35196D01*
X91214Y-34739D01*
X91203Y-34722D01*
X91051Y-34595D01*
X90995Y-34650D01*
X90995Y-34539D01*
X90868Y-34387D01*
X90414Y-34194D01*
X89920Y-34190D01*
X89463Y-34376D01*
X89446Y-34387D01*
X89319Y-34539D01*
X90157Y-35377D01*
X90995Y-34539D01*
X90995Y-34650D01*
X90213Y-35433D01*
X91051Y-36271D01*
X91203Y-36144D01*
X91395Y-35689D01*
X91399Y-35196D01*
X91399Y-43070D01*
X91214Y-42613D01*
X91203Y-42596D01*
X91051Y-42469D01*
X90995Y-42524D01*
X90995Y-42413D01*
X90995Y-36326D01*
X90157Y-35488D01*
X90101Y-35544D01*
X90101Y-35433D01*
X89263Y-34595D01*
X89111Y-34722D01*
X88919Y-35176D01*
X88915Y-35669D01*
X89100Y-36126D01*
X89111Y-36144D01*
X89263Y-36271D01*
X90101Y-35433D01*
X90101Y-35544D01*
X89319Y-36326D01*
X89446Y-36478D01*
X89900Y-36671D01*
X90394Y-36675D01*
X90851Y-36490D01*
X90868Y-36478D01*
X90995Y-36326D01*
X90995Y-42413D01*
X90868Y-42261D01*
X90414Y-42068D01*
X89920Y-42064D01*
X89463Y-42250D01*
X89446Y-42261D01*
X89319Y-42413D01*
X90157Y-43251D01*
X90995Y-42413D01*
X90995Y-42524D01*
X90213Y-43307D01*
X91051Y-44145D01*
X91203Y-44018D01*
X91395Y-43563D01*
X91399Y-43070D01*
X91399Y-47204D01*
X90995Y-47204D01*
X90995Y-44200D01*
X90157Y-43362D01*
X90101Y-43418D01*
X90101Y-43307D01*
X89263Y-42469D01*
X89111Y-42596D01*
X88919Y-43050D01*
X88915Y-43543D01*
X89100Y-44001D01*
X89111Y-44018D01*
X89263Y-44145D01*
X90101Y-43307D01*
X90101Y-43418D01*
X89319Y-44200D01*
X89446Y-44352D01*
X89900Y-44545D01*
X90394Y-44549D01*
X90851Y-44364D01*
X90868Y-44352D01*
X90995Y-44200D01*
X90995Y-47204D01*
X82539Y-47204D01*
X82539Y-39370D01*
X82494Y-39262D01*
X82411Y-39178D01*
X82303Y-39133D01*
X82185Y-39133D01*
X82077Y-39178D01*
X82043Y-39212D01*
X81834Y-39212D01*
X81801Y-39178D01*
X81692Y-39133D01*
X81575Y-39133D01*
X81515Y-39158D01*
X81515Y-36693D01*
X81470Y-36584D01*
X81387Y-36501D01*
X81279Y-36456D01*
X81161Y-36456D01*
X81053Y-36501D01*
X81019Y-36535D01*
X77933Y-36535D01*
X77933Y-34626D01*
X77888Y-34517D01*
X77805Y-34434D01*
X77696Y-34389D01*
X77579Y-34389D01*
X77470Y-34434D01*
X77436Y-34468D01*
X76366Y-34468D01*
X76366Y-32252D01*
X76040Y-31925D01*
X75984Y-31981D01*
X75713Y-32252D01*
X75754Y-32330D01*
X75952Y-32404D01*
X76163Y-32397D01*
X76325Y-32330D01*
X76366Y-32252D01*
X76366Y-34468D01*
X76362Y-34468D01*
X76328Y-34434D01*
X76220Y-34389D01*
X76102Y-34389D01*
X75994Y-34434D01*
X75911Y-34517D01*
X75866Y-34626D01*
X75866Y-34743D01*
X75910Y-34852D01*
X75993Y-34935D01*
X76102Y-34980D01*
X76219Y-34980D01*
X76328Y-34935D01*
X76362Y-34901D01*
X77436Y-34901D01*
X77470Y-34935D01*
X77578Y-34980D01*
X77696Y-34980D01*
X77804Y-34935D01*
X77887Y-34852D01*
X77933Y-34744D01*
X77933Y-34626D01*
X77933Y-36535D01*
X77405Y-36535D01*
X77372Y-36501D01*
X77263Y-36456D01*
X77146Y-36456D01*
X77037Y-36501D01*
X76954Y-36584D01*
X76909Y-36692D01*
X76909Y-36810D01*
X76954Y-36919D01*
X77037Y-37002D01*
X77145Y-37047D01*
X77263Y-37047D01*
X77371Y-37002D01*
X77405Y-36968D01*
X81019Y-36968D01*
X81052Y-37002D01*
X81161Y-37047D01*
X81278Y-37047D01*
X81387Y-37002D01*
X81470Y-36919D01*
X81515Y-36810D01*
X81515Y-36693D01*
X81515Y-39158D01*
X81466Y-39178D01*
X81383Y-39261D01*
X81338Y-39370D01*
X81338Y-39487D01*
X81383Y-39596D01*
X81466Y-39679D01*
X81574Y-39724D01*
X81692Y-39724D01*
X81800Y-39679D01*
X81834Y-39645D01*
X82043Y-39645D01*
X82076Y-39679D01*
X82185Y-39724D01*
X82302Y-39724D01*
X82411Y-39679D01*
X82494Y-39596D01*
X82539Y-39488D01*
X82539Y-39370D01*
X82539Y-47204D01*
X81122Y-47204D01*
X81122Y-44488D01*
X81077Y-44380D01*
X80994Y-44297D01*
X80885Y-44252D01*
X80865Y-44252D01*
X80669Y-44055D01*
X80669Y-38858D01*
X80624Y-38750D01*
X80541Y-38667D01*
X80433Y-38622D01*
X80315Y-38621D01*
X80206Y-38666D01*
X80153Y-38720D01*
X80070Y-38720D01*
X80054Y-38705D01*
X79984Y-38658D01*
X79901Y-38641D01*
X79350Y-38641D01*
X79350Y-38641D01*
X79333Y-38645D01*
X79267Y-38658D01*
X79197Y-38705D01*
X79197Y-38705D01*
X79024Y-38877D01*
X78976Y-38877D01*
X78868Y-38922D01*
X78785Y-39005D01*
X78740Y-39114D01*
X78740Y-39231D01*
X78784Y-39340D01*
X78867Y-39423D01*
X78968Y-39465D01*
X78622Y-39811D01*
X78622Y-39374D01*
X78655Y-39340D01*
X78700Y-39232D01*
X78700Y-39114D01*
X78655Y-39006D01*
X78572Y-38923D01*
X78464Y-38878D01*
X78347Y-38877D01*
X78238Y-38922D01*
X78155Y-39005D01*
X78110Y-39114D01*
X78110Y-39231D01*
X78155Y-39340D01*
X78188Y-39374D01*
X78188Y-40704D01*
X78155Y-40738D01*
X78110Y-40846D01*
X78110Y-40963D01*
X78155Y-41072D01*
X78238Y-41155D01*
X78346Y-41200D01*
X78425Y-41200D01*
X78425Y-41219D01*
X78470Y-41328D01*
X78552Y-41411D01*
X78661Y-41456D01*
X78778Y-41456D01*
X78887Y-41411D01*
X78970Y-41328D01*
X79015Y-41220D01*
X79015Y-41200D01*
X79055Y-41200D01*
X79055Y-41219D01*
X79099Y-41328D01*
X79182Y-41411D01*
X79291Y-41456D01*
X79408Y-41456D01*
X79517Y-41411D01*
X79600Y-41328D01*
X79645Y-41220D01*
X79645Y-41200D01*
X79723Y-41200D01*
X79832Y-41155D01*
X79915Y-41072D01*
X79960Y-40964D01*
X79960Y-40847D01*
X79915Y-40738D01*
X79832Y-40655D01*
X79724Y-40610D01*
X79606Y-40610D01*
X79566Y-40626D01*
X79566Y-40581D01*
X80133Y-40015D01*
X80133Y-40015D01*
X80133Y-40015D01*
X80180Y-39945D01*
X80196Y-39862D01*
X80196Y-39157D01*
X80206Y-39167D01*
X80315Y-39212D01*
X80432Y-39212D01*
X80541Y-39167D01*
X80624Y-39084D01*
X80669Y-38976D01*
X80669Y-38858D01*
X80669Y-44055D01*
X80590Y-43976D01*
X80590Y-43957D01*
X80545Y-43848D01*
X80462Y-43765D01*
X80354Y-43720D01*
X80236Y-43720D01*
X80128Y-43765D01*
X80045Y-43848D01*
X80000Y-43956D01*
X79999Y-44074D01*
X80044Y-44182D01*
X80127Y-44265D01*
X80236Y-44310D01*
X80256Y-44310D01*
X80531Y-44586D01*
X80531Y-44605D01*
X80576Y-44714D01*
X80659Y-44797D01*
X80767Y-44842D01*
X80885Y-44842D01*
X80993Y-44797D01*
X81076Y-44714D01*
X81121Y-44606D01*
X81122Y-44488D01*
X81122Y-47204D01*
X81074Y-47204D01*
X81074Y-45957D01*
X81067Y-45746D01*
X81000Y-45584D01*
X80922Y-45543D01*
X80866Y-45599D01*
X80866Y-45487D01*
X80825Y-45409D01*
X80628Y-45335D01*
X80416Y-45342D01*
X80254Y-45409D01*
X80213Y-45487D01*
X80540Y-45814D01*
X80866Y-45487D01*
X80866Y-45599D01*
X80595Y-45870D01*
X80922Y-46196D01*
X81000Y-46155D01*
X81074Y-45957D01*
X81074Y-47204D01*
X80957Y-47204D01*
X80990Y-47171D01*
X81071Y-46976D01*
X81071Y-46764D01*
X80991Y-46569D01*
X80841Y-46419D01*
X80726Y-46371D01*
X80825Y-46330D01*
X80866Y-46252D01*
X80540Y-45925D01*
X80484Y-45981D01*
X80484Y-45870D01*
X80158Y-45543D01*
X80079Y-45584D01*
X80005Y-45782D01*
X80012Y-45993D01*
X80079Y-46155D01*
X80158Y-46196D01*
X80484Y-45870D01*
X80484Y-45981D01*
X80213Y-46252D01*
X80254Y-46330D01*
X80359Y-46369D01*
X80239Y-46419D01*
X80089Y-46568D01*
X80008Y-46763D01*
X80008Y-46975D01*
X80089Y-47170D01*
X80123Y-47204D01*
X79457Y-47204D01*
X79490Y-47171D01*
X79571Y-46976D01*
X79571Y-46764D01*
X79491Y-46569D01*
X79341Y-46419D01*
X79296Y-46400D01*
X79296Y-46264D01*
X79276Y-46166D01*
X79276Y-46166D01*
X79258Y-46139D01*
X79221Y-46083D01*
X79221Y-46083D01*
X78783Y-45645D01*
X78700Y-45590D01*
X78684Y-45587D01*
X78602Y-45570D01*
X77519Y-45570D01*
X77519Y-42244D01*
X77474Y-42136D01*
X77391Y-42052D01*
X77283Y-42007D01*
X77263Y-42007D01*
X77244Y-41988D01*
X77244Y-40004D01*
X77258Y-39990D01*
X77303Y-39881D01*
X77303Y-39764D01*
X77258Y-39655D01*
X77175Y-39572D01*
X77066Y-39527D01*
X76949Y-39527D01*
X76840Y-39572D01*
X76757Y-39655D01*
X76712Y-39763D01*
X76712Y-39881D01*
X76757Y-39989D01*
X76771Y-40004D01*
X76771Y-42047D01*
X76657Y-42047D01*
X76643Y-42033D01*
X76535Y-41988D01*
X76417Y-41988D01*
X76309Y-42032D01*
X76226Y-42115D01*
X76181Y-42224D01*
X76181Y-42341D01*
X76225Y-42450D01*
X76308Y-42533D01*
X76417Y-42578D01*
X76534Y-42578D01*
X76643Y-42533D01*
X76657Y-42519D01*
X77023Y-42519D01*
X77056Y-42553D01*
X77165Y-42598D01*
X77282Y-42598D01*
X77391Y-42553D01*
X77474Y-42470D01*
X77519Y-42362D01*
X77519Y-42244D01*
X77519Y-45570D01*
X76196Y-45570D01*
X76102Y-45531D01*
X75984Y-45531D01*
X75889Y-45570D01*
X74133Y-45570D01*
X74133Y-35433D01*
X74089Y-35325D01*
X74055Y-35291D01*
X74055Y-34886D01*
X74088Y-34852D01*
X74133Y-34744D01*
X74133Y-34626D01*
X74089Y-34517D01*
X74006Y-34434D01*
X73897Y-34389D01*
X73780Y-34389D01*
X73671Y-34434D01*
X73588Y-34517D01*
X73543Y-34626D01*
X73543Y-34743D01*
X73588Y-34852D01*
X73622Y-34886D01*
X73622Y-35291D01*
X73588Y-35324D01*
X73543Y-35433D01*
X73543Y-35550D01*
X73588Y-35659D01*
X73671Y-35742D01*
X73779Y-35787D01*
X73897Y-35787D01*
X74005Y-35742D01*
X74088Y-35659D01*
X74133Y-35551D01*
X74133Y-35433D01*
X74133Y-45570D01*
X73858Y-45570D01*
X73858Y-39410D01*
X73813Y-39301D01*
X73793Y-39281D01*
X73813Y-39261D01*
X73858Y-39153D01*
X73858Y-39036D01*
X73813Y-38927D01*
X73793Y-38907D01*
X73813Y-38887D01*
X73858Y-38779D01*
X73858Y-38661D01*
X73813Y-38553D01*
X73730Y-38470D01*
X73621Y-38425D01*
X73504Y-38425D01*
X73395Y-38470D01*
X73361Y-38503D01*
X73022Y-38503D01*
X72795Y-38276D01*
X72795Y-38228D01*
X72750Y-38120D01*
X72667Y-38037D01*
X72558Y-37992D01*
X72460Y-37992D01*
X72794Y-37657D01*
X72948Y-37657D01*
X72962Y-37671D01*
X73070Y-37716D01*
X73188Y-37716D01*
X73296Y-37671D01*
X73380Y-37588D01*
X73425Y-37480D01*
X73425Y-37362D01*
X73380Y-37254D01*
X73297Y-37171D01*
X73188Y-37126D01*
X73071Y-37125D01*
X72962Y-37170D01*
X72948Y-37185D01*
X72696Y-37185D01*
X72606Y-37203D01*
X72529Y-37254D01*
X72224Y-37559D01*
X72224Y-34626D01*
X72179Y-34517D01*
X72096Y-34434D01*
X71988Y-34389D01*
X71967Y-34389D01*
X71063Y-33484D01*
X71063Y-33465D01*
X71018Y-33356D01*
X70935Y-33273D01*
X70826Y-33228D01*
X70709Y-33228D01*
X70600Y-33273D01*
X70517Y-33356D01*
X70472Y-33464D01*
X70472Y-33582D01*
X70517Y-33690D01*
X70600Y-33773D01*
X70708Y-33818D01*
X70728Y-33818D01*
X71633Y-34723D01*
X71633Y-34743D01*
X71678Y-34852D01*
X71761Y-34935D01*
X71870Y-34980D01*
X71987Y-34980D01*
X72096Y-34935D01*
X72179Y-34852D01*
X72224Y-34744D01*
X72224Y-34626D01*
X72224Y-37559D01*
X71890Y-37893D01*
X71633Y-37893D01*
X71614Y-37893D01*
X71358Y-37893D01*
X70629Y-37893D01*
X69571Y-37893D01*
X69557Y-37879D01*
X69448Y-37834D01*
X69331Y-37834D01*
X69222Y-37879D01*
X69139Y-37962D01*
X69094Y-38070D01*
X69094Y-38188D01*
X69139Y-38296D01*
X69222Y-38380D01*
X69330Y-38425D01*
X69448Y-38425D01*
X69556Y-38380D01*
X69571Y-38366D01*
X70629Y-38366D01*
X71358Y-38366D01*
X71377Y-38366D01*
X71377Y-38775D01*
X71368Y-38785D01*
X71309Y-38726D01*
X71200Y-38681D01*
X71083Y-38681D01*
X70974Y-38725D01*
X70891Y-38808D01*
X70846Y-38917D01*
X70846Y-39034D01*
X70891Y-39143D01*
X70974Y-39226D01*
X71082Y-39271D01*
X71102Y-39271D01*
X71466Y-39635D01*
X71466Y-39635D01*
X71543Y-39686D01*
X71543Y-39686D01*
X71633Y-39704D01*
X71633Y-39704D01*
X73381Y-39704D01*
X73395Y-39718D01*
X73504Y-39763D01*
X73621Y-39763D01*
X73730Y-39718D01*
X73813Y-39635D01*
X73858Y-39527D01*
X73858Y-39410D01*
X73858Y-45570D01*
X72952Y-45570D01*
X72952Y-40847D01*
X72907Y-40738D01*
X72824Y-40655D01*
X72716Y-40610D01*
X72599Y-40610D01*
X72490Y-40655D01*
X72407Y-40738D01*
X72362Y-40846D01*
X72362Y-40933D01*
X72036Y-41259D01*
X71988Y-41259D01*
X71880Y-41304D01*
X71797Y-41387D01*
X71752Y-41496D01*
X71751Y-41613D01*
X71796Y-41722D01*
X71879Y-41805D01*
X71988Y-41850D01*
X72105Y-41850D01*
X72214Y-41805D01*
X72297Y-41722D01*
X72342Y-41614D01*
X72342Y-41566D01*
X72707Y-41200D01*
X72715Y-41200D01*
X72824Y-41155D01*
X72907Y-41072D01*
X72952Y-40964D01*
X72952Y-40847D01*
X72952Y-45570D01*
X69842Y-45570D01*
X69842Y-41476D01*
X69797Y-41368D01*
X69763Y-41334D01*
X69763Y-39566D01*
X69747Y-39484D01*
X69700Y-39413D01*
X69547Y-39260D01*
X69547Y-39213D01*
X69502Y-39104D01*
X69419Y-39021D01*
X69310Y-38976D01*
X69193Y-38976D01*
X69084Y-39021D01*
X69001Y-39104D01*
X68956Y-39212D01*
X68956Y-39330D01*
X69001Y-39438D01*
X69084Y-39521D01*
X69192Y-39566D01*
X69241Y-39566D01*
X69330Y-39656D01*
X69330Y-41334D01*
X69297Y-41367D01*
X69252Y-41476D01*
X69251Y-41593D01*
X69296Y-41702D01*
X69379Y-41785D01*
X69488Y-41830D01*
X69605Y-41830D01*
X69714Y-41785D01*
X69797Y-41702D01*
X69842Y-41594D01*
X69842Y-41476D01*
X69842Y-45570D01*
X69425Y-45570D01*
X69330Y-45531D01*
X69213Y-45531D01*
X69104Y-45576D01*
X69021Y-45659D01*
X68976Y-45767D01*
X68976Y-45885D01*
X69009Y-45964D01*
X68564Y-45964D01*
X68564Y-43070D01*
X68564Y-35196D01*
X68379Y-34739D01*
X68368Y-34722D01*
X68216Y-34595D01*
X68160Y-34650D01*
X68160Y-34539D01*
X68033Y-34387D01*
X67579Y-34194D01*
X67086Y-34190D01*
X66628Y-34376D01*
X66611Y-34387D01*
X66484Y-34539D01*
X67322Y-35377D01*
X68160Y-34539D01*
X68160Y-34650D01*
X67378Y-35433D01*
X68216Y-36271D01*
X68368Y-36144D01*
X68560Y-35689D01*
X68564Y-35196D01*
X68564Y-43070D01*
X68379Y-42613D01*
X68368Y-42596D01*
X68216Y-42469D01*
X68160Y-42524D01*
X68160Y-42413D01*
X68160Y-36326D01*
X67322Y-35488D01*
X67267Y-35544D01*
X67267Y-35433D01*
X66429Y-34595D01*
X66277Y-34722D01*
X66084Y-35176D01*
X66080Y-35669D01*
X66265Y-36126D01*
X66277Y-36144D01*
X66429Y-36271D01*
X67267Y-35433D01*
X67267Y-35544D01*
X66484Y-36326D01*
X66611Y-36478D01*
X67066Y-36671D01*
X67559Y-36675D01*
X68016Y-36490D01*
X68033Y-36478D01*
X68160Y-36326D01*
X68160Y-42413D01*
X68033Y-42261D01*
X67579Y-42068D01*
X67086Y-42064D01*
X66628Y-42250D01*
X66611Y-42261D01*
X66484Y-42413D01*
X67322Y-43251D01*
X68160Y-42413D01*
X68160Y-42524D01*
X67378Y-43307D01*
X68216Y-44145D01*
X68368Y-44018D01*
X68560Y-43563D01*
X68564Y-43070D01*
X68564Y-45964D01*
X68160Y-45964D01*
X68160Y-44200D01*
X67322Y-43362D01*
X67267Y-43418D01*
X67267Y-43307D01*
X66429Y-42469D01*
X66277Y-42596D01*
X66084Y-43050D01*
X66080Y-43543D01*
X66265Y-44001D01*
X66277Y-44018D01*
X66429Y-44145D01*
X67267Y-43307D01*
X67267Y-43418D01*
X66484Y-44200D01*
X66611Y-44352D01*
X67066Y-44545D01*
X67559Y-44549D01*
X68016Y-44364D01*
X68033Y-44352D01*
X68160Y-44200D01*
X68160Y-45964D01*
X65830Y-45964D01*
X65830Y-34264D01*
X65764Y-34105D01*
X65642Y-33983D01*
X65484Y-33917D01*
X65311Y-33917D01*
X65152Y-33983D01*
X65031Y-34105D01*
X64965Y-34263D01*
X64965Y-34436D01*
X65030Y-34595D01*
X65152Y-34716D01*
X65311Y-34782D01*
X65483Y-34782D01*
X65642Y-34717D01*
X65764Y-34595D01*
X65830Y-34436D01*
X65830Y-34264D01*
X65830Y-45964D01*
X65700Y-45964D01*
X65240Y-45505D01*
X65240Y-43448D01*
X65232Y-43266D01*
X65178Y-43136D01*
X65108Y-43105D01*
X65052Y-43160D01*
X65052Y-43049D01*
X65020Y-42978D01*
X64849Y-42916D01*
X64830Y-42917D01*
X64830Y-34264D01*
X64764Y-34105D01*
X64642Y-33983D01*
X64484Y-33917D01*
X64311Y-33917D01*
X64152Y-33983D01*
X64031Y-34105D01*
X63965Y-34263D01*
X63965Y-34436D01*
X64030Y-34595D01*
X64152Y-34716D01*
X64311Y-34782D01*
X64483Y-34782D01*
X64642Y-34717D01*
X64764Y-34595D01*
X64830Y-34436D01*
X64830Y-34264D01*
X64830Y-42917D01*
X64667Y-42925D01*
X64538Y-42978D01*
X64506Y-43049D01*
X64779Y-43322D01*
X65052Y-43049D01*
X65052Y-43160D01*
X64835Y-43377D01*
X65108Y-43650D01*
X65178Y-43619D01*
X65240Y-43448D01*
X65240Y-45505D01*
X65237Y-45501D01*
X65237Y-44287D01*
X65167Y-44119D01*
X65052Y-44003D01*
X65052Y-43706D01*
X64779Y-43433D01*
X64723Y-43489D01*
X64723Y-43377D01*
X64450Y-43105D01*
X64380Y-43136D01*
X64318Y-43307D01*
X64326Y-43489D01*
X64380Y-43619D01*
X64450Y-43650D01*
X64723Y-43377D01*
X64723Y-43489D01*
X64506Y-43706D01*
X64538Y-43777D01*
X64709Y-43839D01*
X64891Y-43830D01*
X65020Y-43777D01*
X65052Y-43706D01*
X65052Y-44003D01*
X65039Y-43990D01*
X64870Y-43920D01*
X64688Y-43920D01*
X64520Y-43989D01*
X64391Y-44118D01*
X64322Y-44286D01*
X64321Y-44468D01*
X64391Y-44636D01*
X64520Y-44765D01*
X64688Y-44835D01*
X64870Y-44835D01*
X65038Y-44766D01*
X65167Y-44637D01*
X65236Y-44469D01*
X65237Y-44287D01*
X65237Y-45501D01*
X64227Y-44491D01*
X64236Y-44469D01*
X64237Y-44287D01*
X64237Y-43287D01*
X64167Y-43119D01*
X64039Y-42990D01*
X63870Y-42920D01*
X63830Y-42920D01*
X63830Y-34264D01*
X63764Y-34105D01*
X63642Y-33983D01*
X63484Y-33917D01*
X63311Y-33917D01*
X63152Y-33983D01*
X63031Y-34105D01*
X62965Y-34263D01*
X62965Y-34436D01*
X63030Y-34595D01*
X63152Y-34716D01*
X63311Y-34782D01*
X63483Y-34782D01*
X63642Y-34717D01*
X63764Y-34595D01*
X63830Y-34436D01*
X63830Y-34264D01*
X63830Y-42920D01*
X63707Y-42920D01*
X63707Y-40453D01*
X63707Y-40254D01*
X63707Y-38485D01*
X63707Y-38286D01*
X63659Y-38144D01*
X63560Y-38031D01*
X63425Y-37965D01*
X63366Y-37994D01*
X63366Y-38346D01*
X63671Y-38346D01*
X63707Y-38286D01*
X63707Y-38485D01*
X63671Y-38425D01*
X63366Y-38425D01*
X63366Y-38777D01*
X63425Y-38806D01*
X63560Y-38740D01*
X63659Y-38627D01*
X63707Y-38485D01*
X63707Y-40254D01*
X63659Y-40112D01*
X63560Y-39999D01*
X63425Y-39934D01*
X63366Y-39962D01*
X63366Y-40314D01*
X63671Y-40314D01*
X63707Y-40254D01*
X63707Y-40453D01*
X63671Y-40393D01*
X63366Y-40393D01*
X63366Y-40745D01*
X63425Y-40774D01*
X63560Y-40708D01*
X63659Y-40595D01*
X63707Y-40453D01*
X63707Y-42920D01*
X63688Y-42920D01*
X63520Y-42989D01*
X63391Y-43118D01*
X63322Y-43286D01*
X63321Y-43468D01*
X63391Y-43636D01*
X63520Y-43765D01*
X63688Y-43835D01*
X63870Y-43835D01*
X64038Y-43766D01*
X64167Y-43637D01*
X64236Y-43469D01*
X64237Y-43287D01*
X64237Y-44287D01*
X64167Y-44119D01*
X64039Y-43990D01*
X63870Y-43920D01*
X63688Y-43920D01*
X63520Y-43989D01*
X63391Y-44118D01*
X63322Y-44286D01*
X63321Y-44468D01*
X63391Y-44636D01*
X63520Y-44765D01*
X63688Y-44835D01*
X63870Y-44835D01*
X63893Y-44825D01*
X65435Y-46367D01*
X65435Y-46367D01*
X65486Y-46402D01*
X65511Y-46419D01*
X65511Y-46419D01*
X65602Y-46437D01*
X65602Y-46437D01*
X75721Y-46437D01*
X75589Y-46568D01*
X75508Y-46763D01*
X75508Y-46975D01*
X75589Y-47170D01*
X75623Y-47204D01*
X63287Y-47204D01*
X63287Y-40745D01*
X63287Y-40393D01*
X63287Y-40314D01*
X63287Y-39962D01*
X63287Y-38777D01*
X63287Y-38425D01*
X63287Y-38346D01*
X63287Y-37994D01*
X63228Y-37965D01*
X63092Y-38031D01*
X62993Y-38144D01*
X62945Y-38286D01*
X62981Y-38346D01*
X63287Y-38346D01*
X63287Y-38425D01*
X62981Y-38425D01*
X62945Y-38485D01*
X62993Y-38627D01*
X63092Y-38740D01*
X63228Y-38806D01*
X63287Y-38777D01*
X63287Y-39962D01*
X63228Y-39934D01*
X63092Y-39999D01*
X62993Y-40112D01*
X62945Y-40254D01*
X62981Y-40314D01*
X63287Y-40314D01*
X63287Y-40393D01*
X62981Y-40393D01*
X62945Y-40453D01*
X62993Y-40595D01*
X63092Y-40708D01*
X63228Y-40774D01*
X63287Y-40745D01*
X63287Y-47204D01*
X63237Y-47204D01*
X63237Y-43287D01*
X63167Y-43119D01*
X63039Y-42990D01*
X62870Y-42920D01*
X62830Y-42920D01*
X62830Y-34594D01*
X62830Y-34044D01*
X62806Y-33986D01*
X62761Y-33941D01*
X62704Y-33917D01*
X62641Y-33917D01*
X62091Y-33917D01*
X62033Y-33941D01*
X61989Y-33986D01*
X61965Y-34043D01*
X61965Y-34106D01*
X61965Y-34656D01*
X61989Y-34714D01*
X62033Y-34758D01*
X62091Y-34782D01*
X62153Y-34782D01*
X62703Y-34782D01*
X62761Y-34758D01*
X62806Y-34714D01*
X62830Y-34656D01*
X62830Y-34594D01*
X62830Y-42920D01*
X62755Y-42920D01*
X62755Y-40995D01*
X62755Y-40264D01*
X62755Y-38476D01*
X62755Y-37744D01*
X62732Y-37686D01*
X62687Y-37642D01*
X62629Y-37618D01*
X62567Y-37618D01*
X62342Y-37618D01*
X62303Y-37657D01*
X62303Y-38070D01*
X62716Y-38070D01*
X62755Y-38031D01*
X62755Y-37744D01*
X62755Y-38476D01*
X62755Y-38188D01*
X62716Y-38149D01*
X62303Y-38149D01*
X62303Y-38562D01*
X62342Y-38602D01*
X62567Y-38602D01*
X62629Y-38602D01*
X62687Y-38578D01*
X62732Y-38533D01*
X62755Y-38476D01*
X62755Y-40264D01*
X62732Y-40206D01*
X62687Y-40161D01*
X62629Y-40137D01*
X62567Y-40137D01*
X62342Y-40137D01*
X62303Y-40177D01*
X62303Y-40590D01*
X62716Y-40590D01*
X62755Y-40551D01*
X62755Y-40264D01*
X62755Y-40995D01*
X62755Y-40708D01*
X62716Y-40669D01*
X62303Y-40669D01*
X62303Y-41082D01*
X62342Y-41122D01*
X62567Y-41122D01*
X62629Y-41122D01*
X62687Y-41097D01*
X62732Y-41053D01*
X62755Y-40995D01*
X62755Y-42920D01*
X62688Y-42920D01*
X62520Y-42989D01*
X62391Y-43118D01*
X62322Y-43286D01*
X62321Y-43468D01*
X62391Y-43636D01*
X62520Y-43765D01*
X62688Y-43835D01*
X62870Y-43835D01*
X63038Y-43766D01*
X63167Y-43637D01*
X63236Y-43469D01*
X63237Y-43287D01*
X63237Y-47204D01*
X63237Y-47204D01*
X63237Y-44646D01*
X63237Y-44046D01*
X63213Y-43988D01*
X63168Y-43944D01*
X63110Y-43920D01*
X63048Y-43920D01*
X62448Y-43920D01*
X62390Y-43944D01*
X62346Y-43988D01*
X62322Y-44046D01*
X62322Y-44109D01*
X62322Y-44709D01*
X62345Y-44767D01*
X62390Y-44811D01*
X62448Y-44835D01*
X62510Y-44835D01*
X63110Y-44835D01*
X63168Y-44811D01*
X63212Y-44767D01*
X63236Y-44709D01*
X63237Y-44646D01*
X63237Y-47204D01*
X62224Y-47204D01*
X62224Y-41082D01*
X62224Y-40669D01*
X62224Y-40590D01*
X62224Y-40177D01*
X62224Y-38562D01*
X62224Y-38149D01*
X62224Y-38070D01*
X62224Y-37657D01*
X62185Y-37618D01*
X61960Y-37618D01*
X61897Y-37618D01*
X61839Y-37642D01*
X61795Y-37686D01*
X61771Y-37744D01*
X61771Y-38031D01*
X61811Y-38070D01*
X62224Y-38070D01*
X62224Y-38149D01*
X61811Y-38149D01*
X61771Y-38188D01*
X61771Y-38476D01*
X61795Y-38533D01*
X61839Y-38578D01*
X61897Y-38602D01*
X61960Y-38602D01*
X62185Y-38602D01*
X62224Y-38562D01*
X62224Y-40177D01*
X62185Y-40137D01*
X61960Y-40137D01*
X61897Y-40137D01*
X61839Y-40161D01*
X61795Y-40206D01*
X61771Y-40264D01*
X61771Y-40551D01*
X61811Y-40590D01*
X62224Y-40590D01*
X62224Y-40669D01*
X61811Y-40669D01*
X61771Y-40708D01*
X61771Y-40995D01*
X61795Y-41053D01*
X61839Y-41097D01*
X61897Y-41122D01*
X61960Y-41122D01*
X62185Y-41122D01*
X62224Y-41082D01*
X62224Y-47204D01*
X61653Y-47204D01*
X61653Y-31535D01*
X75649Y-31535D01*
X75658Y-31543D01*
X75579Y-31584D01*
X75505Y-31782D01*
X75512Y-31993D01*
X75579Y-32155D01*
X75658Y-32196D01*
X75984Y-31870D01*
X75978Y-31864D01*
X76034Y-31808D01*
X76040Y-31814D01*
X76045Y-31808D01*
X76101Y-31864D01*
X76095Y-31870D01*
X76422Y-32196D01*
X76500Y-32155D01*
X76539Y-32051D01*
X76589Y-32170D01*
X76738Y-32320D01*
X76933Y-32401D01*
X77145Y-32401D01*
X77340Y-32320D01*
X77490Y-32171D01*
X77540Y-32051D01*
X77589Y-32170D01*
X77738Y-32320D01*
X77933Y-32401D01*
X78145Y-32401D01*
X78340Y-32320D01*
X78490Y-32171D01*
X78540Y-32051D01*
X78589Y-32170D01*
X78738Y-32320D01*
X78933Y-32401D01*
X79145Y-32401D01*
X79340Y-32320D01*
X79490Y-32171D01*
X79571Y-31976D01*
X79571Y-31764D01*
X79491Y-31569D01*
X79457Y-31535D01*
X95826Y-31535D01*
X95826Y-47204D01*
M02*
