G04 (created by PCBNEW (2013-07-07 BZR 4022)-stable) date 10/12/2013 15:05:53*
%MOIN*%
G04 Gerber Fmt 3.4, Leading zero omitted, Abs format*
%FSLAX34Y34*%
G01*
G70*
G90*
G04 APERTURE LIST*
%ADD10C,0.00590551*%
G04 APERTURE END LIST*
G54D10*
G36*
X62658Y-38504D02*
X61869Y-38504D01*
X61869Y-37715D01*
X62658Y-37715D01*
X62658Y-38504D01*
X62658Y-38504D01*
G37*
G36*
X62658Y-40118D02*
X61869Y-40118D01*
X61869Y-39377D01*
X61869Y-39362D01*
X61869Y-38621D01*
X62658Y-38621D01*
X62658Y-39362D01*
X62658Y-39377D01*
X62658Y-40118D01*
X62658Y-40118D01*
G37*
G36*
X62658Y-41024D02*
X61869Y-41024D01*
X61869Y-40235D01*
X62658Y-40235D01*
X62658Y-41024D01*
X62658Y-41024D01*
G37*
G36*
X62732Y-34685D02*
X62062Y-34685D01*
X62062Y-34015D01*
X62732Y-34015D01*
X62732Y-34685D01*
X62732Y-34685D01*
G37*
G36*
X63139Y-43345D02*
X63138Y-43420D01*
X63121Y-43494D01*
X63094Y-43553D01*
X63050Y-43616D01*
X63004Y-43660D01*
X62939Y-43701D01*
X62879Y-43724D01*
X62804Y-43738D01*
X62739Y-43736D01*
X62664Y-43720D01*
X62606Y-43694D01*
X62543Y-43650D01*
X62498Y-43604D01*
X62456Y-43540D01*
X62433Y-43480D01*
X62419Y-43404D01*
X62420Y-43341D01*
X62436Y-43265D01*
X62461Y-43206D01*
X62505Y-43143D01*
X62550Y-43098D01*
X62615Y-43056D01*
X62674Y-43032D01*
X62750Y-43017D01*
X62813Y-43018D01*
X62889Y-43034D01*
X62948Y-43058D01*
X63012Y-43102D01*
X63057Y-43146D01*
X63100Y-43211D01*
X63124Y-43269D01*
X63139Y-43345D01*
X63139Y-43345D01*
G37*
G36*
X63139Y-44737D02*
X62419Y-44737D01*
X62419Y-44018D01*
X63139Y-44018D01*
X63139Y-44737D01*
X63139Y-44737D01*
G37*
G36*
X63652Y-40030D02*
X63558Y-40030D01*
X63542Y-40030D01*
X63528Y-40036D01*
X63517Y-40047D01*
X63511Y-40061D01*
X63511Y-40076D01*
X63517Y-40090D01*
X63528Y-40101D01*
X63529Y-40102D01*
X63564Y-40145D01*
X63590Y-40194D01*
X63606Y-40247D01*
X63612Y-40310D01*
X63612Y-40397D01*
X63612Y-40402D01*
X63612Y-40408D01*
X63612Y-40409D01*
X63605Y-40464D01*
X63605Y-40464D01*
X63605Y-40465D01*
X63589Y-40517D01*
X63562Y-40566D01*
X63526Y-40608D01*
X63482Y-40644D01*
X63434Y-40669D01*
X63379Y-40685D01*
X63325Y-40690D01*
X63269Y-40684D01*
X63216Y-40668D01*
X63167Y-40641D01*
X63124Y-40606D01*
X63088Y-40563D01*
X63062Y-40514D01*
X63046Y-40460D01*
X63040Y-40397D01*
X63040Y-40310D01*
X63040Y-40306D01*
X63041Y-40299D01*
X63041Y-40299D01*
X63047Y-40244D01*
X63047Y-40244D01*
X63047Y-40243D01*
X63064Y-40191D01*
X63091Y-40141D01*
X63129Y-40096D01*
X63135Y-40090D01*
X63141Y-40076D01*
X63141Y-40061D01*
X63135Y-40047D01*
X63124Y-40036D01*
X63110Y-40030D01*
X63094Y-40030D01*
X63001Y-40030D01*
X63001Y-39820D01*
X63001Y-39805D01*
X63001Y-39702D01*
X63001Y-39687D01*
X63001Y-39564D01*
X63001Y-39549D01*
X63001Y-39446D01*
X63001Y-39431D01*
X63001Y-39308D01*
X63001Y-39293D01*
X63001Y-39190D01*
X63001Y-39175D01*
X63001Y-39052D01*
X63001Y-39037D01*
X63001Y-38934D01*
X63001Y-38919D01*
X63001Y-38709D01*
X63095Y-38709D01*
X63110Y-38709D01*
X63124Y-38703D01*
X63135Y-38693D01*
X63141Y-38678D01*
X63141Y-38663D01*
X63135Y-38649D01*
X63124Y-38638D01*
X63124Y-38638D01*
X63088Y-38594D01*
X63062Y-38545D01*
X63046Y-38492D01*
X63040Y-38429D01*
X63040Y-38342D01*
X63040Y-38337D01*
X63041Y-38331D01*
X63041Y-38331D01*
X63047Y-38275D01*
X63047Y-38275D01*
X63047Y-38274D01*
X63064Y-38222D01*
X63091Y-38173D01*
X63126Y-38131D01*
X63170Y-38095D01*
X63219Y-38070D01*
X63273Y-38054D01*
X63328Y-38049D01*
X63384Y-38055D01*
X63437Y-38071D01*
X63486Y-38098D01*
X63529Y-38133D01*
X63564Y-38176D01*
X63590Y-38225D01*
X63606Y-38279D01*
X63612Y-38342D01*
X63612Y-38429D01*
X63612Y-38433D01*
X63612Y-38440D01*
X63612Y-38440D01*
X63605Y-38496D01*
X63605Y-38496D01*
X63605Y-38496D01*
X63589Y-38548D01*
X63562Y-38598D01*
X63524Y-38643D01*
X63518Y-38649D01*
X63512Y-38663D01*
X63512Y-38678D01*
X63518Y-38693D01*
X63529Y-38703D01*
X63543Y-38709D01*
X63558Y-38709D01*
X63652Y-38709D01*
X63652Y-38919D01*
X63652Y-38934D01*
X63652Y-39037D01*
X63652Y-39052D01*
X63652Y-39175D01*
X63652Y-39190D01*
X63652Y-39293D01*
X63652Y-39308D01*
X63652Y-39431D01*
X63652Y-39446D01*
X63652Y-39549D01*
X63652Y-39564D01*
X63652Y-39687D01*
X63652Y-39702D01*
X63652Y-39805D01*
X63652Y-39820D01*
X63652Y-40030D01*
X63652Y-40030D01*
G37*
G36*
X63732Y-34320D02*
X63731Y-34389D01*
X63715Y-34459D01*
X63691Y-34513D01*
X63650Y-34572D01*
X63606Y-34613D01*
X63546Y-34651D01*
X63490Y-34673D01*
X63420Y-34685D01*
X63360Y-34684D01*
X63290Y-34668D01*
X63236Y-34645D01*
X63177Y-34604D01*
X63136Y-34561D01*
X63097Y-34501D01*
X63075Y-34446D01*
X63062Y-34375D01*
X63063Y-34316D01*
X63078Y-34245D01*
X63101Y-34191D01*
X63142Y-34131D01*
X63184Y-34090D01*
X63245Y-34050D01*
X63299Y-34029D01*
X63370Y-34015D01*
X63429Y-34015D01*
X63500Y-34030D01*
X63554Y-34053D01*
X63614Y-34093D01*
X63655Y-34135D01*
X63696Y-34195D01*
X63718Y-34249D01*
X63732Y-34320D01*
X63732Y-34320D01*
G37*
G36*
X64139Y-43345D02*
X64138Y-43420D01*
X64121Y-43494D01*
X64094Y-43553D01*
X64050Y-43616D01*
X64004Y-43660D01*
X63939Y-43701D01*
X63879Y-43724D01*
X63804Y-43738D01*
X63739Y-43736D01*
X63664Y-43720D01*
X63606Y-43694D01*
X63543Y-43650D01*
X63498Y-43604D01*
X63456Y-43540D01*
X63433Y-43480D01*
X63419Y-43404D01*
X63420Y-43341D01*
X63436Y-43265D01*
X63461Y-43206D01*
X63505Y-43143D01*
X63550Y-43098D01*
X63615Y-43056D01*
X63674Y-43032D01*
X63750Y-43017D01*
X63813Y-43018D01*
X63889Y-43034D01*
X63948Y-43058D01*
X64012Y-43102D01*
X64057Y-43146D01*
X64100Y-43211D01*
X64124Y-43269D01*
X64139Y-43345D01*
X64139Y-43345D01*
G37*
G36*
X64139Y-44345D02*
X64138Y-44420D01*
X64121Y-44494D01*
X64094Y-44553D01*
X64050Y-44616D01*
X64004Y-44660D01*
X63939Y-44701D01*
X63879Y-44724D01*
X63804Y-44738D01*
X63739Y-44736D01*
X63664Y-44720D01*
X63606Y-44694D01*
X63543Y-44650D01*
X63498Y-44604D01*
X63456Y-44540D01*
X63433Y-44480D01*
X63419Y-44404D01*
X63420Y-44341D01*
X63436Y-44265D01*
X63461Y-44206D01*
X63505Y-44143D01*
X63550Y-44098D01*
X63615Y-44056D01*
X63674Y-44032D01*
X63750Y-44017D01*
X63813Y-44018D01*
X63889Y-44034D01*
X63948Y-44058D01*
X64012Y-44102D01*
X64057Y-44146D01*
X64100Y-44211D01*
X64124Y-44269D01*
X64139Y-44345D01*
X64139Y-44345D01*
G37*
G36*
X64308Y-37657D02*
X63839Y-37657D01*
X63839Y-36988D01*
X64308Y-36988D01*
X64308Y-37657D01*
X64308Y-37657D01*
G37*
G36*
X64458Y-38329D02*
X63888Y-38329D01*
X63888Y-37960D01*
X64458Y-37960D01*
X64458Y-38329D01*
X64458Y-38329D01*
G37*
G36*
X64458Y-38929D02*
X63888Y-38929D01*
X63888Y-38560D01*
X64458Y-38560D01*
X64458Y-38929D01*
X64458Y-38929D01*
G37*
G36*
X64732Y-34320D02*
X64731Y-34389D01*
X64715Y-34459D01*
X64691Y-34513D01*
X64650Y-34572D01*
X64606Y-34613D01*
X64546Y-34651D01*
X64490Y-34673D01*
X64420Y-34685D01*
X64360Y-34684D01*
X64290Y-34668D01*
X64236Y-34645D01*
X64177Y-34604D01*
X64136Y-34561D01*
X64097Y-34501D01*
X64075Y-34446D01*
X64062Y-34375D01*
X64063Y-34316D01*
X64078Y-34245D01*
X64101Y-34191D01*
X64142Y-34131D01*
X64184Y-34090D01*
X64245Y-34050D01*
X64299Y-34029D01*
X64370Y-34015D01*
X64429Y-34015D01*
X64500Y-34030D01*
X64554Y-34053D01*
X64614Y-34093D01*
X64655Y-34135D01*
X64696Y-34195D01*
X64718Y-34249D01*
X64732Y-34320D01*
X64732Y-34320D01*
G37*
G36*
X65139Y-43345D02*
X65138Y-43420D01*
X65121Y-43494D01*
X65094Y-43553D01*
X65050Y-43616D01*
X65004Y-43660D01*
X64939Y-43701D01*
X64879Y-43724D01*
X64804Y-43738D01*
X64739Y-43736D01*
X64664Y-43720D01*
X64606Y-43694D01*
X64543Y-43650D01*
X64498Y-43604D01*
X64456Y-43540D01*
X64433Y-43480D01*
X64419Y-43404D01*
X64420Y-43341D01*
X64436Y-43265D01*
X64461Y-43206D01*
X64505Y-43143D01*
X64550Y-43098D01*
X64615Y-43056D01*
X64674Y-43032D01*
X64750Y-43017D01*
X64813Y-43018D01*
X64889Y-43034D01*
X64948Y-43058D01*
X65012Y-43102D01*
X65057Y-43146D01*
X65100Y-43211D01*
X65124Y-43269D01*
X65139Y-43345D01*
X65139Y-43345D01*
G37*
G36*
X65139Y-44345D02*
X65138Y-44420D01*
X65121Y-44494D01*
X65094Y-44553D01*
X65050Y-44616D01*
X65004Y-44660D01*
X64939Y-44701D01*
X64879Y-44724D01*
X64804Y-44738D01*
X64739Y-44736D01*
X64664Y-44720D01*
X64606Y-44694D01*
X64543Y-44650D01*
X64498Y-44604D01*
X64456Y-44540D01*
X64433Y-44480D01*
X64419Y-44404D01*
X64420Y-44341D01*
X64436Y-44265D01*
X64461Y-44206D01*
X64505Y-44143D01*
X64550Y-44098D01*
X64615Y-44056D01*
X64674Y-44032D01*
X64750Y-44017D01*
X64813Y-44018D01*
X64889Y-44034D01*
X64948Y-44058D01*
X65012Y-44102D01*
X65057Y-44146D01*
X65100Y-44211D01*
X65124Y-44269D01*
X65139Y-44345D01*
X65139Y-44345D01*
G37*
G36*
X65698Y-37660D02*
X65104Y-37660D01*
X65097Y-37657D01*
X65082Y-37657D01*
X64589Y-37657D01*
X64589Y-36988D01*
X65058Y-36988D01*
X65058Y-37244D01*
X65058Y-37259D01*
X65064Y-37274D01*
X65075Y-37284D01*
X65089Y-37290D01*
X65104Y-37290D01*
X65698Y-37290D01*
X65698Y-37660D01*
X65698Y-37660D01*
G37*
G36*
X65698Y-38260D02*
X65128Y-38260D01*
X65128Y-37890D01*
X65698Y-37890D01*
X65698Y-38260D01*
X65698Y-38260D01*
G37*
G36*
X65732Y-34320D02*
X65731Y-34389D01*
X65715Y-34459D01*
X65691Y-34513D01*
X65650Y-34572D01*
X65606Y-34613D01*
X65546Y-34651D01*
X65490Y-34673D01*
X65420Y-34685D01*
X65360Y-34684D01*
X65290Y-34668D01*
X65236Y-34645D01*
X65177Y-34604D01*
X65136Y-34561D01*
X65097Y-34501D01*
X65075Y-34446D01*
X65062Y-34375D01*
X65063Y-34316D01*
X65078Y-34245D01*
X65101Y-34191D01*
X65142Y-34131D01*
X65184Y-34090D01*
X65245Y-34050D01*
X65299Y-34029D01*
X65370Y-34015D01*
X65429Y-34015D01*
X65500Y-34030D01*
X65554Y-34053D01*
X65614Y-34093D01*
X65655Y-34135D01*
X65696Y-34195D01*
X65718Y-34249D01*
X65732Y-34320D01*
X65732Y-34320D01*
G37*
G36*
X65983Y-38957D02*
X65655Y-38957D01*
X65640Y-38957D01*
X65560Y-38957D01*
X65545Y-38957D01*
X65281Y-38957D01*
X65266Y-38957D01*
X65186Y-38957D01*
X65171Y-38957D01*
X64843Y-38957D01*
X64843Y-38443D01*
X65171Y-38443D01*
X65186Y-38443D01*
X65266Y-38443D01*
X65281Y-38443D01*
X65545Y-38443D01*
X65560Y-38443D01*
X65640Y-38443D01*
X65655Y-38443D01*
X65983Y-38443D01*
X65983Y-38957D01*
X65983Y-38957D01*
G37*
G36*
X65983Y-39981D02*
X65655Y-39981D01*
X65640Y-39981D01*
X65560Y-39981D01*
X65545Y-39981D01*
X65281Y-39981D01*
X65266Y-39981D01*
X65186Y-39981D01*
X65171Y-39981D01*
X64843Y-39981D01*
X64843Y-39467D01*
X65171Y-39467D01*
X65186Y-39467D01*
X65266Y-39467D01*
X65281Y-39467D01*
X65545Y-39467D01*
X65560Y-39467D01*
X65640Y-39467D01*
X65655Y-39467D01*
X65983Y-39467D01*
X65983Y-39981D01*
X65983Y-39981D01*
G37*
G36*
X66558Y-38985D02*
X66188Y-38985D01*
X66188Y-38415D01*
X66558Y-38415D01*
X66558Y-38985D01*
X66558Y-38985D01*
G37*
G36*
X66558Y-40009D02*
X66188Y-40009D01*
X66188Y-39439D01*
X66558Y-39439D01*
X66558Y-40009D01*
X66558Y-40009D01*
G37*
G36*
X67158Y-38985D02*
X66788Y-38985D01*
X66788Y-38415D01*
X67158Y-38415D01*
X67158Y-38985D01*
X67158Y-38985D01*
G37*
G36*
X67158Y-40009D02*
X66788Y-40009D01*
X66788Y-39439D01*
X67158Y-39439D01*
X67158Y-40009D01*
X67158Y-40009D01*
G37*
G36*
X68447Y-38414D02*
X68078Y-38414D01*
X68078Y-37850D01*
X68078Y-37835D01*
X68078Y-37814D01*
X68078Y-37798D01*
X68078Y-37234D01*
X68447Y-37234D01*
X68447Y-37798D01*
X68447Y-37814D01*
X68447Y-37835D01*
X68447Y-37850D01*
X68447Y-38414D01*
X68447Y-38414D01*
G37*
G36*
X68465Y-35323D02*
X68461Y-35574D01*
X68410Y-35797D01*
X68322Y-35997D01*
X68189Y-36185D01*
X68031Y-36335D01*
X67837Y-36458D01*
X67634Y-36537D01*
X67407Y-36577D01*
X67189Y-36572D01*
X66965Y-36523D01*
X66765Y-36436D01*
X66576Y-36304D01*
X66425Y-36148D01*
X66300Y-35954D01*
X66220Y-35752D01*
X66178Y-35525D01*
X66182Y-35308D01*
X66229Y-35082D01*
X66315Y-34883D01*
X66445Y-34692D01*
X66601Y-34540D01*
X66794Y-34414D01*
X66995Y-34333D01*
X67222Y-34289D01*
X67439Y-34291D01*
X67665Y-34337D01*
X67865Y-34421D01*
X68057Y-34551D01*
X68209Y-34704D01*
X68337Y-34897D01*
X68420Y-35097D01*
X68465Y-35323D01*
X68465Y-35323D01*
G37*
G36*
X68465Y-43197D02*
X68461Y-43448D01*
X68410Y-43672D01*
X68322Y-43871D01*
X68189Y-44059D01*
X68031Y-44209D01*
X67837Y-44332D01*
X67634Y-44411D01*
X67407Y-44451D01*
X67189Y-44446D01*
X66965Y-44397D01*
X66765Y-44310D01*
X66576Y-44178D01*
X66425Y-44022D01*
X66300Y-43828D01*
X66220Y-43626D01*
X66178Y-43399D01*
X66182Y-43182D01*
X66229Y-42956D01*
X66315Y-42757D01*
X66445Y-42566D01*
X66601Y-42414D01*
X66794Y-42288D01*
X66995Y-42207D01*
X67222Y-42163D01*
X67439Y-42165D01*
X67665Y-42211D01*
X67865Y-42295D01*
X68057Y-42425D01*
X68209Y-42578D01*
X68337Y-42771D01*
X68420Y-42971D01*
X68465Y-43197D01*
X68465Y-43197D01*
G37*
G36*
X68504Y-32225D02*
X67912Y-32225D01*
X67912Y-31790D01*
X68504Y-31790D01*
X68504Y-32225D01*
X68504Y-32225D01*
G37*
G36*
X68504Y-33957D02*
X67912Y-33957D01*
X67912Y-33522D01*
X68504Y-33522D01*
X68504Y-33957D01*
X68504Y-33957D01*
G37*
G36*
X68723Y-44773D02*
X68353Y-44773D01*
X68353Y-44203D01*
X68723Y-44203D01*
X68723Y-44773D01*
X68723Y-44773D01*
G37*
G36*
X69047Y-38427D02*
X69044Y-38431D01*
X69038Y-38445D01*
X69038Y-38461D01*
X69038Y-39044D01*
X68668Y-39044D01*
X68668Y-38461D01*
X68672Y-38458D01*
X68678Y-38444D01*
X68678Y-38428D01*
X68678Y-37850D01*
X68678Y-37835D01*
X68678Y-37814D01*
X68678Y-37798D01*
X68678Y-37234D01*
X69047Y-37234D01*
X69047Y-37798D01*
X69047Y-37814D01*
X69047Y-37835D01*
X69047Y-37850D01*
X69047Y-38427D01*
X69047Y-38427D01*
G37*
G36*
X69084Y-42050D02*
X68514Y-42050D01*
X68514Y-41680D01*
X69084Y-41680D01*
X69084Y-42050D01*
X69084Y-42050D01*
G37*
G36*
X69119Y-43268D02*
X68566Y-43268D01*
X68566Y-42696D01*
X68566Y-42681D01*
X68560Y-42666D01*
X68549Y-42656D01*
X68535Y-42650D01*
X68520Y-42650D01*
X68514Y-42650D01*
X68514Y-42280D01*
X69084Y-42280D01*
X69084Y-42669D01*
X69084Y-42684D01*
X69089Y-42699D01*
X69100Y-42709D01*
X69114Y-42715D01*
X69119Y-42715D01*
X69119Y-43268D01*
X69119Y-43268D01*
G37*
G36*
X69398Y-34943D02*
X68829Y-34943D01*
X68829Y-34574D01*
X69398Y-34574D01*
X69398Y-34943D01*
X69398Y-34943D01*
G37*
G36*
X69398Y-35543D02*
X68829Y-35543D01*
X68829Y-35174D01*
X69398Y-35174D01*
X69398Y-35543D01*
X69398Y-35543D01*
G37*
G36*
X69469Y-44134D02*
X69369Y-44134D01*
X69354Y-44134D01*
X69340Y-44140D01*
X69329Y-44151D01*
X69323Y-44165D01*
X69323Y-44180D01*
X69323Y-44773D01*
X68953Y-44773D01*
X68953Y-44180D01*
X68953Y-44165D01*
X68947Y-44151D01*
X68937Y-44140D01*
X68922Y-44134D01*
X68916Y-44134D01*
X68916Y-43581D01*
X69469Y-43581D01*
X69469Y-44134D01*
X69469Y-44134D01*
G37*
G36*
X69638Y-39044D02*
X69268Y-39044D01*
X69268Y-38475D01*
X69638Y-38475D01*
X69638Y-39044D01*
X69638Y-39044D01*
G37*
G36*
X69819Y-43268D02*
X69266Y-43268D01*
X69266Y-42715D01*
X69819Y-42715D01*
X69819Y-43268D01*
X69819Y-43268D01*
G37*
G36*
X69882Y-32225D02*
X69290Y-32225D01*
X69290Y-31790D01*
X69882Y-31790D01*
X69882Y-32225D01*
X69882Y-32225D01*
G37*
G36*
X69882Y-33957D02*
X69290Y-33957D01*
X69290Y-33522D01*
X69882Y-33522D01*
X69882Y-33957D01*
X69882Y-33957D01*
G37*
G36*
X70461Y-39058D02*
X69892Y-39058D01*
X69892Y-38688D01*
X70461Y-38688D01*
X70461Y-39058D01*
X70461Y-39058D01*
G37*
G36*
X70461Y-39658D02*
X69892Y-39658D01*
X69892Y-39288D01*
X70461Y-39288D01*
X70461Y-39658D01*
X70461Y-39658D01*
G37*
G36*
X70475Y-44812D02*
X70105Y-44812D01*
X70105Y-44228D01*
X70105Y-44213D01*
X70105Y-44211D01*
X70105Y-44196D01*
X70105Y-43612D01*
X70475Y-43612D01*
X70475Y-44196D01*
X70475Y-44211D01*
X70475Y-44213D01*
X70475Y-44228D01*
X70475Y-44812D01*
X70475Y-44812D01*
G37*
G36*
X70501Y-32758D02*
X69931Y-32758D01*
X69931Y-32389D01*
X70501Y-32389D01*
X70501Y-32758D01*
X70501Y-32758D01*
G37*
G36*
X70501Y-33358D02*
X69931Y-33358D01*
X69931Y-32989D01*
X70501Y-32989D01*
X70501Y-33358D01*
X70501Y-33358D01*
G37*
G36*
X70501Y-41833D02*
X69931Y-41833D01*
X69931Y-41464D01*
X70501Y-41464D01*
X70501Y-41833D01*
X70501Y-41833D01*
G37*
G36*
X70501Y-42433D02*
X69931Y-42433D01*
X69931Y-42064D01*
X70501Y-42064D01*
X70501Y-42433D01*
X70501Y-42433D01*
G37*
G36*
X70501Y-42896D02*
X69931Y-42896D01*
X69931Y-42526D01*
X70501Y-42526D01*
X70501Y-42896D01*
X70501Y-42896D01*
G37*
G36*
X70501Y-43496D02*
X69931Y-43496D01*
X69931Y-43126D01*
X70501Y-43126D01*
X70501Y-43496D01*
X70501Y-43496D01*
G37*
G36*
X71075Y-44812D02*
X70705Y-44812D01*
X70705Y-44228D01*
X70705Y-44213D01*
X70705Y-44211D01*
X70705Y-44196D01*
X70705Y-43612D01*
X71075Y-43612D01*
X71075Y-44196D01*
X71075Y-44211D01*
X71075Y-44213D01*
X71075Y-44228D01*
X71075Y-44812D01*
X71075Y-44812D01*
G37*
G36*
X71253Y-41908D02*
X70583Y-41908D01*
X70583Y-41552D01*
X71253Y-41552D01*
X71253Y-41908D01*
X71253Y-41908D01*
G37*
G36*
X71253Y-42408D02*
X70583Y-42408D01*
X70583Y-42052D01*
X71253Y-42052D01*
X71253Y-42408D01*
X71253Y-42408D01*
G37*
G36*
X71253Y-42908D02*
X70583Y-42908D01*
X70583Y-42552D01*
X71253Y-42552D01*
X71253Y-42908D01*
X71253Y-42908D01*
G37*
G36*
X71253Y-43408D02*
X70583Y-43408D01*
X70583Y-43052D01*
X71253Y-43052D01*
X71253Y-43408D01*
X71253Y-43408D01*
G37*
G36*
X71733Y-44138D02*
X71180Y-44138D01*
X71180Y-43586D01*
X71733Y-43586D01*
X71733Y-44138D01*
X71733Y-44138D01*
G37*
G36*
X71733Y-44838D02*
X71180Y-44838D01*
X71180Y-44286D01*
X71733Y-44286D01*
X71733Y-44838D01*
X71733Y-44838D01*
G37*
G36*
X72017Y-39491D02*
X71453Y-39491D01*
X71437Y-39491D01*
X71416Y-39491D01*
X71401Y-39491D01*
X70837Y-39491D01*
X70837Y-39121D01*
X71401Y-39121D01*
X71416Y-39121D01*
X71437Y-39121D01*
X71453Y-39121D01*
X72017Y-39121D01*
X72017Y-39491D01*
X72017Y-39491D01*
G37*
G36*
X72017Y-40091D02*
X71453Y-40091D01*
X71437Y-40091D01*
X71416Y-40091D01*
X71401Y-40091D01*
X70837Y-40091D01*
X70837Y-39721D01*
X71401Y-39721D01*
X71416Y-39721D01*
X71437Y-39721D01*
X71453Y-39721D01*
X72017Y-39721D01*
X72017Y-40091D01*
X72017Y-40091D01*
G37*
G36*
X72443Y-34969D02*
X72074Y-34969D01*
X72074Y-34400D01*
X72443Y-34400D01*
X72443Y-34969D01*
X72443Y-34969D01*
G37*
G36*
X72599Y-44488D02*
X72046Y-44488D01*
X72046Y-43936D01*
X72599Y-43936D01*
X72599Y-44488D01*
X72599Y-44488D01*
G37*
G36*
X72836Y-37736D02*
X72833Y-37760D01*
X72827Y-37781D01*
X72816Y-37802D01*
X72801Y-37819D01*
X72783Y-37834D01*
X72763Y-37845D01*
X72741Y-37852D01*
X72710Y-37855D01*
X72328Y-37855D01*
X72326Y-37855D01*
X72319Y-37854D01*
X72319Y-37854D01*
X72296Y-37851D01*
X72296Y-37851D01*
X72296Y-37851D01*
X72291Y-37850D01*
X72275Y-37850D01*
X72261Y-37855D01*
X72256Y-37860D01*
X72256Y-37860D01*
X72245Y-37871D01*
X72239Y-37886D01*
X72239Y-37901D01*
X72241Y-37908D01*
X72244Y-37939D01*
X72244Y-38320D01*
X72244Y-38323D01*
X72244Y-38329D01*
X72244Y-38329D01*
X72241Y-38352D01*
X72241Y-38352D01*
X72241Y-38353D01*
X72234Y-38374D01*
X72223Y-38395D01*
X72208Y-38412D01*
X72190Y-38427D01*
X72170Y-38437D01*
X72147Y-38444D01*
X72125Y-38446D01*
X72101Y-38444D01*
X72080Y-38437D01*
X72059Y-38426D01*
X72049Y-38417D01*
X72035Y-38411D01*
X72019Y-38411D01*
X72005Y-38417D01*
X71993Y-38427D01*
X71973Y-38437D01*
X71950Y-38444D01*
X71928Y-38446D01*
X71905Y-38444D01*
X71883Y-38437D01*
X71862Y-38426D01*
X71852Y-38417D01*
X71838Y-38411D01*
X71823Y-38411D01*
X71808Y-38417D01*
X71796Y-38427D01*
X71776Y-38437D01*
X71754Y-38444D01*
X71731Y-38446D01*
X71708Y-38444D01*
X71686Y-38437D01*
X71666Y-38426D01*
X71655Y-38417D01*
X71641Y-38411D01*
X71626Y-38411D01*
X71611Y-38417D01*
X71599Y-38427D01*
X71580Y-38437D01*
X71557Y-38444D01*
X71534Y-38446D01*
X71511Y-38444D01*
X71489Y-38437D01*
X71469Y-38426D01*
X71458Y-38417D01*
X71444Y-38411D01*
X71429Y-38411D01*
X71415Y-38417D01*
X71402Y-38427D01*
X71383Y-38437D01*
X71360Y-38444D01*
X71338Y-38446D01*
X71314Y-38444D01*
X71293Y-38437D01*
X71272Y-38426D01*
X71262Y-38417D01*
X71247Y-38411D01*
X71232Y-38411D01*
X71218Y-38417D01*
X71206Y-38427D01*
X71186Y-38437D01*
X71163Y-38444D01*
X71141Y-38446D01*
X71117Y-38444D01*
X71096Y-38437D01*
X71075Y-38426D01*
X71065Y-38417D01*
X71050Y-38411D01*
X71035Y-38411D01*
X71021Y-38417D01*
X71009Y-38427D01*
X70989Y-38437D01*
X70966Y-38444D01*
X70944Y-38446D01*
X70920Y-38444D01*
X70899Y-38437D01*
X70878Y-38426D01*
X70868Y-38417D01*
X70854Y-38411D01*
X70838Y-38411D01*
X70824Y-38417D01*
X70812Y-38427D01*
X70792Y-38437D01*
X70769Y-38444D01*
X70747Y-38446D01*
X70724Y-38444D01*
X70702Y-38437D01*
X70681Y-38426D01*
X70671Y-38417D01*
X70657Y-38411D01*
X70641Y-38411D01*
X70627Y-38417D01*
X70615Y-38427D01*
X70595Y-38437D01*
X70573Y-38444D01*
X70550Y-38446D01*
X70527Y-38444D01*
X70505Y-38437D01*
X70484Y-38426D01*
X70474Y-38417D01*
X70460Y-38411D01*
X70445Y-38411D01*
X70430Y-38417D01*
X70418Y-38427D01*
X70398Y-38437D01*
X70376Y-38444D01*
X70353Y-38446D01*
X70330Y-38444D01*
X70308Y-38437D01*
X70288Y-38426D01*
X70277Y-38417D01*
X70263Y-38411D01*
X70248Y-38411D01*
X70234Y-38417D01*
X70221Y-38427D01*
X70202Y-38437D01*
X70179Y-38444D01*
X70156Y-38446D01*
X70133Y-38444D01*
X70111Y-38437D01*
X70091Y-38426D01*
X70073Y-38411D01*
X70059Y-38393D01*
X70048Y-38373D01*
X70041Y-38351D01*
X70038Y-38320D01*
X70038Y-37939D01*
X70038Y-37936D01*
X70039Y-37930D01*
X70039Y-37929D01*
X70041Y-37906D01*
X70041Y-37906D01*
X70042Y-37906D01*
X70043Y-37901D01*
X70043Y-37886D01*
X70037Y-37871D01*
X70032Y-37866D01*
X70032Y-37866D01*
X70021Y-37855D01*
X70007Y-37849D01*
X69992Y-37849D01*
X69985Y-37852D01*
X69954Y-37855D01*
X69572Y-37855D01*
X69570Y-37855D01*
X69564Y-37854D01*
X69563Y-37854D01*
X69540Y-37851D01*
X69540Y-37851D01*
X69540Y-37851D01*
X69519Y-37844D01*
X69498Y-37833D01*
X69481Y-37819D01*
X69466Y-37800D01*
X69455Y-37780D01*
X69449Y-37758D01*
X69447Y-37735D01*
X69449Y-37712D01*
X69456Y-37690D01*
X69467Y-37670D01*
X69475Y-37659D01*
X69481Y-37645D01*
X69481Y-37630D01*
X69475Y-37615D01*
X69466Y-37603D01*
X69455Y-37583D01*
X69449Y-37561D01*
X69447Y-37538D01*
X69449Y-37515D01*
X69456Y-37493D01*
X69467Y-37473D01*
X69475Y-37462D01*
X69481Y-37448D01*
X69481Y-37433D01*
X69475Y-37419D01*
X69466Y-37406D01*
X69455Y-37387D01*
X69449Y-37364D01*
X69447Y-37341D01*
X69449Y-37318D01*
X69456Y-37296D01*
X69467Y-37276D01*
X69475Y-37265D01*
X69481Y-37251D01*
X69481Y-37236D01*
X69475Y-37222D01*
X69466Y-37210D01*
X69455Y-37190D01*
X69449Y-37167D01*
X69447Y-37145D01*
X69449Y-37121D01*
X69456Y-37100D01*
X69467Y-37079D01*
X69475Y-37069D01*
X69481Y-37054D01*
X69481Y-37039D01*
X69475Y-37025D01*
X69466Y-37013D01*
X69455Y-36993D01*
X69449Y-36970D01*
X69447Y-36948D01*
X69449Y-36924D01*
X69456Y-36903D01*
X69467Y-36882D01*
X69475Y-36872D01*
X69481Y-36858D01*
X69481Y-36842D01*
X69475Y-36828D01*
X69466Y-36816D01*
X69455Y-36796D01*
X69449Y-36773D01*
X69447Y-36751D01*
X69449Y-36727D01*
X69456Y-36706D01*
X69467Y-36685D01*
X69475Y-36675D01*
X69481Y-36661D01*
X69481Y-36645D01*
X69475Y-36631D01*
X69466Y-36619D01*
X69455Y-36599D01*
X69449Y-36576D01*
X69447Y-36554D01*
X69449Y-36531D01*
X69456Y-36509D01*
X69467Y-36488D01*
X69475Y-36478D01*
X69481Y-36464D01*
X69481Y-36449D01*
X69475Y-36434D01*
X69466Y-36422D01*
X69455Y-36402D01*
X69449Y-36380D01*
X69447Y-36357D01*
X69449Y-36334D01*
X69456Y-36312D01*
X69467Y-36292D01*
X69475Y-36281D01*
X69481Y-36267D01*
X69481Y-36252D01*
X69475Y-36237D01*
X69466Y-36225D01*
X69455Y-36205D01*
X69449Y-36183D01*
X69447Y-36160D01*
X69449Y-36137D01*
X69456Y-36115D01*
X69467Y-36095D01*
X69475Y-36084D01*
X69481Y-36070D01*
X69481Y-36055D01*
X69475Y-36041D01*
X69466Y-36028D01*
X69455Y-36009D01*
X69449Y-35986D01*
X69447Y-35964D01*
X69449Y-35940D01*
X69456Y-35918D01*
X69467Y-35898D01*
X69475Y-35888D01*
X69481Y-35873D01*
X69481Y-35858D01*
X69475Y-35844D01*
X69466Y-35832D01*
X69455Y-35812D01*
X69449Y-35789D01*
X69447Y-35767D01*
X69449Y-35743D01*
X69456Y-35722D01*
X69467Y-35701D01*
X69481Y-35684D01*
X69499Y-35669D01*
X69520Y-35658D01*
X69542Y-35651D01*
X69572Y-35648D01*
X69954Y-35648D01*
X69956Y-35648D01*
X69963Y-35649D01*
X69963Y-35649D01*
X69986Y-35652D01*
X69986Y-35652D01*
X69987Y-35652D01*
X69992Y-35653D01*
X70007Y-35653D01*
X70021Y-35647D01*
X70026Y-35643D01*
X70027Y-35642D01*
X70037Y-35632D01*
X70043Y-35617D01*
X70043Y-35602D01*
X70041Y-35595D01*
X70038Y-35564D01*
X70038Y-35183D01*
X70038Y-35180D01*
X70039Y-35174D01*
X70039Y-35173D01*
X70041Y-35151D01*
X70041Y-35150D01*
X70042Y-35150D01*
X70048Y-35129D01*
X70060Y-35108D01*
X70074Y-35091D01*
X70093Y-35076D01*
X70112Y-35066D01*
X70135Y-35059D01*
X70158Y-35057D01*
X70181Y-35059D01*
X70203Y-35066D01*
X70223Y-35077D01*
X70234Y-35086D01*
X70248Y-35092D01*
X70263Y-35092D01*
X70277Y-35086D01*
X70289Y-35076D01*
X70309Y-35066D01*
X70332Y-35059D01*
X70354Y-35057D01*
X70378Y-35059D01*
X70399Y-35066D01*
X70420Y-35077D01*
X70430Y-35086D01*
X70445Y-35092D01*
X70460Y-35092D01*
X70474Y-35086D01*
X70486Y-35076D01*
X70506Y-35066D01*
X70529Y-35059D01*
X70551Y-35057D01*
X70575Y-35059D01*
X70596Y-35066D01*
X70617Y-35077D01*
X70627Y-35086D01*
X70641Y-35092D01*
X70657Y-35092D01*
X70671Y-35086D01*
X70683Y-35076D01*
X70703Y-35066D01*
X70726Y-35059D01*
X70748Y-35057D01*
X70772Y-35059D01*
X70793Y-35066D01*
X70814Y-35077D01*
X70824Y-35086D01*
X70838Y-35092D01*
X70854Y-35092D01*
X70868Y-35086D01*
X70880Y-35076D01*
X70900Y-35066D01*
X70923Y-35059D01*
X70945Y-35057D01*
X70968Y-35059D01*
X70990Y-35066D01*
X71011Y-35077D01*
X71021Y-35086D01*
X71035Y-35092D01*
X71050Y-35092D01*
X71065Y-35086D01*
X71077Y-35076D01*
X71097Y-35066D01*
X71119Y-35059D01*
X71142Y-35057D01*
X71165Y-35059D01*
X71187Y-35066D01*
X71207Y-35077D01*
X71218Y-35086D01*
X71232Y-35092D01*
X71247Y-35092D01*
X71262Y-35086D01*
X71274Y-35076D01*
X71294Y-35066D01*
X71316Y-35059D01*
X71339Y-35057D01*
X71362Y-35059D01*
X71384Y-35066D01*
X71404Y-35077D01*
X71415Y-35086D01*
X71429Y-35092D01*
X71444Y-35092D01*
X71458Y-35086D01*
X71471Y-35076D01*
X71490Y-35066D01*
X71513Y-35059D01*
X71535Y-35057D01*
X71559Y-35059D01*
X71581Y-35066D01*
X71601Y-35077D01*
X71611Y-35086D01*
X71626Y-35092D01*
X71641Y-35092D01*
X71655Y-35086D01*
X71667Y-35076D01*
X71687Y-35066D01*
X71710Y-35059D01*
X71732Y-35057D01*
X71756Y-35059D01*
X71777Y-35066D01*
X71798Y-35077D01*
X71808Y-35086D01*
X71823Y-35092D01*
X71838Y-35092D01*
X71852Y-35086D01*
X71864Y-35076D01*
X71884Y-35066D01*
X71907Y-35059D01*
X71929Y-35057D01*
X71953Y-35059D01*
X71974Y-35066D01*
X71995Y-35077D01*
X72005Y-35086D01*
X72019Y-35092D01*
X72035Y-35092D01*
X72049Y-35086D01*
X72061Y-35076D01*
X72081Y-35066D01*
X72104Y-35059D01*
X72126Y-35057D01*
X72149Y-35059D01*
X72171Y-35066D01*
X72192Y-35077D01*
X72209Y-35092D01*
X72224Y-35110D01*
X72235Y-35130D01*
X72241Y-35152D01*
X72244Y-35183D01*
X72244Y-35564D01*
X72244Y-35567D01*
X72244Y-35573D01*
X72244Y-35574D01*
X72241Y-35596D01*
X72241Y-35597D01*
X72241Y-35597D01*
X72239Y-35602D01*
X72239Y-35617D01*
X72245Y-35632D01*
X72250Y-35637D01*
X72250Y-35637D01*
X72261Y-35648D01*
X72275Y-35653D01*
X72291Y-35653D01*
X72298Y-35651D01*
X72328Y-35648D01*
X72710Y-35648D01*
X72712Y-35648D01*
X72719Y-35649D01*
X72719Y-35649D01*
X72742Y-35652D01*
X72742Y-35652D01*
X72743Y-35652D01*
X72764Y-35658D01*
X72785Y-35670D01*
X72802Y-35684D01*
X72817Y-35703D01*
X72827Y-35723D01*
X72834Y-35745D01*
X72836Y-35768D01*
X72833Y-35791D01*
X72827Y-35813D01*
X72816Y-35833D01*
X72807Y-35844D01*
X72801Y-35858D01*
X72801Y-35873D01*
X72807Y-35888D01*
X72817Y-35900D01*
X72827Y-35919D01*
X72834Y-35942D01*
X72836Y-35965D01*
X72833Y-35988D01*
X72827Y-36010D01*
X72816Y-36030D01*
X72807Y-36041D01*
X72801Y-36055D01*
X72801Y-36070D01*
X72807Y-36084D01*
X72817Y-36097D01*
X72827Y-36116D01*
X72834Y-36139D01*
X72836Y-36161D01*
X72833Y-36185D01*
X72827Y-36206D01*
X72816Y-36227D01*
X72807Y-36237D01*
X72801Y-36252D01*
X72801Y-36267D01*
X72807Y-36281D01*
X72817Y-36293D01*
X72827Y-36313D01*
X72834Y-36336D01*
X72836Y-36358D01*
X72833Y-36382D01*
X72827Y-36403D01*
X72816Y-36424D01*
X72807Y-36434D01*
X72801Y-36449D01*
X72801Y-36464D01*
X72807Y-36478D01*
X72817Y-36490D01*
X72827Y-36510D01*
X72834Y-36533D01*
X72836Y-36555D01*
X72833Y-36579D01*
X72827Y-36600D01*
X72816Y-36621D01*
X72807Y-36631D01*
X72801Y-36645D01*
X72801Y-36661D01*
X72807Y-36675D01*
X72817Y-36687D01*
X72827Y-36707D01*
X72834Y-36730D01*
X72836Y-36752D01*
X72833Y-36775D01*
X72827Y-36797D01*
X72816Y-36818D01*
X72807Y-36828D01*
X72801Y-36842D01*
X72801Y-36858D01*
X72807Y-36872D01*
X72817Y-36884D01*
X72827Y-36904D01*
X72834Y-36926D01*
X72836Y-36949D01*
X72833Y-36972D01*
X72827Y-36994D01*
X72816Y-37015D01*
X72807Y-37025D01*
X72801Y-37039D01*
X72801Y-37054D01*
X72807Y-37069D01*
X72817Y-37081D01*
X72827Y-37101D01*
X72834Y-37123D01*
X72836Y-37146D01*
X72833Y-37169D01*
X72827Y-37191D01*
X72816Y-37211D01*
X72807Y-37222D01*
X72801Y-37236D01*
X72801Y-37251D01*
X72807Y-37265D01*
X72817Y-37278D01*
X72827Y-37297D01*
X72834Y-37320D01*
X72836Y-37343D01*
X72833Y-37366D01*
X72827Y-37388D01*
X72816Y-37408D01*
X72807Y-37419D01*
X72801Y-37433D01*
X72801Y-37448D01*
X72807Y-37462D01*
X72817Y-37475D01*
X72827Y-37494D01*
X72834Y-37517D01*
X72836Y-37539D01*
X72833Y-37563D01*
X72827Y-37584D01*
X72816Y-37605D01*
X72807Y-37615D01*
X72801Y-37630D01*
X72801Y-37645D01*
X72807Y-37659D01*
X72817Y-37671D01*
X72827Y-37691D01*
X72834Y-37714D01*
X72836Y-37736D01*
X72836Y-37736D01*
G37*
G36*
X73043Y-34969D02*
X72674Y-34969D01*
X72674Y-34400D01*
X73043Y-34400D01*
X73043Y-34969D01*
X73043Y-34969D01*
G37*
G36*
X73285Y-44901D02*
X72815Y-44901D01*
X72815Y-44216D01*
X72816Y-44215D01*
X72822Y-44201D01*
X72822Y-44185D01*
X72822Y-43593D01*
X73191Y-43593D01*
X73191Y-44185D01*
X73191Y-44201D01*
X73197Y-44215D01*
X73208Y-44226D01*
X73222Y-44232D01*
X73238Y-44232D01*
X73285Y-44232D01*
X73285Y-44901D01*
X73285Y-44901D01*
G37*
G36*
X73353Y-41908D02*
X72683Y-41908D01*
X72683Y-41552D01*
X73353Y-41552D01*
X73353Y-41908D01*
X73353Y-41908D01*
G37*
G36*
X73353Y-42408D02*
X72683Y-42408D01*
X72683Y-42052D01*
X73353Y-42052D01*
X73353Y-42408D01*
X73353Y-42408D01*
G37*
G36*
X73847Y-37601D02*
X73278Y-37601D01*
X73278Y-37231D01*
X73847Y-37231D01*
X73847Y-37601D01*
X73847Y-37601D01*
G37*
G36*
X73847Y-38201D02*
X73278Y-38201D01*
X73278Y-37831D01*
X73847Y-37831D01*
X73847Y-38201D01*
X73847Y-38201D01*
G37*
G36*
X74355Y-42369D02*
X73635Y-42369D01*
X73635Y-41425D01*
X73635Y-41409D01*
X73629Y-41395D01*
X73619Y-41384D01*
X73604Y-41378D01*
X73589Y-41378D01*
X73483Y-41378D01*
X73483Y-40511D01*
X74154Y-40511D01*
X74154Y-41403D01*
X74154Y-41418D01*
X74160Y-41432D01*
X74171Y-41443D01*
X74185Y-41449D01*
X74200Y-41449D01*
X74355Y-41449D01*
X74355Y-42369D01*
X74355Y-42369D01*
G37*
G36*
X74595Y-42916D02*
X74031Y-42916D01*
X74016Y-42916D01*
X73995Y-42916D01*
X73979Y-42916D01*
X73401Y-42916D01*
X73399Y-42914D01*
X73385Y-42908D01*
X73369Y-42908D01*
X72683Y-42908D01*
X72683Y-42552D01*
X73369Y-42552D01*
X73385Y-42552D01*
X73399Y-42546D01*
X73979Y-42546D01*
X73995Y-42546D01*
X74016Y-42546D01*
X74031Y-42546D01*
X74595Y-42546D01*
X74595Y-42916D01*
X74595Y-42916D01*
G37*
G36*
X75398Y-39488D02*
X74846Y-39488D01*
X74846Y-38936D01*
X75398Y-38936D01*
X75398Y-39488D01*
X75398Y-39488D01*
G37*
G36*
X75655Y-42369D02*
X74935Y-42369D01*
X74935Y-41449D01*
X74948Y-41449D01*
X74962Y-41443D01*
X74973Y-41432D01*
X74979Y-41418D01*
X74979Y-41403D01*
X74979Y-40511D01*
X75650Y-40511D01*
X75650Y-41403D01*
X75650Y-41418D01*
X75655Y-41431D01*
X75655Y-42369D01*
X75655Y-42369D01*
G37*
G36*
X75748Y-38622D02*
X75196Y-38622D01*
X75196Y-38070D01*
X75748Y-38070D01*
X75748Y-38622D01*
X75748Y-38622D01*
G37*
G36*
X75985Y-36713D02*
X75322Y-36713D01*
X75307Y-36713D01*
X75283Y-36713D01*
X75267Y-36713D01*
X74599Y-36713D01*
X74599Y-36712D01*
X74588Y-36701D01*
X74574Y-36695D01*
X74559Y-36695D01*
X73967Y-36695D01*
X73967Y-36326D01*
X74559Y-36326D01*
X74574Y-36326D01*
X74588Y-36320D01*
X74599Y-36309D01*
X74605Y-36295D01*
X74605Y-36279D01*
X74605Y-35963D01*
X75267Y-35963D01*
X75283Y-35963D01*
X75307Y-35963D01*
X75322Y-35963D01*
X75985Y-35963D01*
X75985Y-36713D01*
X75985Y-36713D01*
G37*
G36*
X75985Y-37658D02*
X75322Y-37658D01*
X75307Y-37658D01*
X75283Y-37658D01*
X75267Y-37658D01*
X74605Y-37658D01*
X74605Y-37342D01*
X74605Y-37326D01*
X74599Y-37312D01*
X74588Y-37301D01*
X74574Y-37295D01*
X74559Y-37295D01*
X73967Y-37295D01*
X73967Y-36926D01*
X74559Y-36926D01*
X74574Y-36926D01*
X74588Y-36920D01*
X74599Y-36909D01*
X74599Y-36908D01*
X75267Y-36908D01*
X75283Y-36908D01*
X75307Y-36908D01*
X75322Y-36908D01*
X75985Y-36908D01*
X75985Y-37658D01*
X75985Y-37658D01*
G37*
G36*
X76098Y-39488D02*
X75546Y-39488D01*
X75546Y-38936D01*
X76098Y-38936D01*
X76098Y-39488D01*
X76098Y-39488D01*
G37*
G36*
X76473Y-31830D02*
X76472Y-31921D01*
X76452Y-32010D01*
X76420Y-32082D01*
X76367Y-32156D01*
X76310Y-32211D01*
X76233Y-32260D01*
X76160Y-32288D01*
X76070Y-32304D01*
X75991Y-32302D01*
X75902Y-32283D01*
X75830Y-32251D01*
X75755Y-32199D01*
X75700Y-32143D01*
X75651Y-32066D01*
X75622Y-31993D01*
X75605Y-31903D01*
X75607Y-31824D01*
X75626Y-31735D01*
X75656Y-31663D01*
X75708Y-31587D01*
X75764Y-31532D01*
X75841Y-31482D01*
X75913Y-31453D01*
X76004Y-31436D01*
X76082Y-31436D01*
X76172Y-31455D01*
X76244Y-31485D01*
X76320Y-31536D01*
X76375Y-31591D01*
X76426Y-31668D01*
X76456Y-31740D01*
X76473Y-31830D01*
X76473Y-31830D01*
G37*
G36*
X76473Y-46830D02*
X76472Y-46921D01*
X76452Y-47010D01*
X76420Y-47082D01*
X76367Y-47156D01*
X76310Y-47211D01*
X76233Y-47260D01*
X76160Y-47288D01*
X76070Y-47304D01*
X75991Y-47302D01*
X75902Y-47283D01*
X75830Y-47251D01*
X75755Y-47199D01*
X75700Y-47143D01*
X75651Y-47066D01*
X75622Y-46993D01*
X75605Y-46903D01*
X75607Y-46824D01*
X75626Y-46735D01*
X75656Y-46663D01*
X75708Y-46587D01*
X75764Y-46532D01*
X75841Y-46482D01*
X75913Y-46453D01*
X76004Y-46436D01*
X76082Y-46436D01*
X76172Y-46455D01*
X76244Y-46485D01*
X76320Y-46536D01*
X76375Y-46591D01*
X76426Y-46668D01*
X76456Y-46740D01*
X76473Y-46830D01*
X76473Y-46830D01*
G37*
G36*
X76682Y-36656D02*
X76112Y-36656D01*
X76112Y-36286D01*
X76682Y-36286D01*
X76682Y-36656D01*
X76682Y-36656D01*
G37*
G36*
X76682Y-37256D02*
X76112Y-37256D01*
X76112Y-36886D01*
X76682Y-36886D01*
X76682Y-37256D01*
X76682Y-37256D01*
G37*
G36*
X77473Y-31830D02*
X77472Y-31921D01*
X77452Y-32010D01*
X77420Y-32082D01*
X77367Y-32156D01*
X77310Y-32211D01*
X77233Y-32260D01*
X77160Y-32288D01*
X77070Y-32304D01*
X76991Y-32302D01*
X76902Y-32283D01*
X76830Y-32251D01*
X76755Y-32199D01*
X76700Y-32143D01*
X76651Y-32066D01*
X76622Y-31993D01*
X76605Y-31903D01*
X76607Y-31824D01*
X76626Y-31735D01*
X76656Y-31663D01*
X76708Y-31587D01*
X76764Y-31532D01*
X76841Y-31482D01*
X76913Y-31453D01*
X77004Y-31436D01*
X77082Y-31436D01*
X77172Y-31455D01*
X77244Y-31485D01*
X77320Y-31536D01*
X77375Y-31591D01*
X77426Y-31668D01*
X77456Y-31740D01*
X77473Y-31830D01*
X77473Y-31830D01*
G37*
G36*
X77473Y-46830D02*
X77472Y-46921D01*
X77452Y-47010D01*
X77420Y-47082D01*
X77367Y-47156D01*
X77310Y-47211D01*
X77233Y-47260D01*
X77160Y-47288D01*
X77070Y-47304D01*
X76991Y-47302D01*
X76902Y-47283D01*
X76830Y-47251D01*
X76755Y-47199D01*
X76700Y-47143D01*
X76651Y-47066D01*
X76622Y-46993D01*
X76605Y-46903D01*
X76607Y-46824D01*
X76626Y-46735D01*
X76656Y-46663D01*
X76708Y-46587D01*
X76764Y-46532D01*
X76841Y-46482D01*
X76913Y-46453D01*
X77004Y-46436D01*
X77082Y-46436D01*
X77172Y-46455D01*
X77244Y-46485D01*
X77320Y-46536D01*
X77375Y-46591D01*
X77426Y-46668D01*
X77456Y-46740D01*
X77473Y-46830D01*
X77473Y-46830D01*
G37*
G36*
X77621Y-33021D02*
X77251Y-33021D01*
X77251Y-32451D01*
X77621Y-32451D01*
X77621Y-33021D01*
X77621Y-33021D01*
G37*
G36*
X78217Y-41420D02*
X77653Y-41420D01*
X77638Y-41420D01*
X77617Y-41420D01*
X77601Y-41420D01*
X77043Y-41420D01*
X77028Y-41420D01*
X77007Y-41420D01*
X76991Y-41420D01*
X76433Y-41420D01*
X76418Y-41420D01*
X76396Y-41420D01*
X76381Y-41420D01*
X75817Y-41420D01*
X75817Y-41050D01*
X76381Y-41050D01*
X76396Y-41050D01*
X76418Y-41050D01*
X76433Y-41050D01*
X76991Y-41050D01*
X77007Y-41050D01*
X77028Y-41050D01*
X77043Y-41050D01*
X77601Y-41050D01*
X77617Y-41050D01*
X77638Y-41050D01*
X77653Y-41050D01*
X78217Y-41050D01*
X78217Y-41420D01*
X78217Y-41420D01*
G37*
G36*
X78217Y-42020D02*
X77653Y-42020D01*
X77638Y-42020D01*
X77617Y-42020D01*
X77601Y-42020D01*
X77043Y-42020D01*
X77028Y-42020D01*
X77007Y-42020D01*
X76991Y-42020D01*
X76433Y-42020D01*
X76418Y-42020D01*
X76396Y-42020D01*
X76381Y-42020D01*
X75817Y-42020D01*
X75817Y-41650D01*
X76381Y-41650D01*
X76396Y-41650D01*
X76418Y-41650D01*
X76433Y-41650D01*
X76991Y-41650D01*
X77007Y-41650D01*
X77028Y-41650D01*
X77043Y-41650D01*
X77601Y-41650D01*
X77617Y-41650D01*
X77638Y-41650D01*
X77653Y-41650D01*
X78217Y-41650D01*
X78217Y-42020D01*
X78217Y-42020D01*
G37*
G36*
X78221Y-33021D02*
X77851Y-33021D01*
X77851Y-32451D01*
X78221Y-32451D01*
X78221Y-33021D01*
X78221Y-33021D01*
G37*
G36*
X78473Y-31830D02*
X78472Y-31921D01*
X78452Y-32010D01*
X78420Y-32082D01*
X78367Y-32156D01*
X78310Y-32211D01*
X78233Y-32260D01*
X78160Y-32288D01*
X78070Y-32304D01*
X77991Y-32302D01*
X77902Y-32283D01*
X77830Y-32251D01*
X77755Y-32199D01*
X77700Y-32143D01*
X77651Y-32066D01*
X77622Y-31993D01*
X77605Y-31903D01*
X77607Y-31824D01*
X77626Y-31735D01*
X77656Y-31663D01*
X77708Y-31587D01*
X77764Y-31532D01*
X77841Y-31482D01*
X77913Y-31453D01*
X78004Y-31436D01*
X78082Y-31436D01*
X78172Y-31455D01*
X78244Y-31485D01*
X78320Y-31536D01*
X78375Y-31591D01*
X78426Y-31668D01*
X78456Y-31740D01*
X78473Y-31830D01*
X78473Y-31830D01*
G37*
G36*
X78473Y-46830D02*
X78472Y-46921D01*
X78452Y-47010D01*
X78420Y-47082D01*
X78367Y-47156D01*
X78310Y-47211D01*
X78233Y-47260D01*
X78160Y-47288D01*
X78070Y-47304D01*
X77991Y-47302D01*
X77902Y-47283D01*
X77830Y-47251D01*
X77755Y-47199D01*
X77700Y-47143D01*
X77651Y-47066D01*
X77622Y-46993D01*
X77605Y-46903D01*
X77607Y-46824D01*
X77626Y-46735D01*
X77656Y-46663D01*
X77708Y-46587D01*
X77764Y-46532D01*
X77841Y-46482D01*
X77913Y-46453D01*
X78004Y-46436D01*
X78082Y-46436D01*
X78172Y-46455D01*
X78244Y-46485D01*
X78320Y-46536D01*
X78375Y-46591D01*
X78426Y-46668D01*
X78456Y-46740D01*
X78473Y-46830D01*
X78473Y-46830D01*
G37*
G36*
X79473Y-31830D02*
X79472Y-31921D01*
X79452Y-32010D01*
X79420Y-32082D01*
X79367Y-32156D01*
X79310Y-32211D01*
X79233Y-32260D01*
X79160Y-32288D01*
X79070Y-32304D01*
X78991Y-32302D01*
X78902Y-32283D01*
X78830Y-32251D01*
X78755Y-32199D01*
X78700Y-32143D01*
X78651Y-32066D01*
X78622Y-31993D01*
X78605Y-31903D01*
X78607Y-31824D01*
X78626Y-31735D01*
X78656Y-31663D01*
X78708Y-31587D01*
X78764Y-31532D01*
X78841Y-31482D01*
X78913Y-31453D01*
X79004Y-31436D01*
X79082Y-31436D01*
X79172Y-31455D01*
X79244Y-31485D01*
X79320Y-31536D01*
X79375Y-31591D01*
X79426Y-31668D01*
X79456Y-31740D01*
X79473Y-31830D01*
X79473Y-31830D01*
G37*
G36*
X79473Y-46830D02*
X79472Y-46921D01*
X79452Y-47010D01*
X79420Y-47082D01*
X79367Y-47156D01*
X79310Y-47211D01*
X79233Y-47260D01*
X79160Y-47288D01*
X79070Y-47304D01*
X78991Y-47302D01*
X78902Y-47283D01*
X78830Y-47251D01*
X78755Y-47199D01*
X78700Y-47143D01*
X78651Y-47066D01*
X78622Y-46993D01*
X78605Y-46903D01*
X78607Y-46824D01*
X78626Y-46735D01*
X78656Y-46663D01*
X78708Y-46587D01*
X78764Y-46532D01*
X78841Y-46482D01*
X78913Y-46453D01*
X79004Y-46436D01*
X79082Y-46436D01*
X79172Y-46455D01*
X79244Y-46485D01*
X79320Y-46536D01*
X79375Y-46591D01*
X79426Y-46668D01*
X79456Y-46740D01*
X79473Y-46830D01*
X79473Y-46830D01*
G37*
G36*
X80128Y-38327D02*
X79860Y-38327D01*
X79844Y-38327D01*
X79800Y-38327D01*
X79785Y-38327D01*
X79545Y-38327D01*
X79529Y-38327D01*
X79486Y-38327D01*
X79470Y-38327D01*
X79230Y-38327D01*
X79214Y-38327D01*
X79171Y-38327D01*
X79155Y-38327D01*
X78915Y-38327D01*
X78899Y-38327D01*
X78856Y-38327D01*
X78840Y-38327D01*
X78600Y-38327D01*
X78584Y-38327D01*
X78541Y-38327D01*
X78525Y-38327D01*
X78285Y-38327D01*
X78269Y-38327D01*
X78226Y-38327D01*
X78210Y-38327D01*
X77970Y-38327D01*
X77954Y-38327D01*
X77911Y-38327D01*
X77895Y-38327D01*
X77627Y-38327D01*
X77627Y-37853D01*
X77895Y-37853D01*
X77911Y-37853D01*
X77954Y-37853D01*
X77970Y-37853D01*
X78210Y-37853D01*
X78226Y-37853D01*
X78269Y-37853D01*
X78285Y-37853D01*
X78525Y-37853D01*
X78541Y-37853D01*
X78584Y-37853D01*
X78600Y-37853D01*
X78840Y-37853D01*
X78856Y-37853D01*
X78899Y-37853D01*
X78915Y-37853D01*
X79155Y-37853D01*
X79171Y-37853D01*
X79214Y-37853D01*
X79230Y-37853D01*
X79470Y-37853D01*
X79486Y-37853D01*
X79529Y-37853D01*
X79545Y-37853D01*
X79785Y-37853D01*
X79800Y-37853D01*
X79844Y-37853D01*
X79860Y-37853D01*
X80128Y-37853D01*
X80128Y-38327D01*
X80128Y-38327D01*
G37*
G36*
X80128Y-38996D02*
X79860Y-38996D01*
X79844Y-38996D01*
X79800Y-38996D01*
X79785Y-38996D01*
X79545Y-38996D01*
X79529Y-38996D01*
X79486Y-38996D01*
X79470Y-38996D01*
X79230Y-38996D01*
X79214Y-38996D01*
X79171Y-38996D01*
X79155Y-38996D01*
X78915Y-38996D01*
X78899Y-38996D01*
X78856Y-38996D01*
X78840Y-38996D01*
X78600Y-38996D01*
X78584Y-38996D01*
X78541Y-38996D01*
X78525Y-38996D01*
X78285Y-38996D01*
X78269Y-38996D01*
X78226Y-38996D01*
X78210Y-38996D01*
X77970Y-38996D01*
X77954Y-38996D01*
X77911Y-38996D01*
X77895Y-38996D01*
X77627Y-38996D01*
X77627Y-38522D01*
X77895Y-38522D01*
X77911Y-38522D01*
X77954Y-38522D01*
X77970Y-38522D01*
X78210Y-38522D01*
X78226Y-38522D01*
X78269Y-38522D01*
X78285Y-38522D01*
X78525Y-38522D01*
X78541Y-38522D01*
X78584Y-38522D01*
X78600Y-38522D01*
X78840Y-38522D01*
X78856Y-38522D01*
X78899Y-38522D01*
X78915Y-38522D01*
X79155Y-38522D01*
X79171Y-38522D01*
X79214Y-38522D01*
X79230Y-38522D01*
X79470Y-38522D01*
X79486Y-38522D01*
X79529Y-38522D01*
X79545Y-38522D01*
X79785Y-38522D01*
X79800Y-38522D01*
X79844Y-38522D01*
X79860Y-38522D01*
X80128Y-38522D01*
X80128Y-38996D01*
X80128Y-38996D01*
G37*
G36*
X80128Y-40059D02*
X79860Y-40059D01*
X79844Y-40059D01*
X79800Y-40059D01*
X79785Y-40059D01*
X79545Y-40059D01*
X79529Y-40059D01*
X79486Y-40059D01*
X79470Y-40059D01*
X79230Y-40059D01*
X79214Y-40059D01*
X79171Y-40059D01*
X79155Y-40059D01*
X78915Y-40059D01*
X78899Y-40059D01*
X78856Y-40059D01*
X78840Y-40059D01*
X78600Y-40059D01*
X78584Y-40059D01*
X78541Y-40059D01*
X78525Y-40059D01*
X78285Y-40059D01*
X78269Y-40059D01*
X78226Y-40059D01*
X78210Y-40059D01*
X77970Y-40059D01*
X77954Y-40059D01*
X77911Y-40059D01*
X77895Y-40059D01*
X77627Y-40059D01*
X77627Y-39585D01*
X77895Y-39585D01*
X77911Y-39585D01*
X77954Y-39585D01*
X77970Y-39585D01*
X78210Y-39585D01*
X78226Y-39585D01*
X78269Y-39585D01*
X78285Y-39585D01*
X78525Y-39585D01*
X78541Y-39585D01*
X78584Y-39585D01*
X78600Y-39585D01*
X78840Y-39585D01*
X78856Y-39585D01*
X78899Y-39585D01*
X78915Y-39585D01*
X79155Y-39585D01*
X79171Y-39585D01*
X79214Y-39585D01*
X79230Y-39585D01*
X79470Y-39585D01*
X79486Y-39585D01*
X79529Y-39585D01*
X79545Y-39585D01*
X79785Y-39585D01*
X79800Y-39585D01*
X79844Y-39585D01*
X79860Y-39585D01*
X80128Y-39585D01*
X80128Y-40059D01*
X80128Y-40059D01*
G37*
G36*
X80128Y-40729D02*
X79860Y-40729D01*
X79844Y-40729D01*
X79800Y-40729D01*
X79785Y-40729D01*
X79545Y-40729D01*
X79529Y-40729D01*
X79486Y-40729D01*
X79470Y-40729D01*
X79230Y-40729D01*
X79214Y-40729D01*
X79171Y-40729D01*
X79155Y-40729D01*
X78915Y-40729D01*
X78899Y-40729D01*
X78856Y-40729D01*
X78840Y-40729D01*
X78600Y-40729D01*
X78584Y-40729D01*
X78541Y-40729D01*
X78525Y-40729D01*
X78285Y-40729D01*
X78269Y-40729D01*
X78226Y-40729D01*
X78210Y-40729D01*
X77970Y-40729D01*
X77954Y-40729D01*
X77911Y-40729D01*
X77895Y-40729D01*
X77627Y-40729D01*
X77627Y-40255D01*
X77895Y-40255D01*
X77911Y-40255D01*
X77954Y-40255D01*
X77970Y-40255D01*
X78210Y-40255D01*
X78226Y-40255D01*
X78269Y-40255D01*
X78285Y-40255D01*
X78525Y-40255D01*
X78541Y-40255D01*
X78584Y-40255D01*
X78600Y-40255D01*
X78840Y-40255D01*
X78856Y-40255D01*
X78899Y-40255D01*
X78915Y-40255D01*
X79155Y-40255D01*
X79171Y-40255D01*
X79214Y-40255D01*
X79230Y-40255D01*
X79470Y-40255D01*
X79486Y-40255D01*
X79529Y-40255D01*
X79545Y-40255D01*
X79785Y-40255D01*
X79800Y-40255D01*
X79844Y-40255D01*
X79860Y-40255D01*
X80128Y-40255D01*
X80128Y-40729D01*
X80128Y-40729D01*
G37*
G36*
X80973Y-45830D02*
X80972Y-45921D01*
X80952Y-46010D01*
X80920Y-46082D01*
X80867Y-46156D01*
X80810Y-46211D01*
X80733Y-46260D01*
X80660Y-46288D01*
X80570Y-46304D01*
X80491Y-46302D01*
X80402Y-46283D01*
X80330Y-46251D01*
X80255Y-46199D01*
X80200Y-46143D01*
X80151Y-46066D01*
X80122Y-45993D01*
X80105Y-45903D01*
X80107Y-45824D01*
X80126Y-45735D01*
X80156Y-45663D01*
X80208Y-45587D01*
X80264Y-45532D01*
X80341Y-45482D01*
X80413Y-45453D01*
X80504Y-45436D01*
X80582Y-45436D01*
X80672Y-45455D01*
X80744Y-45485D01*
X80820Y-45536D01*
X80875Y-45591D01*
X80926Y-45668D01*
X80956Y-45740D01*
X80973Y-45830D01*
X80973Y-45830D01*
G37*
G36*
X80973Y-46830D02*
X80972Y-46921D01*
X80952Y-47010D01*
X80920Y-47082D01*
X80867Y-47156D01*
X80810Y-47211D01*
X80733Y-47260D01*
X80660Y-47288D01*
X80570Y-47304D01*
X80491Y-47302D01*
X80402Y-47283D01*
X80330Y-47251D01*
X80255Y-47199D01*
X80200Y-47143D01*
X80151Y-47066D01*
X80122Y-46993D01*
X80105Y-46903D01*
X80107Y-46824D01*
X80126Y-46735D01*
X80156Y-46663D01*
X80208Y-46587D01*
X80264Y-46532D01*
X80341Y-46482D01*
X80413Y-46453D01*
X80504Y-46436D01*
X80582Y-46436D01*
X80672Y-46455D01*
X80744Y-46485D01*
X80820Y-46536D01*
X80875Y-46591D01*
X80926Y-46668D01*
X80956Y-46740D01*
X80973Y-46830D01*
X80973Y-46830D01*
G37*
G36*
X81043Y-41277D02*
X80373Y-41277D01*
X80373Y-40807D01*
X81043Y-40807D01*
X81043Y-41277D01*
X81043Y-41277D01*
G37*
G36*
X81043Y-42027D02*
X80373Y-42027D01*
X80373Y-41557D01*
X81043Y-41557D01*
X81043Y-42027D01*
X81043Y-42027D01*
G37*
G36*
X81234Y-38601D02*
X80563Y-38601D01*
X80563Y-38245D01*
X81234Y-38245D01*
X81234Y-38601D01*
X81234Y-38601D01*
G37*
G36*
X81234Y-39101D02*
X80563Y-39101D01*
X80563Y-38745D01*
X81234Y-38745D01*
X81234Y-39101D01*
X81234Y-39101D01*
G37*
G36*
X81234Y-39601D02*
X80563Y-39601D01*
X80563Y-39245D01*
X81234Y-39245D01*
X81234Y-39601D01*
X81234Y-39601D01*
G37*
G36*
X81234Y-40101D02*
X80563Y-40101D01*
X80563Y-39745D01*
X81234Y-39745D01*
X81234Y-40101D01*
X81234Y-40101D01*
G37*
G36*
X81702Y-41302D02*
X81132Y-41302D01*
X81132Y-40932D01*
X81702Y-40932D01*
X81702Y-41302D01*
X81702Y-41302D01*
G37*
G36*
X81702Y-41902D02*
X81132Y-41902D01*
X81132Y-41532D01*
X81702Y-41532D01*
X81702Y-41902D01*
X81702Y-41902D01*
G37*
G36*
X82855Y-44124D02*
X81711Y-44124D01*
X81711Y-43501D01*
X81711Y-43486D01*
X81705Y-43472D01*
X81695Y-43461D01*
X81680Y-43455D01*
X81665Y-43455D01*
X81562Y-43455D01*
X81547Y-43455D01*
X81444Y-43455D01*
X81429Y-43455D01*
X81365Y-43455D01*
X81350Y-43455D01*
X81247Y-43455D01*
X81232Y-43455D01*
X81169Y-43455D01*
X81153Y-43455D01*
X81050Y-43455D01*
X81035Y-43455D01*
X80972Y-43455D01*
X80956Y-43455D01*
X80854Y-43455D01*
X80838Y-43455D01*
X80775Y-43455D01*
X80760Y-43455D01*
X80657Y-43455D01*
X80641Y-43455D01*
X80578Y-43455D01*
X80563Y-43455D01*
X80460Y-43455D01*
X80445Y-43455D01*
X80381Y-43455D01*
X80366Y-43455D01*
X80263Y-43455D01*
X80248Y-43455D01*
X80184Y-43455D01*
X80169Y-43455D01*
X80066Y-43455D01*
X80051Y-43455D01*
X79987Y-43455D01*
X79972Y-43455D01*
X79869Y-43455D01*
X79854Y-43455D01*
X79791Y-43455D01*
X79775Y-43455D01*
X79673Y-43455D01*
X79657Y-43455D01*
X79594Y-43455D01*
X79578Y-43455D01*
X79476Y-43455D01*
X79460Y-43455D01*
X79397Y-43455D01*
X79382Y-43455D01*
X79279Y-43455D01*
X79263Y-43455D01*
X79200Y-43455D01*
X79185Y-43455D01*
X79082Y-43455D01*
X79067Y-43455D01*
X79003Y-43455D01*
X78988Y-43455D01*
X78885Y-43455D01*
X78870Y-43455D01*
X78806Y-43455D01*
X78791Y-43455D01*
X78688Y-43455D01*
X78673Y-43455D01*
X78610Y-43455D01*
X78594Y-43455D01*
X78491Y-43455D01*
X78476Y-43455D01*
X78413Y-43455D01*
X78397Y-43455D01*
X78295Y-43455D01*
X78279Y-43455D01*
X78216Y-43455D01*
X78200Y-43455D01*
X78098Y-43455D01*
X78082Y-43455D01*
X78019Y-43455D01*
X78004Y-43455D01*
X77901Y-43455D01*
X77886Y-43455D01*
X77822Y-43455D01*
X77807Y-43455D01*
X77704Y-43455D01*
X77689Y-43455D01*
X77625Y-43455D01*
X77610Y-43455D01*
X77507Y-43455D01*
X77492Y-43455D01*
X77428Y-43455D01*
X77413Y-43455D01*
X77310Y-43455D01*
X77295Y-43455D01*
X77232Y-43455D01*
X77216Y-43455D01*
X77113Y-43455D01*
X77098Y-43455D01*
X77035Y-43455D01*
X77019Y-43455D01*
X76917Y-43455D01*
X76901Y-43455D01*
X76838Y-43455D01*
X76823Y-43455D01*
X76720Y-43455D01*
X76704Y-43455D01*
X76641Y-43455D01*
X76626Y-43455D01*
X76523Y-43455D01*
X76508Y-43455D01*
X76444Y-43455D01*
X76429Y-43455D01*
X76326Y-43455D01*
X76311Y-43455D01*
X76247Y-43455D01*
X76232Y-43455D01*
X76129Y-43455D01*
X76114Y-43455D01*
X76050Y-43455D01*
X76035Y-43455D01*
X75932Y-43455D01*
X75917Y-43455D01*
X75814Y-43455D01*
X75799Y-43455D01*
X75785Y-43461D01*
X75774Y-43472D01*
X75768Y-43486D01*
X75768Y-43501D01*
X75768Y-44124D01*
X74625Y-44124D01*
X74625Y-43562D01*
X74625Y-43547D01*
X74619Y-43533D01*
X74608Y-43522D01*
X74594Y-43516D01*
X74578Y-43516D01*
X74031Y-43516D01*
X74016Y-43516D01*
X73995Y-43516D01*
X73979Y-43516D01*
X73838Y-43516D01*
X73822Y-43516D01*
X73808Y-43522D01*
X73797Y-43533D01*
X73791Y-43547D01*
X73791Y-43562D01*
X73791Y-44185D01*
X73791Y-44201D01*
X73797Y-44215D01*
X73808Y-44226D01*
X73822Y-44232D01*
X73838Y-44232D01*
X74035Y-44232D01*
X74035Y-44901D01*
X73565Y-44901D01*
X73565Y-44209D01*
X73565Y-44193D01*
X73559Y-44179D01*
X73548Y-44168D01*
X73534Y-44162D01*
X73519Y-44162D01*
X73422Y-44162D01*
X73422Y-43562D01*
X73422Y-43547D01*
X73416Y-43533D01*
X73415Y-43532D01*
X73415Y-43454D01*
X73415Y-43439D01*
X73410Y-43424D01*
X73399Y-43414D01*
X73385Y-43408D01*
X73369Y-43408D01*
X72683Y-43408D01*
X72683Y-43052D01*
X73353Y-43052D01*
X73353Y-43100D01*
X73353Y-43115D01*
X73359Y-43129D01*
X73370Y-43140D01*
X73384Y-43146D01*
X73400Y-43146D01*
X73979Y-43146D01*
X73995Y-43146D01*
X74016Y-43146D01*
X74031Y-43146D01*
X74578Y-43146D01*
X74594Y-43146D01*
X74608Y-43140D01*
X74619Y-43129D01*
X74625Y-43115D01*
X74625Y-43100D01*
X74625Y-43079D01*
X74646Y-43079D01*
X74661Y-43079D01*
X74675Y-43074D01*
X74686Y-43063D01*
X74692Y-43049D01*
X74692Y-43033D01*
X74692Y-42451D01*
X75061Y-42451D01*
X75061Y-43033D01*
X75061Y-43049D01*
X75067Y-43063D01*
X75078Y-43074D01*
X75092Y-43079D01*
X75108Y-43079D01*
X75246Y-43079D01*
X75261Y-43079D01*
X75275Y-43074D01*
X75286Y-43063D01*
X75292Y-43049D01*
X75292Y-43033D01*
X75292Y-42451D01*
X75661Y-42451D01*
X75661Y-43033D01*
X75661Y-43049D01*
X75667Y-43063D01*
X75678Y-43074D01*
X75692Y-43079D01*
X75708Y-43079D01*
X75720Y-43079D01*
X75736Y-43079D01*
X75750Y-43074D01*
X75761Y-43063D01*
X75766Y-43049D01*
X75766Y-43033D01*
X75766Y-42764D01*
X75917Y-42764D01*
X75932Y-42764D01*
X76035Y-42764D01*
X76050Y-42764D01*
X76114Y-42764D01*
X76129Y-42764D01*
X76232Y-42764D01*
X76247Y-42764D01*
X76311Y-42764D01*
X76326Y-42764D01*
X76429Y-42764D01*
X76444Y-42764D01*
X76508Y-42764D01*
X76523Y-42764D01*
X76626Y-42764D01*
X76641Y-42764D01*
X76704Y-42764D01*
X76720Y-42764D01*
X76823Y-42764D01*
X76838Y-42764D01*
X76901Y-42764D01*
X76917Y-42764D01*
X77019Y-42764D01*
X77035Y-42764D01*
X77098Y-42764D01*
X77113Y-42764D01*
X77216Y-42764D01*
X77232Y-42764D01*
X77295Y-42764D01*
X77310Y-42764D01*
X77413Y-42764D01*
X77428Y-42764D01*
X77492Y-42764D01*
X77507Y-42764D01*
X77610Y-42764D01*
X77625Y-42764D01*
X77689Y-42764D01*
X77704Y-42764D01*
X77807Y-42764D01*
X77822Y-42764D01*
X77886Y-42764D01*
X77901Y-42764D01*
X78004Y-42764D01*
X78019Y-42764D01*
X78082Y-42764D01*
X78098Y-42764D01*
X78200Y-42764D01*
X78216Y-42764D01*
X78279Y-42764D01*
X78295Y-42764D01*
X78397Y-42764D01*
X78413Y-42764D01*
X78476Y-42764D01*
X78491Y-42764D01*
X78594Y-42764D01*
X78610Y-42764D01*
X78673Y-42764D01*
X78688Y-42764D01*
X78791Y-42764D01*
X78806Y-42764D01*
X78870Y-42764D01*
X78885Y-42764D01*
X78988Y-42764D01*
X79003Y-42764D01*
X79067Y-42764D01*
X79082Y-42764D01*
X79185Y-42764D01*
X79200Y-42764D01*
X79263Y-42764D01*
X79279Y-42764D01*
X79382Y-42764D01*
X79397Y-42764D01*
X79460Y-42764D01*
X79476Y-42764D01*
X79578Y-42764D01*
X79594Y-42764D01*
X79657Y-42764D01*
X79673Y-42764D01*
X79775Y-42764D01*
X79791Y-42764D01*
X79854Y-42764D01*
X79869Y-42764D01*
X79972Y-42764D01*
X79987Y-42764D01*
X80051Y-42764D01*
X80066Y-42764D01*
X80169Y-42764D01*
X80184Y-42764D01*
X80248Y-42764D01*
X80263Y-42764D01*
X80366Y-42764D01*
X80381Y-42764D01*
X80445Y-42764D01*
X80460Y-42764D01*
X80563Y-42764D01*
X80578Y-42764D01*
X80641Y-42764D01*
X80657Y-42764D01*
X80760Y-42764D01*
X80775Y-42764D01*
X80838Y-42764D01*
X80854Y-42764D01*
X80956Y-42764D01*
X80972Y-42764D01*
X81035Y-42764D01*
X81050Y-42764D01*
X81153Y-42764D01*
X81169Y-42764D01*
X81232Y-42764D01*
X81247Y-42764D01*
X81350Y-42764D01*
X81365Y-42764D01*
X81429Y-42764D01*
X81444Y-42764D01*
X81547Y-42764D01*
X81562Y-42764D01*
X81713Y-42764D01*
X81713Y-43033D01*
X81713Y-43049D01*
X81719Y-43063D01*
X81730Y-43074D01*
X81744Y-43079D01*
X81759Y-43079D01*
X82855Y-43079D01*
X82855Y-44124D01*
X82855Y-44124D01*
G37*
G36*
X83334Y-38601D02*
X82663Y-38601D01*
X82663Y-38245D01*
X83334Y-38245D01*
X83334Y-38601D01*
X83334Y-38601D01*
G37*
G36*
X83334Y-39101D02*
X82663Y-39101D01*
X82663Y-38745D01*
X83334Y-38745D01*
X83334Y-39101D01*
X83334Y-39101D01*
G37*
G36*
X83334Y-39601D02*
X82663Y-39601D01*
X82663Y-39245D01*
X83334Y-39245D01*
X83334Y-39601D01*
X83334Y-39601D01*
G37*
G36*
X83334Y-40101D02*
X82663Y-40101D01*
X82663Y-39745D01*
X83334Y-39745D01*
X83334Y-40101D01*
X83334Y-40101D01*
G37*
G36*
X84123Y-39510D02*
X83553Y-39510D01*
X83553Y-39141D01*
X84123Y-39141D01*
X84123Y-39510D01*
X84123Y-39510D01*
G37*
G36*
X84123Y-40110D02*
X83553Y-40110D01*
X83553Y-39741D01*
X84123Y-39741D01*
X84123Y-40110D01*
X84123Y-40110D01*
G37*
G36*
X91299Y-35323D02*
X91296Y-35574D01*
X91245Y-35797D01*
X91156Y-35997D01*
X91024Y-36185D01*
X90866Y-36335D01*
X90672Y-36458D01*
X90468Y-36537D01*
X90242Y-36577D01*
X90024Y-36572D01*
X89799Y-36523D01*
X89600Y-36436D01*
X89411Y-36304D01*
X89260Y-36148D01*
X89135Y-35954D01*
X89055Y-35752D01*
X89013Y-35525D01*
X89016Y-35308D01*
X89064Y-35082D01*
X89150Y-34883D01*
X89280Y-34692D01*
X89435Y-34540D01*
X89628Y-34414D01*
X89830Y-34333D01*
X90057Y-34289D01*
X90273Y-34291D01*
X90500Y-34337D01*
X90700Y-34421D01*
X90891Y-34551D01*
X91044Y-34704D01*
X91172Y-34897D01*
X91255Y-35097D01*
X91299Y-35323D01*
X91299Y-35323D01*
G37*
G36*
X91299Y-43197D02*
X91296Y-43448D01*
X91245Y-43672D01*
X91156Y-43871D01*
X91024Y-44059D01*
X90866Y-44209D01*
X90672Y-44332D01*
X90468Y-44411D01*
X90242Y-44451D01*
X90024Y-44446D01*
X89799Y-44397D01*
X89600Y-44310D01*
X89411Y-44178D01*
X89260Y-44022D01*
X89135Y-43828D01*
X89055Y-43626D01*
X89013Y-43399D01*
X89016Y-43182D01*
X89064Y-42956D01*
X89150Y-42757D01*
X89280Y-42566D01*
X89435Y-42414D01*
X89628Y-42288D01*
X89830Y-42207D01*
X90057Y-42163D01*
X90273Y-42165D01*
X90500Y-42211D01*
X90700Y-42295D01*
X90891Y-42425D01*
X91044Y-42578D01*
X91172Y-42771D01*
X91255Y-42971D01*
X91299Y-43197D01*
X91299Y-43197D01*
G37*
M02*
