M48
;DRILL file {Pcbnew (2013-07-07 BZR 4022)-stable} date 10/12/2013 15:06:01
;FORMAT={-:-/ absolute / metric / decimal}
FMAT,2
METRIC,TZ
T1C0.300
T2C0.550
T3C0.813
T4C1.016
T5C1.050
T6C3.250
%
G90
G05
M71
T1
X161.8Y-94.8
X162.1Y-101.3
X163.Y-96.05
X166.15Y-99.9
X172.55Y-95.3
X172.55Y-96.85
X173.3Y-113.
X174.4Y-81.3
X174.4Y-85.7
X174.75Y-105.5
X175.55Y-87.45
X175.9Y-99.75
X175.95Y-116.4
X176.25Y-96.85
X176.65Y-105.5
X177.7Y-113.1
X178.25Y-101.1
X178.6Y-91.25
X178.6Y-95.45
X179.75Y-85.15
X180.65Y-102.2
X180.7Y-93.35
X180.7Y-99.
X181.85Y-99.
X182.2Y-102.2
X182.7Y-88.1
X182.8Y-91.25
X182.8Y-95.45
X183.Y-105.55
X183.45Y-98.15
X184.15Y-97.25
X184.15Y-106.6
X184.55Y-103.9
X184.6Y-113.5
X185.75Y-95.05
X185.9Y-88.1
X186.85Y-97.4
X186.85Y-98.35
X186.85Y-99.3
X186.85Y-100.25
X187.55Y-88.1
X187.55Y-90.15
X187.8Y-111.45
X188.6Y-95.1
X188.8Y-91.4
X189.9Y-103.45
X189.9Y-104.55
X190.2Y-112.5
X190.35Y-96.05
X191.8Y-112.5
X192.15Y-90.9
X193.15Y-116.4
X193.3Y-103.9
X193.45Y-88.1
X193.8Y-99.6
X194.Y-91.45
X194.Y-110.85
X194.05Y-95.
X194.25Y-107.4
X194.85Y-103.9
X195.6Y-101.15
X196.1Y-93.35
X196.15Y-107.45
X196.4Y-103.9
X197.2Y-88.1
X197.95Y-103.9
X198.5Y-117.35
X199.15Y-99.5
X199.15Y-103.9
X199.5Y-110.85
X199.95Y-104.55
X200.5Y-110.85
X200.75Y-99.5
X200.75Y-103.9
X201.55Y-100.05
X201.55Y-104.55
X202.35Y-99.5
X202.35Y-103.9
X203.15Y-104.55
X203.25Y-110.85
X203.95Y-111.8
X204.15Y-98.85
X204.75Y-110.85
X205.Y-103.3
X205.3Y-113.15
X206.3Y-93.35
X206.8Y-103.6
X207.Y-110.85
X207.35Y-100.15
X208.2Y-112.5
X208.9Y-100.15
X209.8Y-112.5
X212.95Y-98.9
T3
X158.49Y-87.25
X161.03Y-87.25
X163.57Y-87.25
X166.11Y-87.25
T4
X159.46Y-110.18
X159.46Y-112.72
X162.Y-110.18
X162.Y-112.72
X164.54Y-110.18
X164.54Y-112.72
T5
X193.142Y-80.95
X193.142Y-119.05
X195.682Y-80.95
X195.682Y-119.05
X198.222Y-80.95
X198.222Y-119.05
X200.762Y-80.95
X200.762Y-119.05
X204.572Y-116.51
X204.572Y-119.05
T6
X171.Y-90.
X171.Y-110.
X229.Y-90.
X229.Y-110.
T2
X158.475Y-96.45G85X157.825Y-96.45
G05
X157.825Y-103.55G85X158.475Y-103.55
G05
X160.85Y-97.35G85X160.85Y-97.65
G05
X160.85Y-102.35G85X160.85Y-102.65
G05
T0
M30
