M48
;DRILL file {Pcbnew (2013-07-07 BZR 4022)-stable} date 28/02/2015 20:38:58
;FORMAT={-:-/ absolute / metric / decimal}
FMAT,2
METRIC,TZ
T1C0.300
T2C0.813
T3C1.016
T4C1.400
T5C2.700
T6C3.500
%
G90
G05
M71
T1
X111.2Y-89.3
X124.6Y-108.7
X127.6Y-111.8
T2
X101.95Y-111.93
X101.95Y-114.47
X101.95Y-120.03
X101.95Y-122.57
T3
X100.83Y-81.21
X100.83Y-83.75
X100.83Y-86.29
X103.37Y-81.21
X103.37Y-83.75
X103.37Y-86.29
T4
X120.91Y-87.3
X120.91Y-135.56
X123.45Y-82.22
X123.45Y-130.48
X125.99Y-87.3
X125.99Y-135.56
X128.53Y-82.22
X128.53Y-130.48
X131.07Y-87.3
X131.07Y-135.56
X133.61Y-82.22
X133.61Y-130.48
X136.15Y-87.3
X138.69Y-82.22
X138.69Y-135.56
X141.23Y-130.48
X142.754Y-87.3
X143.77Y-135.56
X145.294Y-82.22
X146.31Y-130.48
X147.834Y-87.3
X148.85Y-135.56
X150.374Y-82.22
X151.39Y-130.48
X152.914Y-87.3
X153.93Y-135.56
X155.454Y-82.22
X156.47Y-130.48
X157.994Y-87.3
X160.534Y-82.22
X163.074Y-87.3
X165.614Y-82.22
T5
X110.12Y-71.78
X110.12Y-129.38
X161.12Y-133.08
X170.12Y-84.78
T6
X116.7Y-126.8
X119.Y-73.3
X139.9Y-115.5
X168.Y-73.8
T0
M30
