G04 (created by PCBNEW (2013-07-07 BZR 4022)-stable) date 28/02/2015 20:38:53*
%MOIN*%
G04 Gerber Fmt 3.4, Leading zero omitted, Abs format*
%FSLAX34Y34*%
G01*
G70*
G90*
G04 APERTURE LIST*
%ADD10C,0.00590551*%
%ADD11C,0.000393701*%
%ADD12C,0.220472*%
%ADD13C,0.066*%
%ADD14R,0.06X0.06*%
%ADD15C,0.06*%
%ADD16C,0.0944882*%
%ADD17C,0.275591*%
%ADD18C,0.0275591*%
%ADD19C,0.011811*%
%ADD20C,0.019685*%
G04 APERTURE END LIST*
G54D10*
G54D11*
X42173Y-51606D02*
X42173Y-49370D01*
X42173Y-49370D02*
X37401Y-49370D01*
X37401Y-49370D02*
X37401Y-42952D01*
X37401Y-42952D02*
X42173Y-42952D01*
X42173Y-42952D02*
X42173Y-36259D01*
X42173Y-36259D02*
X37401Y-36259D01*
X37401Y-36259D02*
X37401Y-29822D01*
X37401Y-29822D02*
X42173Y-29822D01*
X42173Y-29822D02*
X42173Y-27590D01*
X42173Y-27590D02*
G75*
G02X42685Y-27078I511J0D01*
G74*
G01*
X45716Y-52511D02*
X45716Y-53574D01*
X42685Y-52118D02*
X45322Y-52118D01*
X67645Y-27078D02*
X42685Y-27078D01*
X68157Y-34677D02*
X68157Y-27590D01*
X59889Y-35188D02*
X67645Y-35188D01*
X59496Y-49913D02*
X59496Y-35582D01*
X64102Y-50307D02*
X59889Y-50307D01*
X64614Y-53574D02*
X64614Y-50818D01*
X46228Y-54086D02*
X64102Y-54086D01*
X45322Y-52118D02*
G75*
G02X45716Y-52511I0J-393D01*
G74*
G01*
X42685Y-52118D02*
G75*
G02X42173Y-51606I0J511D01*
G74*
G01*
X67645Y-27078D02*
G75*
G02X68157Y-27590I0J-511D01*
G74*
G01*
X68157Y-34678D02*
G75*
G02X67645Y-35188I-511J0D01*
G74*
G01*
X59496Y-35581D02*
G75*
G02X59889Y-35188I393J0D01*
G74*
G01*
X59889Y-50307D02*
G75*
G02X59496Y-49913I0J393D01*
G74*
G01*
X64103Y-50307D02*
G75*
G02X64614Y-50818I0J-511D01*
G74*
G01*
X64614Y-53575D02*
G75*
G02X64102Y-54086I-511J0D01*
G74*
G01*
X46227Y-54086D02*
G75*
G02X45716Y-53574I0J511D01*
G74*
G01*
G54D12*
X43354Y-50937D03*
X63433Y-52393D03*
X43354Y-28259D03*
X66976Y-33377D03*
G54D13*
X40137Y-47255D03*
X40137Y-48255D03*
X40137Y-44066D03*
X40137Y-45066D03*
G54D14*
X40696Y-33972D03*
G54D15*
X39696Y-33972D03*
X40696Y-32972D03*
X39696Y-32972D03*
X40696Y-31972D03*
X39696Y-31972D03*
G54D16*
X61602Y-51370D03*
X60602Y-53370D03*
X59602Y-51370D03*
X58602Y-53370D03*
X57602Y-51370D03*
X56602Y-53370D03*
X55602Y-51370D03*
X54602Y-53370D03*
X65202Y-32370D03*
X64202Y-34370D03*
X63202Y-32370D03*
X62202Y-34370D03*
X61202Y-32370D03*
X60202Y-34370D03*
X59202Y-32370D03*
X58202Y-34370D03*
X56202Y-34370D03*
X57202Y-32370D03*
X52602Y-51370D03*
X51602Y-53370D03*
X50602Y-51370D03*
X49602Y-53370D03*
X48602Y-51370D03*
X47602Y-53370D03*
X54602Y-32370D03*
X53602Y-34370D03*
X52602Y-32370D03*
X51602Y-34370D03*
X50602Y-32370D03*
X49602Y-34370D03*
X48602Y-32370D03*
X47602Y-34370D03*
G54D17*
X66141Y-29055D03*
X46850Y-28858D03*
X55078Y-45472D03*
X45944Y-49921D03*
G54D18*
X50236Y-44015D03*
X49055Y-42795D03*
X43779Y-35157D03*
G54D19*
X50236Y-43976D02*
X50236Y-44015D01*
G54D20*
X49055Y-42795D02*
X50236Y-43976D01*
G54D19*
X52602Y-51370D02*
X52602Y-38074D01*
X50602Y-36074D02*
X50602Y-32370D01*
X52602Y-38074D02*
X50602Y-36074D01*
X51602Y-53370D02*
X51602Y-39555D01*
X49602Y-37555D02*
X49602Y-34370D01*
X51602Y-39555D02*
X49602Y-37555D01*
X56202Y-34370D02*
X53602Y-34370D01*
X53602Y-34370D02*
X53602Y-33370D01*
X53602Y-33370D02*
X54602Y-32370D01*
X51602Y-34370D02*
X51602Y-33370D01*
X51602Y-33370D02*
X52602Y-32370D01*
X47602Y-53370D02*
X47602Y-34370D01*
X48602Y-51370D02*
X48602Y-32370D01*
X40696Y-31972D02*
X41330Y-31338D01*
X57244Y-49011D02*
X59602Y-51370D01*
X57244Y-33700D02*
X57244Y-49011D01*
X54881Y-31338D02*
X57244Y-33700D01*
X41330Y-31338D02*
X54881Y-31338D01*
G54D20*
X56602Y-53370D02*
X55602Y-52370D01*
X55602Y-52370D02*
X55602Y-51370D01*
G54D19*
X43779Y-35157D02*
X43779Y-34251D01*
X40204Y-32480D02*
X39696Y-31972D01*
X42007Y-32480D02*
X40204Y-32480D01*
X43779Y-34251D02*
X42007Y-32480D01*
G54D20*
X62202Y-34370D02*
X61968Y-34370D01*
X58218Y-33385D02*
X57202Y-32370D01*
X60984Y-33385D02*
X58218Y-33385D01*
X61968Y-34370D02*
X60984Y-33385D01*
X39696Y-31972D02*
X39696Y-31523D01*
X55501Y-30669D02*
X57202Y-32370D01*
X40551Y-30669D02*
X55501Y-30669D01*
X39696Y-31523D02*
X40551Y-30669D01*
M02*
