M48
;DRILL file {Pcbnew (2013-07-07 BZR 4022)-stable} date 21/06/2014 13:26:21
;FORMAT={-:-/ absolute / metric / decimal}
FMAT,2
METRIC,TZ
T1C0.300
T2C1.250
%
G90
G05
M71
T1
X145.05Y-149.5
X145.6Y-162.1
X146.15Y-148.
X147.1Y-158.95
X147.85Y-164.6
X148.35Y-140.05
X148.6Y-159.15
X148.65Y-163.15
X148.95Y-150.5
X149.25Y-152.5
X150.05Y-160.9
X150.05Y-161.8
X150.5Y-161.35
X150.95Y-160.9
X150.95Y-161.8
X152.45Y-140.05
X156.7Y-155.2
X158.6Y-163.5
X163.95Y-160.95
X163.95Y-162.65
X210.65Y-138.35
X212.35Y-138.35
T2
X149.25Y-147.95
X149.25Y-155.05
T0
M30
