G04 (created by PCBNEW (2013-07-07 BZR 4022)-stable) date 07/05/2014 00:24:05*
%MOIN*%
G04 Gerber Fmt 3.4, Leading zero omitted, Abs format*
%FSLAX34Y34*%
G01*
G70*
G90*
G04 APERTURE LIST*
%ADD10C,0.00590551*%
%ADD11C,0.011811*%
%ADD12C,0.0047*%
%ADD13C,0.005*%
G04 APERTURE END LIST*
G54D10*
G54D11*
X76302Y-57187D02*
X76302Y-56597D01*
X76105Y-57019D01*
X75908Y-56597D01*
X75908Y-57187D01*
X75542Y-57187D02*
X75598Y-57159D01*
X75627Y-57131D01*
X75655Y-57075D01*
X75655Y-56906D01*
X75627Y-56850D01*
X75598Y-56822D01*
X75542Y-56794D01*
X75458Y-56794D01*
X75402Y-56822D01*
X75374Y-56850D01*
X75345Y-56906D01*
X75345Y-57075D01*
X75374Y-57131D01*
X75402Y-57159D01*
X75458Y-57187D01*
X75542Y-57187D01*
X75008Y-57187D02*
X75064Y-57159D01*
X75092Y-57131D01*
X75120Y-57075D01*
X75120Y-56906D01*
X75092Y-56850D01*
X75064Y-56822D01*
X75008Y-56794D01*
X74924Y-56794D01*
X74867Y-56822D01*
X74839Y-56850D01*
X74811Y-56906D01*
X74811Y-57075D01*
X74839Y-57131D01*
X74867Y-57159D01*
X74924Y-57187D01*
X75008Y-57187D01*
X74474Y-57187D02*
X74530Y-57159D01*
X74558Y-57103D01*
X74558Y-56597D01*
X74333Y-56794D02*
X74108Y-56794D01*
X74249Y-56597D02*
X74249Y-57103D01*
X74221Y-57159D01*
X74164Y-57187D01*
X74108Y-57187D01*
X73911Y-57187D02*
X73911Y-56794D01*
X73911Y-56597D02*
X73939Y-56625D01*
X73911Y-56653D01*
X73883Y-56625D01*
X73911Y-56597D01*
X73911Y-56653D01*
X73630Y-56794D02*
X73630Y-57384D01*
X73630Y-56822D02*
X73574Y-56794D01*
X73461Y-56794D01*
X73405Y-56822D01*
X73377Y-56850D01*
X73349Y-56906D01*
X73349Y-57075D01*
X73377Y-57131D01*
X73405Y-57159D01*
X73461Y-57187D01*
X73574Y-57187D01*
X73630Y-57159D01*
X72843Y-57187D02*
X72843Y-56878D01*
X72871Y-56822D01*
X72927Y-56794D01*
X73039Y-56794D01*
X73096Y-56822D01*
X72843Y-57159D02*
X72899Y-57187D01*
X73039Y-57187D01*
X73096Y-57159D01*
X73124Y-57103D01*
X73124Y-57047D01*
X73096Y-56991D01*
X73039Y-56962D01*
X72899Y-56962D01*
X72843Y-56934D01*
X72589Y-57159D02*
X72533Y-57187D01*
X72421Y-57187D01*
X72365Y-57159D01*
X72336Y-57103D01*
X72336Y-57075D01*
X72365Y-57019D01*
X72421Y-56991D01*
X72505Y-56991D01*
X72561Y-56962D01*
X72589Y-56906D01*
X72589Y-56878D01*
X72561Y-56822D01*
X72505Y-56794D01*
X72421Y-56794D01*
X72365Y-56822D01*
X72111Y-57159D02*
X72055Y-57187D01*
X71943Y-57187D01*
X71886Y-57159D01*
X71858Y-57103D01*
X71858Y-57075D01*
X71886Y-57019D01*
X71943Y-56991D01*
X72027Y-56991D01*
X72083Y-56962D01*
X72111Y-56906D01*
X72111Y-56878D01*
X72083Y-56822D01*
X72027Y-56794D01*
X71943Y-56794D01*
X71886Y-56822D01*
X78565Y-58132D02*
X78565Y-57542D01*
X78368Y-57964D01*
X78172Y-57542D01*
X78172Y-58132D01*
X77890Y-58076D02*
X77862Y-58104D01*
X77890Y-58132D01*
X77919Y-58104D01*
X77890Y-58076D01*
X77890Y-58132D01*
X77637Y-58104D02*
X77553Y-58132D01*
X77412Y-58132D01*
X77356Y-58104D01*
X77328Y-58076D01*
X77300Y-58020D01*
X77300Y-57964D01*
X77328Y-57907D01*
X77356Y-57879D01*
X77412Y-57851D01*
X77525Y-57823D01*
X77581Y-57795D01*
X77609Y-57767D01*
X77637Y-57710D01*
X77637Y-57654D01*
X77609Y-57598D01*
X77581Y-57570D01*
X77525Y-57542D01*
X77384Y-57542D01*
X77300Y-57570D01*
X77131Y-57739D02*
X76906Y-57739D01*
X77047Y-57542D02*
X77047Y-58048D01*
X77019Y-58104D01*
X76962Y-58132D01*
X76906Y-58132D01*
X76484Y-58104D02*
X76541Y-58132D01*
X76653Y-58132D01*
X76709Y-58104D01*
X76737Y-58048D01*
X76737Y-57823D01*
X76709Y-57767D01*
X76653Y-57739D01*
X76541Y-57739D01*
X76484Y-57767D01*
X76456Y-57823D01*
X76456Y-57879D01*
X76737Y-57935D01*
X76203Y-57739D02*
X76203Y-58329D01*
X76203Y-57767D02*
X76147Y-57739D01*
X76034Y-57739D01*
X75978Y-57767D01*
X75950Y-57795D01*
X75922Y-57851D01*
X75922Y-58020D01*
X75950Y-58076D01*
X75978Y-58104D01*
X76034Y-58132D01*
X76147Y-58132D01*
X76203Y-58104D01*
X75669Y-58132D02*
X75669Y-57542D01*
X75416Y-58132D02*
X75416Y-57823D01*
X75444Y-57767D01*
X75500Y-57739D01*
X75584Y-57739D01*
X75641Y-57767D01*
X75669Y-57795D01*
X74881Y-58132D02*
X74881Y-57823D01*
X74910Y-57767D01*
X74966Y-57739D01*
X75078Y-57739D01*
X75134Y-57767D01*
X74881Y-58104D02*
X74938Y-58132D01*
X75078Y-58132D01*
X75134Y-58104D01*
X75163Y-58048D01*
X75163Y-57992D01*
X75134Y-57935D01*
X75078Y-57907D01*
X74938Y-57907D01*
X74881Y-57879D01*
X74600Y-57739D02*
X74600Y-58132D01*
X74600Y-57795D02*
X74572Y-57767D01*
X74516Y-57739D01*
X74431Y-57739D01*
X74375Y-57767D01*
X74347Y-57823D01*
X74347Y-58132D01*
X73194Y-57514D02*
X73700Y-58273D01*
X72463Y-58132D02*
X72519Y-58104D01*
X72547Y-58048D01*
X72547Y-57542D01*
X72238Y-58132D02*
X72238Y-57739D01*
X72238Y-57542D02*
X72266Y-57570D01*
X72238Y-57598D01*
X72210Y-57570D01*
X72238Y-57542D01*
X72238Y-57598D01*
X71957Y-58132D02*
X71957Y-57739D01*
X71957Y-57795D02*
X71929Y-57767D01*
X71872Y-57739D01*
X71788Y-57739D01*
X71732Y-57767D01*
X71704Y-57823D01*
X71704Y-58132D01*
X71704Y-57823D02*
X71676Y-57767D01*
X71619Y-57739D01*
X71535Y-57739D01*
X71479Y-57767D01*
X71451Y-57823D01*
X71451Y-58132D01*
X71169Y-57739D02*
X71169Y-58329D01*
X71169Y-57767D02*
X71113Y-57739D01*
X71001Y-57739D01*
X70944Y-57767D01*
X70916Y-57795D01*
X70888Y-57851D01*
X70888Y-58020D01*
X70916Y-58076D01*
X70944Y-58104D01*
X71001Y-58132D01*
X71113Y-58132D01*
X71169Y-58104D01*
X70635Y-58132D02*
X70635Y-57542D01*
X70579Y-57907D02*
X70410Y-58132D01*
X70410Y-57739D02*
X70635Y-57964D01*
X70157Y-58132D02*
X70157Y-57739D01*
X70157Y-57542D02*
X70185Y-57570D01*
X70157Y-57598D01*
X70129Y-57570D01*
X70157Y-57542D01*
X70157Y-57598D01*
X69876Y-57739D02*
X69876Y-58132D01*
X69876Y-57795D02*
X69848Y-57767D01*
X69791Y-57739D01*
X69707Y-57739D01*
X69651Y-57767D01*
X69623Y-57823D01*
X69623Y-58132D01*
X78129Y-58768D02*
X78326Y-58768D01*
X78326Y-59077D02*
X78326Y-58487D01*
X78045Y-58487D01*
X77736Y-59077D02*
X77792Y-59049D01*
X77820Y-59021D01*
X77848Y-58965D01*
X77848Y-58796D01*
X77820Y-58740D01*
X77792Y-58712D01*
X77736Y-58683D01*
X77651Y-58683D01*
X77595Y-58712D01*
X77567Y-58740D01*
X77539Y-58796D01*
X77539Y-58965D01*
X77567Y-59021D01*
X77595Y-59049D01*
X77651Y-59077D01*
X77736Y-59077D01*
X77286Y-59077D02*
X77286Y-58683D01*
X77286Y-58796D02*
X77258Y-58740D01*
X77230Y-58712D01*
X77173Y-58683D01*
X77117Y-58683D01*
X76358Y-58487D02*
X76245Y-58487D01*
X76189Y-58515D01*
X76133Y-58571D01*
X76105Y-58683D01*
X76105Y-58880D01*
X76133Y-58993D01*
X76189Y-59049D01*
X76245Y-59077D01*
X76358Y-59077D01*
X76414Y-59049D01*
X76470Y-58993D01*
X76498Y-58880D01*
X76498Y-58683D01*
X76470Y-58571D01*
X76414Y-58515D01*
X76358Y-58487D01*
X75767Y-59077D02*
X75823Y-59049D01*
X75852Y-58993D01*
X75852Y-58487D01*
X75542Y-59077D02*
X75542Y-58683D01*
X75542Y-58487D02*
X75570Y-58515D01*
X75542Y-58543D01*
X75514Y-58515D01*
X75542Y-58487D01*
X75542Y-58543D01*
X75317Y-58683D02*
X75177Y-59077D01*
X75036Y-58683D01*
X74811Y-59077D02*
X74811Y-58683D01*
X74811Y-58487D02*
X74839Y-58515D01*
X74811Y-58543D01*
X74783Y-58515D01*
X74811Y-58487D01*
X74811Y-58543D01*
X74305Y-59049D02*
X74361Y-59077D01*
X74474Y-59077D01*
X74530Y-59049D01*
X74558Y-58993D01*
X74558Y-58768D01*
X74530Y-58712D01*
X74474Y-58683D01*
X74361Y-58683D01*
X74305Y-58712D01*
X74277Y-58768D01*
X74277Y-58824D01*
X74558Y-58880D01*
X74024Y-59077D02*
X74024Y-58683D01*
X74024Y-58796D02*
X73996Y-58740D01*
X73967Y-58712D01*
X73911Y-58683D01*
X73855Y-58683D01*
X73630Y-58487D02*
X73686Y-58599D01*
X73405Y-59049D02*
X73349Y-59077D01*
X73236Y-59077D01*
X73180Y-59049D01*
X73152Y-58993D01*
X73152Y-58965D01*
X73180Y-58908D01*
X73236Y-58880D01*
X73321Y-58880D01*
X73377Y-58852D01*
X73405Y-58796D01*
X73405Y-58768D01*
X73377Y-58712D01*
X73321Y-58683D01*
X73236Y-58683D01*
X73180Y-58712D01*
X72196Y-59077D02*
X72196Y-58487D01*
X72196Y-59049D02*
X72252Y-59077D01*
X72365Y-59077D01*
X72421Y-59049D01*
X72449Y-59021D01*
X72477Y-58965D01*
X72477Y-58796D01*
X72449Y-58740D01*
X72421Y-58712D01*
X72365Y-58683D01*
X72252Y-58683D01*
X72196Y-58712D01*
X71690Y-59049D02*
X71746Y-59077D01*
X71858Y-59077D01*
X71915Y-59049D01*
X71943Y-58993D01*
X71943Y-58768D01*
X71915Y-58712D01*
X71858Y-58683D01*
X71746Y-58683D01*
X71690Y-58712D01*
X71661Y-58768D01*
X71661Y-58824D01*
X71943Y-58880D01*
X71437Y-59049D02*
X71380Y-59077D01*
X71268Y-59077D01*
X71212Y-59049D01*
X71183Y-58993D01*
X71183Y-58965D01*
X71212Y-58908D01*
X71268Y-58880D01*
X71352Y-58880D01*
X71408Y-58852D01*
X71437Y-58796D01*
X71437Y-58768D01*
X71408Y-58712D01*
X71352Y-58683D01*
X71268Y-58683D01*
X71212Y-58712D01*
X70930Y-59077D02*
X70930Y-58683D01*
X70930Y-58487D02*
X70958Y-58515D01*
X70930Y-58543D01*
X70902Y-58515D01*
X70930Y-58487D01*
X70930Y-58543D01*
X70396Y-58683D02*
X70396Y-59161D01*
X70424Y-59218D01*
X70452Y-59246D01*
X70508Y-59274D01*
X70593Y-59274D01*
X70649Y-59246D01*
X70396Y-59049D02*
X70452Y-59077D01*
X70565Y-59077D01*
X70621Y-59049D01*
X70649Y-59021D01*
X70677Y-58965D01*
X70677Y-58796D01*
X70649Y-58740D01*
X70621Y-58712D01*
X70565Y-58683D01*
X70452Y-58683D01*
X70396Y-58712D01*
X70115Y-58683D02*
X70115Y-59077D01*
X70115Y-58740D02*
X70087Y-58712D01*
X70030Y-58683D01*
X69946Y-58683D01*
X69890Y-58712D01*
X69862Y-58768D01*
X69862Y-59077D01*
X80703Y-60022D02*
X80984Y-60022D01*
X80984Y-59431D01*
X80506Y-60022D02*
X80506Y-59628D01*
X80506Y-59431D02*
X80534Y-59460D01*
X80506Y-59488D01*
X80478Y-59460D01*
X80506Y-59431D01*
X80506Y-59488D01*
X79971Y-59994D02*
X80028Y-60022D01*
X80140Y-60022D01*
X80196Y-59994D01*
X80224Y-59966D01*
X80253Y-59910D01*
X80253Y-59741D01*
X80224Y-59685D01*
X80196Y-59656D01*
X80140Y-59628D01*
X80028Y-59628D01*
X79971Y-59656D01*
X79493Y-59994D02*
X79550Y-60022D01*
X79662Y-60022D01*
X79718Y-59994D01*
X79746Y-59938D01*
X79746Y-59713D01*
X79718Y-59656D01*
X79662Y-59628D01*
X79550Y-59628D01*
X79493Y-59656D01*
X79465Y-59713D01*
X79465Y-59769D01*
X79746Y-59825D01*
X79212Y-59628D02*
X79212Y-60022D01*
X79212Y-59685D02*
X79184Y-59656D01*
X79128Y-59628D01*
X79043Y-59628D01*
X78987Y-59656D01*
X78959Y-59713D01*
X78959Y-60022D01*
X78706Y-59994D02*
X78650Y-60022D01*
X78537Y-60022D01*
X78481Y-59994D01*
X78453Y-59938D01*
X78453Y-59910D01*
X78481Y-59853D01*
X78537Y-59825D01*
X78622Y-59825D01*
X78678Y-59797D01*
X78706Y-59741D01*
X78706Y-59713D01*
X78678Y-59656D01*
X78622Y-59628D01*
X78537Y-59628D01*
X78481Y-59656D01*
X77975Y-59994D02*
X78031Y-60022D01*
X78143Y-60022D01*
X78200Y-59994D01*
X78228Y-59938D01*
X78228Y-59713D01*
X78200Y-59656D01*
X78143Y-59628D01*
X78031Y-59628D01*
X77975Y-59656D01*
X77947Y-59713D01*
X77947Y-59769D01*
X78228Y-59825D01*
X77440Y-60022D02*
X77440Y-59431D01*
X77440Y-59994D02*
X77497Y-60022D01*
X77609Y-60022D01*
X77665Y-59994D01*
X77694Y-59966D01*
X77722Y-59910D01*
X77722Y-59741D01*
X77694Y-59685D01*
X77665Y-59656D01*
X77609Y-59628D01*
X77497Y-59628D01*
X77440Y-59656D01*
X76456Y-59628D02*
X76456Y-60022D01*
X76709Y-59628D02*
X76709Y-59938D01*
X76681Y-59994D01*
X76625Y-60022D01*
X76541Y-60022D01*
X76484Y-59994D01*
X76456Y-59966D01*
X76175Y-59628D02*
X76175Y-60022D01*
X76175Y-59685D02*
X76147Y-59656D01*
X76091Y-59628D01*
X76006Y-59628D01*
X75950Y-59656D01*
X75922Y-59713D01*
X75922Y-60022D01*
X75388Y-60022D02*
X75388Y-59431D01*
X75388Y-59994D02*
X75444Y-60022D01*
X75556Y-60022D01*
X75613Y-59994D01*
X75641Y-59966D01*
X75669Y-59910D01*
X75669Y-59741D01*
X75641Y-59685D01*
X75613Y-59656D01*
X75556Y-59628D01*
X75444Y-59628D01*
X75388Y-59656D01*
X74881Y-59994D02*
X74938Y-60022D01*
X75050Y-60022D01*
X75106Y-59994D01*
X75134Y-59938D01*
X75134Y-59713D01*
X75106Y-59656D01*
X75050Y-59628D01*
X74938Y-59628D01*
X74881Y-59656D01*
X74853Y-59713D01*
X74853Y-59769D01*
X75134Y-59825D01*
X74600Y-60022D02*
X74600Y-59628D01*
X74600Y-59741D02*
X74572Y-59685D01*
X74544Y-59656D01*
X74488Y-59628D01*
X74431Y-59628D01*
X73447Y-59966D02*
X73475Y-59994D01*
X73560Y-60022D01*
X73616Y-60022D01*
X73700Y-59994D01*
X73757Y-59938D01*
X73785Y-59881D01*
X73813Y-59769D01*
X73813Y-59685D01*
X73785Y-59572D01*
X73757Y-59516D01*
X73700Y-59460D01*
X73616Y-59431D01*
X73560Y-59431D01*
X73475Y-59460D01*
X73447Y-59488D01*
X73194Y-59713D02*
X72997Y-59713D01*
X72913Y-60022D02*
X73194Y-60022D01*
X73194Y-59431D01*
X72913Y-59431D01*
X72322Y-60022D02*
X72519Y-59741D01*
X72660Y-60022D02*
X72660Y-59431D01*
X72435Y-59431D01*
X72379Y-59460D01*
X72350Y-59488D01*
X72322Y-59544D01*
X72322Y-59628D01*
X72350Y-59685D01*
X72379Y-59713D01*
X72435Y-59741D01*
X72660Y-59741D01*
X72069Y-60022D02*
X72069Y-59431D01*
X71732Y-60022D01*
X71732Y-59431D01*
X70888Y-59431D02*
X70776Y-59431D01*
X70719Y-59460D01*
X70663Y-59516D01*
X70635Y-59628D01*
X70635Y-59825D01*
X70663Y-59938D01*
X70719Y-59994D01*
X70776Y-60022D01*
X70888Y-60022D01*
X70944Y-59994D01*
X71001Y-59938D01*
X71029Y-59825D01*
X71029Y-59628D01*
X71001Y-59516D01*
X70944Y-59460D01*
X70888Y-59431D01*
X70382Y-60022D02*
X70382Y-59431D01*
X70382Y-59713D02*
X70044Y-59713D01*
X70044Y-60022D02*
X70044Y-59431D01*
X69482Y-60022D02*
X69763Y-60022D01*
X69763Y-59431D01*
X68920Y-59431D02*
X68723Y-60022D01*
X68526Y-59431D01*
X68020Y-60022D02*
X68357Y-60022D01*
X68188Y-60022D02*
X68188Y-59431D01*
X68245Y-59516D01*
X68301Y-59572D01*
X68357Y-59600D01*
X67767Y-59966D02*
X67739Y-59994D01*
X67767Y-60022D01*
X67795Y-59994D01*
X67767Y-59966D01*
X67767Y-60022D01*
X67514Y-59488D02*
X67485Y-59460D01*
X67429Y-59431D01*
X67289Y-59431D01*
X67232Y-59460D01*
X67204Y-59488D01*
X67176Y-59544D01*
X67176Y-59600D01*
X67204Y-59685D01*
X67542Y-60022D01*
X67176Y-60022D01*
G54D12*
X58149Y-64074D02*
X58149Y-64349D01*
X58149Y-63680D02*
X58149Y-63405D01*
X57637Y-64074D02*
X57637Y-64349D01*
X57637Y-63405D02*
X57637Y-63680D01*
X57643Y-64349D02*
X58143Y-64349D01*
X58143Y-63405D02*
X57643Y-63405D01*
G54D10*
X59586Y-61279D02*
X59586Y-58011D01*
X59586Y-58011D02*
X57933Y-58011D01*
X57933Y-58011D02*
X57933Y-61279D01*
X57933Y-61279D02*
X59586Y-61279D01*
G54D13*
X59723Y-52952D02*
X59723Y-53230D01*
X59723Y-53230D02*
X59173Y-53230D01*
X59173Y-53230D02*
X59173Y-52952D01*
X59723Y-52280D02*
X59723Y-52558D01*
X59723Y-52280D02*
X59173Y-52280D01*
X59173Y-52280D02*
X59173Y-52558D01*
X61732Y-61496D02*
X62010Y-61496D01*
X62010Y-61496D02*
X62010Y-62046D01*
X62010Y-62046D02*
X61732Y-62046D01*
X61060Y-61496D02*
X61338Y-61496D01*
X61060Y-61496D02*
X61060Y-62046D01*
X61060Y-62046D02*
X61338Y-62046D01*
X62716Y-62717D02*
X62994Y-62717D01*
X62994Y-62717D02*
X62994Y-63267D01*
X62994Y-63267D02*
X62716Y-63267D01*
X62044Y-62717D02*
X62322Y-62717D01*
X62044Y-62717D02*
X62044Y-63267D01*
X62044Y-63267D02*
X62322Y-63267D01*
X62362Y-63307D02*
X62640Y-63307D01*
X62640Y-63307D02*
X62640Y-63857D01*
X62640Y-63857D02*
X62362Y-63857D01*
X61690Y-63307D02*
X61968Y-63307D01*
X61690Y-63307D02*
X61690Y-63857D01*
X61690Y-63857D02*
X61968Y-63857D01*
X57599Y-52558D02*
X57599Y-52280D01*
X57599Y-52280D02*
X58149Y-52280D01*
X58149Y-52280D02*
X58149Y-52558D01*
X57599Y-53230D02*
X57599Y-52952D01*
X57599Y-53230D02*
X58149Y-53230D01*
X58149Y-53230D02*
X58149Y-52952D01*
X63543Y-61536D02*
X63821Y-61536D01*
X63821Y-61536D02*
X63821Y-62086D01*
X63821Y-62086D02*
X63543Y-62086D01*
X62871Y-61536D02*
X63149Y-61536D01*
X62871Y-61536D02*
X62871Y-62086D01*
X62871Y-62086D02*
X63149Y-62086D01*
X63346Y-62126D02*
X63624Y-62126D01*
X63624Y-62126D02*
X63624Y-62676D01*
X63624Y-62676D02*
X63346Y-62676D01*
X62674Y-62126D02*
X62952Y-62126D01*
X62674Y-62126D02*
X62674Y-62676D01*
X62674Y-62676D02*
X62952Y-62676D01*
X58936Y-52952D02*
X58936Y-53230D01*
X58936Y-53230D02*
X58386Y-53230D01*
X58386Y-53230D02*
X58386Y-52952D01*
X58936Y-52280D02*
X58936Y-52558D01*
X58936Y-52280D02*
X58386Y-52280D01*
X58386Y-52280D02*
X58386Y-52558D01*
X60747Y-61377D02*
X60469Y-61377D01*
X60469Y-61377D02*
X60469Y-60827D01*
X60469Y-60827D02*
X60747Y-60827D01*
X61419Y-61377D02*
X61141Y-61377D01*
X61419Y-61377D02*
X61419Y-60827D01*
X61419Y-60827D02*
X61141Y-60827D01*
X61614Y-66219D02*
X61336Y-66219D01*
X61336Y-66219D02*
X61336Y-65669D01*
X61336Y-65669D02*
X61614Y-65669D01*
X62286Y-66219D02*
X62008Y-66219D01*
X62286Y-66219D02*
X62286Y-65669D01*
X62286Y-65669D02*
X62008Y-65669D01*
X61614Y-65432D02*
X61336Y-65432D01*
X61336Y-65432D02*
X61336Y-64882D01*
X61336Y-64882D02*
X61614Y-64882D01*
X62286Y-65432D02*
X62008Y-65432D01*
X62286Y-65432D02*
X62286Y-64882D01*
X62286Y-64882D02*
X62008Y-64882D01*
X61614Y-64645D02*
X61336Y-64645D01*
X61336Y-64645D02*
X61336Y-64095D01*
X61336Y-64095D02*
X61614Y-64095D01*
X62286Y-64645D02*
X62008Y-64645D01*
X62286Y-64645D02*
X62286Y-64095D01*
X62286Y-64095D02*
X62008Y-64095D01*
G54D10*
X80413Y-62153D02*
X80060Y-62675D01*
X81359Y-62791D02*
X80315Y-62087D01*
X80315Y-62087D02*
X79963Y-62609D01*
X79963Y-62609D02*
X81007Y-63314D01*
X81007Y-63314D02*
X81359Y-62791D01*
X80750Y-63307D02*
X80571Y-62094D01*
X81257Y-62556D02*
X80065Y-62844D01*
X81257Y-62556D02*
X80571Y-62094D01*
X80571Y-62094D02*
X80065Y-62844D01*
X80065Y-62844D02*
X80750Y-63307D01*
X80750Y-63307D02*
X81257Y-62556D01*
X78465Y-64273D02*
X77941Y-64623D01*
X79100Y-65222D02*
X78399Y-64175D01*
X78399Y-64175D02*
X77876Y-64525D01*
X77876Y-64525D02*
X78576Y-65572D01*
X78576Y-65572D02*
X79100Y-65222D01*
X78341Y-65469D02*
X78634Y-64278D01*
X79094Y-64965D02*
X77881Y-64782D01*
X79094Y-64965D02*
X78634Y-64278D01*
X78634Y-64278D02*
X77881Y-64782D01*
X77881Y-64782D02*
X78341Y-65469D01*
X78341Y-65469D02*
X79094Y-64965D01*
X70286Y-64623D02*
X69763Y-64273D01*
X69651Y-65572D02*
X70352Y-64525D01*
X70352Y-64525D02*
X69828Y-64175D01*
X69828Y-64175D02*
X69128Y-65222D01*
X69128Y-65222D02*
X69651Y-65572D01*
X69133Y-64965D02*
X70346Y-64782D01*
X69886Y-65469D02*
X69593Y-64278D01*
X69886Y-65469D02*
X70346Y-64782D01*
X70346Y-64782D02*
X69593Y-64278D01*
X69593Y-64278D02*
X69133Y-64965D01*
X69133Y-64965D02*
X69886Y-65469D01*
X68167Y-62677D02*
X67817Y-62154D01*
X67218Y-63312D02*
X68265Y-62612D01*
X68265Y-62612D02*
X67915Y-62088D01*
X67915Y-62088D02*
X66868Y-62789D01*
X66868Y-62789D02*
X67218Y-63312D01*
X66971Y-62554D02*
X68162Y-62847D01*
X67475Y-63306D02*
X67658Y-62094D01*
X67475Y-63306D02*
X68162Y-62847D01*
X68162Y-62847D02*
X67658Y-62094D01*
X67658Y-62094D02*
X66971Y-62554D01*
X66971Y-62554D02*
X67475Y-63306D01*
X67817Y-54499D02*
X68167Y-53975D01*
X66868Y-53864D02*
X67915Y-54564D01*
X67915Y-54564D02*
X68265Y-54041D01*
X68265Y-54041D02*
X67218Y-53340D01*
X67218Y-53340D02*
X66868Y-53864D01*
X67475Y-53346D02*
X67658Y-54558D01*
X66971Y-54099D02*
X68162Y-53806D01*
X66971Y-54099D02*
X67658Y-54558D01*
X67658Y-54558D02*
X68162Y-53806D01*
X68162Y-53806D02*
X67475Y-53346D01*
X67475Y-53346D02*
X66971Y-54099D01*
X69763Y-52380D02*
X70286Y-52029D01*
X69128Y-51431D02*
X69828Y-52478D01*
X69828Y-52478D02*
X70352Y-52127D01*
X70352Y-52127D02*
X69651Y-51080D01*
X69651Y-51080D02*
X69128Y-51431D01*
X69886Y-51184D02*
X69593Y-52374D01*
X69133Y-51687D02*
X70346Y-51871D01*
X69133Y-51687D02*
X69593Y-52374D01*
X69593Y-52374D02*
X70346Y-51871D01*
X70346Y-51871D02*
X69886Y-51184D01*
X69886Y-51184D02*
X69133Y-51687D01*
X77941Y-52029D02*
X78465Y-52380D01*
X78576Y-51080D02*
X77876Y-52127D01*
X77876Y-52127D02*
X78399Y-52478D01*
X78399Y-52478D02*
X79100Y-51431D01*
X79100Y-51431D02*
X78576Y-51080D01*
X79094Y-51687D02*
X77881Y-51871D01*
X78341Y-51184D02*
X78634Y-52374D01*
X78341Y-51184D02*
X77881Y-51871D01*
X77881Y-51871D02*
X78634Y-52374D01*
X78634Y-52374D02*
X79094Y-51687D01*
X79094Y-51687D02*
X78341Y-51184D01*
X80060Y-53975D02*
X80411Y-54499D01*
X81009Y-53340D02*
X79962Y-54041D01*
X79962Y-54041D02*
X80313Y-54564D01*
X80313Y-54564D02*
X81360Y-53864D01*
X81360Y-53864D02*
X81009Y-53340D01*
X81256Y-54099D02*
X80066Y-53806D01*
X80753Y-53346D02*
X80569Y-54558D01*
X80753Y-53346D02*
X80066Y-53806D01*
X80066Y-53806D02*
X80569Y-54558D01*
X80569Y-54558D02*
X81256Y-54099D01*
X81256Y-54099D02*
X80753Y-53346D01*
X85059Y-57814D02*
X84429Y-57814D01*
X85059Y-58956D02*
X85059Y-57696D01*
X85059Y-57696D02*
X84429Y-57696D01*
X84429Y-57696D02*
X84429Y-58956D01*
X84429Y-58956D02*
X85059Y-58956D01*
X84291Y-58740D02*
X85196Y-57913D01*
X85196Y-58740D02*
X84291Y-57913D01*
X85196Y-58740D02*
X85196Y-57913D01*
X85196Y-57913D02*
X84291Y-57913D01*
X84291Y-57913D02*
X84291Y-58740D01*
X84291Y-58740D02*
X85196Y-58740D01*
X63799Y-57814D02*
X63169Y-57814D01*
X63799Y-58956D02*
X63799Y-57696D01*
X63799Y-57696D02*
X63169Y-57696D01*
X63169Y-57696D02*
X63169Y-58956D01*
X63169Y-58956D02*
X63799Y-58956D01*
X63031Y-58740D02*
X63937Y-57913D01*
X63937Y-58740D02*
X63031Y-57913D01*
X63937Y-58740D02*
X63937Y-57913D01*
X63937Y-57913D02*
X63031Y-57913D01*
X63031Y-57913D02*
X63031Y-58740D01*
X63031Y-58740D02*
X63937Y-58740D01*
X81496Y-58326D02*
G75*
G03X81496Y-58326I-7381J0D01*
G74*
G01*
X59984Y-62933D02*
G75*
G03X59984Y-62933I-141J0D01*
G74*
G01*
X59842Y-62933D02*
X58661Y-62933D01*
X58661Y-62933D02*
X58661Y-64114D01*
X58661Y-64114D02*
X59842Y-64114D01*
X59842Y-64114D02*
X59842Y-62933D01*
M02*
