G04 (created by PCBNEW (2013-07-07 BZR 4022)-stable) date 21/03/2014 11:29:29*
%MOIN*%
G04 Gerber Fmt 3.4, Leading zero omitted, Abs format*
%FSLAX34Y34*%
G01*
G70*
G90*
G04 APERTURE LIST*
%ADD10C,0.00590551*%
%ADD11C,0.0047*%
%ADD12C,0.005*%
G04 APERTURE END LIST*
G54D10*
G54D11*
X58110Y-64251D02*
X58385Y-64251D01*
X57716Y-64251D02*
X57441Y-64251D01*
X58110Y-64763D02*
X58385Y-64763D01*
X57441Y-64763D02*
X57716Y-64763D01*
X58385Y-64757D02*
X58385Y-64257D01*
X57441Y-64257D02*
X57441Y-64757D01*
G54D10*
X59586Y-61279D02*
X59586Y-58011D01*
X59586Y-58011D02*
X57933Y-58011D01*
X57933Y-58011D02*
X57933Y-61279D01*
X57933Y-61279D02*
X59586Y-61279D01*
G54D12*
X59723Y-52952D02*
X59723Y-53230D01*
X59723Y-53230D02*
X59173Y-53230D01*
X59173Y-53230D02*
X59173Y-52952D01*
X59723Y-52280D02*
X59723Y-52558D01*
X59723Y-52280D02*
X59173Y-52280D01*
X59173Y-52280D02*
X59173Y-52558D01*
X61732Y-61496D02*
X62010Y-61496D01*
X62010Y-61496D02*
X62010Y-62046D01*
X62010Y-62046D02*
X61732Y-62046D01*
X61060Y-61496D02*
X61338Y-61496D01*
X61060Y-61496D02*
X61060Y-62046D01*
X61060Y-62046D02*
X61338Y-62046D01*
X62716Y-62717D02*
X62994Y-62717D01*
X62994Y-62717D02*
X62994Y-63267D01*
X62994Y-63267D02*
X62716Y-63267D01*
X62044Y-62717D02*
X62322Y-62717D01*
X62044Y-62717D02*
X62044Y-63267D01*
X62044Y-63267D02*
X62322Y-63267D01*
X62362Y-63307D02*
X62640Y-63307D01*
X62640Y-63307D02*
X62640Y-63857D01*
X62640Y-63857D02*
X62362Y-63857D01*
X61690Y-63307D02*
X61968Y-63307D01*
X61690Y-63307D02*
X61690Y-63857D01*
X61690Y-63857D02*
X61968Y-63857D01*
X57599Y-52558D02*
X57599Y-52280D01*
X57599Y-52280D02*
X58149Y-52280D01*
X58149Y-52280D02*
X58149Y-52558D01*
X57599Y-53230D02*
X57599Y-52952D01*
X57599Y-53230D02*
X58149Y-53230D01*
X58149Y-53230D02*
X58149Y-52952D01*
X63543Y-61536D02*
X63821Y-61536D01*
X63821Y-61536D02*
X63821Y-62086D01*
X63821Y-62086D02*
X63543Y-62086D01*
X62871Y-61536D02*
X63149Y-61536D01*
X62871Y-61536D02*
X62871Y-62086D01*
X62871Y-62086D02*
X63149Y-62086D01*
X63346Y-62126D02*
X63624Y-62126D01*
X63624Y-62126D02*
X63624Y-62676D01*
X63624Y-62676D02*
X63346Y-62676D01*
X62674Y-62126D02*
X62952Y-62126D01*
X62674Y-62126D02*
X62674Y-62676D01*
X62674Y-62676D02*
X62952Y-62676D01*
X58936Y-52952D02*
X58936Y-53230D01*
X58936Y-53230D02*
X58386Y-53230D01*
X58386Y-53230D02*
X58386Y-52952D01*
X58936Y-52280D02*
X58936Y-52558D01*
X58936Y-52280D02*
X58386Y-52280D01*
X58386Y-52280D02*
X58386Y-52558D01*
X60747Y-61377D02*
X60469Y-61377D01*
X60469Y-61377D02*
X60469Y-60827D01*
X60469Y-60827D02*
X60747Y-60827D01*
X61419Y-61377D02*
X61141Y-61377D01*
X61419Y-61377D02*
X61419Y-60827D01*
X61419Y-60827D02*
X61141Y-60827D01*
X61614Y-66219D02*
X61336Y-66219D01*
X61336Y-66219D02*
X61336Y-65669D01*
X61336Y-65669D02*
X61614Y-65669D01*
X62286Y-66219D02*
X62008Y-66219D01*
X62286Y-66219D02*
X62286Y-65669D01*
X62286Y-65669D02*
X62008Y-65669D01*
X61614Y-65432D02*
X61336Y-65432D01*
X61336Y-65432D02*
X61336Y-64882D01*
X61336Y-64882D02*
X61614Y-64882D01*
X62286Y-65432D02*
X62008Y-65432D01*
X62286Y-65432D02*
X62286Y-64882D01*
X62286Y-64882D02*
X62008Y-64882D01*
X61614Y-64645D02*
X61336Y-64645D01*
X61336Y-64645D02*
X61336Y-64095D01*
X61336Y-64095D02*
X61614Y-64095D01*
X62286Y-64645D02*
X62008Y-64645D01*
X62286Y-64645D02*
X62286Y-64095D01*
X62286Y-64095D02*
X62008Y-64095D01*
G54D10*
X80647Y-61735D02*
X80332Y-62280D01*
X81636Y-62305D02*
X80545Y-61676D01*
X80545Y-61676D02*
X80230Y-62221D01*
X80230Y-62221D02*
X81321Y-62851D01*
X81321Y-62851D02*
X81636Y-62305D01*
X81064Y-62862D02*
X80801Y-61664D01*
X81517Y-62078D02*
X80348Y-62449D01*
X81517Y-62078D02*
X80801Y-61664D01*
X80801Y-61664D02*
X80348Y-62449D01*
X80348Y-62449D02*
X81064Y-62862D01*
X81064Y-62862D02*
X81517Y-62078D01*
X78068Y-64544D02*
X77522Y-64859D01*
X78638Y-65533D02*
X78008Y-64442D01*
X78008Y-64442D02*
X77463Y-64757D01*
X77463Y-64757D02*
X78093Y-65848D01*
X78093Y-65848D02*
X78638Y-65533D01*
X77865Y-65730D02*
X78236Y-64561D01*
X78649Y-65277D02*
X77452Y-65014D01*
X78649Y-65277D02*
X78236Y-64561D01*
X78236Y-64561D02*
X77452Y-65014D01*
X77452Y-65014D02*
X77865Y-65730D01*
X77865Y-65730D02*
X78649Y-65277D01*
X70705Y-64859D02*
X70160Y-64544D01*
X70134Y-65848D02*
X70764Y-64757D01*
X70764Y-64757D02*
X70219Y-64442D01*
X70219Y-64442D02*
X69589Y-65533D01*
X69589Y-65533D02*
X70134Y-65848D01*
X69578Y-65277D02*
X70775Y-65014D01*
X70362Y-65730D02*
X69991Y-64561D01*
X70362Y-65730D02*
X70775Y-65014D01*
X70775Y-65014D02*
X69991Y-64561D01*
X69991Y-64561D02*
X69578Y-65277D01*
X69578Y-65277D02*
X70362Y-65730D01*
X67895Y-62280D02*
X67580Y-61735D01*
X66906Y-62851D02*
X67997Y-62221D01*
X67997Y-62221D02*
X67682Y-61676D01*
X67682Y-61676D02*
X66591Y-62305D01*
X66591Y-62305D02*
X66906Y-62851D01*
X66710Y-62078D02*
X67879Y-62449D01*
X67163Y-62862D02*
X67426Y-61664D01*
X67163Y-62862D02*
X67879Y-62449D01*
X67879Y-62449D02*
X67426Y-61664D01*
X67426Y-61664D02*
X66710Y-62078D01*
X66710Y-62078D02*
X67163Y-62862D01*
X67581Y-54918D02*
X67895Y-54372D01*
X66592Y-54347D02*
X67683Y-54977D01*
X67683Y-54977D02*
X67998Y-54431D01*
X67998Y-54431D02*
X66907Y-53802D01*
X66907Y-53802D02*
X66592Y-54347D01*
X67163Y-53790D02*
X67426Y-54988D01*
X66710Y-54575D02*
X67879Y-54204D01*
X66710Y-54575D02*
X67426Y-54988D01*
X67426Y-54988D02*
X67879Y-54204D01*
X67879Y-54204D02*
X67163Y-53790D01*
X67163Y-53790D02*
X66710Y-54575D01*
X70160Y-52108D02*
X70705Y-51793D01*
X69589Y-51119D02*
X70219Y-52210D01*
X70219Y-52210D02*
X70764Y-51895D01*
X70764Y-51895D02*
X70134Y-50804D01*
X70134Y-50804D02*
X69589Y-51119D01*
X70362Y-50923D02*
X69991Y-52092D01*
X69578Y-51376D02*
X70775Y-51639D01*
X69578Y-51376D02*
X69991Y-52092D01*
X69991Y-52092D02*
X70775Y-51639D01*
X70775Y-51639D02*
X70362Y-50923D01*
X70362Y-50923D02*
X69578Y-51376D01*
X77522Y-51793D02*
X78068Y-52108D01*
X78093Y-50804D02*
X77463Y-51895D01*
X77463Y-51895D02*
X78008Y-52210D01*
X78008Y-52210D02*
X78638Y-51119D01*
X78638Y-51119D02*
X78093Y-50804D01*
X78649Y-51376D02*
X77452Y-51639D01*
X77865Y-50923D02*
X78236Y-52092D01*
X77865Y-50923D02*
X77452Y-51639D01*
X77452Y-51639D02*
X78236Y-52092D01*
X78236Y-52092D02*
X78649Y-51376D01*
X78649Y-51376D02*
X77865Y-50923D01*
X80332Y-54372D02*
X80647Y-54918D01*
X81321Y-53802D02*
X80230Y-54431D01*
X80230Y-54431D02*
X80545Y-54977D01*
X80545Y-54977D02*
X81636Y-54347D01*
X81636Y-54347D02*
X81321Y-53802D01*
X81517Y-54575D02*
X80348Y-54204D01*
X81064Y-53790D02*
X80801Y-54988D01*
X81064Y-53790D02*
X80348Y-54204D01*
X80348Y-54204D02*
X80801Y-54988D01*
X80801Y-54988D02*
X81517Y-54575D01*
X81517Y-54575D02*
X81064Y-53790D01*
X85059Y-57814D02*
X84429Y-57814D01*
X85059Y-58956D02*
X85059Y-57696D01*
X85059Y-57696D02*
X84429Y-57696D01*
X84429Y-57696D02*
X84429Y-58956D01*
X84429Y-58956D02*
X85059Y-58956D01*
X84291Y-58740D02*
X85196Y-57913D01*
X85196Y-58740D02*
X84291Y-57913D01*
X85196Y-58740D02*
X85196Y-57913D01*
X85196Y-57913D02*
X84291Y-57913D01*
X84291Y-57913D02*
X84291Y-58740D01*
X84291Y-58740D02*
X85196Y-58740D01*
X63799Y-57814D02*
X63169Y-57814D01*
X63799Y-58956D02*
X63799Y-57696D01*
X63799Y-57696D02*
X63169Y-57696D01*
X63169Y-57696D02*
X63169Y-58956D01*
X63169Y-58956D02*
X63799Y-58956D01*
X63031Y-58740D02*
X63937Y-57913D01*
X63937Y-58740D02*
X63031Y-57913D01*
X63937Y-58740D02*
X63937Y-57913D01*
X63937Y-57913D02*
X63031Y-57913D01*
X63031Y-57913D02*
X63031Y-58740D01*
X63031Y-58740D02*
X63937Y-58740D01*
X81496Y-58326D02*
G75*
G03X81496Y-58326I-7381J0D01*
G74*
G01*
X59984Y-63110D02*
G75*
G03X59984Y-63110I-141J0D01*
G74*
G01*
X59842Y-63110D02*
X58661Y-63110D01*
X58661Y-63110D02*
X58661Y-64291D01*
X58661Y-64291D02*
X59842Y-64291D01*
X59842Y-64291D02*
X59842Y-63110D01*
M02*
