M48
;DRILL file {Pcbnew (2013-07-07 BZR 4022)-stable} date 17/04/2014 00:12:46
;FORMAT={-:-/ absolute / inch / decimal}
FMAT,2
INCH,TZ
T1C0.012
T2C0.053
%
G90
G05
M72
T1
X5.7106Y-5.8858
X5.7323Y-6.3819
X5.7539Y-5.8268
X5.7913Y-6.2579
X5.8209Y-6.4803
X5.8406Y-5.5138
X5.8504Y-6.2657
X5.8524Y-6.4232
X5.8642Y-5.9252
X5.876Y-6.0039
X5.9075Y-6.3346
X5.9075Y-6.3701
X5.9252Y-6.3524
X5.9429Y-6.3346
X5.9429Y-6.3701
X6.002Y-5.5138
X6.1693Y-6.1102
X6.2441Y-6.437
X6.4547Y-6.3366
X6.4547Y-6.4035
X8.2933Y-5.4469
X8.3602Y-5.4469
T2
X5.876Y-5.8248
X5.876Y-6.1043
T0
M30
