G04 (created by PCBNEW (2013-07-07 BZR 4022)-stable) date 15/02/2015 16:01:49*
%MOIN*%
G04 Gerber Fmt 3.4, Leading zero omitted, Abs format*
%FSLAX34Y34*%
G01*
G70*
G90*
G04 APERTURE LIST*
%ADD10C,0.00590551*%
%ADD11C,0.0001*%
G04 APERTURE END LIST*
G54D10*
G54D11*
G36*
X71284Y-65210D02*
X71271Y-65257D01*
X71248Y-65325D01*
X71218Y-65408D01*
X71182Y-65500D01*
X71142Y-65597D01*
X71102Y-65694D01*
X71062Y-65784D01*
X71026Y-65862D01*
X70995Y-65923D01*
X70973Y-65962D01*
X70961Y-65973D01*
X70937Y-65967D01*
X70887Y-65949D01*
X70820Y-65921D01*
X70741Y-65886D01*
X70719Y-65876D01*
X70222Y-65629D01*
X69749Y-65356D01*
X69301Y-65059D01*
X68876Y-64737D01*
X68476Y-64391D01*
X68100Y-64019D01*
X67748Y-63623D01*
X67420Y-63202D01*
X67117Y-62755D01*
X66969Y-62515D01*
X66915Y-62420D01*
X66856Y-62311D01*
X66793Y-62195D01*
X66730Y-62072D01*
X66670Y-61950D01*
X66612Y-61833D01*
X66560Y-61724D01*
X66517Y-61628D01*
X66484Y-61550D01*
X66463Y-61494D01*
X66457Y-61466D01*
X66473Y-61454D01*
X66515Y-61431D01*
X66579Y-61400D01*
X66659Y-61364D01*
X66751Y-61325D01*
X66847Y-61284D01*
X66944Y-61245D01*
X67035Y-61209D01*
X67116Y-61179D01*
X67181Y-61156D01*
X67225Y-61144D01*
X67241Y-61143D01*
X67254Y-61164D01*
X67277Y-61210D01*
X67307Y-61275D01*
X67340Y-61351D01*
X67341Y-61351D01*
X67537Y-61761D01*
X67765Y-62164D01*
X68023Y-62556D01*
X68307Y-62936D01*
X68616Y-63298D01*
X68947Y-63641D01*
X69297Y-63961D01*
X69654Y-64248D01*
X69970Y-64472D01*
X70302Y-64683D01*
X70641Y-64876D01*
X70978Y-65044D01*
X71091Y-65095D01*
X71164Y-65128D01*
X71225Y-65157D01*
X71268Y-65179D01*
X71284Y-65189D01*
X71284Y-65210D01*
X71284Y-65210D01*
X71284Y-65210D01*
G37*
G36*
X81771Y-61466D02*
X81763Y-61498D01*
X81741Y-61556D01*
X81706Y-61638D01*
X81660Y-61739D01*
X81605Y-61855D01*
X81542Y-61984D01*
X81523Y-62021D01*
X81267Y-62493D01*
X80984Y-62946D01*
X80673Y-63377D01*
X80338Y-63786D01*
X79978Y-64172D01*
X79594Y-64533D01*
X79187Y-64869D01*
X78758Y-65180D01*
X78309Y-65462D01*
X77841Y-65717D01*
X77831Y-65722D01*
X77727Y-65773D01*
X77622Y-65823D01*
X77522Y-65870D01*
X77431Y-65911D01*
X77355Y-65945D01*
X77298Y-65967D01*
X77266Y-65978D01*
X77263Y-65978D01*
X77247Y-65964D01*
X77226Y-65929D01*
X77223Y-65922D01*
X77189Y-65847D01*
X77152Y-65760D01*
X77112Y-65663D01*
X77071Y-65563D01*
X77033Y-65465D01*
X76998Y-65376D01*
X76969Y-65298D01*
X76948Y-65238D01*
X76937Y-65202D01*
X76937Y-65193D01*
X76957Y-65182D01*
X77002Y-65159D01*
X77068Y-65128D01*
X77148Y-65091D01*
X77197Y-65068D01*
X77620Y-64859D01*
X78032Y-64620D01*
X78429Y-64353D01*
X78810Y-64059D01*
X79173Y-63741D01*
X79515Y-63400D01*
X79835Y-63040D01*
X80130Y-62662D01*
X80399Y-62269D01*
X80638Y-61861D01*
X80847Y-61443D01*
X80887Y-61351D01*
X80921Y-61275D01*
X80951Y-61210D01*
X80974Y-61164D01*
X80987Y-61142D01*
X81007Y-61144D01*
X81053Y-61157D01*
X81120Y-61181D01*
X81203Y-61212D01*
X81295Y-61248D01*
X81392Y-61288D01*
X81489Y-61329D01*
X81579Y-61368D01*
X81658Y-61404D01*
X81719Y-61433D01*
X81759Y-61456D01*
X81771Y-61466D01*
X81771Y-61466D01*
X81771Y-61466D01*
G37*
G36*
X64918Y-58308D02*
X64917Y-58425D01*
X64916Y-58530D01*
X64914Y-58619D01*
X64911Y-58686D01*
X64909Y-58727D01*
X64907Y-58737D01*
X64888Y-58741D01*
X64837Y-58744D01*
X64758Y-58747D01*
X64655Y-58750D01*
X64529Y-58752D01*
X64384Y-58753D01*
X64224Y-58754D01*
X64051Y-58755D01*
X63869Y-58756D01*
X63682Y-58756D01*
X63491Y-58756D01*
X63300Y-58755D01*
X63113Y-58755D01*
X62932Y-58753D01*
X62761Y-58752D01*
X62602Y-58750D01*
X62460Y-58747D01*
X62337Y-58745D01*
X62237Y-58742D01*
X62161Y-58739D01*
X62114Y-58736D01*
X62099Y-58732D01*
X62097Y-58710D01*
X62096Y-58657D01*
X62095Y-58580D01*
X62095Y-58484D01*
X62095Y-58374D01*
X62096Y-58304D01*
X62100Y-57897D01*
X63509Y-57897D01*
X64918Y-57897D01*
X64918Y-58308D01*
X64918Y-58308D01*
X64918Y-58308D01*
G37*
G36*
X86128Y-58746D02*
X84730Y-58750D01*
X84440Y-58751D01*
X84184Y-58751D01*
X83960Y-58751D01*
X83769Y-58750D01*
X83612Y-58748D01*
X83488Y-58746D01*
X83398Y-58744D01*
X83343Y-58741D01*
X83321Y-58738D01*
X83321Y-58737D01*
X83318Y-58716D01*
X83316Y-58664D01*
X83313Y-58589D01*
X83311Y-58493D01*
X83310Y-58384D01*
X83310Y-58308D01*
X83310Y-57897D01*
X84719Y-57897D01*
X86128Y-57897D01*
X86128Y-58321D01*
X86128Y-58746D01*
X86128Y-58746D01*
X86128Y-58746D01*
G37*
G36*
X71292Y-51440D02*
X71270Y-51455D01*
X71230Y-51475D01*
X71221Y-51479D01*
X71185Y-51494D01*
X71124Y-51521D01*
X71046Y-51557D01*
X70957Y-51599D01*
X70901Y-51626D01*
X70462Y-51853D01*
X70040Y-52111D01*
X69634Y-52397D01*
X69248Y-52711D01*
X68883Y-53050D01*
X68541Y-53412D01*
X68223Y-53797D01*
X67935Y-54199D01*
X67811Y-54393D01*
X67685Y-54606D01*
X67563Y-54826D01*
X67451Y-55044D01*
X67353Y-55250D01*
X67322Y-55320D01*
X67281Y-55410D01*
X67248Y-55469D01*
X67225Y-55495D01*
X67220Y-55496D01*
X67196Y-55490D01*
X67147Y-55471D01*
X67075Y-55442D01*
X66985Y-55406D01*
X66884Y-55364D01*
X66830Y-55341D01*
X66725Y-55297D01*
X66632Y-55255D01*
X66555Y-55218D01*
X66498Y-55189D01*
X66466Y-55170D01*
X66461Y-55165D01*
X66466Y-55137D01*
X66485Y-55083D01*
X66517Y-55007D01*
X66558Y-54912D01*
X66609Y-54803D01*
X66666Y-54682D01*
X66729Y-54557D01*
X66735Y-54545D01*
X66984Y-54091D01*
X67261Y-53655D01*
X67566Y-53237D01*
X67903Y-52833D01*
X68270Y-52445D01*
X68312Y-52403D01*
X68697Y-52046D01*
X69096Y-51719D01*
X69514Y-51420D01*
X69838Y-51214D01*
X69944Y-51152D01*
X70060Y-51087D01*
X70184Y-51020D01*
X70310Y-50954D01*
X70437Y-50890D01*
X70558Y-50830D01*
X70672Y-50776D01*
X70773Y-50730D01*
X70858Y-50693D01*
X70924Y-50669D01*
X70966Y-50658D01*
X70979Y-50659D01*
X70992Y-50681D01*
X71014Y-50730D01*
X71044Y-50798D01*
X71079Y-50882D01*
X71117Y-50975D01*
X71156Y-51072D01*
X71194Y-51168D01*
X71229Y-51257D01*
X71258Y-51335D01*
X71280Y-51394D01*
X71291Y-51431D01*
X71292Y-51440D01*
X71292Y-51440D01*
X71292Y-51440D01*
G37*
G36*
X81767Y-55165D02*
X81751Y-55177D01*
X81708Y-55200D01*
X81643Y-55231D01*
X81563Y-55268D01*
X81472Y-55308D01*
X81377Y-55350D01*
X81281Y-55390D01*
X81192Y-55428D01*
X81113Y-55459D01*
X81051Y-55483D01*
X81011Y-55496D01*
X81000Y-55498D01*
X80986Y-55483D01*
X80962Y-55443D01*
X80934Y-55384D01*
X80916Y-55343D01*
X80728Y-54941D01*
X80509Y-54544D01*
X80260Y-54156D01*
X79985Y-53778D01*
X79687Y-53417D01*
X79368Y-53075D01*
X79031Y-52754D01*
X78694Y-52472D01*
X78593Y-52396D01*
X78471Y-52309D01*
X78334Y-52213D01*
X78191Y-52117D01*
X78050Y-52025D01*
X77918Y-51941D01*
X77801Y-51870D01*
X77756Y-51844D01*
X77684Y-51805D01*
X77593Y-51757D01*
X77490Y-51705D01*
X77382Y-51652D01*
X77276Y-51600D01*
X77177Y-51553D01*
X77092Y-51514D01*
X77027Y-51487D01*
X77003Y-51478D01*
X76960Y-51459D01*
X76934Y-51441D01*
X76932Y-51437D01*
X76937Y-51417D01*
X76953Y-51372D01*
X76979Y-51305D01*
X77010Y-51222D01*
X77047Y-51130D01*
X77086Y-51033D01*
X77126Y-50938D01*
X77163Y-50848D01*
X77196Y-50770D01*
X77223Y-50711D01*
X77241Y-50673D01*
X77244Y-50667D01*
X77266Y-50663D01*
X77315Y-50675D01*
X77386Y-50701D01*
X77478Y-50739D01*
X77586Y-50787D01*
X77707Y-50845D01*
X77837Y-50910D01*
X77973Y-50981D01*
X78112Y-51056D01*
X78250Y-51134D01*
X78332Y-51181D01*
X78771Y-51460D01*
X79193Y-51768D01*
X79595Y-52102D01*
X79976Y-52461D01*
X80334Y-52843D01*
X80667Y-53246D01*
X80974Y-53667D01*
X81252Y-54105D01*
X81491Y-54541D01*
X81555Y-54670D01*
X81614Y-54792D01*
X81666Y-54903D01*
X81709Y-55001D01*
X81741Y-55079D01*
X81761Y-55135D01*
X81767Y-55165D01*
X81767Y-55165D01*
X81767Y-55165D01*
X81767Y-55165D01*
G37*
M02*
